<?xml version="1.0" encoding="utf-8"?>
<!-- Generator: Adobe Illustrator 23.1.0, SVG Export Plug-In . SVG Version: 6.00 Build 0)  -->
<svg version="1.1" xmlns="http://www.w3.org/2000/svg" xmlns:xlink="http://www.w3.org/1999/xlink" x="0px" y="0px"
	 viewBox="0 0 914.5 220.4" style="enable-background:new 0 0 914.5 220.4;" xml:space="preserve">
<style type="text/css">
	.st0{display:none;}
	.st1{display:inline;}
	.st2{fill:#E8E8DF;}
	.st3{fill:#48E0C2;}
	.st4{fill:#6547EB;}
	.st5{fill:#AB4AC3;}
	.st6{fill:#FFFFFF;}
	.st7{fill:#FFFFFF;stroke:#581466;stroke-width:2;stroke-miterlimit:10;}
	.st8{fill:#9676A7;}
	.st9{fill:#D8D6C9;}
	.st10{fill:#FEFEFE;}
	.st11{fill:#9677A7;}
	.st12{fill:#9777A8;}
	.st13{fill:#9777A7;}
	.st14{fill:#C7BCB7;}
	.st15{fill:#659B35;}
	.st16{fill:#F2D45B;}
	.st17{fill:#87BF57;}
	.st18{fill:#E47E25;}
	.st19{fill:none;stroke:#4D4D4D;stroke-width:3;stroke-miterlimit:10;stroke-dasharray:14;}
	.st20{fill:#EFEFEA;}
	.st21{fill:#CB3533;}
	.st22{fill:#FCC79A;}
	.st23{fill:#F9AE78;}
	.st24{fill:#F8BA91;}
	.st25{fill:none;stroke:#D6D6D4;stroke-width:5;stroke-miterlimit:10;stroke-dasharray:40;}
	.st26{fill:none;stroke:#D6D6D4;stroke-width:5;stroke-miterlimit:10;stroke-dasharray:36;}
	.st27{fill:#F4F4ED;}
	.st28{fill:#A0A4A5;}
	.st29{fill:#00BCD4;}
	.st30{fill:none;stroke:#6547EB;stroke-width:7;stroke-miterlimit:10;}
	.st31{fill:none;stroke:#6547EB;stroke-width:8;stroke-miterlimit:10;}
	.st32{fill:none;stroke:#6547EB;stroke-width:6;stroke-miterlimit:10;}
</style>
<g id="Layer_2" class="st0">
	<g class="st1">
		<rect x="-744.9" y="-37.4" class="st2" width="491" height="306"/>
		<path class="st3" d="M-250.6,263.7c10.9,0,20.9,0,30.8,0c9.5,0,19,0.1,28.5,0c3.2,0,4.5,1.1,4.4,4.3c-0.1,8.3-0.1,16.7,0,25
			c0,4.2-2.1,6.1-6.1,6.1c-1.5,0-3,0-4.5,0c-202.3,0-404.6,0-606.9,0c-1.8,0-3.7,0.1-5.5-0.1c-3.3-0.3-5.2-2-5.2-5.5
			c0-8.7,0.1-17.3-0.1-26c-0.1-4.1,2.5-3.9,5.3-3.9c17.8,0,35.7,0,53.5,0c6.5,0,6.6,0,6.6-6.5c0-95.5,0-191,0-286.5
			c0-10.3,1.6-11.9,11.8-11.9c158.6,0,317.3,0,475.9,0c10,0,11.5,1.5,11.5,11.7c0,95,0,190,0,285
			C-250.6,257.9-250.6,260.4-250.6,263.7z M-500.5,263.7c79.1,0,158.3,0,237.4,0c6.7,0,6.7,0,6.7-6.9c0-95,0-190,0-285
			c0-7.1,0-7.1-7.2-7.1c-157.6,0-315.3,0-472.9,0c-7.4,0-7.4,0-7.4,7.4c0,94.8,0,189.6,0,284.5c0,7.1,0,7.1,7.4,7.1
			C-657.8,263.7-579.1,263.7-500.5,263.7z"/>
		<path class="st4" d="M-410.9,215.6h-180c-14.4,0-26-11.6-26-26v0c0-14.4,11.6-26,26-26h180c14.4,0,26,11.6,26,26v0
			C-384.9,204-396.6,215.6-410.9,215.6z"/>
		<g>
			<path class="st5" d="M-656.7,31.2v4.9v11.6c0,0.8-0.4,1.2-1.2,1.2h-4.2c-0.8,0-1.2-0.4-1.2-1.2v-3.3c-2.5,3.4-6.4,5.2-11.3,5.2
				c-10,0-17.6-8-17.6-18.3c0-10.3,7.7-18.3,18.3-18.3c7.8,0,14.5,4.8,16.7,11.2c0.3,0.8-0.1,1.3-1,1.3h-4.9c-0.7,0-1.1-0.3-1.4-0.9
				c-1.6-2.8-5.2-4.9-9.4-4.9c-6.9,0-11.4,4.8-11.4,11.6c0,7.2,4.8,11.9,11.4,11.9c4.6,0,9.1-2.1,10.2-7.1h-8.6
				c-0.8,0-1.2-0.4-1.2-1.2v-3.7c0-0.8,0.4-1.2,1.2-1.2h14.4C-657.1,30-656.7,30.4-656.7,31.2z"/>
			<path class="st5" d="M-626.6,36.3c0,0.5,0,1-0.1,1.5c-0.1,0.8-0.6,1.1-1.3,1.1h-5.2h-12.6c0.9,3.6,3.6,5.2,6.8,5.2
				c1.9,0,3.6-0.8,4.6-1.8c0.5-0.4,0.8-0.7,1.5-0.7l4,0c0.9,0,1.3,0.6,1,1.3c-1.9,4.2-6,6.6-11.2,6.6c-8.2,0-13.5-5.7-13.5-13.3
				c0-7.5,5.4-13.3,13.4-13.3C-631.7,23-626.6,28.9-626.6,36.3z M-633.1,33.9c-0.8-3.6-3.4-5-6.1-5c-3.4,0-5.8,1.9-6.6,5H-633.1z"/>
			<path class="st5" d="M-609.4,24.9v3.9c0,0.8-0.4,1.2-1.2,1.2h-3.1v17.7c0,0.8-0.4,1.2-1.2,1.2h-4.1c-0.8,0-1.2-0.4-1.2-1.2V29.9
				h-3.1c-0.8,0-1.2-0.4-1.2-1.2v-3.9c0-0.8,0.4-1.2,1.2-1.2h3.1v-6.9c0-0.8,0.4-1.2,1.2-1.2h4.1c0.8,0,1.2,0.4,1.2,1.2v6.9h3.1
				C-609.8,23.7-609.4,24.1-609.4,24.9z"/>
			<path class="st5" d="M-594.6,39.3c-0.1-0.8,0.4-1.2,1.2-1.2h4.5c0.7,0,1.1,0.4,1.2,1.2c0.4,2.4,2.4,3.6,5.9,3.6
				c3.5,0,5.2-1.5,5.2-3.6c0-2.5-2.8-3.6-6.2-4.8c-5.1-1.8-11.3-3.8-11.3-11.3c0-6.8,5.6-10.2,11.5-10.2c5.8,0,11.3,3.2,11.9,10.1
				c0.1,0.8-0.4,1.2-1.2,1.2h-4.5c-0.7,0-1.1-0.4-1.2-1.1c-0.4-2.3-2.2-3.5-4.9-3.5c-2.9,0-4.5,1.5-4.5,3.5c0,2.6,2.4,3.7,5.7,4.9
				c5.1,1.8,11.8,3.7,11.8,11.1c0,6.8-5.6,10.3-12.1,10.3C-588.4,49.6-594.1,46.3-594.6,39.3z"/>
			<path class="st5" d="M-552.7,24.9v3.9c0,0.8-0.4,1.2-1.2,1.2h-3.1v17.7c0,0.8-0.4,1.2-1.2,1.2h-4.1c-0.8,0-1.2-0.4-1.2-1.2V29.9
				h-3.1c-0.8,0-1.2-0.4-1.2-1.2v-3.9c0-0.8,0.4-1.2,1.2-1.2h3.1v-6.9c0-0.8,0.4-1.2,1.2-1.2h4.1c0.8,0,1.2,0.4,1.2,1.2v6.9h3.1
				C-553.1,23.7-552.7,24.1-552.7,24.9z"/>
			<path class="st5" d="M-539.2,23c5.6,0,10.3,3.3,10.3,9.9v14.8c0,0.8-0.4,1.2-1.2,1.2h-4c-0.8,0-1.2-0.4-1.2-1.2v-1
				c-1.4,1.8-3.6,2.9-6.8,2.9c-4.5,0-8.5-2.6-8.5-7.9c0-5.3,4-7.9,8.5-7.9c3.2,0,5.4,1,6.8,2.2v-2.7c0-3-1.5-4.2-3.9-4.2
				c-1.9,0-3.3,0.8-3.7,2.2c-0.3,0.7-0.5,1.1-1.2,1.1h-4c-0.8,0-1.2-0.4-1.2-1.2C-548.7,25.9-544.3,23-539.2,23L-539.2,23z
				 M-535.3,41.6c0-1.9-1.8-3.1-4.6-3.1s-4.2,1.3-4.2,3.1s1.3,3.1,4.2,3.1S-535.3,43.5-535.3,41.6z"/>
			<path class="st5" d="M-510.2,24.4v4.8c0,0.8-0.3,1.2-0.9,1.2c-3.1,0-6,1.6-6,6.1v11.2c0,0.8-0.4,1.2-1.2,1.2h-4.1
				c-0.8,0-1.2-0.4-1.2-1.2V24.9c0-0.8,0.4-1.2,1.2-1.2h4.1c0.8,0,1.2,0.4,1.2,1.2v2.6c1.1-2.6,3.2-3.9,5.7-4.2
				C-510.6,23.2-510.2,23.7-510.2,24.4z"/>
			<path class="st5" d="M-492.8,24.9v3.9c0,0.8-0.4,1.2-1.2,1.2h-3.1v17.7c0,0.8-0.4,1.2-1.2,1.2h-4.1c-0.8,0-1.2-0.4-1.2-1.2V29.9
				h-3.1c-0.8,0-1.2-0.4-1.2-1.2v-3.9c0-0.8,0.4-1.2,1.2-1.2h3.1v-6.9c0-0.8,0.4-1.2,1.2-1.2h4.1c0.8,0,1.2,0.4,1.2,1.2v6.9h3.1
				C-493.3,23.7-492.8,24.1-492.8,24.9z"/>
			<path class="st5" d="M-465.1,36.3c0,0.5,0,1-0.1,1.5c-0.1,0.8-0.6,1.1-1.3,1.1h-5.2h-12.6c0.9,3.6,3.6,5.2,6.8,5.2
				c1.9,0,3.6-0.8,4.6-1.8c0.5-0.4,0.8-0.7,1.5-0.7l4,0c0.9,0,1.3,0.6,1,1.3c-1.9,4.2-6,6.6-11.2,6.6c-8.2,0-13.5-5.7-13.5-13.3
				c0-7.5,5.4-13.3,13.4-13.3C-470.2,23-465.1,28.9-465.1,36.3z M-471.6,33.9c-0.8-3.6-3.4-5-6.1-5c-3.4,0-5.8,1.9-6.6,5H-471.6z"/>
			<path class="st5" d="M-435,14.8v32.9c0,0.8-0.4,1.2-1.2,1.2h-4.1c-0.8,0-1.2-0.4-1.2-1.2v-1.8c-1.8,2.3-4.5,3.7-8.2,3.7
				c-6.7,0-12.3-5.8-12.3-13.3s5.6-13.3,12.3-13.3c3.7,0,6.4,1.4,8.2,3.7V14.8c0-0.8,0.4-1.2,1.2-1.2h4.1
				C-435.5,13.6-435,14-435,14.8z M-441.5,36.3c0-4.2-3-7.1-7-7.1s-7,2.9-7,7.1s3,7.1,7,7.1S-441.5,40.5-441.5,36.3z"/>
			<path class="st5" d="M-396,13.6h4.5c0.8,0,1.2,0.4,1.2,1.2v32.9c0,0.8-0.4,1.2-1.2,1.2h-3.1c-0.6,0-1.1-0.2-1.5-0.8l-13.2-21
				v20.6c0,0.8-0.4,1.2-1.2,1.2h-4.5c-0.8,0-1.2-0.4-1.2-1.2V14.8c0-0.8,0.4-1.2,1.2-1.2h3.1c0.6,0,1.1,0.2,1.5,0.8l13.2,21V14.8
				C-397.2,14-396.8,13.6-396,13.6z"/>
			<path class="st5" d="M-385.3,36.3c0-7.5,5.9-13.3,13.3-13.3c7.4,0,13.3,5.8,13.3,13.3s-5.9,13.3-13.3,13.3
				C-379.4,49.6-385.3,43.8-385.3,36.3z M-365.2,36.3c0-4.1-3-7-6.8-7s-6.8,2.9-6.8,7s3,7,6.8,7S-365.2,40.4-365.2,36.3z"/>
			<path class="st5" d="M-322.6,25l-7.5,22.8c-0.2,0.7-0.7,1-1.4,1h-3.4h-0.7c-0.7,0-1.2-0.3-1.4-1l-3-9.1l-3,9.1
				c-0.2,0.7-0.7,1-1.4,1h-2.6h-1.5c-0.7,0-1.2-0.3-1.4-1l-7.5-22.8c-0.3-0.8,0.1-1.3,1-1.3h4.4c0.7,0,1.1,0.3,1.3,1l4.6,16.3
				l3.3-10.3l-1.8-5.6c-0.3-0.8,0.1-1.3,1-1.3h3.3c0.7,0,1.1,0.3,1.3,1l4.9,15.6l4.4-15.6c0.2-0.7,0.6-1,1.3-1h4.4
				C-322.8,23.7-322.4,24.2-322.6,25z"/>
			<path class="st5" d="M-317.6,36l-1.2-12.3v-8.9c0-0.8,0.4-1.2,1.2-1.2h5.4c0.8,0,1.2,0.4,1.2,1.2v8.9l-1.2,12.3
				c-0.1,0.7-0.5,1-1.2,1h-3C-317.1,37-317.6,36.7-317.6,36z M-318.5,47.7v-4.8c0-0.8,0.4-1.2,1.2-1.2h4.8c0.8,0,1.2,0.4,1.2,1.2
				v4.8c0,0.8-0.4,1.2-1.2,1.2h-4.8C-318.1,48.9-318.5,48.5-318.5,47.7z"/>
		</g>
		<g>
			<path class="st5" d="M-662.9,110.2V82.4h3.9l8.9,14.1c2.1,3.3,3.7,6.2,5,9l0.1,0c-0.3-3.7-0.4-7.1-0.4-11.4V82.4h3.4v27.8h-3.6
				l-8.8-14.1c-1.9-3.1-3.8-6.3-5.2-9.3l-0.1,0c0.2,3.5,0.3,6.8,0.3,11.5v11.9H-662.9z"/>
			<path class="st5" d="M-617.8,100c0,7.4-5.1,10.6-9.9,10.6c-5.4,0-9.6-4-9.6-10.3c0-6.7,4.4-10.6,9.9-10.6
				C-621.7,89.8-617.8,93.9-617.8,100z M-633.6,100.2c0,4.4,2.5,7.7,6.1,7.7c3.5,0,6.1-3.3,6.1-7.8c0-3.4-1.7-7.7-6-7.7
				C-631.8,92.5-633.6,96.5-633.6,100.2z"/>
			<path class="st5" d="M-605,106.5c1.1,0.7,3,1.4,4.8,1.4c2.6,0,3.9-1.3,3.9-3c0-1.7-1-2.7-3.7-3.7c-3.6-1.3-5.3-3.3-5.3-5.6
				c0-3.2,2.6-5.9,6.9-5.9c2,0,3.8,0.6,4.9,1.2l-0.9,2.6c-0.8-0.5-2.2-1.2-4.1-1.2c-2.1,0-3.3,1.2-3.3,2.7c0,1.6,1.2,2.4,3.8,3.4
				c3.5,1.3,5.2,3.1,5.2,6c0,3.5-2.7,6-7.5,6c-2.2,0-4.2-0.5-5.6-1.4L-605,106.5z"/>
			<path class="st5" d="M-584.1,84.6c0,1.2-0.9,2.2-2.3,2.2c-1.3,0-2.2-1-2.2-2.2c0-1.3,0.9-2.3,2.3-2.3
				C-585,82.4-584.1,83.3-584.1,84.6z M-588.2,110.2v-20h3.6v20H-588.2z"/>
			<path class="st5" d="M-561.3,90.2c-0.1,1.4-0.2,3.1-0.2,5.5v11.6c0,4.6-0.9,7.4-2.8,9.1c-1.9,1.8-4.7,2.4-7.3,2.4
				c-2.4,0-5-0.6-6.6-1.6l0.9-2.8c1.3,0.8,3.4,1.6,5.9,1.6c3.7,0,6.4-1.9,6.4-7v-2.2h-0.1c-1.1,1.9-3.3,3.3-6.3,3.3
				c-4.9,0-8.5-4.2-8.5-9.7c0-6.8,4.4-10.6,9-10.6c3.5,0,5.4,1.8,6.2,3.5h0.1l0.2-3H-561.3z M-565.1,98.1c0-0.6,0-1.2-0.2-1.6
				c-0.7-2.1-2.4-3.8-5.1-3.8c-3.5,0-5.9,2.9-5.9,7.5c0,3.9,2,7.2,5.9,7.2c2.2,0,4.2-1.4,5-3.7c0.2-0.6,0.3-1.3,0.3-1.9V98.1z"/>
			<path class="st5" d="M-555.7,95.6c0-2.1,0-3.8-0.2-5.4h3.2l0.2,3.3h0.1c1-1.9,3.3-3.8,6.6-3.8c2.8,0,7.1,1.6,7.1,8.5v11.9h-3.6
				V98.7c0-3.2-1.2-5.9-4.6-5.9c-2.4,0-4.2,1.7-4.9,3.7c-0.2,0.5-0.2,1.1-0.2,1.7v12h-3.6V95.6z"/>
			<path class="st5" d="M-507.4,104.7c0,2.1,0,3.9,0.2,5.4h-3.2l-0.2-3.3h-0.1c-0.9,1.6-3.1,3.7-6.6,3.7c-3.1,0-6.9-1.7-6.9-8.7
				V90.2h3.6v11c0,3.8,1.2,6.3,4.5,6.3c2.4,0,4.1-1.7,4.8-3.3c0.2-0.5,0.3-1.2,0.3-1.9V90.2h3.6V104.7z"/>
			<path class="st5" d="M-501.4,96.7c0-2.6-0.1-4.6-0.2-6.5h3.3l0.2,3.4h0.1c1.5-2.4,3.8-3.9,7.1-3.9c4.8,0,8.5,4.1,8.5,10.1
				c0,7.2-4.4,10.7-9.1,10.7c-2.6,0-4.9-1.2-6.1-3.1h-0.1v10.8h-3.6V96.7z M-497.8,102.1c0,0.5,0.1,1,0.2,1.5
				c0.7,2.5,2.8,4.2,5.4,4.2c3.8,0,6.1-3.1,6.1-7.7c0-4-2.1-7.4-5.9-7.4c-2.5,0-4.8,1.8-5.5,4.5c-0.1,0.5-0.2,1-0.2,1.5V102.1z"/>
			<path class="st5" d="M-469.2,96.5c0-2.4,0-4.4-0.2-6.2h3.2l0.1,3.9h0.2c0.9-2.7,3.1-4.4,5.5-4.4c0.4,0,0.7,0,1,0.1v3.4
				c-0.4-0.1-0.7-0.1-1.2-0.1c-2.6,0-4.4,1.9-4.9,4.7c-0.1,0.5-0.2,1.1-0.2,1.7v10.6h-3.6V96.5z"/>
			<path class="st5" d="M-454.1,100.9c0.1,4.9,3.2,6.9,6.8,6.9c2.6,0,4.2-0.5,5.5-1l0.6,2.6c-1.3,0.6-3.5,1.2-6.6,1.2
				c-6.1,0-9.8-4-9.8-10.1s3.5-10.8,9.4-10.8c6.5,0,8.2,5.7,8.2,9.4c0,0.7-0.1,1.3-0.1,1.7H-454.1z M-443.5,98.3
				c0-2.3-0.9-5.9-5-5.9c-3.7,0-5.3,3.4-5.6,5.9H-443.5z"/>
			<path class="st5" d="M-421.9,107.1L-421.9,107.1c-1.2,2-3.4,3.5-6.6,3.5c-4.7,0-8.5-4-8.5-10.1c0-7.5,4.8-10.8,9-10.8
				c3.1,0,5.2,1.5,6.1,3.5h0.1l0.1-3h3.4c-0.1,1.7-0.1,3.4-0.1,5.5v22.6h-3.6V107.1z M-421.9,98.3c0-0.5,0-1.1-0.2-1.5
				c-0.5-2.2-2.5-4.1-5.2-4.1c-3.8,0-6,3.2-6,7.7c0,4,1.9,7.4,5.9,7.4c2.4,0,4.4-1.4,5.2-4c0.2-0.5,0.3-1.2,0.3-1.7V98.3z"/>
			<path class="st5" d="M-395.6,104.7c0,2.1,0,3.9,0.2,5.4h-3.2l-0.2-3.3h-0.1c-0.9,1.6-3.1,3.7-6.6,3.7c-3.1,0-6.9-1.7-6.9-8.7
				V90.2h3.6v11c0,3.8,1.2,6.3,4.5,6.3c2.4,0,4.1-1.7,4.8-3.3c0.2-0.5,0.3-1.2,0.3-1.9V90.2h3.6V104.7z"/>
			<path class="st5" d="M-385.5,84.6c0,1.2-0.9,2.2-2.3,2.2c-1.3,0-2.2-1-2.2-2.2c0-1.3,0.9-2.3,2.3-2.3
				C-386.4,82.4-385.5,83.3-385.5,84.6z M-389.5,110.2v-20h3.6v20H-389.5z"/>
			<path class="st5" d="M-379.9,96.5c0-2.4,0-4.4-0.2-6.2h3.2l0.1,3.9h0.2c0.9-2.7,3.1-4.4,5.5-4.4c0.4,0,0.7,0,1,0.1v3.4
				c-0.4-0.1-0.7-0.1-1.2-0.1c-2.6,0-4.4,1.9-4.9,4.7c-0.1,0.5-0.2,1.1-0.2,1.7v10.6h-3.6V96.5z"/>
			<path class="st5" d="M-364.8,100.9c0.1,4.9,3.2,6.9,6.8,6.9c2.6,0,4.2-0.5,5.5-1l0.6,2.6c-1.3,0.6-3.5,1.2-6.6,1.2
				c-6.1,0-9.8-4-9.8-10.1s3.5-10.8,9.4-10.8c6.5,0,8.2,5.7,8.2,9.4c0,0.7-0.1,1.3-0.1,1.7H-364.8z M-354.2,98.3
				c0-2.3-0.9-5.9-5-5.9c-3.7,0-5.3,3.4-5.6,5.9H-354.2z"/>
			<path class="st5" d="M-328.9,80.9V105c0,1.8,0,3.8,0.2,5.2h-3.3l-0.2-3.5h-0.1c-1.1,2.2-3.5,3.9-6.8,3.9c-4.8,0-8.5-4.1-8.5-10.1
				c0-6.6,4.1-10.7,8.9-10.7c3.1,0,5.1,1.4,6,3.1h0.1V80.9H-328.9z M-332.6,98.3c0-0.5,0-1.1-0.2-1.5c-0.5-2.3-2.5-4.2-5.2-4.2
				c-3.8,0-6,3.3-6,7.7c0,4,2,7.4,5.9,7.4c2.4,0,4.7-1.6,5.3-4.3c0.1-0.5,0.2-1,0.2-1.6V98.3z"/>
		</g>
		<g>
			<path class="st6" d="M-549,177h2.9v19.8h9.5v2.4H-549V177z"/>
			<path class="st6" d="M-524.7,199.3l-0.2-2h-0.1c-0.9,1.3-2.6,2.4-4.9,2.4c-3.2,0-4.9-2.3-4.9-4.6c0-3.9,3.4-6,9.6-5.9v-0.3
				c0-1.3-0.4-3.7-3.6-3.7c-1.5,0-3,0.5-4.2,1.2l-0.7-1.9c1.3-0.9,3.2-1.4,5.2-1.4c4.9,0,6.1,3.3,6.1,6.5v6c0,1.4,0.1,2.7,0.3,3.8
				H-524.7z M-525.1,191.1c-3.2-0.1-6.8,0.5-6.8,3.6c0,1.9,1.3,2.8,2.7,2.8c2.1,0,3.4-1.3,3.9-2.7c0.1-0.3,0.2-0.6,0.2-0.9V191.1z"
				/>
			<path class="st6" d="M-504.2,194.9c0,1.6,0,3.1,0.1,4.4h-2.6l-0.2-2.6h-0.1c-0.8,1.3-2.4,3-5.3,3c-2.5,0-5.5-1.4-5.5-7v-9.3h2.9
				v8.8c0,3,0.9,5.1,3.6,5.1c1.9,0,3.3-1.4,3.8-2.6c0.2-0.4,0.3-1,0.3-1.5v-9.8h2.9V194.9z"/>
			<path class="st6" d="M-499.4,187.6c0-1.6,0-3-0.1-4.3h2.6l0.2,2.6h0.1c0.8-1.5,2.6-3,5.3-3c2.2,0,5.6,1.3,5.6,6.8v9.5h-2.9v-9.2
				c0-2.6-1-4.7-3.7-4.7c-1.9,0-3.4,1.4-3.9,3c-0.1,0.4-0.2,0.9-0.2,1.4v9.6h-2.9V187.6z"/>
			<path class="st6" d="M-469.7,198.7c-0.8,0.4-2.4,0.9-4.6,0.9c-4.8,0-8-3.3-8-8.2c0-4.9,3.4-8.5,8.6-8.5c1.7,0,3.2,0.4,4,0.8
				l-0.7,2.2c-0.7-0.4-1.8-0.8-3.4-0.8c-3.7,0-5.6,2.7-5.6,6c0,3.7,2.4,6,5.5,6c1.7,0,2.7-0.4,3.6-0.8L-469.7,198.7z"/>
			<path class="st6" d="M-466.3,175.9h2.9v10h0.1c0.5-0.8,1.2-1.6,2.1-2c0.9-0.5,1.9-0.8,3-0.8c2.1,0,5.6,1.3,5.6,6.8v9.5h-2.9v-9.2
				c0-2.6-1-4.8-3.7-4.8c-1.9,0-3.4,1.3-3.9,2.9c-0.2,0.4-0.2,0.8-0.2,1.4v9.6h-2.9V175.9z"/>
		</g>
		<polygon class="st7" points="-438.6,200.7 -433.9,236.4 -425.6,225 -409.7,223.4 		"/>
	</g>
</g>
<g id="Layer_5">
	<g>
		<circle class="st2" cx="256.6" cy="115.5" r="10.9"/>
		<circle class="st2" cx="305.7" cy="115.5" r="10.9"/>
		<circle class="st2" cx="354.7" cy="115.5" r="10.9"/>
		<g>
			<path class="st8" d="M621.4,193.1c-2.3-1.1-3-3-3-5.5c0.1-13.7,0-27.5,0-41.2c0.4-0.5,0.9-0.5,1.5-0.6c0.5,0,1,0,1.5,0
				c37.6,0,75.3,0,112.9,0c1,0,2.1-0.3,3,0.6c0,13.8,0,27.7,0,41.5c0,2.5-0.8,4.4-3.3,5.3C696.5,193.1,659,193.1,621.4,193.1z"/>
			<path class="st2" d="M737.4,146.4c-0.6,0-1.2-0.1-1.8-0.1c-38.5,0-76.9,0-115.4,0c-0.6,0-1.2,0.1-1.8,0.1c0-0.5,0-1,0-1.5
				c0-33.2,0-66.4,0-99.6c0-1.2,0.1-2.4,0.4-3.6c0.4-2.2,1.9-3.3,4.2-3.3c9.2,0,18.4,0,27.7,0c17.1,0,34.2,0,51.4,0
				c0.8,0,1.6-0.1,2.2,0.6c0.5,0.8,0.5,1.7,0.5,2.6c0,9,0,18.1,0,27.1c0,2.3,0,2.4,2.3,2.4c9.1,0,18.2,0,27.3,0c0.8,0,1.5,0,2.2,0.2
				c0.9,1.1,0.8,2.6,0.8,3.9c0.1,23.6,0,47.2,0,70.7C737.4,146.1,737.4,146.2,737.4,146.4z"/>
			<path class="st9" d="M736.6,71.3c-0.4,0.5-1,0.3-1.6,0.3c-9.7,0-19.4,0-29.2,0c-1.4,0-1.7-0.4-1.7-1.7c0.1-10.3,0-20.6,0-31
				c0.3,0.2,0.6,0.4,0.8,0.7c10.3,10.3,20.6,20.6,31,31C736.2,70.8,736.4,71.1,736.6,71.3z"/>
			<path class="st10" d="M708.4,166.2c0,5.7,0,11.4,0,17c0,1.3-0.3,1.7-1.7,1.7c-2.9-0.1-2.9,0-2.9-2.9c0-7.9,0-15.7,0-23.6
				c0-1.2,0.4-1.4,1.5-1.5c2.4-0.3,3.6,0.7,4.6,2.7c2.9,5.4,6,10.7,9.2,16.3c0.1-0.7,0.1-1.1,0.1-1.5c0-5.3,0-10.7,0-16
				c0-1.1,0.3-1.5,1.4-1.5c3.3,0,3.3,0,3.3,3.2c0,7.7,0,15.4,0,23.1c0,1.4-0.4,1.6-1.7,1.7c-2.2,0.2-3.4-0.6-4.4-2.5
				c-2.9-5.5-6.1-10.9-9.2-16.3C708.6,166.2,708.5,166.2,708.4,166.2z"/>
			<path class="st10" d="M686.9,185c-6.2,0-10.3-3.1-11.8-8.4c-1.2-4.5-1.2-9,0.6-13.3c2-4.6,6.1-7.1,10.9-6.7
				c4.7,0.3,8.6,3.4,9.9,8.2c1.3,4.6,1.3,9.3-0.7,13.7C694,182.7,690.6,184.9,686.9,185z"/>
			<path class="st10" d="M660.9,184.9c-2.1,0-4.2-0.3-6.1-1.4c-1.6-1-0.3-2.2-0.1-3.2c0.2-1,1-0.1,1.4,0c1.9,0.6,3.7,1.2,5.8,1
				c1.9-0.1,3.3-1.1,3.8-2.7c0.6-1.9,0.1-3.4-1.7-4.6c-1.6-1-3.3-1.9-5-2.8c-2.2-1.3-4.3-2.8-4.7-5.6c-0.7-4.7,2.1-8.4,6.9-9
				c2.2-0.3,4.4,0,6.5,0.7c0.8,0.3,1.3,0.7,0.7,1.6c-0.3,0.4-0.5,0.9-0.7,1.3c-0.3,0.8-0.7,0.8-1.5,0.6c-2-0.7-4.2-0.9-6.1,0.4
				c-2.1,1.4-2.2,4-0.4,5.7c1.2,1.1,2.6,1.7,4,2.3c2.2,1.1,4.5,2.2,5.6,4.6c2.4,4.9-1.2,10.5-7,11
				C661.9,185,661.4,184.9,660.9,184.9z"/>
			<path class="st10" d="M642.9,167.7c0-3.3,0-6.6,0-10c0-0.9,0.2-1.2,1.2-1.3c3.5-0.1,3.5-0.1,3.5,3.4c0,5.4-0.2,10.9,0,16.3
				c0.4,8.4-5.4,9.3-10.7,8.7c-1.9-0.2-3.8-0.9-5.6-1.8c-0.8-0.4-0.9-0.8-0.3-1.5c0,0,0.1-0.1,0.1-0.1c1.2-1.9,1.2-1.9,3.3-1.2
				c1.7,0.6,3.4,0.9,5.2,0.7c2.2-0.2,3.3-1.3,3.3-3.5C642.9,174.2,642.9,170.9,642.9,167.7z"/>
			<path class="st11" d="M648.9,113.1c0-1.7,0-3.3,0-5c0-3.6-1.8-5.6-5.3-6.2c-2.1-0.3-2.9-1.1-2.9-2.8c0-1.6,1.1-2.5,3-2.7
				c3.1-0.3,5.2-2.5,5.2-5.6c0-3.7,0-7.5,0-11.2c0.1-4.4,3.9-8.1,8.2-8c1.5,0,2.5,0.9,2.7,2.3c0.2,1.5-0.6,2.7-2,3.1
				c-3.1,0.9-3.4,1.3-3.4,4.5c0,2.9,0,5.8,0,8.8c0.1,3.2-0.8,6-3.1,8.2c-0.6,0.6-0.5,0.9,0,1.5c2.2,2.2,3.2,4.9,3.1,8.1
				c-0.1,3.1,0,6.2,0,9.4c0,2.6,0.6,3.3,3.1,4c1.8,0.4,2.6,1.6,2.4,3.3c-0.3,1.5-1.4,2.3-3.2,2.1c-4.3-0.3-7.5-3.7-7.7-8
				C648.9,116.8,648.9,114.9,648.9,113.1C648.9,113.1,648.9,113.1,648.9,113.1z"/>
			<path class="st11" d="M704.2,85.5c0,1.6,0,3.1,0,4.7c0,3.8,1.8,5.8,5.5,6.2c1.4,0.2,2.4,0.9,2.6,2.3c0.3,1.3-0.3,2.2-1.4,2.9
				c-0.4,0.3-0.9,0.2-1.3,0.3c-3.7,0.5-5.4,2.6-5.4,6.2c0,3.4,0,6.9,0,10.3c-0.1,4.6-3.4,8.1-7.9,8.3c-1.7,0.1-2.9-0.8-3.2-2.3
				c-0.2-1.3,0.7-2.8,2.4-3c2.6-0.3,3.2-1.7,3.2-4.2c0-3,0.1-6,0-9.1c-0.1-3.2,0.9-5.9,3.1-8.2c0.6-0.6,0.5-0.9,0-1.5
				c-2.2-2.2-3.2-4.9-3.1-8.1c0.1-3.1,0-6.2,0-9.4c0-2.6-0.6-3.4-3.1-3.9c-1.6-0.4-2.6-1.6-2.4-3c0.2-1.5,1.3-2.4,2.9-2.4
				c4.4,0,8,3.7,8.1,8.5C704.2,81.9,704.2,83.7,704.2,85.5z"/>
			<path class="st12" d="M673.7,112c0-1.6,0-2.9,0-4.1c0.1-1.8,1.1-3,2.7-3.1c1.6-0.1,2.8,0.9,2.9,2.8c0.1,2.8,0.3,5.7-0.1,8.6
				c-0.2,1.4-1.1,2.2-2.5,2.4c-1.4,0.1-2.4-0.7-2.8-2.2C673.5,114.7,673.8,113.2,673.7,112z"/>
			<path class="st13" d="M672.4,89.5c0-2.4,1.7-4.1,4-4.2c2.3,0,4.1,1.8,4.1,4.1c0,2.3-1.9,4.2-4.2,4.2
				C674.3,93.6,672.4,91.8,672.4,89.5z"/>
			<path class="st11" d="M692.8,169.8c0,3.7-0.3,6.3-1.8,8.7c-2.5,3.9-8.1,4-10.3,0c-2.6-4.8-2.5-9.8-0.3-14.8
				c1.1-2.3,3.2-3.4,5.6-3.3c2.8,0.1,4.6,1.7,5.7,4.3C692.6,166.5,692.8,168.6,692.8,169.8z"/>
		</g>
		<path class="st2" d="M447.9,39c27.5,0,55,0,82.5,0c0.4,0.2,0.9,0.3,1,0.9c0.2,0.9,0.2,1.8,0.2,2.7c0,9,0,18.1,0,27.1
			c0,2.2,0,2.2,2.2,2.2c9,0,18.1,0,27.1,0c1,0,1.9,0,2.8,0.3c0.9,0.6,0.9,1.5,0.9,2.5c-0.1,0.7-0.1,1.4-0.1,2.1
			c0,22.6,0,45.2,0,67.9c0,0.6,0,1.2,0,1.8c0,1.2-0.6,1.8-1.7,1.9c-0.6,0-1.1,0-1.7,0c-37.6,0-75.3,0-112.9,0
			c-3.4,0-3.5-0.1-3.5-3.5c0-33.7,0-67.3,0-101C444.6,41.1,445.5,39.8,447.9,39z"/>
		<path class="st14" d="M527.2,94.8c3.2,2.4,6.3,4.7,8.9,7.6c5.7,6.2,9.4,13.5,10.7,21.8c0.3,1.8,0.4,3.6,0.6,5.4
			c0.2,1.7-0.6,3-1.8,3.5c-1.3,0.5-2.3,0.1-3.2-0.9c-0.6-0.7-0.7-1.6-0.7-2.4c-0.2-10.5-4.5-19.1-12.2-26.1
			c-2.6-2.3-5.5-4.2-8.7-5.6c-1.1-0.5-1.2-0.1-1.2,0.9c0.1,1.8,0,3.6,0,5.4c0,0.9-0.2,1.3-1.3,1.3c-8.3,0-16.7,0-25,0
			c-1,0-1.2-0.4-1.2-1.3c0-2.2,0-4.4,0-6.8c-3.1,1.1-5.7,2.7-8.2,4.6c-6.6,5.2-10.9,11.9-12.9,20.1c-0.6,2.4-0.9,4.8-0.9,7.3
			c0,1.2-0.1,2.4-1.2,3.1c-0.9,0.6-1.9,0.8-2.8,0.2c-1.1-0.6-1.5-1.6-1.5-2.7c0.2-6.6,1.6-12.8,4.7-18.6c3.3-6.3,7.9-11.5,13.9-15.5
			c0.5-0.3,1-0.7,1.5-1.3c-1.7,0-3.3,0-5,0c-1.3,0-2.9-0.5-3.8,0.3c-0.9,0.8-0.3,2.5-0.3,3.8c0,1.2-0.4,1.4-1.5,1.4
			c-4.5-0.1-9-0.1-13.6,0c-1.1,0-1.6-0.2-1.6-1.5c0.1-4.6,0.1-9.1,0-13.7c0-1,0.3-1.4,1.4-1.4c4.6,0,9.2,0,13.9,0
			c1,0,1.5,0.3,1.4,1.4c-0.1,1,0,2,0,3c-0.1,1.1,0.4,1.4,1.4,1.4c4.6,0,9.1,0,13.7,0c1.1,0,1.5-0.4,1.5-1.5c-0.1-2.8,0-5.5,0-8.3
			c0-1.1,0.3-1.4,1.4-1.4c8.2,0,16.5,0,24.7,0c1,0,1.4,0.3,1.4,1.4c-0.1,2.8,0,5.5,0,8.3c0,1.1,0.4,1.5,1.5,1.5c4.6,0,9.1,0,13.7,0
			c1,0,1.5-0.3,1.4-1.4c-0.1-1.1,0-2.2,0-3.3c0-0.8,0.3-1.1,1.1-1.1c4.8,0,9.6,0,14.5,0c0.8,0,1,0.3,1,1.1c0,4.8,0,9.6,0,14.5
			c0,0.8-0.4,1-1.1,1c-4.8,0-9.5,0-14.3,0c-0.8,0-1.2-0.3-1.2-1.1c0-0.2,0-0.4,0-0.6c0-3.7,0-3.7-3.8-3.7
			C530.7,94.8,528.9,94.8,527.2,94.8z"/>
		<path class="st9" d="M530.8,40.2c0.4,0.1,0.6,0.5,0.9,0.7c10.3,10.3,20.5,20.5,30.8,30.8c0.3,0.3,0.7,0.5,0.8,1
			c-10.2,0-20.5,0-30.7,0c-1.5,0-1.8-0.4-1.8-1.9C530.8,60.7,530.8,50.5,530.8,40.2z"/>
		<path class="st2" d="M514.2,92.1c0,2.3,0,4.5,0,6.8c0,1-0.3,1.4-1.3,1.4c-4.6-0.1-9.2,0-13.9,0c-1,0-1.4-0.3-1.4-1.3
			c0.1-4.6,0-9.2,0-13.9c0-1,0.3-1.4,1.3-1.4c4.6,0.1,9.2,0.1,13.9,0c1.2,0,1.4,0.4,1.4,1.5C514.2,87.4,514.2,89.7,514.2,92.1z"/>
		<path class="st2" d="M470.2,92.1c0,3.1,0.4,2.7-2.7,2.7c-3.3,0-2.9,0.3-3-3c0-0.3,0-0.5,0-0.8c-0.2-1.3,0.3-1.9,1.7-1.7
			c0.7,0.1,1.5,0.1,2.3,0c1.5-0.2,2,0.4,1.8,1.9C470.2,91.5,470.2,91.8,470.2,92.1z"/>
		<path class="st2" d="M544.6,94.8c-3.2,0-2.9,0.3-2.9-2.9c0-2.9-0.3-2.5,2.6-2.5c3.1,0,3.1,0,3.1,3.1c0,0.3,0,0.5,0,0.8
			c0.2,1.2-0.3,1.8-1.6,1.6C545.4,94.7,545,94.8,544.6,94.8z"/>
		<path class="st2" d="M171.3,55.5v156.1c0,0.7,0,1.4,0,2.2c-0.1,3.9-1.4,5.6-5.1,6.6H4.8c-3.7-1.3-4.6-2.7-4.7-6.7V11.3
			C0,10.4,0,9.6,0.1,8.7c0.1-0.6,0.1-1.3,0.6-1.6C0.5,3.1,1.8,1.1,5.2,0h117.1c0.6,0.3,1.3,0.5,1.4,1.3c0.3,1.3,0.3,2.5,0.3,3.8
			v38.2c0,3.1,0.1,3.1,3.1,3.1c12.8,0,25.6,0,38.4,0c1.4,0,2.7,0,4,0.5c1.3,0.9,1.3,2.2,1.2,3.5c0,0.2-0.1,0.4-0.1,0.5
			c0.5,0.4,0.5,1,0.5,1.6C171.3,53.6,171.3,54.6,171.3,55.5z"/>
		<path class="st9" d="M123.1,0.9c0.6,0.1,0.9,0.6,1.3,1c14.7,14.7,29.3,29.3,44,44c0.4,0.4,1.1,0.8,1.2,1.5c-14.6,0-29.2,0-43.9,0
			c-2.1,0-2.6-0.6-2.6-2.7C123.1,30.1,123.1,15.5,123.1,0.9z"/>
		<g>
			<path class="st4" d="M116.2,131l-0.5,0.6c-0.6,0.7-1.2,1.2-1.9,1.7c0,0,0,0,0,0c-7.6,5.5-18.6,11.5-25.4,17
				c-0.1,0.1-0.3,0-0.4-0.1c-4.2-18.4-8.3-36.6-12.5-54.7c0,0,0,0,0,0c-0.7-3.2-2-8.6-2.9-12.6c0.2,0.2,0.5,0.4,0.7,0.6l0,0l0.2,0.3
				l0,0.1c0.4,0.5,0.7,1,1.1,1.5c0,0,0.1,0.1,0.1,0.1C84,97,95.3,108.1,106,119.6C109.5,123.4,112.9,127.2,116.2,131z"/>
			<path class="st4" d="M80.2,125.3c-14.1-16.7-43.6-23.8-56.4-39.4c9.4,1.6,27.8-4,39.8-5.5l0,0c0.5-0.1,1-0.1,1.4-0.1
				c0.1,0,0.3,0,0.4,0c0.1,0,0.2,0,0.3,0c0.8,0,1.5,0.1,2.2,0.3c0.7,0.2,1.4,0.4,2,0.7c0.4,0.2,0.7,0.5,0.8,1
				C71.8,87.1,73,92,74.1,97c2.2,9.4,4.4,18.8,6.5,28C80.8,125.3,80.4,125.5,80.2,125.3z"/>
			<path d="M85.9,150.8"/>
			<path class="st4" d="M121.1,83.8c-0.3,2.9-0.6,5.8-0.8,8.6c-0.9,11.4-1.2,22.4-2.5,34.4l0,0c-0.1,0.6-0.2,1.2-0.4,1.8l-0.3,1
				c-3.1-3.7-6.4-7.2-9.7-10.7c-4-4.2-8.1-8.4-12-13.1c14.4-11.4,14.9-13.6,22.2-20.3l0,0c0.3-0.3,0.6-0.6,1-0.9
				C119.3,84.1,120.2,83.8,121.1,83.8L121.1,83.8z"/>
			<path class="st4" d="M142.2,102.6c-7.2,0.3-13.9,0.5-21.2,0.8c0.3-3.7,0.5-7.3,0.8-10.9c0.2-2.8,0.4-5.6,0.6-8.5
				c0.6,0.1,1.1,0.4,1.6,0.8c0.3,0.3,0.5,0.5,0.8,0.8C130.7,91.3,136.4,96.9,142.2,102.6z"/>
			<path class="st4" d="M82.1,131.5c-0.7-3.3-2.7-5.2-5.2-7.4c-0.1-0.1-0.3-0.1-0.4,0.1c-6.7,17.4-13.3,34.6-20.1,52.2
				c-0.1,0.2,0.1,0.4,0.3,0.3c0.2-0.1,0.3-0.1,0.4-0.2c4.5-3.8,9.1-7.5,13.6-11.3c0.1-0.1,0.4,0,0.4,0.2c0.1,3.2,0.3,6.4,0.4,9.6
				c0,0.2,0.3,0.3,0.4,0.1c0,0,0,0,0,0c2.4-4.7,4.9-9.4,7.3-14.2c0.1-0.1,0.3-0.2,0.4,0c2.3,4,4.5,7.9,6.8,12
				c0.1,0.2,0.4,0.1,0.4-0.1v0c0-7.3-0.1-14.4-0.2-21.7"/>
		</g>
		<g>
			<path class="st2" d="M795.7,35c28,0,56,0,84,0c0.4,0.2,0.9,0.3,1,0.9c0.2,0.9,0.2,1.7,0.2,2.6c0,9.2,0,18.3,0,27.5
				c0,2.3,0,2.3,2.3,2.3c9.2,0,18.3,0,27.5,0c0.9,0,1.9,0,2.8,0.3c0.8,0.4,1,1.1,1,1.8c-0.1,2.3-0.1,4.5-0.1,6.8
				c0,11.4,0,22.8,0,34.3c0,0.7,0.3,1.8-0.5,2.1c-0.9,0.4-1.4-0.6-2-1.1c-8.3-7.8-16.5-15.6-24.7-23.5c-1.1-1.1-1.4-1.1-2.5,0.1
				c-6.8,7.6-13.8,15.1-20.6,22.7c-2.1,2.4-4.3,4.7-6.4,7.1c-1.1,1.2-1.7,1.2-3-0.1c-4.1-4.1-8.2-8.2-12.3-12.3
				c-1.6-1.6-1.6-1.6-3.3-0.2c-14.4,12.2-28.8,24.5-43.3,36.8c-0.9,0.7-1.5,1.8-2.9,1.8c-0.1-0.1-0.2-0.3-0.3-0.5
				c-0.2-0.8-0.1-1.6-0.1-2.5c0-34.2,0-68.4,0-102.5C792.5,37,793.4,35.8,795.7,35z"/>
			<path class="st15" d="M911.2,193.1c-38.6,0-77.2,0-115.8,0c-1.2-0.3-2.4-0.8-2.6-2.2c-0.2-0.6-0.3-1.2-0.3-1.9
				c0-13.8,0-27.6,0-41.4c0-0.8-0.2-1.7,0.4-2.4c0.8-0.4,1.6-0.4,2.4-0.4c38.9,0,77.8,0,116.7,0c0.7,0,1.5-0.1,2.1,0.3
				c0.6,0.7,0.4,1.6,0.4,2.4c0,13.8,0,27.6,0,41.4c0,0.6,0,1.2-0.2,1.8C913.9,192.3,912.7,192.9,911.2,193.1z"/>
			<path class="st9" d="M880.3,35.6c0.5,0.1,0.7,0.5,0.9,0.7c10.5,10.5,21,21,31.5,31.6c0.3,0.3,0.8,0.6,0.8,1.1
				c-10.5,0-21,0-31.5,0c-1.5,0-1.9-0.4-1.9-1.9C880.4,56.6,880.3,46.1,880.3,35.6z"/>
			<path class="st16" d="M828,62.8c7.5,0.5,12.8,5.7,12.7,13c-0.1,7.5-5.7,12.8-12.9,12.8c-7.4,0-12.8-5.6-12.8-12.9
				C815,68.2,820.7,63.1,828,62.8z"/>
			<path class="st10" d="M847,165.6c0,5.8,0,11.6,0,17.4c0,1.3-0.3,1.6-1.6,1.6c-3.1-0.1-3.1,0-3.1-3.1c0-7.9,0-15.8,0-23.8
				c0-1.3,0.3-1.7,1.7-1.8c2.3-0.2,3.5,0.7,4.6,2.7c2.7,5.1,5.7,10.1,8.6,15.2c0.2,0.4,0.5,0.9,1,1.7c0-0.9,0-1.4,0-1.9
				c0-5.5,0-10.9,0-16.4c0-1,0.3-1.3,1.3-1.3c3.4,0,3.4-0.1,3.4,3.4c0,7.8,0,15.6,0,23.5c0,1.3-0.3,1.7-1.7,1.8
				c-2.3,0.2-3.5-0.7-4.6-2.7c-2.7-5.1-5.7-10.1-8.6-15.2c-0.2-0.4-0.5-0.9-0.8-1.3C847.1,165.6,847.1,165.6,847,165.6z"/>
			<path class="st10" d="M890.6,175.6c0,1.3-0.1,2.7,0,4c0.1,1.1-0.3,1.8-1.1,2.5c-4.5,3.7-12.1,3.5-16.3-0.7
				c-2.2-2.2-3.2-4.9-3.6-7.9c-0.5-4-0.3-7.9,1.5-11.6c3-6.3,11.7-8.3,17.1-4c0.7,0.6,1,1,0.1,1.6c-0.3,0.2-0.6,0.4-0.8,0.7
				c-0.9,1.1-1.6,1.2-2.9,0.2c-3-2.2-7.6-0.8-9.1,2.9c-1.9,4.6-1.9,9.4,0.1,13.9c1.9,4.3,5.5,4.7,9.6,3.3c0.6-0.2,0.9-0.7,0.8-1.3
				c0-1.8,0-3.6,0-5.4c0-0.8-0.3-1-1-0.9c-0.6,0-1.2,0-1.9,0c-1.8,0-2.4-0.8-1.9-2.6c0.1-0.5,0.4-0.5,0.8-0.5c2.6,0,5.1,0,7.7,0
				c0.7,0,0.9,0.3,0.9,0.9C890.6,172.5,890.6,174.1,890.6,175.6z"/>
			<path class="st10" d="M818.9,170.4c0-4.3,0-8.6,0-12.9c0-1,0.3-1.3,1.3-1.3c2.8,0.1,5.6-0.1,8.5,0.2c3.9,0.4,7.4,3.3,8.1,6.7
				c0.8,3.8-0.7,7.7-3.8,9.7c-2,1.3-4.3,1.6-6.6,1.6c-2.8,0-2.8,0-2.8,2.8c0,2.1,0,4.2,0,6.3c0,0.8-0.2,1.1-1.1,1.2
				c-3.5,0.1-3.5,0.1-3.5-3.3C818.9,177.7,818.9,174,818.9,170.4z"/>
			<path class="st15" d="M823.5,165.2c0-1.5,0-3.1,0-4.6c0-0.4-0.1-0.9,0.6-0.9c1.7,0.1,3.4-0.2,5,0.3c2.5,0.8,3.7,3,3.3,6.2
				c-0.3,2.9-1.8,4.5-4.6,4.7c-4.4,0.3-4.4,0.3-4.4-4C823.5,166.4,823.5,165.8,823.5,165.2z"/>
			<path class="st17" d="M907.9,108.6"/>
			<path class="st17" d="M913.8,113.6C913.8,113.6,913.8,113.6,913.8,113.6c-0.4-0.3-0.8-0.6-1.1-0.9c-2.1-2-4.2-4-6.2-5.9l-1-1l0,0
				c-6.1-5.8-12.2-11.6-18.3-17.5c-0.9-0.8-1.5-0.9-2.2,0.1c-0.2,0.3-0.4,0.5-0.6,0.7c-9,9.9-18,19.8-27,29.7c-0.8,0.9-1.2,0.9-2,0
				c-4.4-4.5-8.9-8.9-13.3-13.4c-0.9-1-1.5-0.9-2.5-0.1c-11.4,9.8-22.9,19.6-34.4,29.3c-4,3.4-7.9,6.9-11.9,10.3
				c0.5,0.3,1,0.2,1.5,0.2c39.7,0,79.3,0,119,0c0.2,0,0.4,0,0.6-0.2c0-0.3,0-0.5,0-0.8c0-10,0-20.1,0-30.1L913.8,113.6z"/>
		</g>
		<path class="st18" d="M563.1,147c-0.3,0.1-0.7,0.1-1.4,0.1c-38.1,0-76.2,0-114.3,0c-0.7,0-1.1,0-1.4-0.1h-1.4
			c0,13.6,0,27.2,0,40.9c0,0.5,0,0.9,0,1.4c0.1,2.8,0.7,3.7,3.3,4.7c37.7,0,75.3,0,113,0c2.6-0.7,3.5-1.9,3.6-4.6c0-0.5,0-1,0-1.5
			c0-13.6,0-27.2,0-40.8H563.1z"/>
		<g>
			<path class="st10" d="M540.3,176c0,1.2-0.1,2.4,0,3.6c0.2,1.5-0.5,2.4-1.6,3.2c-4.2,3-11.3,3.4-15.4-0.8
				c-1.9-1.9-2.9-4.3-3.4-6.9c-0.8-5-0.6-9.8,2.5-14.1c3.4-4.7,11-5.6,15.5-2c0.8,0.6,0.8,1,0,1.5c-0.2,0.1-0.3,0.3-0.4,0.4
				c-1,1.1-1.8,1.5-3.3,0.4c-2.9-2.1-7.1-0.7-8.6,2.7c-2.1,4.9-2.1,9.9,0.4,14.6c2.1,3.8,6,3.5,9.1,2.3c0.5-0.2,0.7-0.5,0.7-1.1
				c0-1.8,0-3.6,0-5.4c0-0.6-0.2-0.9-0.9-0.9c-0.8,0-1.5-0.1-2.3,0c-1.3,0.2-1.7-0.3-1.7-1.7c0-1.1,0.2-1.5,1.4-1.5
				c2.3,0.1,4.5,0.1,6.8,0c0.8,0,1.2,0.2,1.1,1.1C540.3,173.1,540.3,174.5,540.3,176z"/>
			<path class="st10" d="M502.6,180.7c1.8-6.2,3.5-12.2,5.2-18.3c0.2-0.6,0.4-1.2,0.5-1.9c1-3.5,1.6-3.9,5.3-3.4
				c1.2,0.2,0.5,0.9,0.3,1.3c-1.8,5.6-3.6,11.2-5.4,16.7c-0.9,2.9-1.9,5.8-2.8,8.7c-0.3,1-0.8,1.2-1.7,1.2c-1.5-0.1-3.3,0.4-4.4-0.3
				c-1.1-0.7-1.1-2.7-1.5-4.1c-2.3-7.4-4.6-14.7-6.9-22.1c-0.3-1.1-0.4-1.6,1-1.5c3.7,0.1,3.7,0,4.6,3.6c1.7,6.3,3.4,12.6,5.1,18.9
				C502.2,179.9,502.2,180.3,502.6,180.7z"/>
			<path class="st10" d="M478.2,185c-2.1-0.1-4.1-0.3-5.9-1.3c-0.8-0.5-1-3.1-0.2-3.6c0.4-0.2,0.7,0.1,1,0.2c1.9,0.7,3.9,1.3,6,1.2
				c2.1-0.1,3.4-1,3.9-2.7c0.6-1.9,0.1-3.4-1.7-4.5c-1.6-1.1-3.4-1.9-5.1-2.9c-2.2-1.3-4.1-2.8-4.5-5.5c-0.7-4.4,1.7-7.8,6-8.8
				c2.5-0.6,5-0.2,7.4,0.5c0.9,0.3,1.3,0.7,0.7,1.6c-0.3,0.4-0.5,0.8-0.6,1.2c-0.3,0.8-0.7,1-1.7,0.7c-2-0.7-4.1-0.8-5.9,0.5
				c-2.1,1.5-2.3,4-0.4,5.8c0.8,0.8,1.8,1.2,2.8,1.7c1.3,0.7,2.6,1.3,3.9,2c2.7,1.7,4,4.2,3.5,7.4c-0.5,3-2.3,5-5.2,6.1
				C480.8,184.9,479.5,185.1,478.2,185z"/>
		</g>
	</g>
	<line class="st19" x1="134.3" y1="1661.1" x2="676.2" y2="1661.1"/>
	<circle class="st20" cx="47.6" cy="1656.6" r="109"/>
	<circle class="st20" cx="365.6" cy="1656.6" r="109"/>
	<circle class="st20" cx="683.7" cy="1656.6" r="109"/>
	<g>
		<path class="st4" d="M73.8,1674.7c8.1,3.4,16.3,6.8,24.3,10.3c2.5,1.1,4.4,3.3,6.1,5.5c5.6,7.3,5.2,9.4-1.6,15.5
			c-15,13.4-32.3,21.6-52.4,22.3c-23.6,0.9-44.2-7.1-61.2-23.8c-1.8-1.8-2.3-3.5-1.6-5.9c1.5-4.7,3.7-9.2,7.9-11.7
			c9.2-5.4,18.9-9.8,29.4-12.3c1.4,0.9,1.5,2.4,2,3.8c3.7,10.4,11,16.4,20.3,16.9c10.6,0.5,18.2-4.3,23.2-14.6
			C71.3,1678.8,71.7,1676.2,73.8,1674.7z"/>
		<path class="st21" d="M33.8,1656.8c-1.3,0.7-2.6,1.4-3.8,2.2c-1.7,1.2-2.4,0.6-3.2-1.2c-7.7-17.9-10.9-36.4-5.2-55.5
			c3.7-12.2,9.9-16.7,22.3-17.5c20.2-1.2,30,6.2,34,26.1c3.2,16.5-0.2,31.8-8.8,46.1c-1.8,2.9-3.3,2.8-5.4,0.9c-2.6-1.4-3-3.9-3-6.5
			c3.4-5.7,5.6-12.4,11-16.8c1-2.2,1.7-4.4,1.9-6.8c0.2-3.2-0.8-5.4-4.4-5.6c-3.8-1-8.1,0.2-11.2-3.6c-5-6-9.3-14.4-9.6-20.3
			c-2.4,12.1-8.1,20.8-20.6,23.8c-5.3,1.3-6.3,8.3-1.6,13.4c4.1,4.3,5.8,9.7,8.7,14.6c0.4,1.7,0.5,3.4,0,5.1
			C34.6,1656,34.3,1656.4,33.8,1656.8z"/>
		<path class="st22" d="M33.8,1656.8c0-0.3,0-0.7,0.2-0.9c0.8-1.8,1.9-1.4,3-0.3c1.3,1.3,2.1,3,3.2,4.5c3.7,5.2,8.7,7.7,15.1,7.7
			c3.3,0,6.6-0.9,9.9,0.2c2.9,2.2,5.8,4.5,8.7,6.7c-1.8,7.4-5.1,13.9-11.5,18.3c-15.2,10.3-35.8,0.2-37.5-18.2
			C32.4,1671.1,35,1664.9,33.8,1656.8z"/>
		<path class="st23" d="M65.1,1668c-13.9,3.4-22.1,0.5-27.9-9.7c-0.7-1.1-0.5-3.7-3.2-2.5c0-1.8-0.1-3.7-0.1-5.5
			c2-0.5,3.1,0.9,4.3,1.9c7.7,6,12,6.1,19.9,0.5c1-0.7,1.9-1.8,3.4-1.3c0.7,2.2,1.4,4.4,2.1,6.6C61.2,1661.8,64.6,1664.7,65.1,1668z
			"/>
	</g>
	<path class="st22" d="M61.6,1651.5c-7.7,8.3-16.2,10.5-27.7-1.1c-2.5-3.5-3.3-8.9-6.1-10.8c-4.3-2.9-4.6-6.6-5.6-10.5
		c-1.1-4.3-0.6-7.7,5.1-8.5c13.4-1.9,17.1-12.5,20.4-24.1c2.2,6,4.5,11.4,7.5,16.5c3.2,5.6,7.9,8.4,14.3,8.4
		c3.5,3.9,2.6,8.9,3.5,13.5C68.2,1639.7,65.7,1646.1,61.6,1651.5z"/>
	<path class="st24" d="M72.9,1634.8c-0.9-0.1-2.4-0.4-2.1-1.3c1.7-4.4-1.5-8.1-1.4-12.2c4.1-1,5.6,0.8,5.5,4.7
		C74.9,1629.2,74.6,1632.1,72.9,1634.8z"/>
	<g>
		<path class="st4" d="M412.4,1655.1c-1.6-26.4-21.5-45.1-46.5-45.2c-30.5-0.1-53.5,28-45.5,57.5c2.5,9.4,2,17.4-0.7,25.9
			c-0.2,0.7-0.5,1.4-0.6,2.1c-0.9,5.2,2.6,8.6,7.7,7.4c3.8-0.9,7.5-1.8,11.2-3.1c4-1.4,7.5-1.2,11.6,0.4c7.6,3.2,15.6,3.9,23.8,2.4
			C398.9,1697.9,413.7,1676.4,412.4,1655.1z M403.7,1667.9c-5,16.8-20.3,28.1-38,28.2c-4.1,0-8.5,0.3-11.9-1.8
			c-7.1-4.2-14-2.8-21-0.3c-1.8,0.7-3.8,1-6.4,1.8c1.4-5.2,2.3-9.8,3.9-14.3c1.1-3.1,0.6-5.5-0.8-8.4c-7.6-16-3.6-34.9,9.5-46.2
			c13.6-11.8,32.8-13.5,47.7-4.1C402,1632.4,408.9,1650.6,403.7,1667.9z"/>
		<path class="st4" d="M365.4,1651.8c-4.6,0-9.2-0.1-13.8,0c-2.6,0.1-4.6-0.7-4.5-3.5c0-2.9,2.2-3.3,4.7-3.3c9.2,0.1,18.4,0,27.6,0
			c2.4,0,4.7,0.3,4.8,3.2c0.2,3.4-2.4,3.6-4.9,3.6C374.6,1651.8,370,1651.8,365.4,1651.8z"/>
		<path class="st4" d="M361,1668.2c-3.3,0-6.6,0-9.9,0c-2.4,0-4-1.1-4.1-3.5c-0.1-2.5,1.7-3.6,3.9-3.6c6.6-0.1,13.2-0.1,19.8,0
			c2.3,0,4.2,1.1,4.2,3.5c0,2.7-2,3.6-4.5,3.6C367.2,1668.2,364.1,1668.2,361,1668.2z"/>
	</g>
	<path class="st4" d="M732.7,1629c0-8.3-2.7-10.9-10.9-10.9c-12.7,0-25.4,0-38.1,0c-13.1,0-26.1-0.1-39.2,0c-7,0-10,2.7-10,9.5
		c-0.1,19.3-0.1,38.5,0,57.8c0,6.7,3.3,9.8,9.9,9.8c25.8,0.1,51.5,0.1,77.3,0c7.7,0,11-3.3,11-11.2
		C732.8,1665.7,732.8,1647.3,732.7,1629z M721.6,1687.9c-25.4-0.1-50.8-0.1-76.2,0c-2.8,0-3.8-0.8-3.8-3.8
		c0.1-12.8,0.1-25.7,0.1-39.5c10,7.9,19.5,15.3,28.7,22.9c10.6,8.7,16,8.7,26.6,0c9.2-7.5,18.6-14.8,28.7-22.9
		c0,13.7-0.1,26.4,0.1,39C725.8,1686.9,724.6,1687.9,721.6,1687.9z M725.2,1631.3c-1.7,4.8-5,8.6-8.9,11.7
		c-8.4,6.8-16.9,13.6-25.4,20.3c-5.7,4.6-9,4.7-14.8,0.2c-9.1-7.1-18.1-14.4-27.1-21.7c-3.7-3-5.7-7-6.7-11.7
		c-0.7-3.6,0.3-4.5,3.8-4.5c12.5,0.1,25.1,0.1,37.6,0.1c12.5,0,25.1,0.2,37.6-0.1C726.1,1625.6,726.5,1627.8,725.2,1631.3z"/>
	<g>
		<g>
			<path class="st4" d="M-925,1745.1l-1.2,1.4c-1.4,1.6-2.9,2.9-4.5,4.1c0,0,0,0-0.1,0c-17.9,13-44,27.2-60.1,40.3
				c-0.3,0.3-0.8,0.1-0.9-0.3c-10-43.6-19.8-86.7-29.6-129.6c0-0.1,0-0.1,0-0.1c-1.7-7.6-4.7-20.4-6.9-29.9c0.6,0.5,1.2,1,1.7,1.5
				l0.1,0.1l0.6,0.6l0.1,0.2c0.9,1.2,1.8,2.3,2.7,3.5c0.1,0.1,0.2,0.3,0.3,0.4c21.6,27.4,48.3,53.8,73.5,80.9
				C-940.9,1726.9-932.8,1736-925,1745.1z"/>
			<path class="st4" d="M-1010.3,1731.5c-33.3-39.4-103.2-56.2-133.5-93.3c22.4,3.8,65.9-9.5,94.2-13l0,0c1.2-0.2,2.3-0.3,3.4-0.4
				c0.3,0,0.6,0,0.9,0c0.3,0,0.5,0,0.8,0c1.8,0.1,3.6,0.3,5.3,0.7s3.2,1,4.7,1.7c1,0.5,1.7,1.3,1.9,2.4c2.7,11.6,5.5,23.3,8.2,35
				c5.2,22.2,10.4,44.6,15.5,66.4C-1008.9,1731.6-1009.8,1732-1010.3,1731.5z"/>
			<path d="M-996.7,1791.8"/>
			<path class="st4" d="M-913.4,1633.4c-0.8,6.9-1.5,13.7-2,20.4c-2.2,27-2.9,53-6,81.5l0,0c-0.2,1.4-0.5,2.8-0.9,4.2l-0.7,2.3
				c-7.4-8.8-15.2-17.1-23-25.3c-9.5-10-19.1-20-28.5-31.1c34-27.1,35.2-32.2,52.6-48.1l0,0c0.8-0.7,1.5-1.4,2.3-2.1
				C-917.7,1633.9-915.6,1633.3-913.4,1633.4L-913.4,1633.4z"/>
			<path class="st4" d="M-863.5,1677.7c-17.2,0.7-33,1.3-50.1,2c0.7-8.7,1.3-17.2,1.9-25.9c0.5-6.6,0.9-13.3,1.5-20.2
				c1.4,0.4,2.7,1,3.8,1.8c0.6,0.6,1.3,1.2,1.9,1.8C-890.7,1651-877.3,1664.2-863.5,1677.7z"/>
			<path class="st4" d="M-1005.7,1746.3c-1.6-7.7-6.5-12.3-12.3-17.5c-0.3-0.3-0.7-0.2-0.9,0.2c-15.9,41.3-31.5,82-47.5,123.6
				c-0.2,0.4,0.3,0.9,0.7,0.7c0.6-0.2,0.8-0.3,1-0.4c10.8-8.9,21.6-17.8,32.3-26.8c0.4-0.3,0.9-0.1,0.9,0.4
				c0.3,7.6,0.6,15.2,0.9,22.8c0,0.5,0.7,0.7,1,0.3c0,0,0-0.1,0-0.1c5.8-11.2,11.5-22.4,17.2-33.5c0.2-0.4,0.7-0.4,1,0
				c5.4,9.4,10.8,18.8,16.2,28.3c0.3,0.5,0.9,0.3,1-0.2v-0.1c-0.1-17.3-0.2-34.1-0.5-51.4"/>
		</g>
		<circle class="st25" cx="-1006.7" cy="1721.1" r="313"/>
		<circle class="st26" cx="-1006.7" cy="1721.1" r="507.5"/>
		<circle class="st27" cx="-1203.9" cy="1486" r="80.9"/>
		<circle class="st27" cx="-832.5" cy="1466.6" r="80.9"/>
		<circle class="st27" cx="-974.3" cy="2028.5" r="80.9"/>
		<circle class="st27" cx="-1187.6" cy="2196.7" r="80.9"/>
		<circle class="st27" cx="-1496.1" cy="1854.3" r="80.9"/>
		<circle class="st27" cx="-1078.5" cy="1221.5" r="80.9"/>
		<circle class="st27" cx="-523.1" cy="1597.4" r="80.9"/>
		<circle class="st27" cx="-620.3" cy="2050" r="80.9"/>
		<g>
			<rect x="-835.7" y="1444.6" class="st28" width="9.1" height="40.3"/>
			<rect x="-847.1" y="1423.8" class="st4" width="31.4" height="22"/>
			<rect x="-842.4" y="1481.5" class="st29" width="22" height="22"/>
			<rect x="-864.8" y="1463.6" class="st28" width="8.5" height="27.9"/>
			<rect x="-806.5" y="1463.6" class="st28" width="9.2" height="27"/>
			<rect x="-871.4" y="1481.5" class="st29" width="22" height="22"/>
			<rect x="-813.6" y="1481.5" class="st29" width="22" height="22"/>
			<rect x="-864.8" y="1459" class="st28" width="67.6" height="9.1"/>
		</g>
		<g>
			<circle class="st30" cx="-638.2" cy="2050" r="30.9"/>
			<circle class="st30" cx="-600.5" cy="2050" r="30.9"/>
		</g>
		<polygon class="st4" points="-567.3,1627.8 -474.8,1627.8 -493.4,1598 -548.1,1598 		"/>
		<polygon class="st29" points="-533.9,1574.2 -508.6,1574.2 -493.4,1598 -548.1,1598 		"/>
		<polygon class="st28" points="-508.6,1574.2 -533.9,1574.2 -520.7,1554.7 		"/>
		<g>
			<rect x="-1032.8" y="2026.7" class="st29" width="98.9" height="4.3"/>
			<path class="st29" d="M-935.1,2011.1v36.8c0,0,19.4-1.3,19.4-17s-13.6-19.8-18.1-19.8"/>
			<polygon class="st29" points="-978.1,2011.1 -952.4,2011.1 -952.4,2046 -978.1,2046 -978.1,2038.1 -957.9,2038.1 -957.9,2019.2 
				-978.1,2019.2 			"/>
			<polygon class="st29" points="-1022.8,2011.1 -997,2011.1 -997,2046 -1022.8,2046 -1022.8,2038.1 -1002.6,2038.1 -1002.6,2019.2 
				-1022.8,2019.2 			"/>
		</g>
		<rect x="-1206.2" y="1459.7" class="st28" width="7.7" height="13.9"/>
		
			<rect x="-1224.4" y="1463.6" transform="matrix(0.5797 -0.8148 0.8148 0.5797 -1713.6472 -375.1798)" class="st28" width="7.7" height="20.2"/>
		
			<rect x="-1196.5" y="1489" transform="matrix(0.7815 -0.6239 0.6239 0.7815 -1195.9689 -416.5659)" class="st28" width="7.7" height="20.2"/>
		
			<rect x="-1190.7" y="1471.2" transform="matrix(6.123234e-17 -1 1 6.123234e-17 -2668.1536 294.3477)" class="st28" width="7.7" height="20.2"/>
		
			<rect x="-1218.5" y="1489.1" transform="matrix(0.79 0.6132 -0.6132 0.79 664.9001 1059.927)" class="st28" width="7.7" height="22.8"/>
		<circle class="st4" cx="-1202.4" cy="1485.1" r="13.4"/>
		<circle class="st29" cx="-1202.4" cy="1454" r="8.9"/>
		<circle class="st29" cx="-1233.8" cy="1464.2" r="8.9"/>
		<circle class="st29" cx="-1226.5" cy="1515" r="8.9"/>
		<circle class="st29" cx="-1182.3" cy="1512.1" r="8.9"/>
		<circle class="st29" cx="-1173.9" cy="1480.6" r="8.9"/>
		<g>
			<circle class="st29" cx="-1161.4" cy="2222.9" r="13.1"/>
			<circle class="st4" cx="-1213.8" cy="2171.3" r="13.1"/>
			<rect x="-1224.5" y="2211.2" class="st29" width="21.9" height="21.9"/>
			<path class="st29" d="M-1163.3,2185l-11.3-11.3c-1.2-1.2-1.2-3,0-4.2l11.3-11.3c1.2-1.2,3-1.2,4.2,0l11.3,11.3
				c1.2,1.2,1.2,3,0,4.2l-11.3,11.3C-1160.2,2186.2-1162.1,2186.2-1163.3,2185z"/>
			<polygon class="st28" points="-1215.8,2198.7 -1220.6,2198.7 -1213.2,2191.3 -1206.5,2198.7 -1211.5,2198.7 -1211.5,2207.3 
				-1215.7,2207.3 			"/>
			<polygon class="st28" points="-1159.2,2198.5 -1154.4,2198.5 -1161.8,2205.9 -1168.4,2198.5 -1163.4,2198.5 -1163.4,2189.9 
				-1159.3,2189.9 			"/>
			<polygon class="st28" points="-1187.5,2169.9 -1187.5,2165.1 -1180.1,2172.5 -1187.5,2179.2 -1187.5,2174.2 -1196.1,2174.2 
				-1196.1,2170 			"/>
		</g>
		<g>
			<path class="st4" d="M-1528.7,1856l-5.9,4.8c0,0-5-15.9,5.9-23.9c7.8-5.7,14.4-5.2,14.4-5.2l36.5-0.3v-14.4l21.3,18.3l-21.8,18.5
				l0.3-14.9h-37.7C-1515.6,1838.8-1528.9,1840-1528.7,1856z"/>
			<path class="st4" d="M-1463.5,1850.6l5.9-4.8c0,0,5,15.9-5.9,23.9c-7.8,5.7-14.4,5.2-14.4,5.2l-36.5,0.3v14.4l-21.3-18.3
				l21.8-18.5l-0.3,14.9h37.7C-1476.6,1867.8-1463.4,1866.7-1463.5,1850.6z"/>
		</g>
		<g>
			<circle class="st31" cx="-1078.5" cy="1221.5" r="47.8"/>
			<circle class="st32" cx="-1078.5" cy="1221.5" r="26.3"/>
		</g>
	</g>
</g>
</svg>
