<?xml version="1.0" encoding="utf-8"?>
<!-- Generator: Adobe Illustrator 23.1.0, SVG Export Plug-In . SVG Version: 6.00 Build 0)  -->
<svg version="1.1" id="Layer_1" xmlns="http://www.w3.org/2000/svg" xmlns:xlink="http://www.w3.org/1999/xlink" x="0px" y="0px"
	 viewBox="0 0 854 218" style="enable-background:new 0 0 854 218;" xml:space="preserve">
<style type="text/css">
	.st0{fill:none;stroke:#4D4D4D;stroke-width:3;stroke-miterlimit:10;stroke-dasharray:14;}
	.st1{display:none;}
	.st2{display:inline;}
	.st3{fill:#E8E8DF;}
	.st4{fill:#48E0C2;}
	.st5{fill:#6547EB;}
	.st6{fill:#AB4AC3;}
	.st7{fill:#FFFFFF;}
	.st8{fill:#FFFFFF;stroke:#581466;stroke-width:2;stroke-miterlimit:10;}
	.st9{fill:#9676A7;}
	.st10{fill:#D8D6C9;}
	.st11{fill:#FEFEFE;}
	.st12{fill:#9677A7;}
	.st13{fill:#9777A8;}
	.st14{fill:#9777A7;}
	.st15{fill:#C7BCB7;}
	.st16{fill:#659B35;}
	.st17{fill:#F2D45B;}
	.st18{fill:#87BF57;}
	.st19{fill:#E47E25;}
	.st20{fill:#EFEFEA;}
	.st21{fill:#CB3533;}
	.st22{fill:#FCC79A;}
	.st23{fill:#F9AE78;}
	.st24{fill:#F8BA91;}
	.st25{fill:none;stroke:#D6D6D4;stroke-width:5;stroke-miterlimit:10;stroke-dasharray:40;}
	.st26{fill:none;stroke:#D6D6D4;stroke-width:5;stroke-miterlimit:10;stroke-dasharray:36;}
	.st27{fill:#F4F4ED;}
	.st28{fill:#A0A4A5;}
	.st29{fill:#00BCD4;}
	.st30{fill:none;stroke:#6547EB;stroke-width:7;stroke-miterlimit:10;}
	.st31{fill:none;stroke:#6547EB;stroke-width:8;stroke-miterlimit:10;}
	.st32{fill:none;stroke:#6547EB;stroke-width:6;stroke-miterlimit:10;}
</style>
<line class="st0" x1="536.9" y1="113" x2="645.9" y2="113"/>
<g class="st1">
	<g class="st2">
		<rect x="-452.3" y="-335.2" class="st3" width="491" height="306"/>
		<path class="st4" d="M42.1-34.1c10.9,0,20.9,0,30.8,0c9.5,0,19,0.1,28.5,0c3.2,0,4.5,1.1,4.4,4.3c-0.1,8.3-0.1,16.7,0,25
			c0,4.2-2.1,6.1-6.1,6.1c-1.5,0-3,0-4.5,0c-202.3,0-404.6,0-606.9,0c-1.8,0-3.7,0.1-5.5-0.1c-3.3-0.3-5.2-2-5.2-5.5
			c0-8.7,0.1-17.3-0.1-26c-0.1-4.1,2.5-3.9,5.3-3.9c17.8,0,35.7,0,53.5,0c6.5,0,6.6,0,6.6-6.5c0-95.5,0-191,0-286.5
			c0-10.3,1.6-11.9,11.8-11.9c158.6,0,317.3,0,475.9,0c10,0,11.5,1.5,11.5,11.7c0,95,0,190,0,285C42.1-39.9,42.1-37.4,42.1-34.1z
			 M-207.8-34.1c79.1,0,158.3,0,237.4,0c6.7,0,6.7,0,6.7-6.9c0-95,0-190,0-285c0-7.1,0-7.1-7.2-7.1c-157.6,0-315.3,0-472.9,0
			c-7.4,0-7.4,0-7.4,7.4c0,94.8,0,189.6,0,284.5c0,7.1,0,7.1,7.4,7.1C-365.1-34.1-286.4-34.1-207.8-34.1z"/>
		<path class="st5" d="M-118.3-82.2h-180c-14.4,0-26-11.6-26-26l0,0c0-14.4,11.6-26,26-26h180c14.4,0,26,11.6,26,26l0,0
			C-92.3-93.8-103.9-82.2-118.3-82.2z"/>
		<g>
			<path class="st6" d="M-364-266.6v4.9v11.6c0,0.8-0.4,1.2-1.2,1.2h-4.2c-0.8,0-1.2-0.4-1.2-1.2v-3.3c-2.5,3.4-6.4,5.2-11.3,5.2
				c-10,0-17.6-8-17.6-18.3s7.7-18.3,18.3-18.3c7.8,0,14.5,4.8,16.7,11.2c0.3,0.8-0.1,1.3-1,1.3h-4.9c-0.7,0-1.1-0.3-1.4-0.9
				c-1.6-2.8-5.2-4.9-9.4-4.9c-6.9,0-11.4,4.8-11.4,11.6c0,7.2,4.8,11.9,11.4,11.9c4.6,0,9.1-2.1,10.2-7.1h-8.6
				c-0.8,0-1.2-0.4-1.2-1.2v-3.7c0-0.8,0.4-1.2,1.2-1.2h14.4C-364.4-267.8-364-267.4-364-266.6z"/>
			<path class="st6" d="M-333.9-261.5c0,0.5,0,1-0.1,1.5c-0.1,0.8-0.6,1.1-1.3,1.1h-5.2h-12.6c0.9,3.6,3.6,5.2,6.8,5.2
				c1.9,0,3.6-0.8,4.6-1.8c0.5-0.4,0.8-0.7,1.5-0.7h4c0.9,0,1.3,0.6,1,1.3c-1.9,4.2-6,6.6-11.2,6.6c-8.2,0-13.5-5.7-13.5-13.3
				c0-7.5,5.4-13.3,13.4-13.3C-339-274.8-333.9-268.9-333.9-261.5z M-340.4-264c-0.8-3.6-3.4-5-6.1-5c-3.4,0-5.8,1.9-6.6,5H-340.4z"
				/>
			<path class="st6" d="M-316.7-272.9v3.9c0,0.8-0.4,1.2-1.2,1.2h-3.1v17.7c0,0.8-0.4,1.2-1.2,1.2h-4.1c-0.8,0-1.2-0.4-1.2-1.2
				v-17.7h-3.1c-0.8,0-1.2-0.4-1.2-1.2v-3.9c0-0.8,0.4-1.2,1.2-1.2h3.1v-6.9c0-0.8,0.4-1.2,1.2-1.2h4.1c0.8,0,1.2,0.4,1.2,1.2v6.9
				h3.1C-317.1-274.1-316.7-273.7-316.7-272.9z"/>
			<path class="st6" d="M-302-258.5c-0.1-0.8,0.4-1.2,1.2-1.2h4.5c0.7,0,1.1,0.4,1.2,1.2c0.4,2.4,2.4,3.6,5.9,3.6s5.2-1.5,5.2-3.6
				c0-2.5-2.8-3.6-6.2-4.8c-5.1-1.8-11.3-3.8-11.3-11.3c0-6.8,5.6-10.2,11.5-10.2c5.8,0,11.3,3.2,11.9,10.1c0.1,0.8-0.4,1.2-1.2,1.2
				h-4.5c-0.7,0-1.1-0.4-1.2-1.1c-0.4-2.3-2.2-3.5-4.9-3.5c-2.9,0-4.5,1.5-4.5,3.5c0,2.6,2.4,3.7,5.7,4.9
				c5.1,1.8,11.8,3.7,11.8,11.1c0,6.8-5.6,10.3-12.1,10.3C-295.7-248.2-301.4-251.5-302-258.5z"/>
			<path class="st6" d="M-260-272.9v3.9c0,0.8-0.4,1.2-1.2,1.2h-3.1v17.7c0,0.8-0.4,1.2-1.2,1.2h-4.1c-0.8,0-1.2-0.4-1.2-1.2v-17.7
				h-3.1c-0.8,0-1.2-0.4-1.2-1.2v-3.9c0-0.8,0.4-1.2,1.2-1.2h3.1v-6.9c0-0.8,0.4-1.2,1.2-1.2h4.1c0.8,0,1.2,0.4,1.2,1.2v6.9h3.1
				C-260.4-274.1-260-273.7-260-272.9z"/>
			<path class="st6" d="M-246.5-274.8c5.6,0,10.3,3.3,10.3,9.9v14.8c0,0.8-0.4,1.2-1.2,1.2h-4c-0.8,0-1.2-0.4-1.2-1.2v-1
				c-1.4,1.8-3.6,2.9-6.8,2.9c-4.5,0-8.5-2.6-8.5-7.9c0-5.3,4-7.9,8.5-7.9c3.2,0,5.4,1,6.8,2.2v-2.7c0-3-1.5-4.2-3.9-4.2
				c-1.9,0-3.3,0.8-3.7,2.2c-0.3,0.7-0.5,1.1-1.2,1.1h-4c-0.8,0-1.2-0.4-1.2-1.2C-256-271.9-251.6-274.8-246.5-274.8L-246.5-274.8z
				 M-242.6-256.2c0-1.9-1.8-3.1-4.6-3.1s-4.2,1.3-4.2,3.1s1.3,3.1,4.2,3.1S-242.6-254.4-242.6-256.2z"/>
			<path class="st6" d="M-217.5-273.4v4.8c0,0.8-0.3,1.2-0.9,1.2c-3.1,0-6,1.6-6,6.1v11.2c0,0.8-0.4,1.2-1.2,1.2h-4.1
				c-0.8,0-1.2-0.4-1.2-1.2v-22.8c0-0.8,0.4-1.2,1.2-1.2h4.1c0.8,0,1.2,0.4,1.2,1.2v2.6c1.1-2.6,3.2-3.9,5.7-4.2
				C-217.9-274.6-217.5-274.1-217.5-273.4z"/>
			<path class="st6" d="M-200.1-272.9v3.9c0,0.8-0.4,1.2-1.2,1.2h-3.1v17.7c0,0.8-0.4,1.2-1.2,1.2h-4.1c-0.8,0-1.2-0.4-1.2-1.2
				v-17.7h-3.1c-0.8,0-1.2-0.4-1.2-1.2v-3.9c0-0.8,0.4-1.2,1.2-1.2h3.1v-6.9c0-0.8,0.4-1.2,1.2-1.2h4.1c0.8,0,1.2,0.4,1.2,1.2v6.9
				h3.1C-200.6-274.1-200.1-273.7-200.1-272.9z"/>
			<path class="st6" d="M-172.4-261.5c0,0.5,0,1-0.1,1.5c-0.1,0.8-0.6,1.1-1.3,1.1h-5.2h-12.6c0.9,3.6,3.6,5.2,6.8,5.2
				c1.9,0,3.6-0.8,4.6-1.8c0.5-0.4,0.8-0.7,1.5-0.7h4c0.9,0,1.3,0.6,1,1.3c-1.9,4.2-6,6.6-11.2,6.6c-8.2,0-13.5-5.7-13.5-13.3
				c0-7.5,5.4-13.3,13.4-13.3C-177.5-274.8-172.4-268.9-172.4-261.5z M-178.9-264c-0.8-3.6-3.4-5-6.1-5c-3.4,0-5.8,1.9-6.6,5H-178.9
				z"/>
			<path class="st6" d="M-142.3-283v32.9c0,0.8-0.4,1.2-1.2,1.2h-4.1c-0.8,0-1.2-0.4-1.2-1.2v-1.8c-1.8,2.3-4.5,3.7-8.2,3.7
				c-6.7,0-12.3-5.8-12.3-13.3c0-7.5,5.6-13.3,12.3-13.3c3.7,0,6.4,1.4,8.2,3.7V-283c0-0.8,0.4-1.2,1.2-1.2h4.1
				C-142.8-284.2-142.3-283.8-142.3-283z M-148.8-261.5c0-4.2-3-7.1-7-7.1s-7,2.9-7,7.1s3,7.1,7,7.1S-148.8-257.3-148.8-261.5z"/>
			<path class="st6" d="M-103.3-284.2h4.5c0.8,0,1.2,0.4,1.2,1.2v32.9c0,0.8-0.4,1.2-1.2,1.2h-3.1c-0.6,0-1.1-0.2-1.5-0.8l-13.2-21
				v20.6c0,0.8-0.4,1.2-1.2,1.2h-4.5c-0.8,0-1.2-0.4-1.2-1.2V-283c0-0.8,0.4-1.2,1.2-1.2h3.1c0.6,0,1.1,0.2,1.5,0.8l13.2,21V-283
				C-104.5-283.8-104.1-284.2-103.3-284.2z"/>
			<path class="st6" d="M-92.7-261.5c0-7.5,5.9-13.3,13.3-13.3s13.3,5.8,13.3,13.3s-5.9,13.3-13.3,13.3
				C-86.7-248.2-92.7-254-92.7-261.5z M-72.5-261.5c0-4.1-3-7-6.8-7s-6.8,2.9-6.8,7s3,7,6.8,7S-72.5-257.4-72.5-261.5z"/>
			<path class="st6" d="M-29.9-272.8l-7.5,22.8c-0.2,0.7-0.7,1-1.4,1h-3.4h-0.7c-0.7,0-1.2-0.3-1.4-1l-3-9.1l-3,9.1
				c-0.2,0.7-0.7,1-1.4,1h-2.6h-1.5c-0.7,0-1.2-0.3-1.4-1l-7.5-22.8c-0.3-0.8,0.1-1.3,1-1.3h4.4c0.7,0,1.1,0.3,1.3,1l4.6,16.3
				l3.3-10.3l-1.8-5.6c-0.3-0.8,0.1-1.3,1-1.3h3.3c0.7,0,1.1,0.3,1.3,1l4.9,15.6L-37-273c0.2-0.7,0.6-1,1.3-1h4.4
				C-30.1-274.1-29.7-273.6-29.9-272.8z"/>
			<path class="st6" d="M-25-261.8l-1.2-12.3v-8.9c0-0.8,0.4-1.2,1.2-1.2h5.4c0.8,0,1.2,0.4,1.2,1.2v8.9l-1.2,12.3
				c-0.1,0.7-0.5,1-1.2,1h-3C-24.4-260.8-24.9-261.1-25-261.8z M-25.8-250.1v-4.8c0-0.8,0.4-1.2,1.2-1.2h4.8c0.8,0,1.2,0.4,1.2,1.2
				v4.8c0,0.8-0.4,1.2-1.2,1.2h-4.8C-25.4-248.9-25.8-249.4-25.8-250.1z"/>
		</g>
		<g>
			<path class="st6" d="M-370.2-187.6v-27.8h3.9l8.9,14.1c2.1,3.3,3.7,6.2,5,9h0.1c-0.3-3.7-0.4-7.1-0.4-11.4v-11.6h3.4v27.8h-3.6
				l-8.8-14.1c-1.9-3.1-3.8-6.3-5.2-9.3h-0.1c0.2,3.5,0.3,6.8,0.3,11.5v11.9L-370.2-187.6L-370.2-187.6z"/>
			<path class="st6" d="M-325.1-197.8c0,7.4-5.1,10.6-9.9,10.6c-5.4,0-9.6-4-9.6-10.3c0-6.7,4.4-10.6,9.9-10.6
				C-329-208-325.1-203.9-325.1-197.8z M-340.9-197.6c0,4.4,2.5,7.7,6.1,7.7c3.5,0,6.1-3.3,6.1-7.8c0-3.4-1.7-7.7-6-7.7
				C-339.1-205.3-340.9-201.4-340.9-197.6z"/>
			<path class="st6" d="M-312.3-191.3c1.1,0.7,3,1.4,4.8,1.4c2.6,0,3.9-1.3,3.9-3s-1-2.7-3.7-3.7c-3.6-1.3-5.3-3.3-5.3-5.6
				c0-3.2,2.6-5.9,6.9-5.9c2,0,3.8,0.6,4.9,1.2l-0.9,2.6c-0.8-0.5-2.2-1.2-4.1-1.2c-2.1,0-3.3,1.2-3.3,2.7c0,1.6,1.2,2.4,3.8,3.4
				c3.5,1.3,5.2,3.1,5.2,6c0,3.5-2.7,6-7.5,6c-2.2,0-4.2-0.5-5.6-1.4L-312.3-191.3z"/>
			<path class="st6" d="M-291.4-213.2c0,1.2-0.9,2.2-2.3,2.2c-1.3,0-2.2-1-2.2-2.2c0-1.3,0.9-2.3,2.3-2.3
				C-292.3-215.5-291.4-214.5-291.4-213.2z M-295.5-187.6v-20h3.6v20H-295.5z"/>
			<path class="st6" d="M-268.6-207.6c-0.1,1.4-0.2,3.1-0.2,5.5v11.6c0,4.6-0.9,7.4-2.8,9.1c-1.9,1.8-4.7,2.4-7.3,2.4
				c-2.4,0-5-0.6-6.6-1.6l0.9-2.8c1.3,0.8,3.4,1.6,5.9,1.6c3.7,0,6.4-1.9,6.4-7v-2.2h-0.1c-1.1,1.9-3.3,3.3-6.3,3.3
				c-4.9,0-8.5-4.2-8.5-9.7c0-6.8,4.4-10.6,9-10.6c3.5,0,5.4,1.8,6.2,3.5h0.1l0.2-3h3.1V-207.6z M-272.4-199.7c0-0.6,0-1.2-0.2-1.6
				c-0.7-2.1-2.4-3.8-5.1-3.8c-3.5,0-5.9,2.9-5.9,7.5c0,3.9,2,7.2,5.9,7.2c2.2,0,4.2-1.4,5-3.7c0.2-0.6,0.3-1.3,0.3-1.9
				L-272.4-199.7L-272.4-199.7z"/>
			<path class="st6" d="M-263-202.2c0-2.1,0-3.8-0.2-5.4h3.2l0.2,3.3h0.1c1-1.9,3.3-3.8,6.6-3.8c2.8,0,7.1,1.6,7.1,8.5v11.9h-3.6
				v-11.5c0-3.2-1.2-5.9-4.6-5.9c-2.4,0-4.2,1.7-4.9,3.7c-0.2,0.5-0.2,1.1-0.2,1.7v12h-3.6v-14.5H-263z"/>
			<path class="st6" d="M-214.7-193.1c0,2.1,0,3.9,0.2,5.4h-3.2l-0.2-3.3h-0.1c-0.9,1.6-3.1,3.7-6.6,3.7c-3.1,0-6.9-1.7-6.9-8.7
				v-11.7h3.6v11c0,3.8,1.2,6.3,4.5,6.3c2.4,0,4.1-1.7,4.8-3.3c0.2-0.5,0.3-1.2,0.3-1.9v-12.2h3.6L-214.7-193.1L-214.7-193.1z"/>
			<path class="st6" d="M-208.7-201.1c0-2.6-0.1-4.6-0.2-6.5h3.3l0.2,3.4h0.1c1.5-2.4,3.8-3.9,7.1-3.9c4.8,0,8.5,4.1,8.5,10.1
				c0,7.2-4.4,10.7-9.1,10.7c-2.6,0-4.9-1.2-6.1-3.1h-0.1v10.8h-3.6L-208.7-201.1L-208.7-201.1z M-205.1-195.7c0,0.5,0.1,1,0.2,1.5
				c0.7,2.5,2.8,4.2,5.4,4.2c3.8,0,6.1-3.1,6.1-7.7c0-4-2.1-7.4-5.9-7.4c-2.5,0-4.8,1.8-5.5,4.5c-0.1,0.5-0.2,1-0.2,1.5v3.4H-205.1z
				"/>
			<path class="st6" d="M-176.5-201.4c0-2.4,0-4.4-0.2-6.2h3.2l0.1,3.9h0.2c0.9-2.7,3.1-4.4,5.5-4.4c0.4,0,0.7,0,1,0.1v3.4
				c-0.4-0.1-0.7-0.1-1.2-0.1c-2.6,0-4.4,1.9-4.9,4.7c-0.1,0.5-0.2,1.1-0.2,1.7v10.6h-3.6L-176.5-201.4L-176.5-201.4z"/>
			<path class="st6" d="M-161.4-196.9c0.1,4.9,3.2,6.9,6.8,6.9c2.6,0,4.2-0.5,5.5-1l0.6,2.6c-1.3,0.6-3.5,1.2-6.6,1.2
				c-6.1,0-9.8-4-9.8-10.1s3.5-10.8,9.4-10.8c6.5,0,8.2,5.7,8.2,9.4c0,0.7-0.1,1.3-0.1,1.7h-14V-196.9z M-150.8-199.5
				c0-2.3-0.9-5.9-5-5.9c-3.7,0-5.3,3.4-5.6,5.9H-150.8z"/>
			<path class="st6" d="M-129.2-190.7L-129.2-190.7c-1.2,2-3.4,3.5-6.6,3.5c-4.7,0-8.5-4-8.5-10.1c0-7.5,4.8-10.8,9-10.8
				c3.1,0,5.2,1.5,6.1,3.5h0.1l0.1-3h3.4c-0.1,1.7-0.1,3.4-0.1,5.5v22.6h-3.6L-129.2-190.7L-129.2-190.7z M-129.2-199.5
				c0-0.5,0-1.1-0.2-1.5c-0.5-2.2-2.5-4.1-5.2-4.1c-3.8,0-6,3.2-6,7.7c0,4,1.9,7.4,5.9,7.4c2.4,0,4.4-1.4,5.2-4
				c0.2-0.5,0.3-1.2,0.3-1.7V-199.5z"/>
			<path class="st6" d="M-102.9-193.1c0,2.1,0,3.9,0.2,5.4h-3.2l-0.2-3.3h-0.1c-0.9,1.6-3.1,3.7-6.6,3.7c-3.1,0-6.9-1.7-6.9-8.7
				v-11.7h3.6v11c0,3.8,1.2,6.3,4.5,6.3c2.4,0,4.1-1.7,4.8-3.3c0.2-0.5,0.3-1.2,0.3-1.9v-12.2h3.6
				C-102.9-207.8-102.9-193.1-102.9-193.1z"/>
			<path class="st6" d="M-92.8-213.2c0,1.2-0.9,2.2-2.3,2.2c-1.3,0-2.2-1-2.2-2.2c0-1.3,0.9-2.3,2.3-2.3
				C-93.7-215.5-92.8-214.5-92.8-213.2z M-96.9-187.6v-20h3.6v20H-96.9z"/>
			<path class="st6" d="M-87.2-201.4c0-2.4,0-4.4-0.2-6.2h3.2l0.1,3.9h0.2c0.9-2.7,3.1-4.4,5.5-4.4c0.4,0,0.7,0,1,0.1v3.4
				c-0.4-0.1-0.7-0.1-1.2-0.1c-2.6,0-4.4,1.9-4.9,4.7c-0.1,0.5-0.2,1.1-0.2,1.7v10.6h-3.6L-87.2-201.4L-87.2-201.4z"/>
			<path class="st6" d="M-72.1-196.9c0.1,4.9,3.2,6.9,6.8,6.9c2.6,0,4.2-0.5,5.5-1l0.6,2.6c-1.3,0.6-3.5,1.2-6.6,1.2
				c-6.1,0-9.8-4-9.8-10.1S-72-208-66.2-208c6.5,0,8.2,5.7,8.2,9.4c0,0.7-0.1,1.3-0.1,1.7L-72.1-196.9L-72.1-196.9z M-61.5-199.5
				c0-2.3-0.9-5.9-5-5.9c-3.7,0-5.3,3.4-5.6,5.9H-61.5z"/>
			<path class="st6" d="M-36.3-216.9v24.1c0,1.8,0,3.8,0.2,5.2h-3.3l-0.2-3.5h-0.1c-1.1,2.2-3.5,3.9-6.8,3.9
				c-4.8,0-8.5-4.1-8.5-10.1c0-6.6,4.1-10.7,8.9-10.7c3.1,0,5.1,1.4,6,3.1h0.1v-11.9h3.7V-216.9z M-39.9-199.5c0-0.5,0-1.1-0.2-1.5
				c-0.5-2.3-2.5-4.2-5.2-4.2c-3.8,0-6,3.3-6,7.7c0,4,2,7.4,5.9,7.4c2.4,0,4.7-1.6,5.3-4.3c0.1-0.5,0.2-1,0.2-1.6V-199.5z"/>
		</g>
		<g>
			<path class="st7" d="M-256.3-120.8h2.9v19.8h9.5v2.4h-12.4V-120.8z"/>
			<path class="st7" d="M-232-98.5l-0.2-2h-0.1c-0.9,1.3-2.6,2.4-4.9,2.4c-3.2,0-4.9-2.3-4.9-4.6c0-3.9,3.4-6,9.6-5.9v-0.3
				c0-1.3-0.4-3.7-3.6-3.7c-1.5,0-3,0.5-4.2,1.2l-0.7-1.9c1.3-0.9,3.2-1.4,5.2-1.4c4.9,0,6.1,3.3,6.1,6.5v6c0,1.4,0.1,2.7,0.3,3.8
				L-232-98.5L-232-98.5z M-232.4-106.7c-3.2-0.1-6.8,0.5-6.8,3.6c0,1.9,1.3,2.8,2.7,2.8c2.1,0,3.4-1.3,3.9-2.7
				c0.1-0.3,0.2-0.6,0.2-0.9L-232.4-106.7L-232.4-106.7z"/>
			<path class="st7" d="M-211.5-102.9c0,1.6,0,3.1,0.1,4.4h-2.6l-0.2-2.6h-0.1c-0.8,1.3-2.4,3-5.3,3c-2.5,0-5.5-1.4-5.5-7v-9.3h2.9
				v8.8c0,3,0.9,5.1,3.6,5.1c1.9,0,3.3-1.4,3.8-2.6c0.2-0.4,0.3-1,0.3-1.5v-9.8h2.9v11.5H-211.5z"/>
			<path class="st7" d="M-206.7-110.2c0-1.6,0-3-0.1-4.3h2.6l0.2,2.6h0.1c0.8-1.5,2.6-3,5.3-3c2.2,0,5.6,1.3,5.6,6.8v9.5h-2.9v-9.2
				c0-2.6-1-4.7-3.7-4.7c-1.9,0-3.4,1.4-3.9,3c-0.1,0.4-0.2,0.9-0.2,1.4v9.6h-2.9v-11.7H-206.7z"/>
			<path class="st7" d="M-177-99.1c-0.8,0.4-2.4,0.9-4.6,0.9c-4.8,0-8-3.3-8-8.2c0-4.9,3.4-8.5,8.6-8.5c1.7,0,3.2,0.4,4,0.8
				l-0.7,2.2c-0.7-0.4-1.8-0.8-3.4-0.8c-3.7,0-5.6,2.7-5.6,6c0,3.7,2.4,6,5.5,6c1.7,0,2.7-0.4,3.6-0.8L-177-99.1z"/>
			<path class="st7" d="M-173.6-121.9h2.9v10h0.1c0.5-0.8,1.2-1.6,2.1-2c0.9-0.5,1.9-0.8,3-0.8c2.1,0,5.6,1.3,5.6,6.8v9.5h-2.9v-9.2
				c0-2.6-1-4.8-3.7-4.8c-1.9,0-3.4,1.3-3.9,2.9c-0.2,0.4-0.2,0.8-0.2,1.4v9.6h-2.9v-23.4H-173.6z"/>
		</g>
		<polygon class="st8" points="-146,-97.1 -141.2,-61.4 -132.9,-72.8 -117,-74.4 		"/>
	</g>
</g>
<g>
	<circle class="st3" cx="622.1" cy="-783.8" r="10.9"/>
	<circle class="st3" cx="671.1" cy="-783.8" r="10.9"/>
	<circle class="st3" cx="720.2" cy="-783.8" r="10.9"/>
	<g>
		<path class="st9" d="M986.8-706.1c-2.3-1.1-3-3-3-5.5c0.1-13.7,0-27.5,0-41.2c0.4-0.5,0.9-0.5,1.5-0.6c0.5,0,1,0,1.5,0
			c37.6,0,75.3,0,112.9,0c1,0,2.1-0.3,3,0.6c0,13.8,0,27.7,0,41.5c0,2.5-0.8,4.4-3.3,5.3C1062-706.1,1024.4-706.1,986.8-706.1z"/>
		<path class="st3" d="M1102.8-752.9c-0.6,0-1.2-0.1-1.8-0.1c-38.5,0-76.9,0-115.4,0c-0.6,0-1.2,0.1-1.8,0.1c0-0.5,0-1,0-1.5
			c0-33.2,0-66.4,0-99.6c0-1.2,0.1-2.4,0.4-3.6c0.4-2.2,1.9-3.3,4.2-3.3c9.2,0,18.4,0,27.7,0c17.1,0,34.2,0,51.4,0
			c0.8,0,1.6-0.1,2.2,0.6c0.5,0.8,0.5,1.7,0.5,2.6c0,9,0,18.1,0,27.1c0,2.3,0,2.4,2.3,2.4c9.1,0,18.2,0,27.3,0c0.8,0,1.5,0,2.2,0.2
			c0.9,1.1,0.8,2.6,0.8,3.9c0.1,23.6,0,47.2,0,70.7C1102.8-753.2,1102.8-753,1102.8-752.9z"/>
		<path class="st10" d="M1102-827.9c-0.4,0.5-1,0.3-1.6,0.3c-9.7,0-19.4,0-29.2,0c-1.4,0-1.7-0.4-1.7-1.7c0.1-10.3,0-20.6,0-31
			c0.3,0.2,0.6,0.4,0.8,0.7c10.3,10.3,20.6,20.6,31,31C1101.6-828.4,1101.8-828.2,1102-827.9z"/>
		<path class="st11" d="M1073.9-733c0,5.7,0,11.4,0,17c0,1.3-0.3,1.7-1.7,1.7c-2.9-0.1-2.9,0-2.9-2.9c0-7.9,0-15.7,0-23.6
			c0-1.2,0.4-1.4,1.5-1.5c2.4-0.3,3.6,0.7,4.6,2.7c2.9,5.4,6,10.7,9.2,16.3c0.1-0.7,0.1-1.1,0.1-1.5c0-5.3,0-10.7,0-16
			c0-1.1,0.3-1.5,1.4-1.5c3.3,0,3.3,0,3.3,3.2c0,7.7,0,15.4,0,23.1c0,1.4-0.4,1.6-1.7,1.7c-2.2,0.2-3.4-0.6-4.4-2.5
			c-2.9-5.5-6.1-10.9-9.2-16.3C1074.1-733.1,1074-733.1,1073.9-733z"/>
		<path class="st11" d="M1052.3-714.3c-6.2,0-10.3-3.1-11.8-8.4c-1.2-4.5-1.2-9,0.6-13.3c2-4.6,6.1-7.1,10.9-6.7
			c4.7,0.3,8.6,3.4,9.9,8.2c1.3,4.6,1.3,9.3-0.7,13.7C1059.4-716.5,1056-714.4,1052.3-714.3z"/>
		<path class="st11" d="M1026.3-714.3c-2.1,0-4.2-0.3-6.1-1.4c-1.6-1-0.3-2.2-0.1-3.2s1-0.1,1.4,0c1.9,0.6,3.7,1.2,5.8,1
			c1.9-0.1,3.3-1.1,3.8-2.7c0.6-1.9,0.1-3.4-1.7-4.6c-1.6-1-3.3-1.9-5-2.8c-2.2-1.3-4.3-2.8-4.7-5.6c-0.7-4.7,2.1-8.4,6.9-9
			c2.2-0.3,4.4,0,6.5,0.7c0.8,0.3,1.3,0.7,0.7,1.6c-0.3,0.4-0.5,0.9-0.7,1.3c-0.3,0.8-0.7,0.8-1.5,0.6c-2-0.7-4.2-0.9-6.1,0.4
			c-2.1,1.4-2.2,4-0.4,5.7c1.2,1.1,2.6,1.7,4,2.3c2.2,1.1,4.5,2.2,5.6,4.6c2.4,4.9-1.2,10.5-7,11
			C1027.3-714.3,1026.8-714.3,1026.3-714.3z"/>
		<path class="st11" d="M1008.3-731.6c0-3.3,0-6.6,0-10c0-0.9,0.2-1.2,1.2-1.3c3.5-0.1,3.5-0.1,3.5,3.4c0,5.4-0.2,10.9,0,16.3
			c0.4,8.4-5.4,9.3-10.7,8.7c-1.9-0.2-3.8-0.9-5.6-1.8c-0.8-0.4-0.9-0.8-0.3-1.5l0.1-0.1c1.2-1.9,1.2-1.9,3.3-1.2
			c1.7,0.6,3.4,0.9,5.2,0.7c2.2-0.2,3.3-1.3,3.3-3.5C1008.4-725.1,1008.3-728.3,1008.3-731.6z"/>
		<path class="st12" d="M1014.3-786.2c0-1.7,0-3.3,0-5c0-3.6-1.8-5.6-5.3-6.2c-2.1-0.3-2.9-1.1-2.9-2.8c0-1.6,1.1-2.5,3-2.7
			c3.1-0.3,5.2-2.5,5.2-5.6c0-3.7,0-7.5,0-11.2c0.1-4.4,3.9-8.1,8.2-8c1.5,0,2.5,0.9,2.7,2.3c0.2,1.5-0.6,2.7-2,3.1
			c-3.1,0.9-3.4,1.3-3.4,4.5c0,2.9,0,5.8,0,8.8c0.1,3.2-0.8,6-3.1,8.2c-0.6,0.6-0.5,0.9,0,1.5c2.2,2.2,3.2,4.9,3.1,8.1
			c-0.1,3.1,0,6.2,0,9.4c0,2.6,0.6,3.3,3.1,4c1.8,0.4,2.6,1.6,2.4,3.3c-0.3,1.5-1.4,2.3-3.2,2.1c-4.3-0.3-7.5-3.7-7.7-8
			C1014.3-782.5,1014.3-784.3,1014.3-786.2L1014.3-786.2z"/>
		<path class="st12" d="M1069.6-813.7c0,1.6,0,3.1,0,4.7c0,3.8,1.8,5.8,5.5,6.2c1.4,0.2,2.4,0.9,2.6,2.3c0.3,1.3-0.3,2.2-1.4,2.9
			c-0.4,0.3-0.9,0.2-1.3,0.3c-3.7,0.5-5.4,2.6-5.4,6.2c0,3.4,0,6.9,0,10.3c-0.1,4.6-3.4,8.1-7.9,8.3c-1.7,0.1-2.9-0.8-3.2-2.3
			c-0.2-1.3,0.7-2.8,2.4-3c2.6-0.3,3.2-1.7,3.2-4.2c0-3,0.1-6,0-9.1c-0.1-3.2,0.9-5.9,3.1-8.2c0.6-0.6,0.5-0.9,0-1.5
			c-2.2-2.2-3.2-4.9-3.1-8.1c0.1-3.1,0-6.2,0-9.4c0-2.6-0.6-3.4-3.1-3.9c-1.6-0.4-2.6-1.6-2.4-3c0.2-1.5,1.3-2.4,2.9-2.4
			c4.4,0,8,3.7,8.1,8.5C1069.6-817.4,1069.6-815.6,1069.6-813.7z"/>
		<path class="st13" d="M1039.1-787.3c0-1.6,0-2.9,0-4.1c0.1-1.8,1.1-3,2.7-3.1s2.8,0.9,2.9,2.8c0.1,2.8,0.3,5.7-0.1,8.6
			c-0.2,1.4-1.1,2.2-2.5,2.4c-1.4,0.1-2.4-0.7-2.8-2.2C1038.9-784.5,1039.3-786.1,1039.1-787.3z"/>
		<path class="st14" d="M1037.9-809.7c0-2.4,1.7-4.1,4-4.2c2.3,0,4.1,1.8,4.1,4.1s-1.9,4.2-4.2,4.2
			C1039.7-805.6,1037.9-807.5,1037.9-809.7z"/>
		<path class="st12" d="M1058.2-729.5c0,3.7-0.3,6.3-1.8,8.7c-2.5,3.9-8.1,4-10.3,0c-2.6-4.8-2.5-9.8-0.3-14.8
			c1.1-2.3,3.2-3.4,5.6-3.3c2.8,0.1,4.6,1.7,5.7,4.3C1058-732.7,1058.2-730.6,1058.2-729.5z"/>
	</g>
	<path class="st3" d="M813.3-860.3c27.5,0,55,0,82.5,0c0.4,0.2,0.9,0.3,1,0.9c0.2,0.9,0.2,1.8,0.2,2.7c0,9,0,18.1,0,27.1
		c0,2.2,0,2.2,2.2,2.2c9,0,18.1,0,27.1,0c1,0,1.9,0,2.8,0.3c0.9,0.6,0.9,1.5,0.9,2.5c-0.1,0.7-0.1,1.4-0.1,2.1c0,22.6,0,45.2,0,67.9
		c0,0.6,0,1.2,0,1.8c0,1.2-0.6,1.8-1.7,1.9c-0.6,0-1.1,0-1.7,0c-37.6,0-75.3,0-112.9,0c-3.4,0-3.5-0.1-3.5-3.5c0-33.7,0-67.3,0-101
		C810-858.1,810.9-859.5,813.3-860.3z"/>
	<path class="st15" d="M892.6-804.5c3.2,2.4,6.3,4.7,8.9,7.6c5.7,6.2,9.4,13.5,10.7,21.8c0.3,1.8,0.4,3.6,0.6,5.4
		c0.2,1.7-0.6,3-1.8,3.5c-1.3,0.5-2.3,0.1-3.2-0.9c-0.6-0.7-0.7-1.6-0.7-2.4c-0.2-10.5-4.5-19.1-12.2-26.1c-2.6-2.3-5.5-4.2-8.7-5.6
		c-1.1-0.5-1.2-0.1-1.2,0.9c0.1,1.8,0,3.6,0,5.4c0,0.9-0.2,1.3-1.3,1.3c-8.3,0-16.7,0-25,0c-1,0-1.2-0.4-1.2-1.3c0-2.2,0-4.4,0-6.8
		c-3.1,1.1-5.7,2.7-8.2,4.6c-6.6,5.2-10.9,11.9-12.9,20.1c-0.6,2.4-0.9,4.8-0.9,7.3c0,1.2-0.1,2.4-1.2,3.1c-0.9,0.6-1.9,0.8-2.8,0.2
		c-1.1-0.6-1.5-1.6-1.5-2.7c0.2-6.6,1.6-12.8,4.7-18.6c3.3-6.3,7.9-11.5,13.9-15.5c0.5-0.3,1-0.7,1.5-1.3c-1.7,0-3.3,0-5,0
		c-1.3,0-2.9-0.5-3.8,0.3c-0.9,0.8-0.3,2.5-0.3,3.8c0,1.2-0.4,1.4-1.5,1.4c-4.5-0.1-9-0.1-13.6,0c-1.1,0-1.6-0.2-1.6-1.5
		c0.1-4.6,0.1-9.1,0-13.7c0-1,0.3-1.4,1.4-1.4c4.6,0,9.2,0,13.9,0c1,0,1.5,0.3,1.4,1.4c-0.1,1,0,2,0,3c-0.1,1.1,0.4,1.4,1.4,1.4
		c4.6,0,9.1,0,13.7,0c1.1,0,1.5-0.4,1.5-1.5c-0.1-2.8,0-5.5,0-8.3c0-1.1,0.3-1.4,1.4-1.4c8.2,0,16.5,0,24.7,0c1,0,1.4,0.3,1.4,1.4
		c-0.1,2.8,0,5.5,0,8.3c0,1.1,0.4,1.5,1.5,1.5c4.6,0,9.1,0,13.7,0c1,0,1.5-0.3,1.4-1.4c-0.1-1.1,0-2.2,0-3.3c0-0.8,0.3-1.1,1.1-1.1
		c4.8,0,9.6,0,14.5,0c0.8,0,1,0.3,1,1.1c0,4.8,0,9.6,0,14.5c0,0.8-0.4,1-1.1,1c-4.8,0-9.5,0-14.3,0c-0.8,0-1.2-0.3-1.2-1.1
		c0-0.2,0-0.4,0-0.6c0-3.7,0-3.7-3.8-3.7C896.1-804.5,894.4-804.5,892.6-804.5z"/>
	<path class="st10" d="M896.2-859c0.4,0.1,0.6,0.5,0.9,0.7c10.3,10.3,20.5,20.5,30.8,30.8c0.3,0.3,0.7,0.5,0.8,1
		c-10.2,0-20.5,0-30.7,0c-1.5,0-1.8-0.4-1.8-1.9C896.3-838.5,896.2-848.8,896.2-859z"/>
	<path class="st3" d="M879.7-807.2c0,2.3,0,4.5,0,6.8c0,1-0.3,1.4-1.3,1.4c-4.6-0.1-9.2,0-13.9,0c-1,0-1.4-0.3-1.4-1.3
		c0.1-4.6,0-9.2,0-13.9c0-1,0.3-1.4,1.3-1.4c4.6,0,9.2,0.1,13.9,0c1.2,0,1.4,0.4,1.4,1.5C879.6-811.8,879.7-809.5,879.7-807.2z"/>
	<path class="st3" d="M835.6-807.2c0,3.1,0.4,2.7-2.7,2.7c-3.3,0-2.9,0.3-3-3c0-0.3,0-0.5,0-0.8c-0.2-1.3,0.3-1.9,1.7-1.7
		c0.7,0.1,1.5,0.1,2.3,0c1.5-0.2,2,0.4,1.8,1.9C835.6-807.8,835.6-807.5,835.6-807.2z"/>
	<path class="st3" d="M910-804.5c-3.2,0-2.9,0.3-2.9-2.9c0-2.9-0.3-2.5,2.6-2.5c3.1,0,3.1,0,3.1,3.1c0,0.3,0,0.5,0,0.8
		c0.2,1.2-0.3,1.8-1.6,1.6C910.8-804.5,910.4-804.5,910-804.5z"/>
	<path class="st3" d="M536.7-843.8v156.1c0,0.7,0,1.4,0,2.2c-0.1,3.9-1.4,5.6-5.1,6.6H370.2c-3.7-1.3-4.6-2.7-4.7-6.7V-888
		c0-0.9-0.1-1.7,0.1-2.6c0.1-0.6,0.1-1.3,0.6-1.6c-0.2-4,1.1-5.9,4.5-7.1h117.1c0.6,0.3,1.3,0.5,1.4,1.3c0.3,1.3,0.3,2.5,0.3,3.8
		v38.2c0,3.1,0.1,3.1,3.1,3.1c12.8,0,25.6,0,38.4,0c1.4,0,2.7,0,4,0.5c1.3,0.9,1.3,2.2,1.2,3.5c0,0.2-0.1,0.4-0.1,0.5
		c0.5,0.4,0.5,1,0.5,1.6C536.8-845.6,536.7-844.7,536.7-843.8z"/>
	<path class="st10" d="M488.5-898.4c0.6,0.1,0.9,0.6,1.3,1c14.7,14.7,29.3,29.3,44,44c0.4,0.4,1.1,0.8,1.2,1.5
		c-14.6,0-29.2,0-43.9,0c-2.1,0-2.6-0.6-2.6-2.7C488.6-869.1,488.5-883.8,488.5-898.4z"/>
	<g>
		<path class="st5" d="M481.6-768.2l-0.5,0.6c-0.6,0.7-1.2,1.2-1.9,1.7l0,0c-7.6,5.5-18.6,11.5-25.4,17c-0.1,0.1-0.3,0-0.4-0.1
			c-4.2-18.4-8.3-36.6-12.5-54.7l0,0c-0.7-3.2-2-8.6-2.9-12.6c0.2,0.2,0.5,0.4,0.7,0.6l0,0l0.2,0.3v0.1c0.4,0.5,0.7,1,1.1,1.5
			l0.1,0.1c9.1,11.6,20.4,22.7,31.1,34.2C474.9-775.9,478.4-772.1,481.6-768.2z"/>
		<path class="st5" d="M445.6-774c-14.1-16.7-43.6-23.8-56.4-39.4c9.4,1.6,27.8-4,39.8-5.5l0,0c0.5-0.1,1-0.1,1.4-0.1
			c0.1,0,0.3,0,0.4,0s0.2,0,0.3,0c0.8,0,1.5,0.1,2.2,0.3s1.4,0.4,2,0.7c0.4,0.2,0.7,0.5,0.8,1c1.1,4.9,2.3,9.8,3.4,14.8
			c2.2,9.4,4.4,18.8,6.5,28C446.2-773.9,445.8-773.7,445.6-774z"/>
		<path d="M451.4-748.5"/>
		<path class="st5" d="M486.6-815.4c-0.3,2.9-0.6,5.8-0.8,8.6c-0.9,11.4-1.2,22.4-2.5,34.4l0,0c-0.1,0.6-0.2,1.2-0.4,1.8l-0.3,1
			c-3.1-3.7-6.4-7.2-9.7-10.7c-4-4.2-8.1-8.4-12-13.1c14.4-11.4,14.9-13.6,22.2-20.3l0,0c0.3-0.3,0.6-0.6,1-0.9
			C484.7-815.2,485.6-815.5,486.6-815.4L486.6-815.4z"/>
		<path class="st5" d="M507.6-796.7c-7.2,0.3-13.9,0.5-21.2,0.8c0.3-3.7,0.5-7.3,0.8-10.9c0.2-2.8,0.4-5.6,0.6-8.5
			c0.6,0.1,1.1,0.4,1.6,0.8c0.3,0.3,0.5,0.5,0.8,0.8C496.2-808,501.8-802.4,507.6-796.7z"/>
		<path class="st5" d="M447.5-767.7c-0.7-3.3-2.7-5.2-5.2-7.4c-0.1-0.1-0.3-0.1-0.4,0.1c-6.7,17.4-13.3,34.6-20.1,52.2
			c-0.1,0.2,0.1,0.4,0.3,0.3c0.2-0.1,0.3-0.1,0.4-0.2c4.5-3.8,9.1-7.5,13.6-11.3c0.1-0.1,0.4,0,0.4,0.2c0.1,3.2,0.3,6.4,0.4,9.6
			c0,0.2,0.3,0.3,0.4,0.1l0,0c2.4-4.7,4.9-9.4,7.3-14.2c0.1-0.1,0.3-0.2,0.4,0c2.3,4,4.5,7.9,6.8,12c0.1,0.2,0.4,0.1,0.4-0.1l0,0
			c0-7.3-0.1-14.4-0.2-21.7"/>
	</g>
	<g>
		<path class="st3" d="M1161.2-864.3c28,0,56,0,84,0c0.4,0.2,0.9,0.3,1,0.9c0.2,0.9,0.2,1.7,0.2,2.6c0,9.2,0,18.3,0,27.5
			c0,2.3,0,2.3,2.3,2.3c9.2,0,18.3,0,27.5,0c0.9,0,1.9,0,2.8,0.3c0.8,0.4,1,1.1,1,1.8c-0.1,2.3-0.1,4.5-0.1,6.8
			c0,11.4,0,22.8,0,34.3c0,0.7,0.3,1.8-0.5,2.1c-0.9,0.4-1.4-0.6-2-1.1c-8.3-7.8-16.5-15.6-24.7-23.5c-1.1-1.1-1.4-1.1-2.5,0.1
			c-6.8,7.6-13.8,15.1-20.6,22.7c-2.1,2.4-4.3,4.7-6.4,7.1c-1.1,1.2-1.7,1.2-3-0.1c-4.1-4.1-8.2-8.2-12.3-12.3
			c-1.6-1.6-1.6-1.6-3.3-0.2c-14.4,12.2-28.8,24.5-43.3,36.8c-0.9,0.7-1.5,1.8-2.9,1.8c-0.1-0.1-0.2-0.3-0.3-0.5
			c-0.2-0.8-0.1-1.6-0.1-2.5c0-34.2,0-68.4,0-102.5C1158-862.3,1158.8-863.5,1161.2-864.3z"/>
		<path class="st16" d="M1276.6-706.1c-38.6,0-77.2,0-115.8,0c-1.2-0.3-2.4-0.8-2.6-2.2c-0.2-0.6-0.3-1.2-0.3-1.9
			c0-13.8,0-27.6,0-41.4c0-0.8-0.2-1.7,0.4-2.4c0.8-0.4,1.6-0.4,2.4-0.4c38.9,0,77.8,0,116.7,0c0.7,0,1.5-0.1,2.1,0.3
			c0.6,0.7,0.4,1.6,0.4,2.4c0,13.8,0,27.6,0,41.4c0,0.6,0,1.2-0.2,1.8C1279.3-707,1278.1-706.4,1276.6-706.1z"/>
		<path class="st10" d="M1245.8-863.6c0.5,0.1,0.7,0.5,0.9,0.7c10.5,10.5,21,21,31.5,31.6c0.3,0.3,0.8,0.6,0.8,1.1
			c-10.5,0-21,0-31.5,0c-1.5,0-1.9-0.4-1.9-1.9C1245.8-842.7,1245.8-853.1,1245.8-863.6z"/>
		<path class="st17" d="M1193.4-836.4c7.5,0.5,12.8,5.7,12.7,13c-0.1,7.5-5.7,12.8-12.9,12.8c-7.4,0-12.8-5.6-12.8-12.9
			C1180.5-831.1,1186.2-836.2,1193.4-836.4z"/>
		<path class="st11" d="M1212.4-733.6c0,5.8,0,11.6,0,17.4c0,1.3-0.3,1.6-1.6,1.6c-3.1-0.1-3.1,0-3.1-3.1c0-7.9,0-15.8,0-23.8
			c0-1.3,0.3-1.7,1.7-1.8c2.3-0.2,3.5,0.7,4.6,2.7c2.7,5.1,5.7,10.1,8.6,15.2c0.2,0.4,0.5,0.9,1,1.7c0-0.9,0-1.4,0-1.9
			c0-5.5,0-10.9,0-16.4c0-1,0.3-1.3,1.3-1.3c3.4,0,3.4-0.1,3.4,3.4c0,7.8,0,15.6,0,23.5c0,1.3-0.3,1.7-1.7,1.8
			c-2.3,0.2-3.5-0.7-4.6-2.7c-2.7-5.1-5.7-10.1-8.6-15.2c-0.2-0.4-0.5-0.9-0.8-1.3C1212.6-733.7,1212.5-733.6,1212.4-733.6z"/>
		<path class="st11" d="M1256-723.6c0,1.3-0.1,2.7,0,4c0.1,1.1-0.3,1.8-1.1,2.5c-4.5,3.7-12.1,3.5-16.3-0.7
			c-2.2-2.2-3.2-4.9-3.6-7.9c-0.5-4-0.3-7.9,1.5-11.6c3-6.3,11.7-8.3,17.1-4c0.7,0.6,1,1,0.1,1.6c-0.3,0.2-0.6,0.4-0.8,0.7
			c-0.9,1.1-1.6,1.2-2.9,0.2c-3-2.2-7.6-0.8-9.1,2.9c-1.9,4.6-1.9,9.4,0.1,13.9c1.9,4.3,5.5,4.7,9.6,3.3c0.6-0.2,0.9-0.7,0.8-1.3
			c0-1.8,0-3.6,0-5.4c0-0.8-0.3-1-1-0.9c-0.6,0-1.2,0-1.9,0c-1.8,0-2.4-0.8-1.9-2.6c0.1-0.5,0.4-0.5,0.8-0.5c2.6,0,5.1,0,7.7,0
			c0.7,0,0.9,0.3,0.9,0.9C1256-726.8,1256-725.2,1256-723.6z"/>
		<path class="st11" d="M1184.3-728.9c0-4.3,0-8.6,0-12.9c0-1,0.3-1.3,1.3-1.3c2.8,0.1,5.6-0.1,8.5,0.2c3.9,0.4,7.4,3.3,8.1,6.7
			c0.8,3.8-0.7,7.7-3.8,9.7c-2,1.3-4.3,1.6-6.6,1.6c-2.8,0-2.8,0-2.8,2.8c0,2.1,0,4.2,0,6.3c0,0.8-0.2,1.1-1.1,1.2
			c-3.5,0.1-3.5,0.1-3.5-3.3C1184.3-721.6,1184.3-725.2,1184.3-728.9z"/>
		<path class="st16" d="M1188.9-734c0-1.5,0-3.1,0-4.6c0-0.4-0.1-0.9,0.6-0.9c1.7,0.1,3.4-0.2,5,0.3c2.5,0.8,3.7,3,3.3,6.2
			c-0.3,2.9-1.8,4.5-4.6,4.7c-4.4,0.3-4.4,0.3-4.4-4C1188.9-732.9,1188.9-733.5,1188.9-734z"/>
		<path class="st18" d="M1273.3-790.6"/>
		<path class="st18" d="M1279.2-785.7C1279.2-785.7,1279.2-785.6,1279.2-785.7c-0.4-0.3-0.8-0.6-1.1-0.9c-2.1-2-4.2-4-6.2-5.9l-1-1
			l0,0c-6.1-5.8-12.2-11.6-18.3-17.5c-0.9-0.8-1.5-0.9-2.2,0.1c-0.2,0.3-0.4,0.5-0.6,0.7c-9,9.9-18,19.8-27,29.7
			c-0.8,0.9-1.2,0.9-2,0c-4.4-4.5-8.9-8.9-13.3-13.4c-0.9-1-1.5-0.9-2.5-0.1c-11.4,9.8-22.9,19.6-34.4,29.3
			c-4,3.4-7.9,6.9-11.9,10.3c0.5,0.3,1,0.2,1.5,0.2c39.7,0,79.3,0,119,0c0.2,0,0.4,0,0.6-0.2c0-0.3,0-0.5,0-0.8c0-10,0-20.1,0-30.1
			L1279.2-785.7z"/>
	</g>
	<path class="st19" d="M928.5-752.2c-0.3,0.1-0.7,0.1-1.4,0.1c-38.1,0-76.2,0-114.3,0c-0.7,0-1.1,0-1.4-0.1H810
		c0,13.6,0,27.2,0,40.9c0,0.5,0,0.9,0,1.4c0.1,2.8,0.7,3.7,3.3,4.7c37.7,0,75.3,0,113,0c2.6-0.7,3.5-1.9,3.6-4.6c0-0.5,0-1,0-1.5
		c0-13.6,0-27.2,0-40.8h-1.4V-752.2z"/>
	<g>
		<path class="st11" d="M905.7-723.3c0,1.2-0.1,2.4,0,3.6c0.2,1.5-0.5,2.4-1.6,3.2c-4.2,3-11.3,3.4-15.4-0.8
			c-1.9-1.9-2.9-4.3-3.4-6.9c-0.8-5-0.6-9.8,2.5-14.1c3.4-4.7,11-5.6,15.5-2c0.8,0.6,0.8,1,0,1.5c-0.2,0.1-0.3,0.3-0.4,0.4
			c-1,1.1-1.8,1.5-3.3,0.4c-2.9-2.1-7.1-0.7-8.6,2.7c-2.1,4.9-2.1,9.9,0.4,14.6c2.1,3.8,6,3.5,9.1,2.3c0.5-0.2,0.7-0.5,0.7-1.1
			c0-1.8,0-3.6,0-5.4c0-0.6-0.2-0.9-0.9-0.9c-0.8,0-1.5-0.1-2.3,0c-1.3,0.2-1.7-0.3-1.7-1.7c0-1.1,0.2-1.5,1.4-1.5
			c2.3,0.1,4.5,0.1,6.8,0c0.8,0,1.2,0.2,1.1,1.1C905.7-726.2,905.7-724.7,905.7-723.3z"/>
		<path class="st11" d="M868-718.6c1.8-6.2,3.5-12.2,5.2-18.3c0.2-0.6,0.4-1.2,0.5-1.9c1-3.5,1.6-3.9,5.3-3.4
			c1.2,0.2,0.5,0.9,0.3,1.3c-1.8,5.6-3.6,11.2-5.4,16.7c-0.9,2.9-1.9,5.8-2.8,8.7c-0.3,1-0.8,1.2-1.7,1.2c-1.5-0.1-3.3,0.4-4.4-0.3
			c-1.1-0.7-1.1-2.7-1.5-4.1c-2.3-7.4-4.6-14.7-6.9-22.1c-0.3-1.1-0.4-1.6,1-1.5c3.7,0.1,3.7,0,4.6,3.6c1.7,6.3,3.4,12.6,5.1,18.9
			C867.6-719.4,867.6-719,868-718.6z"/>
		<path class="st11" d="M843.6-714.2c-2.1-0.1-4.1-0.3-5.9-1.3c-0.8-0.5-1-3.1-0.2-3.6c0.4-0.2,0.7,0.1,1,0.2c1.9,0.7,3.9,1.3,6,1.2
			s3.4-1,3.9-2.7c0.6-1.9,0.1-3.4-1.7-4.5c-1.6-1.1-3.4-1.9-5.1-2.9c-2.2-1.3-4.1-2.8-4.5-5.5c-0.7-4.4,1.7-7.8,6-8.8
			c2.5-0.6,5-0.2,7.4,0.5c0.9,0.3,1.3,0.7,0.7,1.6c-0.3,0.4-0.5,0.8-0.6,1.2c-0.3,0.8-0.7,1-1.7,0.7c-2-0.7-4.1-0.8-5.9,0.5
			c-2.1,1.5-2.3,4-0.4,5.8c0.8,0.8,1.8,1.2,2.8,1.7c1.3,0.7,2.6,1.3,3.9,2c2.7,1.7,4,4.2,3.5,7.4c-0.5,3-2.3,5-5.2,6.1
			C846.2-714.4,844.9-714.2,843.6-714.2z"/>
	</g>
</g>
<line class="st0" x1="217.8" y1="113.4" x2="331.5" y2="113.4"/>
<circle class="st20" cx="109" cy="109" r="109"/>
<circle class="st20" cx="424.4" cy="108.8" r="109"/>
<circle class="st20" cx="745" cy="109" r="109"/>
<g>
	<path class="st5" d="M135.2,127.1c8.1,3.4,16.3,6.8,24.3,10.3c2.5,1.1,4.4,3.3,6.1,5.5c5.6,7.3,5.2,9.4-1.6,15.5
		c-15,13.4-32.3,21.6-52.4,22.3c-23.6,0.9-44.2-7.1-61.2-23.8c-1.8-1.8-2.3-3.5-1.6-5.9c1.5-4.7,3.7-9.2,7.9-11.7
		c9.2-5.4,18.9-9.8,29.4-12.3c1.4,0.9,1.5,2.4,2,3.8c3.7,10.4,11,16.4,20.3,16.9c10.6,0.5,18.2-4.3,23.2-14.6
		C132.7,131.1,133,128.6,135.2,127.1z"/>
	<path class="st21" d="M95.2,109.2c-1.3,0.7-2.6,1.4-3.8,2.2c-1.7,1.2-2.4,0.6-3.2-1.2C80.5,92.3,77.3,73.8,83,54.7
		c3.7-12.2,9.9-16.7,22.3-17.5c20.2-1.2,30,6.2,34,26.1c3.2,16.5-0.2,31.8-8.8,46.1c-1.8,2.9-3.3,2.8-5.4,0.9c-2.6-1.4-3-3.9-3-6.5
		c3.4-5.7,5.6-12.4,11-16.8c1-2.2,1.7-4.4,1.9-6.8c0.2-3.2-0.8-5.4-4.4-5.6c-3.8-1-8.1,0.2-11.2-3.6c-5-6-9.3-14.4-9.6-20.3
		c-2.4,12.1-8.1,20.8-20.6,23.8c-5.3,1.3-6.3,8.3-1.6,13.4c4.1,4.3,5.8,9.7,8.7,14.6c0.4,1.7,0.5,3.4,0,5.1
		C96,108.3,95.6,108.8,95.2,109.2z"/>
	<path class="st22" d="M95.2,109.2c0-0.3,0-0.7,0.2-0.9c0.8-1.8,1.9-1.4,3-0.3c1.3,1.3,2.1,3,3.2,4.5c3.7,5.2,8.7,7.7,15.1,7.7
		c3.3,0,6.6-0.9,9.9,0.2c2.9,2.2,5.8,4.5,8.7,6.7c-1.8,7.4-5.1,13.9-11.5,18.3c-15.2,10.3-35.8,0.2-37.5-18.2
		C93.8,123.5,96.4,117.3,95.2,109.2z"/>
	<path class="st23" d="M126.5,120.4c-13.9,3.4-22.1,0.5-27.9-9.7c-0.7-1.1-0.5-3.7-3.2-2.5c0-1.8-0.1-3.7-0.1-5.5
		c2-0.5,3.1,0.9,4.3,1.9c7.7,6,12,6.1,19.9,0.5c1-0.7,1.9-1.8,3.4-1.3c0.7,2.2,1.4,4.4,2.1,6.6C122.5,114.2,126,117.1,126.5,120.4z"
		/>
</g>
<path class="st22" d="M123,103.8c-7.7,8.3-16.2,10.5-27.7-1.1c-2.5-3.5-3.3-8.9-6.1-10.8c-4.3-2.9-4.6-6.6-5.6-10.5
	c-1.1-4.3-0.6-7.7,5.1-8.5c13.4-1.9,17.1-12.5,20.4-24.1c2.2,6,4.5,11.4,7.5,16.5c3.2,5.6,7.9,8.4,14.3,8.4
	c3.5,3.9,2.6,8.9,3.5,13.5C129.6,92.1,127.1,98.5,123,103.8z"/>
<path class="st24" d="M134.3,87.2c-0.9-0.1-2.4-0.4-2.1-1.3c1.7-4.4-1.5-8.1-1.4-12.2c4.1-1,5.6,0.8,5.5,4.7
	C136.3,81.5,136,84.5,134.3,87.2z"/>
<g>
	<path class="st5" d="M473.7,107.5c-1.6-26.4-21.5-45.1-46.5-45.2c-30.5-0.1-53.5,28-45.5,57.5c2.5,9.4,2,17.4-0.7,25.9
		c-0.2,0.7-0.5,1.4-0.6,2.1c-0.9,5.2,2.6,8.6,7.7,7.4c3.8-0.9,7.5-1.8,11.2-3.1c4-1.4,7.5-1.2,11.6,0.4c7.6,3.2,15.6,3.9,23.8,2.4
		C460.3,150.3,475.1,128.8,473.7,107.5z M465.1,120.3c-5,16.8-20.3,28.1-38,28.2c-4.1,0-8.5,0.3-11.9-1.8c-7.1-4.2-14-2.8-21-0.3
		c-1.8,0.7-3.8,1-6.4,1.8c1.4-5.2,2.3-9.8,3.9-14.3c1.1-3.1,0.6-5.5-0.8-8.4c-7.6-16-3.6-34.9,9.5-46.2
		c13.6-11.8,32.8-13.5,47.7-4.1C463.4,84.8,470.3,103,465.1,120.3z"/>
	<path class="st5" d="M426.8,104.2c-4.6,0-9.2-0.1-13.8,0c-2.6,0.1-4.6-0.7-4.5-3.5c0-2.9,2.2-3.3,4.7-3.3c9.2,0.1,18.4,0,27.6,0
		c2.4,0,4.7,0.3,4.8,3.2c0.2,3.4-2.4,3.6-4.9,3.6C436,104.2,431.4,104.2,426.8,104.2z"/>
	<path class="st5" d="M422.4,120.6c-3.3,0-6.6,0-9.9,0c-2.4,0-4-1.1-4.1-3.5c-0.1-2.5,1.7-3.6,3.9-3.6c6.6-0.1,13.2-0.1,19.8,0
		c2.3,0,4.2,1.1,4.2,3.5c0,2.7-2,3.6-4.5,3.6C428.6,120.6,425.5,120.6,422.4,120.6z"/>
</g>
<path class="st5" d="M794.1,81.3c0-8.3-2.7-10.9-10.9-10.9c-12.7,0-25.4,0-38.1,0c-13.1,0-26.1-0.1-39.2,0c-7,0-10,2.7-10,9.5
	c-0.1,19.3-0.1,38.5,0,57.8c0,6.7,3.3,9.8,9.9,9.8c25.8,0.1,51.5,0.1,77.3,0c7.7,0,11-3.3,11-11.2C794.2,118,794.2,99.7,794.1,81.3z
	 M783,140.3c-25.4-0.1-50.8-0.1-76.2,0c-2.8,0-3.8-0.8-3.8-3.8c0.1-12.8,0.1-25.7,0.1-39.5c10,7.9,19.5,15.3,28.7,22.9
	c10.6,8.7,16,8.7,26.6,0c9.2-7.5,18.6-14.8,28.7-22.9c0,13.7-0.1,26.4,0.1,39C787.2,139.2,786,140.3,783,140.3z M786.6,83.7
	c-1.7,4.8-5,8.6-8.9,11.7c-8.4,6.8-16.9,13.6-25.4,20.3c-5.7,4.6-9,4.7-14.8,0.2c-9.1-7.1-18.1-14.4-27.1-21.7
	c-3.7-3-5.7-7-6.7-11.7c-0.7-3.6,0.3-4.5,3.8-4.5c12.5,0.1,25.1,0.1,37.6,0.1s25.1,0.2,37.6-0.1C787.5,77.9,787.9,80.2,786.6,83.7z"
	/>
<g>
	<g>
		<path class="st5" d="M-632.3,1447.3l-1.2,1.4c-1.4,1.6-2.9,2.9-4.5,4.1l0,0c-17.9,13-44,27.2-60.1,40.3c-0.3,0.3-0.8,0.1-0.9-0.3
			c-10-43.6-19.8-86.7-29.6-129.6c0-0.1,0-0.1,0-0.1c-1.7-7.6-4.7-20.4-6.9-29.9c0.6,0.5,1.2,1,1.7,1.5l0.1,0.1l0.6,0.6l0.1,0.2
			c0.9,1.2,1.8,2.3,2.7,3.5c0.1,0.1,0.2,0.3,0.3,0.4c21.6,27.4,48.3,53.8,73.5,80.9C-648.2,1429.1-640.1,1438.2-632.3,1447.3z"/>
		<path class="st5" d="M-717.6,1433.7c-33.3-39.4-103.2-56.2-133.5-93.3c22.4,3.8,65.9-9.5,94.2-13l0,0c1.2-0.2,2.3-0.3,3.4-0.4
			c0.3,0,0.6,0,0.9,0c0.3,0,0.5,0,0.8,0c1.8,0.1,3.6,0.3,5.3,0.7c1.7,0.4,3.2,1,4.7,1.7c1,0.5,1.7,1.3,1.9,2.4
			c2.7,11.6,5.5,23.3,8.2,35c5.2,22.2,10.4,44.6,15.5,66.4C-716.3,1433.8-717.2,1434.2-717.6,1433.7z"/>
		<path d="M-704,1494"/>
		<path class="st5" d="M-620.7,1335.6c-0.8,6.9-1.5,13.7-2,20.4c-2.2,27-2.9,53-6,81.5l0,0c-0.2,1.4-0.5,2.8-0.9,4.2l-0.7,2.3
			c-7.4-8.8-15.2-17.1-23-25.3c-9.5-10-19.1-20-28.5-31.1c34-27.1,35.2-32.2,52.6-48.1l0,0c0.8-0.7,1.5-1.4,2.3-2.1
			C-625,1336.1-622.9,1335.5-620.7,1335.6L-620.7,1335.6z"/>
		<path class="st5" d="M-570.8,1379.9c-17.2,0.7-33,1.3-50.1,2c0.7-8.7,1.3-17.2,1.9-25.9c0.5-6.6,0.9-13.3,1.5-20.2
			c1.4,0.4,2.7,1,3.8,1.8c0.6,0.6,1.3,1.2,1.9,1.8C-598,1353.2-584.6,1366.4-570.8,1379.9z"/>
		<path class="st5" d="M-713.1,1448.5c-1.6-7.7-6.5-12.3-12.3-17.5c-0.3-0.3-0.7-0.2-0.9,0.2c-15.9,41.3-31.5,82-47.5,123.6
			c-0.2,0.4,0.3,0.9,0.7,0.7c0.6-0.2,0.8-0.3,1-0.4c10.8-8.9,21.6-17.8,32.3-26.8c0.4-0.3,0.9,0,0.9,0.4c0.3,7.6,0.6,15.2,0.9,22.8
			c0,0.5,0.7,0.7,1,0.3v-0.1c5.8-11.2,11.5-22.4,17.2-33.5c0.2-0.4,0.7-0.4,1,0c5.4,9.4,10.8,18.8,16.2,28.3c0.3,0.5,0.9,0.3,1-0.2
			v-0.1c-0.1-17.3-0.2-34.1-0.5-51.4"/>
	</g>
	<circle class="st25" cx="-714" cy="1423.3" r="313"/>
	<circle class="st26" cx="-714" cy="1423.3" r="507.5"/>
	<circle class="st27" cx="-911.2" cy="1188.2" r="80.9"/>
	<circle class="st27" cx="-539.8" cy="1168.8" r="80.9"/>
	<circle class="st27" cx="-681.6" cy="1730.7" r="80.9"/>
	<circle class="st27" cx="-894.9" cy="1898.9" r="80.9"/>
	<circle class="st27" cx="-1203.4" cy="1556.5" r="80.9"/>
	<circle class="st27" cx="-785.8" cy="923.7" r="80.9"/>
	<circle class="st27" cx="-230.4" cy="1299.6" r="80.9"/>
	<circle class="st27" cx="-327.7" cy="1752.2" r="80.9"/>
	<g>
		<rect x="-543" y="1146.8" class="st28" width="9.1" height="40.3"/>
		<rect x="-554.4" y="1126" class="st5" width="31.4" height="22"/>
		<rect x="-549.7" y="1183.7" class="st29" width="22" height="22"/>
		<rect x="-572.1" y="1165.7" class="st28" width="8.5" height="27.9"/>
		<rect x="-513.8" y="1165.7" class="st28" width="9.2" height="27"/>
		<rect x="-578.8" y="1183.7" class="st29" width="22" height="22"/>
		<rect x="-520.9" y="1183.7" class="st29" width="22" height="22"/>
		<rect x="-572.1" y="1161.2" class="st28" width="67.6" height="9.1"/>
	</g>
	<g>
		<circle class="st30" cx="-345.5" cy="1752.2" r="30.9"/>
		<circle class="st30" cx="-307.8" cy="1752.2" r="30.9"/>
	</g>
	<polygon class="st5" points="-274.6,1330 -182.1,1330 -200.7,1300.2 -255.4,1300.2 	"/>
	<polygon class="st29" points="-241.2,1276.4 -215.9,1276.4 -200.7,1300.2 -255.4,1300.2 	"/>
	<polygon class="st28" points="-215.9,1276.4 -241.2,1276.4 -228,1256.9 	"/>
	<g>
		<rect x="-740.1" y="1728.9" class="st29" width="98.9" height="4.3"/>
		<path class="st29" d="M-642.4,1713.3v36.8c0,0,19.4-1.3,19.4-17s-13.6-19.8-18.1-19.8"/>
		<polygon class="st29" points="-685.4,1713.3 -659.7,1713.3 -659.7,1748.2 -685.4,1748.2 -685.4,1740.3 -665.2,1740.3 
			-665.2,1721.4 -685.4,1721.4 		"/>
		<polygon class="st29" points="-730.1,1713.3 -704.4,1713.3 -704.4,1748.2 -730.1,1748.2 -730.1,1740.3 -709.9,1740.3 
			-709.9,1721.4 -730.1,1721.4 		"/>
	</g>
	<rect x="-913.5" y="1161.9" class="st28" width="7.7" height="13.9"/>
	
		<rect x="-931.6" y="1165.7" transform="matrix(0.5797 -0.8148 0.8148 0.5797 -1348.0092 -261.7619)" class="st28" width="7.7" height="20.2"/>
	
		<rect x="-903.9" y="1191.2" transform="matrix(0.7815 -0.6239 0.6239 0.7815 -946.1274 -299.0516)" class="st28" width="7.7" height="20.2"/>
	<rect x="-904.3" y="1179.5" class="st28" width="20.2" height="7.7"/>
	
		<rect x="-933.5" y="1198.9" transform="matrix(0.6132 -0.79 0.79 0.6132 -1306.7667 -263.1387)" class="st28" width="22.8" height="7.7"/>
	<circle class="st5" cx="-909.7" cy="1187.3" r="13.4"/>
	<circle class="st29" cx="-909.7" cy="1156.2" r="8.9"/>
	<circle class="st29" cx="-941.1" cy="1166.4" r="8.9"/>
	<circle class="st29" cx="-933.8" cy="1217.2" r="8.9"/>
	<circle class="st29" cx="-889.6" cy="1214.3" r="8.9"/>
	<circle class="st29" cx="-881.2" cy="1182.8" r="8.9"/>
	<g>
		<circle class="st29" cx="-868.7" cy="1925.1" r="13.1"/>
		<circle class="st5" cx="-921.1" cy="1873.5" r="13.1"/>
		<rect x="-931.8" y="1913.4" class="st29" width="21.9" height="21.9"/>
		<path class="st29" d="M-870.6,1887.2l-11.3-11.3c-1.2-1.2-1.2-3,0-4.2l11.3-11.3c1.2-1.2,3-1.2,4.2,0l11.3,11.3
			c1.2,1.2,1.2,3,0,4.2l-11.3,11.3C-867.6,1888.4-869.4,1888.4-870.6,1887.2z"/>
		<polygon class="st28" points="-923.1,1900.9 -927.9,1900.9 -920.5,1893.5 -913.8,1900.9 -918.8,1900.9 -918.8,1909.5 -923,1909.5 
					"/>
		<polygon class="st28" points="-866.5,1900.7 -861.7,1900.7 -869.1,1908.1 -875.7,1900.7 -870.8,1900.7 -870.8,1892.1 
			-866.6,1892.1 		"/>
		<polygon class="st28" points="-894.8,1872.1 -894.8,1867.3 -887.4,1874.7 -894.8,1881.4 -894.8,1876.4 -903.4,1876.4 
			-903.4,1872.2 		"/>
	</g>
	<g>
		<path class="st5" d="M-1236,1558.2l-5.9,4.8c0,0-5-15.9,5.9-23.9c7.8-5.7,14.4-5.2,14.4-5.2l36.5-0.3V1519l21.3,18.3l-21.8,18.5
			l0.3-14.9h-37.7C-1222.9,1541-1236.2,1542.1-1236,1558.2z"/>
		<path class="st5" d="M-1170.9,1552.8l5.9-4.8c0,0,5,15.9-5.9,23.9c-7.8,5.7-14.4,5.2-14.4,5.2l-36.5,0.3v14.4l-21.3-18.3
			l21.8-18.5l-0.3,14.9h37.7C-1184,1570-1170.7,1568.9-1170.9,1552.8z"/>
	</g>
	<g>
		<circle class="st31" cx="-785.8" cy="923.7" r="47.8"/>
		<circle class="st32" cx="-785.8" cy="923.7" r="26.3"/>
	</g>
</g>
</svg>
