<?xml version="1.0" encoding="utf-8"?>
<!-- Generator: Adobe Illustrator 23.1.0, SVG Export Plug-In . SVG Version: 6.00 Build 0)  -->
<svg version="1.1" id="Layer_1" xmlns="http://www.w3.org/2000/svg" xmlns:xlink="http://www.w3.org/1999/xlink" x="0px" y="0px"
	 viewBox="0 0 628.3 340.4" style="enable-background:new 0 0 628.3 340.4;" xml:space="preserve">
<style type="text/css">
	.st0{fill:#111111;}
	.st1{fill:#48E0C2;}
	.st2{fill:#6547EB;}
	.st3{fill:#AB4AC3;}
	.st4{fill:#C1BFC1;}
	.st5{fill:#FFFFFF;}
	.st6{fill:#FFFFFF;stroke:#581466;stroke-width:2;stroke-miterlimit:10;}
	.st7{display:none;}
	.st8{display:inline;}
	.st9{fill:#E8E8DF;}
	.st10{fill:#9676A7;}
	.st11{fill:#D8D6C9;}
	.st12{fill:#FEFEFE;}
	.st13{fill:#9677A7;}
	.st14{fill:#9777A8;}
	.st15{fill:#9777A7;}
	.st16{fill:#C7BCB7;}
	.st17{fill:#659B35;}
	.st18{fill:#F2D45B;}
	.st19{fill:#87BF57;}
	.st20{fill:#E47E25;}
	.st21{display:inline;fill:none;stroke:#4D4D4D;stroke-width:3;stroke-miterlimit:10;stroke-dasharray:14;}
	.st22{display:inline;fill:#EFEFEA;}
	.st23{fill:#CB3533;}
	.st24{fill:#FCC79A;}
	.st25{fill:#F9AE78;}
	.st26{display:inline;fill:#FCC79A;}
	.st27{display:inline;fill:#F8BA91;}
	.st28{display:inline;fill:#6547EB;}
	.st29{fill:none;stroke:#D6D6D4;stroke-width:5;stroke-miterlimit:10;stroke-dasharray:40;}
	.st30{fill:none;stroke:#D6D6D4;stroke-width:5;stroke-miterlimit:10;stroke-dasharray:36;}
	.st31{fill:#F4F4ED;}
	.st32{fill:#A0A4A5;}
	.st33{fill:#00BCD4;}
	.st34{fill:none;stroke:#6547EB;stroke-width:7;stroke-miterlimit:10;}
	.st35{fill:none;stroke:#6547EB;stroke-width:8.0003;stroke-miterlimit:10.0004;}
	.st36{fill:none;stroke:#6547EB;stroke-width:6.0002;stroke-miterlimit:10.0004;}
</style>
<rect x="70.1" y="3.8" class="st0" width="491" height="306"/>
<path class="st1" d="M564.5,304.9c10.9,0,20.9,0,30.8,0c9.5,0,19,0.1,28.5,0c3.2,0,4.5,1.1,4.4,4.3c-0.1,8.3-0.1,16.7,0,25
	c0,4.2-2.1,6.1-6.1,6.1c-1.5,0-3,0-4.5,0c-202.3,0-404.6,0-606.9,0c-1.8,0-3.7,0.1-5.5-0.1c-3.3-0.3-5.2-2-5.2-5.5
	c0-8.7,0.1-17.3-0.1-26c-0.1-4.1,2.5-3.9,5.3-3.9c17.8,0,35.7,0,53.5,0c6.5,0,6.6,0,6.6-6.5c0-95.5,0-191,0-286.5
	C65.4,1.6,67,0,77.1,0C235.8,0,394.4,0,553,0c10,0,11.5,1.5,11.5,11.7c0,95,0,190,0,285C564.5,299.1,564.5,301.6,564.5,304.9z
	 M314.6,304.9c79.1,0,158.3,0,237.4,0c6.7,0,6.7,0,6.7-6.9c0-95,0-190,0-285c0-7.1,0-7.1-7.2-7.1c-157.6,0-315.3,0-472.9,0
	c-7.4,0-7.4,0-7.4,7.4c0,94.8,0,189.6,0,284.5c0,7.1,0,7.1,7.4,7.1C157.3,304.9,235.9,304.9,314.6,304.9z"/>
<path class="st2" d="M404.1,256.8h-180c-14.4,0-26-11.6-26-26l0,0c0-14.4,11.6-26,26-26h180c14.4,0,26,11.6,26,26l0,0
	C430.1,245.1,418.5,256.8,404.1,256.8z"/>
<g>
	<path class="st3" d="M158.4,72.3v4.9v11.6c0,0.8-0.4,1.2-1.2,1.2H153c-0.8,0-1.2-0.4-1.2-1.2v-3.3c-2.5,3.4-6.4,5.2-11.3,5.2
		c-10,0-17.6-8-17.6-18.3s7.7-18.3,18.3-18.3c7.8,0,14.5,4.8,16.7,11.2c0.3,0.8-0.1,1.3-1,1.3H152c-0.7,0-1.1-0.3-1.4-0.9
		c-1.6-2.8-5.2-4.9-9.4-4.9c-6.9,0-11.4,4.8-11.4,11.6c0,7.2,4.8,11.9,11.4,11.9c4.6,0,9.1-2.1,10.2-7.1h-8.6
		c-0.8,0-1.2-0.4-1.2-1.2v-3.7c0-0.8,0.4-1.2,1.2-1.2h14.4C158,71.1,158.4,71.6,158.4,72.3z"/>
	<path class="st3" d="M188.5,77.5c0,0.5,0,1-0.1,1.5c-0.1,0.8-0.6,1.1-1.3,1.1h-5.2h-12.6c0.9,3.6,3.6,5.2,6.8,5.2
		c1.9,0,3.6-0.8,4.6-1.8c0.5-0.4,0.8-0.7,1.5-0.7h4c0.9,0,1.3,0.6,1,1.3c-1.9,4.2-6,6.6-11.2,6.6c-8.2,0-13.5-5.7-13.5-13.3
		c0-7.5,5.4-13.3,13.4-13.3C183.4,64.2,188.5,70.1,188.5,77.5z M182,75c-0.8-3.6-3.4-5-6.1-5c-3.4,0-5.8,1.9-6.6,5H182z"/>
	<path class="st3" d="M205.7,66.1V70c0,0.8-0.4,1.2-1.2,1.2h-3.1v17.7c0,0.8-0.4,1.2-1.2,1.2h-4.1c-0.8,0-1.2-0.4-1.2-1.2V71.1h-3.1
		c-0.8,0-1.2-0.4-1.2-1.2V66c0-0.8,0.4-1.2,1.2-1.2h3.1V58c0-0.8,0.4-1.2,1.2-1.2h4.1c0.8,0,1.2,0.4,1.2,1.2v6.9h3.1
		C205.3,64.9,205.7,65.3,205.7,66.1z"/>
	<path class="st3" d="M220.4,80.4c-0.1-0.8,0.4-1.2,1.2-1.2h4.5c0.7,0,1.1,0.4,1.2,1.2c0.4,2.4,2.4,3.6,5.9,3.6s5.2-1.5,5.2-3.6
		c0-2.5-2.8-3.6-6.2-4.8c-5.1-1.8-11.3-3.8-11.3-11.3c0-6.8,5.6-10.2,11.5-10.2c5.8,0,11.3,3.2,11.9,10.1c0.1,0.8-0.4,1.2-1.2,1.2
		h-4.5c-0.7,0-1.1-0.4-1.2-1.1c-0.4-2.3-2.2-3.5-4.9-3.5c-2.9,0-4.5,1.5-4.5,3.5c0,2.6,2.4,3.7,5.7,4.9c5.1,1.8,11.8,3.7,11.8,11.1
		c0,6.8-5.6,10.3-12.1,10.3C226.7,90.7,221,87.5,220.4,80.4z"/>
	<path class="st3" d="M262.4,66.1V70c0,0.8-0.4,1.2-1.2,1.2h-3.1v17.7c0,0.8-0.4,1.2-1.2,1.2h-4.1c-0.8,0-1.2-0.4-1.2-1.2V71.1h-3.1
		c-0.8,0-1.2-0.4-1.2-1.2V66c0-0.8,0.4-1.2,1.2-1.2h3.1V58c0-0.8,0.4-1.2,1.2-1.2h4.1c0.8,0,1.2,0.4,1.2,1.2v6.9h3.1
		C262,64.9,262.4,65.3,262.4,66.1z"/>
	<path class="st3" d="M275.9,64.2c5.6,0,10.3,3.3,10.3,9.9v14.8c0,0.8-0.4,1.2-1.2,1.2h-4c-0.8,0-1.2-0.4-1.2-1.2v-1
		c-1.4,1.8-3.6,2.9-6.8,2.9c-4.5,0-8.5-2.6-8.5-7.9s4-7.9,8.5-7.9c3.2,0,5.4,1,6.8,2.2v-2.7c0-3-1.5-4.2-3.9-4.2
		c-1.9,0-3.3,0.8-3.7,2.2c-0.3,0.7-0.5,1.1-1.2,1.1h-4c-0.8,0-1.2-0.4-1.2-1.2C266.3,67,270.8,64.2,275.9,64.2L275.9,64.2z
		 M279.8,82.8c0-1.9-1.8-3.1-4.6-3.1S271,81,271,82.8s1.3,3.1,4.2,3.1S279.8,84.6,279.8,82.8z"/>
	<path class="st3" d="M304.9,65.6v4.8c0,0.8-0.3,1.2-0.9,1.2c-3.1,0-6,1.6-6,6.1v11.2c0,0.8-0.4,1.2-1.2,1.2h-4.1
		c-0.8,0-1.2-0.4-1.2-1.2V66.1c0-0.8,0.4-1.2,1.2-1.2h4.1c0.8,0,1.2,0.4,1.2,1.2v2.6c1.1-2.6,3.2-3.9,5.7-4.2
		C304.4,64.4,304.9,64.9,304.9,65.6z"/>
	<path class="st3" d="M322.3,66.1V70c0,0.8-0.4,1.2-1.2,1.2H318v17.7c0,0.8-0.4,1.2-1.2,1.2h-4.1c-0.8,0-1.2-0.4-1.2-1.2V71.1h-3.1
		c-0.8,0-1.2-0.4-1.2-1.2V66c0-0.8,0.4-1.2,1.2-1.2h3.1V58c0-0.8,0.4-1.2,1.2-1.2h4.1c0.8,0,1.2,0.4,1.2,1.2v6.9h3.1
		C321.8,64.9,322.3,65.3,322.3,66.1z"/>
	<path class="st3" d="M350,77.5c0,0.5,0,1-0.1,1.5c-0.1,0.8-0.6,1.1-1.3,1.1h-5.2h-12.6c0.9,3.6,3.6,5.2,6.8,5.2
		c1.9,0,3.6-0.8,4.6-1.8c0.5-0.4,0.8-0.7,1.5-0.7h4c0.9,0,1.3,0.6,1,1.3c-1.9,4.2-6,6.6-11.2,6.6c-8.2,0-13.5-5.7-13.5-13.3
		c0-7.5,5.4-13.3,13.4-13.3C344.9,64.2,350,70.1,350,77.5z M343.5,75c-0.8-3.6-3.4-5-6.1-5c-3.4,0-5.8,1.9-6.6,5H343.5z"/>
	<path class="st3" d="M380,56v32.9c0,0.8-0.4,1.2-1.2,1.2h-4.1c-0.8,0-1.2-0.4-1.2-1.2v-1.8c-1.8,2.3-4.5,3.7-8.2,3.7
		c-6.7,0-12.3-5.8-12.3-13.3s5.6-13.3,12.3-13.3c3.7,0,6.4,1.4,8.2,3.7V56c0-0.8,0.4-1.2,1.2-1.2h4.1C379.6,54.8,380,55.2,380,56z
		 M373.5,77.5c0-4.2-3-7.1-7-7.1s-7,2.9-7,7.1s3,7.1,7,7.1S373.5,81.7,373.5,77.5z"/>
	<path class="st3" d="M419.1,54.8h4.5c0.8,0,1.2,0.4,1.2,1.2v32.9c0,0.8-0.4,1.2-1.2,1.2h-3.1c-0.6,0-1.1-0.2-1.5-0.8l-13.2-21v20.6
		c0,0.8-0.4,1.2-1.2,1.2h-4.5c-0.8,0-1.2-0.4-1.2-1.2V56c0-0.8,0.4-1.2,1.2-1.2h3.1c0.6,0,1.1,0.2,1.5,0.8l13.2,21V56
		C417.9,55.2,418.3,54.8,419.1,54.8z"/>
	<path class="st3" d="M429.7,77.5c0-7.5,5.9-13.3,13.3-13.3s13.3,5.8,13.3,13.3s-5.9,13.3-13.3,13.3C435.7,90.7,429.7,85,429.7,77.5
		z M449.9,77.5c0-4.1-3-7-6.8-7s-6.8,2.9-6.8,7s3,7,6.8,7S449.9,81.6,449.9,77.5z"/>
	<path class="st3" d="M492.5,66.2L485,89.1c-0.2,0.7-0.7,1-1.4,1h-3.4h-0.7c-0.7,0-1.2-0.3-1.4-1l-3-9.1l-3,9.1
		c-0.2,0.7-0.7,1-1.4,1h-2.6h-1.5c-0.7,0-1.2-0.3-1.4-1l-7.5-22.8c-0.3-0.8,0.1-1.3,1-1.3h4.4c0.7,0,1.1,0.3,1.3,1l4.6,16.3
		l3.3-10.3l-1.8-5.6c-0.3-0.8,0.1-1.3,1-1.3h3.3c0.7,0,1.1,0.3,1.3,1l4.9,15.6l4.4-15.6c0.2-0.7,0.6-1,1.3-1h4.4
		C492.3,64.9,492.7,65.4,492.5,66.2z"/>
	<path class="st3" d="M497.4,77.2l-1.2-12.3V56c0-0.8,0.4-1.2,1.2-1.2h5.4c0.8,0,1.2,0.4,1.2,1.2v8.9l-1.2,12.3
		c-0.1,0.7-0.5,1-1.2,1h-3C498,78.2,497.5,77.9,497.4,77.2z M496.6,88.9v-4.8c0-0.8,0.4-1.2,1.2-1.2h4.8c0.8,0,1.2,0.4,1.2,1.2v4.8
		c0,0.8-0.4,1.2-1.2,1.2h-4.8C497,90.1,496.6,89.6,496.6,88.9z"/>
</g>
<g>
	<path class="st4" d="M158.6,143v-26.7h3.8l8.6,13.6c2,3.2,3.6,6,4.8,8.7h0.1c-0.3-3.6-0.4-6.8-0.4-11v-11.2h3.3v26.7h-3.5
		l-8.5-13.6c-1.8-3-3.7-6.1-5-8.9h-0.1c0.2,3.4,0.3,6.5,0.3,11.1v11.4L158.6,143L158.6,143z"/>
	<path class="st4" d="M202,133.2c0,7.1-4.9,10.2-9.5,10.2c-5.2,0-9.2-3.8-9.2-9.9c0-6.4,4.2-10.2,9.5-10.2
		C198.2,123.4,202,127.3,202,133.2z M186.8,133.4c0,4.2,2.4,7.4,5.9,7.4c3.4,0,5.9-3.2,5.9-7.5c0-3.3-1.6-7.4-5.8-7.4
		C188.5,126,186.8,129.7,186.8,133.4z"/>
	<path class="st4" d="M214.3,139.4c1.1,0.7,2.9,1.3,4.6,1.3c2.5,0,3.8-1.3,3.8-2.9s-1-2.6-3.6-3.6c-3.5-1.3-5.1-3.2-5.1-5.4
		c0-3.1,2.5-5.7,6.6-5.7c1.9,0,3.7,0.6,4.7,1.2l-0.9,2.5c-0.8-0.5-2.1-1.2-3.9-1.2c-2,0-3.2,1.2-3.2,2.6c0,1.5,1.2,2.3,3.7,3.3
		c3.4,1.3,5,3,5,5.8c0,3.4-2.6,5.8-7.2,5.8c-2.1,0-4-0.5-5.4-1.3L214.3,139.4z"/>
	<path class="st4" d="M234.4,118.4c0,1.2-0.9,2.1-2.2,2.1c-1.3,0-2.1-1-2.1-2.1c0-1.3,0.9-2.2,2.2-2.2
		C233.5,116.2,234.4,117.1,234.4,118.4z M230.4,143v-19.2h3.5V143H230.4z"/>
	<path class="st4" d="M256.3,123.8c-0.1,1.3-0.2,3-0.2,5.3v11.2c0,4.4-0.9,7.1-2.7,8.8c-1.8,1.7-4.5,2.3-7,2.3
		c-2.3,0-4.8-0.6-6.3-1.5l0.9-2.7c1.3,0.8,3.3,1.5,5.7,1.5c3.6,0,6.2-1.8,6.2-6.7v-2.1h-0.1c-1.1,1.8-3.2,3.2-6.1,3.2
		c-4.7,0-8.2-4-8.2-9.3c0-6.5,4.2-10.2,8.7-10.2c3.4,0,5.2,1.7,6,3.4h0.1l0.2-2.9L256.3,123.8L256.3,123.8z M252.7,131.4
		c0-0.6,0-1.2-0.2-1.5c-0.7-2-2.3-3.7-4.9-3.7c-3.4,0-5.7,2.8-5.7,7.2c0,3.8,1.9,6.9,5.7,6.9c2.1,0,4-1.3,4.8-3.6
		c0.2-0.6,0.3-1.3,0.3-1.8V131.4z"/>
	<path class="st4" d="M261.7,129c0-2,0-3.7-0.2-5.2h3.1l0.2,3.2h0.1c1-1.8,3.2-3.7,6.3-3.7c2.7,0,6.8,1.5,6.8,8.2v11.4h-3.5v-11.1
		c0-3.1-1.2-5.7-4.4-5.7c-2.3,0-4,1.6-4.7,3.6c-0.2,0.5-0.2,1.1-0.2,1.6v11.5h-3.5L261.7,129L261.7,129z"/>
	<path class="st4" d="M308.1,137.7c0,2,0,3.8,0.2,5.2h-3.1l-0.2-3.2H305c-0.9,1.5-3,3.6-6.3,3.6c-3,0-6.6-1.6-6.6-8.4v-11.3h3.5
		v10.6c0,3.7,1.2,6.1,4.3,6.1c2.3,0,3.9-1.6,4.6-3.2c0.2-0.5,0.3-1.2,0.3-1.8v-11.7h3.5L308.1,137.7L308.1,137.7z"/>
	<path class="st4" d="M313.9,130c0-2.5-0.1-4.4-0.2-6.3h3.2l0.2,3.3h0.1c1.4-2.3,3.7-3.8,6.8-3.8c4.6,0,8.2,3.9,8.2,9.7
		c0,6.9-4.2,10.3-8.8,10.3c-2.5,0-4.7-1.2-5.9-3h-0.1v10.4H314L313.9,130L313.9,130z M317.4,135.1c0,0.5,0.1,1,0.2,1.4
		c0.7,2.4,2.7,4,5.2,4c3.7,0,5.9-3,5.9-7.4c0-3.8-2-7.1-5.7-7.1c-2.4,0-4.6,1.7-5.3,4.3c-0.1,0.5-0.2,1-0.2,1.4L317.4,135.1
		L317.4,135.1z"/>
	<path class="st4" d="M344.9,129.7c0-2.3,0-4.2-0.2-6h3.1l0.1,3.8h0.2c0.9-2.6,3-4.2,5.3-4.2c0.4,0,0.7,0,1,0.1v3.3
		c-0.4-0.1-0.7-0.1-1.2-0.1c-2.5,0-4.2,1.8-4.7,4.5c-0.1,0.5-0.2,1.1-0.2,1.6v10.2h-3.5L344.9,129.7L344.9,129.7z"/>
	<path class="st4" d="M359.4,134.1c0.1,4.7,3.1,6.6,6.5,6.6c2.5,0,4-0.5,5.3-1l0.6,2.5c-1.3,0.6-3.4,1.2-6.3,1.2
		c-5.9,0-9.4-3.8-9.4-9.7c0-5.9,3.4-10.4,9-10.4c6.3,0,7.9,5.5,7.9,9c0,0.7-0.1,1.3-0.1,1.6L359.4,134.1L359.4,134.1z M369.6,131.6
		c0-2.2-0.9-5.7-4.8-5.7c-3.6,0-5.1,3.3-5.4,5.7H369.6z"/>
	<path class="st4" d="M390.4,140L390.4,140c-1.2,1.9-3.3,3.4-6.3,3.4c-4.5,0-8.2-3.8-8.2-9.7c0-7.2,4.6-10.4,8.7-10.4
		c3,0,5,1.4,5.9,3.4h0.1l0.1-2.9h3.3c-0.1,1.6-0.1,3.3-0.1,5.3v21.7h-3.5L390.4,140L390.4,140z M390.4,131.6c0-0.5,0-1.1-0.2-1.4
		c-0.5-2.1-2.4-3.9-5-3.9c-3.7,0-5.8,3.1-5.8,7.4c0,3.8,1.8,7.1,5.7,7.1c2.3,0,4.2-1.3,5-3.8c0.2-0.5,0.3-1.2,0.3-1.6L390.4,131.6
		L390.4,131.6z"/>
	<path class="st4" d="M415.7,137.7c0,2,0,3.8,0.2,5.2h-3.1l-0.2-3.2h-0.1c-0.9,1.5-3,3.6-6.3,3.6c-3,0-6.6-1.6-6.6-8.4v-11.3h3.5
		v10.6c0,3.7,1.2,6.1,4.3,6.1c2.3,0,3.9-1.6,4.6-3.2c0.2-0.5,0.3-1.2,0.3-1.8v-11.7h3.5L415.7,137.7L415.7,137.7z"/>
	<path class="st4" d="M425.4,118.4c0,1.2-0.9,2.1-2.2,2.1c-1.3,0-2.1-1-2.1-2.1c0-1.3,0.9-2.2,2.2-2.2
		C424.5,116.2,425.4,117.1,425.4,118.4z M421.4,143v-19.2h3.5V143H421.4z"/>
	<path class="st4" d="M430.8,129.7c0-2.3,0-4.2-0.2-6h3.1l0.1,3.8h0.2c0.9-2.6,3-4.2,5.3-4.2c0.4,0,0.7,0,1,0.1v3.3
		c-0.4-0.1-0.7-0.1-1.2-0.1c-2.5,0-4.2,1.8-4.7,4.5c-0.1,0.5-0.2,1.1-0.2,1.6v10.2h-3.5L430.8,129.7L430.8,129.7z"/>
	<path class="st4" d="M445.3,134.1c0.1,4.7,3.1,6.6,6.5,6.6c2.5,0,4-0.5,5.3-1l0.6,2.5c-1.3,0.6-3.4,1.2-6.3,1.2
		c-5.9,0-9.4-3.8-9.4-9.7c0-5.9,3.4-10.4,9-10.4c6.3,0,7.9,5.5,7.9,9c0,0.7-0.1,1.3-0.1,1.6L445.3,134.1L445.3,134.1z M455.5,131.6
		c0-2.2-0.9-5.7-4.8-5.7c-3.6,0-5.1,3.3-5.4,5.7H455.5z"/>
	<path class="st4" d="M479.7,114.8V138c0,1.7,0,3.7,0.2,5h-3.2l-0.2-3.4h-0.1c-1.1,2.1-3.4,3.8-6.5,3.8c-4.6,0-8.2-3.9-8.2-9.7
		c0-6.3,3.9-10.3,8.6-10.3c3,0,4.9,1.3,5.8,3h0.1v-11.4L479.7,114.8L479.7,114.8z M476.2,131.6c0-0.5,0-1.1-0.2-1.4
		c-0.5-2.2-2.4-4-5-4c-3.7,0-5.8,3.2-5.8,7.4c0,3.8,1.9,7.1,5.7,7.1c2.3,0,4.5-1.5,5.1-4.1c0.1-0.5,0.2-1,0.2-1.5L476.2,131.6
		L476.2,131.6z"/>
</g>
<g>
	<path class="st5" d="M266.1,218.2h2.9V238h9.5v2.4h-12.4V218.2z"/>
	<path class="st5" d="M290.4,240.5l-0.2-2h-0.1c-0.9,1.3-2.6,2.4-4.9,2.4c-3.2,0-4.9-2.3-4.9-4.6c0-3.9,3.4-6,9.6-5.9V230
		c0-1.3-0.4-3.7-3.6-3.7c-1.5,0-3,0.5-4.2,1.2l-0.7-1.9c1.3-0.9,3.2-1.4,5.2-1.4c4.9,0,6.1,3.3,6.1,6.5v6c0,1.4,0.1,2.7,0.3,3.8
		L290.4,240.5L290.4,240.5z M290,232.3c-3.2-0.1-6.8,0.5-6.8,3.6c0,1.9,1.3,2.8,2.7,2.8c2.1,0,3.4-1.3,3.9-2.7
		c0.1-0.3,0.2-0.6,0.2-0.9L290,232.3L290,232.3z"/>
	<path class="st5" d="M310.9,236.1c0,1.6,0,3.1,0.1,4.4h-2.6l-0.2-2.6h-0.1c-0.8,1.3-2.4,3-5.3,3c-2.5,0-5.5-1.4-5.5-7v-9.3h2.9v8.8
		c0,3,0.9,5.1,3.6,5.1c1.9,0,3.3-1.4,3.8-2.6c0.2-0.4,0.3-1,0.3-1.5v-9.8h2.9v11.5L310.9,236.1L310.9,236.1z"/>
	<path class="st5" d="M315.7,228.8c0-1.6,0-3-0.1-4.3h2.6l0.2,2.6h0.1c0.8-1.5,2.6-3,5.3-3c2.2,0,5.6,1.3,5.6,6.8v9.5h-2.9v-9.2
		c0-2.6-1-4.7-3.7-4.7c-1.9,0-3.4,1.4-3.9,3c-0.1,0.4-0.2,0.9-0.2,1.4v9.6h-2.9v-11.7L315.7,228.8L315.7,228.8z"/>
	<path class="st5" d="M345.4,239.9c-0.8,0.4-2.4,0.9-4.6,0.9c-4.8,0-8-3.3-8-8.2s3.4-8.5,8.6-8.5c1.7,0,3.2,0.4,4,0.8l-0.7,2.2
		c-0.7-0.4-1.8-0.8-3.4-0.8c-3.7,0-5.6,2.7-5.6,6c0,3.7,2.4,6,5.5,6c1.7,0,2.7-0.4,3.6-0.8L345.4,239.9z"/>
	<path class="st5" d="M348.8,217h2.9v10h0.1c0.5-0.8,1.2-1.6,2.1-2c0.9-0.5,1.9-0.8,3-0.8c2.1,0,5.6,1.3,5.6,6.8v9.5h-2.9v-9.2
		c0-2.6-1-4.8-3.7-4.8c-1.9,0-3.4,1.3-3.9,2.9c-0.2,0.4-0.2,0.8-0.2,1.4v9.6h-2.9V217H348.8z"/>
</g>
<polygon class="st6" points="376.4,241.9 381.2,277.6 389.4,266.2 405.4,264.6 "/>
<g id="Layer_5" class="st7">
	<g class="st8">
		<circle class="st9" cx="1071.7" cy="156.6" r="10.9"/>
		<circle class="st9" cx="1120.8" cy="156.6" r="10.9"/>
		<circle class="st9" cx="1169.8" cy="156.6" r="10.9"/>
		<g>
			<path class="st10" d="M1436.5,234.3c-2.3-1.1-3-3-3-5.5c0.1-13.7,0-27.5,0-41.2c0.4-0.5,0.9-0.5,1.5-0.6c0.5,0,1,0,1.5,0
				c37.6,0,75.3,0,112.9,0c1,0,2.1-0.3,3,0.6c0,13.8,0,27.7,0,41.5c0,2.5-0.8,4.4-3.3,5.3C1511.6,234.3,1474,234.3,1436.5,234.3z"/>
			<path class="st9" d="M1552.5,187.5c-0.6,0-1.2-0.1-1.8-0.1c-38.5,0-76.9,0-115.4,0c-0.6,0-1.2,0.1-1.8,0.1c0-0.5,0-1,0-1.5
				c0-33.2,0-66.4,0-99.6c0-1.2,0.1-2.4,0.4-3.6c0.4-2.2,1.9-3.3,4.2-3.3c9.2,0,18.4,0,27.7,0c17.1,0,34.2,0,51.4,0
				c0.8,0,1.6-0.1,2.2,0.6c0.5,0.8,0.5,1.7,0.5,2.6c0,9,0,18.1,0,27.1c0,2.3,0,2.4,2.3,2.4c9.1,0,18.2,0,27.3,0c0.8,0,1.5,0,2.2,0.2
				c0.9,1.1,0.8,2.6,0.8,3.9c0.1,23.6,0,47.2,0,70.7C1552.5,187.2,1552.5,187.4,1552.5,187.5z"/>
			<path class="st11" d="M1551.6,112.5c-0.4,0.5-1,0.3-1.6,0.3c-9.7,0-19.4,0-29.2,0c-1.4,0-1.7-0.4-1.7-1.7c0.1-10.3,0-20.6,0-31
				c0.3,0.2,0.6,0.4,0.8,0.7c10.3,10.3,20.6,20.6,31,31C1551.3,112,1551.4,112.3,1551.6,112.5z"/>
			<path class="st12" d="M1523.5,207.4c0,5.7,0,11.4,0,17c0,1.3-0.3,1.7-1.7,1.7c-2.9-0.1-2.9,0-2.9-2.9c0-7.9,0-15.7,0-23.6
				c0-1.2,0.4-1.4,1.5-1.5c2.4-0.3,3.6,0.7,4.6,2.7c2.9,5.4,6,10.7,9.2,16.3c0.1-0.7,0.1-1.1,0.1-1.5c0-5.3,0-10.7,0-16
				c0-1.1,0.3-1.5,1.4-1.5c3.3,0,3.3,0,3.3,3.2c0,7.7,0,15.4,0,23.1c0,1.4-0.4,1.6-1.7,1.7c-2.2,0.2-3.4-0.6-4.4-2.5
				c-2.9-5.5-6.1-10.9-9.2-16.3C1523.7,207.3,1523.6,207.4,1523.5,207.4z"/>
			<path class="st12" d="M1501.9,226.2c-6.2,0-10.3-3.1-11.8-8.4c-1.2-4.5-1.2-9,0.6-13.3c2-4.6,6.1-7.1,10.9-6.7
				c4.7,0.3,8.6,3.4,9.9,8.2c1.3,4.6,1.3,9.3-0.7,13.7C1509.1,223.9,1505.7,226.1,1501.9,226.2z"/>
			<path class="st12" d="M1475.9,226.1c-2.1,0-4.2-0.3-6.1-1.4c-1.6-1-0.3-2.2-0.1-3.2c0.2-1,1-0.1,1.4,0c1.9,0.6,3.7,1.2,5.8,1
				c1.9-0.1,3.3-1.1,3.8-2.7c0.6-1.9,0.1-3.4-1.7-4.6c-1.6-1-3.3-1.9-5-2.8c-2.2-1.3-4.3-2.8-4.7-5.6c-0.7-4.7,2.1-8.4,6.9-9
				c2.2-0.3,4.4,0,6.5,0.7c0.8,0.3,1.3,0.7,0.7,1.6c-0.3,0.4-0.5,0.9-0.7,1.3c-0.3,0.8-0.7,0.8-1.5,0.6c-2-0.7-4.2-0.9-6.1,0.4
				c-2.1,1.4-2.2,4-0.4,5.7c1.2,1.1,2.6,1.7,4,2.3c2.2,1.1,4.5,2.2,5.6,4.6c2.4,4.9-1.2,10.5-7,11
				C1476.9,226.1,1476.4,226.1,1475.9,226.1z"/>
			<path class="st12" d="M1458,208.8c0-3.3,0-6.6,0-10c0-0.9,0.2-1.2,1.2-1.3c3.5-0.1,3.5-0.1,3.5,3.4c0,5.4-0.2,10.9,0,16.3
				c0.4,8.4-5.4,9.3-10.7,8.7c-1.9-0.2-3.8-0.9-5.6-1.8c-0.8-0.4-0.9-0.8-0.3-1.5l0.1-0.1c1.2-1.9,1.2-1.9,3.3-1.2
				c1.7,0.6,3.4,0.9,5.2,0.7c2.2-0.2,3.3-1.3,3.3-3.5C1458,215.4,1458,212.1,1458,208.8z"/>
			<path class="st13" d="M1464,154.3c0-1.7,0-3.3,0-5c0-3.6-1.8-5.6-5.3-6.2c-2.1-0.3-2.9-1.1-2.9-2.8c0-1.6,1.1-2.5,3-2.7
				c3.1-0.3,5.2-2.5,5.2-5.6c0-3.7,0-7.5,0-11.2c0.1-4.4,3.9-8.1,8.2-8c1.5,0,2.5,0.9,2.7,2.3c0.2,1.5-0.6,2.7-2,3.1
				c-3.1,0.9-3.4,1.3-3.4,4.5c0,2.9,0,5.8,0,8.8c0.1,3.2-0.8,6-3.1,8.2c-0.6,0.6-0.5,0.9,0,1.5c2.2,2.2,3.2,4.9,3.1,8.1
				c-0.1,3.1,0,6.2,0,9.4c0,2.6,0.6,3.3,3.1,4c1.8,0.4,2.6,1.6,2.4,3.3c-0.3,1.5-1.4,2.3-3.2,2.1c-4.3-0.3-7.5-3.7-7.7-8
				C1463.9,158,1464,156.1,1464,154.3L1464,154.3z"/>
			<path class="st13" d="M1519.3,126.7c0,1.6,0,3.1,0,4.7c0,3.8,1.8,5.8,5.5,6.2c1.4,0.2,2.4,0.9,2.6,2.3c0.3,1.3-0.3,2.2-1.4,2.9
				c-0.4,0.3-0.9,0.2-1.3,0.3c-3.7,0.5-5.4,2.6-5.4,6.2c0,3.4,0,6.9,0,10.3c-0.1,4.6-3.4,8.1-7.9,8.3c-1.7,0.1-2.9-0.8-3.2-2.3
				c-0.2-1.3,0.7-2.8,2.4-3c2.6-0.3,3.2-1.7,3.2-4.2c0-3,0.1-6,0-9.1c-0.1-3.2,0.9-5.9,3.1-8.2c0.6-0.6,0.5-0.9,0-1.5
				c-2.2-2.2-3.2-4.9-3.1-8.1c0.1-3.1,0-6.2,0-9.4c0-2.6-0.6-3.4-3.1-3.9c-1.6-0.4-2.6-1.6-2.4-3c0.2-1.5,1.3-2.4,2.9-2.4
				c4.4,0,8,3.7,8.1,8.5C1519.3,123.1,1519.3,124.9,1519.3,126.7z"/>
			<path class="st14" d="M1488.8,153.1c0-1.6,0-2.9,0-4.1c0.1-1.8,1.1-3,2.7-3.1s2.8,0.9,2.9,2.8c0.1,2.8,0.3,5.7-0.1,8.6
				c-0.2,1.4-1.1,2.2-2.5,2.4c-1.4,0.1-2.4-0.7-2.8-2.2C1488.6,155.9,1488.9,154.3,1488.8,153.1z"/>
			<path class="st15" d="M1487.5,130.7c0-2.4,1.7-4.1,4-4.2c2.3,0,4.1,1.8,4.1,4.1s-1.9,4.2-4.2,4.2
				C1489.3,134.8,1487.5,132.9,1487.5,130.7z"/>
			<path class="st13" d="M1507.9,211c0,3.7-0.3,6.3-1.8,8.7c-2.5,3.9-8.1,4-10.3,0c-2.6-4.8-2.5-9.8-0.3-14.8
				c1.1-2.3,3.2-3.4,5.6-3.3c2.8,0.1,4.6,1.7,5.7,4.3C1507.7,207.7,1507.9,209.8,1507.9,211z"/>
		</g>
		<path class="st9" d="M1263,80.1c27.5,0,55,0,82.5,0c0.4,0.2,0.9,0.3,1,0.9c0.2,0.9,0.2,1.8,0.2,2.7c0,9,0,18.1,0,27.1
			c0,2.2,0,2.2,2.2,2.2c9,0,18.1,0,27.1,0c1,0,1.9,0,2.8,0.3c0.9,0.6,0.9,1.5,0.9,2.5c-0.1,0.7-0.1,1.4-0.1,2.1
			c0,22.6,0,45.2,0,67.9c0,0.6,0,1.2,0,1.8c0,1.2-0.6,1.8-1.7,1.9c-0.6,0-1.1,0-1.7,0c-37.6,0-75.3,0-112.9,0
			c-3.4,0-3.5-0.1-3.5-3.5c0-33.7,0-67.3,0-101C1259.7,82.3,1260.5,80.9,1263,80.1z"/>
		<path class="st16" d="M1342.3,136c3.2,2.4,6.3,4.7,8.9,7.6c5.7,6.2,9.4,13.5,10.7,21.8c0.3,1.8,0.4,3.6,0.6,5.4
			c0.2,1.7-0.6,3-1.8,3.5c-1.3,0.5-2.3,0.1-3.2-0.9c-0.6-0.7-0.7-1.6-0.7-2.4c-0.2-10.5-4.5-19.1-12.2-26.1
			c-2.6-2.3-5.5-4.2-8.7-5.6c-1.1-0.5-1.2-0.1-1.2,0.9c0.1,1.8,0,3.6,0,5.4c0,0.9-0.2,1.3-1.3,1.3c-8.3,0-16.7,0-25,0
			c-1,0-1.2-0.4-1.2-1.3c0-2.2,0-4.4,0-6.8c-3.1,1.1-5.7,2.7-8.2,4.6c-6.6,5.2-10.9,11.9-12.9,20.1c-0.6,2.4-0.9,4.8-0.9,7.3
			c0,1.2-0.1,2.4-1.2,3.1c-0.9,0.6-1.9,0.8-2.8,0.2c-1.1-0.6-1.5-1.6-1.5-2.7c0.2-6.6,1.6-12.8,4.7-18.6c3.3-6.3,7.9-11.5,13.9-15.5
			c0.5-0.3,1-0.7,1.5-1.3c-1.7,0-3.3,0-5,0c-1.3,0-2.9-0.5-3.8,0.3s-0.3,2.5-0.3,3.8c0,1.2-0.4,1.4-1.5,1.4c-4.5-0.1-9-0.1-13.6,0
			c-1.1,0-1.6-0.2-1.6-1.5c0.1-4.6,0.1-9.1,0-13.7c0-1,0.3-1.4,1.4-1.4c4.6,0,9.2,0,13.9,0c1,0,1.5,0.3,1.4,1.4c-0.1,1,0,2,0,3
			c-0.1,1.1,0.4,1.4,1.4,1.4c4.6,0,9.1,0,13.7,0c1.1,0,1.5-0.4,1.5-1.5c-0.1-2.8,0-5.5,0-8.3c0-1.1,0.3-1.4,1.4-1.4
			c8.2,0,16.5,0,24.7,0c1,0,1.4,0.3,1.4,1.4c-0.1,2.8,0,5.5,0,8.3c0,1.1,0.4,1.5,1.5,1.5c4.6,0,9.1,0,13.7,0c1,0,1.5-0.3,1.4-1.4
			c-0.1-1.1,0-2.2,0-3.3c0-0.8,0.3-1.1,1.1-1.1c4.8,0,9.6,0,14.5,0c0.8,0,1,0.3,1,1.1c0,4.8,0,9.6,0,14.5c0,0.8-0.4,1-1.1,1
			c-4.8,0-9.5,0-14.3,0c-0.8,0-1.2-0.3-1.2-1.1c0-0.2,0-0.4,0-0.6c0-3.7,0-3.7-3.8-3.7C1345.8,136,1344,136,1342.3,136z"/>
		<path class="st11" d="M1345.9,81.4c0.4,0.1,0.6,0.5,0.9,0.7c10.3,10.3,20.5,20.5,30.8,30.8c0.3,0.3,0.7,0.5,0.8,1
			c-10.2,0-20.5,0-30.7,0c-1.5,0-1.8-0.4-1.8-1.9C1345.9,101.9,1345.9,91.7,1345.9,81.4z"/>
		<path class="st9" d="M1329.3,133.2c0,2.3,0,4.5,0,6.8c0,1-0.3,1.4-1.3,1.4c-4.6-0.1-9.2,0-13.9,0c-1,0-1.4-0.3-1.4-1.3
			c0-4.6,0-9.2,0-13.9c0-1,0.3-1.4,1.3-1.4c4.6,0.1,9.2,0.1,13.9,0c1.2,0,1.4,0.4,1.4,1.5C1329.3,128.6,1329.3,130.9,1329.3,133.2z"
			/>
		<path class="st9" d="M1285.3,133.3c0,3.1,0.4,2.7-2.7,2.7c-3.3,0-2.9,0.3-3-3c0-0.3,0-0.5,0-0.8c-0.2-1.3,0.3-1.9,1.7-1.7
			c0.7,0.1,1.5,0.1,2.3,0c1.5-0.2,2,0.4,1.8,1.9C1285.3,132.7,1285.3,133,1285.3,133.3z"/>
		<path class="st9" d="M1359.7,136c-3.2,0-2.9,0.3-2.9-2.9c0-2.9-0.3-2.5,2.6-2.5c3.1,0,3.1,0,3.1,3.1c0,0.3,0,0.5,0,0.8
			c0.2,1.2-0.3,1.8-1.6,1.6C1360.5,135.9,1360.1,136,1359.7,136z"/>
		<path class="st9" d="M986.4,96.7v156.1c0,0.7,0,1.4,0,2.2c-0.1,3.9-1.4,5.6-5.1,6.6H819.8c-3.7-1.3-4.6-2.7-4.7-6.7V52.5
			c0-0.9-0.1-1.7,0.1-2.6c0.1-0.6,0.1-1.3,0.6-1.6c-0.2-4,1.1-5.9,4.5-7.1h117.1c0.6,0.3,1.3,0.5,1.4,1.3c0.3,1.3,0.3,2.5,0.3,3.8
			v38.2c0,3.1,0.1,3.1,3.1,3.1c12.8,0,25.6,0,38.4,0c1.4,0,2.7,0,4,0.5c1.3,0.9,1.3,2.2,1.2,3.5c0,0.2-0.1,0.4-0.1,0.5
			c0.5,0.4,0.5,1,0.5,1.6C986.4,94.8,986.4,95.7,986.4,96.7z"/>
		<path class="st11" d="M938.2,42c0.6,0.1,0.9,0.6,1.3,1c14.7,14.7,29.3,29.3,44,44c0.4,0.4,1.1,0.8,1.2,1.5c-14.6,0-29.2,0-43.9,0
			c-2.1,0-2.6-0.6-2.6-2.7C938.2,71.3,938.2,56.7,938.2,42z"/>
		<g>
			<path class="st2" d="M931.3,172.2l-0.5,0.6c-0.6,0.7-1.2,1.2-1.9,1.7l0,0c-7.6,5.5-18.6,11.5-25.4,17c-0.1,0.1-0.3,0-0.4-0.1
				c-4.2-18.4-8.3-36.6-12.5-54.7l0,0c-0.7-3.2-2-8.6-2.9-12.6c0.2,0.2,0.5,0.4,0.7,0.6l0,0l0.2,0.3v0.1c0.4,0.5,0.7,1,1.1,1.5
				l0.1,0.1c9.1,11.6,20.4,22.7,31.1,34.2C924.6,164.5,928,168.4,931.3,172.2z"/>
			<path class="st2" d="M895.3,166.5c-14.1-16.7-43.6-23.8-56.4-39.4c9.4,1.6,27.8-4,39.8-5.5l0,0c0.5-0.1,1-0.1,1.4-0.1
				c0.1,0,0.3,0,0.4,0c0.1,0,0.2,0,0.3,0c0.8,0,1.5,0.1,2.2,0.3s1.4,0.4,2,0.7c0.4,0.2,0.7,0.5,0.8,1c1.1,4.9,2.3,9.8,3.4,14.8
				c2.2,9.4,4.4,18.8,6.5,28C895.8,166.5,895.5,166.7,895.3,166.5z"/>
			<path d="M901,191.9"/>
			<path class="st2" d="M936.2,125c-0.3,2.9-0.6,5.8-0.8,8.6c-0.9,11.4-1.2,22.4-2.5,34.4l0,0c-0.1,0.6-0.2,1.2-0.4,1.8l-0.3,1
				c-3.1-3.7-6.4-7.2-9.7-10.7c-4-4.2-8.1-8.4-12-13.1c14.4-11.4,14.9-13.6,22.2-20.3l0,0c0.3-0.3,0.6-0.6,1-0.9
				C934.4,125.3,935.3,125,936.2,125L936.2,125z"/>
			<path class="st2" d="M957.3,143.8c-7.2,0.3-13.9,0.5-21.2,0.8c0.3-3.7,0.5-7.3,0.8-10.9c0.2-2.8,0.4-5.6,0.6-8.5
				c0.6,0.1,1.1,0.4,1.6,0.8c0.3,0.3,0.5,0.5,0.8,0.8C945.8,132.5,951.5,138,957.3,143.8z"/>
			<path class="st2" d="M897.2,172.7c-0.7-3.3-2.7-5.2-5.2-7.4c-0.1-0.1-0.3-0.1-0.4,0.1c-6.7,17.4-13.3,34.6-20.1,52.2
				c-0.1,0.2,0.1,0.4,0.3,0.3c0.2-0.1,0.3-0.1,0.4-0.2c4.5-3.8,9.1-7.5,13.6-11.3c0.1-0.1,0.4,0,0.4,0.2c0.1,3.2,0.3,6.4,0.4,9.6
				c0,0.2,0.3,0.3,0.4,0.1l0,0c2.4-4.7,4.9-9.4,7.3-14.2c0.1-0.1,0.3-0.2,0.4,0c2.3,4,4.5,7.9,6.8,12c0.1,0.2,0.4,0.1,0.4-0.1l0,0
				c0-7.3-0.1-14.4-0.2-21.7"/>
		</g>
		<g>
			<path class="st9" d="M1610.8,76.2c28,0,56,0,84,0c0.4,0.2,0.9,0.3,1,0.9c0.2,0.9,0.2,1.7,0.2,2.6c0,9.2,0,18.3,0,27.5
				c0,2.3,0,2.3,2.3,2.3c9.2,0,18.3,0,27.5,0c0.9,0,1.9,0,2.8,0.3c0.8,0.4,1,1.1,1,1.8c-0.1,2.3-0.1,4.5-0.1,6.8
				c0,11.4,0,22.8,0,34.3c0,0.7,0.3,1.8-0.5,2.1c-0.9,0.4-1.4-0.6-2-1.1c-8.3-7.8-16.5-15.6-24.7-23.5c-1.1-1.1-1.4-1.1-2.5,0.1
				c-6.8,7.6-13.8,15.1-20.6,22.7c-2.1,2.4-4.3,4.7-6.4,7.1c-1.1,1.2-1.7,1.2-3-0.1c-4.1-4.1-8.2-8.2-12.3-12.3
				c-1.6-1.6-1.6-1.6-3.3-0.2c-14.4,12.2-28.8,24.5-43.3,36.8c-0.9,0.7-1.5,1.8-2.9,1.8c-0.1-0.1-0.2-0.3-0.3-0.5
				c-0.2-0.8-0.1-1.6-0.1-2.5c0-34.2,0-68.4,0-102.5C1607.6,78.1,1608.5,77,1610.8,76.2z"/>
			<path class="st17" d="M1726.3,234.3c-38.6,0-77.2,0-115.8,0c-1.2-0.3-2.4-0.8-2.6-2.2c-0.2-0.6-0.3-1.2-0.3-1.9
				c0-13.8,0-27.6,0-41.4c0-0.8-0.2-1.7,0.4-2.4c0.8-0.4,1.6-0.4,2.4-0.4c38.9,0,77.8,0,116.7,0c0.7,0,1.5-0.1,2.1,0.3
				c0.6,0.7,0.4,1.6,0.4,2.4c0,13.8,0,27.6,0,41.4c0,0.6,0,1.2-0.2,1.8C1729,233.5,1727.8,234.1,1726.3,234.3z"/>
			<path class="st11" d="M1695.4,76.8c0.5,0.1,0.7,0.5,0.9,0.7c10.5,10.5,21,21,31.5,31.6c0.3,0.3,0.8,0.6,0.8,1.1
				c-10.5,0-21,0-31.5,0c-1.5,0-1.9-0.4-1.9-1.9C1695.4,97.8,1695.4,87.3,1695.4,76.8z"/>
			<path class="st18" d="M1643.1,104c7.5,0.5,12.8,5.7,12.7,13c-0.1,7.5-5.7,12.8-12.9,12.8c-7.4,0-12.8-5.6-12.8-12.9
				C1630.1,109.4,1635.8,104.3,1643.1,104z"/>
			<path class="st12" d="M1662.1,206.8c0,5.8,0,11.6,0,17.4c0,1.3-0.3,1.6-1.6,1.6c-3.1-0.1-3.1,0-3.1-3.1c0-7.9,0-15.8,0-23.8
				c0-1.3,0.3-1.7,1.7-1.8c2.3-0.2,3.5,0.7,4.6,2.7c2.7,5.1,5.7,10.1,8.6,15.2c0.2,0.4,0.5,0.9,1,1.7c0-0.9,0-1.4,0-1.9
				c0-5.5,0-10.9,0-16.4c0-1,0.3-1.3,1.3-1.3c3.4,0,3.4-0.1,3.4,3.4c0,7.8,0,15.6,0,23.5c0,1.3-0.3,1.7-1.7,1.8
				c-2.3,0.2-3.5-0.7-4.6-2.7c-2.7-5.1-5.7-10.1-8.6-15.2c-0.2-0.4-0.5-0.9-0.8-1.3C1662.2,206.8,1662.1,206.8,1662.1,206.8z"/>
			<path class="st12" d="M1705.7,216.8c0,1.3-0.1,2.7,0,4c0.1,1.1-0.3,1.8-1.1,2.5c-4.5,3.7-12.1,3.5-16.3-0.7
				c-2.2-2.2-3.2-4.9-3.6-7.9c-0.5-4-0.3-7.9,1.5-11.6c3-6.3,11.7-8.3,17.1-4c0.7,0.6,1,1,0.1,1.6c-0.3,0.2-0.6,0.4-0.8,0.7
				c-0.9,1.1-1.6,1.2-2.9,0.2c-3-2.2-7.6-0.8-9.1,2.9c-1.9,4.6-1.9,9.4,0.1,13.9c1.9,4.3,5.5,4.7,9.6,3.3c0.6-0.2,0.9-0.7,0.8-1.3
				c0-1.8,0-3.6,0-5.4c0-0.8-0.3-1-1-0.9c-0.6,0-1.2,0-1.9,0c-1.8,0-2.4-0.8-1.9-2.6c0.1-0.5,0.4-0.5,0.8-0.5c2.6,0,5.1,0,7.7,0
				c0.7,0,0.9,0.3,0.9,0.9C1705.7,213.6,1705.7,215.2,1705.7,216.8z"/>
			<path class="st12" d="M1634,211.6c0-4.3,0-8.6,0-12.9c0-1,0.3-1.3,1.3-1.3c2.8,0.1,5.6-0.1,8.5,0.2c3.9,0.4,7.4,3.3,8.1,6.7
				c0.8,3.8-0.7,7.7-3.8,9.7c-2,1.3-4.3,1.6-6.6,1.6c-2.8,0-2.8,0-2.8,2.8c0,2.1,0,4.2,0,6.3c0,0.8-0.2,1.1-1.1,1.2
				c-3.5,0.1-3.5,0.1-3.5-3.3C1634,218.9,1634,215.2,1634,211.6z"/>
			<path class="st17" d="M1638.6,206.4c0-1.5,0-3.1,0-4.6c0-0.4-0.1-0.9,0.6-0.9c1.7,0.1,3.4-0.2,5,0.3c2.5,0.8,3.7,3,3.3,6.2
				c-0.3,2.9-1.8,4.5-4.6,4.7c-4.4,0.3-4.4,0.3-4.4-4C1638.6,207.6,1638.6,207,1638.6,206.4z"/>
			<path class="st19" d="M1723,149.8"/>
			<path class="st19" d="M1728.9,154.8L1728.9,154.8c-0.4-0.3-0.8-0.6-1.1-0.9c-2.1-2-4.2-4-6.2-5.9l-1-1l0,0
				c-6.1-5.8-12.2-11.6-18.3-17.5c-0.9-0.8-1.5-0.9-2.2,0.1c-0.2,0.3-0.4,0.5-0.6,0.7c-9,9.9-18,19.8-27,29.7c-0.8,0.9-1.2,0.9-2,0
				c-4.4-4.5-8.9-8.9-13.3-13.4c-0.9-1-1.5-0.9-2.5-0.1c-11.4,9.8-22.9,19.6-34.4,29.3c-4,3.4-7.9,6.9-11.9,10.3
				c0.5,0.3,1,0.2,1.5,0.2c39.7,0,79.3,0,119,0c0.2,0,0.4,0,0.6-0.2c0-0.3,0-0.5,0-0.8c0-10,0-20.1,0-30.1L1728.9,154.8z"/>
		</g>
		<path class="st20" d="M1378.2,188.2c-0.3,0.1-0.7,0.1-1.4,0.1c-38.1,0-76.2,0-114.3,0c-0.7,0-1.1,0-1.4-0.1h-1.4
			c0,13.6,0,27.2,0,40.9c0,0.5,0,0.9,0,1.4c0.1,2.8,0.7,3.7,3.3,4.7c37.7,0,75.3,0,113,0c2.6-0.7,3.5-1.9,3.6-4.6c0-0.5,0-1,0-1.5
			c0-13.6,0-27.2,0-40.8L1378.2,188.2L1378.2,188.2z"/>
		<g>
			<path class="st12" d="M1355.4,217.2c0,1.2-0.1,2.4,0,3.6c0.2,1.5-0.5,2.4-1.6,3.2c-4.2,3-11.3,3.4-15.4-0.8
				c-1.9-1.9-2.9-4.3-3.4-6.9c-0.8-5-0.6-9.8,2.5-14.1c3.4-4.7,11-5.6,15.5-2c0.8,0.6,0.8,1,0,1.5c-0.2,0.1-0.3,0.3-0.4,0.4
				c-1,1.1-1.8,1.5-3.3,0.4c-2.9-2.1-7.1-0.7-8.6,2.7c-2.1,4.9-2.1,9.9,0.4,14.6c2.1,3.8,6,3.5,9.1,2.3c0.5-0.2,0.7-0.5,0.7-1.1
				c0-1.8,0-3.6,0-5.4c0-0.6-0.2-0.9-0.9-0.9c-0.8,0-1.5-0.1-2.3,0c-1.3,0.2-1.7-0.3-1.7-1.7c0-1.1,0.2-1.5,1.4-1.5
				c2.3,0.1,4.5,0.1,6.8,0c0.8,0,1.2,0.2,1.1,1.1C1355.4,214.3,1355.4,215.7,1355.4,217.2z"/>
			<path class="st12" d="M1317.7,221.8c1.8-6.2,3.5-12.2,5.2-18.3c0.2-0.6,0.4-1.2,0.5-1.9c1-3.5,1.6-3.9,5.3-3.4
				c1.2,0.2,0.5,0.9,0.3,1.3c-1.8,5.6-3.6,11.2-5.4,16.7c-0.9,2.9-1.9,5.8-2.8,8.7c-0.3,1-0.8,1.2-1.7,1.2c-1.5-0.1-3.3,0.4-4.4-0.3
				s-1.1-2.7-1.5-4.1c-2.3-7.4-4.6-14.7-6.9-22.1c-0.3-1.1-0.4-1.6,1-1.5c3.7,0.1,3.7,0,4.6,3.6c1.7,6.3,3.4,12.6,5.1,18.9
				C1317.2,221.1,1317.3,221.5,1317.7,221.8z"/>
			<path class="st12" d="M1293.3,226.2c-2.1-0.1-4.1-0.3-5.9-1.3c-0.8-0.5-1-3.1-0.2-3.6c0.4-0.2,0.7,0.1,1,0.2
				c1.9,0.7,3.9,1.3,6,1.2s3.4-1,3.9-2.7c0.6-1.9,0.1-3.4-1.7-4.5c-1.6-1.1-3.4-1.9-5.1-2.9c-2.2-1.3-4.1-2.8-4.5-5.5
				c-0.7-4.4,1.7-7.8,6-8.8c2.5-0.6,5-0.2,7.4,0.5c0.9,0.3,1.3,0.7,0.7,1.6c-0.3,0.4-0.5,0.8-0.6,1.2c-0.3,0.8-0.7,1-1.7,0.7
				c-2-0.7-4.1-0.8-5.9,0.5c-2.1,1.5-2.3,4-0.4,5.8c0.8,0.8,1.8,1.2,2.8,1.7c1.3,0.7,2.6,1.3,3.9,2c2.7,1.7,4,4.2,3.5,7.4
				c-0.5,3-2.3,5-5.2,6.1C1295.9,226,1294.6,226.2,1293.3,226.2z"/>
		</g>
	</g>
	<line class="st21" x1="949.4" y1="1702.3" x2="1491.3" y2="1702.3"/>
	<circle class="st22" cx="862.7" cy="1697.8" r="109"/>
	<circle class="st22" cx="1180.7" cy="1697.8" r="109"/>
	<circle class="st22" cx="1498.7" cy="1697.8" r="109"/>
	<g class="st8">
		<path class="st2" d="M888.9,1715.9c8.1,3.4,16.3,6.8,24.3,10.3c2.5,1.1,4.4,3.3,6.1,5.5c5.6,7.3,5.2,9.4-1.6,15.5
			c-15,13.4-32.3,21.6-52.4,22.3c-23.6,0.9-44.2-7.1-61.2-23.8c-1.8-1.8-2.3-3.5-1.6-5.9c1.5-4.7,3.7-9.2,7.9-11.7
			c9.2-5.4,18.9-9.8,29.4-12.3c1.4,0.9,1.5,2.4,2,3.8c3.7,10.4,11,16.4,20.3,16.9c10.6,0.5,18.2-4.3,23.2-14.6
			C886.4,1719.9,886.7,1717.4,888.9,1715.9z"/>
		<path class="st23" d="M848.9,1698c-1.3,0.7-2.6,1.4-3.8,2.2c-1.7,1.2-2.4,0.6-3.2-1.2c-7.7-17.9-10.9-36.4-5.2-55.5
			c3.7-12.2,9.9-16.7,22.3-17.5c20.2-1.2,30,6.2,34,26.1c3.2,16.5-0.2,31.8-8.8,46.1c-1.8,2.9-3.3,2.8-5.4,0.9c-2.6-1.4-3-3.9-3-6.5
			c3.4-5.7,5.6-12.4,11-16.8c1-2.2,1.7-4.4,1.9-6.8c0.2-3.2-0.8-5.4-4.4-5.6c-3.8-1-8.1,0.2-11.2-3.6c-5-6-9.3-14.4-9.6-20.3
			c-2.4,12.1-8.1,20.8-20.6,23.8c-5.3,1.3-6.3,8.3-1.6,13.4c4.1,4.3,5.8,9.7,8.7,14.6c0.4,1.7,0.5,3.4,0,5.1
			C849.7,1697.2,849.3,1697.6,848.9,1698z"/>
		<path class="st24" d="M848.9,1698c0-0.3,0-0.7,0.2-0.9c0.8-1.8,1.9-1.4,3-0.3c1.3,1.3,2.1,3,3.2,4.5c3.7,5.2,8.7,7.7,15.1,7.7
			c3.3,0,6.6-0.9,9.9,0.2c2.9,2.2,5.8,4.5,8.7,6.7c-1.8,7.4-5.1,13.9-11.5,18.3c-15.2,10.3-35.8,0.2-37.5-18.2
			C847.5,1712.3,850.1,1706.1,848.9,1698z"/>
		<path class="st25" d="M880.2,1709.2c-13.9,3.4-22.1,0.5-27.9-9.7c-0.7-1.1-0.5-3.7-3.2-2.5c0-1.8-0.1-3.7-0.1-5.5
			c2-0.5,3.1,0.9,4.3,1.9c7.7,6,12,6.1,19.9,0.5c1-0.7,1.9-1.8,3.4-1.3c0.7,2.2,1.4,4.4,2.1,6.6
			C876.2,1703,879.7,1705.9,880.2,1709.2z"/>
	</g>
	<path class="st26" d="M876.7,1692.6c-7.7,8.3-16.2,10.5-27.7-1.1c-2.5-3.5-3.3-8.9-6.1-10.8c-4.3-2.9-4.6-6.6-5.6-10.5
		c-1.1-4.3-0.6-7.7,5.1-8.5c13.4-1.9,17.1-12.5,20.4-24.1c2.2,6,4.5,11.4,7.5,16.5c3.2,5.6,7.9,8.4,14.3,8.4
		c3.5,3.9,2.6,8.9,3.5,13.5C883.3,1680.9,880.8,1687.3,876.7,1692.6z"/>
	<path class="st27" d="M888,1676c-0.9-0.1-2.4-0.4-2.1-1.3c1.7-4.4-1.5-8.1-1.4-12.2c4.1-1,5.6,0.8,5.5,4.7
		C890,1670.3,889.7,1673.3,888,1676z"/>
	<g class="st8">
		<path class="st2" d="M1227.4,1696.3c-1.6-26.4-21.5-45.1-46.5-45.2c-30.5-0.1-53.5,28-45.5,57.5c2.5,9.4,2,17.4-0.7,25.9
			c-0.2,0.7-0.5,1.4-0.6,2.1c-0.9,5.2,2.6,8.6,7.7,7.4c3.8-0.9,7.5-1.8,11.2-3.1c4-1.4,7.5-1.2,11.6,0.4c7.6,3.2,15.6,3.9,23.8,2.4
			C1214,1739.1,1228.8,1717.6,1227.4,1696.3z M1218.8,1709.1c-5,16.8-20.3,28.1-38,28.2c-4.1,0-8.5,0.3-11.9-1.8
			c-7.1-4.2-14-2.8-21-0.3c-1.8,0.7-3.8,1-6.4,1.8c1.4-5.2,2.3-9.8,3.9-14.3c1.1-3.1,0.6-5.5-0.8-8.4c-7.6-16-3.6-34.9,9.5-46.2
			c13.6-11.8,32.8-13.5,47.7-4.1C1217.1,1673.6,1224,1691.8,1218.8,1709.1z"/>
		<path class="st2" d="M1180.5,1693c-4.6,0-9.2-0.1-13.8,0c-2.6,0.1-4.6-0.7-4.5-3.5c0-2.9,2.2-3.3,4.7-3.3c9.2,0.1,18.4,0,27.6,0
			c2.4,0,4.7,0.3,4.8,3.2c0.2,3.4-2.4,3.6-4.9,3.6C1189.7,1693,1185.1,1693,1180.5,1693z"/>
		<path class="st2" d="M1176.1,1709.4c-3.3,0-6.6,0-9.9,0c-2.4,0-4-1.1-4.1-3.5c-0.1-2.5,1.7-3.6,3.9-3.6c6.6-0.1,13.2-0.1,19.8,0
			c2.3,0,4.2,1.1,4.2,3.5c0,2.7-2,3.6-4.5,3.6C1182.3,1709.4,1179.2,1709.4,1176.1,1709.4z"/>
	</g>
	<path class="st28" d="M1547.8,1670.2c0-8.3-2.7-10.9-10.9-10.9c-12.7,0-25.4,0-38.1,0c-13.1,0-26.1-0.1-39.2,0c-7,0-10,2.7-10,9.5
		c-0.1,19.3-0.1,38.5,0,57.8c0,6.7,3.3,9.8,9.9,9.8c25.8,0.1,51.5,0.1,77.3,0c7.7,0,11-3.3,11-11.2
		C1547.9,1706.9,1547.9,1688.5,1547.8,1670.2z M1536.7,1729.1c-25.4-0.1-50.8-0.1-76.2,0c-2.8,0-3.8-0.8-3.8-3.8
		c0.1-12.8,0.1-25.7,0.1-39.5c10,7.9,19.5,15.3,28.7,22.9c10.6,8.7,16,8.7,26.6,0c9.2-7.5,18.6-14.8,28.7-22.9
		c0,13.7-0.1,26.4,0.1,39C1540.9,1728.1,1539.7,1729.1,1536.7,1729.1z M1540.3,1672.5c-1.7,4.8-5,8.6-8.9,11.7
		c-8.4,6.8-16.9,13.6-25.4,20.3c-5.7,4.6-9,4.7-14.8,0.2c-9.1-7.1-18.1-14.4-27.1-21.7c-3.7-3-5.7-7-6.7-11.7
		c-0.7-3.6,0.3-4.5,3.8-4.5c12.5,0.1,25.1,0.1,37.6,0.1s25.1,0.2,37.6-0.1C1541.2,1666.7,1541.6,1669,1540.3,1672.5z"/>
	<g class="st8">
		<g>
			<path class="st2" d="M-109.9,1786.3l-1.2,1.4c-1.4,1.6-2.9,2.9-4.5,4.1c0,0,0,0-0.1,0c-17.9,13-44,27.2-60.1,40.3
				c-0.3,0.3-0.8,0.1-0.9-0.3c-10-43.6-19.8-86.7-29.6-129.6c0,0,0,0,0-0.1c-1.7-7.6-4.7-20.4-6.9-29.9c0.6,0.5,1.2,1,1.7,1.5h0.1
				l0.6,0.6l0.1,0.2c0.9,1.2,1.8,2.3,2.7,3.5c0.1,0.1,0.2,0.3,0.3,0.4c21.6,27.4,48.3,53.8,73.5,80.9
				C-125.8,1768.1-117.7,1777.2-109.9,1786.3z"/>
			<path class="st2" d="M-195.2,1772.7c-33.3-39.4-103.2-56.2-133.5-93.3c22.4,3.8,65.9-9.5,94.2-13l0,0c1.2-0.2,2.3-0.3,3.4-0.4
				c0.3,0,0.6,0,0.9,0c0.3,0,0.5,0,0.8,0c1.8,0.1,3.6,0.3,5.3,0.7c1.7,0.4,3.2,1,4.7,1.7c1,0.5,1.7,1.3,1.9,2.4
				c2.7,11.6,5.5,23.3,8.2,35c5.2,22.2,10.4,44.6,15.5,66.4C-193.9,1772.8-194.8,1773.2-195.2,1772.7z"/>
			<path d="M-181.6,1833"/>
			<path class="st2" d="M-98.3,1674.6c-0.8,6.9-1.5,13.7-2,20.4c-2.2,27-2.9,53-6,81.5l0,0c-0.2,1.4-0.5,2.8-0.9,4.2l-0.7,2.3
				c-7.4-8.8-15.2-17.1-23-25.3c-9.5-10-19.1-20-28.5-31.1c34-27.1,35.2-32.2,52.6-48.1l0,0c0.8-0.7,1.5-1.4,2.3-2.1
				C-102.6,1675.1-100.5,1674.5-98.3,1674.6L-98.3,1674.6z"/>
			<path class="st2" d="M-48.4,1718.9c-17.2,0.7-33,1.3-50.1,2c0.7-8.7,1.3-17.2,1.9-25.9c0.5-6.6,0.9-13.3,1.5-20.2
				c1.4,0.4,2.7,1,3.8,1.8c0.6,0.6,1.3,1.2,1.9,1.8C-75.6,1692.2-62.2,1705.4-48.4,1718.9z"/>
			<path class="st2" d="M-190.7,1787.5c-1.6-7.7-6.5-12.3-12.3-17.5c-0.3-0.3-0.7-0.2-0.9,0.2c-15.9,41.3-31.5,82-47.5,123.6
				c-0.2,0.4,0.3,0.9,0.7,0.7c0.6-0.2,0.8-0.3,1-0.4c10.8-8.9,21.6-17.8,32.3-26.8c0.4-0.3,0.9-0.1,0.9,0.4
				c0.3,7.6,0.6,15.2,0.9,22.8c0,0.5,0.7,0.7,1,0.3c0,0,0-0.1,0.1-0.1c5.8-11.2,11.5-22.4,17.2-33.5c0.2-0.4,0.7-0.4,1,0
				c5.4,9.4,10.8,18.8,16.2,28.3c0.3,0.5,0.9,0.3,1-0.2l0,0c-0.1-17.3-0.2-34.1-0.5-51.4"/>
		</g>
		<circle class="st29" cx="-191.6" cy="1762.3" r="313"/>
		<circle class="st30" cx="-191.6" cy="1762.3" r="507.5"/>
		<circle class="st31" cx="-388.8" cy="1527.2" r="80.9"/>
		<circle class="st31" cx="-17.4" cy="1507.8" r="80.9"/>
		
			<ellipse transform="matrix(0.9996 -2.701725e-02 2.701725e-02 0.9996 -55.9752 -3.5456)" class="st31" cx="-159.2" cy="2069.7" rx="80.9" ry="80.9"/>
		<circle class="st31" cx="-372.5" cy="2237.9" r="80.9"/>
		<circle class="st31" cx="-681.1" cy="1895.5" r="80.9"/>
		<circle class="st31" cx="-263.4" cy="1262.7" r="80.9"/>
		<circle class="st31" cx="292" cy="1638.6" r="80.9"/>
		
			<ellipse transform="matrix(2.563280e-02 -0.9997 0.9997 2.563280e-02 -1900.7435 2232.1013)" class="st31" cx="194.7" cy="2091.1" rx="80.9" ry="80.9"/>
		<g>
			<rect x="-20.7" y="1485.8" class="st32" width="9.1" height="40.3"/>
			<rect x="-32" y="1465" class="st2" width="31.4" height="22"/>
			<rect x="-27.3" y="1522.7" class="st33" width="22" height="22"/>
			<rect x="-49.7" y="1504.7" class="st32" width="8.5" height="27.9"/>
			<rect x="8.6" y="1504.7" class="st32" width="9.2" height="27"/>
			<rect x="-56.4" y="1522.7" class="st33" width="22" height="22"/>
			<rect x="1.5" y="1522.7" class="st33" width="22" height="22"/>
			<rect x="-49.7" y="1500.2" class="st32" width="67.6" height="9.1"/>
		</g>
		<g>
			<circle class="st34" cx="176.9" cy="2091.1" r="30.9"/>
			<circle class="st34" cx="214.5" cy="2091.1" r="30.9"/>
		</g>
		<polygon class="st2" points="247.8,1669 340.3,1669 321.7,1639.2 267,1639.2 		"/>
		<polygon class="st33" points="281.1,1615.4 306.5,1615.4 321.7,1639.2 267,1639.2 		"/>
		<polygon class="st32" points="306.5,1615.4 281.1,1615.4 294.3,1595.9 		"/>
		<g>
			<rect x="-217.7" y="2067.8" class="st33" width="98.9" height="4.3"/>
			<path class="st33" d="M-120.1,2052.3v36.8c0,0,19.4-1.3,19.4-17s-13.6-19.8-18.1-19.8"/>
			<polygon class="st33" points="-163,2052.3 -137.3,2052.3 -137.3,2087.2 -163,2087.2 -163,2079.3 -142.8,2079.3 -142.8,2060.4 
				-163,2060.4 			"/>
			<polygon class="st33" points="-207.7,2052.3 -182,2052.3 -182,2087.2 -207.7,2087.2 -207.7,2079.3 -187.5,2079.3 -187.5,2060.4 
				-207.7,2060.4 			"/>
		</g>
		<rect x="-391.1" y="1500.9" class="st32" width="7.7" height="13.9"/>
		
			<rect x="-409.2" y="1504.7" transform="matrix(0.5797 -0.8148 0.8148 0.5797 -1404.6296 306.3172)" class="st32" width="7.7" height="20.2"/>
		
			<rect x="-381.5" y="1530.2" transform="matrix(0.7815 -0.6239 0.6239 0.7815 -1043.5154 100.9466)" class="st32" width="7.7" height="20.2"/>
		<rect x="-381.9" y="1518.6" class="st32" width="20.2" height="7.7"/>
		
			<rect x="-411" y="1538" transform="matrix(0.6132 -0.79 0.79 0.6132 -1372.5808 280.7593)" class="st32" width="22.8" height="7.7"/>
		<circle class="st2" cx="-387.3" cy="1526.3" r="13.4"/>
		<circle class="st33" cx="-387.3" cy="1495.1" r="8.9"/>
		<circle class="st33" cx="-418.7" cy="1505.4" r="8.9"/>
		<circle class="st33" cx="-411.4" cy="1556.2" r="8.9"/>
		<circle class="st33" cx="-367.2" cy="1553.3" r="8.9"/>
		<circle class="st33" cx="-358.8" cy="1521.8" r="8.9"/>
		<g>
			<circle class="st33" cx="-346.3" cy="2264.1" r="13.1"/>
			<circle class="st2" cx="-398.7" cy="2212.5" r="13.1"/>
			<rect x="-409.4" y="2252.4" class="st33" width="21.9" height="21.9"/>
			<path class="st33" d="M-348.2,2226.2l-11.3-11.3c-1.2-1.2-1.2-3,0-4.2l11.3-11.3c1.2-1.2,3-1.2,4.2,0l11.3,11.3
				c1.2,1.2,1.2,3,0,4.2l-11.3,11.3C-345.2,2227.4-347,2227.4-348.2,2226.2z"/>
			<polygon class="st32" points="-400.7,2239.9 -405.5,2239.9 -398.1,2232.5 -391.4,2239.9 -396.4,2239.9 -396.4,2248.5 
				-400.6,2248.5 			"/>
			<polygon class="st32" points="-344.1,2239.7 -339.3,2239.7 -346.7,2247.1 -353.3,2239.7 -348.4,2239.7 -348.4,2231.1 
				-344.2,2231.1 			"/>
			<polygon class="st32" points="-372.4,2211.1 -372.4,2206.3 -365,2213.7 -372.4,2220.4 -372.4,2215.4 -381,2215.4 -381,2211.2 			
				"/>
		</g>
		<g>
			<path class="st2" d="M-713.7,1897.2l-5.9,4.8c0,0-5-15.9,5.9-23.9c7.8-5.7,14.4-5.2,14.4-5.2l36.5-0.3V1858l21.3,18.3l-21.8,18.5
				l0.3-14.9h-37.7C-700.5,1880-713.8,1881.1-713.7,1897.2z"/>
			<path class="st2" d="M-648.5,1891.8l5.9-4.8c0,0,5,15.9-5.9,23.9c-7.8,5.7-14.4,5.2-14.4,5.2l-36.5,0.3v14.4l-21.3-18.3
				l21.8-18.5l-0.3,14.9h37.7C-661.6,1909-648.3,1907.9-648.5,1891.8z"/>
		</g>
		<g>
			
				<ellipse transform="matrix(0.9971 -7.669513e-02 7.669513e-02 0.9971 -97.6223 -16.4829)" class="st35" cx="-263.4" cy="1262.7" rx="47.8" ry="47.8"/>
			
				<ellipse transform="matrix(0.9971 -7.669517e-02 7.669517e-02 0.9971 -97.6224 -16.4829)" class="st36" cx="-263.4" cy="1262.7" rx="26.3" ry="26.3"/>
		</g>
	</g>
</g>
</svg>
