<?xml version="1.0" encoding="utf-8"?>
<!-- Generator: Adobe Illustrator 23.1.0, SVG Export Plug-In . SVG Version: 6.00 Build 0)  -->
<svg version="1.1" xmlns="http://www.w3.org/2000/svg" xmlns:xlink="http://www.w3.org/1999/xlink" x="0px" y="0px"
	 viewBox="0 0 994.6 996.5" style="enable-background:new 0 0 994.6 996.5;" xml:space="preserve">
<style type="text/css">
	.st0{display:none;}
	.st1{display:inline;}
	.st2{fill:#E8E8DF;}
	.st3{fill:#48E0C2;}
	.st4{fill:#6547EB;}
	.st5{fill:#AB4AC3;}
	.st6{fill:#FFFFFF;}
	.st7{fill:#FFFFFF;stroke:#581466;stroke-width:2;stroke-miterlimit:10;}
	.st8{fill:#9676A7;}
	.st9{fill:#D8D6C9;}
	.st10{fill:#FEFEFE;}
	.st11{fill:#9677A7;}
	.st12{fill:#9777A8;}
	.st13{fill:#9777A7;}
	.st14{fill:#C7BCB7;}
	.st15{fill:#659B35;}
	.st16{fill:#F2D45B;}
	.st17{fill:#87BF57;}
	.st18{fill:#E47E25;}
	.st19{fill:none;stroke:#4D4D4D;stroke-width:3;stroke-miterlimit:10;stroke-dasharray:14;}
	.st20{fill:#EFEFEA;}
	.st21{fill:#CB3533;}
	.st22{fill:#FCC79A;}
	.st23{fill:#F9AE78;}
	.st24{fill:#F8BA91;}
	.st25{fill:none;stroke:#D6D6D4;stroke-width:5;stroke-miterlimit:10;stroke-dasharray:40;}
	.st26{fill:none;stroke:#D6D6D4;stroke-width:5;stroke-miterlimit:10;stroke-dasharray:36;}
	.st27{fill:#F4F4ED;}
	.st28{fill:#A0A4A5;}
	.st29{fill:#00BCD4;}
	.st30{fill:none;stroke:#6547EB;stroke-width:7;stroke-miterlimit:10;}
	.st31{fill:none;stroke:#6547EB;stroke-width:8;stroke-miterlimit:10;}
	.st32{fill:none;stroke:#6547EB;stroke-width:6;stroke-miterlimit:10;}
</style>
<g id="Layer_2" class="st0">
	<g class="st1">
		<rect x="-348.7" y="3.6" class="st2" width="491" height="306"/>
		<path class="st3" d="M145.7,304.7c10.9,0,20.9,0,30.8,0c9.5,0,19,0.1,28.5,0c3.2,0,4.5,1.1,4.4,4.3c-0.1,8.3-0.1,16.7,0,25
			c0,4.2-2.1,6.1-6.1,6.1c-1.5,0-3,0-4.5,0c-202.3,0-404.6,0-606.9,0c-1.8,0-3.7,0.1-5.5-0.1c-3.3-0.3-5.2-2-5.2-5.5
			c0-8.7,0.1-17.3-0.1-26c-0.1-4.1,2.5-3.9,5.3-3.9c17.8,0,35.7,0,53.5,0c6.5,0,6.6,0,6.6-6.5c0-95.5,0-191,0-286.5
			c0-10.3,1.6-11.9,11.8-11.9c158.6,0,317.3,0,475.9,0c10,0,11.5,1.5,11.5,11.7c0,95,0,190,0,285C145.7,299,145.7,301.4,145.7,304.7
			z M-104.3,304.7c79.1,0,158.3,0,237.4,0c6.7,0,6.7,0,6.7-6.9c0-95,0-190,0-285c0-7.1,0-7.1-7.2-7.1c-157.6,0-315.3,0-472.9,0
			c-7.4,0-7.4,0-7.4,7.4c0,94.8,0,189.6,0,284.5c0,7.1,0,7.1,7.4,7.1C-261.6,304.7-182.9,304.7-104.3,304.7z"/>
		<path class="st4" d="M-14.7,256.6h-180c-14.4,0-26-11.6-26-26v0c0-14.4,11.6-26,26-26h180c14.4,0,26,11.6,26,26v0
			C11.3,245-0.3,256.6-14.7,256.6z"/>
		<g>
			<path class="st5" d="M-260.4,72.2v4.9v11.6c0,0.8-0.4,1.2-1.2,1.2h-4.2c-0.8,0-1.2-0.4-1.2-1.2v-3.3c-2.5,3.4-6.4,5.2-11.3,5.2
				c-10,0-17.6-8-17.6-18.3c0-10.3,7.7-18.3,18.3-18.3c7.8,0,14.5,4.8,16.7,11.2c0.3,0.8-0.1,1.3-1,1.3h-4.9c-0.7,0-1.1-0.3-1.4-0.9
				c-1.6-2.8-5.2-4.9-9.4-4.9c-6.9,0-11.4,4.8-11.4,11.6c0,7.2,4.8,11.9,11.4,11.9c4.6,0,9.1-2.1,10.2-7.1h-8.6
				c-0.8,0-1.2-0.4-1.2-1.2v-3.7c0-0.8,0.4-1.2,1.2-1.2h14.4C-260.9,71-260.4,71.4-260.4,72.2z"/>
			<path class="st5" d="M-230.3,77.3c0,0.5,0,1-0.1,1.5c-0.1,0.8-0.6,1.1-1.3,1.1h-5.2h-12.6c0.9,3.6,3.6,5.2,6.8,5.2
				c1.9,0,3.6-0.8,4.6-1.8c0.5-0.4,0.8-0.7,1.5-0.7l4,0c0.9,0,1.3,0.6,1,1.3c-1.9,4.2-6,6.6-11.2,6.6c-8.2,0-13.5-5.7-13.5-13.3
				c0-7.5,5.4-13.3,13.4-13.3C-235.5,64-230.3,69.9-230.3,77.3z M-236.8,74.9c-0.8-3.6-3.4-5-6.1-5c-3.4,0-5.8,1.9-6.6,5H-236.8z"/>
			<path class="st5" d="M-213.1,65.9v3.9c0,0.8-0.4,1.2-1.2,1.2h-3.1v17.7c0,0.8-0.4,1.2-1.2,1.2h-4.1c-0.8,0-1.2-0.4-1.2-1.2V71
				h-3.1c-0.8,0-1.2-0.4-1.2-1.2v-3.9c0-0.8,0.4-1.2,1.2-1.2h3.1v-6.9c0-0.8,0.4-1.2,1.2-1.2h4.1c0.8,0,1.2,0.4,1.2,1.2v6.9h3.1
				C-213.6,64.7-213.1,65.2-213.1,65.9z"/>
			<path class="st5" d="M-198.4,80.3c-0.1-0.8,0.4-1.2,1.2-1.2h4.5c0.7,0,1.1,0.4,1.2,1.2c0.4,2.4,2.4,3.6,5.9,3.6
				c3.5,0,5.2-1.5,5.2-3.6c0-2.5-2.8-3.6-6.2-4.8c-5.1-1.8-11.3-3.8-11.3-11.3c0-6.8,5.6-10.2,11.5-10.2c5.8,0,11.3,3.2,11.9,10.1
				c0.1,0.8-0.4,1.2-1.2,1.2h-4.5c-0.7,0-1.1-0.4-1.2-1.1c-0.4-2.3-2.2-3.5-4.9-3.5c-2.9,0-4.5,1.5-4.5,3.5c0,2.6,2.4,3.7,5.7,4.9
				c5.1,1.8,11.8,3.7,11.8,11.1c0,6.8-5.6,10.3-12.1,10.3C-192.1,90.6-197.8,87.4-198.4,80.3z"/>
			<path class="st5" d="M-156.5,65.9v3.9c0,0.8-0.4,1.2-1.2,1.2h-3.1v17.7c0,0.8-0.4,1.2-1.2,1.2h-4.1c-0.8,0-1.2-0.4-1.2-1.2V71
				h-3.1c-0.8,0-1.2-0.4-1.2-1.2v-3.9c0-0.8,0.4-1.2,1.2-1.2h3.1v-6.9c0-0.8,0.4-1.2,1.2-1.2h4.1c0.8,0,1.2,0.4,1.2,1.2v6.9h3.1
				C-156.9,64.7-156.5,65.2-156.5,65.9z"/>
			<path class="st5" d="M-142.9,64c5.6,0,10.3,3.3,10.3,9.9v14.8c0,0.8-0.4,1.2-1.2,1.2h-4c-0.8,0-1.2-0.4-1.2-1.2v-1
				c-1.4,1.8-3.6,2.9-6.8,2.9c-4.5,0-8.5-2.6-8.5-7.9c0-5.3,4-7.9,8.5-7.9c3.2,0,5.4,1,6.8,2.2v-2.7c0-3-1.5-4.2-3.9-4.2
				c-1.9,0-3.3,0.8-3.7,2.2c-0.3,0.7-0.5,1.1-1.2,1.1h-4c-0.8,0-1.2-0.4-1.2-1.2C-152.5,66.9-148.1,64-142.9,64L-142.9,64z
				 M-139,82.7c0-1.9-1.8-3.1-4.6-3.1s-4.2,1.3-4.2,3.1s1.3,3.1,4.2,3.1S-139,84.5-139,82.7z"/>
			<path class="st5" d="M-114,65.5v4.8c0,0.8-0.3,1.2-0.9,1.2c-3.1,0-6,1.6-6,6.1v11.2c0,0.8-0.4,1.2-1.2,1.2h-4.1
				c-0.8,0-1.2-0.4-1.2-1.2V65.9c0-0.8,0.4-1.2,1.2-1.2h4.1c0.8,0,1.2,0.4,1.2,1.2v2.6c1.1-2.6,3.2-3.9,5.7-4.2
				C-114.4,64.2-114,64.7-114,65.5z"/>
			<path class="st5" d="M-96.6,65.9v3.9c0,0.8-0.4,1.2-1.2,1.2h-3.1v17.7c0,0.8-0.4,1.2-1.2,1.2h-4.1c-0.8,0-1.2-0.4-1.2-1.2V71
				h-3.1c-0.8,0-1.2-0.4-1.2-1.2v-3.9c0-0.8,0.4-1.2,1.2-1.2h3.1v-6.9c0-0.8,0.4-1.2,1.2-1.2h4.1c0.8,0,1.2,0.4,1.2,1.2v6.9h3.1
				C-97,64.7-96.6,65.2-96.6,65.9z"/>
			<path class="st5" d="M-68.8,77.3c0,0.5,0,1-0.1,1.5c-0.1,0.8-0.6,1.1-1.3,1.1h-5.2H-88c0.9,3.6,3.6,5.2,6.8,5.2
				c1.9,0,3.6-0.8,4.6-1.8c0.5-0.4,0.8-0.7,1.5-0.7l4,0c0.9,0,1.3,0.6,1,1.3c-1.9,4.2-6,6.6-11.2,6.6c-8.2,0-13.5-5.7-13.5-13.3
				c0-7.5,5.4-13.3,13.4-13.3C-74,64-68.8,69.9-68.8,77.3z M-75.3,74.9c-0.8-3.6-3.4-5-6.1-5c-3.4,0-5.8,1.9-6.6,5H-75.3z"/>
			<path class="st5" d="M-38.8,55.8v32.9c0,0.8-0.4,1.2-1.2,1.2h-4.1c-0.8,0-1.2-0.4-1.2-1.2v-1.8c-1.8,2.3-4.5,3.7-8.2,3.7
				c-6.7,0-12.3-5.8-12.3-13.3S-60.2,64-53.5,64c3.7,0,6.4,1.4,8.2,3.7V55.8c0-0.8,0.4-1.2,1.2-1.2h4.1
				C-39.2,54.7-38.8,55.1-38.8,55.8z M-45.3,77.3c0-4.2-3-7.1-7-7.1s-7,2.9-7,7.1s3,7.1,7,7.1S-45.3,81.6-45.3,77.3z"/>
			<path class="st5" d="M0.2,54.7h4.5c0.8,0,1.2,0.4,1.2,1.2v32.9c0,0.8-0.4,1.2-1.2,1.2H1.6c-0.6,0-1.1-0.2-1.5-0.8l-13.2-21v20.6
				c0,0.8-0.4,1.2-1.2,1.2h-4.5c-0.8,0-1.2-0.4-1.2-1.2V55.8c0-0.8,0.4-1.2,1.2-1.2h3.1c0.6,0,1.1,0.2,1.5,0.8l13.2,21V55.8
				C-1,55.1-0.5,54.7,0.2,54.7z"/>
			<path class="st5" d="M10.9,77.3c0-7.5,5.9-13.3,13.3-13.3c7.4,0,13.3,5.8,13.3,13.3s-5.9,13.3-13.3,13.3
				C16.8,90.6,10.9,84.8,10.9,77.3z M31,77.3c0-4.1-3-7-6.8-7s-6.8,2.9-6.8,7s3,7,6.8,7S31,81.4,31,77.3z"/>
			<path class="st5" d="M73.6,66.1l-7.5,22.8c-0.2,0.7-0.7,1-1.4,1h-3.4h-0.7c-0.7,0-1.2-0.3-1.4-1l-3-9.1l-3,9.1
				c-0.2,0.7-0.7,1-1.4,1h-2.6h-1.5c-0.7,0-1.2-0.3-1.4-1L39,66.1c-0.3-0.8,0.1-1.3,1-1.3h4.4c0.7,0,1.1,0.3,1.3,1L50.4,82l3.3-10.3
				l-1.8-5.6c-0.3-0.8,0.1-1.3,1-1.3h3.3c0.7,0,1.1,0.3,1.3,1l4.9,15.6l4.4-15.6c0.2-0.7,0.6-1,1.3-1h4.4
				C73.5,64.7,73.9,65.3,73.6,66.1z"/>
			<path class="st5" d="M78.6,77l-1.2-12.3v-8.9c0-0.8,0.4-1.2,1.2-1.2H84c0.8,0,1.2,0.4,1.2,1.2v8.9L84,77c-0.1,0.7-0.5,1-1.2,1h-3
				C79.1,78.1,78.7,77.8,78.6,77z M77.7,88.7v-4.8c0-0.8,0.4-1.2,1.2-1.2h4.8c0.8,0,1.2,0.4,1.2,1.2v4.8c0,0.8-0.4,1.2-1.2,1.2h-4.8
				C78.1,89.9,77.7,89.5,77.7,88.7z"/>
		</g>
		<g>
			<path class="st5" d="M-266.6,151.2v-27.8h3.9l8.9,14.1c2.1,3.3,3.7,6.2,5,9l0.1,0c-0.3-3.7-0.4-7.1-0.4-11.4v-11.6h3.4v27.8h-3.6
				l-8.8-14.1c-1.9-3.1-3.8-6.3-5.2-9.3l-0.1,0c0.2,3.5,0.3,6.8,0.3,11.5v11.9H-266.6z"/>
			<path class="st5" d="M-221.6,141.1c0,7.4-5.1,10.6-9.9,10.6c-5.4,0-9.6-4-9.6-10.3c0-6.7,4.4-10.6,9.9-10.6
				C-225.4,130.8-221.6,135-221.6,141.1z M-237.4,141.3c0,4.4,2.5,7.7,6.1,7.7c3.5,0,6.1-3.3,6.1-7.8c0-3.4-1.7-7.7-6-7.7
				C-235.5,133.5-237.4,137.5-237.4,141.3z"/>
			<path class="st5" d="M-208.7,147.5c1.1,0.7,3,1.4,4.8,1.4c2.6,0,3.9-1.3,3.9-3c0-1.7-1-2.7-3.7-3.7c-3.6-1.3-5.3-3.3-5.3-5.6
				c0-3.2,2.6-5.9,6.9-5.9c2,0,3.8,0.6,4.9,1.2l-0.9,2.6c-0.8-0.5-2.2-1.2-4.1-1.2c-2.1,0-3.3,1.2-3.3,2.7c0,1.6,1.2,2.4,3.8,3.4
				c3.5,1.3,5.2,3.1,5.2,6c0,3.5-2.7,6-7.5,6c-2.2,0-4.2-0.5-5.6-1.4L-208.7,147.5z"/>
			<path class="st5" d="M-187.9,125.7c0,1.2-0.9,2.2-2.3,2.2c-1.3,0-2.2-1-2.2-2.2c0-1.3,0.9-2.3,2.3-2.3
				C-188.7,123.4-187.9,124.4-187.9,125.7z M-191.9,151.2v-20h3.6v20H-191.9z"/>
			<path class="st5" d="M-165.1,131.3c-0.1,1.4-0.2,3.1-0.2,5.5v11.6c0,4.6-0.9,7.4-2.8,9.1c-1.9,1.8-4.7,2.4-7.3,2.4
				c-2.4,0-5-0.6-6.6-1.6l0.9-2.8c1.3,0.8,3.4,1.6,5.9,1.6c3.7,0,6.4-1.9,6.4-7v-2.2h-0.1c-1.1,1.9-3.3,3.3-6.3,3.3
				c-4.9,0-8.5-4.2-8.5-9.7c0-6.8,4.4-10.6,9-10.6c3.5,0,5.4,1.8,6.2,3.5h0.1l0.2-3H-165.1z M-168.8,139.1c0-0.6,0-1.2-0.2-1.6
				c-0.7-2.1-2.4-3.8-5.1-3.8c-3.5,0-5.9,2.9-5.9,7.5c0,3.9,2,7.2,5.9,7.2c2.2,0,4.2-1.4,5-3.7c0.2-0.6,0.3-1.3,0.3-1.9V139.1z"/>
			<path class="st5" d="M-159.5,136.7c0-2.1,0-3.8-0.2-5.4h3.2l0.2,3.3h0.1c1-1.9,3.3-3.8,6.6-3.8c2.8,0,7.1,1.6,7.1,8.5v11.9h-3.6
				v-11.5c0-3.2-1.2-5.9-4.6-5.9c-2.4,0-4.2,1.7-4.9,3.7c-0.2,0.5-0.2,1.1-0.2,1.7v12h-3.6V136.7z"/>
			<path class="st5" d="M-111.2,145.8c0,2.1,0,3.9,0.2,5.4h-3.2l-0.2-3.3h-0.1c-0.9,1.6-3.1,3.7-6.6,3.7c-3.1,0-6.9-1.7-6.9-8.7
				v-11.7h3.6v11c0,3.8,1.2,6.3,4.5,6.3c2.4,0,4.1-1.7,4.8-3.3c0.2-0.5,0.3-1.2,0.3-1.9v-12.2h3.6V145.8z"/>
			<path class="st5" d="M-105.1,137.8c0-2.6-0.1-4.6-0.2-6.5h3.3l0.2,3.4h0.1c1.5-2.4,3.8-3.9,7.1-3.9c4.8,0,8.5,4.1,8.5,10.1
				c0,7.2-4.4,10.7-9.1,10.7c-2.6,0-4.9-1.2-6.1-3.1h-0.1v10.8h-3.6V137.8z M-101.6,143.1c0,0.5,0.1,1,0.2,1.5
				c0.7,2.5,2.8,4.2,5.4,4.2c3.8,0,6.1-3.1,6.1-7.7c0-4-2.1-7.4-5.9-7.4c-2.5,0-4.8,1.8-5.5,4.5c-0.1,0.5-0.2,1-0.2,1.5V143.1z"/>
			<path class="st5" d="M-73,137.5c0-2.4,0-4.4-0.2-6.2h3.2l0.1,3.9h0.2c0.9-2.7,3.1-4.4,5.5-4.4c0.4,0,0.7,0,1,0.1v3.4
				c-0.4-0.1-0.7-0.1-1.2-0.1c-2.6,0-4.4,1.9-4.9,4.7c-0.1,0.5-0.2,1.1-0.2,1.7v10.6H-73V137.5z"/>
			<path class="st5" d="M-57.9,141.9c0.1,4.9,3.2,6.9,6.8,6.9c2.6,0,4.2-0.5,5.5-1l0.6,2.6c-1.3,0.6-3.5,1.2-6.6,1.2
				c-6.1,0-9.8-4-9.8-10.1s3.5-10.8,9.4-10.8c6.5,0,8.2,5.7,8.2,9.4c0,0.7-0.1,1.3-0.1,1.7H-57.9z M-47.2,139.3c0-2.3-0.9-5.9-5-5.9
				c-3.7,0-5.3,3.4-5.6,5.9H-47.2z"/>
			<path class="st5" d="M-25.6,148.1L-25.6,148.1c-1.2,2-3.4,3.5-6.6,3.5c-4.7,0-8.5-4-8.5-10.1c0-7.5,4.8-10.8,9-10.8
				c3.1,0,5.2,1.5,6.1,3.5h0.1l0.1-3h3.4c-0.1,1.7-0.1,3.4-0.1,5.5v22.6h-3.6V148.1z M-25.6,139.3c0-0.5,0-1.1-0.2-1.5
				c-0.5-2.2-2.5-4.1-5.2-4.1c-3.8,0-6,3.2-6,7.7c0,4,1.9,7.4,5.9,7.4c2.4,0,4.4-1.4,5.2-4c0.2-0.5,0.3-1.2,0.3-1.7V139.3z"/>
			<path class="st5" d="M0.7,145.8c0,2.1,0,3.9,0.2,5.4h-3.2l-0.2-3.3h-0.1c-0.9,1.6-3.1,3.7-6.6,3.7c-3.1,0-6.9-1.7-6.9-8.7v-11.7
				h3.6v11c0,3.8,1.2,6.3,4.5,6.3c2.4,0,4.1-1.7,4.8-3.3c0.2-0.5,0.3-1.2,0.3-1.9v-12.2h3.6V145.8z"/>
			<path class="st5" d="M10.7,125.7c0,1.2-0.9,2.2-2.3,2.2c-1.3,0-2.2-1-2.2-2.2c0-1.3,0.9-2.3,2.3-2.3
				C9.9,123.4,10.7,124.4,10.7,125.7z M6.7,151.2v-20h3.6v20H6.7z"/>
			<path class="st5" d="M16.3,137.5c0-2.4,0-4.4-0.2-6.2h3.2l0.1,3.9h0.2c0.9-2.7,3.1-4.4,5.5-4.4c0.4,0,0.7,0,1,0.1v3.4
				c-0.4-0.1-0.7-0.1-1.2-0.1c-2.6,0-4.4,1.9-4.9,4.7c-0.1,0.5-0.2,1.1-0.2,1.7v10.6h-3.6V137.5z"/>
			<path class="st5" d="M31.4,141.9c0.1,4.9,3.2,6.9,6.8,6.9c2.6,0,4.2-0.5,5.5-1l0.6,2.6c-1.3,0.6-3.5,1.2-6.6,1.2
				c-6.1,0-9.8-4-9.8-10.1s3.5-10.8,9.4-10.8c6.5,0,8.2,5.7,8.2,9.4c0,0.7-0.1,1.3-0.1,1.7H31.4z M42.1,139.3c0-2.3-0.9-5.9-5-5.9
				c-3.7,0-5.3,3.4-5.6,5.9H42.1z"/>
			<path class="st5" d="M67.3,121.9v24.1c0,1.8,0,3.8,0.2,5.2h-3.3l-0.2-3.5h-0.1c-1.1,2.2-3.5,3.9-6.8,3.9c-4.8,0-8.5-4.1-8.5-10.1
				c0-6.6,4.1-10.7,8.9-10.7c3.1,0,5.1,1.4,6,3.1h0.1v-11.9H67.3z M63.7,139.4c0-0.5,0-1.1-0.2-1.5c-0.5-2.3-2.5-4.2-5.2-4.2
				c-3.8,0-6,3.3-6,7.7c0,4,2,7.4,5.9,7.4c2.4,0,4.7-1.6,5.3-4.3c0.1-0.5,0.2-1,0.2-1.6V139.4z"/>
		</g>
		<g>
			<path class="st6" d="M-152.7,218.1h2.9v19.8h9.5v2.4h-12.4V218.1z"/>
			<path class="st6" d="M-128.4,240.3l-0.2-2h-0.1c-0.9,1.3-2.6,2.4-4.9,2.4c-3.2,0-4.9-2.3-4.9-4.6c0-3.9,3.4-6,9.6-5.9v-0.3
				c0-1.3-0.4-3.7-3.6-3.7c-1.5,0-3,0.5-4.2,1.2l-0.7-1.9c1.3-0.9,3.2-1.4,5.2-1.4c4.9,0,6.1,3.3,6.1,6.5v6c0,1.4,0.1,2.7,0.3,3.8
				H-128.4z M-128.8,232.2c-3.2-0.1-6.8,0.5-6.8,3.6c0,1.9,1.3,2.8,2.7,2.8c2.1,0,3.4-1.3,3.9-2.7c0.1-0.3,0.2-0.6,0.2-0.9V232.2z"
				/>
			<path class="st6" d="M-108,236c0,1.6,0,3.1,0.1,4.4h-2.6l-0.2-2.6h-0.1c-0.8,1.3-2.4,3-5.3,3c-2.5,0-5.5-1.4-5.5-7v-9.3h2.9v8.8
				c0,3,0.9,5.1,3.6,5.1c1.9,0,3.3-1.4,3.8-2.6c0.2-0.4,0.3-1,0.3-1.5v-9.8h2.9V236z"/>
			<path class="st6" d="M-103.2,228.7c0-1.6,0-3-0.1-4.3h2.6l0.2,2.6h0.1c0.8-1.5,2.6-3,5.3-3c2.2,0,5.6,1.3,5.6,6.8v9.5h-2.9v-9.2
				c0-2.6-1-4.7-3.7-4.7c-1.9,0-3.4,1.4-3.9,3c-0.1,0.4-0.2,0.9-0.2,1.4v9.6h-2.9V228.7z"/>
			<path class="st6" d="M-73.5,239.7c-0.8,0.4-2.4,0.9-4.6,0.9c-4.8,0-8-3.3-8-8.2c0-4.9,3.4-8.5,8.6-8.5c1.7,0,3.2,0.4,4,0.8
				l-0.7,2.2c-0.7-0.4-1.8-0.8-3.4-0.8c-3.7,0-5.6,2.7-5.6,6c0,3.7,2.4,6,5.5,6c1.7,0,2.7-0.4,3.6-0.8L-73.5,239.7z"/>
			<path class="st6" d="M-70.1,216.9h2.9v10h0.1c0.5-0.8,1.2-1.6,2.1-2c0.9-0.5,1.9-0.8,3-0.8c2.1,0,5.6,1.3,5.6,6.8v9.5h-2.9v-9.2
				c0-2.6-1-4.8-3.7-4.8c-1.9,0-3.4,1.3-3.9,2.9c-0.2,0.4-0.2,0.8-0.2,1.4v9.6h-2.9V216.9z"/>
		</g>
		<polygon class="st7" points="-42.4,241.8 -37.7,277.5 -29.4,266 -13.4,264.5 		"/>
	</g>
</g>
<g id="Layer_5">
	<g>
		<circle class="st2" cx="725.6" cy="-445" r="10.9"/>
		<circle class="st2" cx="774.7" cy="-445" r="10.9"/>
		<circle class="st2" cx="823.7" cy="-445" r="10.9"/>
		<g>
			<path class="st8" d="M1090.4-367.3c-2.3-1.1-3-3-3-5.5c0.1-13.7,0-27.5,0-41.2c0.4-0.5,0.9-0.5,1.5-0.6c0.5,0,1,0,1.5,0
				c37.6,0,75.3,0,112.9,0c1,0,2.1-0.3,3,0.6c0,13.8,0,27.7,0,41.5c0,2.5-0.8,4.4-3.3,5.3C1165.5-367.3,1127.9-367.3,1090.4-367.3z"
				/>
			<path class="st2" d="M1206.4-414.1c-0.6,0-1.2-0.1-1.8-0.1c-38.5,0-76.9,0-115.4,0c-0.6,0-1.2,0.1-1.8,0.1c0-0.5,0-1,0-1.5
				c0-33.2,0-66.4,0-99.6c0-1.2,0.1-2.4,0.4-3.6c0.4-2.2,1.9-3.3,4.2-3.3c9.2,0,18.4,0,27.7,0c17.1,0,34.2,0,51.4,0
				c0.8,0,1.6-0.1,2.2,0.6c0.5,0.8,0.5,1.7,0.5,2.6c0,9,0,18.1,0,27.1c0,2.3,0,2.4,2.3,2.4c9.1,0,18.2,0,27.3,0c0.8,0,1.5,0,2.2,0.2
				c0.9,1.1,0.8,2.6,0.8,3.9c0.1,23.6,0,47.2,0,70.7C1206.4-414.4,1206.4-414.2,1206.4-414.1z"/>
			<path class="st9" d="M1205.5-489.1c-0.4,0.5-1,0.3-1.6,0.3c-9.7,0-19.4,0-29.2,0c-1.4,0-1.7-0.4-1.7-1.7c0.1-10.3,0-20.6,0-31
				c0.3,0.2,0.6,0.4,0.8,0.7c10.3,10.3,20.6,20.6,31,31C1205.2-489.6,1205.3-489.3,1205.5-489.1z"/>
			<path class="st10" d="M1177.4-394.2c0,5.7,0,11.4,0,17c0,1.3-0.3,1.7-1.7,1.7c-2.9-0.1-2.9,0-2.9-2.9c0-7.9,0-15.7,0-23.6
				c0-1.2,0.4-1.4,1.5-1.5c2.4-0.3,3.6,0.7,4.6,2.7c2.9,5.4,6,10.7,9.2,16.3c0.1-0.7,0.1-1.1,0.1-1.5c0-5.3,0-10.7,0-16
				c0-1.1,0.3-1.5,1.4-1.5c3.3,0,3.3,0,3.3,3.2c0,7.7,0,15.4,0,23.1c0,1.4-0.4,1.6-1.7,1.7c-2.2,0.2-3.4-0.6-4.4-2.5
				c-2.9-5.5-6.1-10.9-9.2-16.3C1177.6-394.3,1177.5-394.2,1177.4-394.2z"/>
			<path class="st10" d="M1155.8-375.4c-6.2,0-10.3-3.1-11.8-8.4c-1.2-4.5-1.2-9,0.6-13.3c2-4.6,6.1-7.1,10.9-6.7
				c4.7,0.3,8.6,3.4,9.9,8.2c1.3,4.6,1.3,9.3-0.7,13.7C1163-377.7,1159.6-375.5,1155.8-375.4z"/>
			<path class="st10" d="M1129.8-375.5c-2.1,0-4.2-0.3-6.1-1.4c-1.6-1-0.3-2.2-0.1-3.2c0.2-1,1-0.1,1.4,0c1.9,0.6,3.7,1.2,5.8,1
				c1.9-0.1,3.3-1.1,3.8-2.7c0.6-1.9,0.1-3.4-1.7-4.6c-1.6-1-3.3-1.9-5-2.8c-2.2-1.3-4.3-2.8-4.7-5.6c-0.7-4.7,2.1-8.4,6.9-9
				c2.2-0.3,4.4,0,6.5,0.7c0.8,0.3,1.3,0.7,0.7,1.6c-0.3,0.4-0.5,0.9-0.7,1.3c-0.3,0.8-0.7,0.8-1.5,0.6c-2-0.7-4.2-0.9-6.1,0.4
				c-2.1,1.4-2.2,4-0.4,5.7c1.2,1.1,2.6,1.7,4,2.3c2.2,1.1,4.5,2.2,5.6,4.6c2.4,4.9-1.2,10.5-7,11
				C1130.8-375.5,1130.3-375.5,1129.8-375.5z"/>
			<path class="st10" d="M1111.9-392.8c0-3.3,0-6.6,0-10c0-0.9,0.2-1.2,1.2-1.3c3.5-0.1,3.5-0.1,3.5,3.4c0,5.4-0.2,10.9,0,16.3
				c0.4,8.4-5.4,9.3-10.7,8.7c-1.9-0.2-3.8-0.9-5.6-1.8c-0.8-0.4-0.9-0.8-0.3-1.5c0,0,0.1-0.1,0.1-0.1c1.2-1.9,1.2-1.9,3.3-1.2
				c1.7,0.6,3.4,0.9,5.2,0.7c2.2-0.2,3.3-1.3,3.3-3.5C1111.9-386.2,1111.9-389.5,1111.9-392.8z"/>
			<path class="st11" d="M1117.9-447.4c0-1.7,0-3.3,0-5c0-3.6-1.8-5.6-5.3-6.2c-2.1-0.3-2.9-1.1-2.9-2.8c0-1.6,1.1-2.5,3-2.7
				c3.1-0.3,5.2-2.5,5.2-5.6c0-3.7,0-7.5,0-11.2c0.1-4.4,3.9-8.1,8.2-8c1.5,0,2.5,0.9,2.7,2.3c0.2,1.5-0.6,2.7-2,3.1
				c-3.1,0.9-3.4,1.3-3.4,4.5c0,2.9,0,5.8,0,8.8c0.1,3.2-0.8,6-3.1,8.2c-0.6,0.6-0.5,0.9,0,1.5c2.2,2.2,3.2,4.9,3.1,8.1
				c-0.1,3.1,0,6.2,0,9.4c0,2.6,0.6,3.3,3.1,4c1.8,0.4,2.6,1.6,2.4,3.3c-0.3,1.5-1.4,2.3-3.2,2.1c-4.3-0.3-7.5-3.7-7.7-8
				C1117.8-443.6,1117.9-445.5,1117.9-447.4C1117.9-447.4,1117.9-447.4,1117.9-447.4z"/>
			<path class="st11" d="M1173.1-474.9c0,1.6,0,3.1,0,4.7c0,3.8,1.8,5.8,5.5,6.2c1.4,0.2,2.4,0.9,2.6,2.3c0.3,1.3-0.3,2.2-1.4,2.9
				c-0.4,0.3-0.9,0.2-1.3,0.3c-3.7,0.5-5.4,2.6-5.4,6.2c0,3.4,0,6.9,0,10.3c-0.1,4.6-3.4,8.1-7.9,8.3c-1.7,0.1-2.9-0.8-3.2-2.3
				c-0.2-1.3,0.7-2.8,2.4-3c2.6-0.3,3.2-1.7,3.2-4.2c0-3,0.1-6,0-9.1c-0.1-3.2,0.9-5.9,3.1-8.2c0.6-0.6,0.5-0.9,0-1.5
				c-2.2-2.2-3.2-4.9-3.1-8.1c0.1-3.1,0-6.2,0-9.4c0-2.6-0.6-3.4-3.1-3.9c-1.6-0.4-2.6-1.6-2.4-3c0.2-1.5,1.3-2.4,2.9-2.4
				c4.4,0,8,3.7,8.1,8.5C1173.2-478.5,1173.1-476.7,1173.1-474.9z"/>
			<path class="st12" d="M1142.7-448.5c0-1.6,0-2.9,0-4.1c0.1-1.8,1.1-3,2.7-3.1c1.6-0.1,2.8,0.9,2.9,2.8c0.1,2.8,0.3,5.7-0.1,8.6
				c-0.2,1.4-1.1,2.2-2.5,2.4c-1.4,0.1-2.4-0.7-2.8-2.2C1142.5-445.7,1142.8-447.3,1142.7-448.5z"/>
			<path class="st13" d="M1141.4-470.9c0-2.4,1.7-4.1,4-4.2c2.3,0,4.1,1.8,4.1,4.1c0,2.3-1.9,4.2-4.2,4.2
				C1143.2-466.8,1141.4-468.7,1141.4-470.9z"/>
			<path class="st11" d="M1161.8-390.6c0,3.7-0.3,6.3-1.8,8.7c-2.5,3.9-8.1,4-10.3,0c-2.6-4.8-2.5-9.8-0.3-14.8
				c1.1-2.3,3.2-3.4,5.6-3.3c2.8,0.1,4.6,1.7,5.7,4.3C1161.6-393.9,1161.8-391.8,1161.8-390.6z"/>
		</g>
		<path class="st2" d="M916.9-521.5c27.5,0,55,0,82.5,0c0.4,0.2,0.9,0.3,1,0.9c0.2,0.9,0.2,1.8,0.2,2.7c0,9,0,18.1,0,27.1
			c0,2.2,0,2.2,2.2,2.2c9,0,18.1,0,27.1,0c1,0,1.9,0,2.8,0.3c0.9,0.6,0.9,1.5,0.9,2.5c-0.1,0.7-0.1,1.4-0.1,2.1
			c0,22.6,0,45.2,0,67.9c0,0.6,0,1.2,0,1.8c0,1.2-0.6,1.8-1.7,1.9c-0.6,0-1.1,0-1.7,0c-37.6,0-75.3,0-112.9,0
			c-3.4,0-3.5-0.1-3.5-3.5c0-33.7,0-67.3,0-101C913.5-519.3,914.4-520.7,916.9-521.5z"/>
		<path class="st14" d="M996.2-465.6c3.2,2.4,6.3,4.7,8.9,7.6c5.7,6.2,9.4,13.5,10.7,21.8c0.3,1.8,0.4,3.6,0.6,5.4
			c0.2,1.7-0.6,3-1.8,3.5c-1.3,0.5-2.3,0.1-3.2-0.9c-0.6-0.7-0.7-1.6-0.7-2.4c-0.2-10.5-4.5-19.1-12.2-26.1
			c-2.6-2.3-5.5-4.2-8.7-5.6c-1.1-0.5-1.2-0.1-1.2,0.9c0.1,1.8,0,3.6,0,5.4c0,0.9-0.2,1.3-1.3,1.3c-8.3,0-16.7,0-25,0
			c-1,0-1.2-0.4-1.2-1.3c0-2.2,0-4.4,0-6.8c-3.1,1.1-5.7,2.7-8.2,4.6c-6.6,5.2-10.9,11.9-12.9,20.1c-0.6,2.4-0.9,4.8-0.9,7.3
			c0,1.2-0.1,2.4-1.2,3.1c-0.9,0.6-1.9,0.8-2.8,0.2c-1.1-0.6-1.5-1.6-1.5-2.7c0.2-6.6,1.6-12.8,4.7-18.6c3.3-6.3,7.9-11.5,13.9-15.5
			c0.5-0.3,1-0.7,1.5-1.3c-1.7,0-3.3,0-5,0c-1.3,0-2.9-0.5-3.8,0.3c-0.9,0.8-0.3,2.5-0.3,3.8c0,1.2-0.4,1.4-1.5,1.4
			c-4.5-0.1-9-0.1-13.6,0c-1.1,0-1.6-0.2-1.6-1.5c0.1-4.6,0.1-9.1,0-13.7c0-1,0.3-1.4,1.4-1.4c4.6,0,9.2,0,13.9,0
			c1,0,1.5,0.3,1.4,1.4c-0.1,1,0,2,0,3c-0.1,1.1,0.4,1.4,1.4,1.4c4.6,0,9.1,0,13.7,0c1.1,0,1.5-0.4,1.5-1.5c-0.1-2.8,0-5.5,0-8.3
			c0-1.1,0.3-1.4,1.4-1.4c8.2,0,16.5,0,24.7,0c1,0,1.4,0.3,1.4,1.4c-0.1,2.8,0,5.5,0,8.3c0,1.1,0.4,1.5,1.5,1.5c4.6,0,9.1,0,13.7,0
			c1,0,1.5-0.3,1.4-1.4c-0.1-1.1,0-2.2,0-3.3c0-0.8,0.3-1.1,1.1-1.1c4.8,0,9.6,0,14.5,0c0.8,0,1,0.3,1,1.1c0,4.8,0,9.6,0,14.5
			c0,0.8-0.4,1-1.1,1c-4.8,0-9.5,0-14.3,0c-0.8,0-1.2-0.3-1.2-1.1c0-0.2,0-0.4,0-0.6c0-3.7,0-3.7-3.8-3.7
			C999.6-465.6,997.9-465.6,996.2-465.6z"/>
		<path class="st9" d="M999.8-520.2c0.4,0.1,0.6,0.5,0.9,0.7c10.3,10.3,20.5,20.5,30.8,30.8c0.3,0.3,0.7,0.5,0.8,1
			c-10.2,0-20.5,0-30.7,0c-1.5,0-1.8-0.4-1.8-1.9C999.8-499.7,999.8-509.9,999.8-520.2z"/>
		<path class="st2" d="M983.2-468.4c0,2.3,0,4.5,0,6.8c0,1-0.3,1.4-1.3,1.4c-4.6-0.1-9.2,0-13.9,0c-1,0-1.4-0.3-1.4-1.3
			c0.1-4.6,0-9.2,0-13.9c0-1,0.3-1.4,1.3-1.4c4.6,0.1,9.2,0.1,13.9,0c1.2,0,1.4,0.4,1.4,1.5C983.2-473,983.2-470.7,983.2-468.4z"/>
		<path class="st2" d="M939.2-468.3c0,3.1,0.4,2.7-2.7,2.7c-3.3,0-2.9,0.3-3-3c0-0.3,0-0.5,0-0.8c-0.2-1.3,0.3-1.9,1.7-1.7
			c0.7,0.1,1.5,0.1,2.3,0c1.5-0.2,2,0.4,1.8,1.9C939.2-468.9,939.2-468.6,939.2-468.3z"/>
		<path class="st2" d="M1013.6-465.6c-3.2,0-2.9,0.3-2.9-2.9c0-2.9-0.3-2.5,2.6-2.5c3.1,0,3.1,0,3.1,3.1c0,0.3,0,0.5,0,0.8
			c0.2,1.2-0.3,1.8-1.6,1.6C1014.4-465.7,1014-465.6,1013.6-465.6z"/>
		<path class="st2" d="M640.3-504.9v156.1c0,0.7,0,1.4,0,2.2c-0.1,3.9-1.4,5.6-5.1,6.6H473.7c-3.7-1.3-4.6-2.7-4.7-6.7v-202.4
			c0-0.9-0.1-1.7,0.1-2.6c0.1-0.6,0.1-1.3,0.6-1.6c-0.2-4,1.1-5.9,4.5-7.1h117.1c0.6,0.3,1.3,0.5,1.4,1.3c0.3,1.3,0.3,2.5,0.3,3.8
			v38.2c0,3.1,0.1,3.1,3.1,3.1c12.8,0,25.6,0,38.4,0c1.4,0,2.7,0,4,0.5c1.3,0.9,1.3,2.2,1.2,3.5c0,0.2-0.1,0.4-0.1,0.5
			c0.5,0.4,0.5,1,0.5,1.6C640.3-506.8,640.3-505.9,640.3-504.9z"/>
		<path class="st9" d="M592.1-559.6c0.6,0.1,0.9,0.6,1.3,1c14.7,14.7,29.3,29.3,44,44c0.4,0.4,1.1,0.8,1.2,1.5
			c-14.6,0-29.2,0-43.9,0c-2.1,0-2.6-0.6-2.6-2.7C592.1-530.3,592.1-544.9,592.1-559.6z"/>
		<g>
			<path class="st4" d="M585.2-429.4l-0.5,0.6c-0.6,0.7-1.2,1.2-1.9,1.7c0,0,0,0,0,0c-7.6,5.5-18.6,11.5-25.4,17
				c-0.1,0.1-0.3,0-0.4-0.1c-4.2-18.4-8.3-36.6-12.5-54.7c0,0,0,0,0,0c-0.7-3.2-2-8.6-2.9-12.6c0.2,0.2,0.5,0.4,0.7,0.6l0,0l0.2,0.3
				l0,0.1c0.4,0.5,0.7,1,1.1,1.5c0,0,0.1,0.1,0.1,0.1c9.1,11.6,20.4,22.7,31.1,34.2C578.5-437.1,581.9-433.2,585.2-429.4z"/>
			<path class="st4" d="M549.2-435.1c-14.1-16.7-43.6-23.8-56.4-39.4c9.4,1.6,27.8-4,39.8-5.5l0,0c0.5-0.1,1-0.1,1.4-0.1
				c0.1,0,0.3,0,0.4,0c0.1,0,0.2,0,0.3,0c0.8,0,1.5,0.1,2.2,0.3c0.7,0.2,1.4,0.4,2,0.7c0.4,0.2,0.7,0.5,0.8,1
				c1.1,4.9,2.3,9.8,3.4,14.8c2.2,9.4,4.4,18.8,6.5,28C549.7-435.1,549.3-434.9,549.2-435.1z"/>
			<path d="M554.9-409.7"/>
			<path class="st4" d="M590.1-476.6c-0.3,2.9-0.6,5.8-0.8,8.6c-0.9,11.4-1.2,22.4-2.5,34.4l0,0c-0.1,0.6-0.2,1.2-0.4,1.8l-0.3,1
				c-3.1-3.7-6.4-7.2-9.7-10.7c-4-4.2-8.1-8.4-12-13.1c14.4-11.4,14.9-13.6,22.2-20.3l0,0c0.3-0.3,0.6-0.6,1-0.9
				C588.3-476.3,589.2-476.6,590.1-476.6L590.1-476.6z"/>
			<path class="st4" d="M611.2-457.8c-7.2,0.3-13.9,0.5-21.2,0.8c0.3-3.7,0.5-7.3,0.8-10.9c0.2-2.8,0.4-5.6,0.6-8.5
				c0.6,0.1,1.1,0.4,1.6,0.8c0.3,0.3,0.5,0.5,0.8,0.8C599.7-469.1,605.4-463.6,611.2-457.8z"/>
			<path class="st4" d="M551.1-428.9c-0.7-3.3-2.7-5.2-5.2-7.4c-0.1-0.1-0.3-0.1-0.4,0.1c-6.7,17.4-13.3,34.6-20.1,52.2
				c-0.1,0.2,0.1,0.4,0.3,0.3c0.2-0.1,0.3-0.1,0.4-0.2c4.5-3.8,9.1-7.5,13.6-11.3c0.1-0.1,0.4,0,0.4,0.2c0.1,3.2,0.3,6.4,0.4,9.6
				c0,0.2,0.3,0.3,0.4,0.1c0,0,0,0,0,0c2.4-4.7,4.9-9.4,7.3-14.2c0.1-0.1,0.3-0.2,0.4,0c2.3,4,4.5,7.9,6.8,12
				c0.1,0.2,0.4,0.1,0.4-0.1v0c0-7.3-0.1-14.4-0.2-21.7"/>
		</g>
		<g>
			<path class="st2" d="M1264.7-525.4c28,0,56,0,84,0c0.4,0.2,0.9,0.3,1,0.9c0.2,0.9,0.2,1.7,0.2,2.6c0,9.2,0,18.3,0,27.5
				c0,2.3,0,2.3,2.3,2.3c9.2,0,18.3,0,27.5,0c0.9,0,1.9,0,2.8,0.3c0.8,0.4,1,1.1,1,1.8c-0.1,2.3-0.1,4.5-0.1,6.8
				c0,11.4,0,22.8,0,34.3c0,0.7,0.3,1.8-0.5,2.1c-0.9,0.4-1.4-0.6-2-1.1c-8.3-7.8-16.5-15.6-24.7-23.5c-1.1-1.1-1.4-1.1-2.5,0.1
				c-6.8,7.6-13.8,15.1-20.6,22.7c-2.1,2.4-4.3,4.7-6.4,7.1c-1.1,1.2-1.7,1.2-3-0.1c-4.1-4.1-8.2-8.2-12.3-12.3
				c-1.6-1.6-1.6-1.6-3.3-0.2c-14.4,12.2-28.8,24.5-43.3,36.8c-0.9,0.7-1.5,1.8-2.9,1.8c-0.1-0.1-0.2-0.3-0.3-0.5
				c-0.2-0.8-0.1-1.6-0.1-2.5c0-34.2,0-68.4,0-102.5C1261.5-523.5,1262.4-524.6,1264.7-525.4z"/>
			<path class="st15" d="M1380.2-367.3c-38.6,0-77.2,0-115.8,0c-1.2-0.3-2.4-0.8-2.6-2.2c-0.2-0.6-0.3-1.2-0.3-1.9
				c0-13.8,0-27.6,0-41.4c0-0.8-0.2-1.7,0.4-2.4c0.8-0.4,1.6-0.4,2.4-0.4c38.9,0,77.8,0,116.7,0c0.7,0,1.5-0.1,2.1,0.3
				c0.6,0.7,0.4,1.6,0.4,2.4c0,13.8,0,27.6,0,41.4c0,0.6,0,1.2-0.2,1.8C1382.9-368.1,1381.7-367.5,1380.2-367.3z"/>
			<path class="st9" d="M1349.3-524.8c0.5,0.1,0.7,0.5,0.9,0.7c10.5,10.5,21,21,31.5,31.6c0.3,0.3,0.8,0.6,0.8,1.1
				c-10.5,0-21,0-31.5,0c-1.5,0-1.9-0.4-1.9-1.9C1349.3-503.8,1349.3-514.3,1349.3-524.8z"/>
			<path class="st16" d="M1297-497.6c7.5,0.5,12.8,5.7,12.7,13c-0.1,7.5-5.7,12.8-12.9,12.8c-7.4,0-12.8-5.6-12.8-12.9
				C1284-492.2,1289.7-497.3,1297-497.6z"/>
			<path class="st10" d="M1315.9-394.8c0,5.8,0,11.6,0,17.4c0,1.3-0.3,1.6-1.6,1.6c-3.1-0.1-3.1,0-3.1-3.1c0-7.9,0-15.8,0-23.8
				c0-1.3,0.3-1.7,1.7-1.8c2.3-0.2,3.5,0.7,4.6,2.7c2.7,5.1,5.7,10.1,8.6,15.2c0.2,0.4,0.5,0.9,1,1.7c0-0.9,0-1.4,0-1.9
				c0-5.5,0-10.9,0-16.4c0-1,0.3-1.3,1.3-1.3c3.4,0,3.4-0.1,3.4,3.4c0,7.8,0,15.6,0,23.5c0,1.3-0.3,1.7-1.7,1.8
				c-2.3,0.2-3.5-0.7-4.6-2.7c-2.7-5.1-5.7-10.1-8.6-15.2c-0.2-0.4-0.5-0.9-0.8-1.3C1316.1-394.8,1316-394.8,1315.9-394.8z"/>
			<path class="st10" d="M1359.6-384.8c0,1.3-0.1,2.7,0,4c0.1,1.1-0.3,1.8-1.1,2.5c-4.5,3.7-12.1,3.5-16.3-0.7
				c-2.2-2.2-3.2-4.9-3.6-7.9c-0.5-4-0.3-7.9,1.5-11.6c3-6.3,11.7-8.3,17.1-4c0.7,0.6,1,1,0.1,1.6c-0.3,0.2-0.6,0.4-0.8,0.7
				c-0.9,1.1-1.6,1.2-2.9,0.2c-3-2.2-7.6-0.8-9.1,2.9c-1.9,4.6-1.9,9.4,0.1,13.9c1.9,4.3,5.5,4.7,9.6,3.3c0.6-0.2,0.9-0.7,0.8-1.3
				c0-1.8,0-3.6,0-5.4c0-0.8-0.3-1-1-0.9c-0.6,0-1.2,0-1.9,0c-1.8,0-2.4-0.8-1.9-2.6c0.1-0.5,0.4-0.5,0.8-0.5c2.6,0,5.1,0,7.7,0
				c0.7,0,0.9,0.3,0.9,0.9C1359.5-388,1359.6-386.4,1359.6-384.8z"/>
			<path class="st10" d="M1287.8-390c0-4.3,0-8.6,0-12.9c0-1,0.3-1.3,1.3-1.3c2.8,0.1,5.6-0.1,8.5,0.2c3.9,0.4,7.4,3.3,8.1,6.7
				c0.8,3.8-0.7,7.7-3.8,9.7c-2,1.3-4.3,1.6-6.6,1.6c-2.8,0-2.8,0-2.8,2.8c0,2.1,0,4.2,0,6.3c0,0.8-0.2,1.1-1.1,1.2
				c-3.5,0.1-3.5,0.1-3.5-3.3C1287.8-382.7,1287.8-386.4,1287.8-390z"/>
			<path class="st15" d="M1292.5-395.2c0-1.5,0-3.1,0-4.6c0-0.4-0.1-0.9,0.6-0.9c1.7,0.1,3.4-0.2,5,0.3c2.5,0.8,3.7,3,3.3,6.2
				c-0.3,2.9-1.8,4.5-4.6,4.7c-4.4,0.3-4.4,0.3-4.4-4C1292.5-394.1,1292.5-394.6,1292.5-395.2z"/>
			<path class="st17" d="M1376.9-451.8"/>
			<path class="st17" d="M1382.8-446.8C1382.8-446.8,1382.8-446.8,1382.8-446.8c-0.4-0.3-0.8-0.6-1.1-0.9c-2.1-2-4.2-4-6.2-5.9l-1-1
				l0,0c-6.1-5.8-12.2-11.6-18.3-17.5c-0.9-0.8-1.5-0.9-2.2,0.1c-0.2,0.3-0.4,0.5-0.6,0.7c-9,9.9-18,19.8-27,29.7
				c-0.8,0.9-1.2,0.9-2,0c-4.4-4.5-8.9-8.9-13.3-13.4c-0.9-1-1.5-0.9-2.5-0.1c-11.4,9.8-22.9,19.6-34.4,29.3
				c-4,3.4-7.9,6.9-11.9,10.3c0.5,0.3,1,0.2,1.5,0.2c39.7,0,79.3,0,119,0c0.2,0,0.4,0,0.6-0.2c0-0.3,0-0.5,0-0.8c0-10,0-20.1,0-30.1
				L1382.8-446.8z"/>
		</g>
		<path class="st18" d="M1032.1-413.4c-0.3,0.1-0.7,0.1-1.4,0.1c-38.1,0-76.2,0-114.3,0c-0.7,0-1.1,0-1.4-0.1h-1.4
			c0,13.6,0,27.2,0,40.9c0,0.5,0,0.9,0,1.4c0.1,2.8,0.7,3.7,3.3,4.7c37.7,0,75.3,0,113,0c2.6-0.7,3.5-1.9,3.6-4.6c0-0.5,0-1,0-1.5
			c0-13.6,0-27.2,0-40.8H1032.1z"/>
		<g>
			<path class="st10" d="M1009.3-384.4c0,1.2-0.1,2.4,0,3.6c0.2,1.5-0.5,2.4-1.6,3.2c-4.2,3-11.3,3.4-15.4-0.8
				c-1.9-1.9-2.9-4.3-3.4-6.9c-0.8-5-0.6-9.8,2.5-14.1c3.4-4.7,11-5.6,15.5-2c0.8,0.6,0.8,1,0,1.5c-0.2,0.1-0.3,0.3-0.4,0.4
				c-1,1.1-1.8,1.5-3.3,0.4c-2.9-2.1-7.1-0.7-8.6,2.7c-2.1,4.9-2.1,9.9,0.4,14.6c2.1,3.8,6,3.5,9.1,2.3c0.5-0.2,0.7-0.5,0.7-1.1
				c0-1.8,0-3.6,0-5.4c0-0.6-0.2-0.9-0.9-0.9c-0.8,0-1.5-0.1-2.3,0c-1.3,0.2-1.7-0.3-1.7-1.7c0-1.1,0.2-1.5,1.4-1.5
				c2.3,0.1,4.5,0.1,6.8,0c0.8,0,1.2,0.2,1.1,1.1C1009.2-387.3,1009.3-385.9,1009.3-384.4z"/>
			<path class="st10" d="M971.6-379.8c1.8-6.2,3.5-12.2,5.2-18.3c0.2-0.6,0.4-1.2,0.5-1.9c1-3.5,1.6-3.9,5.3-3.4
				c1.2,0.2,0.5,0.9,0.3,1.3c-1.8,5.6-3.6,11.2-5.4,16.7c-0.9,2.9-1.9,5.8-2.8,8.7c-0.3,1-0.8,1.2-1.7,1.2c-1.5-0.1-3.3,0.4-4.4-0.3
				c-1.1-0.7-1.1-2.7-1.5-4.1c-2.3-7.4-4.6-14.7-6.9-22.1c-0.3-1.1-0.4-1.6,1-1.5c3.7,0.1,3.7,0,4.6,3.6c1.7,6.3,3.4,12.6,5.1,18.9
				C971.1-380.5,971.2-380.1,971.6-379.8z"/>
			<path class="st10" d="M947.2-375.4c-2.1-0.1-4.1-0.3-5.9-1.3c-0.8-0.5-1-3.1-0.2-3.6c0.4-0.2,0.7,0.1,1,0.2
				c1.9,0.7,3.9,1.3,6,1.2c2.1-0.1,3.4-1,3.9-2.7c0.6-1.9,0.1-3.4-1.7-4.5c-1.6-1.1-3.4-1.9-5.1-2.9c-2.2-1.3-4.1-2.8-4.5-5.5
				c-0.7-4.4,1.7-7.8,6-8.8c2.5-0.6,5-0.2,7.4,0.5c0.9,0.3,1.3,0.7,0.7,1.6c-0.3,0.4-0.5,0.8-0.6,1.2c-0.3,0.8-0.7,1-1.7,0.7
				c-2-0.7-4.1-0.8-5.9,0.5c-2.1,1.5-2.3,4-0.4,5.8c0.8,0.8,1.8,1.2,2.8,1.7c1.3,0.7,2.6,1.3,3.9,2c2.7,1.7,4,4.2,3.5,7.4
				c-0.5,3-2.3,5-5.2,6.1C949.8-375.6,948.5-375.4,947.2-375.4z"/>
		</g>
	</g>
	<line class="st19" x1="530.6" y1="1702.1" x2="1072.5" y2="1702.1"/>
	<circle class="st20" cx="443.9" cy="1697.7" r="109"/>
	<circle class="st20" cx="761.9" cy="1697.7" r="109"/>
	<circle class="st20" cx="1079.9" cy="1697.7" r="109"/>
	<g>
		<path class="st4" d="M470,1715.8c8.1,3.4,16.3,6.8,24.3,10.3c2.5,1.1,4.4,3.3,6.1,5.5c5.6,7.3,5.2,9.4-1.6,15.5
			c-15,13.4-32.3,21.6-52.4,22.3c-23.6,0.9-44.2-7.1-61.2-23.8c-1.8-1.8-2.3-3.5-1.6-5.9c1.5-4.7,3.7-9.2,7.9-11.7
			c9.2-5.4,18.9-9.8,29.4-12.3c1.4,0.9,1.5,2.4,2,3.8c3.7,10.4,11,16.4,20.3,16.9c10.6,0.5,18.2-4.3,23.2-14.6
			C467.6,1719.8,467.9,1717.3,470,1715.8z"/>
		<path class="st21" d="M430,1697.8c-1.3,0.7-2.6,1.4-3.8,2.2c-1.7,1.2-2.4,0.6-3.2-1.2c-7.7-17.9-10.9-36.4-5.2-55.5
			c3.7-12.2,9.9-16.7,22.3-17.5c20.2-1.2,30,6.2,34,26.1c3.2,16.5-0.2,31.8-8.8,46.1c-1.8,2.9-3.3,2.8-5.4,0.9c-2.6-1.4-3-3.9-3-6.5
			c3.4-5.7,5.6-12.4,11-16.8c1-2.2,1.7-4.4,1.9-6.8c0.2-3.2-0.8-5.4-4.4-5.6c-3.8-1-8.1,0.2-11.2-3.6c-5-6-9.3-14.4-9.6-20.3
			c-2.4,12.1-8.1,20.8-20.6,23.8c-5.3,1.3-6.3,8.3-1.6,13.4c4.1,4.3,5.8,9.7,8.7,14.6c0.4,1.7,0.5,3.4,0,5.1
			C430.8,1697,430.5,1697.5,430,1697.8z"/>
		<path class="st22" d="M430,1697.8c0-0.3,0-0.7,0.2-0.9c0.8-1.8,1.9-1.4,3-0.3c1.3,1.3,2.1,3,3.2,4.5c3.7,5.2,8.7,7.7,15.1,7.7
			c3.3,0,6.6-0.9,9.9,0.2c2.9,2.2,5.8,4.5,8.7,6.7c-1.8,7.4-5.1,13.9-11.5,18.3c-15.2,10.3-35.8,0.2-37.5-18.2
			C428.6,1712.1,431.2,1706,430,1697.8z"/>
		<path class="st23" d="M461.4,1709.1c-13.9,3.4-22.1,0.5-27.9-9.7c-0.7-1.1-0.5-3.7-3.2-2.5c0-1.8-0.1-3.7-0.1-5.5
			c2-0.5,3.1,0.9,4.3,1.9c7.7,6,12,6.1,19.9,0.5c1-0.7,1.9-1.8,3.4-1.3c0.7,2.2,1.4,4.4,2.1,6.6
			C457.4,1702.8,460.8,1705.7,461.4,1709.1z"/>
	</g>
	<path class="st22" d="M457.8,1692.5c-7.7,8.3-16.2,10.5-27.7-1.1c-2.5-3.5-3.3-8.9-6.1-10.8c-4.3-2.9-4.6-6.6-5.6-10.5
		c-1.1-4.3-0.6-7.7,5.1-8.5c13.4-1.9,17.1-12.5,20.4-24.1c2.2,6,4.5,11.4,7.5,16.5c3.2,5.6,7.9,8.4,14.3,8.4
		c3.5,3.9,2.6,8.9,3.5,13.5C464.4,1680.8,461.9,1687.2,457.8,1692.5z"/>
	<path class="st24" d="M469.2,1675.9c-0.9-0.1-2.4-0.4-2.1-1.3c1.7-4.4-1.5-8.1-1.4-12.2c4.1-1,5.6,0.8,5.5,4.7
		C471.1,1670.2,470.8,1673.2,469.2,1675.9z"/>
	<g>
		<path class="st4" d="M808.6,1696.2c-1.6-26.4-21.5-45.1-46.5-45.2c-30.5-0.1-53.5,28-45.5,57.5c2.5,9.4,2,17.4-0.7,25.9
			c-0.2,0.7-0.5,1.4-0.6,2.1c-0.9,5.2,2.6,8.6,7.7,7.4c3.8-0.9,7.5-1.8,11.2-3.1c4-1.4,7.5-1.2,11.6,0.4c7.6,3.2,15.6,3.9,23.8,2.4
			C795.2,1739,809.9,1717.5,808.6,1696.2z M800,1708.9c-5,16.8-20.3,28.1-38,28.2c-4.1,0-8.5,0.3-11.9-1.8c-7.1-4.2-14-2.8-21-0.3
			c-1.8,0.7-3.8,1-6.4,1.8c1.4-5.2,2.3-9.8,3.9-14.3c1.1-3.1,0.6-5.5-0.8-8.4c-7.6-16-3.6-34.9,9.5-46.2
			c13.6-11.8,32.8-13.5,47.7-4.1C798.2,1673.5,805.1,1691.7,800,1708.9z"/>
		<path class="st4" d="M761.6,1692.9c-4.6,0-9.2-0.1-13.8,0c-2.6,0.1-4.6-0.7-4.5-3.5c0-2.9,2.2-3.3,4.7-3.3c9.2,0.1,18.4,0,27.6,0
			c2.4,0,4.7,0.3,4.8,3.2c0.2,3.4-2.4,3.6-4.9,3.6C770.8,1692.8,766.2,1692.9,761.6,1692.9z"/>
		<path class="st4" d="M757.2,1709.3c-3.3,0-6.6,0-9.9,0c-2.4,0-4-1.1-4.1-3.5c-0.1-2.5,1.7-3.6,3.9-3.6c6.6-0.1,13.2-0.1,19.8,0
			c2.3,0,4.2,1.1,4.2,3.5c0,2.7-2,3.6-4.5,3.6C763.5,1709.2,760.3,1709.3,757.2,1709.3z"/>
	</g>
	<path class="st4" d="M1129,1670c0-8.3-2.7-10.9-10.9-10.9c-12.7,0-25.4,0-38.1,0c-13.1,0-26.1-0.1-39.2,0c-7,0-10,2.7-10,9.5
		c-0.1,19.3-0.1,38.5,0,57.8c0,6.7,3.3,9.8,9.9,9.8c25.8,0.1,51.5,0.1,77.3,0c7.7,0,11-3.3,11-11.2
		C1129,1706.7,1129,1688.4,1129,1670z M1117.8,1728.9c-25.4-0.1-50.8-0.1-76.2,0c-2.8,0-3.8-0.8-3.8-3.8c0.1-12.8,0.1-25.7,0.1-39.5
		c10,7.9,19.5,15.3,28.7,22.9c10.6,8.7,16,8.7,26.6,0c9.2-7.5,18.6-14.8,28.7-22.9c0,13.7-0.1,26.4,0.1,39
		C1122,1727.9,1120.9,1729,1117.8,1728.9z M1121.5,1672.3c-1.7,4.8-5,8.6-8.9,11.7c-8.4,6.8-16.9,13.6-25.4,20.3
		c-5.7,4.6-9,4.7-14.8,0.2c-9.1-7.1-18.1-14.4-27.1-21.7c-3.7-3-5.7-7-6.7-11.7c-0.7-3.6,0.3-4.5,3.8-4.5
		c12.5,0.1,25.1,0.1,37.6,0.1c12.5,0,25.1,0.2,37.6-0.1C1122.4,1666.6,1122.7,1668.9,1121.5,1672.3z"/>
	<g>
		<g>
			<path class="st4" d="M571.4,529.8l-1.1,1.2c-1.2,1.4-2.5,2.5-3.9,3.6c0,0,0,0,0,0c-15.7,11.4-38.5,23.8-52.6,35.3
				c-0.3,0.2-0.7,0.1-0.8-0.3c-8.7-38.2-17.3-76-25.9-113.6c0,0,0,0,0-0.1c-1.5-6.6-4.1-17.8-6-26.2c0.5,0.4,1,0.9,1.4,1.3l0,0
				l0.5,0.5l0.1,0.1c0.8,1,1.5,2,2.4,3c0.1,0.1,0.2,0.2,0.3,0.3c18.9,24,42.3,47.2,64.4,70.9C557.5,513.9,564.6,521.8,571.4,529.8z"
				/>
			<path class="st4" d="M496.7,517.9c-29.2-34.5-90.4-49.3-117-81.8c19.6,3.3,57.8-8.3,82.5-11.4l0,0c1-0.1,2-0.2,3-0.3
				c0.3,0,0.5,0,0.8,0c0.2,0,0.4,0,0.7,0c1.6,0,3.2,0.3,4.6,0.6s2.8,0.8,4.1,1.4c0.8,0.4,1.4,1.1,1.6,2.1
				c2.4,10.1,4.8,20.4,7.1,30.7c4.5,19.4,9.1,39.1,13.5,58.2C497.9,518,497.1,518.3,496.7,517.9z"/>
			<path d="M508.6,570.7"/>
			<path class="st4" d="M581.6,431.9c-0.7,6-1.3,12-1.8,17.8c-1.9,23.6-2.5,46.4-5.2,71.4l0,0c-0.1,1.2-0.4,2.5-0.7,3.6l-0.6,2
				c-6.5-7.7-13.3-14.9-20.2-22.2c-8.3-8.7-16.7-17.5-24.9-27.2c29.8-23.7,30.9-28.2,46.1-42.1l0,0c0.7-0.6,1.3-1.2,2-1.8
				C577.9,432.4,579.7,431.8,581.6,431.9L581.6,431.9z"/>
			<path class="st4" d="M625.3,470.7c-15,0.6-28.9,1.1-43.9,1.7c0.6-7.6,1.1-15.1,1.6-22.7c0.4-5.8,0.8-11.6,1.3-17.7
				c1.2,0.3,2.3,0.8,3.3,1.6c0.5,0.5,1.1,1.1,1.6,1.6C601.5,447.3,613.3,458.9,625.3,470.7z"/>
			<path class="st4" d="M500.7,530.8c-1.4-6.8-5.7-10.7-10.7-15.3c-0.3-0.2-0.6-0.1-0.7,0.2c-13.9,36.2-27.6,71.8-41.6,108.3
				c-0.1,0.4,0.2,0.7,0.6,0.6c0.5-0.2,0.7-0.2,0.8-0.4c9.4-7.8,18.9-15.6,28.3-23.5c0.3-0.3,0.7,0,0.7,0.4c0.3,6.6,0.5,13.3,0.8,20
				c0,0.4,0.6,0.6,0.8,0.3c0,0,0,0,0,0c5-9.8,10.1-19.6,15.1-29.4c0.2-0.3,0.6-0.4,0.8,0c4.7,8.2,9.4,16.5,14.2,24.8
				c0.2,0.4,0.8,0.3,0.9-0.1v0c-0.1-15.2-0.2-29.9-0.4-45.1"/>
		</g>
		<circle class="st25" cx="499.9" cy="508.8" r="274.3"/>
		<circle class="st26" cx="499.9" cy="508.8" r="444.8"/>
		<circle class="st27" cx="327" cy="302.7" r="70.9"/>
		<circle class="st27" cx="652.5" cy="285.7" r="70.9"/>
		<circle class="st27" cx="528.3" cy="778.2" r="70.9"/>
		<circle class="st27" cx="341.3" cy="925.6" r="70.9"/>
		<circle class="st27" cx="70.9" cy="625.5" r="70.9"/>
		<circle class="st27" cx="436.9" cy="70.9" r="70.9"/>
		<circle class="st27" cx="923.7" cy="400.4" r="70.9"/>
		<circle class="st27" cx="838.5" cy="797" r="70.9"/>
		<g>
			<rect x="649.7" y="266.4" class="st28" width="8" height="35.3"/>
			<rect x="639.7" y="248.2" class="st4" width="27.5" height="19.3"/>
			<rect x="643.9" y="298.8" class="st29" width="19.3" height="19.3"/>
			<rect x="624.2" y="283.1" class="st28" width="7.4" height="24.5"/>
			<rect x="675.3" y="283.1" class="st28" width="8.1" height="23.7"/>
			<rect x="618.4" y="298.8" class="st29" width="19.3" height="19.3"/>
			<rect x="669.1" y="298.8" class="st29" width="19.3" height="19.3"/>
			<rect x="624.2" y="279.1" class="st28" width="59.2" height="8"/>
		</g>
		<g>
			<circle class="st30" cx="822.8" cy="797" r="27.1"/>
			<circle class="st30" cx="855.8" cy="797" r="27.1"/>
		</g>
		<polygon class="st4" points="884.9,427 966,427 949.7,400.9 901.8,400.9 		"/>
		<polygon class="st29" points="914.2,380 936.4,380 949.7,400.9 901.8,400.9 		"/>
		<polygon class="st28" points="936.4,380 914.2,380 925.8,363 		"/>
		<g>
			<rect x="477" y="776.6" class="st29" width="86.7" height="3.7"/>
			<path class="st29" d="M562.6,763v32.3c0,0,17-1.1,17-14.9c0-13.8-11.9-17.3-15.9-17.3"/>
			<polygon class="st29" points="524.9,763 547.5,763 547.5,793.6 524.9,793.6 524.9,786.7 542.6,786.7 542.6,770.1 524.9,770.1 			
				"/>
			<polygon class="st29" points="485.7,763 508.3,763 508.3,793.6 485.7,793.6 485.7,786.7 503.5,786.7 503.5,770.1 485.7,770.1 			
				"/>
		</g>
		<rect x="325" y="279.7" class="st28" width="6.7" height="12.2"/>
		
			<rect x="309.1" y="283.1" transform="matrix(0.5797 -0.8148 0.8148 0.5797 -106.5368 377.2366)" class="st28" width="6.7" height="17.7"/>
		
			<rect x="333.5" y="305.4" transform="matrix(0.7815 -0.6239 0.6239 0.7815 -122.4493 278.823)" class="st28" width="6.7" height="17.7"/>
		
			<rect x="338.5" y="289.7" transform="matrix(6.123234e-17 -1 1 6.123234e-17 43.3392 640.4636)" class="st28" width="6.7" height="17.7"/>
		
			<rect x="314.2" y="305.4" transform="matrix(0.79 0.6132 -0.6132 0.79 260.0992 -128.4931)" class="st28" width="6.7" height="19.9"/>
		<circle class="st4" cx="328.3" cy="301.9" r="11.7"/>
		<circle class="st29" cx="328.3" cy="274.6" r="7.8"/>
		<circle class="st29" cx="300.8" cy="283.6" r="7.8"/>
		<circle class="st29" cx="307.2" cy="328.1" r="7.8"/>
		<circle class="st29" cx="345.9" cy="325.6" r="7.8"/>
		<circle class="st29" cx="353.3" cy="298" r="7.8"/>
		<g>
			<circle class="st29" cx="364.3" cy="948.6" r="11.4"/>
			<circle class="st4" cx="318.3" cy="903.4" r="11.4"/>
			<rect x="309" y="938.3" class="st29" width="19.2" height="19.2"/>
			<path class="st29" d="M362.4,915.1l-9.4-9.4c-1.2-1.2-1.2-3,0-4.2l9.4-9.4c1.2-1.2,3-1.2,4.2,0l9.4,9.4c1.2,1.2,1.2,3,0,4.2
				l-9.4,9.4C365.4,916.3,363.5,916.3,362.4,915.1z"/>
			<polygon class="st28" points="316.6,927.4 312.4,927.4 318.9,920.9 324.7,927.4 320.3,927.4 320.3,934.9 316.7,934.9 			"/>
			<polygon class="st28" points="366.2,927.2 370.4,927.2 363.9,933.7 358.1,927.2 362.5,927.2 362.5,919.6 366.1,919.6 			"/>
			<polygon class="st28" points="341.4,902.1 341.4,897.9 347.9,904.4 341.4,910.2 341.4,905.9 333.9,905.9 333.9,902.2 			"/>
		</g>
		<g>
			<path class="st4" d="M42.3,627l-5.2,4.2c0,0-4.4-13.9,5.2-21c6.8-5,12.6-4.6,12.6-4.6l32-0.3v-12.6l18.7,16.1L86.5,625l0.3-13.1
				h-33C53.8,611.9,42.2,612.9,42.3,627z"/>
			<path class="st4" d="M99.4,622.3l5.2-4.2c0,0,4.4,13.9-5.2,21c-6.8,5-12.6,4.6-12.6,4.6l-32,0.3v12.6l-18.7-16.1l19.1-16.2
				l-0.3,13.1h33C88,637.4,99.6,636.4,99.4,622.3z"/>
		</g>
		<g>
			<circle class="st31" cx="436.9" cy="70.9" r="41.9"/>
			<circle class="st32" cx="436.9" cy="70.9" r="23.1"/>
		</g>
	</g>
</g>
</svg>
