<?xml version="1.0" encoding="utf-8"?>
<!-- Generator: Adobe Illustrator 23.1.0, SVG Export Plug-In . SVG Version: 6.00 Build 0)  -->
<svg version="1.1" id="Layer_1" transform="rotate(0)"
	 xmlns="http://www.w3.org/2000/svg" xmlns:xlink="http://www.w3.org/1999/xlink" x="0px" y="0px" viewBox="0 0 64 64"
	 style="enable-background:new 0 0 64 64;" xml:space="preserve">
<style type="text/css">
	.st0{fill:#5865F2;stroke:#FFFFFF;stroke-width:5.333333e-04;stroke-miterlimit:6.6667;}
</style>
<g id="SVGRepo_bgCarrier">
</g>
<g id="SVGRepo_tracerCarrier">
</g>
<path class="st0" d="M44.7,20.9c-2.4-1-4.9-1.8-7.6-2.2c-0.3,0.6-0.7,1.3-1,1.9c-2.8-0.4-5.6-0.4-8.4,0c-0.3-0.6-0.7-1.3-1-1.9
	c-2.7,0.4-5.2,1.2-7.6,2.2c-4.8,6.8-6.1,13.4-5.4,20c3.2,2.2,6.3,3.6,9.3,4.5c0.7-1,1.4-2,2-3.1c-1.1-0.4-2.1-0.9-3.1-1.4
	c0.3-0.2,0.5-0.4,0.8-0.6c6,2.7,12.6,2.7,18.5,0c0.3,0.2,0.5,0.4,0.8,0.6c-1,0.6-2,1-3.1,1.4c0.6,1.1,1.2,2.1,2,3.1
	c3-0.9,6.1-2.2,9.3-4.5C50.9,33.3,48.9,26.7,44.7,20.9z M25.9,36.8c-1.8,0-3.3-1.6-3.3-3.5s1.5-3.5,3.3-3.5c1.8,0,3.3,1.6,3.3,3.5
	C29.2,35.3,27.8,36.8,25.9,36.8z M38.1,36.8c-1.8,0-3.3-1.6-3.3-3.5s1.5-3.5,3.3-3.5s3.3,1.6,3.3,3.5C41.4,35.3,39.9,36.8,38.1,36.8
	z"/>
</svg>
