<?xml version="1.0" encoding="utf-8"?>
<!-- Generator: Adobe Illustrator 23.1.0, SVG Export Plug-In . SVG Version: 6.00 Build 0)  -->
<svg version="1.1" id="Layer_1" xmlns="http://www.w3.org/2000/svg" xmlns:xlink="http://www.w3.org/1999/xlink" x="0px" y="0px"
	 viewBox="0 0 64 64" style="enable-background:new 0 0 64 64;" xml:space="preserve">
<style type="text/css">
	.st0{fill:#4285F4;}
	.st1{fill:#EA4335;}
	.st2{fill:#34A853;}
	.st3{fill:#C5221F;}
	.st4{fill:#FBBC04;}
</style>
<g id="SVGRepo_bgCarrier">
</g>
<g id="SVGRepo_tracerCarrier">
</g>
<g>
	<path class="st0" d="M19.8,48.9V31.1L9.5,23.3v21.9c0,2.5,1.3,3.8,3.8,3.8"/>
	<path class="st1" d="M19.3,31L32,40.6L44.8,31V18.8L32,28.4l-12.8-9.6"/>
	<path class="st2" d="M44.3,48.9V31.1l10.3-7.9v21.9c0,2.5-1.3,3.8-3.8,3.8"/>
	<path class="st3" d="M9.5,23.5l10.3,7.9V19.1L16,16.3c-3.4-2.6-6.5,0-6.5,3.3"/>
	<path class="st4" d="M54.5,23.5l-10.3,7.9V19.1l3.8-2.9c3.4-2.6,6.5,0,6.5,3.3"/>
</g>
</svg>
