<?xml version="1.0" encoding="utf-8"?>
<!-- Generator: Adobe Illustrator 23.1.0, SVG Export Plug-In . SVG Version: 6.00 Build 0)  -->
<svg version="1.1" xmlns="http://www.w3.org/2000/svg" xmlns:xlink="http://www.w3.org/1999/xlink" x="0px" y="0px"
	 viewBox="0 0 1659.7 310.4" style="enable-background:new 0 0 1659.7 310.4;" xml:space="preserve">
<style type="text/css">
	.st0{fill:#6547EB;}
	.st1{fill:none;stroke:#333333;stroke-width:16;stroke-linecap:round;stroke-linejoin:round;stroke-miterlimit:10;}
</style>
<g id="Layer_1">
	<g>
		<path class="st0" d="M297.2,163.5l-1.6,1.8c-1.8,2.1-3.9,4-6.1,5.6l0,0c-24.3,17.7-59.7,37-81.6,54.7c-0.4,0.4-1.1,0.1-1.2-0.4
			c-13.5-59.3-26.8-117.7-40.1-176v-0.1c-2.3-10.2-6.3-27.7-9.3-40.6c0.8,0.6,1.5,1.3,2.3,2l0.1,0.1l0.8,0.8l0.1,0.2
			c1.2,1.6,2.4,3.1,3.6,4.7c0.1,0.2,0.3,0.3,0.4,0.5c29.3,37.2,65.6,73.1,99.9,109.9C275.6,138.7,286.7,151,297.2,163.5z"/>
		<path class="st0" d="M181.4,144.9C136.1,91.3,41.2,68.5,0,18.1C30.4,23.2,89.6,5.2,127.9,0.5l0,0c1.6-0.2,3.1-0.4,4.6-0.5
			c0.4,0,0.8,0,1.2,0s0.7,0,1,0c2.5,0,4.9,0.4,7.2,1c2.2,0.5,4.4,1.3,6.4,2.2c1.3,0.6,2.2,1.8,2.5,3.2C154.6,22.1,158.3,38,162,54
			c7,30.1,14,60.5,21,90.2C183.2,145.1,182,145.7,181.4,144.9z"/>
		<path class="st0" d="M199.9,226.8"/>
		<path class="st0" d="M313,11.7c-1.1,9.3-2,18.5-2.7,27.6c-3,36.6-3.9,72-8.1,110.7l0,0c-0.2,1.9-0.6,3.8-1.1,5.6l-0.9,3
			c-10-12-20.6-23.1-31.2-34.4c-12.8-13.5-25.9-27.1-38.6-42.2c46.2-36.8,47.8-43.7,71.5-65.3l0,0c1-0.9,2-1.9,3.1-2.8
			C307.2,12.4,310,11.6,313,11.7L313,11.7z"/>
		<path class="st0" d="M380.8,71.9c-23.3,0.9-44.8,1.8-68,2.7c1-11.8,1.7-23.4,2.5-35.1c0.6-9,1.2-18,2-27.4
			c1.9,0.5,3.6,1.3,5.1,2.4c0.8,0.8,1.7,1.7,2.5,2.5C343.9,35.6,362.1,53.5,380.8,71.9z"/>
		<path class="st0" d="M187.5,165c-2.2-10.5-8.8-16.7-16.6-23.7c-0.4-0.3-1-0.2-1.2,0.3c-21.5,56.1-42.8,111.4-64.5,167.9
			c-0.2,0.6,0.3,1.1,0.9,0.9c0.7-0.3,1.1-0.4,1.3-0.6c14.6-12.1,29.3-24.2,43.9-36.3c0.5-0.4,1.2-0.1,1.2,0.5
			c0.4,10.3,0.8,20.6,1.2,31c0,0.7,0.9,1,1.3,0.4c0,0,0,0,0-0.1c7.8-15.2,15.6-30.3,23.4-45.5c0.3-0.5,1-0.5,1.3,0
			c7.3,12.7,14.6,25.5,22,38.4c0.3,0.6,1.2,0.4,1.3-0.2v-0.1c-0.2-23.5-0.3-46.4-0.6-69.9"/>
	</g>
	<line class="st1" x1="593.4" y1="25.5" x2="459.4" y2="260.8"/>
</g>
<g id="Layer_2">
	<g>
		<path class="st0" d="M928.4,42.3v205.5c0,4.8-2.7,7.5-7.5,7.5h-28.3c-4.8,0-7.5-2.7-7.5-7.5V107.2l-46.4,107.1
			c-1.6,3.9-4.5,5.7-8.7,5.7H811c-4.2,0-7.1-1.7-8.7-5.7L756,107.2v140.6c0,4.8-2.7,7.5-7.5,7.5h-28.3c-4.8,0-7.5-2.7-7.5-7.5V42.3
			c0-4.8,2.7-7.5,7.5-7.5h28.3h7.4c4.2,0,7.1,1.7,8.7,5.7l56,129.1l56-129.1c1.6-3.9,4.5-5.7,8.7-5.7h21.6h14.2
			C925.7,34.8,928.4,37.5,928.4,42.3z"/>
		<path class="st0" d="M976.8,34.8h28.3c4.8,0,7.5,2.7,7.5,7.5v205.5c0,4.8-2.7,7.5-7.5,7.5h-28.3c-4.8,0-7.5-2.7-7.5-7.5V42.3
			C969.3,37.5,972,34.8,976.8,34.8z"/>
		<path class="st0" d="M1041.4,195.1c-0.3-5.1,2.6-7.8,7.4-7.8h28.4c4.5,0,6.9,2.4,7.7,7.2c2.7,15,15.3,22.8,36.6,22.8
			c22.1,0,32.5-9.5,32.5-22.3c0-15.7-17.6-22.5-38.6-29.9c-31.7-11.2-70.5-23.7-70.5-70.5c0-42.2,35-64,71.6-64
			c36.4,0,70.5,19.9,74.1,63.2c0.3,5.1-2.6,7.8-7.4,7.8h-28.4c-4.5,0-6.9-2.4-7.7-7.2c-2.6-14.6-13.5-21.6-30.5-21.6
			c-17.9,0-28.3,9.1-28.3,21.8c0,16.2,15.2,23.4,35.5,30.9c32,11.5,73.5,23.1,73.5,69.6c0,42.3-34.9,64.5-75.8,64.5
			C1080.7,259.5,1045,239.1,1041.4,195.1z"/>
		<path class="st0" d="M1352.4,42.3v26.6c0,4.8-2.7,7.5-7.5,7.5h-45.7v171.4c0,4.8-2.7,7.5-7.5,7.5h-28.3c-4.8,0-7.5-2.7-7.5-7.5
			V76.3h-45.7c-4.8,0-7.5-2.7-7.5-7.5V42.3c0-4.8,2.7-7.5,7.5-7.5h89h45.7C1349.7,34.8,1352.4,37.5,1352.4,42.3z"/>
		<path class="st0" d="M1501.9,221.1v26.6c0,4.8-2.7,7.5-7.5,7.5h-95.6h-14.6c-4.8,0-7.5-2.7-7.5-7.5V42.3c0-4.8,2.7-7.5,7.5-7.5
			h28.3c4.8,0,7.5,2.7,7.5,7.5v171.4h74.4C1499.3,213.6,1501.9,216.3,1501.9,221.1z"/>
		<path class="st0" d="M1657,221.1v26.6c0,4.8-2.7,7.5-7.5,7.5h-109h-6.7c-4.8,0-7.5-2.7-7.5-7.5V42.3c0-4.8,2.7-7.5,7.5-7.5h35.8
			h78.3c4.8,0,7.5,2.7,7.5,7.5v26.6c0,4.8-2.7,7.5-7.5,7.5h-78.3v47.2h70.5c4.8,0,7.5,2.7,7.5,7.5v25.7c0,4.8-2.7,7.5-7.5,7.5h-70.5
			v49.5h79.9C1654.3,213.6,1657,216.3,1657,221.1z"/>
	</g>
</g>
</svg>
