<?xml version="1.0" encoding="utf-8"?>
<!-- Generator: Adobe Illustrator 23.1.0, SVG Export Plug-In . SVG Version: 6.00 Build 0)  -->
<svg version="1.1" id="Layer_1" xmlns="http://www.w3.org/2000/svg" xmlns:xlink="http://www.w3.org/1999/xlink" x="0px" y="0px"
	 viewBox="0 0 944.3 229" style="enable-background:new 0 0 944.3 229;" xml:space="preserve">
<style type="text/css">
	.st0{fill:#6547EB;}
</style>
<g>
	<g>
		<path class="st0" d="M215.7,11.7v205.5c0,4.8-2.7,7.5-7.5,7.5h-28.3c-4.8,0-7.5-2.7-7.5-7.5V76.6L126,183.7
			c-1.6,3.9-4.5,5.7-8.7,5.7h-19c-4.2,0-7.1-1.7-8.7-5.7L43.3,76.6v140.6c0,4.8-2.7,7.5-7.5,7.5H7.5c-4.8,0-7.5-2.7-7.5-7.5V11.7
			c0-4.8,2.7-7.5,7.5-7.5h28.3h7.4c4.2,0,7.1,1.7,8.7,5.7l56,129.1l56-129.1c1.6-3.9,4.5-5.7,8.7-5.7h21.6h14.2
			C213,4.2,215.7,6.9,215.7,11.7z"/>
		<path class="st0" d="M264.1,4.2h28.3c4.8,0,7.5,2.7,7.5,7.5v205.5c0,4.8-2.7,7.5-7.5,7.5h-28.3c-4.8,0-7.5-2.7-7.5-7.5V11.7
			C256.6,6.9,259.3,4.2,264.1,4.2z"/>
		<path class="st0" d="M328.7,164.5c-0.3-5.1,2.6-7.8,7.4-7.8h28.4c4.5,0,6.9,2.4,7.7,7.2c2.7,15,15.3,22.8,36.6,22.8
			c22.1,0,32.5-9.5,32.5-22.3c0-15.7-17.6-22.5-38.6-29.9c-31.7-11.2-70.5-23.7-70.5-70.5c0-42.2,35-64,71.6-64
			c36.4,0,70.5,19.9,74.1,63.2c0.3,5.1-2.6,7.8-7.4,7.8h-28.4c-4.5,0-6.9-2.4-7.7-7.2c-2.6-14.6-13.5-21.6-30.5-21.6
			c-17.9,0-28.3,9.1-28.3,21.8c0,16.2,15.2,23.4,35.5,30.9c32,11.5,73.5,23.1,73.5,69.6c0,42.3-34.9,64.5-75.8,64.5
			C368,228.9,332.3,208.5,328.7,164.5z"/>
		<path class="st0" d="M639.7,11.7v26.6c0,4.8-2.7,7.5-7.5,7.5h-45.7v171.4c0,4.8-2.7,7.5-7.5,7.5h-28.3c-4.8,0-7.5-2.7-7.5-7.5
			V45.7h-45.7c-4.8,0-7.5-2.7-7.5-7.5V11.7c0-4.8,2.7-7.5,7.5-7.5h89h45.7C637,4.2,639.7,6.9,639.7,11.7z"/>
		<path class="st0" d="M789.2,190.5v26.6c0,4.8-2.7,7.5-7.5,7.5h-95.6h-14.6c-4.8,0-7.5-2.7-7.5-7.5V11.7c0-4.8,2.7-7.5,7.5-7.5
			h28.3c4.8,0,7.5,2.7,7.5,7.5v171.4h74.4C786.6,183,789.2,185.7,789.2,190.5z"/>
		<path class="st0" d="M944.3,190.5v26.6c0,4.8-2.7,7.5-7.5,7.5h-109h-6.7c-4.8,0-7.5-2.7-7.5-7.5V11.7c0-4.8,2.7-7.5,7.5-7.5h35.8
			h78.3c4.8,0,7.5,2.7,7.5,7.5v26.6c0,4.8-2.7,7.5-7.5,7.5h-78.3V93h70.5c4.8,0,7.5,2.7,7.5,7.5v25.7c0,4.8-2.7,7.5-7.5,7.5h-70.5
			v49.5h79.9C941.6,183,944.3,185.7,944.3,190.5z"/>
	</g>
</g>
</svg>
