<?xml version="1.0" encoding="utf-8"?>
<!-- Generator: Adobe Illustrator 23.1.0, SVG Export Plug-In . SVG Version: 6.00 Build 0)  -->
<svg version="1.1" id="Layer_1" xmlns="http://www.w3.org/2000/svg" xmlns:xlink="http://www.w3.org/1999/xlink" x="0px" y="0px"
	 viewBox="0 0 560.5 457" style="enable-background:new 0 0 560.5 457;" xml:space="preserve">
<style type="text/css">
	.st0{fill:#6547EB;}
</style>
<g>
	<path class="st0" d="M437.5,240.6l-2.4,2.7c-2.7,3.1-5.7,5.8-9,8.2c0,0,0,0-0.1,0c-35.8,26-87.9,54.4-120.1,80.5
		c-0.6,0.5-1.6,0.2-1.8-0.6c-19.9-87.2-39.5-173.3-59.1-259.1c0-0.1,0-0.1,0-0.2c-3.4-15.1-9.3-40.7-13.7-59.8c1.1,0.9,2.3,2,3.3,3
		l0.1,0.1l1.1,1.2l0.2,0.3c1.8,2.3,3.5,4.6,5.4,6.9c0.2,0.2,0.4,0.5,0.6,0.7c43.1,54.8,96.6,107.6,147,161.8
		C405.7,204.2,422,222.3,437.5,240.6z"/>
	<path class="st0" d="M267,213.3C200.4,134.5,60.7,100.9,0,26.7c44.7,7.5,131.8-19,188.3-25.9c0,0,0,0,0,0c2.3-0.3,4.6-0.5,6.8-0.7
		c0.6,0,1.2,0,1.8,0c0.5,0,1,0,1.5,0c3.6,0.1,7.2,0.6,10.5,1.4c3.3,0.8,6.4,1.9,9.4,3.3c1.9,0.9,3.3,2.6,3.7,4.7
		c5.4,23.1,10.9,46.5,16.3,70c10.3,44.3,20.7,89.1,30.9,132.7C269.7,213.6,267.9,214.4,267,213.3z"/>
	<path d="M294.2,333.9"/>
	<path class="st0" d="M460.8,17.2c-1.6,13.8-2.9,27.3-4,40.7c-4.4,53.9-5.7,105.9-11.9,162.9c0,0,0,0,0,0c-0.3,2.8-0.9,5.6-1.7,8.3
		l-1.3,4.5c-14.8-17.6-30.3-34.1-46-50.6c-18.9-19.9-38.1-39.9-56.9-62.1c68-54.1,70.4-64.3,105.2-96.1c0,0,0,0,0,0
		c1.5-1.4,3-2.7,4.5-4.1C452.2,18.3,456.3,17,460.8,17.2C460.8,17.2,460.8,17.2,460.8,17.2z"/>
	<path class="st0" d="M560.5,105.8c-34.3,1.3-66,2.6-100.1,3.9c1.4-17.4,2.5-34.4,3.7-51.7c0.9-13.2,1.8-26.5,2.9-40.3
		c2.8,0.7,5.3,1.9,7.5,3.6c1.2,1.2,2.5,2.4,3.7,3.6C506.2,52.4,533,78.8,560.5,105.8z"/>
	<path class="st0" d="M276.1,242.9c-3.2-15.4-13-24.5-24.5-34.9c-0.6-0.5-1.4-0.3-1.7,0.4c-31.7,82.5-62.9,163.9-94.9,247.1
		c-0.3,0.8,0.5,1.7,1.4,1.4c1.1-0.4,1.6-0.5,1.9-0.8c21.5-17.8,43.1-35.6,64.6-53.5c0.7-0.6,1.7-0.1,1.7,0.8
		c0.6,15.1,1.2,30.3,1.8,45.6c0,1,1.3,1.4,1.9,0.6c0,0,0-0.1,0.1-0.1c11.5-22.3,23-44.7,34.4-67c0.4-0.7,1.4-0.8,1.9,0
		c10.7,18.8,21.5,37.6,32.4,56.6c0.5,0.9,1.8,0.6,2-0.3c0,0,0-0.1,0-0.1c-0.2-34.6-0.4-68.2-0.9-102.8"/>
</g>
<g>
</g>
<g>
</g>
<g>
</g>
<g>
</g>
<g>
</g>
<g>
</g>
<g>
</g>
<g>
</g>
<g>
</g>
<g>
</g>
<g>
</g>
<g>
</g>
<g>
</g>
<g>
</g>
<g>
</g>
</svg>
