<?xml version="1.0" encoding="utf-8"?>
<!-- Generator: Adobe Illustrator 23.1.0, SVG Export Plug-In . SVG Version: 6.00 Build 0)  -->
<svg version="1.1" id="Layer_1" xmlns="http://www.w3.org/2000/svg" xmlns:xlink="http://www.w3.org/1999/xlink" x="0px" y="0px"
	 viewBox="0 0 1838.8 310.4" style="enable-background:new 0 0 1838.8 310.4;" xml:space="preserve">
<style type="text/css">
	.st0{fill:#6547EB;}
	.st1{fill:none;stroke:#333333;stroke-width:16;stroke-linecap:round;stroke-linejoin:round;stroke-miterlimit:10;}
</style>
<g>
	<path class="st0" d="M297.2,163.5l-1.6,1.8c-1.8,2.1-3.9,4-6.1,5.6c0,0,0,0,0,0c-24.3,17.7-59.7,37-81.6,54.7
		c-0.4,0.4-1.1,0.1-1.2-0.4c-13.5-59.3-26.8-117.7-40.1-176c0,0,0-0.1,0-0.1c-2.3-10.2-6.3-27.7-9.3-40.6c0.8,0.6,1.5,1.3,2.3,2
		l0.1,0.1l0.8,0.8l0.1,0.2c1.2,1.6,2.4,3.1,3.6,4.7c0.1,0.2,0.3,0.3,0.4,0.5c29.3,37.2,65.6,73.1,99.9,109.9
		C275.6,138.7,286.7,151,297.2,163.5z"/>
	<path class="st0" d="M181.4,144.9C136.1,91.3,41.2,68.5,0,18.1C30.4,23.2,89.6,5.2,127.9,0.5c0,0,0,0,0,0c1.6-0.2,3.1-0.4,4.6-0.5
		c0.4,0,0.8,0,1.2,0c0.4,0,0.7,0,1,0c2.5,0,4.9,0.4,7.2,1c2.2,0.5,4.4,1.3,6.4,2.2c1.3,0.6,2.2,1.8,2.5,3.2
		C154.6,22.1,158.3,38,162,54c7,30.1,14,60.5,21,90.2C183.2,145.1,182,145.7,181.4,144.9z"/>
	<path class="st0" d="M199.9,226.8"/>
	<path class="st0" d="M313,11.7c-1.1,9.3-2,18.5-2.7,27.6c-3,36.6-3.9,72-8.1,110.7c0,0,0,0,0,0c-0.2,1.9-0.6,3.8-1.1,5.6l-0.9,3
		c-10-12-20.6-23.1-31.2-34.4c-12.8-13.5-25.9-27.1-38.6-42.2c46.2-36.8,47.8-43.7,71.5-65.3c0,0,0,0,0,0c1-0.9,2-1.9,3.1-2.8
		C307.2,12.4,310,11.6,313,11.7C313,11.7,313,11.7,313,11.7z"/>
	<path class="st0" d="M380.8,71.9c-23.3,0.9-44.8,1.8-68,2.7c1-11.8,1.7-23.4,2.5-35.1c0.6-9,1.2-18,2-27.4c1.9,0.5,3.6,1.3,5.1,2.4
		c0.8,0.8,1.7,1.7,2.5,2.5C343.9,35.6,362.1,53.5,380.8,71.9z"/>
	<path class="st0" d="M187.5,165c-2.2-10.5-8.8-16.7-16.6-23.7c-0.4-0.3-1-0.2-1.2,0.3c-21.5,56.1-42.8,111.4-64.5,167.9
		c-0.2,0.6,0.3,1.1,0.9,0.9c0.7-0.3,1.1-0.4,1.3-0.6c14.6-12.1,29.3-24.2,43.9-36.3c0.5-0.4,1.2-0.1,1.2,0.5
		c0.4,10.3,0.8,20.6,1.2,31c0,0.7,0.9,1,1.3,0.4c0,0,0,0,0-0.1c7.8-15.2,15.6-30.3,23.4-45.5c0.3-0.5,1-0.5,1.3,0
		c7.3,12.7,14.6,25.5,22,38.4c0.3,0.6,1.2,0.4,1.3-0.2c0,0,0-0.1,0-0.1c-0.2-23.5-0.3-46.4-0.6-69.9"/>
</g>
<line class="st1" x1="596.4" y1="25.5" x2="462.4" y2="260.8"/>
<path class="st0" d="M758.8,47.8l66.1,100.2L891,47.8c8.9-11.9,17.8-17.8,26.8-17.8c6,0,11.4,2.2,16.3,6.7c4.9,4.4,7.3,9.6,7.3,15.5
	v183.8c0,6.7-2.2,12.3-6.7,16.8c-4.5,4.4-9.9,6.7-16.3,6.7c-6.4,0-12-2.2-16.8-6.7c-4.8-4.4-7.2-10-7.2-16.8V126.7l-52.7,79.1
	c-4.5,5.9-10.1,8.8-16.9,8.8s-12.4-2.9-16.9-8.8l-52.7-79.1v109.2c0,6.7-2.2,12.3-6.7,16.8c-4.5,4.4-9.9,6.7-16.2,6.7
	c-6.3,0-11.7-2.2-16.2-6.7c-4.5-4.4-6.7-10-6.7-16.8V52.1c0-5.9,2.2-11,6.7-15.5c4.5-4.4,9.7-6.7,15.7-6.7
	C740.8,30,749.8,35.9,758.8,47.8z"/>
<path class="st0" d="M1015.9,36.6c4.5,4.4,6.7,9.6,6.7,15.5v183.8c0,6.7-2.2,12.3-6.7,16.8c-4.5,4.4-9.9,6.7-16.2,6.7
	c-6.3,0-11.7-2.2-16.2-6.7c-4.5-4.4-6.7-10-6.7-16.8V52.1c0-5.9,2.2-11,6.7-15.5c4.5-4.4,9.9-6.7,16.2-6.7
	C1006,30,1011.4,32.2,1015.9,36.6z"/>
<path class="st0" d="M1211.3,30.3c6.7,0,12.4,2.2,16.9,6.7c4.5,4.4,6.7,9.8,6.7,16.1c0,6.3-2.2,11.7-6.7,16.2
	c-4.5,4.5-10.1,6.7-16.9,6.7h-103.1c-7.5,0-11.2,4.1-11.2,12.2c0,4.5,2.2,7.8,6.7,10l90.7,41.3c12,4.5,21.7,12.1,29.2,22.9
	c7.5,10.8,11.2,22.4,11.2,35.1c0,17.9-6.2,32.7-18.5,44.6c-12.4,11.9-27.1,17.8-44.2,17.8h-98.6c-6.7,0-12.4-2.2-16.9-6.7
	c-4.5-4.5-6.7-9.9-6.7-16.2c0-6.3,2.2-11.7,6.7-16.1c4.5-4.4,10.1-6.7,16.9-6.7h98.6c4.5,0,8.4-1.5,11.7-4.4c3.3-2.9,5-7,5-12.3
	c0-7.4-3.7-12.6-11.1-15.6l-90.9-40.1c-11.1-4.5-20.1-11.6-26.8-21.2c-6.7-9.6-10.1-20.4-10.1-32.3c0-16.4,5.8-30.1,17.3-41.3
	c11.6-11.1,25.2-16.7,40.9-16.7H1211.3z"/>
<path class="st0" d="M1417.7,30.3c6,0,11.2,2.2,15.7,6.7c4.5,4.4,6.7,9.8,6.7,16.1c0,6.3-2.2,11.9-6.7,16.8
	c-4.5,4.9-9.7,7.3-15.7,7.3h-140c-6.7,0-12.4-2.4-16.9-7.3c-4.5-4.9-6.7-10.5-6.7-16.8c0-6.3,2.2-11.7,6.7-16.1
	c4.5-4.4,10.1-6.7,16.9-6.7H1417.7z M1370.7,115.5v122c0,6.6-2.2,12.2-6.7,16.7c-4.5,4.5-9.9,6.7-16.3,6.7c-6.4,0-11.8-2.2-16.2-6.7
	c-4.4-4.5-6.7-10.1-6.7-16.7v-122c0-6.6,2.2-12.2,6.7-16.7c4.4-4.5,9.8-6.7,16.2-6.7c6.4,0,11.8,2.2,16.3,6.7
	C1368.4,103.3,1370.7,108.9,1370.7,115.5z"/>
<path class="st0" d="M1513.4,52.1v161.7h103.1c6,0,11.2,2.2,15.7,6.7c4.5,4.4,6.7,9.8,6.7,16.1c0,6.3-2.2,11.7-6.7,16.1
	c-4.5,4.4-9.7,6.7-15.7,6.7h-125.4c-6.7,0-12.4-2.2-16.9-6.7c-4.5-4.4-6.7-10-6.7-16.8V52.1c0-5.9,2.2-11,6.7-15.5
	c4.5-4.4,9.9-6.7,16.2-6.7c6.3,0,11.7,2.2,16.2,6.7C1511.2,41.1,1513.4,46.2,1513.4,52.1z"/>
<path class="st0" d="M1713.3,144.6v69.2h101.9c6.7,0,12.4,2.2,16.9,6.7c4.5,4.4,6.7,9.8,6.7,16.1c0,6.3-2.2,11.7-6.7,16.1
	c-4.5,4.4-10.1,6.7-16.9,6.7h-125.4c-6,0-11.2-2.2-15.7-6.7c-4.5-4.4-6.7-10-6.7-16.8V121.3"/>
<path class="st0" d="M1815.2,31.2c6.7,0.8,12.4,3.3,16.9,7.8c4.5,4.4,6.7,9.8,6.7,16.1c0,6.3-2.2,11.7-6.7,16.1
	c-4.5,4.4-10.1,6.7-16.9,6.7h-101.9v43.8h101.9c6.7,0,12.4,2.2,16.9,6.7c4.5,4.4,6.7,9.8,6.7,16.1c0,6.3-2.2,11.7-6.7,16.1
	c-4.5,4.4-10.1,6.7-16.9,6.7h-125.4c-6,0-11.2-2.2-15.7-6.7c-4.5-4.4-6.7-10-6.7-16.8V54.6c0-6,2.2-11.2,6.7-15.7
	c4.5-4.4,9.7-7,15.7-7.8H1815.2z"/>
<g>
</g>
<g>
</g>
<g>
</g>
<g>
</g>
<g>
</g>
<g>
</g>
<g>
</g>
<g>
</g>
<g>
</g>
<g>
</g>
<g>
</g>
<g>
</g>
<g>
</g>
<g>
</g>
<g>
</g>
</svg>
