<?xml version="1.0" encoding="utf-8"?>
<!-- Generator: Adobe Illustrator 23.1.0, SVG Export Plug-In . SVG Version: 6.00 Build 0)  -->
<svg version="1.1" id="Layer_1" xmlns="http://www.w3.org/2000/svg" xmlns:xlink="http://www.w3.org/1999/xlink" x="0px" y="0px"
	 viewBox="0 0 387.8 329.1" style="enable-background:new 0 0 387.8 329.1;" xml:space="preserve">
<style type="text/css">
	.st0{fill:#212121;}
	.st1{fill:#263238;}
	.st2{fill:#111111;}
	.st3{fill:#6547EB;}
	.st4{opacity:0.7;fill:#FFFFFF;enable-background:new    ;}
	.st5{opacity:0.2;enable-background:new    ;}
	.st6{fill:#E0E0E0;}
	.st7{fill:#B55B52;}
	.st8{fill:#A02724;}
	.st9{opacity:0.4;enable-background:new    ;}
	.st10{fill:#FFFFFF;}
</style>
<g>
	<g id="freepik--Shadow--inject-61">
		<ellipse id="freepik--path--inject-61" class="st0" cx="193.9" cy="317.8" rx="193.9" ry="11.3"/>
	</g>
	<polygon class="st1" points="115,317.8 117.8,317.8 135.5,111.8 132.8,111.8 	"/>
	<polygon class="st1" points="167.4,317.8 164.7,317.8 146.9,111.8 149.7,111.8 	"/>
	<polygon class="st2" points="40.3,203.3 277.9,203.3 257.2,20.3 19.6,20.3 	"/>
	<path class="st3" d="M278.2,203.5H40.1L19.3,20h238.1L278.2,203.5z M40.6,203h237L256.9,20.5h-237L40.6,203z"/>
	<rect x="193.7" y="16.9" class="st3" width="8.6" height="0.5"/>
	<rect x="211.3" y="16.9" class="st3" width="24" height="0.5"/>
	<polygon class="st0" points="42.8,203.3 280.4,203.3 259.6,20.3 22.1,20.3 	"/>
	<path class="st3" d="M280.7,203.5H42.6L21.8,20h238.1L280.7,203.5z M43,203h237L259.4,20.5h-237L43,203z"/>
	<path class="st3" d="M152.3,105.7l24.8-42.3c-10.4-6.9-22.8-10.1-35.2-9.1c-11.7,0.9-22.5,6.2-30.3,14.9L152.3,105.7z"/>
	<path class="st4" d="M152.3,105.7l24.8-42.3c-10.4-6.9-22.8-10.1-35.2-9.1c-11.7,0.9-22.5,6.2-30.3,14.9L152.3,105.7z"/>
	<path class="st3" d="M152.3,105.7l35.2,60.7c6.7-3.3,12.6-7.8,17.5-13.4c23-26,18.2-68.8-10.7-94.7c-3.1-2.8-6.3-5.3-9.8-7.5
		L152.3,105.7z"/>
	<path class="st5" d="M152.3,105.7l35.2,60.7c6.7-3.3,12.6-7.8,17.5-13.4c23-26,18.2-68.8-10.7-94.7c-3.1-2.8-6.3-5.3-9.8-7.5
		L152.3,105.7z"/>
	<path class="st1" d="M152.3,105.7L76.7,86c-4,26.2,6.6,54.2,28,73.4c25.1,22.5,60.2,28.6,87.5,15.2L152.3,105.7z"/>
	<polygon class="st6" points="212.1,42.3 247.3,42.3 246.4,35.1 211.3,35.1 	"/>
	<polygon class="st6" points="226,53.4 248.5,53.4 247.7,46.3 225.2,46.3 	"/>
	<polygon class="st6" points="234.9,181.3 263,181.3 263.8,188.4 235.7,188.4 	"/>
	<polygon class="st6" points="239.2,170.1 261.7,170.1 262.5,177.3 240,177.3 	"/>
	<polygon class="st6" points="219.2,170.1 235.5,170.1 236.3,177.3 220,177.3 	"/>
	<polygon class="st6" points="75,46.3 39.8,46.3 40.7,53.4 75.8,53.4 	"/>
	<polygon class="st6" points="61.1,35.1 38.6,35.1 39.4,42.3 61.9,42.3 	"/>
	<polygon class="st6" points="82.8,177.3 54.7,177.3 53.9,170.1 82,170.1 	"/>
	<polygon class="st6" points="78.5,188.4 56,188.4 55.2,181.3 77.7,181.3 	"/>
	<polygon class="st6" points="98.5,188.4 82.2,188.4 81.4,181.3 97.7,181.3 	"/>
	<g id="freepik--Character--inject-61">
		<path class="st7" d="M354.2,66.9c0.4,0.6,0.6,1,0.9,1.5s0.5,0.9,0.8,1.4c0.5,0.9,1,1.9,1.4,2.8c0.9,1.9,1.7,3.8,2.5,5.7
			c1.5,3.9,2.8,7.8,3.8,11.9c0.3,1,0.5,2,0.7,3l0.2,0.8c0,0.1,0.1,0.3,0.1,0.5l0.1,0.6c0.1,0.8,0.1,1.6,0,2.3
			c-0.1,1.6-0.6,3.1-1.4,4.4c-0.7,1.2-1.6,2.2-2.7,3.1c-1.8,1.5-3.9,2.7-6.1,3.4c-1,0.4-2.1,0.7-3.1,0.9c-1.1,0.3-2.1,0.4-3.2,0.6
			l-1-4.3c3.3-1.5,6.8-3.5,8.6-5.7c0.4-0.5,0.8-1,1-1.6c0.2-0.4,0.2-0.9,0.2-1.3c0-0.2-0.1-0.4-0.1-0.6l-0.3-1.1
			c-0.3-0.9-0.5-1.8-0.8-2.8c-1.1-3.6-2.5-7.2-4-10.7c-0.7-1.8-1.5-3.5-2.4-5.2c-0.4-0.9-0.8-1.7-1.3-2.5l-0.7-1.2l-0.6-1.1
			L354.2,66.9z"/>
		<path class="st7" d="M348.6,104.8l-7.1,1.1l3.5,5.9c0,0,5.1-0.8,6.6-4.1L348.6,104.8z"/>
		<polygon class="st7" points="336.5,108.4 338.9,113.7 345,111.7 341.5,105.9 		"/>
		<path class="st3" d="M334.9,309.4c0.8,0,1.6-0.1,2.3-0.3c0.1,0,0.1-0.1,0.2-0.2c0-0.1,0-0.2-0.1-0.2c-0.3-0.2-2.9-1.9-4-1.5
			c-0.2,0.1-0.4,0.3-0.4,0.6c-0.1,0.4,0,0.8,0.3,1.1C333.7,309.3,334.3,309.5,334.9,309.4z M336.6,308.8c-1.5,0.3-2.7,0.3-3.1-0.1
			c-0.2-0.2-0.3-0.5-0.2-0.7c0-0.1,0.1-0.2,0.2-0.3C334,307.4,335.6,308.2,336.6,308.8z"/>
		<path class="st3" d="M337.2,309.1h0.1c0.1,0,0.1-0.1,0.1-0.2s0-2.6-0.9-3.5c-0.2-0.2-0.6-0.3-0.9-0.3s-0.6,0.2-0.7,0.6
			C334.7,306.7,336.3,308.6,337.2,309.1C337.1,309.1,337.1,309.1,337.2,309.1z M335.7,305.6c0.2,0,0.3,0.1,0.5,0.2
			c0.5,0.8,0.8,1.8,0.8,2.8c-0.8-0.7-1.8-2.1-1.7-2.7C335.3,305.8,335.4,305.6,335.7,305.6L335.7,305.6z"/>
		<path class="st3" d="M327.6,303.6c0-0.1,0-0.1,0-0.2s-0.1-0.1-0.2-0.1c-0.4,0.1-4.2,0.8-4.8,1.8c0,0,0,0,0,0.1
			c-0.1,0.2-0.1,0.5,0,0.7c0.2,0.3,0.5,0.5,0.9,0.6C324.7,306.5,326.6,304.7,327.6,303.6L327.6,303.6z M323,305.3
			c0.4-0.6,2.4-1.2,3.9-1.5c-1.4,1.4-2.6,2.3-3.4,2.2c-0.2,0-0.5-0.2-0.6-0.4C322.9,305.5,322.9,305.5,323,305.3
			C323,305.4,322.9,305.4,323,305.3L323,305.3z"/>
		<path class="st3" d="M327.6,303.6L327.6,303.6c0-0.1,0-0.1,0-0.2c-0.1-0.1-1.6-1.8-3-1.9c-0.4,0-0.8,0.1-1.1,0.4
			c-0.5,0.4-0.4,0.7-0.3,0.9c0.4,0.9,3.2,1.1,4.3,0.9C327.6,303.7,327.6,303.7,327.6,303.6z M323.6,302.4c0.1-0.1,0.1-0.1,0.2-0.2
			c0.2-0.2,0.5-0.3,0.9-0.3c1,0.2,1.8,0.7,2.5,1.5c-1.2,0.1-3.2-0.2-3.5-0.7C323.5,302.5,323.5,302.5,323.6,302.4L323.6,302.4z"/>
		<path class="st7" d="M335.2,36.3c-1,5.2-3.2,16.6,0.4,20c0,0-1.4,5.3-11.1,5.5c-10.6,0.2-5.1-5.2-5.1-5.2c5.8-1.5,5.6-5.8,4.6-9.8
			L335.2,36.3z"/>
		<path class="st1" d="M316.8,24.8c0.1,0,0.1,0,0.2,0c0.2-0.1,0.3-0.4,0.2-0.6c-0.6-1.2-1.7-2-3-2.3c-0.2,0-0.4,0.1-0.5,0.4l0,0
			c0,0.2,0.1,0.4,0.3,0.4l0,0l0,0c1,0.2,1.9,0.9,2.4,1.8C316.6,24.7,316.7,24.8,316.8,24.8z"/>
		<path class="st8" d="M314.2,29c-0.8,1.5-1.8,3-3,4.2c0.7,0.6,1.6,0.9,2.5,0.7L314.2,29z"/>
		<path class="st3" d="M312.8,32.9c-1.9,0-3.4-3-3.4-6.8s1.5-6.8,3.4-6.8s3.4,3,3.4,6.8S314.7,32.9,312.8,32.9z M312.8,19.5
			c-1.7,0-3.1,2.9-3.1,6.5s1.4,6.5,3.1,6.5s3.2-2.9,3.2-6.5S314.6,19.5,312.8,19.5z"/>
		<path class="st1" d="M315,27.9c-0.1,0.7-0.5,1.2-1,1.2s-0.8-0.7-0.7-1.4s0.5-1.2,1-1.2S315.1,27.2,315,27.9z"/>
		<path class="st1" d="M314.5,26.6l-1.6-0.7C312.9,25.9,313.6,27.3,314.5,26.6z"/>
		<polygon class="st7" points="335.9,300.4 327.8,304.2 318.9,286.4 327,282.6 		"/>
		<polygon class="st7" points="347.4,308.9 338.6,308.9 339.6,288.6 348.4,288.6 		"/>
		<path class="st1" d="M337.9,307.9h9.9c0.4,0,0.6,0.3,0.7,0.6l1,7.8c0.1,0.8-0.5,1.5-1.3,1.6h-0.1c-3.4-0.1-5.1-0.3-9.4-0.3
			c-2.7,0-6.6,0.3-10.3,0.3s-3.8-3.6-2.3-4c6.9-1.5,8-3.5,10.4-5.5C336.8,308.1,337.4,307.9,337.9,307.9z"/>
		<path class="st1" d="M327.4,302.4l8.1-6c0.3-0.2,0.7-0.2,0.9,0l5.4,5.5c0.5,0.6,0.4,1.5-0.2,2c0,0-0.1,0-0.1,0.1
			c-2.9,2-4.3,2.9-7.9,5.5c-2.2,1.6-6.6,5.2-9.6,7.5s-5.3-0.5-4.2-1.7c4.8-5.4,5.9-8.7,6.7-11.6
			C326.6,303.2,326.9,302.7,327.4,302.4z"/>
		<polygon class="st5" points="318.9,286.4 323.7,295.9 331.6,291.7 327,282.6 		"/>
		<polygon class="st5" points="348.4,288.6 339.6,288.6 339.1,299.1 347.9,299.1 		"/>
		<path class="st1" d="M350.8,58.1c3.7,0.7,7.6,13.8,7.6,13.8l-10.3,11.2c0,0-8.6-12.1-6.9-16.7C343.1,61.5,346.5,57.2,350.8,58.1z"
			/>
		<path class="st9" d="M345.1,66.5c-1.9-1.6-3.1-1.1-4,0.2c-0.8,3.9,4.2,12,6.2,15C348.3,78.1,349.3,70.3,345.1,66.5z"/>
		<path class="st1" d="M303.9,61.1c-0.7,3.8-0.8,15.5,5.2,51l35.7-0.7c-0.7-14.5-0.8-23.4,6-53.3c-5-0.9-10.1-1.5-15.2-1.7
			c-5.4-0.3-10.8-0.2-16.2,0.3c-5.2,0.6-10.9,1.7-13.5,2.2C304.9,59.2,304.1,60,303.9,61.1z"/>
		<path class="st7" d="M338.9,27.9c-1.5,8.6-2,12.3-6.9,16.2c-7.4,6-17.5,2.4-18.6-6.5c-0.9-8,1.8-20.7,10.6-23.2
			c6.2-1.9,12.7,1.6,14.6,7.8C339.2,24.1,339.3,26,338.9,27.9z"/>
		<path class="st1" d="M314.9,17.2c0-0.3-0.2-0.6-0.2-0.8s0.1-0.6,0.1-0.8s0-0.6,0-0.8s0.3-0.5,0.3-0.8s-0.1-0.6,0-0.9
			s0.2-0.5,0.3-0.8s0.3-0.5,0.4-0.7s0.2-0.5,0.3-0.8s0-0.6,0.2-0.8s0.5-0.3,0.7-0.6s0-0.7,0.1-0.9s0.5-0.4,0.6-0.6s0.3-0.5,0.4-0.7
			s0.4-0.4,0.6-0.6s0.5-0.3,0.7-0.5s0.2-0.6,0.4-0.8s0.5-0.3,0.7-0.5s0.5-0.3,0.7-0.4s0.3-0.5,0.5-0.7s0.7,0.1,0.9-0.1
			s0.5-0.3,0.7-0.4s0.5-0.3,0.7-0.4s0.3-0.6,0.6-0.7s0.6,0,0.9-0.1s0.4-0.4,0.7-0.5s0.6,0.2,0.9,0.1s0.4-0.5,0.7-0.6
			s0.5-0.2,0.8-0.2s0.6,0,0.9,0s0.5,0,0.8-0.1s0.5,0,0.8-0.1s0.5,0,0.8-0.1s0.5,0,0.8-0.1s0.5-0.1,0.8-0.1s0.5-0.1,0.8-0.1
			s0.6,0.2,0.8,0.2s0.5-0.2,0.8-0.2s0.6-0.2,0.8-0.2s0.5,0.3,0.8,0.3s0.5,0.2,0.8,0.2s0.6-0.3,0.9-0.2s0.5,0.3,0.8,0.3
			s0.6-0.1,0.8-0.1s0.5,0.3,0.8,0.3s0.6-0.1,0.9-0.1s0.5,0.2,0.8,0.2s0.5,0.1,0.8,0.2s0.5,0.2,0.8,0.3s0.5,0.3,0.7,0.4
			s0.5,0.2,0.7,0.3s0.6,0,0.9,0.1s0.5,0.2,0.8,0.3s0.4,0.3,0.7,0.5s0.3,0.5,0.6,0.7s0.5,0.2,0.8,0.3s0.6,0.1,0.8,0.3
			s0.2,0.6,0.4,0.8s0.6,0.2,0.8,0.3s0.4,0.4,0.6,0.6s0.2,0.6,0.4,0.8s0.4,0.3,0.6,0.6s0.4,0.3,0.6,0.6s0.4,0.4,0.6,0.6
			s0,0.6,0.2,0.8s0.6,0.3,0.7,0.5s0.1,0.6,0.2,0.8s0.3,0.5,0.4,0.7s0.5,0.4,0.6,0.6s0.3,0.5,0.4,0.7s0.1,0.6,0.2,0.8
			s0.2,0.5,0.3,0.8s0.1,0.5,0.2,0.8s0.1,0.5,0.2,0.8s-0.1,0.6,0,0.8s0.6,0.4,0.6,0.7s-0.4,0.6-0.3,0.9s0.2,0.5,0.2,0.8
			s-0.1,0.6,0,0.8s0,0.5,0,0.8s0.1,0.5,0.1,0.8s0.4,0.6,0.4,0.8s0,0.6,0,0.8s-0.1,0.6-0.1,0.8s-0.3,0.5-0.3,0.8s0,0.6-0.1,0.8
			s-0.1,0.6-0.1,0.8s0,0.6,0,0.8s-0.3,0.5-0.3,0.8s-0.4,0.5-0.4,0.8c-0.1,0.3,0,0.6-0.1,0.9s-0.3,0.5-0.4,0.7s0.1,0.6,0,0.9
			s-0.2,0.5-0.3,0.8s-0.4,0.4-0.5,0.7s-0.1,0.6-0.2,0.8s-0.5,0.4-0.6,0.6s-0.5,0.4-0.6,0.6s-0.2,0.6-0.3,0.8s-0.4,0.4-0.6,0.6
			s-0.1,0.6-0.3,0.8s-0.2,0.6-0.4,0.8s-0.5,0.3-0.7,0.5s-0.2,0.5-0.4,0.8s-0.5,0.3-0.7,0.5s-0.4,0.4-0.5,0.6s-0.5,0.3-0.7,0.5
			s-0.5,0.3-0.7,0.4s-0.3,0.6-0.5,0.7s-0.6,0.2-0.8,0.4s-0.6,0.1-0.8,0.3s-0.3,0.6-0.5,0.7s-0.6,0.1-0.8,0.2s-0.5,0.3-0.7,0.5
			s-0.4,0.5-0.6,0.6s-0.5,0.2-0.8,0.3s-0.6,0-0.9,0.1l-0.8,0.3c-0.3,0.1-0.4,0.5-0.7,0.6s-0.7-0.3-0.9-0.2s-0.5,0.4-0.8,0.4
			s-0.5,0.1-0.8,0.1s-0.6-0.1-0.9-0.1s-0.5,0.1-0.8,0.1s-0.5,0.5-0.8,0.5s-0.5-0.4-0.8-0.4v0.1c-0.4,0-0.7-0.1-1.1-0.1
			s-0.5-0.2-0.8-0.2s-0.6,0.4-0.9,0.4s-0.5-0.3-0.8-0.4s-0.5-0.2-0.8-0.2s-0.6,0.2-0.9,0.1s-0.5-0.2-0.8-0.3s-0.5-0.4-0.7-0.5
			s-0.6-0.1-0.8-0.2s-0.6-0.1-0.8-0.2s-0.4-0.5-0.6-0.6s-0.6-0.1-0.8-0.2s-0.3-0.6-0.5-0.8s-0.6-0.2-0.8-0.3s-0.3-0.5-0.5-0.7
			s-0.4-0.4-0.6-0.6s-0.7-0.1-0.9-0.3s-0.1-0.7-0.3-0.9s-0.6-0.3-0.8-0.5s-0.4-0.4-0.5-0.7s0.1-0.7,0-0.9s-0.4-0.4-0.5-0.7
			s-0.4-0.4-0.5-0.7s-0.1-0.6-0.1-0.8s-0.1-0.5-0.2-0.8s-0.6-0.4-0.6-0.7s0.1-0.6,0.1-0.9s-0.3-0.5-0.3-0.8s0.4-0.6,0.4-0.9
			s0-0.5,0-0.8s-0.4-0.5-0.4-0.8s0-0.5,0-0.8s0.1-0.5,0.1-0.8s0-0.5,0-0.8c0-0.2,0.2-0.5,0.2-0.7c-0.2-0.2-0.5-0.3-0.7-0.5
			s-0.2-0.6-0.4-0.8s-0.4-0.4-0.5-0.7s-0.5-0.3-0.7-0.6s-0.1-0.6-0.2-0.9s-0.3-0.5-0.4-0.8s-0.3-0.5-0.4-0.8s-0.2-0.5-0.3-0.8
			s-0.2-0.5-0.3-0.8s-0.2-0.5-0.2-0.8s-0.4-0.5-0.4-0.8s0-0.6,0-0.9s0.4-0.6,0.4-0.9S314.9,17.5,314.9,17.2z"/>
		<path class="st7" d="M317.8,29.1c-0.9,2,0.3,2.4,0.2,3.8c-0.3,3.1,1.1,3,2.2,1.4c1-1.4,2-4.3,1.1-5.9S318.6,27.3,317.8,29.1z"/>
		<path class="st3" d="M318.5,111.9c0,0,5.5,60.1,10.9,93.9c4.4,27.3,8.2,91.2,8.2,91.2h12c0,0,3.9-62.4,1.6-89.4
			c-5.9-68.5,6.3-74.3-6.4-96.2L318.5,111.9z"/>
		<path class="st9" d="M330.7,132c-3.1,4.6-7.3,9.9-8.6,15.4c1.1,10.1,2.3,21.3,3.7,32.1C329.1,170.5,334.7,152.4,330.7,132z"/>
		<path class="st3" d="M309.1,112.1c0,0-11.1,69.7-14.4,96.3c-3.5,27.7,24.2,84,24.2,84l11.9-6.5c0,0-15.9-58.4-14.8-72.5
			c3.9-29.6,24.7-101.9,24.7-101.9L309.1,112.1z"/>
		<path class="st10" d="M329,136.3h-7.2c-0.1,0-0.1,0-0.2-0.1l-3.4-2.7c-0.1-0.1-0.1-0.1-0.1-0.2l0.9-13.2c0-0.1,0.1-0.2,0.3-0.2
			h14.4c0.1,0,0.1,0,0.2,0.1c0,0.1,0.1,0.1,0.1,0.2l-0.9,13.2c0,0.1,0,0.1-0.1,0.2l-3.8,2.6C329.1,136.3,329,136.3,329,136.3z
			 M321.8,135.8h7l3.6-2.5l0.8-12.8h-13.9l-0.8,12.8L321.8,135.8z"/>
		<polygon class="st1" points="318.9,295.4 332.8,288.3 330.9,282.9 316,290.4 		"/>
		<polygon class="st1" points="336,297.3 351.3,297.3 352.1,291.9 336,291.4 		"/>
		<path class="st6" d="M345.3,109.3l1.6,3.2c0.1,0.2-0.2,0.5-0.6,0.5l-37.4,0.7c-0.3,0-0.6-0.1-0.6-0.4l-0.3-3.2
			c0-0.2,0.3-0.4,0.6-0.4l36.1-0.7C345,109,345.2,109.1,345.3,109.3z"/>
		<path class="st1" d="M340.5,113.4h1c0.2,0,0.3-0.1,0.3-0.2l-0.5-4.1c0-0.1-0.2-0.2-0.4-0.2h-1c-0.2,0-0.3,0.1-0.3,0.2l0.5,4.1
			C340.1,113.3,340.3,113.4,340.5,113.4z"/>
		<path class="st1" d="M317,113.9h1c0.2,0,0.3-0.1,0.3-0.2l-0.5-4.1c0-0.1-0.2-0.2-0.4-0.2h-1c-0.2,0-0.3,0.1-0.3,0.2l0.5,4.1
			C316.7,113.8,316.8,113.9,317,113.9z"/>
		<path class="st9" d="M304.4,79c0.2,1.7,0.4,3.4,0.6,5.4c4.4-2.6,4.4-9.9,5.5-13.3C308.5,71.4,303.8,72.3,304.4,79z"/>
		<path class="st7" d="M308.4,69.6c-1.4,4.5-3.1,9-5.1,13.3c-2,4.5-4.3,8.7-7.2,12.7c-0.9,1.3-2.1,2.4-3.4,3.3
			c-1.2,0.8-2.4,1.5-3.7,2c-2.4,1-4.9,1.6-7.4,2c-4.8,0.7-9.6,0.8-14.4,0.2l0.1-4.4c4.4-0.4,8.7-1.2,12.9-2.4c2-0.5,3.8-1.3,5.6-2.2
			c1.4-0.7,2.7-1.7,3.6-3.1c1.1-1.8,2.1-3.7,3-5.6s1.8-4,2.7-6c1.7-4.1,3.2-8.3,4.6-12.4L308.4,69.6z"/>
		<path class="st1" d="M304.1,59.7c-3.9,2.2-9.1,14.4-9.1,14.4l13,8.4c0,0,7.5-11.5,6.6-18.2C313.9,59.2,308.2,57.4,304.1,59.7z"/>
		<path class="st7" d="M269,102.7l-6.1,3.3l-1.9-7c0,0,5.3-1.8,8.4-0.1L269,102.7z"/>
		<path class="st3" d="M275.6,134l-29.3-58.4c-4.6,2.3-8.8,5.3-12.5,8.8c-3.8,3.6-7,7.7-9.6,12.2L275.6,134z"/>
		<polygon class="st7" points="258.8,107.4 255.8,101.8 260.9,99.1 262.9,106.1 		"/>
	</g>
</g>
</svg>
