<?xml version="1.0" encoding="utf-8"?>
<!-- Generator: Adobe Illustrator 23.1.0, SVG Export Plug-In . SVG Version: 6.00 Build 0)  -->
<svg version="1.1" id="Layer_1" xmlns="http://www.w3.org/2000/svg" xmlns:xlink="http://www.w3.org/1999/xlink" x="0px" y="0px"
	 viewBox="0 0 500 500" style="enable-background:new 0 0 500 500;" xml:space="preserve">
<style type="text/css">
	.st0{opacity:0.74;enable-background:new    ;}
	.st1{fill:#263238;}
	.st2{fill:#FFFFFF;}
	.st3{fill:#919191;}
	.st4{fill:#434A68;}
	.st5{fill:#141414;}
	.st6{opacity:0.1;fill:#FFFFFF;enable-background:new    ;}
	.st7{fill:#EFADA0;}
	.st8{fill:#8267F3;}
	.st9{fill:#878787;}
	.st10{fill:#6547EB;}
	.st11{fill:#C2C2C2;}
	.st12{fill:#8267F3;stroke:#8267F3;stroke-width:0.5;stroke-miterlimit:10.0003;}
	.st13{fill:none;}
</style>
<path class="st0" d="M453.1,275c-12.2,36.9-38.4,77.3-77,90.5c-58.3,19.9-63.5,67.7-169.4,67.4c-15.5,0-30.9-1.6-46-4.9
	c-7.4-1.6-14.6-3.7-21.8-6.3C76.3,399,56,371.9,51.1,314.4C44.7,238.8,82,174,115.5,151.6s71.7-106,175.8-106.4
	c6.2-0.1,12.5,0.2,18.7,0.7c15,1.2,28.7,8.8,37.8,20.7c25,32.7,65,14.9,84.2,41.1c1.6,2.2,3.2,4.5,4.7,6.9
	C466.3,160.3,469.7,224.7,453.1,275z"/>
<g id="freepik--Floor--inject-67">
	<path class="st1" d="M475.9,458.3H30.3c-0.3,0-0.5-0.2-0.5-0.5s0.2-0.5,0.5-0.5h445.5c0.3,0,0.5,0.2,0.5,0.5
		S476.1,458.3,475.9,458.3z"/>
</g>
<g>
	<g id="freepik--Asterisks--inject-67">
		<path class="st2" d="M41.8,209.7l-1.2-0.7l1.5-2.1l-2.3-0.9l0.5-1.3l2.2,1.1l-0.2-2.6h1.5l-0.3,2.6l2.2-1.1l0.5,1.3l-2.3,0.9
			l1.5,2.1l-1.2,0.7l-1.2-2.4L41.8,209.7z"/>
		<path class="st2" d="M49.4,209.7l-1.2-0.7l1.5-2.1l-2.2-0.9l0.5-1.3l2.2,1.1l-0.2-2.6h1.5l-0.3,2.6l2.2-1.1l0.5,1.3l-2.3,0.9
			l1.5,2.1l-1.2,0.7l-1.2-2.4L49.4,209.7z"/>
		<path class="st2" d="M57.1,209.7l-1.2-0.7l1.5-2.1l-2.3-0.9l0.5-1.3l2.2,1.1l-0.2-2.6h1.6l-0.3,2.6l2.2-1.1l0.5,1.3l-2.3,0.9
			l1.5,2.1l-1.2,0.7l-1.2-2.4L57.1,209.7z"/>
		<path class="st2" d="M64.7,209.7l-1.2-0.7l1.5-2.1l-2.3-0.9l0.5-1.3l2.2,1.1l-0.2-2.6h1.5l-0.3,2.6l2.2-1.1l0.5,1.3l-2.3,0.9
			l1.5,2.1l-1.3,0.7l-1.2-2.4L64.7,209.7z"/>
		<path class="st2" d="M72.3,209.7l-1.2-0.7l1.5-2.1l-2.3-0.9l0.5-1.3l2.2,1.2l-0.2-2.6h1.6l-0.3,2.6l2.2-1.1l0.5,1.3l-2.3,0.9
			l1.5,2l-1.3,0.7l-1.2-2.4L72.3,209.7z"/>
		<path class="st2" d="M79.9,209.7l-1.2-0.7l1.5-2.1L78,206l0.5-1.3l2.2,1.1l-0.2-2.6H82l-0.3,2.6l2.2-1.1l0.5,1.3l-2.3,0.9l1.5,2.1
			l-1.3,0.7l-1.2-2.4L79.9,209.7z"/>
		<path class="st2" d="M87.5,209.7l-1.2-0.7l1.5-2.1l-2.3-0.9l0.5-1.3l2.2,1.1l-0.2-2.6h1.6l-0.3,2.6l2.2-1.1L92,206l-2.3,0.9
			l1.5,2.1l-1.2,0.7l-1.2-2.4L87.5,209.7z"/>
		<path class="st2" d="M95.2,209.7L94,209l1.5-2.1l-2.3-0.9l0.5-1.3l2.2,1.1l-0.2-2.6h1.6l-0.3,2.6l2.2-1.1l0.5,1.3l-2.3,0.9
			l1.5,2.1l-1.2,0.7l-1.2-2.4L95.2,209.7z"/>
		<path class="st2" d="M102.8,209.7l-1.2-0.7l1.5-2.1l-2.3-0.9l0.5-1.3l2.2,1.1l-0.2-2.6h1.6l-0.3,2.6l2.2-1.1l0.5,1.3l-2.3,0.9
			l1.5,2.1l-1.2,0.7l-1.2-2.4L102.8,209.7z"/>
		<path class="st2" d="M170.8,46.8l-1.2-0.8l1.5-2.1l-2.3-0.9l0.5-1.3l2.2,1.2l-0.2-2.7h1.6l-0.3,2.7l2.2-1.2l0.5,1.3l-2.3,0.9
			l1.5,2.1l-1.2,0.7l-1.2-2.4L170.8,46.8z"/>
		<path class="st2" d="M178.4,46.8l-1.2-0.7l1.5-2.1l-2.3-0.9l0.5-1.3l2.2,1.2l-0.2-2.7h1.6l-0.3,2.7l2.2-1.2l0.5,1.3l-2.3,0.9
			l1.5,2.1l-1.3,0.7l-1.2-2.4L178.4,46.8z"/>
		<path class="st2" d="M186,46.8l-1.2-0.7l1.5-2.1l-2.2-0.9l0.5-1.3l2.2,1.2l-0.2-2.7h1.6l-0.3,2.7l2.2-1.1l0.5,1.3l-2.3,0.9
			l1.5,2.1l-1.3,0.7l-1.2-2.4L186,46.8z"/>
		<path class="st2" d="M193.7,46.8l-1.2-0.7L194,44l-2.3-0.9l0.5-1.3l2.2,1.2l-0.2-2.7h1.6l-0.3,2.7l2.2-1.2l0.5,1.3l-2.3,0.9
			l1.5,2.1l-1.2,0.7l-1.2-2.4L193.7,46.8z"/>
		<path class="st2" d="M201.3,46.8l-1.2-0.8l1.5-2.1l-2.3-0.9l0.5-1.3l2.2,1.2l-0.2-2.7h1.6l-0.3,2.7l2.2-1.2l0.5,1.3l-2.3,0.9
			L205,46l-1.2,0.7l-1.2-2.4L201.3,46.8z"/>
		<path class="st2" d="M208.9,46.8l-1.2-0.8l1.5-2.1L207,43l0.5-1.3l2.2,1.2l-0.2-2.7h1.6l-0.3,2.7l2.2-1.2l0.5,1.3l-2.3,0.9
			l1.5,2.1l-1.2,0.7l-1.2-2.4L208.9,46.8z"/>
		<path class="st2" d="M216.5,46.8l-1.2-0.8l1.5-2.1l-2.2-0.9l0.5-1.3l2.2,1.2l-0.2-2.6h1.6l-0.3,2.7l2.2-1.2L221,43l-2.3,0.9
			l1.5,2.1l-1.2,0.7l-1.2-2.4L216.5,46.8z"/>
		<path class="st2" d="M224.1,46.8l-1.2-0.8l1.5-2.1l-2.3-0.9l0.5-1.3l2.2,1.2l-0.2-2.7h1.6l-0.3,2.7l2.2-1.2l0.5,1.3l-2.3,0.9
			l1.5,2.1l-1.2,0.7l-1.2-2.4L224.1,46.8z"/>
		<path class="st2" d="M231.8,46.8l-1.2-0.8l1.5-2.1l-2.3-0.9l0.5-1.3l2.2,1.2l-0.2-2.7h1.6l-0.2,2.7l2.2-1.2l0.5,1.3l-2.3,0.9
			l1.5,2.1l-1.3,0.7l-1.2-2.4L231.8,46.8z"/>
		<path class="st2" d="M403.8,146.7l-1.2-0.7l1.5-2.1l-2.3-0.9l0.5-1.3l2.2,1.1l-0.2-2.6h1.5l-0.3,2.6l2.2-1.1l0.5,1.3l-2.3,0.9
			l1.5,2.1l-1.3,0.7l-1.2-2.4L403.8,146.7z"/>
		<path class="st2" d="M411.5,146.7l-1.2-0.7l1.5-2.1l-2.3-0.9l0.5-1.3l2.2,1.1l-0.2-2.6h1.5l-0.3,2.6l2.2-1.1l0.5,1.3l-2.3,0.9
			l1.5,2.1l-1.3,0.7l-1.2-2.4L411.5,146.7z"/>
		<path class="st2" d="M419.1,146.7l-1.2-0.7l1.5-2.1l-2.3-0.9l0.5-1.3l2.2,1.1l-0.2-2.6h1.5l-0.3,2.6l2.2-1.1l0.5,1.3l-2.3,0.9
			l1.5,2.1l-1.2,0.7l-1.2-2.4L419.1,146.7z"/>
		<path class="st2" d="M426.7,146.7l-1.2-0.7l1.5-2.1l-2.3-0.9l0.5-1.3l2.2,1.1l-0.2-2.6h1.5l-0.3,2.6l2.2-1.1l0.5,1.3l-2.3,0.9
			l1.5,2.1l-1.2,0.7l-1.2-2.4L426.7,146.7z"/>
		<path class="st2" d="M434.3,146.7l-1.2-0.7l1.5-2.1l-2.3-0.9l0.5-1.3l2.2,1.1l-0.2-2.6h1.5l-0.3,2.6l2.2-1.1l0.5,1.3l-2.3,0.9
			l1.5,2.1l-1.2,0.7l-1.2-2.4L434.3,146.7z"/>
		<path class="st2" d="M441.9,146.7l-1.2-0.7l1.5-2.1L440,143l0.5-1.3l2.2,1.1l-0.2-2.6h1.6l-0.3,2.6l2.2-1.1l0.5,1.3l-2.3,0.9
			l1.5,2.1l-1.2,0.7l-1.2-2.4L441.9,146.7z"/>
		<path class="st2" d="M449.5,146.7l-1.2-0.7l1.5-2.1l-2.3-0.9l0.5-1.3l2.2,1.1l-0.2-2.6h1.6l-0.3,2.6l2.2-1.1l0.5,1.3l-2.3,0.9
			l1.5,2.1l-1.2,0.7l-1.2-2.4L449.5,146.7z"/>
		<path class="st2" d="M457.2,146.7L456,146l1.5-2.1l-2.3-0.9l0.5-1.3l2.2,1.1l-0.2-2.6h1.5l-0.3,2.6l2.2-1.1l0.5,1.3l-2.3,0.9
			l1.5,2.1l-1.3,0.7l-1.2-2.4L457.2,146.7z"/>
		<path class="st2" d="M464.8,146.7l-1.2-0.7l1.5-2.1l-2.3-0.9l0.5-1.3l2.2,1.1l-0.2-2.6h1.5l-0.3,2.6l2.2-1.1l0.5,1.3l-2.3,0.9
			l1.5,2.1l-1.3,0.7l-1.2-2.4L464.8,146.7z"/>
	</g>
	<g id="freepik--user-icons--inject-67">
		<path class="st2" d="M73,183.1c-13.4,0-24.3-10.9-24.3-24.3c0-13.4,10.9-24.3,24.3-24.3s24.3,10.9,24.3,24.3
			C97.3,172.2,86.4,183.1,73,183.1z M73,135.5c-12.9,0-23.3,10.4-23.3,23.3c0,12.8,10.4,23.3,23.3,23.3c12.9,0.3,23.5-9.9,23.8-22.8
			s-9.9-23.5-22.8-23.8C73.6,135.5,73.3,135.5,73,135.5z"/>
		<path class="st2" d="M73,165.5c-5.8,0-10.4-4.7-10.4-10.4c0-5.8,4.7-10.4,10.4-10.4s10.4,4.7,10.4,10.4S78.8,165.5,73,165.5z
			 M73,145.7c-5.2,0-9.4,4.2-9.4,9.4s4.2,9.4,9.4,9.4s9.4-4.2,9.4-9.4l0,0C82.4,149.9,78.2,145.7,73,145.7z"/>
		<path class="st2" d="M73,183.1c-5.4,0-10.7-1.8-15-5.2c-0.2-0.1-0.2-0.3-0.2-0.5c1.8-8.4,10.1-13.7,18.5-11.8
			c5.9,1.3,10.5,5.9,11.8,11.8c0,0.2,0,0.4-0.2,0.5C83.7,181.3,78.4,183.1,73,183.1z M58.9,177.3c4,3.1,9,4.8,14.1,4.8
			s10.1-1.7,14.1-4.8c-1.9-7.8-9.7-12.6-17.5-10.7C64.3,167.9,60.1,172,58.9,177.3z"/>
		<path class="st2" d="M440.7,428.7c-13.4,0-24.3-10.9-24.3-24.3s10.9-24.3,24.3-24.3S465,391,465,404.4
			C465,417.9,454.1,428.7,440.7,428.7z M440.7,381.2c-12.9,0-23.3,10.4-23.3,23.3s10.4,23.3,23.3,23.3c12.8,0,23.3-10.4,23.3-23.3
			S453.6,381.2,440.7,381.2z"/>
		<path class="st2" d="M440.7,411.2c-5.8,0-10.4-4.7-10.4-10.4c0-5.8,4.7-10.4,10.4-10.4c5.8,0,10.4,4.7,10.4,10.4l0,0
			C451.1,406.5,446.5,411.2,440.7,411.2z M440.7,391.3c-5.2,0-9.4,4.2-9.4,9.4c0,5.2,4.2,9.4,9.4,9.4c5.2,0,9.4-4.2,9.4-9.4l0,0
			C450.1,395.5,445.9,391.3,440.7,391.3z"/>
		<path class="st2" d="M440.7,428.7c-5.4,0-10.7-1.8-15-5.2c-0.2-0.1-0.2-0.3-0.2-0.5c1.8-8.4,10.1-13.7,18.5-11.8
			c5.9,1.3,10.5,5.9,11.8,11.8c0,0.2,0,0.4-0.2,0.5C451.4,426.9,446.1,428.7,440.7,428.7z M426.6,423c4,3.1,9,4.8,14.1,4.8
			s10.1-1.7,14.1-4.8c-1.9-7.8-9.7-12.6-17.5-10.7C432,413.6,427.8,417.7,426.6,423z"/>
	</g>
	<g id="freepik--Padlocks--inject-67">
		<path class="st2" d="M454.8,124.4h-39.2c-0.3,0-0.5-0.2-0.5-0.5V85.6c0-0.3,0.2-0.5,0.5-0.5h39.2c0.3,0,0.5,0.2,0.5,0.5v38.3
			C455.3,124.2,455,124.4,454.8,124.4z M416.1,123.4h38.2V86.1h-38.2V123.4z"/>
		<path class="st2" d="M453.8,86.1h-6.7v-9.3c0.2-6.6-5-12-11.6-12.2s-12,5-12.2,11.6c0,0.2,0,0.5,0,0.7v9.3h-6.7v-9.3
			c-0.2-10.3,7.9-18.8,18.2-19c10.3-0.2,18.8,7.9,19,18.2c0,0.3,0,0.6,0,0.9L453.8,86.1z M448.1,85.1h4.7v-8.3
			c0.2-9.7-7.5-17.8-17.2-18s-17.8,7.5-18,17.2c0,0.3,0,0.6,0,0.8v8.3h4.7v-8.3c-0.2-7.1,5.4-13.1,12.5-13.3s13.1,5.4,13.3,12.5
			c0,0.2,0,0.5,0,0.7V85.1z"/>
		<path class="st2" d="M436.8,114.1h-3.3c-0.3,0-0.5-0.2-0.5-0.5V105c-2.5-1.2-3.6-4.2-2.4-6.7s4.2-3.6,6.7-2.4s3.6,4.2,2.4,6.7
			c-0.5,1-1.3,1.9-2.4,2.4v8.6C437.3,113.9,437.1,114.1,436.8,114.1z M434.1,113.1h2.3v-8.4c0-0.2,0.1-0.4,0.3-0.5
			c2.1-0.8,3.1-3.1,2.3-5.2c-0.8-2.1-3.1-3.1-5.2-2.3s-3.1,3.1-2.3,5.2c0.4,1,1.2,1.9,2.3,2.3c0.2,0.1,0.3,0.3,0.3,0.5L434.1,113.1
			L434.1,113.1z"/>
		<path class="st2" d="M91.7,440.4H52.5c-0.3,0-0.5-0.2-0.5-0.5v-38.3c0-0.3,0.2-0.5,0.5-0.5h39.2c0.3,0,0.5,0.2,0.5,0.5v38.3
			C92.2,440.2,91.9,440.4,91.7,440.4L91.7,440.4z M53,439.4h38.2v-37.3H53V439.4z"/>
		<path class="st2" d="M90.7,402.1H84v-9.3c-0.2-6.6-5.7-11.7-12.2-11.6c-6.3,0.2-11.4,5.2-11.6,11.6v9.3h-6.7v-9.3
			c0.2-10.3,8.8-18.4,19-18.2c9.9,0.2,17.9,8.2,18.2,18.2V402.1z M85,401.1h4.7v-8.3c-0.2-9.7-8.3-17.4-18-17.2
			c-9.4,0.2-17,7.8-17.2,17.2v8.3h4.7v-8.3c0.2-7.1,6.1-12.7,13.3-12.5c6.8,0.2,12.3,5.7,12.5,12.5V401.1z"/>
		<path class="st2" d="M73.7,430h-3.3c-0.3,0-0.5-0.2-0.5-0.5V421c-1.7-0.8-2.9-2.6-2.9-4.5c0-2.8,2.2-5,5-5s5,2.2,5,5
			c0,1.9-1.1,3.7-2.9,4.5v8.6C74.2,429.8,74,430,73.7,430z M71,429h2.3v-8.4c0-0.2,0.1-0.4,0.3-0.5c2.1-0.8,3.1-3.1,2.3-5.2
			c-0.8-2.1-3.1-3.1-5.2-2.3c-2.1,0.8-3.1,3.1-2.3,5.2c0.4,1,1.2,1.9,2.3,2.3c0.2,0.1,0.3,0.3,0.3,0.5L71,429z"/>
	</g>
</g>
<g id="freepik--Plants--inject-67">
	<path class="st3" d="M39.6,352.3c3.5-1.9,8.9-9.2,8.9-9.2s-5.8-2.1-6.2-2.2c-4.5-1-13.7-0.2-16.3,4.2c-1.6,2.9-0.5,6.6,2.4,8.2
		c0.2,0.1,0.4,0.2,0.6,0.3C32.3,355.1,36.6,353.9,39.6,352.3z"/>
	<path class="st3" d="M62.1,365.8c2.8-2.7,5.9-10.5,6.1-11.1c4.4,1.8,9,3.2,13.6,4.4c2.7,0.7,5.4,1.3,8.2,1.9
		c-1.3-0.1-2.5-0.1-2.6-0.1c-4.6,0.2-13.3,3.4-14.6,8.4c-0.8,3.3,1.3,6.5,4.5,7.3c0.2,0,0.4,0.1,0.6,0.1c3.6,0.6,7.4-1.8,9.8-4.1
		s5.3-9,6-10.7c1.1,0.2,2.1,0.4,3.2,0.6c5.1,1,10.2,2,15.1,3.1c1.8,0.4,3.4,0.8,5.2,1.3c-1.2-0.1-2.1-0.1-2.3-0.1
		c-4.6,0.2-13.3,3.4-14.6,8.4c-0.8,3.3,1.3,6.5,4.5,7.3c0.2,0,0.4,0.1,0.6,0.1c3.6,0.6,7.4-1.8,9.8-4.1s5-8.3,5.8-10.4
		c1.7,0.5,3.5,1,5.1,1.6c1.1,0.4,2.2,0.7,3.3,1.2l3.3,1.3c2.1,0.9,4.2,1.9,6.2,2.8c1.4,0.6,2.7,1.3,4,2c-1.7-0.4-5.1-1.1-5.4-1.2
		c-4.6-0.5-13.6,1.4-15.7,6.1c-1.3,3.1,0.3,6.6,3.4,7.9c0.2,0.1,0.4,0.2,0.6,0.2c3.5,1.1,7.6-0.6,10.3-2.6c3.1-2.2,7.2-9.1,7.7-10
		c2.2,1.1,4.3,2.2,6.3,3.2c4.4,2.3,8.2,4.5,11.4,6.3l2.1-2.7c-3.4-1.9-7.4-4-12.1-6.4c-2.2-1.1-4.6-2.3-7-3.4c0.7-2.5,1.3-5,1.7-7.6
		c3.9-0.3,10.6-3.6,11.5-4c1.2,2.1,2.4,4.2,3.4,6.1c2.2,4.1,4.1,7.8,5.8,11l2.2-2.9c-1.5-2.9-3.3-6.1-5.3-9.6
		c-1.2-2.1-2.6-4.4-4-6.7c0.8-0.6,6.9-5.9,8.4-9.3c1.4-3.1,2.4-7.5,0.8-10.6c-1.5-3-5.1-4.3-8.1-2.8c-0.2,0.1-0.4,0.2-0.6,0.3
		c-4.3,2.8-4.5,12.1-3.2,16.5c0.1,0.3,1.2,3,1.9,4.7c-0.6-0.9-1.1-1.9-1.8-2.8c-1.2-1.9-2.4-3.8-3.8-5.8l-2.1-2.8
		c-0.7-1-1.5-1.9-2.3-2.9c-1.8-2.2-3.7-4.4-5.7-6.5c1.7-1,7.6-4.9,9.5-7.7s3.5-7,2.4-10.4c-1-3.2-4.4-5-7.6-4
		c-0.2,0.1-0.4,0.1-0.6,0.2c-4.6,2.2-6.2,11.3-5.7,15.8c0,0.3,0.8,3.5,1.3,5.3c-1.2-1.3-2.4-2.6-3.6-3.8c-3.6-3.6-7.4-7.2-11.2-10.7
		l-3.4-3.3c0.6-0.4,7.7-4.8,9.8-8c1.9-2.9,3.5-7,2.4-10.4c-1-3.2-4.4-5-7.6-4c-0.2,0.1-0.4,0.1-0.6,0.2c-4.7,2.2-6.2,11.3-5.7,15.8
		c0,0.3,1.2,5,1.5,6.1c-2.5-2.4-5-4.8-7.3-7.3c-3.2-3.3-6.2-6.9-8.9-10.6c0.3-0.2,7.7-4.7,9.9-8c1.9-2.8,3.5-7,2.3-10.4
		c-1-3.2-4.4-5-7.6-4c-0.2,0.1-0.4,0.1-0.6,0.2c-4.7,2.2-6.2,11.3-5.7,15.8c0,0.4,1.2,5.3,1.5,6.2c-0.2-0.2-0.3-0.4-0.5-0.6
		c-2.6-3.8-4.9-7.9-6.8-12.1c-1.1-2.3-2-4.6-2.8-6.8c1.5-0.7,8.1-4,10.4-6.7s4.3-6.6,3.5-10.1c-0.6-3.3-3.8-5.4-7.1-4.8
		c-0.2,0-0.4,0.1-0.6,0.2c-4.9,1.6-7.4,10.5-7.4,15.1c0,0.3,0.3,2.8,0.6,4.6c-0.4-1-0.8-2-1.1-3c-1.2-3.7-2.2-7.2-2.9-10.2
		c-0.4-1.7-0.8-3.3-1.1-4.8c1.1-1.5,5.4-7.3,6.1-10.7s0.8-7.8-1.6-10.6c-2.1-2.6-5.9-3.1-8.5-1c-0.2,0.1-0.3,0.3-0.5,0.4
		c-3.6,3.7-1.8,12.8,0.4,16.8c0.2,0.4,3.7,5.5,3.8,5.4l0.1-0.1c0.3,1.4,0.6,3,1,4.6c0.7,3.1,1.6,6.5,2.7,10.3c1.2,4,2.7,8,4.3,11.8
		c1.8,4.3,4.1,8.5,6.7,12.4l0.1,0.1c-1.2-1-4.5-3.5-4.8-3.6c-3.9-2.3-12.9-4.5-16.8-1.1c-2.4,2.3-2.5,6.2-0.2,8.6
		c0.1,0.1,0.3,0.3,0.4,0.4c2.7,2.4,7.1,2.6,10.5,2c3.8-0.7,10.7-5.5,11.2-5.9c2.7,3.9,5.7,7.7,8.9,11.2c1.9,2.1,3.8,4.1,5.8,6.1
		c-1-0.8-2-1.5-2.1-1.6c-3.9-2.3-12.9-4.5-16.8-1.1c-2.4,2.3-2.5,6.1-0.2,8.6c0.1,0.1,0.3,0.3,0.4,0.4c2.7,2.4,7.1,2.6,10.5,2
		s9.3-4.6,10.9-5.7c0.8,0.8,1.5,1.5,2.3,2.3c3.7,3.6,7.4,7.3,10.9,10.9c1.3,1.3,2.4,2.6,3.6,3.9c-0.9-0.7-1.7-1.3-1.8-1.4
		c-3.9-2.3-12.9-4.5-16.8-1.1c-2.4,2.3-2.5,6.2-0.2,8.6c0.1,0.1,0.3,0.3,0.4,0.4c2.7,2.4,7.1,2.6,10.5,2s8.8-4.2,10.6-5.5
		c1.2,1.4,2.3,2.8,3.4,4.1c0.7,1,1.5,1.9,2.1,2.9l2,2.9c1.2,1.9,2.4,3.9,3.6,5.8c0.8,1.3,1.5,2.6,2.3,3.8c-1.2-1.3-3.7-3.8-3.9-4
		c-3.2-2.4-7-4-11-4.5c-0.3-0.3-0.7-0.5-1.1-0.8c-2.9-1.7-6.6-0.8-8.3,2.1c-0.1,0.2-0.2,0.4-0.3,0.6c-2,4.7,3,12.5,6.4,15.5
		c0.2,0.2,2.6,1.8,4.2,2.9l-3-1.4c-2-0.9-4.1-1.8-6.4-2.8l-3.3-1.3c-1.1-0.5-2.3-0.8-3.5-1.2c-2.7-0.9-5.5-1.6-8.3-2.3
		c0.8-1.8,3.6-8.2,3.6-11.7s-0.9-7.8-3.8-10c-2.6-2.1-6.4-1.8-8.5,0.8c-0.1,0.2-0.3,0.4-0.4,0.5c-2.7,4.4,1,12.8,4,16.3
		c0.2,0.2,2.6,2.5,4,3.7c-1.7-0.4-3.4-0.8-5.2-1.2c-5-1-10.1-1.9-15.2-2.8c-1.6-0.3-3.1-0.6-4.7-0.8c0.3-0.6,3.8-8.2,3.8-12
		c0-3.4-0.9-7.8-3.8-10c-2.6-2.1-6.4-1.8-8.5,0.8c-0.1,0.2-0.3,0.3-0.4,0.5c-2.7,4.4,1,12.9,4,16.3c0.2,0.3,3.7,3.5,4.6,4.3
		c-3.4-0.6-6.8-1.3-10.2-2.1c-4.5-1-9-2.4-13.3-4c0.1-0.3,3.8-8.2,3.8-12.1c0-3.4-0.9-7.8-3.8-10c-2.6-2.2-6.4-1.8-8.5,0.7
		c-0.2,0.2-0.4,0.5-0.5,0.8c-2.7,4.4,1,12.8,4,16.3c0.2,0.3,4,3.8,4.7,4.4c-0.3-0.1-0.5-0.2-0.8-0.3c-4.3-1.7-8.4-3.9-12.4-6.3
		c-2.2-1.3-4.2-2.7-6.1-4.1c0.8-1.4,4.6-7.8,5-11.4s0-7.8-2.7-10.3c-2.3-2.4-6.2-2.4-8.6-0.1c-0.2,0.1-0.3,0.3-0.4,0.5
		c-3.2,4-0.4,12.9,2.2,16.7c0.1,0.2,1.8,2.1,3,3.5c-0.9-0.6-1.8-1.3-2.6-1.9c-3-2.4-5.7-4.8-8-6.9c-1.3-1.2-2.5-2.3-3.6-3.4
		c0.1-1.8,0.4-9-0.8-12.3s-3.7-6.9-7.1-7.9c-3.2-1.1-6.6,0.7-7.7,3.9c-0.1,0.2-0.1,0.4-0.2,0.6c-0.9,5,5.6,11.6,9.6,13.8
		c0.4,0.2,6.1,2.5,6.1,2.4s0-0.1,0-0.1c1,1,2.1,2.1,3.4,3.3c2.3,2.2,4.9,4.6,7.9,7.1c3.2,2.7,6.6,5.2,10.1,7.5
		c3.9,2.6,8.1,4.8,12.4,6.7l0.2,0.1c-1.5-0.1-5.7-0.4-6-0.4c-4.6,0.3-13.3,3.4-14.6,8.4c-0.8,3.3,1.3,6.5,4.5,7.3
		c0.2,0,0.4,0.1,0.6,0.1C55.8,370.5,59.6,368.2,62.1,365.8z"/>
	<path class="st3" d="M97,281.5c0.1,0-3.7-5-4-5.2c-3.2-3.3-11.3-7.7-15.9-5.5c-3,1.6-4.1,5.3-2.5,8.2c0.1,0.2,0.2,0.4,0.3,0.6
		c1.9,3.1,6.2,4.4,9.6,4.7C88.5,284.6,97,281.5,97,281.5z"/>
	<path class="st3" d="M460.3,352.3c-3.5-1.9-8.9-9.2-8.9-9.2s5.8-2.1,6.2-2.2c4.5-1,13.7-0.2,16.3,4.2c1.6,2.9,0.5,6.6-2.4,8.2
		c-0.2,0.1-0.4,0.2-0.6,0.3C467.6,355.1,463.3,353.9,460.3,352.3z"/>
	<path class="st3" d="M437.8,365.8c-2.8-2.7-5.9-10.5-6.1-11.1c-4.5,1.8-9,3.2-13.7,4.4c-2.7,0.7-5.4,1.3-8.2,1.9
		c1.3-0.1,2.5-0.1,2.6-0.1c4.6,0.2,13.3,3.4,14.6,8.4c0.8,3.3-1.3,6.5-4.5,7.3c-0.2,0-0.4,0.1-0.6,0.1c-3.6,0.6-7.4-1.8-9.8-4.1
		s-5.3-9-6-10.7c-1.1,0.2-2.1,0.4-3.2,0.6c-5.1,1-10.2,2-15.1,3.1c-1.8,0.4-3.5,0.8-5.2,1.3c1.1-0.1,2.1-0.1,2.3-0.1
		c4.6,0.2,13.3,3.4,14.6,8.4c0.8,3.3-1.2,6.5-4.5,7.3c-0.2,0.1-0.4,0.1-0.7,0.1c-3.6,0.6-7.4-1.8-9.8-4.1s-5-8.3-5.9-10.4
		c-1.7,0.5-3.5,1-5.1,1.6c-1.1,0.4-2.2,0.7-3.3,1.2l-3.3,1.3c-2,0.9-4.2,1.9-6.1,2.8c-1.4,0.6-2.7,1.3-4,2c1.7-0.4,5.1-1.1,5.4-1.2
		c4.5-0.5,13.6,1.4,15.7,6.1c1.3,3.1-0.2,6.6-3.3,7.9c-0.2,0.1-0.4,0.2-0.7,0.2c-3.5,1.1-7.6-0.6-10.4-2.6c-3.1-2.2-7.2-9.1-7.7-10
		c-2.2,1.1-4.3,2.2-6.3,3.2c-4.4,2.3-8.2,4.5-11.4,6.3l-2.1-2.7c3.4-1.9,7.4-4,12.1-6.4c2.2-1.1,4.6-2.3,7-3.4
		c-0.7-2.5-1.3-5-1.7-7.6c-3.9-0.3-10.6-3.6-11.5-4c-1.2,2.1-2.4,4.2-3.5,6.1c-2.2,4.1-4.1,7.8-5.8,11l-2.2-2.9
		c1.5-2.9,3.3-6.1,5.3-9.6c1.2-2.1,2.6-4.4,4-6.7c-0.8-0.6-6.9-5.9-8.5-9.3c-1.5-3.1-2.4-7.5-0.8-10.6c1.5-3,5.1-4.3,8.1-2.8
		c0.2,0.1,0.4,0.2,0.6,0.3c4.3,2.8,4.5,12.1,3.2,16.5c-0.1,0.3-1.2,3-1.9,4.7c0.6-0.9,1.1-1.9,1.8-2.8c1.2-1.9,2.4-3.8,3.8-5.8
		l2.1-2.9c0.7-1,1.5-1.9,2.3-2.9c1.8-2.2,3.7-4.4,5.7-6.5c-1.7-1-7.5-4.9-9.5-7.7s-3.5-7-2.4-10.4c1-3.2,4.4-5,7.6-4
		c0.2,0.1,0.4,0.1,0.6,0.2c4.6,2.2,6.2,11.3,5.7,15.8c0,0.3-0.8,3.5-1.3,5.3c1.2-1.3,2.4-2.6,3.6-3.8c3.6-3.6,7.4-7.2,11.2-10.7
		l3.4-3.3c-0.6-0.4-7.7-4.8-9.8-8c-1.9-2.9-3.5-7-2.4-10.4c1-3.2,4.4-5,7.6-4c0.2,0.1,0.4,0.1,0.6,0.2c4.6,2.2,6.2,11.3,5.7,15.8
		c0,0.3-1.2,5-1.5,6.1c2.5-2.4,5-4.8,7.3-7.3c3.2-3.3,6.2-6.9,8.9-10.6c-0.3-0.2-7.7-4.7-9.9-8c-1.9-2.8-3.5-7-2.4-10.4
		c1-3.2,4.4-5,7.6-4c0.2,0.1,0.4,0.1,0.6,0.2c4.6,2.2,6.2,11.3,5.7,15.8c0,0.4-1.2,5.3-1.5,6.2c0.1-0.2,0.3-0.4,0.5-0.6
		c2.6-3.8,4.9-7.9,6.8-12.1c1.1-2.3,2-4.6,2.8-6.8c-1.5-0.7-8.1-4-10.4-6.7s-4.3-6.6-3.5-10.1c0.6-3.3,3.8-5.4,7.1-4.8
		c0.2,0,0.4,0.1,0.6,0.2c4.9,1.6,7.4,10.5,7.4,15.1c0,0.3-0.3,2.8-0.6,4.6c0.4-1,0.8-2,1.1-3c1.2-3.7,2.1-7.1,2.9-10.2
		c0.4-1.7,0.8-3.3,1.1-4.8c-1.1-1.5-5.4-7.3-6.1-10.7s-0.8-7.8,1.6-10.6c2.1-2.6,5.9-3.1,8.5-1c0.2,0.1,0.3,0.3,0.5,0.4
		c3.6,3.7,1.8,12.8-0.4,16.8c-0.2,0.4-3.7,5.5-3.8,5.4l-0.1-0.1c-0.3,1.4-0.6,3-1,4.6c-0.7,3.1-1.5,6.5-2.7,10.3
		c-1.2,4-2.7,8-4.3,11.8c-1.8,4.3-4.1,8.5-6.7,12.4l-0.1,0.1c1.2-1,4.5-3.5,4.8-3.6c4-2.3,12.9-4.5,16.8-1.1
		c2.4,2.3,2.5,6.1,0.2,8.6c-0.1,0.2-0.3,0.3-0.5,0.4c-2.7,2.4-7.1,2.6-10.5,2c-3.8-0.7-10.7-5.5-11.2-5.9c-2.7,3.9-5.7,7.7-8.9,11.2
		c-1.9,2.1-3.8,4.1-5.8,6.1c1-0.8,2-1.5,2.1-1.6c4-2.3,13-4.5,16.8-1.1c2.4,2.3,2.5,6.2,0.2,8.6c-0.1,0.1-0.3,0.3-0.4,0.4
		c-2.7,2.4-7.1,2.6-10.5,2s-9.4-4.6-10.9-5.7c-0.8,0.8-1.5,1.5-2.3,2.3c-3.7,3.6-7.4,7.3-10.9,10.9c-1.2,1.3-2.4,2.6-3.6,3.9
		c0.9-0.7,1.7-1.3,1.8-1.4c4-2.3,12.9-4.5,16.8-1.1c2.4,2.3,2.5,6.1,0.2,8.6c-0.1,0.2-0.3,0.3-0.5,0.4c-2.7,2.4-7.1,2.6-10.5,2
		s-8.8-4.2-10.6-5.5c-1.2,1.4-2.3,2.8-3.4,4.1c-0.7,1-1.5,1.9-2.1,2.9l-2,2.9c-1.2,1.9-2.5,3.9-3.6,5.8c-0.8,1.3-1.5,2.6-2.3,3.8
		c1.2-1.3,3.7-3.8,3.9-4c3.2-2.4,7-4,11-4.5c0.3-0.3,0.7-0.5,1.1-0.8c2.9-1.7,6.6-0.8,8.3,2.1c0.1,0.2,0.2,0.4,0.3,0.6
		c2,4.7-3,12.5-6.4,15.5c-0.2,0.2-2.6,1.8-4.2,2.9l3-1.4c2-0.9,4.1-1.8,6.4-2.8l3.3-1.3c1.1-0.5,2.3-0.8,3.5-1.2
		c2.7-0.9,5.5-1.6,8.4-2.3c-0.8-1.8-3.6-8.2-3.6-11.7s0.9-7.8,3.8-10c2.6-2.1,6.4-1.7,8.5,0.8c0.1,0.2,0.3,0.3,0.4,0.5
		c2.7,4.4-1,12.8-4,16.3c-0.2,0.2-2.6,2.5-4,3.7c1.7-0.4,3.4-0.8,5.1-1.2c5-1,10.1-1.9,15.2-2.8c1.6-0.3,3.1-0.6,4.7-0.8
		c-0.3-0.6-3.8-8.2-3.8-12c0-3.4,0.9-7.8,3.8-10c2.6-2.1,6.4-1.8,8.5,0.8c0.1,0.2,0.3,0.3,0.4,0.5c2.7,4.4-1,12.9-4,16.3
		c-0.2,0.3-3.7,3.5-4.6,4.3c3.4-0.6,6.8-1.3,10.2-2.1c4.5-1,8.9-2.4,13.3-4c-0.1-0.3-3.8-8.2-3.8-12.1c0-3.4,0.9-7.8,3.8-10
		c2.6-2.1,6.4-1.7,8.5,0.8c0.1,0.2,0.3,0.3,0.4,0.5c2.7,4.4-1,12.8-4,16.3c-0.2,0.3-4,3.8-4.7,4.4c0.3-0.1,0.5-0.2,0.8-0.3
		c4.3-1.7,8.4-3.9,12.4-6.3c2.2-1.3,4.2-2.7,6.1-4.1c-0.8-1.4-4.6-7.8-5-11.4s0-7.8,2.7-10.3c2.4-2.4,6.2-2.4,8.6-0.1
		c0.1,0.1,0.3,0.3,0.4,0.5c3.1,4,0.4,12.9-2.2,16.7c-0.1,0.2-1.8,2.1-3,3.5c0.9-0.6,1.8-1.3,2.6-1.9c3.1-2.4,5.7-4.8,8-6.9
		c1.3-1.2,2.5-2.3,3.6-3.4c-0.1-1.8-0.4-9,0.8-12.3s3.7-6.9,7.1-7.9c3.2-1.1,6.6,0.7,7.7,3.9c0.1,0.2,0.1,0.4,0.2,0.6
		c0.9,5-5.6,11.6-9.6,13.8c-0.4,0.2-6.1,2.5-6.1,2.4s0-0.1,0-0.1c-1,1-2.1,2.1-3.4,3.3c-2.3,2.2-4.9,4.6-7.9,7.1
		c-3.2,2.7-6.6,5.2-10.1,7.5c-3.9,2.6-8.1,4.8-12.4,6.7l-0.2,0.1c1.5-0.1,5.7-0.4,6-0.4c4.6,0.3,13.3,3.4,14.6,8.4
		c0.8,3.3-1.3,6.5-4.5,7.3c-0.2,0-0.4,0.1-0.6,0.1C444,370.5,440.3,368.2,437.8,365.8z"/>
	<path class="st3" d="M402.9,281.5c-0.1,0,3.7-5,4-5.2c3.2-3.3,11.3-7.7,15.9-5.5c3,1.6,4.1,5.2,2.5,8.2c-0.1,0.2-0.2,0.4-0.3,0.6
		c-1.9,3.1-6.2,4.4-9.6,4.7C411.4,284.6,402.9,281.5,402.9,281.5z"/>
	<path class="st3" d="M299.4,62.7c-3.2,2.4-12,4.3-12,4.3s0.5-6.2,0.6-6.6c1-4.5,5.4-12.6,10.5-13.1c3.3-0.3,6.3,2.2,6.5,5.6
		c0,0.2,0,0.4,0,0.7C305,57.3,302.1,60.7,299.4,62.7z"/>
	<path class="st3" d="M302.5,88.8c-3.6,1.4-11.9,1.1-12.6,1c-0.2,4.8-0.7,9.5-1.6,14.3c-0.5,2.8-1,5.5-1.6,8.3
		c0.5-1.2,0.9-2.3,1-2.4c2.1-4.1,8.6-10.7,13.6-9.9c3.3,0.6,5.4,3.8,4.8,7.1c0,0.2-0.1,0.4-0.2,0.6c-1,3.5-4.6,6-7.8,7.3
		s-10.4,1.1-12.2,1c-0.2,1.1-0.5,2.1-0.7,3.2c-1.2,5-2.4,10.1-3.4,15c-0.4,1.8-0.6,3.5-1,5.2c0.4-1.1,0.8-2,0.8-2.1
		c2.1-4.1,8.5-10.7,13.6-9.9c3.3,0.6,5.4,3.8,4.8,7.1c0,0.2-0.1,0.4-0.2,0.6c-1,3.5-4.6,6-7.8,7.3s-9.6,1.1-11.9,1
		c-0.3,1.8-0.5,3.6-0.7,5.3c-0.1,1.2-0.3,2.3-0.3,3.5s-0.1,2.4-0.1,3.5c0,2.3,0,4.6,0,6.8c0,1.5,0.1,3,0.1,4.5
		c0.3-1.8,1.1-5.2,1.2-5.4c1.5-4.3,6.8-11.9,12-11.8c3.3,0.1,6,3,5.8,6.3c0,0.2,0,0.5-0.1,0.7c-0.4,3.6-3.7,6.6-6.6,8.4
		c-3.3,1.9-11.2,2.8-12.2,2.9c0.1,2.4,0.2,4.8,0.4,7c0.3,4.9,0.7,9.3,1.1,13l-3.3,0.8c-0.3-3.8-0.6-8.4-0.9-13.6
		c-0.1-2.5-0.2-5.1-0.2-7.8c-2.6-0.4-5.1-0.9-7.6-1.6c-1.9,3.4-7.6,8.2-8.4,8.8c1.4,2,2.8,3.9,4.2,5.7c2.8,3.7,5.4,7,7.7,9.8
		l-3.5,0.9c-2-2.6-4.2-5.5-6.6-8.8c-1.5-2-3-4.2-4.5-6.4c-0.9,0.4-8.2,3.8-12,3.9c-3.4,0-7.8-0.8-10-3.7c-2.2-2.6-1.8-6.4,0.8-8.6
		c0.2-0.1,0.3-0.3,0.5-0.4c4.4-2.7,12.9,0.9,16.4,3.8c0.2,0.2,2.3,2.3,3.5,3.7c-0.6-0.9-1.2-1.8-1.9-2.8c-1.3-1.9-2.4-3.8-3.7-5.8
		l-1.8-3.1c-0.6-1-1.1-2.1-1.7-3.2c-1.3-2.5-2.5-5.2-3.6-7.9c-1.6,1.1-7.5,4.9-10.9,5.4s-7.8,0.4-10.5-2.1c-2.5-2.2-2.7-6.1-0.5-8.6
		c0.1-0.2,0.3-0.3,0.4-0.4c3.9-3.4,12.8-1.1,16.8,1.3c0.2,0.1,2.9,2.2,4.3,3.3c-0.7-1.6-1.3-3.2-2-4.9c-1.8-4.8-3.5-9.7-5.2-14.6
		c-0.5-1.5-1.1-3-1.6-4.5c-0.6,0.4-7.5,5.1-11.3,5.7c-3.4,0.6-7.8,0.4-10.5-2.1c-2.5-2.2-2.7-6.1-0.5-8.6c0.1-0.1,0.3-0.3,0.4-0.4
		c3.9-3.3,12.8-1.1,16.8,1.3c0.3,0.2,4.1,3.1,5,3.9c-1.2-3.3-2.4-6.6-3.7-9.7c-1.7-4.3-3.8-8.4-6.1-12.5c-0.3,0.2-7.5,5.1-11.3,5.7
		c-3.4,0.6-7.8,0.3-10.5-2.1c-2.5-2.2-2.7-6.1-0.5-8.6c0.1-0.1,0.3-0.3,0.4-0.4c3.9-3.3,12.8-1.1,16.8,1.3c0.3,0.2,4.4,3.3,5,3.9
		c-0.1-0.2-0.3-0.5-0.4-0.7c-2.4-4-5.2-7.7-8.2-11.2c-1.7-1.9-3.4-3.7-5.1-5.4c-1.2,1-7,5.8-10.4,6.8s-7.7,1.2-10.6-1
		c-2.7-1.9-3.4-5.7-1.5-8.4c0.1-0.2,0.3-0.4,0.4-0.6c3.5-3.8,12.6-2.5,16.8-0.5c0.2,0.1,2.4,1.4,4,2.4c-0.8-0.8-1.6-1.5-2.3-2.2
		c-2.8-2.6-5.6-4.9-8.1-6.8c-1.4-1.1-2.7-2.1-3.9-3c-1.8,0.4-8.9,1.9-12.3,1.2s-7.4-2.5-9-5.8c-1.5-3-0.4-6.6,2.6-8.2
		c0.2-0.1,0.4-0.2,0.6-0.3c4.8-1.7,12.4,3.6,15.1,7.3c0.2,0.3,3.5,5.7,3.4,5.7l0,0c1.2,0.8,2.5,1.8,3.8,2.8c2.5,1.9,5.3,4.1,8.2,6.7
		c3.2,2.8,6.2,5.7,9,8.8c3.2,3.5,6,7.3,8.5,11.3l0.1,0.1c-0.4-1.4-1.3-5.6-1.3-5.9c-0.5-4.6,1.2-13.7,5.9-15.7
		c3.1-1.3,6.6,0.2,7.9,3.3c0.1,0.2,0.2,0.4,0.2,0.6c1.1,3.4-0.6,7.6-2.5,10.4c-2.2,3.2-9.4,7.5-10,7.8c2.5,4.1,4.7,8.4,6.6,12.8
		c1.1,2.6,2.2,5.2,3.2,7.8c-0.3-1.3-0.5-2.4-0.6-2.6c-0.5-4.6,1.2-13.6,5.9-15.7c3.1-1.3,6.6,0.2,7.9,3.3c0.1,0.2,0.2,0.4,0.2,0.6
		c1.1,3.4-0.6,7.6-2.5,10.4s-8,6.6-9.6,7.6c0.4,1,0.8,2,1.1,3c1.8,4.9,3.6,9.7,5.5,14.4c0.7,1.7,1.4,3.3,2.1,4.9
		c-0.3-1.1-0.4-2.1-0.5-2.2c-0.5-4.6,1.2-13.6,5.9-15.7c3.1-1.3,6.6,0.2,7.9,3.3c0.1,0.2,0.2,0.4,0.2,0.6c1.1,3.4-0.6,7.6-2.5,10.4
		s-7.4,6.3-9.3,7.4c0.8,1.6,1.6,3.3,2.4,4.8c0.6,1,1.1,2.1,1.7,3.1s1.2,2,1.9,3c1.3,1.9,2.5,3.8,3.8,5.6c0.9,1.3,1.7,2.4,2.6,3.6
		c-0.7-1.6-2-4.9-2-5.2c-0.9-3.9-0.8-8,0.4-11.9c-0.1-0.4-0.2-0.9-0.2-1.3c-0.4-3.3,2-6.3,5.3-6.7c0.2,0,0.4,0,0.7,0
		c5.1,0.1,10.2,7.8,11.5,12.2c0.1,0.3,0.6,3.2,0.9,5c0-1.1,0-2.2,0-3.3c0-2.3,0-4.5,0.1-6.9c0.1-1.2,0.1-2.3,0.2-3.5
		c0-1.2,0.2-2.4,0.4-3.6c0.3-2.8,0.8-5.7,1.3-8.6c-2,0-9-0.1-12.1-1.5s-6.7-4-7.5-7.6c-0.9-3.2,1-6.6,4.3-7.4
		c0.2-0.1,0.4-0.1,0.7-0.1c5.1-0.7,11.3,6.2,13.3,10.3c0.1,0.3,1.2,3.4,1.7,5.1c0.3-1.7,0.7-3.4,1.1-5.2c1.1-5,2.4-10,3.7-15
		c0.4-1.5,0.8-3.1,1.1-4.6c-0.7,0-9,0.1-12.5-1.5c-3.1-1.4-6.7-4-7.5-7.6c-0.9-3.2,1-6.6,4.3-7.4c0.2-0.1,0.4-0.1,0.6-0.1
		c5.1-0.7,11.3,6.2,13.2,10.3c0.1,0.3,1.7,4.8,2,6c0.8-3.4,1.6-6.8,2.3-10.1c0.9-4.5,1.5-9.1,1.8-13.7c-0.3,0-9,0.1-12.6-1.5
		c-3.1-1.4-6.7-4-7.5-7.6c-0.9-3.2,1.1-6.6,4.3-7.4c0.2-0.1,0.4-0.1,0.6-0.1c5.1-0.7,11.3,6.2,13.2,10.3c0.2,0.3,1.8,5.2,2,6.1
		c0-0.3,0.1-0.5,0.1-0.8c0.2-4.6,0-9.3-0.7-13.9c-0.3-2.5-0.8-5-1.3-7.3c-1.6,0.2-9,1-12.4-0.1s-7.1-3.3-8.3-6.7
		c-1.2-3.1,0.3-6.6,3.4-7.9c0.2-0.1,0.4-0.1,0.6-0.2c5-1.2,11.9,4.9,14.3,8.8c0.1,0.2,1.2,2.5,2,4.2c-0.2-1-0.5-2.1-0.7-3.2
		c-0.9-3.8-2-7.2-3-10.2c-0.6-1.7-1.1-3.2-1.6-4.7c-1.7-0.6-8.4-3.3-10.9-5.8s-4.8-6.2-4.3-9.8c0.3-3.3,3.3-5.8,6.7-5.4
		c0.2,0,0.4,0.1,0.7,0.1c5,1.2,8.3,9.9,8.6,14.4c0,0.4-0.2,6.6-0.3,6.6h-0.1c0.5,1.4,1.1,2.8,1.7,4.4c1,3,2.2,6.4,3.2,10.1
		c1.1,4,2,8.1,2.7,12.3c0.7,4.6,1.1,9.3,1,14c0,0.1,0,0.1,0,0.2c0.5-1.4,2-5.3,2.1-5.6c2.1-4.1,8.5-10.7,13.6-9.9
		c3.3,0.6,5.4,3.8,4.8,7.1c0,0.2-0.1,0.4-0.2,0.6C309.3,85,305.6,87.5,302.5,88.8z"/>
	<path class="st3" d="M211.3,86c-0.1,0.1-3-5.4-3.1-5.8c-1.7-4.3-2.4-13.5,1.6-16.7c2.6-2.1,6.5-1.6,8.5,1.1
		c0.1,0.2,0.3,0.4,0.4,0.5c2,3,1.5,7.4,0.3,10.7C217.6,79.6,211.3,86,211.3,86z"/>
</g>
<polygon class="st2" points="373.7,122.5 373.7,109.6 365.1,109.6 128.2,346.5 128.2,368 "/>
<polygon class="st2" points="128.2,176.8 128.2,261 279.6,109.6 195.4,109.6 "/>
<polygon class="st2" points="337.1,434.5 373.7,398 373.7,313.8 252.9,434.5 "/>
<path class="st4" d="M120.8,86.2h260.3c5.6,0,10.2,4.6,10.2,10.2v351.2c0,5.6-4.6,10.2-10.2,10.2H120.8c-5.6,0-10.2-4.6-10.2-10.2
	V96.4C110.6,90.8,115.1,86.2,120.8,86.2z"/>
<rect x="128.2" y="109.6" class="st5" width="245.5" height="324.9"/>
<polygon class="st6" points="391.3,438.8 391.3,334.9 268.3,457.8 372.3,457.8 "/>
<path class="st7" d="M368.8,182.7c0,0-1.3,10-0.8,11.4s3.3,7.1,3.5,7.6s-3.3,3.5-2.7,4.9s4.1,3.2,4.1,3.2s8.5,9.8,9.7,9.6
	s5.2-2.4,5.2-2.4l2.4,5.5l23.6-10l-7.1-11.7c0,0-7.4-18.8-14.4-24.9S371.7,175.9,368.8,182.7z"/>
<path class="st1" d="M390.2,223.1c-0.2,0-0.4-0.1-0.5-0.3l-2.2-5c-1.6,0.9-3.2,1.6-4.9,2.2c-1.1,0.2-6.1-5.2-10-9.8
	c-0.6-0.3-3.6-1.9-4.3-3.4c-0.5-1.2,0.8-2.8,1.9-4.1c0.3-0.3,0.6-0.7,0.7-0.9c-0.1-0.3-0.5-1.2-0.9-2c-0.9-1.9-2.2-4.6-2.5-5.5
	c-0.5-1.5,0.6-10.6,0.8-11.6v-0.1c1.7-4,6.8-7.6,12.4-9c4.7-1.1,9-0.4,11.8,2.1c7,6,14.2,24.3,14.5,25.1l7.1,11.6
	c0.1,0.1,0.1,0.3,0,0.4c0,0.1-0.1,0.3-0.3,0.3L390.2,223.1C390.3,223.1,390.2,223.1,390.2,223.1z M387.8,216.6c0.1,0,0.1,0,0.2,0
	s0.2,0.1,0.3,0.3l2.2,5.1l22.6-9.6l-6.8-11.2c-0.1-0.3-7.5-18.9-14.3-24.7c-2.6-2.3-6.5-3-10.9-1.9c-5.2,1.2-10.1,4.7-11.7,8.3
	c-0.5,3.8-1.1,10.2-0.8,11.1s1.5,3.5,2.5,5.4c0.6,1.4,1,2,1,2.2c0.1,0.4-0.2,0.9-1,1.8s-2,2.5-1.8,3.1c0.4,0.9,2.6,2.3,3.9,2.9
	c0.1,0,0.1,0.1,0.1,0.1c3.9,4.5,8.5,9.3,9.3,9.5c1.7-0.6,3.4-1.4,5-2.3C387.6,216.6,387.7,216.6,387.8,216.6L387.8,216.6z
	 M371,201.9L371,201.9z"/>
<polygon class="st1" points="382.6,219.5 388.6,213 387.8,217.1 "/>
<path class="st1" d="M382.6,220c-0.2,0-0.3-0.1-0.4-0.2c-0.2-0.2-0.2-0.5,0-0.6l6-6.4c0.1-0.2,0.4-0.2,0.6-0.1
	c0.2,0.1,0.3,0.3,0.3,0.5l-0.8,4.1c0,0.2-0.1,0.3-0.3,0.4l-5.2,2.4C382.7,220,382.6,220,382.6,220z M387.8,214.7l-3.1,3.3l2.7-1.2
	L387.8,214.7z"/>
<path class="st1" d="M371,206.1c-0.1,0-0.3,0-0.4-0.1c-1.8-0.5-4.1-4.6-4.4-5.1c-0.1-0.2-0.1-0.5,0.2-0.7l15-9.5
	c0.2-0.2,0.5-0.1,0.7,0.1s0.1,0.5-0.1,0.7l0,0l-11.1,7c0.8,1.8,2.5,6.3,0.8,7.3C371.4,206.1,371.2,206.1,371,206.1z M367.3,201
	c1,1.6,2.6,3.9,3.6,4.2c0.1,0,0.2,0,0.3,0c0.7-0.4,0-3.3-1.1-5.9L367.3,201z"/>
<path class="st1" d="M375.1,209.7c-0.3,0-0.5-0.2-0.5-0.5c0-0.2,0.1-0.4,0.3-0.4l0,0c1.2-0.7,1.7-2.2,1.2-3.5
	c-0.1-0.3,0.1-0.5,0.3-0.6c0.3-0.1,0.5,0,0.6,0.3l0,0c0.7,1.8,0,3.8-1.7,4.7C375.3,209.7,375.2,209.7,375.1,209.7z"/>
<path class="st1" d="M369.6,195.4c-0.3,0-0.5-0.2-0.5-0.5c0-0.6,0.3-1.2,0.8-1.6c0.7-0.4,1.6-0.4,2.3,0c0.3,0.1,0.4,0.4,0.3,0.6l0,0
	c-0.1,0.3-0.4,0.4-0.6,0.3l0,0c-0.6-0.3-1.1-0.3-1.4-0.1c-0.2,0.2-0.3,0.5-0.3,0.8C370.1,195.2,369.9,195.4,369.6,195.4L369.6,195.4
	z"/>
<path class="st1" d="M373.9,203.3c-0.2,0-0.3-0.1-0.4-0.3l-1.9-3.3c-0.1-0.2-0.1-0.5,0.2-0.7s0.5-0.1,0.7,0.2l0,0l1.9,3.3
	c0.1,0.2,0,0.5-0.2,0.7C374,203.3,374,203.3,373.9,203.3z"/>
<path class="st1" d="M370.2,175.8c0.5,0.2-0.2-6.6-2.4-4.9s-2.4,8.1-2.4,8.1s-2.9-3.5-3.5-0.6s3.6,7.6,5.2,7.4s8.2-6.3,7.9-4.4
	s-2.4,5.2-1.1,5.9s4.4-0.6,4.4-0.6s0.5,7.1,2.4,6.8s3.3-3.3,4.8-1.4s11.2,11.6,11.9,11.6s9.2-2.5,9.2-2.5s0.6-9.8,1.1-16.3
	s-3.3-15.2-8.9-18.7s-13.8-2.7-17.7,0S370.2,175.8,370.2,175.8z"/>
<path class="st1" d="M397.5,204c-1.1,0-11.7-11-12.3-11.8c-0.1-0.2-0.3-0.4-0.6-0.4c-0.4,0-0.9,0.4-1.5,0.8c-0.6,0.6-1.4,1-2.2,1.2
	c-0.4,0.1-0.7,0-1-0.3c-1.3-1-1.7-4.7-1.9-6.3c-1.1,0.4-3.1,0.9-4.2,0.4c-1.2-0.6-0.5-2.4,0.1-4.2c0.2-0.6,0.5-1.2,0.6-1.8
	c-1.1,0.6-2.1,1.3-3.1,2.1c-2.1,1.6-3.5,2.5-4.2,2.6c-1.2,0.1-2.9-1.6-3.4-2.2c-1.4-1.6-2.8-4-2.4-5.9c0.2-0.8,0.6-1.3,1.2-1.5
	c0.9,0,1.8,0.3,2.4,1c0.2-2,0.7-5.9,2.5-7.3c0.5-0.5,1.4-0.5,1.9,0c0.8,0.7,1.3,2.6,1.4,4c2.1-2.1,6.9-6.8,10-8.9
	c4.2-2.9,12.6-3.6,18.3,0c5.4,3.4,9.6,12.2,9.1,19.1c-0.5,6.4-1.1,16.2-1.1,16.3c0,0.2-0.2,0.4-0.4,0.4
	C404.8,202,398.1,204,397.5,204z M384.6,190.8h0.2c0.5,0.1,0.9,0.4,1.2,0.8c1.4,1.9,10.3,10.6,11.5,11.4c0.8-0.1,5.5-1.5,8.6-2.4
	c0.1-1.8,0.7-10.2,1.1-16c0.5-6.6-3.5-15-8.6-18.2s-13.3-2.7-17.2,0c-3.5,2.4-9.6,8.5-10.7,9.6l0,0c-0.1,0.2-0.4,0.3-0.7,0.3
	c-0.2-0.1-0.3-0.2-0.3-0.4s0-0.3,0.1-0.5c0.1-0.7-0.3-3.7-1.1-4.3c-0.1,0-0.2-0.1-0.6,0.1c-1.7,1.3-2.1,6-2.2,7.7
	c0,0.3-0.3,0.5-0.5,0.5c-0.1,0-0.3-0.1-0.4-0.2c-0.6-0.7-1.7-1.7-2.2-1.6c-0.2,0.1-0.4,0.5-0.4,0.7c-0.3,1.4,0.9,3.6,2.2,5
	c1.1,1.2,2.1,1.9,2.5,1.8c0.6-0.1,2.4-1.4,3.7-2.4c2.8-2,3.8-2.7,4.4-2.3c0.3,0.2,0.4,0.5,0.3,0.8c-0.2,0.8-0.4,1.6-0.8,2.4
	c-0.4,1-1,2.7-0.6,2.9c0.8,0.4,2.9-0.2,4-0.7c0.1-0.1,0.3,0,0.5,0.1c0.1,0.1,0.2,0.2,0.2,0.4c0.1,2.1,0.7,5.6,1.6,6.3
	c0.1,0.1,0.1,0.1,0.2,0.1c0.7-0.2,1.3-0.5,1.8-1C383.1,191.3,383.8,190.9,384.6,190.8L384.6,190.8z"/>
<path class="st7" d="M381.8,196.4c0,0-1.3-9,1.9-7.4s5.7,10,4.9,11.9s-2.7,0.6-2.7,0.6"/>
<path class="st1" d="M387.2,202.3c-0.6,0-1.1-0.2-1.6-0.5c-0.2-0.2-0.3-0.5-0.1-0.7c0.1-0.2,0.4-0.3,0.7-0.1l0,0
	c0.4,0.3,0.9,0.4,1.3,0.3c0.3-0.1,0.5-0.4,0.6-0.7c0.7-1.7-1.7-9.8-4.7-11.2c-0.5-0.2-0.6-0.1-0.7,0c-0.9,0.6-0.8,4.5-0.5,7
	c0,0.3-0.2,0.5-0.4,0.6c-0.3,0-0.5-0.1-0.6-0.4l0,0c-0.2-1.1-0.9-6.7,0.9-7.9c0.5-0.3,1.2-0.3,1.7,0c3.5,1.8,6,10.4,5.1,12.5
	c-0.2,0.6-0.7,1.1-1.3,1.3C387.6,202.4,387.4,202.4,387.2,202.3z"/>
<path class="st8" d="M387.2,221.9l-3.5,9.8c6.7-3.6,13.7-6.7,20.8-9.3c5.5-2,11.2-3.4,17-4.4l-5.2-7.7
	C416.4,210.3,394.9,212.5,387.2,221.9z"/>
<path class="st1" d="M383.7,232.3c-0.1,0-0.2,0-0.3-0.1c-0.2-0.1-0.2-0.4-0.1-0.6l3.5-9.8c0-0.1,0-0.1,0.1-0.1
	c7.8-9.5,28.6-11.7,29.5-11.8c0.2,0,0.4,0.1,0.5,0.2l5.2,7.7c0.1,0.1,0.1,0.3,0,0.5s-0.2,0.3-0.4,0.3c-5.7,1-11.4,2.5-16.8,4.4
	c-7.1,2.6-14.1,5.6-20.7,9.2C383.9,232.2,383.8,232.3,383.7,232.3z M387.6,222.2l-3,8.5c6.4-3.4,13-6.3,19.8-8.7
	c5.3-1.8,10.8-3.3,16.3-4.3l-4.6-6.8C413.5,211.2,394.7,213.6,387.6,222.2z"/>
<path class="st1" d="M332.9,244.9l21.9,36.7c0.2,0.3,0.5,0.4,0.8,0.3l20.5-5c0.4-0.1,0.6-0.5,0.5-0.9c0-0.1,0-0.1-0.1-0.2l-19-32.9
	c-0.1-0.2-0.4-0.4-0.7-0.4l-23.4,1.3c-0.4,0.1-0.7,0.4-0.6,0.8C332.8,244.8,332.8,244.9,332.9,244.9z"/>
<path class="st1" d="M355.3,282.5c-0.4,0-0.8-0.2-1-0.6l-21.9-36.7c-0.2-0.4-0.2-0.8,0-1.2s0.6-0.6,1-0.6l23.4-1.3
	c0.5,0,0.9,0.2,1.1,0.6l19,32.9c0.3,0.6,0.1,1.3-0.5,1.7c-0.1,0.1-0.2,0.1-0.3,0.1l-20.5,5C355.6,282.5,355.5,282.5,355.3,282.5z
	 M356.9,243.1L356.9,243.1l-23.4,1.3c-0.1,0-0.2,0-0.2,0.1s0,0.2,0,0.2l0,0l21.9,36.7c0.1,0.1,0.2,0.1,0.3,0.1l20.5-5
	c0.1,0,0.1-0.1,0.1-0.1c0-0.1,0-0.1,0-0.2l-19-32.9C357.1,243.1,357,243.1,356.9,243.1z"/>
<polygon class="st9" points="335.3,246.4 355,279.4 374,274.7 357,245.2 "/>
<path class="st1" d="M355,279.9c-0.2,0-0.3-0.1-0.4-0.2l-19.7-33c-0.1-0.2-0.1-0.6,0.2-0.7c0.1,0,0.1-0.1,0.2-0.1l21.7-1.2
	c0.2,0,0.4,0.1,0.5,0.3l17,29.5c0.1,0.1,0.1,0.3,0,0.5c-0.1,0.1-0.2,0.3-0.3,0.3L355,279.9L355,279.9z M336.2,246.8l19.1,32l18-4.4
	l-16.5-28.7L336.2,246.8z"/>
<path class="st7" d="M371.2,252.4c0,0-5.8,3.1-7.9,4s-3.3,1.7-1.9,2.9s6-1.5,6-1.5l3.7-1.5L371.2,252.4z"/>
<path class="st1" d="M362.4,260.1c-0.5,0-0.9-0.1-1.3-0.4c-0.5-0.3-0.8-0.9-0.7-1.5c0.1-0.9,1.1-1.5,2.8-2.2c2.1-0.9,7.8-4,7.9-4
	c0.2-0.1,0.3-0.1,0.5,0s0.2,0.3,0.2,0.4l-0.2,3.9c0,0.2-0.1,0.4-0.3,0.4l-3.7,1.5C366.9,258.6,364.2,260.1,362.4,260.1z
	 M370.7,253.2c-1.7,0.9-5.5,2.9-7.2,3.6c-0.6,0.3-2.1,1-2.2,1.5c0,0.1,0.1,0.4,0.4,0.6c0.7,0.6,3.7-0.6,5.4-1.6l3.4-1.4L370.7,253.2
	z"/>
<path class="st2" d="M418.3,459.8l1.3,10c0,0-1.3,2.2-5.5,2.6s-7.2,1.1-7.2,1.1l1.1-9.8L418.3,459.8z"/>
<path class="st1" d="M406.9,474c-0.1,0-0.2,0-0.3-0.1c-0.1-0.1-0.2-0.3-0.2-0.4l1.1-9.8c0-0.2,0.1-0.3,0.3-0.4l10.2-4
	c0.1-0.1,0.3-0.1,0.4,0s0.2,0.2,0.2,0.4l1.3,10c0,0.1,0,0.2-0.1,0.3c-0.1,0.1-1.5,2.4-5.8,2.9C409.9,473.3,406.9,474,406.9,474
	L406.9,474z M408.5,464.1l-1,8.8c1.1-0.2,3.6-0.6,6.6-1c3.3-0.4,4.6-1.8,5-2.3l-1.2-9.2L408.5,464.1z"/>
<path class="st2" d="M419.6,469.8l-0.2-1.5c-3.9,1.3-8,2.1-12.1,2.1l-0.4,3c0,0,3.1-0.6,7.2-1.1S419.6,469.8,419.6,469.8z"/>
<path class="st1" d="M406.9,474c-0.1,0-0.2,0-0.3-0.1c-0.1-0.1-0.2-0.3-0.2-0.4l0.4-3c0-0.2,0.2-0.4,0.5-0.4
	c4.1-0.1,8.1-0.8,11.9-2.1c0.1-0.1,0.3-0.1,0.4,0s0.2,0.2,0.2,0.4l0.2,1.5c0,0.1,0,0.2-0.1,0.3c-0.1,0.1-1.5,2.4-5.8,2.9
	c-4.1,0.4-7.1,1.1-7.1,1.1L406.9,474z M407.7,471l-0.2,1.9c1.1-0.2,3.6-0.6,6.6-1c3.3-0.4,4.6-1.8,5-2.3L419,469
	C415.3,470.2,411.5,470.9,407.7,471L407.7,471z"/>
<path class="st2" d="M388.6,455.7l-11.3,7c-2.6,0.7-5.2,1.2-7.9,1.5c-1.4,0.1-2.4,1.2-2.4,2.6c0,0.7,0.3,1.3,0.9,1.8
	c1.3,1.1,5.6,2.9,11.1,4.1c10.9,2.4,26.6,1.5,27.9,0.9c1.2-0.5,2.1-1.4,2.6-2.6c0.2-0.9,0-9.4,0-9.4S393,459.6,388.6,455.7z"/>
<path class="st1" d="M396.5,474.8c-5.9,0.1-11.8-0.5-17.5-1.6c-5.5-1.2-10-3.1-11.3-4.3c-0.9-0.8-1.3-2.1-0.9-3.3
	c0.4-1.2,1.5-1.9,2.7-2c2.6-0.3,5.2-0.8,7.7-1.5l11.3-6.9c0.2-0.1,0.4-0.1,0.6,0.1c4.2,3.8,20.5,5.7,20.7,5.8c0.2,0,0.4,0.2,0.4,0.5
	c0,1.4,0.2,8.6,0,9.5c-0.5,1.3-1.6,2.4-2.9,2.9C406.4,474.3,402,474.8,396.5,474.8z M388.6,456.3l-11,6.8c0,0-0.1,0-0.1,0.1
	c-2.6,0.7-5.3,1.2-7.9,1.5c-0.8,0-1.5,0.5-1.8,1.3c-0.2,0.8,0,1.7,0.6,2.2c1.1,0.9,5.2,2.8,10.9,4c10.9,2.4,26.5,1.4,27.6,0.9
	c1-0.5,1.9-1.3,2.4-2.3c0.1-0.6,0.1-5.5,0-8.8C406.4,461.6,393,459.8,388.6,456.3L388.6,456.3z M377.3,462.6L377.3,462.6z"/>
<path class="st2" d="M377.5,469.8c-6.4-1.9-9-3.5-10.1-4.6c-0.6,1.1-0.4,2.4,0.5,3.3c1.3,1.1,5.6,2.9,11.1,4.1
	c10.9,2.4,26.6,1.5,27.9,0.9c1.1-0.5,2-1.4,2.6-2.4C402.2,471.7,386.6,472.6,377.5,469.8z"/>
<path class="st1" d="M396.5,474.8c-5.9,0.1-11.8-0.5-17.5-1.6c-5.5-1.2-10-3.1-11.3-4.3c-1.1-1-1.3-2.6-0.6-3.9
	c0.1-0.1,0.2-0.2,0.4-0.2c0.2,0,0.3,0,0.4,0.1c0.9,1,3.4,2.5,9.9,4.5l0,0c9.2,2.8,25.3,1.8,31.8,1.2c0.2,0,0.3,0.1,0.5,0.2
	c0.1,0.1,0.1,0.3,0.1,0.5c-0.6,1.2-1.6,2.2-2.8,2.7C406.4,474.3,402,474.8,396.5,474.8z M367.6,466.1c-0.2,0.7,0.1,1.5,0.6,2.1
	c1.1,0.9,5.2,2.8,10.9,4c10.9,2.4,26.5,1.4,27.6,0.9c0.7-0.3,1.3-0.8,1.9-1.4c-8.3,0.7-22.5,1.3-31.2-1.4l0,0
	C372.6,468.9,369.3,467.4,367.6,466.1z"/>
<path class="st10" d="M424.2,317.5c0,0,0,10.8-3.6,16.5s-8.6,11-8.6,11.8s-4.8,38-4.8,40s-0.2,7.8,1,10.8s5.8,21.9,8.6,38.8
	s1.6,21.1,1.6,21.1c0.5,1.2,0.9,2.5,1.2,3.8c-0.1,1-0.3,2-0.6,3c-3.5,1.1-7.3,1.3-11,0.6c-0.1-1.6,0-3.2,0.4-4.8
	c0.6-1.6,0.2-6,0.2-7s-7.6-52.6-7.6-56.5s-0.2-46.2-0.2-46.2l-1.8-29.3C399.1,320,409.5,319.6,424.2,317.5z"/>
<path class="st1" d="M412.8,464.7c-1.6,0-3.3-0.1-4.9-0.4c-0.2-0.1-0.4-0.2-0.4-0.5c-0.1-1.7,0-3.4,0.4-5c0.4-1.2,0.3-4.1,0.2-5.7
	c0-0.5,0-0.8,0-1c0-0.4-0.9-6.8-2-14.1c-2.2-15.8-5.6-39.7-5.6-42.4c0-3.9-0.2-45.8-0.2-46.2l-1.8-29.2c0-0.3,0.2-0.5,0.5-0.5
	c0.1,0,10.5-0.4,25-2.6c0.1,0,0.3,0,0.4,0.1s0.2,0.2,0.2,0.4c0,0.4,0,11-3.7,16.8c-1.9,3-4,5.8-6.3,8.5c-0.8,0.9-1.6,1.9-2.2,3
	c0,0.3-0.5,4.7-1.6,13.2c-1.3,10.8-3.2,25.6-3.2,26.8v0.8c0,2.4-0.1,7.2,1,9.8c1.2,3.1,5.8,22.1,8.6,38.9
	c2.5,15.2,1.8,20.2,1.6,21.1c0.5,1.2,0.9,2.5,1.2,3.8c-0.1,1.1-0.3,2.1-0.6,3.1c0,0.2-0.2,0.3-0.3,0.3
	C417.1,464.3,415,464.6,412.8,464.7z M408.5,463.4c1.4,0.2,2.9,0.3,4.3,0.3c2-0.1,3.9-0.4,5.8-0.9c0.2-0.8,0.4-1.7,0.5-2.6
	c-0.3-1.2-0.7-2.4-1.2-3.6c0-0.1,0-0.2,0-0.3c0,0,1.1-4.4-1.6-20.9c-2.8-16.8-7.3-35.7-8.5-38.7c-1.1-2.8-1.1-7.6-1-10.2v-0.8
	c0-1.3,1.8-15.5,3.2-26.9c0.8-6.5,1.6-12.7,1.6-13.1s0.6-1.3,2.4-3.6c2.2-2.7,4.3-5.5,6.2-8.4c3-4.8,3.4-13.4,3.5-15.7
	c-12.5,1.8-21.8,2.4-24,2.5l1.8,28.8c0,0.5,0.2,42.3,0.2,46.2c0,2.6,3.4,26.5,5.6,42.3c1.3,9.4,2,13.9,2,14.3c0,0.2,0,0.6,0,1
	c0.1,1.8,0.2,4.8-0.3,6.1C408.6,460.5,408.5,462,408.5,463.4L408.5,463.4z"/>
<path class="st10" d="M410,340c0,0-4.8,8.8-5.2,9.6s-0.4,7.8-0.4,9.4s-1,31.9-0.8,36s3.4,17.1,4.4,24.9s2.8,30.5,3,31.1
	c0.6,1.7,0.8,3.4,0.6,5.2c-0.3,1.3-0.8,2.6-1.4,3.8c0,0,0.6,3.4,0.2,4.4s-5.8,2-13.3-0.2s-10.8-7-10.8-7c0.3-1,0.4-2,0.4-3
	c0-1.2,0.9-2.2,2-2.4L385,425c0,0-3.6-8.4-3.8-9.8s0.8-4.8,0.6-6.2s-2.6-4.4-2.8-5.8s-6.8-23.7-7.2-43.4s0.4-38,0.4-38
	s5,2.6,20.5,1.6s21.7-1.2,29.1-4.4"/>
<path class="st1" d="M405.6,465.8c-2.9,0-5.8-0.5-8.7-1.3c-7.6-2.2-10.9-7-11-7.2c-0.1-0.1-0.1-0.3,0-0.5c0.3-0.9,0.4-1.9,0.4-2.8
	c0-1.2,0.8-2.3,1.9-2.8l-3.7-26.2c-0.5-1.1-3.6-8.4-3.8-9.8c0-1.1,0.1-2.2,0.3-3.3c0.2-1,0.3-2,0.3-2.9c-0.3-1-0.8-1.9-1.3-2.7
	c-0.6-0.9-1.1-2-1.5-3.1c0-0.2-0.2-1-0.5-2c-1.6-6.1-6.3-24.7-6.7-41.4c-0.4-19.5,0.3-37.9,0.4-38.1c0-0.2,0.1-0.3,0.2-0.4
	s0.3-0.1,0.5,0c0,0,5.2,2.5,20.3,1.6l3-0.2c13.5-0.9,19.1-1.2,25.9-4.1c0.3-0.1,0.5,0,0.7,0.3s0,0.5-0.3,0.7c-7,3-13,3.4-26.3,4.2
	l-3,0.2c-12.5,0.8-18.3-0.7-20.1-1.4c-0.1,3.6-0.7,20-0.3,37.3c0.3,16.6,5.1,35.1,6.6,41.2c0.3,1.3,0.5,1.9,0.5,2.1
	c0.3,1,0.8,1.9,1.3,2.7c0.6,0.9,1.1,2,1.5,3.1c0,1.1-0.1,2.2-0.3,3.2c-0.2,1-0.3,2-0.3,2.9c1.1,3.3,2.3,6.5,3.8,9.6v0.1l3.8,26.7
	c0,0.3-0.1,0.5-0.4,0.6c-0.9,0.2-1.6,1-1.6,1.9c0,1-0.1,1.9-0.3,2.9c2.7,3.2,6.3,5.5,10.3,6.6c7.6,2.2,12.4,1,12.7,0.5
	c0.1-1.4,0.1-2.7-0.2-4.1c0-0.1,0-0.2,0-0.3c0.6-1.2,1-2.4,1.4-3.7c0.2-1.7,0-3.3-0.6-4.9c-0.1-0.3-0.3-2.1-0.9-9.4
	s-1.5-17.2-2.1-21.8c-0.5-3.7-1.5-8.6-2.4-13.3c-0.9-3.8-1.5-7.7-2-11.6c-0.1-3,0.3-19.5,0.6-29.4c0.1-3.6,0.2-6.2,0.2-6.7
	c0-8.7,0.3-9.3,0.5-9.6c0.4-0.8,5-9.2,5.2-9.6c0.1-0.2,0.4-0.3,0.7-0.2c0.2,0.1,0.3,0.4,0.2,0.7l0,0c0,0.1-4.8,8.8-5.2,9.5
	c-0.1,0.2-0.3,1.4-0.3,9.1c0,0.4-0.1,3.1-0.2,6.7c-0.3,9.2-0.8,26.3-0.6,29.3c0.5,3.9,1.1,7.7,2,11.5c0.9,4.7,1.9,9.6,2.4,13.3
	c0.6,4.6,1.5,14.6,2.1,21.8c0.4,4.5,0.8,8.8,0.9,9.1c0,0,1.1,3.3,0.6,5.4c-0.3,1.3-0.8,2.6-1.4,3.8c0.1,0.8,0.5,3.5,0.1,4.5
	C410.6,465.2,408.6,465.8,405.6,465.8z"/>
<path class="st1" d="M394.9,459.9c-0.2,0-0.4-0.1-0.5-0.3c0,0-0.4-1.3-1.1-3.5c-0.4-1.3,0-2.7,1-3.6l-1.3-13c0-0.3,0.2-0.5,0.5-0.5
	s0.5,0.2,0.5,0.5l1.3,13.3c0,0.2-0.1,0.4-0.2,0.5c-0.9,0.6-1.2,1.7-0.9,2.7c0.6,2.2,1.1,3.5,1.1,3.5c0.1,0.3-0.1,0.5-0.3,0.6
	C395,459.8,395,459.9,394.9,459.9z"/>
<path class="st1" d="M393.2,435.4c-0.3,0-0.5-0.2-0.5-0.5l-2-20.6c-0.9-0.5-1.7-1.2-2.3-2c-0.9-1.1,0.1-2.6,0.9-3.7
	c0.2-0.3,0.4-0.6,0.6-0.9c0,0-4-13.3-7.6-32c-0.2-0.9-0.3-1.9-0.5-2.8c0-0.3,0.1-0.5,0.4-0.6c0.3,0,0.5,0.2,0.6,0.4
	c0.1,1,0.3,1.9,0.5,2.8c3.6,18.6,7.6,31.9,7.6,32c0.2,0.5-0.2,1-0.7,1.7s-1.4,1.9-0.9,2.5c0.6,0.7,1.4,1.4,2.2,1.8
	c0.2,0.1,0.3,0.2,0.3,0.4l2,20.9C393.7,435.1,393.5,435.4,393.2,435.4L393.2,435.4L393.2,435.4z"/>
<path class="st1" d="M381.5,367.5c-0.3,0-0.5-0.2-0.5-0.5c-1.8-17.5-0.5-39.7-0.5-39.9c0-0.3,0.2-0.5,0.5-0.5l0,0
	c0.3,0,0.5,0.3,0.5,0.5s-1.3,22.4,0.5,39.7C382,367.3,381.8,367.5,381.5,367.5L381.5,367.5L381.5,367.5z"/>
<path class="st1" d="M379.7,339.1c-0.1,0-0.2,0-0.3-0.1c-4.5-4-3.9-11.9-3.9-12.2c0-0.3,0.3-0.5,0.5-0.5c0.3,0,0.5,0.3,0.5,0.5l0,0
	c0,0.1-0.6,7.6,3.5,11.4c0.2,0.2,0.2,0.5,0,0.7C379.9,339,379.8,339.1,379.7,339.1L379.7,339.1z"/>
<path class="st1" d="M394.7,334.1c-0.2,0-0.4-0.1-0.5-0.3l-1.3-3.3c-0.1-0.2,0-0.3,0.1-0.5c0.1-0.1,0.2-0.2,0.4-0.2
	c0.1,0,10.9-0.2,15.7-2.4c0.3-0.1,0.5,0,0.7,0.3l0,0c0.1,0.2,0,0.5-0.3,0.6l0,0c-4.4,1.9-12.8,2.3-15.4,2.4l0.9,2.3
	c1.5-0.1,7.6-0.5,10.2-1.5c0.3-0.1,0.5,0.1,0.6,0.3c0.1,0.3,0,0.5-0.3,0.6C402.4,333.6,395,334,394.7,334.1L394.7,334.1z"/>
<path class="st11" d="M372.2,321.8c0,0,2.7,5,23.7,3.9s29.1-4.6,29.3-6.4c0-1.9-0.1-3.9-0.4-5.8
	C424.8,313.5,385.1,316.4,372.2,321.8z"/>
<path class="st1" d="M390,326.4c-15.7,0-18.1-4.1-18.3-4.3c0-0.1,0-0.3,0-0.4s0.2-0.2,0.3-0.3c12.9-5.4,51.2-8.2,52.8-8.3
	c0.3,0,0.5,0.2,0.5,0.4c0.3,2,0.4,3.9,0.4,5.9c-0.3,2.6-10.6,5.8-29.8,6.8C393.8,326.3,391.8,326.4,390,326.4z M373,322
	c1.3,1.1,6.4,4.1,22.8,3.2c21.6-1.2,28.7-4.8,28.9-5.9c0-1.7-0.1-3.5-0.3-5.2C420,314.4,385.6,317.2,373,322z"/>
<path class="st11" d="M383.7,231.7c0,0-11.8,5.4-12,7.1s-6.4,48.4-6.4,48.4l-9.3-10.8c0,0,0.2-3.9-0.4-5.4s-0.8-2.7-2.1-3.3
	s-5.8-1.7-6.9-2.7s-4.4-4-5.2-2.9s-2.3,3.1-1.9,4.4s1.9,4,1.9,4.8s0,6.6,2.5,9.3c1.7,1.7,3.8,3.1,6.2,3.9c0,0,6,15.8,8.1,18.9
	s11,10.2,11,10.2s-2.1,5-1.5,5.4s3.3,4.4,4,4.4s23.9-3.9,25.6-4s19.1,0,20.5-0.6c2.3-0.9,4.6-2,6.8-3.3c1.7-1.1,2.4-3.3,1.7-5.2
	c-0.8-3.1-1.5-24.9-1.5-26.8s3.9-17.2,5.6-23.1c2.2-8.7,3.9-17.5,5.2-26.4c0.2-2.9-2.1-9.6-2.9-10s-11.2-6-11.2-6
	S404.4,219.4,383.7,231.7z"/>
<path class="st1" d="M371.8,324c-0.6,0-1.3-0.8-3.1-3c-0.4-0.5-0.8-1-1.2-1.5c-0.3-0.2-0.9-0.6,1.2-5.7c-1.6-1.3-8.9-7.3-10.8-10.1
	s-7.3-16.8-8.1-18.8c-2.3-0.8-4.4-2.2-6.1-3.9c-2.4-2.6-2.6-7.6-2.6-9.6c-0.2-0.8-0.5-1.5-0.9-2.3s-0.7-1.6-1-2.4
	c-0.4-1.4,0.8-3.1,1.6-4.4c0.1-0.2,0.2-0.4,0.3-0.5c0.2-0.3,0.5-0.4,0.8-0.5c1.1-0.2,2.9,1.2,4.7,2.8l0.5,0.4c1.5,0.8,3,1.4,4.7,1.9
	c0.9,0.3,1.7,0.5,2.1,0.7c1.3,0.6,1.7,1.6,2.1,2.9c0.1,0.2,0.1,0.4,0.2,0.7c0.4,1.8,0.5,3.6,0.4,5.4l8.4,9.8
	c0.9-7.1,6-45.7,6.2-47.3c0.2-1.8,8.6-5.9,12.2-7.5c20.5-12.3,37.8-13.7,38-13.8c0.1,0,0.2,0,0.3,0.1c0.1,0.1,10.4,5.6,11.2,6
	c1.2,0.6,3.4,7.9,3.2,10.5c-1.3,8.9-3,17.8-5.2,26.5c-1.9,6.5-5.6,21.3-5.6,23c0,2.3,0.8,23.8,1.5,26.7c0.7,2.1-0.1,4.5-1.9,5.7
	c-2.2,1.3-4.5,2.4-6.9,3.4c-0.9,0.4-6.4,0.4-14.2,0.5c-3.1,0-5.8,0-6.4,0.1c-0.8,0.1-6,0.9-11.6,1.8
	C377.4,323.2,372.2,324,371.8,324z M368.1,318.8c0.5,0.5,0.9,1,1.3,1.6c0.7,1,1.5,1.9,2.4,2.7c0.4,0,7.9-1.2,13.9-2.2
	c5.6-0.9,10.8-1.8,11.6-1.8c0.6-0.1,3.2-0.1,6.5-0.1c4.9,0,13-0.1,13.8-0.4c2.3-0.9,4.5-2,6.6-3.2c1.5-1,2.2-3,1.6-4.7
	c-0.8-3.2-1.6-25.3-1.6-26.9c0-2,3.9-17.2,5.6-23.3c2.2-8.7,3.9-17.5,5.2-26.3c0.2-2.8-2-9.1-2.6-9.6c-0.7-0.4-9.8-5.2-11-5.9
	c-1.7,0.2-18.1,2.1-37.4,13.6l0,0c-5.5,2.5-11.5,5.8-11.7,6.7c-0.2,1.7-6.1,46.5-6.4,48.4c0,0.2-0.2,0.4-0.4,0.4
	c-0.2,0.1-0.4,0-0.5-0.1l-9.3-10.8c-0.1-0.1-0.1-0.2-0.1-0.4c0.1-1.7,0-3.5-0.4-5.2l-0.3-0.7c-0.4-1.1-0.7-1.9-1.6-2.3
	c-0.4-0.2-1.2-0.4-2-0.7c-2-0.6-4.2-1.4-5-2.1l-0.5-0.5c-0.9-0.7-3.1-2.7-3.9-2.6c-0.1,0.2-0.3,0.4-0.4,0.5c-0.7,1-1.8,2.6-1.5,3.5
	c0.3,0.8,0.6,1.5,1,2.3c0.5,0.8,0.8,1.7,1,2.7c0,1.5,0.2,6.5,2.4,8.9c1.7,1.7,3.7,2.9,6,3.7c0.1,0,0.3,0.2,0.3,0.3
	c0.1,0.1,6,15.8,8,18.8s10.8,10,10.9,10.1c0.2,0.1,0.2,0.4,0.1,0.6C369,315.4,368.5,317.1,368.1,318.8L368.1,318.8z M383.7,231.7
	L383.7,231.7z"/>
<path class="st1" d="M369.3,314.2c-0.2,0-0.5-0.2-0.5-0.4c0-0.3,0.1-0.5,0.4-0.6c2.6-0.4,6.9-1.4,7.7-2c1.1-1.3,11.2-30.5,11.6-32.3
	c0.3-1.4,0.8-16.8,1-22.7c0-0.3,0.2-0.5,0.5-0.5s0.5,0.2,0.5,0.5l0,0c0,0.9-0.6,21.1-1,22.9c-0.1,0.3-10.4,31.6-11.9,32.9
	c-1.2,1-7.4,2.1-8.1,2.2H369.3z"/>
<path class="st1" d="M389.7,269.9h-0.1c-0.3-0.1-0.4-0.4-0.3-0.6l3.3-11.8c0.1-0.3,0.4-0.4,0.6-0.4c0.3,0.1,0.4,0.3,0.4,0.6
	l-3.3,11.8C390.1,269.7,389.9,269.9,389.7,269.9z"/>
<path class="st1" d="M364.6,299.4c-0.2,0-0.5-0.2-0.5-0.4c-0.6-3.3,0.7-11.4,0.8-11.7c0-0.2,0.2-0.4,0.5-0.4l0,0
	c0.2,0,0.5,0.2,0.5,0.4c0,0.1,1.4,8,3.8,11.2c0.2,0.2,0.2,0.5,0,0.7s-0.5,0.2-0.7,0l0,0c-1.6-2.1-2.8-6-3.4-8.8
	c-0.3,2.7-0.7,6.6-0.4,8.5C365.2,299.1,365,299.3,364.6,299.4L364.6,299.4z"/>
<path class="st7" d="M356.2,276.5c0,0,0.2-3.9-0.4-5.4s-0.8-2.7-2.1-3.3s-5.8-1.7-6.9-2.7s-4.4-4-5.2-2.9s-2.3,3.1-1.9,4.4
	s1.9,4,1.9,4.8s0,6.6,2.5,9.3c1.7,1.7,3.8,3.1,6.2,3.9c0,0,0.3,0.9,0.9,2.3c1.2-2.8,3.6-6.3,8.2-6.7L356.2,276.5z"/>
<path class="st1" d="M351,287.4L351,287.4c-0.2,0-0.4-0.1-0.5-0.3l-0.8-2c-2.3-0.8-4.4-2.2-6.1-3.9c-2.4-2.6-2.6-7.6-2.6-9.6
	c-0.2-0.8-0.5-1.5-0.9-2.3s-0.7-1.6-1-2.4c-0.4-1.4,0.8-3.1,1.6-4.4c0.1-0.2,0.2-0.4,0.3-0.5c0.2-0.3,0.5-0.4,0.8-0.5
	c1.1-0.2,2.9,1.2,4.7,2.8l0.5,0.4c1.5,0.8,3,1.4,4.7,1.9c0.9,0.3,1.7,0.5,2.1,0.7c1.3,0.6,1.7,1.6,2.1,2.9c0.1,0.2,0.1,0.4,0.2,0.7
	c0.4,1.8,0.5,3.6,0.4,5.4l3,3.5c0.1,0.1,0.1,0.3,0.1,0.5c-0.1,0.2-0.2,0.3-0.4,0.3c-4.4,0.4-6.7,3.7-7.8,6.4
	C351.5,287.2,351.3,287.4,351,287.4z M342,262.5L342,262.5c-0.2,0.2-0.3,0.4-0.5,0.5c-0.7,1-1.8,2.6-1.5,3.5c0.3,0.8,0.6,1.5,1,2.3
	c0.5,0.8,0.8,1.7,1,2.7c0,1.5,0.2,6.5,2.4,8.9c1.7,1.7,3.7,2.9,6,3.7c0.1,0,0.3,0.2,0.3,0.3c0,0,0.2,0.4,0.4,1.1
	c1.3-3,4-5.2,7.2-5.8l-2.5-2.9c-0.1-0.1-0.1-0.2-0.1-0.4c0.1-1.7,0-3.5-0.4-5.2l-0.3-0.7c-0.4-1.1-0.7-1.9-1.6-2.3
	c-0.4-0.2-1.2-0.4-2-0.7c-2-0.6-4.2-1.4-5-2.1L346,265C345,264.3,342.9,262.5,342,262.5L342,262.5z"/>
<path class="st1" d="M353.1,291.1H353c-0.3-0.1-0.4-0.3-0.3-0.6l0,0c1.2-3.4,3.9-6,7.3-7.1c0.3-0.1,0.5,0.1,0.6,0.3
	c0.1,0.3-0.1,0.5-0.3,0.6c-3.1,1-5.5,3.4-6.6,6.4C353.5,290.9,353.3,291.1,353.1,291.1z"/>
<path class="st1" d="M397.4,320c-0.2,0-0.4-0.1-0.5-0.4s0.1-0.5,0.3-0.6l19.5-5.8c0.3-0.1,0.5,0.1,0.6,0.3l0,0
	c0.1,0.3-0.1,0.5-0.3,0.6l-19.5,5.8C397.5,320,397.5,320,397.4,320z"/>
<path class="st1" d="M398.3,289.5c-0.2,0-0.3-0.1-0.4-0.2c-0.2-0.2-0.1-0.5,0.1-0.7c9.9-7.2,22.1-20.5,22.3-20.6
	c0.2-0.2,0.5-0.1,0.7,0.1c0.1,0.2,0.2,0.4,0,0.6c-0.1,0.1-12.5,13.5-22.4,20.7C398.5,289.5,398.4,289.5,398.3,289.5z"/>
<path class="st1" d="M400.9,291.2c-0.3,0-0.5-0.2-0.5-0.5c0-0.2,0.1-0.3,0.2-0.4c3.9-2.9,13.2-12.2,13.3-12.3c0.2-0.2,0.5-0.2,0.7,0
	l0,0c0.2,0.2,0.2,0.5,0,0.7l0,0c-0.4,0.4-9.4,9.4-13.4,12.4C401.1,291.1,401,291.2,400.9,291.2z"/>
<path class="st2" d="M252.8,303.8"/>
<g>
	<path class="st8" d="M288.5,212.3l-0.5,0.6c-0.6,0.6-1.2,1.2-1.9,1.7l0,0c-7.4,5.4-18.2,11.3-24.9,16.7c-0.2,0.1-0.3,0-0.4-0.2
		c-4.1-18.1-8.2-35.9-12.2-53.7l0,0c-0.7-3.1-1.9-8.5-2.8-12.4c0.2,0.2,0.5,0.4,0.7,0.6l0,0l0.2,0.2v0.1c0.4,0.5,0.7,1,1.1,1.5
		c0,0.1,0.1,0.1,0.1,0.2c8.9,11.4,20.1,22.3,30.5,33.5C281.9,204.7,285.3,208.4,288.5,212.3z"/>
	<path class="st8" d="M253.2,206.6c-13.8-16.4-42.8-23.3-55.4-38.7c9.3,1.5,27.3-3.9,39-5.4l0,0c0.5-0.1,1-0.1,1.5-0.2
		c0.2,0,0.2,0,0.4,0c0.1,0,0.2,0,0.3,0c0.7,0,1.5,0.1,2.2,0.3c0.6,0.2,1.3,0.4,1.9,0.6c0.4,0.2,0.6,0.6,0.8,1
		c1.1,4.8,2.3,9.7,3.4,14.5c2.2,9.2,4.3,18.5,6.4,27.5C253.7,206.6,253.4,206.8,253.2,206.6z"/>
	<path class="st8" d="M293.4,165.9c-0.3,2.8-0.6,5.6-0.8,8.5c-0.9,11.2-1.2,22-2.5,33.8l0,0c-0.1,0.6-0.2,1.1-0.3,1.7l-0.2,0.9
		c-3.1-3.6-6.3-7.1-9.5-10.5c-3.9-4.1-7.9-8.3-11.8-12.9c14.1-11.2,14.6-13.3,21.8-19.9l0,0c0.3-0.3,0.6-0.6,1-0.9
		C291.6,166.2,292.4,165.9,293.4,165.9L293.4,165.9z"/>
	<path class="st8" d="M314,184.3c-7.1,0.2-13.7,0.6-20.7,0.8c0.3-3.6,0.5-7.1,0.7-10.7c0.2-2.7,0.4-5.5,0.6-8.4
		c0.6,0.2,1.1,0.4,1.5,0.7c0.2,0.2,0.5,0.5,0.8,0.7C302.7,173.2,308.4,178.7,314,184.3z"/>
	<path class="st8" d="M255,212.7c-0.6-3.2-2.7-5.1-5.1-7.3c-0.1-0.1-0.3-0.1-0.3,0.1c-6.6,17.1-13.1,34-19.7,51.3
		c-0.1,0.2,0.1,0.3,0.2,0.3c0.2-0.1,0.3-0.1,0.4-0.2c4.4-3.7,8.9-7.4,13.4-11.1c0.2-0.1,0.3,0,0.3,0.2c0.1,3.1,0.2,6.3,0.4,9.4
		c0,0.2,0.2,0.3,0.4,0.2l0,0c2.4-4.6,4.8-9.3,7.1-13.9c0.1-0.2,0.3-0.2,0.4,0c2.3,3.9,4.4,7.8,6.7,11.8c0.1,0.2,0.4,0.2,0.4-0.1l0,0
		c-0.1-7.2-0.1-14.2-0.2-21.4"/>
</g>
<g>
	<g>
		<path class="st8" d="M203.7,368.3c-1.3-0.8-2.3-2.4-2.3-3.7c0.1-1.5,1.8-3.4,2.8-3.5c0.2,0,0.3,0,0.4,0c0.2,0,0.3,0.1,0.3,0.3
			c0,0.3-0.4,0.8-1.1,1.4c-0.9,0.7-1.2,1.4-1.2,1.9c0,1.1,1,2.3,2.2,2.8c0.9,0.3,1.9,0.5,3.3,0.5c6.1,0,14.4-3.5,14.6-6.6
			c0-1.8-3-3.5-9.7-5.8c-5.5-1.9-9-4-9-6.4c0-0.5,0.1-0.9,0.3-1.4c0.6-1.9,5.6-5.8,10.2-8c3.7-1.7,8.6-3.1,11.3-3.1
			c2.5,0.2,3.6,1,3.6,2.6c-0.1,2.1-1.8,4.5-5.4,7.3c-2.5,1.9-5.1,3.3-5.9,3.3c-0.2,0-0.3-0.1-0.3-0.3c0-0.1,1.9-1.5,4.1-3.2
			c4.1-3,6.2-5.4,6.3-7.1c0-1-0.8-1.4-2.4-1.4c-4.8,0-14.8,4.3-19.3,9c-1.1,1.1-1.4,1.7-1.5,2.4c0,1.7,3,3.1,11,6
			c5.8,2.1,7.9,4.2,7.9,6.3c-0.1,2.2-1.7,3.9-5.6,5.5c-3.2,1.4-6.7,2.1-9.6,2.1C206.7,369.4,204.9,369.1,203.7,368.3z"/>
		<path class="st8" d="M228.1,352.8c1.4-3.3,2.1-4.5,2.8-4.5c0.5,0.1,0.8,0.4,0.8,0.8c0,0.3-0.1,0.5-0.4,0.6
			c-0.5,0.2-2.6,5.3-3.1,7.6c-0.2,0.8-0.3,1.5-0.3,2.1c0,0.9,0.3,1.4,0.8,1.4c0.8,0,2.1-1,4-2.9s3-2.9,3.4-2.9
			c0.1,0,0.2,0.1,0.2,0.3c0,0.8-4.5,5.6-5.7,6.3c-0.8,0.4-1.5,0.7-1.7,0.7l-1-0.4c-0.8-0.4-1.3-1.5-1.3-3
			C226.6,357.3,227.2,355.2,228.1,352.8z M232.6,342.3c0.6-1.2,2.4-1.9,2.4-0.1c0,0.4-0.2,1-0.6,1.9c-0.5,1.1-1.2,1.7-1.5,1.7
			C231.9,345.7,232,343.3,232.6,342.3z"/>
		<path class="st8" d="M224.2,390.3c0-10.1,11-20.8,18.2-27.8l3.2-3.1v-2.6c0-2.4-0.1-3.6-0.5-3.6c-0.6,0-2.7,4.7-3,4.9
			c-0.1,0.1-0.8,1.3-1.4,2.6c-1.4,2.9-3.7,5.5-4.7,5.5c-1.7,0-2.5-1.2-2.5-3.2c0-1.9,0.7-4.6,2.2-7.8c0.8-1.7,2-3.9,2.7-4.9
			c1.6-2.4,3.3-3.6,4.5-3.6c0.9,0,1.5,0.7,1.5,2.1c0,0.9-0.4,2.3-0.4,2.9c0,0.2,0.1,0.3,0.1,0.3c0.1,0,0.4-0.3,0.8-1
			c0.4-0.7,1-1.2,1.4-1.2c0.6,0,0.7,0.1,0.7,1.7l-0.1,3.9c0,1.7,0.1,2.4,0.6,2.4c0.4,0,1-0.5,2-1.2c2.1-1.6,3.9-2.5,4.5-2.5
			c0.5,0,1.2,0.9,1.2,1h-0.1c-0.1,0-0.4-0.2-0.8-0.2c-0.6,0-1.4,0.4-2.7,1.3c-3.9,2.7-4.4,3.3-4.7,5.8c-1.2,11.3-9,30.8-19.4,33.2
			L227,395C225.2,394.6,224.2,392.8,224.2,390.3z M227.7,393.8c0.6,0,1.7-0.6,3.1-1.5c7.1-5,12.9-16.7,14.2-27.4
			c0.2-1.6,0.5-2.7,0.5-3c0-0.1-0.1-0.2-0.1-0.2c-0.4,0-1.3,0.8-3.2,2.6c-12.2,12.2-16.8,19.5-16.8,26.2
			C225.4,392.5,226.4,393.8,227.7,393.8z M235.4,365c1.1,0,4.5-4.7,6.2-10.5c0.8-2.8,1.2-4.7,1.2-5.7c0-0.5-0.1-0.8-0.4-0.8
			c-0.3,0-0.9,0.5-1.6,1.4c-3.1,3.5-6,10-6,13.4C234.9,364.3,235,365,235.4,365z"/>
		<path class="st8" d="M253,362.1c0.1-2.7,0.8-5.7,2.2-9.7l1.8-5.3c0.1-0.5,0.5-0.7,0.9-0.7s0.7,0.2,0.7,0.7v0.3
			c0,0.2-3.3,9.5-3.3,10.4c0,0.1,0,0.1,0,0.1c0.1,0,0.5-0.6,1.1-1.6c1.8-2.9,3.7-4.8,4.7-4.8c0.5,0,0.7,0.4,0.7,1.5
			c0,0.8-0.2,2.3-0.2,3.3c0,2.4,0.8,3.5,1.6,3.6c0.6,0,2.7-1.7,3.2-1.7c0.1,0,0.1,0.1,0.1,0.1c0,0.2-0.4,0.7-1.1,1.3
			c-0.8,0.7-1.7,1-2.4,1c-1.7,0-2.9-1.8-2.9-4.6c0-1.1,0.1-1,0.1-1.7c0-0.4-0.1-0.6-0.2-0.6c-0.8,0-4.4,5.6-5.2,9
			c-0.3,1.2-0.6,1.8-1,1.8S253,363.8,253,362.1z"/>
		<path class="st8" d="M294.5,370.6c-0.7-0.5-0.9-1.8-0.9-4.6c0-4.8,1.4-11.3,4.2-19.9c0.9-2.7,1.3-4.3,1.3-4.8c0-0.1,0-0.2-0.1-0.2
			s-0.3,0.3-0.6,0.8c-3.8,6.2-13.8,20.2-16,22.7c-0.7,0.7-1.4,1.1-2.1,1.1c-1.2,0-2.5-0.9-2.5-3.5c0-4,2.5-12,6.9-22.2
			c1.1-2.5,1.7-3.5,2.1-3.5c0.5,0.1,0.8,0.5,0.8,1s-0.3,1.1-0.7,1.6c-1.7,1.7-7.7,17.1-7.7,22.9c0,1.8,0.2,2.7,0.8,2.7
			c0.3,0,0.6-0.2,1.1-0.6c1.3-1.2,9.2-12,12.5-17c7.4-11.2,8.5-12.9,8.7-13.7c0.1-0.5,0.5-0.8,0.8-0.8s0.6,0.2,0.7,0.6
			c0,0.1,0,0.1,0,0.2c0,0.4-0.2,1.2-0.6,2c-1,2.2-4.3,11.8-5.6,16.5c-1.5,5.4-2.5,11.4-2.5,14.8c0,1.2,0.1,2.1,0.4,2.5
			c0.1,0.3,0.2,0.5,0.2,0.8c0,0.5-0.3,0.9-0.5,0.9C295,370.9,294.8,370.8,294.5,370.6z"/>
		<path class="st8" d="M299.1,390.4c-1.7-1.1-2.4-4.5-2.6-9.1c0-4.8,1.2-11.8,2-15.1V366c0-0.3-0.4-0.5-1.2-0.6
			c-2-0.3-3-1.2-3.1-2.1c0-0.2,0-0.2,0.1-0.2c0.3,0,1.5,0.8,3.1,1.1l1.4,0.2c2.2-8.1,3-11.2,4.9-18.8c0.8-3.3,1.7-6,1.9-6.2h0.2
			c0.6,0,1,0.8,1,1.5c0,0.2-0.1,0.3-0.1,0.5c-0.5,0.6-1.6,5.5-1.6,6.7c0,0.2,0,0.3,0.1,0.3c0.3-0.1,1-1.1,1.8-2c1.5-1.9,3.3-3,4.1-3
			c0.3,0,0.5,0.1,0.9,0.4c1.1,0.7,1.5,2.3,1.5,4.7c0,3.9-1.5,9.4-4.1,12.9c-1.4,2-4.3,3.7-7.1,4.2l-2,0.3c-1.3,7.3-2.1,11.8-2.1,16
			c0.1,4.2,0.5,6.5,1.9,7.6c0.5,0.4,1,0.8,1,1s-0.2,0.3-0.5,0.3h-0.1C300,390.8,299.5,390.6,299.1,390.4z M303.7,363.6
			c4.3-1.5,8.4-8.6,8.4-15.1c-0.1-2.6-0.2-3.4-0.9-3.5c-1,0.1-3.3,2.4-5.1,5c-1,1.4-1.9,3.1-2.8,5.1l-2.6,9.3
			C302,364.1,302.7,363.9,303.7,363.6z"/>
	</g>
	<g>
		<path class="st12" d="M203.7,367.3c-1.3-0.8-2.3-2.4-2.3-3.7c0.1-1.5,1.8-3.4,2.8-3.5c0.2,0,0.3,0,0.4,0c0.2,0,0.3,0.1,0.3,0.3
			c0,0.3-0.4,0.8-1.1,1.4c-0.9,0.7-1.2,1.4-1.2,1.9c0,1.1,1,2.3,2.2,2.8c0.9,0.3,1.9,0.5,3.3,0.5c6.1,0,14.4-3.5,14.6-6.6
			c0-1.8-3-3.5-9.7-5.8c-5.5-1.9-9-4-9-6.4c0-0.5,0.1-0.9,0.3-1.4c0.6-1.9,5.6-5.8,10.2-8c3.7-1.7,8.6-3.1,11.3-3.1
			c2.5,0.2,3.6,1,3.6,2.6c-0.1,2.1-1.8,4.5-5.4,7.3c-2.5,1.9-5.1,3.3-5.9,3.3c-0.2,0-0.3-0.1-0.3-0.3c0-0.1,1.9-1.5,4.1-3.2
			c4.1-3,6.2-5.4,6.3-7.1c0-1-0.8-1.4-2.4-1.4c-4.8,0-14.8,4.3-19.3,9c-1.1,1.1-1.4,1.7-1.5,2.4c0,1.7,3,3.1,11,6
			c5.8,2.1,7.9,4.2,7.9,6.3c-0.1,2.2-1.7,3.9-5.6,5.5c-3.2,1.4-6.7,2.1-9.6,2.1C206.7,368.4,204.9,368.1,203.7,367.3z"/>
		<path class="st12" d="M228.1,351.8c1.4-3.3,2.1-4.5,2.8-4.5c0.5,0.1,0.8,0.4,0.8,0.8c0,0.3-0.1,0.5-0.4,0.6
			c-0.5,0.2-2.6,5.3-3.1,7.6c-0.2,0.8-0.3,1.5-0.3,2.1c0,0.9,0.3,1.4,0.8,1.4c0.8,0,2.1-1,4-2.9s3-2.9,3.4-2.9
			c0.1,0,0.2,0.1,0.2,0.3c0,0.8-4.5,5.6-5.7,6.3c-0.8,0.4-1.5,0.7-1.7,0.7l-1-0.4c-0.8-0.4-1.3-1.5-1.3-3
			C226.6,356.3,227.2,354.2,228.1,351.8z M232.6,341.3c0.6-1.2,2.4-1.9,2.4-0.1c0,0.4-0.2,1-0.6,1.9c-0.5,1.1-1.2,1.7-1.5,1.7
			C231.9,344.7,232,342.3,232.6,341.3z"/>
		<path class="st12" d="M224.2,389.3c0-10.1,11-20.8,18.2-27.8l3.2-3.1v-2.6c0-2.4-0.1-3.6-0.5-3.6c-0.6,0-2.7,4.7-3,4.9
			c-0.1,0.1-0.8,1.3-1.4,2.6c-1.4,2.9-3.7,5.5-4.7,5.5c-1.7,0-2.5-1.2-2.5-3.2c0-1.9,0.7-4.6,2.2-7.8c0.8-1.7,2-3.9,2.7-4.9
			c1.6-2.4,3.3-3.6,4.5-3.6c0.9,0,1.5,0.7,1.5,2.1c0,0.9-0.4,2.3-0.4,2.9c0,0.2,0.1,0.3,0.1,0.3c0.1,0,0.4-0.3,0.8-1
			c0.4-0.7,1-1.2,1.4-1.2c0.6,0,0.7,0.1,0.7,1.7l-0.1,3.9c0,1.7,0.1,2.4,0.6,2.4c0.4,0,1-0.5,2-1.2c2.1-1.6,3.9-2.5,4.5-2.5
			c0.5,0,1.2,0.9,1.2,1h-0.1c-0.1,0-0.4-0.2-0.8-0.2c-0.6,0-1.4,0.4-2.7,1.3c-3.9,2.7-4.4,3.3-4.7,5.8c-1.2,11.3-9,30.8-19.4,33.2
			L227,394C225.2,393.6,224.2,391.8,224.2,389.3z M227.7,392.8c0.6,0,1.7-0.6,3.1-1.5c7.1-5,12.9-16.7,14.2-27.4
			c0.2-1.6,0.5-2.7,0.5-3c0-0.1-0.1-0.2-0.1-0.2c-0.4,0-1.3,0.8-3.2,2.6c-12.2,12.2-16.8,19.5-16.8,26.2
			C225.4,391.5,226.4,392.8,227.7,392.8z M235.4,364c1.1,0,4.5-4.7,6.2-10.5c0.8-2.8,1.2-4.7,1.2-5.7c0-0.5-0.1-0.8-0.4-0.8
			c-0.3,0-0.9,0.5-1.6,1.4c-3.1,3.5-6,10-6,13.4C234.9,363.3,235,364,235.4,364z"/>
		<path class="st12" d="M253,361.1c0.1-2.7,0.8-5.7,2.2-9.7l1.8-5.3c0.1-0.5,0.5-0.7,0.9-0.7s0.7,0.2,0.7,0.7v0.3
			c0,0.2-3.3,9.5-3.3,10.4c0,0.1,0,0.1,0,0.1c0.1,0,0.5-0.6,1.1-1.6c1.8-2.9,3.7-4.8,4.7-4.8c0.5,0,0.7,0.4,0.7,1.5
			c0,0.8-0.2,2.3-0.2,3.3c0,2.4,0.8,3.5,1.6,3.6c0.6,0,2.7-1.7,3.2-1.7c0.1,0,0.1,0.1,0.1,0.1c0,0.2-0.4,0.7-1.1,1.3
			c-0.8,0.7-1.7,1-2.4,1c-1.7,0-2.9-1.8-2.9-4.6c0-1.1,0.1-1,0.1-1.7c0-0.4-0.1-0.6-0.2-0.6c-0.8,0-4.4,5.6-5.2,9
			c-0.3,1.2-0.6,1.8-1,1.8S253,362.8,253,361.1z"/>
		<path class="st12" d="M294.5,369.6c-0.7-0.5-0.9-1.8-0.9-4.6c0-4.8,1.4-11.3,4.2-19.9c0.9-2.7,1.3-4.3,1.3-4.8
			c0-0.1,0-0.2-0.1-0.2s-0.3,0.3-0.6,0.8c-3.8,6.2-13.8,20.2-16,22.7c-0.7,0.7-1.4,1.1-2.1,1.1c-1.2,0-2.5-0.9-2.5-3.5
			c0-4,2.5-12,6.9-22.2c1.1-2.5,1.7-3.5,2.1-3.5c0.5,0.1,0.8,0.5,0.8,1s-0.3,1.1-0.7,1.6c-1.7,1.7-7.7,17.1-7.7,22.9
			c0,1.8,0.2,2.7,0.8,2.7c0.3,0,0.6-0.2,1.1-0.6c1.3-1.2,9.2-12,12.5-17c7.4-11.2,8.5-12.9,8.7-13.7c0.1-0.5,0.5-0.8,0.8-0.8
			s0.6,0.2,0.7,0.6c0,0.1,0,0.1,0,0.2c0,0.4-0.2,1.2-0.6,2c-1,2.2-4.3,11.8-5.6,16.5c-1.5,5.4-2.5,11.4-2.5,14.8
			c0,1.2,0.1,2.1,0.4,2.5c0.1,0.3,0.2,0.5,0.2,0.8c0,0.5-0.3,0.9-0.5,0.9C295,369.9,294.8,369.8,294.5,369.6z"/>
		<path class="st12" d="M299.1,389.4c-1.7-1.1-2.4-4.5-2.6-9.1c0-4.8,1.2-11.8,2-15.1V365c0-0.3-0.4-0.5-1.2-0.6
			c-2-0.3-3-1.2-3.1-2.1c0-0.2,0-0.2,0.1-0.2c0.3,0,1.5,0.8,3.1,1.1l1.4,0.2c2.2-8.1,3-11.2,4.9-18.8c0.8-3.3,1.7-6,1.9-6.2h0.2
			c0.6,0,1,0.8,1,1.5c0,0.2-0.1,0.3-0.1,0.5c-0.5,0.6-1.6,5.5-1.6,6.7c0,0.2,0,0.3,0.1,0.3c0.3-0.1,1-1.1,1.8-2c1.5-1.9,3.3-3,4.1-3
			c0.3,0,0.5,0.1,0.9,0.4c1.1,0.7,1.5,2.3,1.5,4.7c0,3.9-1.5,9.4-4.1,12.9c-1.4,2-4.3,3.7-7.1,4.2l-2,0.3c-1.3,7.3-2.1,11.8-2.1,16
			c0.1,4.2,0.5,6.5,1.9,7.6c0.5,0.4,1,0.8,1,1s-0.2,0.3-0.5,0.3h-0.1C300,389.8,299.5,389.6,299.1,389.4z M303.7,362.6
			c4.3-1.5,8.4-8.6,8.4-15.1c-0.1-2.6-0.2-3.4-0.9-3.5c-1,0.1-3.3,2.4-5.1,5c-1,1.4-1.9,3.1-2.8,5.1l-2.6,9.3
			C302,363.1,302.7,362.9,303.7,362.6z"/>
	</g>
</g>
<path class="st6" d="M391.3,98.6v-3.3c0-5-4.1-9.1-9.1-9.1l0,0h-5.1L110.6,352.8v26.5L391.3,98.6z"/>
<polygon class="st6" points="110.6,143.2 110.6,247.2 271.5,86.2 167.5,86.2 "/>
<rect id="_x3C_Slice_x3E_" x="59" y="84" class="st13" width="141" height="396"/>
<rect id="_x3C_Slice_x3E__1_" x="314" y="90" class="st13" width="221" height="538"/>
</svg>
