<?xml version="1.0" encoding="utf-8"?>
<!-- Generator: Adobe Illustrator 23.1.0, SVG Export Plug-In . SVG Version: 6.00 Build 0)  -->
<svg version="1.1" id="Layer_1" xmlns="http://www.w3.org/2000/svg" xmlns:xlink="http://www.w3.org/1999/xlink" x="0px" y="0px"
	 viewBox="0 0 387.8 316.4" style="enable-background:new 0 0 387.8 316.4;" xml:space="preserve">
<style type="text/css">
	.st0{fill:#212121;}
	.st1{fill:#263238;}
	.st2{fill:#FFB573;}
	.st3{fill:#6547EB;}
	.st4{opacity:0.2;enable-background:new    ;}
	.st5{fill:#ED893E;}
	.st6{clip-path:url(#SVGID_2_);}
	.st7{opacity:0.2;}
	.st8{fill:#FFFFFF;}
	.st9{opacity:0.3;enable-background:new    ;}
	.st10{fill:#FF9D76;}
	.st11{opacity:0.2;fill:#263238;enable-background:new    ;}
	.st12{opacity:0.1;fill:#FFFFFF;enable-background:new    ;}
	.st13{fill:#E09B8C;}
	.st14{fill:#DD7B58;}
	.st15{opacity:0.6;fill:#FFFFFF;enable-background:new    ;}
	.st16{fill:#FFC3BD;}
	.st17{opacity:0.2;fill:#FFFFFF;enable-background:new    ;}
	.st18{fill:#EAAEAC;}
	.st19{fill:#ED847E;}
</style>
<g id="freepik--Shadow--inject-2">
	<ellipse id="freepik--path--inject-2" class="st0" cx="193.9" cy="305.1" rx="193.9" ry="11.3"/>
</g>
<g id="freepik--character-3--inject-2">
	<path class="st1" d="M311.8,24.3c-6,3.3-8,13-5.2,17.2c-10.4,3.1-5,21,12,22s29.9-5.2,21.6-18.5c8.3-11.1,4.5-23.6-2.8-22.2
		C329.7,7.3,303.6,7.7,311.8,24.3z"/>
	<path class="st1" d="M329.9,64.7c-2.6,0-5.2-0.7-7.4-2.1c-0.1,0-0.2-0.2-0.2-0.3s0.2-0.2,0.3-0.2h0.1c6,3.6,13.7,2.2,18.1-3.1
		c2.7-3.4,4-8.8-0.8-13.9c-0.1-0.1-0.1-0.3,0-0.4c0.1-0.1,0.3-0.1,0.4,0c4.9,5.3,3.6,11,0.8,14.5C338.4,62.7,334.3,64.7,329.9,64.7z
		"/>
	<path class="st1" d="M304.7,44.8c-0.1,0-0.2-0.1-0.2-0.2c-2.7-7.6,0.9-17.9,7.2-20.6c0.1,0,0.3,0,0.3,0.1c0.1,0.1,0,0.3-0.1,0.3
		l0,0c-6.1,2.7-9.5,12.6-6.9,20C305,44.6,304.9,44.7,304.7,44.8C304.8,44.8,304.8,44.8,304.7,44.8L304.7,44.8z"/>
	<path class="st1" d="M303.1,33.8L303.1,33.8c-0.2-0.1-0.3-0.2-0.2-0.3c1.8-4.8,5.2-8.4,8.9-9.5c0.1,0,0.3,0,0.3,0.2
		c0,0.1,0,0.3-0.2,0.3c-3.5,1-6.8,4.6-8.5,9.2C303.3,33.8,303.2,33.8,303.1,33.8z"/>
	<polygon class="st2" points="317.1,299.8 311.3,299.8 310.4,278.1 320.1,278.4 	"/>
	<path class="st3" d="M307,112.5c0,0-0.5,60.3-1.8,86.5c0,0.8,0,1.6,0,2.3c1.9,26.3,5,76.8,5,76.8l9.8,0.3c0,0,8.5-40.4,3.3-76.9
		c8.5-41.3,13.1-78.2,5.4-89H307z"/>
	<path class="st4" d="M323.4,136.4c-3,10.1-0.1,42.4,1.5,57.3c2.1-10.8,3.9-21.1,5.2-30.7L323.4,136.4z"/>
	<path class="st1" d="M310.7,297h7.5c0.3,0,0.6,0.2,0.6,0.6l0.8,6.1c0,0.8-0.6,1.4-1.4,1.5l0,0c-3.3,0-4.9-0.2-9.1-0.2
		c-2.6,0-4.1,0.3-7.7,0.3s-3.5-3.4-2.1-3.7c6.7-1.4,7.5-2.2,9.9-4C309.6,297.2,310.2,297,310.7,297z"/>
	<path class="st2" d="M313.1,68.1c-0.4,2.1-0.8,4-1.2,6s-0.9,4-1.4,6c-1,4-2.1,7.9-3.6,11.9c-0.7,2-1.6,4.1-2.5,6
		c-0.5,1.1-1.1,2.1-1.8,3.1c-0.2,0.3-0.4,0.5-0.6,0.8s-0.5,0.6-0.8,0.9c-0.8,0.7-1.7,1.3-2.7,1.6c-1.1,0.3-2.2,0.4-3.3,0.1
		c-0.9-0.2-1.7-0.5-2.4-1c-1.1-0.7-2.1-1.6-2.9-2.7c-1.4-1.8-2.5-3.7-3.4-5.9c-0.4-1.1,0.1-2.3,1.2-2.7c0.8-0.3,1.7-0.1,2.3,0.5
		l0.1,0.1c1.2,1.3,2.6,2.5,4,3.6c0.6,0.4,1.2,0.8,1.8,1c0.2,0.1,0.4,0.1,0.4,0s-0.1-0.1-0.3-0.1s-0.2,0.1-0.2,0s0.1-0.2,0.2-0.3
		s0.2-0.3,0.3-0.4c0.4-0.7,0.8-1.4,1.1-2.1c0.7-1.7,1.4-3.5,1.9-5.2c1.1-3.7,2.2-7.5,3.1-11.3s1.8-7.7,2.6-11.6l0,0
		c0.5-2.3,2.8-3.7,5-3.1C312,63.9,313.4,66,313.1,68.1L313.1,68.1z"/>
	<path class="st1" d="M304,104.3c0,2.5,38.3,2.9,38.3-0.3l-19.6-5L304,104.3"/>
	<path class="st2" d="M311.1,61.7c10.1-1.7,20.4-1.6,30.5,0.3c2.4,0.4,4,2.6,3.6,5c0,0.1,0,0.2-0.1,0.3c-5.4,24.3-5.1,32.4-4.6,45.2
		H307c-1.7-21.3-2.6-33.5-2.8-40.4C304.1,66.8,305.9,62.5,311.1,61.7z"/>
	<path class="st4" d="M341.5,68.7c-0.2,3.4,0.2,6.8,1.3,10c0.4-2.3,0.9-4.8,1.5-7.5L341.5,68.7z"/>
	<path class="st2" d="M330.6,44c-1,4.9-1.9,13.8,1.5,17c0,0-1.3,4.9-10.4,4.9c-9.9,0-4.8-4.9-4.8-4.9c5.4-1.3,5.3-5.3,4.3-9.1
		L330.6,44z"/>
	<path class="st4" d="M326.8,47.2l-5.5,4.7c0.2,0.9,0.4,1.8,0.5,2.7c2.1-0.3,4.9-2.6,5.1-4.7C327,49,327,48.1,326.8,47.2z"/>
	<path class="st2" d="M335.8,35.5c-1.9,7.9-2.5,11.3-7.2,14.7c-7.1,5.1-16.4,1.1-17-7.2c-0.5-7.5,2.6-19.2,11-21
		c6-1.3,11.9,2.4,13.3,8.4C336.3,32.1,336.2,33.9,335.8,35.5z"/>
	<path class="st1" d="M332.8,23.6c-8.4,0.9-5.8,16.6,0.5,18.1C340.7,38.1,345.2,24.4,332.8,23.6z"/>
	<polygon class="st2" points="373.8,285.5 368,287.3 359.6,269.6 368.5,267.1 	"/>
	<path class="st1" d="M366.4,285.5l7.4-2.9c0.3-0.1,0.6,0,0.7,0.3l3.3,5.6c0.3,0.5,0.1,1.2-0.4,1.5c0,0-0.1,0.1-0.2,0.1
		c-2.6,1-3.9,1.5-7.1,2.8c-2,0.8-5.1,3.4-7.9,4.5s-4-1.5-3-2.4c2.7-2.4,4.8-5.3,6.2-8.6C365.6,285.9,366,285.6,366.4,285.5z"/>
	<path class="st3" d="M316.3,112.5c0,0,12.3,63.1,17,88c4.8,26,26.4,69.1,26.4,69.1l8.9-2.4c0,0-12.2-46.1-17.9-68.9
		c-1.1-41.3,0.2-75-10-85.8L316.3,112.5z"/>
	<path class="st1" d="M322.7,35.5c-0.1,0.6-0.5,1.1-1,1s-0.7-0.7-0.6-1.3s0.5-1.1,1-1.1S322.8,34.8,322.7,35.5z"/>
	<path class="st1" d="M315.4,34.2c-0.1,0.6-0.5,1.1-1,1s-0.7-0.6-0.6-1.3s0.5-1.1,1-1S315.5,33.6,315.4,34.2z"/>
	<path class="st1" d="M315,33l-1.5-0.7C313.5,32.3,314.1,33.6,315,33z"/>
	<path class="st5" d="M317.4,35.8c-0.8,1.4-1.8,2.6-3,3.8c0.6,0.6,1.4,0.9,2.2,0.8L317.4,35.8z"/>
	<path class="st1" d="M319.8,43.5c-0.3,0-0.7,0-1-0.1c-0.1,0-0.2-0.1-0.2-0.2l0,0c0-0.1,0.1-0.2,0.2-0.2c1.6,0.3,3.3-0.2,4.5-1.3
		c0.1-0.1,0.2-0.1,0.3,0l0,0c0.1,0.1,0.1,0.2,0,0.3C322.6,43,321.2,43.6,319.8,43.5z"/>
	<path class="st2" d="M337,42.4c-0.8,1.4-2.1,2.3-3.6,2.8c-2,0.5-3-1.3-2.4-3.2c0.5-1.7,2.2-4,4.2-3.7c1.5,0.3,2.4,1.7,2.2,3.1
		C337.3,41.7,337.2,42.1,337,42.4z"/>
	<path class="st1" d="M325.9,34.5c-0.2,0-0.3-0.1-0.4-0.3c-0.5-1.7-2.7-2.4-2.7-2.4c-0.2-0.1-0.3-0.3-0.3-0.5l0,0
		c0.1-0.2,0.3-0.3,0.5-0.3l0,0c0.1,0,2.6,0.9,3.2,3C326.3,34.2,326.1,34.4,325.9,34.5L325.9,34.5L325.9,34.5z"/>
	<path class="st1" d="M313.7,30.5c-0.1,0-0.3-0.1-0.3-0.2c-0.1-0.2,0-0.4,0.1-0.5c1.1-0.6,2.4-0.7,3.5-0.2c0.2,0.1,0.3,0.3,0.2,0.5
		c-0.1,0.2-0.3,0.3-0.5,0.2l0,0c-0.9-0.4-2-0.3-2.8,0.2C313.9,30.4,313.8,30.5,313.7,30.5z"/>
	<path class="st2" d="M344.3,63.4c2.9,3.7,5.4,7.5,7.9,11.5c1.2,2,2.4,4,3.5,6.1c1.2,2.2,2.2,4.5,3,6.9c0.1,0.3,0.2,0.7,0.3,1
		l0.1,0.3l0.1,0.4c0,0.3,0.1,0.5,0.1,0.8c0,0.9,0,1.7-0.2,2.6c-0.3,1.4-0.7,2.7-1.3,3.9c-1,2.2-2.2,4.4-3.5,6.4
		c-2.5,3.9-5.4,7.6-8.5,11.1c-0.8,0.9-2.1,0.9-2.9,0.2c-0.7-0.7-0.9-1.7-0.4-2.6v-0.1c2.2-3.9,4.4-7.8,6.3-11.7
		c0.9-1.9,1.7-3.8,2.4-5.8c0.3-0.8,0.5-1.7,0.6-2.6c0-0.3,0-0.5,0-0.8v-0.1l0,0v-0.1c-0.1-0.2-0.1-0.4-0.2-0.6
		c-0.8-1.9-1.7-3.7-2.7-5.4c-1.1-1.9-2.3-3.7-3.5-5.6c-2.4-3.7-5-7.3-7.6-10.9l0,0c-1.3-1.9-0.9-4.5,1-5.8
		C340.6,61.2,343.1,61.6,344.3,63.4L344.3,63.4z"/>
	<path class="st1" d="M322.3,34.3l-1.5-0.7C320.8,33.5,321.4,34.9,322.3,34.3z"/>
	<path class="st1" d="M305.2,69.7c0.6-2.5,1.4-5,2.4-7.4c1.5-0.5,3.1-0.8,4.7-1c3.2,2.9,5.9,6.3,7.8,10.2
		c4.3-4.3,12.5-8.7,17.5-10.3c1.7-0.1,3.4,0.1,5,0.6c-3.4,10.8-6.9,21.6-0.7,24.4c-0.1,5.1,0.2,11.4,0.4,17.9
		c-5.8-0.6-29-1.8-38.3,0.3c-0.5-6.5-0.6-12-0.6-16.8C299,82,303.4,74.4,305.2,69.7z"/>
	<g>
		<g>
			<g>
				<defs>
					<path id="SVGID_1_" d="M305.2,69.7c0.6-2.5,1.4-5,2.4-7.4c1.5-0.5,3.1-0.8,4.7-1c3.2,2.9,5.9,6.3,7.8,10.2
						c4.3-4.3,12.5-8.7,17.5-10.3c1.7-0.1,3.4,0.1,5,0.6c-3.4,10.8-6.9,21.6-0.7,24.4c-0.1,5.1,0.2,11.4,0.4,17.9
						c-5.8-0.6-29-1.8-38.3,0.3c-0.5-6.5-0.6-12-0.6-16.8C299,82,303.4,74.4,305.2,69.7z"/>
				</defs>
				<clipPath id="SVGID_2_">
					<use xlink:href="#SVGID_1_"  style="overflow:visible;"/>
				</clipPath>
				<g class="st6">
					<g class="st7">
						<path class="st8" d="M314.4,89.7c-0.1,0-0.2,0.1-0.2,0.2c-0.7,2-0.7,4.2,0.1,6.1c-0.7-0.6-1.4-1.1-2-1.7
							c1.1-2.5,0.8-5.3-0.9-7.5c-0.1-0.1-0.2-0.1-0.3-0.1c-0.1,0-0.2,0.1-0.2,0.2c-0.7,2-0.7,4.3,0.1,6.3c-0.9-0.8-1.8-1.6-2.5-2.4
							l0,0c1.2-2.5,0.9-5.4-0.8-7.6c-0.1-0.1-0.2-0.1-0.3-0.1c-0.1,0-0.2,0.1-0.2,0.2c-0.7,2-0.7,4.3,0.1,6.3
							c-1.4-1.4-2.5-2.7-3.4-3.8c-0.6-2.5-2.5-4.4-4.9-5.2c-0.2,0-0.3,0.1-0.4,0.3V81c0.9,4.4,4.2,5.2,4.8,5.3
							c0.5,0.6,1,1.2,1.6,1.9c-1.6-0.7-3.3-0.9-5-0.6c-0.1,0-0.2,0.1-0.2,0.2s0,0.2,0.1,0.3c1.8,2,4.5,2.8,7.1,2.1
							c0.6,0.6,1.2,1.2,1.8,1.8c-2.1-0.6-4.4-0.5-6.4,0.4c-0.1,0.1-0.2,0.3-0.1,0.4c0,0.1,0.1,0.1,0.1,0.1c2.3,1.4,5.2,1.5,7.7,0.3
							c0.8,0.8,1.7,1.6,2.6,2.4c-2-0.9-4.4-1.1-6.5-0.4c-0.1,0-0.2,0.1-0.2,0.2s0,0.2,0.1,0.3c2.1,1.7,5.1,2.1,7.6,1l0.1-0.1
							l0.1-0.1l1.1,0.9l0,0l0.1,0.1c0.6,0.5,1.2,0.9,1.8,1.4c0.1,0.1,0.3,0.1,0.4,0l0,0c0.1-0.1,0.1-0.3-0.1-0.4l0,0
							c-0.6-0.4-1.1-0.9-1.7-1.3c1.1-2.4,0.7-5.2-0.9-7.3C314.6,89.7,314.5,89.7,314.4,89.7z"/>
						<path class="st8" d="M304.5,74.2c0.1,0,0.2-0.1,0.2-0.2c0.7-2,0.7-4.2-0.1-6.1c0.7,0.6,1.4,1.1,2,1.7
							c-1.1,2.5-0.8,5.3,0.9,7.5c0.1,0.1,0.2,0.1,0.3,0.1c0.1,0,0.2-0.1,0.2-0.2c0.7-2,0.7-4.3-0.1-6.3c0.9,0.8,1.8,1.6,2.5,2.4l0,0
							c-1.2,2.5-0.9,5.4,0.8,7.6c0.1,0.1,0.2,0.1,0.3,0.1c0.1,0,0.2-0.1,0.2-0.2c0.7-2,0.7-4.3-0.1-6.3c1.4,1.4,2.5,2.7,3.4,3.8
							c0.6,2.5,2.5,4.4,4.9,5.2c0.2,0,0.3-0.1,0.4-0.3v-0.1c-0.9-4.4-4.2-5.2-4.8-5.3c-0.5-0.6-1-1.2-1.6-1.9c1.6,0.7,3.3,0.9,5,0.6
							c0.1,0,0.2-0.1,0.2-0.2s0-0.2-0.1-0.3c-1.8-2-4.5-2.8-7.1-2.1c-0.6-0.6-1.2-1.2-1.8-1.8c2.1,0.6,4.4,0.5,6.4-0.4
							c0.1-0.1,0.2-0.3,0.1-0.4c0-0.1-0.1-0.1-0.1-0.1c-2.3-1.4-5.2-1.5-7.7-0.3c-0.8-0.8-1.7-1.6-2.6-2.4c2,0.9,4.4,1.1,6.5,0.4
							c0.1,0,0.2-0.1,0.2-0.2s0-0.2-0.1-0.3c-2.1-1.7-5.1-2.1-7.6-1l-0.1,0.1l-0.1,0.1l-1.1-0.9l0,0l-0.1-0.1
							c-0.6-0.5-1.2-0.9-1.8-1.4c-0.1-0.1-0.3-0.1-0.4,0l0,0c-0.1,0.1-0.1,0.3,0.1,0.4c0.6,0.4,1.1,0.9,1.7,1.3
							c-1.1,2.4-0.7,5.2,0.9,7.3C304.3,74.1,304.4,74.2,304.5,74.2z"/>
						<path class="st8" d="M335.4,97c-0.1,0-0.2,0.1-0.2,0.2c-0.7,2-0.7,4.2,0.1,6.1c-0.7-0.6-1.4-1.1-2-1.7
							c1.1-2.5,0.8-5.3-0.9-7.5c-0.1-0.1-0.3-0.2-0.4-0.1l-0.1,0.1c-0.7,2-0.7,4.3,0.1,6.3c-0.9-0.8-1.8-1.6-2.5-2.4l0,0
							c1.2-2.5,0.9-5.4-0.8-7.6c-0.1-0.1-0.2-0.1-0.3-0.1c-0.1,0-0.2,0.1-0.2,0.2c-0.7,2-0.7,4.3,0.1,6.3c-1.4-1.4-2.5-2.7-3.4-3.8
							c-0.6-2.5-2.5-4.4-4.9-5.2c-0.1,0-0.2,0-0.3,0.1c-0.1,0.1-0.1,0.2-0.1,0.3c0.9,4.4,4.2,5.2,4.8,5.3c0.5,0.6,1,1.3,1.6,1.9
							c-1.6-0.7-3.3-0.9-5-0.6c-0.1,0-0.2,0.1-0.2,0.2s0,0.2,0.1,0.3c1.7,2,4.5,2.9,7.1,2.1c0.6,0.6,1.2,1.2,1.8,1.8
							c-2.1-0.6-4.4-0.5-6.4,0.4c-0.1,0.1-0.2,0.2-0.2,0.3s0.1,0.2,0.1,0.3c2.3,1.4,5.2,1.6,7.7,0.3c0.8,0.8,1.7,1.6,2.6,2.4
							c-2-0.9-4.4-1.1-6.5-0.4c-0.1,0-0.2,0.1-0.2,0.2s0,0.2,0.1,0.3c2.1,1.7,5.1,2.1,7.6,1l0.1-0.1l0.1-0.1l1.1,0.9l0,0l0.1,0.1
							c0.6,0.5,1.2,0.9,1.8,1.4c0.1,0.1,0.3,0.1,0.4,0l0,0c0.1-0.1,0.1-0.3-0.1-0.4c-0.6-0.4-1.1-0.9-1.7-1.3
							c1.1-2.4,0.7-5.2-0.9-7.3C335.6,97.1,335.5,97,335.4,97z"/>
						<path class="st8" d="M354.6,103.9c-0.1,0-0.2,0.1-0.2,0.2c-0.7,2-0.7,4.2,0,6.1c-0.7-0.6-1.4-1.2-2-1.7
							c1.2-2.5,0.8-5.3-0.9-7.5c-0.1-0.1-0.2-0.1-0.3-0.1c-0.1,0-0.2,0.1-0.2,0.2c-0.7,2-0.7,4.3,0.1,6.3c-0.9-0.8-1.8-1.6-2.5-2.4
							l0,0c1.2-2.5,0.9-5.4-0.8-7.6c-0.1-0.1-0.2-0.1-0.3-0.1c-0.1,0-0.2,0.1-0.2,0.2c-0.7,2-0.7,4.3,0.1,6.3
							c-1.4-1.4-2.5-2.7-3.4-3.8c-0.6-2.5-2.5-4.4-4.9-5.2c-0.2,0-0.3,0.1-0.4,0.2v0.1c0.9,4.4,4.2,5.2,4.8,5.3
							c0.5,0.6,1,1.2,1.6,1.9c-1.6-0.7-3.3-0.9-5-0.6c-0.1,0-0.2,0.1-0.2,0.2s0,0.2,0.1,0.3c1.8,2,4.5,2.8,7,2.1
							c0.6,0.6,1.2,1.2,1.8,1.8c-2.1-0.6-4.4-0.5-6.4,0.4c-0.1,0-0.2,0.1-0.2,0.3c0,0.1,0.1,0.2,0.1,0.3c2.3,1.4,5.2,1.5,7.7,0.3
							c0.8,0.8,1.7,1.6,2.6,2.4c-2-0.9-4.4-1.1-6.5-0.4c-0.1,0-0.2,0.1-0.2,0.2s0,0.2,0.1,0.3c2.1,1.7,5.1,2.1,7.6,1c0,0,0,0,0.1,0
							l0.1-0.1l1.1,0.9l0,0l0.1,0.1c0.6,0.5,1.2,0.9,1.8,1.4c0.1,0.1,0.3,0.1,0.4,0l0,0c0.1-0.1,0.1-0.3,0-0.4l0,0l-1.7-1.3
							c1.1-2.4,0.7-5.2-0.9-7.3C354.8,104,354.7,103.9,354.6,103.9z"/>
						<path class="st8" d="M310.6,105c-0.1,0-0.2,0.1-0.2,0.2c-0.7,2-0.7,4.2,0,6.1c-0.7-0.6-1.4-1.1-2-1.7c1.2-2.5,0.8-5.3-0.9-7.5
							c-0.1-0.1-0.3-0.2-0.4,0l-0.1,0.1c-0.7,2-0.7,4.3,0.1,6.3c-0.9-0.8-1.8-1.6-2.5-2.4l0,0c1.2-2.5,0.9-5.4-0.8-7.6
							c-0.1-0.1-0.2-0.1-0.3-0.1c-0.1,0-0.2,0.1-0.2,0.2c-0.7,2-0.7,4.3,0.1,6.3c-1.2-1.2-2.3-2.5-3.4-3.8c-0.6-2.5-2.5-4.4-4.9-5.2
							c-0.1,0-0.2,0-0.3,0.1c-0.1,0.1-0.1,0.2-0.1,0.3c0.9,4.4,4.2,5.2,4.8,5.3c0.5,0.6,1,1.2,1.6,2c-1.6-0.7-3.3-0.9-5-0.6
							c-0.1,0-0.2,0.1-0.2,0.2s0,0.2,0.1,0.3c1.7,2,4.5,2.9,7,2.1c0.6,0.6,1.2,1.2,1.8,1.8c-2.1-0.6-4.4-0.5-6.4,0.4
							c-0.1,0-0.2,0.1-0.2,0.3c0,0.1,0,0.2,0.1,0.3c2.3,1.4,5.2,1.6,7.7,0.3c0.8,0.8,1.7,1.6,2.6,2.4c-2.1-0.9-4.4-1.1-6.5-0.4
							c-0.1,0-0.2,0.1-0.2,0.2s0,0.2,0.1,0.3c2.1,1.7,5.1,2.1,7.6,1c0,0,0,0,0.1,0l0.1-0.1l1.1,0.9l0,0l0.1,0.1
							c0.6,0.5,1.2,0.9,1.8,1.4c0.1,0.1,0.3,0.1,0.4,0l0,0c0.1-0.1,0.1-0.3,0-0.4l0,0l-1.7-1.3c1.1-2.4,0.7-5.2-0.9-7.3
							C310.9,105.2,310.8,105,310.6,105z"/>
						<path class="st8" d="M334.7,62.9c-0.1,0-0.2,0.1-0.2,0.2c-0.7,2-0.7,4.2,0.1,6.1c-0.7-0.6-1.4-1.1-2-1.7
							c1.1-2.5,0.8-5.3-0.9-7.5c-0.1-0.1-0.2-0.1-0.3-0.1c-0.1,0-0.2,0.1-0.2,0.2c-0.7,2-0.7,4.3,0.1,6.3c-0.9-0.8-1.8-1.6-2.5-2.4
							l0,0c1.2-2.5,0.9-5.4-0.8-7.6c-0.1-0.1-0.2-0.1-0.3-0.1c-0.1,0-0.2,0.1-0.2,0.2c-0.7,2-0.7,4.3,0.1,6.3
							c-1.4-1.4-2.5-2.7-3.4-3.8c-0.6-2.5-2.5-4.4-4.9-5.2c-0.2,0-0.3,0.1-0.4,0.3v0.1c0.9,4.4,4.2,5.2,4.8,5.3
							c0.5,0.6,1,1.2,1.6,1.9c-1.6-0.7-3.3-0.9-5-0.6c-0.1,0-0.2,0.1-0.2,0.2c0,0.1,0,0.2,0.1,0.3c1.8,2,4.5,2.8,7.1,2.1
							c0.6,0.6,1.2,1.2,1.8,1.8c-2.1-0.6-4.4-0.5-6.4,0.4c-0.1,0.1-0.2,0.2-0.2,0.3s0.1,0.2,0.1,0.3c2.3,1.4,5.2,1.5,7.7,0.3
							c0.8,0.8,1.7,1.6,2.6,2.4c-2-0.9-4.4-1.1-6.5-0.4c-0.1,0-0.2,0.1-0.2,0.2s0,0.2,0.1,0.3c2.1,1.7,5.1,2.1,7.6,1l0.1-0.1
							l0.1-0.1l1.1,0.9l0,0l0.1,0.1c0.6,0.5,1.2,0.9,1.8,1.4c0.1,0.1,0.3,0.1,0.4,0l0,0c0.1-0.1,0.1-0.3-0.1-0.4
							c-0.6-0.4-1.1-0.9-1.7-1.3c1.1-2.4,0.7-5.2-0.9-7.3C334.9,63,334.8,62.9,334.7,62.9z"/>
						<path class="st8" d="M325.2,81.9c0.1,0,0.2-0.1,0.2-0.2c0.7-2,0.7-4.2,0-6.1c0.7,0.6,1.4,1.1,2,1.7c-1.2,2.5-0.8,5.3,0.9,7.5
							c0.1,0.1,0.3,0.2,0.4,0l0.1-0.1c0.7-2,0.7-4.3-0.1-6.3c0.9,0.8,1.8,1.6,2.5,2.4l0,0c-1.2,2.5-0.9,5.4,0.8,7.6
							c0.1,0.1,0.3,0.2,0.4,0l0.1-0.1c0.7-2,0.7-4.3-0.1-6.3c1.2,1.2,2.3,2.5,3.4,3.8c0.6,2.5,2.5,4.4,4.9,5.2c0.1,0,0.2,0,0.3-0.1
							c0.1-0.1,0.1-0.2,0.1-0.3c-0.9-4.4-4.2-5.2-4.8-5.3c-0.5-0.6-1-1.2-1.6-2c1.6,0.7,3.3,0.9,5,0.6c0.1,0,0.2-0.1,0.2-0.2
							s0-0.2-0.1-0.3c-1.7-2-4.5-2.9-7-2.1c-0.6-0.6-1.2-1.2-1.8-1.8c2.1,0.6,4.4,0.5,6.4-0.4c0.1,0,0.2-0.1,0.2-0.3
							c0-0.1,0-0.2-0.1-0.3c-2.3-1.4-5.2-1.6-7.7-0.3c-0.8-0.8-1.7-1.6-2.6-2.4c2.1,0.9,4.4,1,6.5,0.4c0.1,0,0.2-0.1,0.2-0.2
							s0-0.2-0.1-0.3c-2.1-1.7-5.1-2.1-7.6-1c0,0,0,0-0.1,0l-0.1,0.1l-1.1-0.9l0,0l-0.1-0.1c-0.6-0.5-1.2-1-1.8-1.4
							c-0.1-0.1-0.3-0.1-0.4,0l0,0c-0.1,0.1-0.1,0.3,0.1,0.4l1.7,1.3c-1.1,2.4-0.7,5.2,0.9,7.3C325,81.8,325.1,81.9,325.2,81.9z"/>
					</g>
				</g>
			</g>
		</g>
	</g>
	<path class="st3" d="M329.6,90.5l-67,6.8c-3.7,0.4-6.4,3.7-6.1,7.4l2.3,22.9c5.5-3.9,13.1-2.6,17,2.9c3.9,5.5,2.6,13.1-2.9,17
		c-3.5,2.5-8.1,2.9-12,1.2l2.3,22.9c0.4,3.7,3.7,6.4,7.4,6.1l67-6.8c3.7-0.4,6.4-3.7,6.1-7.4l-6.8-67
		C336.7,92.8,333.3,90.1,329.6,90.5z"/>
	<path class="st9" d="M329.6,90.5l-67,6.8c-3.7,0.4-6.4,3.7-6.1,7.4l2.3,22.9c5.5-3.9,13.1-2.6,17,2.9c3.9,5.5,2.6,13.1-2.9,17
		c-3.5,2.5-8.1,2.9-12,1.2l2.3,22.9c0.4,3.7,3.7,6.4,7.4,6.1l67-6.8c3.7-0.4,6.4-3.7,6.1-7.4l-6.8-67
		C336.7,92.8,333.3,90.1,329.6,90.5z"/>
	<path class="st2" d="M347.9,111l-3.1-1.4l-7.3,1.9c-0.8,0.2-1.6,0.7-2.1,1.4l-1.5,2c-0.7,0.9-0.6,2.2,0.1,3l1.7,1.9
		c0.9,1,2.3,1,3.3,0.2l4-3.4C343,116.7,347.8,114.5,347.9,111z"/>
	<path class="st2" d="M284.8,98.6l3.2-0.4c0.9-0.1,1.6-0.8,1.8-1.7l0.4-2.6c0.2-1.1-0.5-2.1-1.6-2.3c-0.2,0-0.4,0-0.6,0l-3.8,0.3
		c-1.1,0.1-1.9,1-1.9,2.1l0.1,2.7c0,1.1,0.9,2,2,2C284.6,98.6,284.7,98.6,284.8,98.6z"/>
	<path class="st1" d="M334.9,25.1c-7.9,4-21.9,2.2-21.9,2.2S320.8,14.5,334.9,25.1z"/>
</g>
<polygon class="st10" points="195.2,278.8 191.2,299.6 181.1,297.1 185.1,276.4 "/>
<path class="st1" d="M181.4,292.9l11.2,2.4c0.4,0.1,0.6,0.4,0.6,0.8l-0.8,8.3c-0.1,0.8-0.9,1.4-1.7,1.3h-0.1
	c-3.5-0.8-4.6-1.4-9.1-2.3c-5.2-1.1-7.1-0.8-13.2-2.2c-3.7-0.8-3.5-4.7-1.9-4.7c4.4,0,8.7-1.1,12.5-3.3
	C179.8,292.7,180.6,292.7,181.4,292.9z"/>
<polygon class="st4" points="195.2,278.8 193.1,289.5 183,287.1 185.1,276.4 "/>
<path class="st1" d="M212.8,198.8c11.9-34.9,21.2-76,21.2-76l-33.8-2.1c0,0-5,53.4-7.6,78c-2.7,25.6-11.1,83.3-11.1,83.3l15.3,3.1
	C196.8,285.1,211.1,230.7,212.8,198.8z"/>
<path class="st11" d="M218.4,142.2l8.2,10.1c-2.1,7.8-4.5,16.6-7.2,25.6C217.9,166.1,217.5,154.1,218.4,142.2z"/>
<path class="st1" d="M181.7,284.2l14,3.1c0.6,0.1,1.2-0.2,1.4-0.8l1.5-4.5c0.2-0.6-0.1-1.3-0.7-1.5h-0.1l-15.2-3.5
	c-0.6-0.1-1.2,0.2-1.4,0.9v0.1l-0.4,5C180.8,283.5,181.2,284,181.7,284.2z"/>
<path class="st12" d="M181.7,284.2l14,3.1c0.6,0.1,1.2-0.2,1.4-0.8l1.5-4.5c0.2-0.6-0.1-1.3-0.7-1.5h-0.1l-15.2-3.5
	c-0.6-0.1-1.2,0.2-1.4,0.9v0.1l-0.4,5C180.8,283.5,181.2,284,181.7,284.2z"/>
<polygon class="st13" points="250.8,278.1 251.4,299.5 241.2,299.4 240.5,277.9 "/>
<path class="st1" d="M240.9,295l10.9,0.2c0.4,0,0.7,0.3,0.7,0.6l0.9,8.2c0.1,0.8-0.5,1.5-1.4,1.6h-0.1c-3.6-0.1-4.8-0.4-9.3-0.5
	c-5.3-0.1-6.5,0.6-12.8,0.5c-3.8-0.1-4.4-3.9-2.8-4.2c4.3-0.9,8.3-2.8,11.6-5.7C239.3,295.1,240.1,294.9,240.9,295z"/>
<polygon class="st10" points="250.8,278.1 251.1,289.1 240.9,289 240.5,277.9 "/>
<path class="st1" d="M248.2,198.1c-2.9-36.7-0.5-56.4-4.7-74.7l-30.8-1.9c0,0,9.5,53.9,14.8,78.3s10.9,83.6,10.9,83.6l15.1,0.2
	C253.6,283.6,255.5,226.7,248.2,198.1z"/>
<path class="st1" d="M238.6,286.1l14.3,0.2c0.6,0,1.1-0.5,1.2-1.1l0.3-4.7c0-0.6-0.4-1.2-1.1-1.2c0,0,0,0-0.1,0l-15.6-0.5
	c-0.6,0-1.2,0.5-1.2,1.1c0,0.1,0,0.2,0,0.3l1,5C237.6,285.7,238,286.1,238.6,286.1z"/>
<path class="st12" d="M238.6,286.1l14.3,0.2c0.6,0,1.1-0.5,1.2-1.1l0.3-4.7c0-0.6-0.4-1.2-1.1-1.2c0,0,0,0-0.1,0l-15.6-0.5
	c-0.6,0-1.2,0.5-1.2,1.1c0,0.1,0,0.2,0,0.3l1,5C237.6,285.7,238,286.1,238.6,286.1z"/>
<path class="st10" d="M211.8,65.1c-1.2,2.6-2.4,4.8-3.8,7.1s-2.8,4.6-4.3,6.8c-1.6,2.3-3.3,4.5-5.2,6.6c-2.1,2.4-4.5,4.4-7.2,6.1
	l-0.4,0.2c-1.2,0.7-2.7,0.9-4,0.4c-1.9-0.6-3.8-1.3-5.7-2.1s-3.6-1.6-5.4-2.5s-3.5-1.8-5.2-2.8s-3.4-2-5-3.2c-1.4-1-1.7-2.9-0.7-4.3
	c0.7-1,2-1.5,3.3-1.2h0.1c1.8,0.4,3.6,0.9,5.4,1.4l5.4,1.4c1.8,0.5,3.6,0.9,5.4,1.3s3.5,0.8,5.3,1.1l-4.3,0.6c1.5-1.2,2.8-2.7,4-4.2
	c1.4-1.8,2.7-3.7,4-5.7s2.5-4.1,3.7-6.2s2.4-4.3,3.4-6.3l0.1-0.1c1.8-2.9,5.5-3.9,8.5-2.1C211.8,59.1,212.8,62.3,211.8,65.1
	L211.8,65.1z"/>
<path class="st3" d="M214.2,47.6c-11.9,1.4-21,19.9-21,19.9l12.3,13.1c0,0,5.5-6.5,11.4-14.8C223.4,56.8,223.7,46.6,214.2,47.6z"/>
<path class="st8" d="M212.8,50.4c4.6-1.6,25.1,1,25.1,1c-4,5.2-7.3,47.9-7.7,72.4c-4.4,0.6-21.1-0.6-25-1.4
	C205.7,112.8,209.7,67.5,212.8,50.4z"/>
<path class="st3" d="M199.5,63.4c1.1-9.2,8.9-16.1,18.2-16.1c8.6,0.1,17.2,1,25.5,2.8c5.4,1.1,8.9,6.5,7.7,11.9c0,0.1,0,0.2-0.1,0.3
	c-6.3,26.6-4.7,51.7-6.4,63.5c-6,2.2-12.4,3.2-18.8,3c0,0,0.1-10.1,1.6-27.2c1.1-13.6,3.1-45.5,7.3-50.8c0,0-14.8-2-19.4-0.4
	c-3.4,19.3-5.9,77.6-5.9,77.6c-7.3-0.5-10.7-4.6-10.6-5.8C197.2,98.6,197.9,77.2,199.5,63.4z"/>
<path class="st10" d="M235.1,33.8c-1.4,4-3,11.1-0.4,15.1c0.5,0.7,0.3,1.6-0.4,2.1c-0.1,0.1-0.2,0.1-0.3,0.1
	c-4.1,2.4-8.9,3.4-13.6,2.9c-6.5-0.5-6-3.4-4.3-5.3c0.4-0.4,0.9-0.7,1.5-0.8c6.1-0.7,6.1-4.4,5.3-8L235.1,33.8z"/>
<path class="st4" d="M230.1,36.4l-7.3,3.7c0.2,0.9,0.4,1.7,0.4,2.6c2.6,0,6.4-1.8,6.8-3.8C230.2,38.1,230.3,37.2,230.1,36.4z"/>
<ellipse transform="matrix(7.532065e-02 -0.9972 0.9972 7.532065e-02 184.4894 237.9386)" class="st1" cx="220.5" cy="19.5" rx="6.5" ry="4.9"/>
<path class="st10" d="M239,22.9c-1.3,7.9-1.7,12.6-6.1,16.3c-6.6,5.5-15.8,0.9-16.8-7.3c-0.9-7.3,1.4-19,9.4-21.4S240.3,15,239,22.9
	z"/>
<path class="st1" d="M237.3,29.6c-0.1,0-0.2-0.1-0.3-0.1c-3.6,2-4.7-2.3-4.5-5.2c0.1-1.9,1.1-3.7,2.6-4.9c-3.9,0.4-7.6-2.1-7.7-4.4
	c-4.3,1.9-9.5,2-11.8-2s1-9.2,5.4-7.8c-1.8-3.2,5.8-9.7,13.8-0.2c0.3-6.9,11.4,0,9.6,6.8c5.2,1.8,9.6,11.6,0.8,13.7
	C244.6,34.6,237.3,29.6,237.3,29.6z"/>
<path class="st10" d="M241.5,32c-1.2,1.5-2.9,2.5-4.8,2.7c-2.4,0.3-2.9-2.2-1.7-4.4c1.1-2,3.7-4.5,5.8-3.8S243,30.2,241.5,32z"/>
<path class="st1" d="M227.5,23.5c-0.1,0.7-0.5,1.1-0.9,1.1s-0.7-0.6-0.7-1.3s0.5-1.1,0.9-1.1S227.6,22.8,227.5,23.5z"/>
<path class="st1" d="M219.8,22.6c-0.1,0.6-0.5,1.1-0.9,1.1s-0.7-0.6-0.7-1.3s0.5-1.1,0.9-1.1S219.9,22,219.8,22.6z"/>
<path class="st14" d="M222.8,23c-1,1.9-2.2,3.7-3.6,5.3c0.8,0.7,2,1.1,3.1,0.9L222.8,23z"/>
<path class="st1" d="M224.3,32.3c1.5,0.1,2.9-0.4,4-1.4c0.1-0.1,0.1-0.2,0-0.3s-0.2-0.1-0.3,0c-1.2,1.1-2.9,1.5-4.5,1.2
	c-0.1,0-0.2,0-0.2,0.1l0,0c0,0.1,0,0.2,0.1,0.2C223.7,32.3,224,32.3,224.3,32.3z"/>
<path class="st1" d="M230.1,21.9c0.1,0,0.1,0,0.2,0c0.2-0.1,0.3-0.3,0.2-0.5l0,0c-0.5-1.1-1.5-2-2.7-2.3c-0.2,0-0.4,0.1-0.4,0.3
	s0.1,0.4,0.3,0.4l0,0c1,0.2,1.7,0.9,2.1,1.8C229.9,21.8,230,21.9,230.1,21.9z"/>
<path class="st1" d="M216.5,19.4c0.1,0,0.3,0,0.4-0.1c0.7-0.7,1.7-0.9,2.7-0.7c0.2,0.1,0.4-0.1,0.5-0.3s-0.1-0.4-0.3-0.5
	c-1.2-0.3-2.5,0.1-3.4,0.9c-0.1,0.1-0.2,0.4,0,0.5l0,0C216.4,19.4,216.5,19.4,216.5,19.4z"/>
<path class="st10" d="M253.3,61.7c0.6,1.3,1.2,2.4,1.7,3.6s1,2.3,1.5,3.5c1,2.4,1.9,4.8,2.7,7.2c1.7,4.9,2.9,10,3.8,15.1l0.3,2
	l0.1,1v0.2v0.4c0,0.3,0,0.6,0,1c0,1.8-0.4,3.6-1.1,5.3c-1,2.6-2.3,5.1-3.8,7.4c-1.4,2.2-2.9,4.3-4.5,6.3s-3.2,3.9-5,5.8
	c-1.2,1.2-3.1,1.3-4.4,0.1c-1-0.9-1.2-2.4-0.6-3.6v-0.1c2.1-4.3,4.3-8.7,6-12.9c0.5-1.1,0.9-2.1,1.2-3.1s0.6-1.9,0.9-2.9
	c0.2-0.6,0.2-1.3,0.2-1.9l0,0c0,0,0,0.1,0,0v-0.2l-0.2-0.8l-0.4-1.6c-1.2-4.5-2.6-8.9-4.2-13.2c-0.8-2.2-1.7-4.4-2.6-6.6
	c-0.4-1.1-0.9-2.2-1.4-3.2l-1.4-3.1l-0.1-0.2c-1.5-3.1-0.2-6.7,2.9-8.2C248.1,57.4,251.7,58.7,253.3,61.7L253.3,61.7z"/>
<path class="st3" d="M244.3,50.4c13.3,3.4,17,20.4,17,20.4l-16.5,11.9c0,0-4.1-4.3-5.3-14.4C238.8,63.5,241.6,50.3,244.3,50.4z"/>
<path class="st13" d="M246.3,114.9l-7.7,2.9l5.9,7.9c0,0,6.6-3.4,5.4-7.3L246.3,114.9z"/>
<path class="st3" d="M232.9,118.9c-2.1-0.3-4.2-0.2-6.2,0.6l3.8-22.7c0.6-3.7-1.9-7.2-5.6-7.8l-66.4-11.2c-3.7-0.6-7.2,1.9-7.8,5.6
	l-3.9,22.8c2-0.7,4.1-0.9,6.2-0.6c6.7,1.1,11.1,7.4,10,14.1s-7.4,11.1-14.1,10c-2.1-0.3-4-1.2-5.7-2.6l-3.8,22.7
	c-0.6,3.7,1.9,7.2,5.6,7.8l66.4,11.2c3.7,0.6,7.2-1.9,7.8-5.5l3.8-22.7c5.3,4.2,13,3.3,17.2-2s3.3-13-2-17.2
	C236.8,120.1,234.9,119.3,232.9,118.9z"/>
<path class="st15" d="M232.9,118.9c-2.1-0.3-4.2-0.2-6.2,0.6l3.8-22.7c0.6-3.7-1.9-7.2-5.6-7.8l-66.4-11.2c-3.7-0.6-7.2,1.9-7.8,5.6
	l-3.9,22.8c2-0.7,4.1-0.9,6.2-0.6c6.7,1.1,11.1,7.4,10,14.1s-7.4,11.1-14.1,10c-2.1-0.3-4-1.2-5.7-2.6l-3.8,22.7
	c-0.6,3.7,1.9,7.2,5.6,7.8l66.4,11.2c3.7,0.6,7.2-1.9,7.8-5.5l3.8-22.7c5.3,4.2,13,3.3,17.2-2s3.3-13-2-17.2
	C236.8,120.1,234.9,119.3,232.9,118.9z"/>
<path class="st10" d="M235,125.5l2.5,2.4c1,1,2.6,1.1,3.7,0.2l3.3-2.5l-5.9-7.9l-3.6,3.7C233.9,122.6,233.9,124.4,235,125.5
	L235,125.5z"/>
<path class="st10" d="M160.9,79.9l0.9-3.4c0.3-0.8,1.1-1.4,2-1.3l0,0c1.3-0.1,2.6,0.1,3.8,0.6l5.2,1.9l-0.3,2.1
	c-0.2,1.8-2.2,3.3-4.5,3.4c-1.5,0-3.1-0.1-4.6-0.5l-0.6-0.1c-1.2-0.1-2.1-1.1-2.1-2.4C160.9,80.1,160.9,80,160.9,79.9z"/>
<path class="st1" d="M79,32.8c3.3-3.9,8.3-13.9-1.1-17.8c-6.9-2.8-21.7-1.4-30.2,11.8c-5.8,2-7.5,14.9,5.9,17.6S79,32.8,79,32.8z"/>
<polygon class="st16" points="109.2,281 93.9,282.3 96.5,300.2 109.3,299.2 "/>
<polygon class="st4" points="109.2,281 93.9,282.3 95.4,292.3 109.3,291.2 "/>
<path class="st3" d="M80,228.1c-6-23-21.5-50.4-11.7-72.5l42.8-0.1c0,0,1.1,45.5,1.4,67c0.3,22.4-1.6,64.6-1.6,64.6l-17.5,1.3
	C93.4,288.4,81.4,253.9,80,228.1z"/>
<path class="st1" d="M92.5,289.1l18.9-1.4c0.3,0,0.6-0.3,0.6-0.6l0.4-7c0-0.4-0.2-0.7-0.6-0.7h-0.1l-21,2.8c-0.4,0-0.6,0.4-0.6,0.7
	v0.1l1.7,5.6C91.9,288.9,92.2,289.1,92.5,289.1z"/>
<path class="st4" d="M68.2,177.4c-0.2,5.4,0.1,10.9,0.7,16.3c2.1,7.2,4.8,14.5,7.2,21.5C79.1,195.3,79.1,172.1,68.2,177.4z"/>
<polygon class="st16" points="52.6,282.1 37.3,282.3 37.3,300.4 50.1,300.3 "/>
<path class="st1" d="M36.1,297.6c0.1-0.4,0.4-0.7,0.8-0.6c0,0,0,0,0.1,0c3.8,1.5,11.2,0.4,13.9-0.2c0.6-0.1,1.3,0,1.8,0.4
	c2.3,1.4,4.7,2.6,7.3,3.4c0.6,1.5,0.7,3.1,0.4,4.6H34.5C35.2,302.7,35.7,300.1,36.1,297.6z"/>
<path class="st1" d="M94.8,297.6c0.1-0.4,0.4-0.7,0.8-0.6c0,0,0,0,0.1,0c3.9,1.5,11.1,0.4,13.9-0.2c0.6-0.1,1.3,0,1.8,0.4
	c2.9,2.1,10.8,3.4,10.8,3.4c0.6,1.5,0.7,3.1,0.4,4.6H93.2C93.9,302.7,94.5,300.1,94.8,297.6z"/>
<polygon class="st4" points="52.6,282.1 37.3,282.3 37.3,292.4 51.2,292.3 "/>
<path class="st3" d="M35.1,220.7c-2.1-23.2-8.6-54.5-1.2-65.2H84c0,0-10.2,46.3-14.4,67.8c-4.3,22.3-16.9,65.1-16.9,65.1H36.1
	C36.2,288.4,29.9,247.2,35.1,220.7z"/>
<path class="st17" d="M38.2,283.6c-0.2,0-0.4-0.1-0.5-0.4c-1.2-4-1-50,2-62.5c0-1.7-0.3-4.9-0.8-9c-1.4-14-3.9-40-0.1-54.8
	c0.1-0.3,0.3-0.4,0.6-0.4s0.4,0.3,0.4,0.6c-3.8,14.6-1.2,40.5,0.1,54.4c0.4,4.2,0.7,7.5,0.8,9.2v0.1c-2.9,11.9-3.2,58.2-2,62.1
	c0.1,0.3-0.1,0.5-0.3,0.6C38.3,283.6,38.2,283.6,38.2,283.6z"/>
<path class="st1" d="M35,289h18.8c0.3,0,0.6-0.2,0.6-0.5l1.2-6.7c0.1-0.4-0.2-0.7-0.6-0.8h-0.1l-20.4,0.9c-0.3,0-0.6,0.3-0.6,0.6
	l0,0l0.4,5.8C34.4,288.7,34.7,289,35,289z"/>
<path class="st16" d="M101.1,74.6c1,4,1.9,8,2.8,12s1.7,8,2.5,12l1.2,6l1.1,6c0.8,4,1.4,8.1,2.1,12.1l-1.6-3.6
	c0.2,0.7,0.7,1.4,1.3,1.8c1.3,0.9,2.7,1.5,4.2,1.8c2,0.5,4.1,0.7,6.2,0.8c1.1,0.1,2.3,0.1,3.4,0.1c0.6,0,1.1,0,1.7,0s1.2,0,1.6,0
	l1.4,0.1c3,0.2,5.4,2.8,5.2,5.9c-0.1,1.9-1.2,3.6-2.9,4.5c-0.8,0.4-1.4,0.8-2.1,1.1s-1.3,0.6-2,1c-1.3,0.6-2.7,1.1-4.1,1.6
	s-2.9,0.9-4.4,1.2c-1.6,0.3-3.1,0.5-4.7,0.7c-1.7,0.1-3.4,0.1-5.1-0.1c-1.9-0.2-3.8-0.6-5.6-1.2c-2-0.7-3.9-1.6-5.7-2.8
	c-1.9-1.3-3.5-2.9-4.9-4.6c-0.6-0.8-1.1-1.6-1.3-2.5l-0.3-1.1c-1.1-3.9-2.2-7.9-3.3-11.8l-1.6-5.9l-1.5-5.9c-1-4-2-7.9-2.9-11.9
	s-1.8-8-2.6-12l0,0c-1.2-6.1,2.7-12,8.8-13.2C93.9,65.2,99.6,68.8,101.1,74.6L101.1,74.6z"/>
<path class="st16" d="M127,124.5l0.2,6.5c2.6,6.3,10.1,1.5,10.1,1.5l4.5-0.8c1.6-0.4,2.7-1.9,2.6-3.6l-0.1-4.5
	c0.1-1.9-1.4-3.6-3.4-3.7l-4,0.1c-1.2,0-2.3,0.3-3.3,0.9L127,124.5z"/>
<path class="st1" d="M93.4,63.4c9.2,4.8,15.2,21.9,15.2,21.9c-1.9,8-9.8,22.6-17,22.5c0,0-10.6-13.7-11.8-23.6
	C78.4,72.2,74.8,53.6,93.4,63.4z"/>
<path class="st1" d="M84.9,60.6c-14.2-1.3-28.5-1.1-42.7,0.7c-8.2,1.1-14,6.2-13,23c2,34-1.1,60.5,3.2,72.7c0,0,62.9,18,80.9,0.8
	c4.4-40.9-10.3-74.9-17-89C94.2,64.2,89.9,61.1,84.9,60.6z"/>
<path class="st18" d="M80.2,64.3c-1.6-1.6-3.3-0.7-4.1-3.1c-0.3-1.9,0-3.8,0.9-5.5L57.6,45.2c0.4,7.1,0.7,12.8-2.5,15.6
	c-0.9,5.3,9,10.6,22.2,10.7C85.7,71.6,82.5,66.6,80.2,64.3z"/>
<path class="st4" d="M76.7,56.3l-15.3-3.8c3.9,6.1,10.8,9.4,14.6,7.9C75.8,59,76.1,57.6,76.7,56.3z"/>
<path class="st18" d="M70.3,21.3C60.2,19,51.4,27.5,53.4,36.7s3.5,15.4,9.9,18.5c12.6,6.2,18.8,0.2,19.8-9.4
	C84,37.2,80.6,23.6,70.3,21.3z"/>
<path class="st4" d="M68.3,37.7c-1.2-0.3-2.5-0.1-3.5,0.5C66,38.2,67.2,38,68.3,37.7z"/>
<path class="st4" d="M68.4,38.5c-1.1-0.1-2.2,0.4-3,1.2C66.5,39.5,67.5,39.1,68.4,38.5z"/>
<path class="st1" d="M54.7,44.5c5.7,1.3,8-1.6,8-4.8c0-3.4-3.2-9.1-6.7-10.1c1.3-7.5,21.9,3,19.9-7.4c0,0-0.6-1.8-5.9-2.8
	s-19.6,2.2-18.6,12.9S54.7,44.5,54.7,44.5z"/>
<path class="st1" d="M47.4,27.4c1.4-2.8,1.8-6,1.1-9C48.5,18.4,54.8,22.5,47.4,27.4z"/>
<path class="st1" d="M73.5,47.3c0.4,0,0.8-0.1,1.3-0.2c0.1,0,0.2-0.2,0.2-0.3l0,0c0-0.1-0.1-0.2-0.3-0.2l0,0c-2.1,0.5-4.3,0-6-1.4
	c-0.1-0.1-0.3-0.1-0.4,0l0,0c-0.1,0.1-0.1,0.3,0,0.4C69.7,46.9,71.6,47.5,73.5,47.3z"/>
<path class="st18" d="M51.1,44.9c1.3,1.8,3.3,3,5.5,3.3c2.9,0.4,4-2.3,2.9-4.8c-1-2.3-3.7-5.3-6.5-4.5S49.5,42.7,51.1,44.9z"/>
<path class="st1" d="M70,37.8c0.1,0.8,0.6,1.4,1.2,1.3s0.9-0.8,0.8-1.6s-0.6-1.4-1.2-1.3S69.9,36.9,70,37.8z"/>
<path class="st1" d="M79.5,36.5c0.1,0.8,0.6,1.4,1.2,1.3s0.9-0.8,0.8-1.6s-0.6-1.4-1.2-1.3S79.4,35.7,79.5,36.5z"/>
<path class="st19" d="M75.9,37.5l0.5,6.9c0,0,2.3,0.4,3.5-0.9C79.1,41.2,77.7,39.2,75.9,37.5z"/>
<path class="st1" d="M66.8,35.9c-0.3,0.1-0.5-0.1-0.6-0.3c0-0.1,0-0.2,0-0.3c0.4-1.5,1.5-2.7,2.9-3.3c0.3-0.1,0.5,0.1,0.6,0.3
	c0.1,0.3-0.1,0.5-0.3,0.6l0,0c-1.1,0.5-2,1.5-2.3,2.6C67.1,35.7,67,35.9,66.8,35.9z"/>
<path class="st1" d="M82.6,32.8c-0.2,0-0.3-0.1-0.4-0.2c-0.7-1-1.8-1.6-3.1-1.6c-0.3,0-0.5-0.2-0.5-0.5s0.2-0.5,0.5-0.5
	c1.5,0,3,0.7,3.9,2c0.2,0.2,0.1,0.5-0.1,0.7l0,0C82.9,32.8,82.7,32.8,82.6,32.8z"/>
<path class="st3" d="M140.9,98.2c-2.1,0.1-4.1,0.8-5.9,2l-1.8-23c-0.3-3.7-3.6-6.5-7.3-6.2l-67.1,5.3c-3.7,0.3-6.5,3.6-6.2,7.3
	l5.3,67.1c0.3,3.7,3.6,6.5,7.3,6.2l67.1-5.3c3.7-0.3,6.5-3.6,6.2-7.3l-1.8-22.9c1.9,0.9,4,1.3,6.1,1.1c6.7-1.1,11.1-7.4,10-14.1
	C151.9,102.6,146.8,98.3,140.9,98.2z"/>
<path class="st18" d="M43.6,89l-1,1.8l-1.2,2.1c-0.7,1.4-1.5,2.8-2.2,4.2c-1.4,2.8-2.6,5.6-3.7,8.5c-0.5,1.4-1,2.8-1.3,4.2
	c-0.4,1.3-0.7,2.6-0.9,4c-0.4,2.2-0.5,4.4-0.2,6.6l-2.3-4c1,1.3,2.1,2.5,3.4,3.5c1.7,1.4,3.5,2.6,5.3,3.7c1.9,1.2,4,2.4,6.1,3.6
	l3.2,1.8c1,0.6,2.2,1.2,3.2,1.8l0.5,0.3c2.7,1.6,3.5,5.1,1.9,7.8c-1,1.7-2.9,2.7-4.9,2.7c-1.5,0-2.8-0.1-4.2-0.2s-2.7-0.3-4.1-0.5
	c-2.8-0.4-5.5-1-8.2-1.8c-2.8-0.8-5.6-1.8-8.3-3.1c-3.2-1.5-6.1-3.4-8.6-5.8c-0.9-0.9-1.6-2-2-3.1l-0.3-0.9
	c-1.6-4.7-2.2-9.8-1.7-14.7c0.3-4.3,1.2-8.6,2.5-12.8c1.2-3.9,2.7-7.7,4.5-11.4c0.9-1.8,1.8-3.6,2.8-5.3c0.5-0.9,1-1.7,1.5-2.6
	l0.8-1.3l0.4-0.7l0.5-0.8c3.4-5.2,10.3-6.6,15.5-3.2c5,3.3,6.5,9.8,3.5,15L43.6,89z"/>
<path class="st1" d="M35.7,63.4C19.1,72.3,12.9,92,12.9,92c3.3,6.3,23.1,13,30.5,11.2c0,0,7.1-13,8.6-24.6
	C53.5,67.8,45.5,58.2,35.7,63.4z"/>
<path class="st18" d="M47.3,131.9l0.3,6.5c2.7,6.2,10.1,1.3,10.1,1.3l4.5-0.9c1.6-0.4,2.7-2,2.5-3.7l-0.2-4.5c0.1-2-1.5-3.6-3.4-3.7
	l-4,0.2c-1.2,0.1-2.3,0.4-3.3,1L47.3,131.9z"/>
</svg>
