<?xml version="1.0" encoding="utf-8"?>
<!-- Generator: Adobe Illustrator 23.1.0, SVG Export Plug-In . SVG Version: 6.00 Build 0)  -->
<svg version="1.1" id="Layer_1" xmlns="http://www.w3.org/2000/svg" xmlns:xlink="http://www.w3.org/1999/xlink" x="0px" y="0px"
	 viewBox="0 0 632.6 172.3" style="enable-background:new 0 0 632.6 172.3;" xml:space="preserve">
<style type="text/css">
	.st0{fill:#CECCCC;}
</style>
<g>
	<g>
		<path d="M647.1-1014.7c0,13.5,0,26.3,0,39.4c-4.5,0-8.3,0-12.4,0c0-33.1,0-66,0-99c0.2-0.1,0.4-0.6,0.7-0.6
			c14.3,0,28.7-0.9,42.9,0.2c16.1,1.1,26.6,12.2,27.4,26.7c0.9,17.8-7,28.3-25.2,32.7c8.7,13.2,17.3,26.3,26.5,40.2
			c-5.3,0-9.4,0.4-13.4-0.2c-1.5-0.2-3.1-2.2-4.1-3.8c-7-10.7-13.8-21.6-20.9-32.2c-1.1-1.7-3.7-3.1-5.8-3.3
			C657.8-1015,652.8-1014.7,647.1-1014.7z M647.3-1026.1c10.5,0,20.1,0.6,29.7-0.2c9.5-0.7,15.7-8.9,15.5-18.8
			c-0.1-9.7-6.4-17.1-16-17.8c-8.6-0.6-17.3-0.4-25.9-0.3c-1.1,0-3.1,1.7-3.2,2.6C647.2-1049.2,647.3-1038,647.3-1026.1z"/>
		<path d="M728.4-1007.4c0.6,10.3,5,17.1,13,21.5c9.9,5.5,21.6,3.5,34.9-5.8c1.7,2.3,3.4,4.6,5.4,7.3c-11.9,11-25.6,13.6-40.5,9.4
			c-14.2-4-22.2-14.2-24.7-28.6c-2.2-12.6,0.3-24.3,9-34c10-11.2,22.8-14.2,36.9-10c13.9,4.1,20.7,14.9,23.2,28.6
			c0.6,3.5,0.6,7.2,1,11.5C766.9-1007.4,748-1007.4,728.4-1007.4z M774.2-1016.3c0.8-13-10.1-23.7-23.3-23.3
			c-12.7,0.4-23.2,11.5-21.9,23.3C744-1016.3,759.1-1016.3,774.2-1016.3z"/>
		<path d="M849.1-1012.4c-0.3-6.2,0-11.2-0.8-16c-0.9-5.6-7-9.8-13.8-10.4c-8.5-0.9-16.2,1.2-22.6,7c-0.9,0.8-1.8,1.5-2.6,2.1
			c-0.3-0.1-0.5-0.2-0.6-0.3c-6-6.6-6-7.9,1.4-12.7c11.4-7.5,23.7-8.5,36.3-4.1c9.1,3.2,14,10.4,14.2,19.8
			c0.4,16.1,0.1,32.3,0.2,48.5c0,2.4-0.6,3.8-3.4,3.6c-2.5-0.1-5,0-7.8,0c-0.4-2.3-0.7-4.3-1.1-7.1c-6.2,5.4-13,8.1-20.7,8.8
			c-10.7,0.9-21.4-4.8-25.7-13.8c-4.1-8.6-2.1-20.5,4.4-26.9c8.8-8.7,25.8-9.7,37.2-2.3C845-1015.4,846.3-1014.4,849.1-1012.4z
			 M848.9-998c1.5-6.1-2.3-9.9-7.9-12.3c-5.6-2.4-11.4-3.3-17.5-1.6c-7.1,2-11.7,7.8-11.7,14.9c0.1,6.8,4.5,13.2,11.6,14.2
			c5.4,0.8,11.3,0.4,16.5-1.2C847.6-986.2,848.9-989,848.9-998z"/>
		<path d="M940.8-1036.3c-2.5,2.3-4.8,4.4-7.3,6.8c-6.8-8.2-15.1-11-25.1-8.4c-5.6,1.4-9.9,4.5-13.1,9.3c-7,10.4-6.3,26.8,1.3,36.6
			c6.7,8.7,24.7,13.3,36.8-0.8c2.4,2.2,4.8,4.3,7.2,6.4c-6.5,10.9-21,15.7-35.4,12.1c-15.3-3.9-26-17.2-26.8-33.4
			c-0.9-19,7.7-33.8,22.9-39.3C916.2-1052.4,932-1048.3,940.8-1036.3z"/>
		<path d="M958.4-1036.6c-13-1.2-13-1.2-11.2-10.7c3.5,0,7,0,11.2,0c0-6.8,0-13,0-19.5c4,0,7.4,0,11.5,0c0,5.1,0.2,10.1-0.1,15
			c-0.2,3.6,1.2,4.8,4.6,4.5c3.1-0.2,6.3,0,9.8,0c0,3.4,0,6.5,0,10.3c-4.6,0-9.2,0-14.3,0c0,6.3,0,11.9,0,17.5
			c0,8.2-0.1,16.3,0,24.5c0.1,11,4.4,13.8,14.4,9.4c5.3,7,4.1,10.1-4.5,12c-13.4,2.9-21.5-3.5-21.5-17.2c0-13.3,0-26.6,0-40
			C958.4-1032.7,958.4-1034.5,958.4-1036.6z"/>
	</g>
	<g>
		<path d="M403.9-1061.8c-0.8-11.3-1.8-22.1-2.3-32.9c-0.2-3.3,0.5-6.7,1.3-10c4.1-16.8,15.1-23,31.7-18.1
			c12.8,3.8,23.2,11.5,33,20.1c0.9,0.8,1.8,1.6,3,2.6c1.5-1.2,2.8-2.4,4.2-3.6c8.6-7.7,17.9-14.4,28.8-18.4
			c18.8-6.9,31.5,0.5,35,20.3c2.1,11.8,0.9,23.5-1.4,35.1c-0.3,1.5-0.5,3-0.7,4.2c7.9,3.4,15.7,6.1,22.9,10
			c6.1,3.4,12,7.5,16.8,12.5c9.8,10,9.5,21.5-0.1,31.8c-9.2,10-21.1,15.4-33.6,19.9c-1.8,0.7-3.7,1.3-5.4,1.9
			c1,7.6,2.2,14.8,2.7,22.1c0.7,9.2,0,18.4-3.9,27c-5,11.1-13.8,15.6-25.8,13c-13.6-2.9-24.5-10.8-34.7-19.6c-1.5-1.3-2.9-2.6-4-3.6
			c-7.5,5.4-14.5,10.9-21.9,15.6c-7.3,4.6-15.2,7.9-24.1,8c-10,0.2-16.8-4.4-20.6-13.7c-5.1-12.6-4-25.5-2-38.4
			c0.5-3.2,1.2-6.3,1.6-8.5c-10.2-5.1-20.3-9.5-29.6-15.1c-5-3-9.3-7.6-12.8-12.2c-6.3-8.3-5.9-17.1,0.3-25.4
			c6.9-9.3,16.7-14.6,27-19.1C394.4-1058.6,399.5-1060.2,403.9-1061.8z M470.4-988.4L470.4-988.4c5.7-0.1,11.3,0.1,17-0.2
			c1.8-0.1,4.3-1.2,5.2-2.7c6.1-10.1,11.9-20.3,17.5-30.6c0.7-1.3,0.6-3.7-0.1-5c-5.7-10.1-11.5-20.2-17.5-30.1
			c-0.8-1.4-3.1-2.6-4.8-2.6c-11.3-0.2-22.6-0.3-33.9,0c-1.9,0-4.4,1.6-5.4,3.2c-5.8,9.5-11.5,19.1-16.7,28.9
			c-1,1.9-0.9,5.2,0.1,7.1c4.7,8.9,10.1,17.4,14.9,26.3c2.4,4.5,5.5,6.3,10.6,5.8C461.5-988.7,466-988.4,470.4-988.4z M407.3-1052.1
			c-12.7,3.7-24.9,8.3-34.4,17.9c-6.7,6.8-6.9,12.5-0.3,19.6c9.5,10.1,21.9,15,34.7,18.9c3.6-9,7.1-17.7,10.4-26.3
			c0.4-1.1,0.7-2.5,0.3-3.5C414.6-1034.2,411-1043,407.3-1052.1z M414.7-982.8c-3.1,12.8-5,25.5-1.6,38.4c2.3,8.8,7.4,12,16.5,10
			c13.7-3.1,24.3-11.5,34.1-20.6c-6-7.6-11.7-14.8-17.4-21.9c-0.8-1-2.1-1.9-3.2-2.1C433.8-980.4,424.6-981.5,414.7-982.8z
			 M478.3-955c9.3,8.6,19.1,16.7,31.8,20.3c9.6,2.7,14.7,0.1,17.7-9.2c4.2-13.3,2.2-26.4-0.9-39.4c-9.8,1.4-19.2,2.7-28.5,4.2
			c-1.1,0.2-2.3,0.9-2.9,1.7C489.8-970.1,484.2-962.7,478.3-955z M526.6-1064.8c2.9-13,4.6-25.8,1.4-38.7c-2.4-9.7-8.2-12.8-17.9-10
			c-12.7,3.7-22.5,11.8-32,20.5c6,7.7,11.7,15.2,17.6,22.5c0.6,0.7,1.7,1.3,2.7,1.4C507.5-1067.6,516.7-1066.2,526.6-1064.8z
			 M463.3-1092.9c-1.4-1.3-2.5-2.5-3.8-3.6c-8.8-7.5-18-14.2-29.4-17.1c-9.3-2.4-14.8,0.8-17.1,10.1c-0.9,3.5-1.3,7.2-1.4,10.9
			c-0.3,9.4,0.7,18.8,3.5,27.6c9.3-1.4,18-2.6,26.8-4c1.5-0.2,3.3-1.1,4.2-2.2C451.7-1078.1,457.4-1085.4,463.3-1092.9z M534-1052
			c-3.7,9.1-7.2,17.5-10.6,26c-0.3,0.8-0.5,1.9-0.2,2.6c3.6,9,7.4,18,11.2,27.2c2.6-0.9,5.1-1.6,7.5-2.5c9.2-3.5,18-7.7,25.3-14.5
			c8.1-7.6,8.2-13.9,0.4-21.5C558.2-1043.7,546.3-1048.1,534-1052z M471-962.3c4.3-5.3,8.2-10.2,12.6-15.5c-9,0-16.8,0-25.6,0
			C462.5-972.4,466.6-967.5,471-962.3z M524.3-993.4c-2.5-6.5-4.7-12.5-7.3-19.2c-4.4,7.8-8.4,14.8-12.9,22.8
			C511.3-991.1,517.4-992.2,524.3-993.4z M417.3-993c6.6,1.1,12.6,2.1,19.8,3.2c-4.6-8-8.5-14.8-12.9-22.5
			C421.7-1005.3,419.6-999.4,417.3-993z M523.9-1054.7c-7-1.2-13.1-2.3-19.9-3.5c4.4,7.6,8.5,14.6,12.9,22.3
			C519.4-1042.5,521.5-1048.3,523.9-1054.7z M483.5-1070.3c-4.7-5.6-8.6-10.2-12.9-15.3c-4.5,5.4-8.3,10.1-12.7,15.3
			C466.8-1070.3,474.5-1070.3,483.5-1070.3z M437.1-1058.3c-6.8,1.2-12.8,2.2-19.7,3.4c2.3,6.4,4.4,12.2,6.8,18.8
			C428.7-1043.7,432.6-1050.5,437.1-1058.3z"/>
		<path d="M471-1044.6c11.2,0.2,20.1,9.4,19.9,20.8c-0.2,10.9-9.5,20-20.4,19.9c-11.1-0.1-20.4-9.6-20.2-20.7
			C450.4-1035.8,459.6-1044.8,471-1044.6z"/>
	</g>
</g>
<g>
	<path d="M-648.9-1093.4c-1.8,0-3.6,0-5.8,0c0,11.1,0,21.7,0,33c23.7,0,47.2,0,71.1,0c0,7.1,0,13.5,0,20.5c-23.7,0-47.1,0-71,0
		c0,11.6,0,22.6,0,34.1c29.5,0,58.8,0,88.7,0c0,6.3,0.1,12-0.1,17.8c0,0.9-2,2.5-3.1,2.6c-3.8,0.3-7.7,0.1-11.5,0.1
		c-39.2,0-78.3-0.1-117.5,0.1c-4.2,0-7-1.1-9.7-4.5c-24.5-30.8-49.2-61.4-73.9-92c-0.8-1-1.8-1.9-3.7-4.1c0,34.3,0,67,0,100.2
		c-7.5,0-14.6,0-21.8,0c0-42.8,0-85.2,0-128.3c8.7,0,17.2-0.2,25.6,0.2c1.7,0.1,3.5,2.2,4.8,3.8c30.8,38.1,61.5,76.3,92.2,114.5
		c2,2.5,4.1,5,7.3,7.1c0-41.7,0-83.4,0-125.3c37.3,0,73.9,0,111.3,0c0,6,0.2,11.9-0.2,17.9c-0.1,0.9-2.5,2.3-3.8,2.3H-648.9z"/>
	<path d="M-406.7-985.3c-10,0-18.4,0.3-26.9-0.2c-2.1-0.1-4.4-2.6-5.9-4.6c-24.6-30.5-49.1-61-73.7-91.5
		c-7.4-9.2-14.8-18.4-22.2-27.7c-1-1.2-1.9-2.6-3.5-4.8c9.7,0,18.4-0.2,27.2,0.2c1.5,0.1,3.2,2.1,4.4,3.6
		c10.3,12.7,20.5,25.4,30.8,38.1c1,1.3,2.1,2.5,4,4.7c0.9-1.4,1.5-2.5,2.3-3.5c10.5-13.1,21.2-26.2,31.6-39.4
		c2.1-2.6,4.1-3.8,7.5-3.7c7.6,0.2,15.3,0.1,24.4,0.1c-17.6,22-34.5,43-51.6,64.3C-441.3-1028.4-424.4-1007.4-406.7-985.3z"/>
	<path d="M-315.6-985.6c-7.7,0-14.5,0-21.9,0c0-35.8,0-71.3,0-107.7c-15.3,0-30,0-45,0c0-7.2,0-13.6,0-20.4c36.9,0,73.6,0,110.6,0
		c0,6.6,0,13,0,20.1c-14.4,0-28.8,0-43.7,0C-315.6-1057.2-315.6-1021.7-315.6-985.6z"/>
	<path d="M-539.3-985.1c15.3-18.9,29.6-36.8,44.2-55c4.6,5.7,8.8,10.7,12.8,16.1c0.7,0.9,0.5,3.3-0.2,4.2
		c-8.6,11-17.4,21.9-26.2,32.7c-0.8,1-2.4,1.9-3.7,1.9C-520.9-985-529.3-985.1-539.3-985.1z"/>
	<circle cx="-268.5" cy="-989.1" r="4"/>
	<text transform="matrix(1.1279 0 0 1 -259.0957 -985.3512)" style="font-family:'QanelasSoft-Bold'; font-size:51.1056px;">JS</text>
</g>
<g>
	<path d="M94.3-907.8c-57.4,0-114.8,0-172.2,0c-15.3,0-25.5-10.2-25.5-25.5c0-57.9,0-115.9,0-173.8c0-15.3,10.2-25.5,25.5-25.5
		c114.9,0,229.8,0,344.7,0c15.1,0,25.4,10.2,25.4,25.3c0,58,0,116,0,174.1c0,15.1-10.3,25.3-25.4,25.3
		C209.3-907.8,151.8-907.8,94.3-907.8z M-5.5-998.3c0,5.4,0.1,10.4-0.1,15.4c0,0.6-0.8,1.5-1.4,1.8c-7.2,2.6-14.6,3.4-22.3,2
		c-10.3-1.8-17.9-7.2-22.5-16.6c-5.7-11.5-6-23.5-2.3-35.6c1.7-5.6,4.7-10.6,9.4-14.3c9.9-8,21.2-8.6,32.9-5.8
		c4.3,1,8.5,3.2,12.4,5.4c5.9,3.2,9.6,2.6,13.4-3c1.8-2.7,3.5-5.6,5.5-8.2c1.7-2.3,1.1-3.7-0.8-5.3c-9.7-8.2-21.1-12.5-33.5-13.7
		c-10-1-20-0.4-29.8,2.8c-23.5,7.6-36.7,24-40.1,48.1c-1.4,9.8-0.5,19.7,2.8,29.3c8.1,23.2,29,38.1,52,39.2c7.3,0.4,14.6-0.1,21.8-1
		c9.7-1.2,18.8-4.6,26.8-10.5c1-0.8,1.9-2.4,2-3.7c0.1-14.7,0.1-29.5,0.1-44.2c0-2.1-0.9-2.9-2.9-2.9c-12.5,0-25,0-37.5,0
		c-2,0-2.9,0.8-2.9,2.9c0.1,3.7,0,7.5,0,11.2c0,4.4,2.1,6.6,6.5,6.6C-12.5-998.2-9.2-998.3-5.5-998.3z M247.1-1075.7
		c-6.3-1.3-12.7-1.3-19-0.2c-2.5,0.4-5,0.9-7.5,1.5c-13.4,3.3-27.4,16.3-26.1,35.7c0.7,10.4,4.5,19,13.5,24.4c5.1,3.1,11,4.9,16.6,7
		c4.8,1.8,9.9,3,14.6,5c4.8,2,7.6,5.7,7.2,11.3c-0.4,5.1-2.6,8.9-7.6,10.5c-5.4,1.7-11,1.9-16.2-0.3c-5.1-2.1-9.8-5.1-14.7-7.5
		c-3.9-1.9-7.6-0.8-9.9,2.8c-1.7,2.6-3.3,5.3-5,7.9c-3.5,5.7-3.4,5.7,2.2,9.6c6.7,4.7,14.1,7.9,22.1,9.8c12.8,3,25.4,2.6,37-4.2
		c13.4-7.8,19.2-20,18.8-35.3c-0.3-10.8-5.3-19.3-14.7-24.5c-5.9-3.2-12.4-5.2-18.7-7.7c-4.7-1.9-9.5-3.5-14-5.7
		c-3.3-1.5-5.1-4.5-4.9-8.2c0.3-4.5,2.4-8.1,6.8-9.7c3.9-1.4,8-2.2,12.1-0.9c5,1.7,9.9,3.8,14.6,6c3.9,1.8,8.4,0.3,10.6-3.4
		c1.7-2.9,3.3-5.9,4.9-8.9c1.9-3.4,1.8-3.6-1.3-5.8C261.8-1071.2,254.7-1074.1,247.1-1075.7z M57.9-958.9c7.1,2.5,14.8,3,22.3,1.9
		c2.8-0.4,5.6-0.9,8.3-1.8c13.5-4.2,22.2-13.3,26.2-26.9c2.4-8.1,2.7-16.2,1.1-24.5c-1.4-7.2-4.2-13.8-9-19.4
		c-8.2-9.7-19.3-13.3-31.5-14c-6.3-0.4-12.4,0.8-18.3,2.9c-14.1,5.1-22.3,15.3-25.5,29.8c-1.6,7.1-1.5,14.3,0,21.5
		c1.8,8.8,5.7,16.4,12.5,22.4C48.2-963.3,52.9-960.7,57.9-958.9z M151.5-1033.1L151.5-1033.1c0,12.1,0.1,24.3,0,36.4
		c0,2.6-0.3,5.4-1,7.9c-1.1,4-3.2,7.8-7.6,8.5c-4.1,0.7-8.5,0.5-12.7,0.2c-3.8-0.3-7.2,1.5-7.8,5.4s-0.7,7.8-1.3,11.7
		c-0.6,4-0.4,4.7,3.5,5.1c5.7,0.6,11.3,1.2,17,1.2c10.9,0,20.5-3.5,27.9-11.7c7-7.7,10-17.1,10.2-27.2c0.4-25.7,0.1-51.4,0.2-77.1
		c0-2.2-0.7-2.9-2.9-2.9c-7.2,0.1-14.4,0-21.7,0c-3.7,0-3.9,0.2-3.9,3.9C151.5-1058.8,151.5-1045.9,151.5-1033.1z"/>
	<path d="M88.3-1012.2c1.9,8.9,1.7,18.1-0.9,26.7c-0.1,0.4-0.3,0.9-0.4,1.3c-1.7,5.1-5.8,7.8-11.2,7.9c-2.6,0.1-5.2,0.1-7.7-0.6
		c-6.5-1.7-8.8-7.1-10-12.9c-1.6-7.9-1.4-15.7,0.7-23.5c1.9-6.9,7.2-10.8,15-10.7c7.4,0,12.7,4,14.3,10.8
		C88.2-1012.9,88.3-1012.6,88.3-1012.2z"/>
</g>
<g>
	<g>
		<path d="M-390.5-746.7c-8,29-23,51.4-52.8,60.8c-12.5,3.9-25.4,4.9-38.5,4.1c-14.2-0.9-27.6-4.4-40-11.3
			c-10.5-5.8-19-14-27.5-22.4c-5.7-5.6-11.3-11.4-17.6-16.4c-18.2-14.4-42.6-14.2-60.6,0.5c-5.2,4.2-9.7,9.1-14.8,13.9
			c1.6-4.6,3-9.3,4.8-13.9c5.6-14.4,14-26.8,26.6-36c10.7-7.8,22.7-12.1,35.7-13.8c13.1-1.8,26.1-1.6,39.1,1
			c15.8,3.2,29.5,10.3,41.4,21.1c8.2,7.5,16,15.5,24.1,23.2c9.7,9.2,21.1,14.3,34.6,14.4c13.3,0,24.6-5,34.3-13.9
			C-397.8-738.8-394.3-742.7-390.5-746.7z"/>
		<path d="M-474.9-645.4c-6,21.7-15.8,40.3-35,52.7c-9.5,6.1-20,9.6-31.2,11.2c-13.9,2-27.8,1.7-41.7-1.2
			c-19-4.1-34.1-14.7-47.6-28.1c-7.7-7.6-15.5-15-23.8-21.8c-8.2-6.6-18.2-8.6-28.6-8.3c-16.4,0.5-28.7,8.8-39.3,20.5
			c-1.2,1.3-2.3,2.7-3.5,4c0,0.1-0.2,0-0.4,0.1c0-0.4-0.1-0.9,0-1.2c4.3-14.7,10.5-28.4,21.1-39.7c11.4-12.3,25.8-19.2,42.1-22
			c17.8-3.1,35.5-2.4,52.8,3.2c13.9,4.5,25.4,12.6,35.8,22.6c6.6,6.4,13.1,12.9,19.7,19.2c9.9,9.4,21.7,14.4,35.5,14
			c12.6-0.4,23.5-5.2,32.8-13.6C-482.3-637.4-478.9-641.3-474.9-645.4z"/>
	</g>
	<g>
		<path d="M-422.6-530.5c-3.6-0.9-6.8-1.8-10-2.4c-0.9-0.2-2.1,0.2-3,0.7c-2.5,1.2-2.9,4.4-0.5,5.9c2.3,1.5,5,2.5,7.4,3.9
			c2.6,1.5,5.2,3,7.5,4.8c6.7,5.3,3.8,16.7-2,19.9c-7.4,4.1-15,3.8-22.6,0.7c-1.9-0.8-3.6-1.9-5.2-2.8c-0.4,0.5-0.7,1.3-1.3,1.6
			c-14.7,8.1-33.6,1.6-38.2-14.8c-2.7-9.6,1.8-20,10.7-25.6c8.3-5.1,16.9-5.1,25.7-1.5c1,0.4,1.9,1.1,3,1.7c-1.5,3-2.9,5.9-4.4,8.9
			c-3.5-2-7.1-2.9-11-2.6c-6.1,0.5-10.9,4-12.6,9.7c-1.6,5.2,0.1,11.1,4.7,14.3c5.6,4,11.6,3.8,17.6,0.9c0.4-0.2,0.7-0.4,1.2-0.7
			c1.2,2.3,2.3,4.5,3.5,6.9c1.8-3,3.5-5.8,5.1-8.4c2.5,1.4,4.8,2.7,7.2,3.8c2.3,1.1,4.8,1.3,7.3,0.7c1.7-0.4,3-1.4,3.4-3.2
			c0.4-1.9-0.4-3.3-2-4.2c-2.7-1.5-5.6-2.9-8.3-4.3c-3.8-2-7.1-4.6-8.3-9c-2-7,2.9-14.6,10.6-16.4c6.5-1.5,12.5,0.3,18.4,3.7
			C-420.1-535.5-421.5-532.8-422.6-530.5z"/>
		<path d="M-641.2-495.8c-3.4,0-6.6,0-9.8,0c0-15.9,0-31.8,0-47.9c3.2,0,6.3,0,9.7,0c0,6.4,0,12.7,0,19.3c3.2,0,6,0.1,8.9,0
			c1.6-0.1,2.3,0.5,2.9,1.9c1.6,3.8,3.3,7.5,5,11.3c0.3,0.6,0.6,1.2,1.1,2.1c2.1-4.7,4.1-9,5.9-13.4c0.6-1.5,1.5-1.7,2.9-1.9
			c3.8-0.6,5.6,1,6.8,4.5c1.2,3.7,3.1,7.1,4.8,11c2.1-4.7,4.2-9.1,6.1-13.5c0.6-1.4,1.3-2,2.9-2c6.1,0.1,12.2,0,18.5,0
			c0,9.6,0,19,0,28.5c-3.1,0-6.3,0-9.7,0c0-8.8,0-17.6,0-26.4c-0.1,0-0.3-0.1-0.4-0.1c-0.4,0.6-0.8,1.2-1.1,1.9
			c-4.1,7.7-8.3,15.5-12.4,23.3c-0.6,1.2-1.4,1.4-2.7,1.6c-3.8,0.6-5.8-0.8-6.9-4.5c-1-3.3-2.8-6.4-4.2-9.6
			c-0.1-0.1-0.2-0.2-0.5-0.4c-1.9,4.3-3.8,8.5-5.6,12.7c-0.5,1.3-1.3,1.6-2.6,1.7c-3.7,0.5-5.6-0.9-7.3-4.3
			c-3.7-7.6-7.9-14.9-12.3-22.3C-641.2-513.4-641.2-504.7-641.2-495.8z"/>
		<path d="M-515.6-543.8c3.2,0,6,0,8.8,0c0.3,0,0.7,0.1,1.1,0.1c0,16,0,31.8,0,47.8c-3.2,0-6.3,0-9.6,0c-0.1-0.8-0.2-1.7-0.3-2.6
			c-8.2,5-14.9,4.6-19.9-1.2c-4.9-5.8-4.9-14.8-0.1-20.7c4-4.9,12.6-7,19.9-1.6C-515.6-529.3-515.6-536.4-515.6-543.8z M-528.6-510
			c0,4,2.7,6.8,6.6,6.8c3.9,0,6.7-2.9,6.7-6.8c0-3.8-2.8-6.6-6.6-6.6C-525.7-516.7-528.5-514-528.6-510z"/>
		<path d="M-384-538.2c-1.4,2.7-2.7,5.4-4,8c-2.5-0.9-4.8-2-7.2-2.5c-1.6-0.4-3.5-0.3-5.1,0.3c-1.1,0.4-2.2,1.8-2.4,2.9
			c-0.2,1,0.7,2.6,1.6,3.2c2,1.4,4.3,2.2,6.4,3.4c2.7,1.5,5.5,3,8,4.9c7,5.3,4.3,17.1-2.3,20.5c-7.2,3.7-14.5,3.4-21.8,0.4
			c-2.2-0.9-4.2-2.3-6.6-3.6c1.9-3.2,3.6-6,5.2-8.8c2.5,1.3,4.8,2.9,7.3,3.8c2.2,0.7,4.6,0.8,6.9,0.8c1.9,0,3.4-1.2,3.8-3.3
			c0.4-2-0.6-3.4-2.2-4.3c-2.6-1.4-5.3-2.7-8-4.1c-4-2-7.3-4.7-8.5-9.3c-1.8-6.9,3-14.2,10.5-16.2C-397-543.6-388.7-541.8-384-538.2
			z"/>
		<path d="M-679.3-522.1c0.1-0.8,0.2-1.4,0.2-2.1c3.2,0,6.3,0,9.6,0c0,9.4,0,18.8,0,28.4c-3.1,0-6.2,0-9.5,0
			c-0.1-0.8-0.2-1.7-0.3-2.9c-3.7,3.5-7.8,4.5-12.5,3.6c-3.3-0.7-5.9-2.4-7.9-5c-4.6-5.8-4.2-14.6,0.5-20.3
			C-695.5-524.7-687.4-527.7-679.3-522.1z M-685.5-516.7c-3.9,0-6.8,2.8-6.8,6.6c0,3.9,2.8,6.8,6.6,6.8s6.6-2.8,6.7-6.5
			C-678.8-513.7-681.6-516.6-685.5-516.7z"/>
		<path d="M-712.5-532.6c0,12.4,0,24.5,0,36.7c-3.6,0-7,0-10.6,0c0-12.1,0-24.3,0-36.6c-3.7,0-7.2,0-10.8,0c0-3.1,0-6.1,0-9.1
			c10.7,0,21.4,0,32.2,0c0,3,0,5.9,0,9C-705.3-532.6-708.8-532.6-712.5-532.6z"/>
		<path d="M-561.2-495.8c-3.4,0-6.6,0-9.9,0c0-9.5,0-18.9,0-28.4c3.3,0,6.4,0,9.7,0c0.1,0.8,0.1,1.6,0.2,2.7
			c3.1-2.8,6.3-4.1,10.3-3.6c6.9,0.8,10.5,4.8,10.5,11.7c0,5.8,0,11.6,0,17.5c-3.3,0-6.5,0-10,0c0-0.6,0-1.2,0-1.9
			c0-4.6,0-9.2,0-13.8c0-3.5-2.2-5.9-5.2-5.9c-3.1,0-5.7,2.8-5.8,6C-561.3-506.4-561.2-501.2-561.2-495.8z"/>
		<path d="M-655.6-495.8c-3.3,0-6.4,0-9.7,0c0-9.5,0-18.9,0-28.5c3.3,0,6.4,0,9.7,0C-655.6-514.7-655.6-505.4-655.6-495.8z"/>
		<path d="M-585.9-536.2c0-3.2,2.7-5.8,5.8-5.9c3.1,0,5.9,2.7,5.9,5.8c0,3.3-2.7,5.9-6,5.9C-583.4-530.4-586-533-585.9-536.2z"/>
		<path d="M-654.5-536.2c0,3.3-2.6,5.8-5.8,5.8s-5.9-2.6-5.9-5.8s2.8-6,6-6C-657.1-542.1-654.5-539.3-654.5-536.2z"/>
	</g>
</g>
<g>
	<path d="M-168.3-587.3c-1.6,0-3,0-4.7,0c-0.4-4.1-1.2-8.2-1.2-12.3c0-3.1-1.2-5.1-3.4-7c-13.8-12.2-23.1-27-26-45.4
		c-2.7-16.8,1-32.6,9.5-47c5.5-9.3,12.4-17.8,18.8-26.6c1.5-2.1,3-4,4.7-6.3c11.2,14.6,23.6,28.2,29.7,45.9
		c8.6,25.2,3.9,48.1-12.5,68.7c-3.5,4.4-7.9,8.1-11.7,12.3c-0.7,0.8-1.4,1.8-1.5,2.8C-167.4-597.3-167.8-592.5-168.3-587.3z
		 M-171.7-605.2c3.7-2,4.5-4.1,4.3-7c-0.9-17.9-1.7-35.8-2.4-53.7c-0.2-4.7,0-9.4,0-14.1c-0.3,0-0.7,0-1,0
		c-0.4,7.9-0.9,15.9-1.3,23.8c-0.7,14.9-1.4,29.8-1.8,44.7C-174-609.4-172.6-607.4-171.7-605.2z"/>
	<path d="M-14-608.3c0,1.3,0,2.4,0,3.7c-7.4,0-14.7,0-22.1,0c0-1.2,0-2.3,0-3.5c5.4-1.5,5.3-1.5,5.2-7.7c-0.1-16-0.1-32-0.1-48
		c0-1.1,0-2.2-0.6-3.3c-4.2,10.1-8.4,20.2-12.7,30.3c-4.3,10.4-8.6,20.7-13,31c-0.5,1.2-2,1.9-3,2.9c-1-1-2.3-1.9-2.8-3.1
		c-8.7-20.6-17.2-41.2-25.8-61.8c-0.1-0.3-0.3-0.5-0.9-1.4c0,2.1,0,3.5,0,5c0,16.5,0,32.9,0,49.4c0,5.2,0.3,5.5,5.2,6.7
		c0,1.1,0,2.2,0,3.5c-6.1,0-12.2,0-18.6,0c0-1.1,0-2.3,0-3.7c0.8-0.1,1.6-0.2,2.4-0.2c2.9-0.1,4.1-1.7,4.1-4.5
		c0.1-19.9,0.3-39.9,0.4-59.8c0-3.7-0.6-4.1-6.3-4.4c0-1.2,0-2.5,0-4.2c6.2,0,12.4-0.1,18.5,0.1c0.7,0,1.6,1.7,2,2.8
		c7.6,18.5,15.2,37,22.8,55.5c0.3,0.7,0.7,1.4,1.3,2.6c5.4-13.1,10.5-25.6,15.7-38.2c2.8-6.7,5.6-13.5,8.2-20.3
		c0.8-2.1,1.9-2.7,4.1-2.7c5.3,0.2,10.6,0.1,16,0.1c0,1.6,0,2.9,0,4.2c-0.7,0.1-1.2,0.3-1.8,0.3c-4.3,0.3-4.9,0.9-4.9,5.3
		c0,7.1,0,14.1,0,21.2c0,11.7,0.1,23.4,0.2,35.1C-20.4-609.1-20.4-609.1-14-608.3z"/>
	<path d="M141.8-611.3c8.6,0,16.5-0.4,24.3,0.2c4.5,0.3,9.3,1.4,13,3.8c7.9,5,8.3,15.8,1.7,23c-5.5,6-12.7,8.4-20.5,9
		c-4.2,0.3-8.6,0-12.8-0.6c-7.1-1-12.8-4.5-15-11.7c-2-6.7,1-11.9,6.1-16.3c-0.3-0.2-0.5-0.4-0.8-0.5c-5.3-0.6-6.7-3.8-3.6-8.1
		c2.3-3.2,4.7-6.3,7.1-9.6c-0.3-0.4-0.5-0.8-0.8-1.1c-6.5-5.3-9.2-12.1-7.2-20.3c2-8.3,7.6-13.7,15.6-15.6
		c4.9-1.1,10.2-0.4,15.4-0.3c5.8,0.1,11.5,0.4,17.3,0.5c1.4,0,2.7,0,4.2,0c0,2,0,3.6,0,5.6c-3.8-0.4-7.5-0.7-11.2-1.1
		c7.6,10.3,8.5,18.6,3.1,26.7c-6.1,8.9-17,12.1-30.3,8.7C145.7-616.7,144-614.3,141.8-611.3z M171-639.1c0.2-4.7-1.3-9-5.1-12.1
		c-6-5-15.4-3.9-20,2.4c-5,6.7-3.4,18.3,3.2,22.7c4.6,3.1,9.5,3.5,14.4,0.9C168.9-628.1,171.1-632.9,171-639.1z M157.7-604.5
		L157.7-604.5c-1.9,0-3.7,0-5.6,0c-5,0-8.8,2.9-10.3,8c-1.5,5,0.3,10.2,4.4,12.8c6.9,4.4,18.6,3.6,24.8-1.7c3.5-3,5-8.8,3.5-13
		c-1.5-4.1-4.7-6-10.3-6.1C162.1-604.5,159.9-604.5,157.7-604.5z"/>
	<path d="M332.5-604.7c0-1.2,0-2.4,0-3.5c6.6-1.6,6.7-1.7,6.7-8.8c0-17.6,0-35.2,0-52.9c0-6.1-0.5-6.8-6.4-7.7c0-1.2,0-2.4,0-4.1
		c2.2,0,4.2,0,6.3,0c9.7,0.2,19.5,0.1,29.2,0.7c10.1,0.6,17.2,7.1,18.9,16.4c1.1,5.9-0.9,11-5.3,15c-1.6,1.5-3.5,2.6-5.4,4
		c2.4,1,4.8,1.7,7,2.8c6.3,3.1,9.2,8.6,9.5,15.4c0.4,7.8-2.5,14.4-9.5,18c-4.6,2.4-9.9,4.3-15,4.6c-11.4,0.7-22.9,0.2-34.4,0.2
		C333.5-604.5,333-604.6,332.5-604.7z M349.4-641.3c0,9-0.1,17.8,0.1,26.6c0,2.6,1.7,4.3,4.5,4.3c4.9-0.1,9.8,0.1,14.6-0.4
		c7.9-0.8,13.4-7.4,13.5-15.5c0.1-7.9-4.9-14-13.1-14.8C362.6-641.7,356.2-641.3,349.4-641.3z M349.4-647.6c5.6,0,10.8,0.3,15.9-0.1
		c6.3-0.5,10.4-5,10.9-11.1c0.7-8.5-2.4-14.4-9-15.9c-4.1-0.9-8.5-0.6-12.7-0.9c-3.4-0.2-5,1.7-5,4.8
		C349.3-663.1,349.4-655.4,349.4-647.6z"/>
	<path d="M260.1-604.6c0-1.4,0-2.6,0-3.8c5.8-0.7,6.4-1.4,6.4-7.3c0-18.3,0-36.6,0-55c0-5.5-0.6-6.2-6.3-6.6c0-1.3,0-2.6,0-4.4
		c5.1,0,10.3-0.1,15.4,0c6.5,0.2,13.1-0.2,19.4,1.1c19.3,3.9,30.4,18.7,29.9,38.9c-0.5,20.1-13.1,34.7-33.1,36.9
		C281.4-603.7,270.7-604.6,260.1-604.6z M276.8-643c0,8.8,0,17.6,0,26.4c0,0.1,0,0.2,0,0.3c0.1,2.5,0.5,4.9,3.4,5.7
		c9.3,2.4,21.8-2.3,27.4-10.4c7.4-10.6,7.4-22.4,4.5-34.3c-1.1-4.3-3.6-8.6-6.5-12c-4.8-5.8-11.6-8.2-19.1-8.3
		c-9.6,0-9.8,0.1-9.8,9.6C276.8-658.3,276.8-650.6,276.8-643z"/>
	<path d="M121.9-608.3c0,1.1,0.1,2.2,0.2,3.6c-6.9,0-13.7,0-20.6,0c0-1.2,0-2.3,0-3.4c5.4-1.5,5.4-1.5,5.4-7.4c0-8.3,0-16.7,0-25
		c0-1,0.1-2.1-0.1-3.1c-0.9-4.5-2.3-8.8-7.3-10c-6-1.4-11.6-0.3-15.8,4.6c-3.2,3.7-4.9,8.1-4.8,13.1c0,7.1,0,14.1,0,21.2
		c0,5.6,0.1,5.7,5.5,6.4c0.1,1.1,0.1,2.2,0.2,3.6c-6.9,0-13.7,0-20.6,0c0-1.1,0-2.2,0-3.4c5.4-1.6,5.4-1.6,5.4-7.4
		c0-9.9,0-19.7,0-29.6c0-5.2-0.2-5.4-5.2-6.2c-0.5-3.5,6.2-7.9,11.9-7.6c0.7,2.5,1.4,5.1,2.3,8.2c3.8-4.6,7.8-8.2,13.3-9.2
		c7.6-1.4,14.8-1.1,20.5,5.1c3.4,3.6,4.2,8.2,4.3,12.9c0.1,8.9,0,17.9,0,26.8C116.4-609.2,116.4-609.2,121.9-608.3z"/>
	<path d="M224.1-660.5c16.4,0.9,28.2,13.8,27.2,29.8c-1,17.2-13.5,28.6-30.4,27.7c-15.7-0.9-27.1-12.3-26.8-29.1
		C194.4-649.6,207.3-661.4,224.1-660.5z M241.5-630.9c-0.4-3.3-0.6-5.8-1-8.3c-1.6-8.4-7.8-14.2-15.9-15.1
		c-8.2-0.9-14.9,3.2-18.3,11.4c-2.9,6.9-2.7,14-0.6,21.1c2.5,8.1,8.9,12.9,17,12.9s14.5-4.6,17-12.8
		C240.7-624.9,241-628.3,241.5-630.9z"/>
	<path d="M-4.2-630.5c-0.7-17,10.7-29.4,27.6-30c16-0.5,28.9,11.2,29.4,26.8c0.6,17.5-10.6,30.1-27.3,30.7
		C8.8-602.4-3.5-613.7-4.2-630.5z M42.9-632.4c-0.2-1.8-0.4-4.3-0.9-6.8c-2-9.4-8.6-15.1-17.5-15.3c-8.3-0.2-15.4,5-17.5,13.9
		c-1.1,4.5-1.3,9.4-0.8,14.1c1.5,15,17.1,22.6,28.8,14C41.3-617.2,42.5-624.3,42.9-632.4z"/>
</g>
<g>
	<g>
		<path class="st0" d="M72.2,127.5c-3.1,3.1-4.5,6.9-5.3,11c-0.1,0.3-0.3,0.7-0.6,0.9c-5.2,2.1-10.5,2.9-16,0.8
			c-3.8-1.5-6.5-4.2-8.6-7.5c-2.3-3.7-5-6.8-9-8.8c-2.5-1.2-5.1-1.6-7.8-0.8c-1.6,0.5-2,1.4-0.9,2.7c0.9,0.9,1.8,1.9,2.9,2.5
			c3.1,1.7,5,4.5,6.7,7.4c1.3,2.1,2.4,4.3,3.4,6.5c2.4,5.4,6.7,8.4,12.3,9.7c4.5,1,9,0.9,13.6,0.3c1.1-0.2,2.2-0.3,3.4-0.5
			c0,0.4,0,0.8,0,1.3c0,4.8-0.1,9.6,0.2,14.3c0.2,4.3-2.9,5.9-6.6,4.7c-9-3-17.2-7.4-24.8-13.2c-11.6-8.8-20.4-19.7-26.6-32.8
			c-3.6-7.7-6-15.7-7.3-24.1c-1-6.5-1.3-13-0.9-19.5c0.7-10.5,3.2-20.6,7.5-30.2c4.9-11,11.8-20.6,20.8-28.7
			C39,13.7,51.1,7,64.8,3.1C70.1,1.6,75.5,0.6,81,0.3c4.5-0.2,9-0.5,13.5-0.2c10.4,0.6,20.4,3.1,30,7.4c11.1,4.9,20.8,11.9,29,20.8
			c10.3,11.2,17.3,24.3,20.9,39.1c1.7,7.2,2.6,14.5,2.4,21.9c-0.2,13.7-3.4,26.8-9.6,39.1c-4.9,9.6-11.4,18.1-19.3,25.4
			c-8.9,8.1-19,14.1-30.4,18c-0.9,0.3-2,0.5-2.9,0.5c-2.7-0.3-4-1.9-4-4.8c0.1-7.8,0.2-15.5,0.2-23.3c0-1.8-0.2-3.6-0.4-5.4
			c-0.5-4.3-2.1-8.1-5.4-11.4c1.6-0.2,3.1-0.4,4.6-0.7c7.5-1.3,14.7-3.4,21-8c6.3-4.6,10.3-10.9,12.5-18.4c2-7.1,2.7-14.4,1.8-21.7
			c-0.8-6.7-3.5-12.8-8-17.9c-0.5-0.6-0.6-1.1-0.4-2c2.4-7.4,1.6-14.7-1.1-21.9c-0.2-0.3-0.8-0.7-1.3-0.7c-4-0.3-7.8,0.8-11.3,2.5
			c-3.8,1.9-7.5,4.1-11.3,6.1c-0.5,0.2-1.2,0.4-1.6,0.3c-7.5-2-15.2-2.9-23-2.7c-6.5,0.2-12.9,0.9-19.2,2.7
			c-0.9,0.2-1.5,0.2-2.2-0.3c-4.9-3.2-9.9-6.2-15.7-7.7c-2.1-0.5-4.5-0.6-6.7-0.9c-0.7-0.1-1.1,0.2-1.3,0.9
			c-2.7,7.2-3.4,14.6-0.9,22c0.2,0.8-0.2,1.2-0.5,1.6c-3.1,3.6-5.3,7.7-6.8,12.2c-1.6,5.2-1.7,10.7-1.3,16.1
			c0.3,4.2,0.9,8.4,2.2,12.4c3.5,11.2,11,18.6,22.1,22.6c4.8,1.7,9.8,2.7,14.8,3.3C71.7,127.3,71.8,127.4,72.2,127.5z"/>
	</g>
	<g>
		<path class="st0" d="M267.4,146c-3.1-0.6-6.4-0.9-9.5-1.7c-15-3.5-24.7-13.2-29.3-28.5c-2.9-9.7-3.6-19.7-3.4-29.9
			c0.2-9.2,1.3-18.5,4.2-27.3c2.9-8.4,7.4-15.6,14.4-20.9c4.9-3.5,10.3-5.7,16.1-6.6c11.6-1.8,23.1-1.3,34.3,1.9
			c1.8,0.6,3.6,1.5,5.3,2.2c1.1,0.5,1.4,1.3,1.1,2.4c-1.2,5.4-2.4,10.7-3.7,16.1c-0.4,1.7-1,2.2-2.5,1.6c-7.4-2.7-15-3.2-22.7-2.9
			c-5.7,0.2-11,1.8-15.4,6.2c-3.8,3.8-6,8.6-7,13.8c-2.5,12.1-2.6,24.3,1.1,36.2c2.4,7.8,7.1,13.2,15.2,14.8
			c5.3,1,10.6,0.7,15.9-0.2c0.4-0.1,1-0.8,1.1-1.3c0.1-6.8,0-13.7,0-20.4c0-0.1-0.1-0.3-0.2-0.7c-3.9,0-7.8,0-11.7,0
			c-2.8,0-3-0.3-3-3.3c0-5,0-9.9,0-15c0-2.3,0.3-2.6,2.5-2.6c10.8,0,21.6,0,32.5,0c2.1,0,2.3,0.2,2.3,2.4c0,17.8,0,35.7,0,53.5
			c0,1.3-0.4,2.1-1.5,2.6c-6.8,4.1-14.3,6.4-22.1,7.3c-0.3,0-0.6,0.2-1.1,0.3C276.1,146,271.7,146,267.4,146z"/>
		<path class="st0" d="M601.2,146c-2.1-0.5-4-0.7-6.1-1.3c-4.8-1.1-9.1-3.3-13.1-6.6c-0.2,1.4-0.4,2.4-0.5,3.5
			c-0.1,1.6-1,2.3-2.5,2.3c-3.9-0.1-7.8,0-11.6,0c-1.9,0-2.4-0.5-2.4-2.5c0-15,0-29.9,0-45c0-19.7,0-39.6,0-59.4
			c0-2.6,0.2-2.9,2.7-2.9c5.6,0,11.3,0,16.9,0c2.6,0,2.7,0.1,2.7,2.9c0,10.8,0,21.8,0,32.6c0,0.6,0,1.3,0,2.2
			c1.5-0.7,2.8-1.4,4.1-1.9c8.4-3.5,17-4.3,25.7-0.8c6.7,2.7,10.6,8.3,12.8,15.3c1.1,3.8,1.6,7.6,2.4,11.5c0.1,0.3,0.2,0.7,0.3,1.1
			c0,5.1,0,10.3,0,15.4c-0.1,0.5-0.2,0.9-0.3,1.5c-0.9,4.9-1.3,9.8-2.6,14.6c-2.3,8.1-6.9,14-15,16.3c-1.8,0.5-3.7,0.8-5.5,1.3
			C606.3,146,603.8,146,601.2,146z M586.9,106.5c0,5.1,0.1,10.2,0,15.3c0,1.5,0.5,2.2,1.7,2.7c3.7,1.7,7.4,2.5,11.4,2.4
			c5.1-0.1,7.9-2.3,9.2-7.4c1.5-6.2,1.6-12.6,1-18.8c-0.3-3.1-1.1-6.2-2.2-9c-1.2-3.1-3.7-4.9-6.8-5.4c-4.5-0.6-9,0.3-13.1,2.5
			c-1,0.5-1.3,1.1-1.3,2.2C586.9,96.2,586.9,101.4,586.9,106.5z"/>
		<path class="st0" d="M510.2,146c-1.8-0.5-3.6-0.8-5.4-1.3c-8.7-2.3-13.3-8.4-14.6-17.5c-0.4-3-0.6-6.2-0.6-9.1
			c-0.1-15.3,0-30.5,0-45.8c0-2.7,0.3-3.1,2.9-3.1c5.6,0,11.4,0,17,0c2.2,0,2.6,0.5,2.6,2.7c0,15.4,0,30.7,0,46.1
			c0,6.2,2.7,8.7,8.6,8.8c3.8,0,7.3-1,10.6-2.9c1.1-0.6,1.5-1.3,1.5-2.6c0-16.4,0-32.9,0-49.3c0-2.7,0.2-3,2.8-3
			c5.5,0,11.1,0,16.7,0c2.2,0,2.5,0.3,2.5,2.6c0,23.2,0,46.5,0,69.6c0,2.3-0.3,2.5-2.4,2.5c-3.5,0-7,0-10.5,0
			c-1.5,0-2.4-0.5-2.5-2.2c0-0.9-0.3-1.8-0.5-3c-1.4,0.8-2.7,1.5-4,2.2c-4.4,2.4-9.1,4-14,4.7c-0.2,0-0.3,0.2-0.5,0.2
			C517,146,513.7,146,510.2,146z"/>
		<path class="st0" d="M380.7,146c-2.5-0.5-5-0.7-7.5-1.3c-8.6-2.2-13.9-8.2-15.2-17.4c-0.4-2.7-0.5-5.6-0.6-8.3
			c-0.1-9.5-0.1-19.1,0-28.5c0-1.5-0.4-1.9-1.8-1.8c-2.6,0.1-5.3,0-7.9,0c-1.4,0-1.9-0.7-1.9-2.1c0-4,0-8.1,0-12.1
			c0-1.4,0.6-2.1,1.8-2.3c2.8-0.7,5.5-1.5,8.3-2.1c1.2-0.2,1.6-0.8,1.6-2.2c-0.1-6,0-12.1,0-18.1c0-1.9,0.2-2.2,2.1-2.2
			c6,0,11.9,0,17.9,0c1.4,0,2.1,0.5,2.1,2.1c-0.1,5.7,0,11.4,0,17.1c0,2.2,0,2.2,2.1,2.2c4,0,7.9,0,11.9,0c1.5,0,2.2,0.7,2.1,2.2
			c0,5.1,0,10.2,0,15.3c0,1.5-0.5,2.2-2.1,2.1c-4-0.1-8,0.1-12.1-0.1c-1.7-0.1-2.1,0.6-1.9,2.2c0.1,8.9,0.1,17.9,0,26.8
			c-0.1,6.7,3.5,8.9,8.6,9.2c1.8,0.1,3.8-0.1,5.7-0.3c1.5-0.1,2.2,0.5,2.2,2.1c0,4.5,0,8.9,0,13.5c0,1.3-0.4,1.8-1.5,2.1
			c-2.5,0.5-5.1,1-7.6,1.5c-0.4,0.1-0.9,0.2-1.4,0.3C383.7,146,382.2,146,380.7,146z"/>
		<path class="st0" d="M427.5,96.7c0,0.9,0,1.6,0,2.2c0,14,0,28.2,0,42.2c0,2.4-0.3,2.9-2.6,2.9c-5.7,0-11.5,0-17.2,0
			c-2.1,0-2.4-0.3-2.4-2.5c0-34.9,0-69.9,0-104.8c0-2.1,0.3-2.4,2.2-2.4c6,0,11.9,0,17.9,0c1.9,0,2.3,0.3,2.3,2.5
			c0,12.1,0,24.2,0,36.2c0,0.7,0,1.4,0,2.2c0.6,0,1.2,0.1,1.6,0.1c9,0,18,0,26.8,0c1.5,0,1.7-0.6,1.7-1.9c0-12.1,0-24.3,0-36.4
			c0-2.4,0.2-2.6,2.6-2.6c5.8,0,11.7,0,17.5,0c1.8,0,2.2,0.5,2.3,2.4c0,34.9,0,69.9,0,104.8c0,2.1-0.4,2.5-2.5,2.5
			c-5.8,0-11.7,0-17.5,0c-1.9,0-2.3-0.5-2.3-2.4c0-14.3,0-28.7,0-42.9c0-1.6-0.4-1.9-1.8-1.9c-8.9,0.1-17.8,0-26.5,0
			C428.8,96.7,428.3,96.7,427.5,96.7z"/>
		<path class="st0" d="M338.4,106.4c0,11.4,0,22.8,0,34.2c0,3-0.4,3.3-3.2,3.3c-5.2,0-10.5,0-15.7,0c-2.6,0-3.4-0.8-3.4-3.5
			c0-22.8,0-45.8,0-68.6c0-2.2,0.5-2.7,2.6-2.7c5.7,0,11.5,0,17.2,0c2.3,0,2.5,0.1,2.5,2.5C338.4,83.2,338.4,94.9,338.4,106.4z"/>
		<path class="st0" d="M327.4,62.9c-6.9-0.2-12.3-6-12.1-13.4c0.1-7.3,6-13.1,12.8-12.9c6.6,0.2,12.1,6.4,11.9,13.4
			C339.7,57.3,334.1,63.1,327.4,62.9z"/>
	</g>
</g>
</svg>
