<?xml version="1.0" encoding="utf-8"?>
<!-- Generator: Adobe Illustrator 23.1.0, SVG Export Plug-In . SVG Version: 6.00 Build 0)  -->
<svg version="1.1" id="Layer_1" xmlns="http://www.w3.org/2000/svg" xmlns:xlink="http://www.w3.org/1999/xlink" x="0px" y="0px"
	 viewBox="0 0 597.5 156.6" style="enable-background:new 0 0 597.5 156.6;" xml:space="preserve">
<style type="text/css">
	.st0{fill:#CECCCC;}
</style>
<g>
	<g>
		<path d="M872.7-1147.8c0,13.5,0,26.3,0,39.4c-4.5,0-8.3,0-12.4,0c0-33.1,0-66,0-99c0.2-0.1,0.4-0.6,0.7-0.6
			c14.3,0,28.7-0.9,42.9,0.2c16.1,1.1,26.6,12.2,27.4,26.7c0.9,17.8-7,28.3-25.2,32.7c8.7,13.2,17.3,26.3,26.5,40.2
			c-5.3,0-9.4,0.4-13.4-0.2c-1.5-0.2-3.1-2.2-4.1-3.8c-7-10.7-13.8-21.6-20.9-32.2c-1.1-1.7-3.7-3.1-5.8-3.3
			C883.4-1148.1,878.4-1147.8,872.7-1147.8z M872.9-1159.3c10.5,0,20.1,0.6,29.7-0.2c9.5-0.7,15.7-8.9,15.5-18.8
			c-0.1-9.7-6.4-17.1-16-17.8c-8.6-0.6-17.3-0.4-25.9-0.3c-1.1,0-3.1,1.7-3.2,2.6C872.8-1182.4,872.9-1171.1,872.9-1159.3z"/>
		<path d="M954-1140.6c0.6,10.3,5,17.1,13,21.5c9.9,5.5,21.6,3.5,34.9-5.8c1.7,2.3,3.4,4.6,5.4,7.3c-11.9,11-25.6,13.6-40.5,9.4
			c-14.2-4-22.2-14.2-24.7-28.6c-2.2-12.6,0.3-24.3,9-34c10-11.2,22.8-14.2,36.9-10c13.9,4.1,20.7,14.9,23.2,28.6
			c0.6,3.5,0.6,7.2,1,11.5C992.6-1140.6,973.6-1140.6,954-1140.6z M999.8-1149.4c0.8-13-10.1-23.7-23.3-23.3
			c-12.7,0.4-23.2,11.5-21.9,23.3C969.6-1149.4,984.7-1149.4,999.8-1149.4z"/>
		<path d="M1074.7-1145.5c-0.3-6.2,0-11.2-0.8-16c-0.9-5.6-7-9.8-13.8-10.4c-8.5-0.9-16.2,1.2-22.6,7c-0.9,0.8-1.8,1.5-2.6,2.1
			c-0.3-0.1-0.5-0.2-0.6-0.3c-6-6.6-6-7.9,1.4-12.7c11.4-7.5,23.7-8.5,36.3-4.1c9.1,3.2,14,10.4,14.2,19.8
			c0.4,16.1,0.1,32.3,0.2,48.5c0,2.4-0.6,3.8-3.4,3.6c-2.5-0.1-5,0-7.8,0c-0.4-2.3-0.7-4.3-1.1-7.1c-6.2,5.4-13,8.1-20.7,8.8
			c-10.7,0.9-21.4-4.8-25.7-13.8c-4.1-8.6-2.1-20.5,4.4-26.9c8.8-8.7,25.8-9.7,37.2-2.3C1070.6-1148.5,1071.9-1147.5,1074.7-1145.5z
			 M1074.5-1131.1c1.5-6.1-2.3-9.9-7.9-12.3s-11.4-3.3-17.5-1.6c-7.1,2-11.7,7.8-11.7,14.9c0.1,6.8,4.5,13.2,11.6,14.2
			c5.4,0.8,11.3,0.4,16.5-1.2C1073.2-1119.4,1074.5-1122.1,1074.5-1131.1z"/>
		<path d="M1166.4-1169.4c-2.5,2.3-4.8,4.4-7.3,6.8c-6.8-8.2-15.1-11-25.1-8.4c-5.6,1.4-9.9,4.5-13.1,9.3c-7,10.4-6.3,26.8,1.3,36.6
			c6.7,8.7,24.7,13.3,36.8-0.8c2.4,2.2,4.8,4.3,7.2,6.4c-6.5,10.9-21,15.7-35.4,12.1c-15.3-3.9-26-17.2-26.8-33.4
			c-0.9-19,7.7-33.8,22.9-39.3C1141.8-1185.5,1157.6-1181.4,1166.4-1169.4z"/>
		<path d="M1184-1169.7c-13-1.2-13-1.2-11.2-10.7c3.5,0,7,0,11.2,0c0-6.8,0-13,0-19.5c4,0,7.4,0,11.5,0c0,5.1,0.2,10.1-0.1,15
			c-0.2,3.6,1.2,4.8,4.6,4.5c3.1-0.2,6.3,0,9.8,0c0,3.4,0,6.5,0,10.3c-4.6,0-9.2,0-14.3,0c0,6.3,0,11.9,0,17.5
			c0,8.2-0.1,16.3,0,24.5c0.1,11,4.4,13.8,14.4,9.4c5.3,7,4.1,10.1-4.5,12c-13.4,2.9-21.5-3.5-21.5-17.2c0-13.3,0-26.6,0-40
			C1184-1165.9,1184-1167.7,1184-1169.7z"/>
	</g>
	<g>
		<path d="M629.5-1195c-0.8-11.3-1.8-22.1-2.3-32.9c-0.2-3.3,0.5-6.7,1.3-10c4.1-16.8,15.1-23,31.7-18.1c12.8,3.8,23.2,11.5,33,20.1
			c0.9,0.8,1.8,1.6,3,2.6c1.5-1.2,2.8-2.4,4.2-3.6c8.6-7.7,17.9-14.4,28.8-18.4c18.8-6.9,31.5,0.5,35,20.3
			c2.1,11.8,0.9,23.5-1.4,35.1c-0.3,1.5-0.5,3-0.7,4.2c7.9,3.4,15.7,6.1,22.9,10c6.1,3.4,12,7.5,16.8,12.5c9.8,10,9.5,21.5-0.1,31.8
			c-9.2,10-21.1,15.4-33.6,19.9c-1.8,0.7-3.7,1.3-5.4,1.9c1,7.6,2.2,14.8,2.7,22.1c0.7,9.2,0,18.4-3.9,27c-5,11.1-13.8,15.6-25.8,13
			c-13.6-2.9-24.5-10.8-34.7-19.6c-1.5-1.3-2.9-2.6-4-3.6c-7.5,5.4-14.5,10.9-21.9,15.6c-7.3,4.6-15.2,7.9-24.1,8
			c-10,0.2-16.8-4.4-20.6-13.7c-5.1-12.6-4-25.5-2-38.4c0.5-3.2,1.2-6.3,1.6-8.5c-10.2-5.1-20.3-9.5-29.6-15.1
			c-5-3-9.3-7.6-12.8-12.2c-6.3-8.3-5.9-17.1,0.3-25.4c6.9-9.3,16.7-14.6,27-19.1C620-1191.7,625.1-1193.3,629.5-1195z M696-1121.5
			C696-1121.6,696-1121.6,696-1121.5c5.7-0.1,11.3,0.1,17-0.2c1.8-0.1,4.3-1.2,5.2-2.7c6.1-10.1,11.9-20.3,17.5-30.6
			c0.7-1.3,0.6-3.7-0.1-5c-5.7-10.1-11.5-20.2-17.5-30.1c-0.8-1.4-3.1-2.6-4.8-2.6c-11.3-0.2-22.6-0.3-33.9,0
			c-1.9,0-4.4,1.6-5.4,3.2c-5.8,9.5-11.5,19.1-16.7,28.9c-1,1.9-0.9,5.2,0.1,7.1c4.7,8.9,10.1,17.4,14.9,26.3
			c2.4,4.5,5.5,6.3,10.6,5.8C687.2-1121.8,691.6-1121.5,696-1121.5z M632.9-1185.2c-12.7,3.7-24.9,8.3-34.4,17.9
			c-6.7,6.8-6.9,12.5-0.3,19.6c9.5,10.1,21.9,15,34.7,18.9c3.6-9,7.1-17.7,10.4-26.3c0.4-1.1,0.7-2.5,0.3-3.5
			C640.2-1167.4,636.6-1176.1,632.9-1185.2z M640.3-1116c-3.1,12.8-5,25.5-1.6,38.4c2.3,8.8,7.4,12,16.5,10
			c13.7-3.1,24.3-11.5,34.1-20.6c-6-7.6-11.7-14.8-17.4-21.9c-0.8-1-2.1-1.9-3.2-2.1C659.4-1113.5,650.2-1114.7,640.3-1116z
			 M704-1088.2c9.3,8.6,19.1,16.7,31.8,20.3c9.6,2.7,14.7,0.1,17.7-9.2c4.2-13.3,2.2-26.4-0.9-39.4c-9.8,1.4-19.2,2.7-28.5,4.2
			c-1.1,0.2-2.3,0.9-2.9,1.7C715.4-1103.2,709.8-1095.9,704-1088.2z M752.2-1197.9c2.9-13,4.6-25.8,1.4-38.7
			c-2.4-9.7-8.2-12.8-17.9-10c-12.7,3.7-22.5,11.8-32,20.5c6,7.7,11.7,15.2,17.6,22.5c0.6,0.7,1.7,1.3,2.7,1.4
			C733.1-1200.7,742.3-1199.4,752.2-1197.9z M688.9-1226c-1.4-1.3-2.5-2.5-3.8-3.6c-8.8-7.5-18-14.2-29.4-17.1
			c-9.3-2.4-14.8,0.8-17.1,10.1c-0.9,3.5-1.3,7.2-1.4,10.9c-0.3,9.4,0.7,18.8,3.5,27.6c9.3-1.4,18-2.6,26.8-4
			c1.5-0.2,3.3-1.1,4.2-2.2C677.3-1211.3,683-1218.5,688.9-1226z M759.6-1185.1c-3.7,9.1-7.2,17.5-10.6,26c-0.3,0.8-0.5,1.9-0.2,2.6
			c3.6,9,7.4,18,11.2,27.2c2.6-0.9,5.1-1.6,7.5-2.5c9.2-3.5,18-7.7,25.3-14.5c8.1-7.6,8.2-13.9,0.4-21.5
			C783.8-1176.9,771.9-1181.3,759.6-1185.1z M696.6-1095.5c4.3-5.3,8.2-10.2,12.6-15.5c-9,0-16.8,0-25.6,0
			C688.1-1105.5,692.2-1100.7,696.6-1095.5z M749.9-1126.5c-2.5-6.5-4.7-12.5-7.3-19.2c-4.4,7.8-8.4,14.8-12.9,22.8
			C736.9-1124.2,743-1125.3,749.9-1126.5z M642.9-1126.1c6.6,1.1,12.6,2.1,19.8,3.2c-4.6-8-8.5-14.8-12.9-22.5
			C647.3-1138.4,645.2-1132.6,642.9-1126.1z M749.5-1187.9c-7-1.2-13.1-2.3-19.9-3.5c4.4,7.6,8.5,14.6,12.9,22.3
			C745-1175.6,747.1-1181.4,749.5-1187.9z M709.1-1203.4c-4.7-5.6-8.6-10.2-12.9-15.3c-4.5,5.4-8.3,10.1-12.7,15.3
			C692.4-1203.4,700.1-1203.4,709.1-1203.4z M662.7-1191.4c-6.8,1.2-12.8,2.2-19.7,3.4c2.3,6.4,4.4,12.2,6.8,18.8
			C654.3-1176.9,658.3-1183.7,662.7-1191.4z"/>
		<path d="M696.6-1177.7c11.2,0.2,20.1,9.4,19.9,20.8c-0.2,10.9-9.5,20-20.4,19.9c-11.1-0.1-20.4-9.6-20.2-20.7
			C676-1169,685.2-1177.9,696.6-1177.7z"/>
	</g>
</g>
<g>
	<path d="M-423.3-1226.6c-1.8,0-3.6,0-5.8,0c0,11.1,0,21.7,0,33c23.7,0,47.2,0,71.1,0c0,7.1,0,13.5,0,20.5c-23.7,0-47.1,0-71,0
		c0,11.6,0,22.6,0,34.1c29.5,0,58.8,0,88.7,0c0,6.3,0.1,12-0.1,17.8c0,0.9-2,2.5-3.1,2.6c-3.8,0.3-7.7,0.1-11.5,0.1
		c-39.2,0-78.3-0.1-117.5,0.1c-4.2,0-7-1.1-9.7-4.5c-24.5-30.8-49.2-61.4-73.9-92c-0.8-1-1.8-1.9-3.7-4.1c0,34.3,0,67,0,100.2
		c-7.5,0-14.6,0-21.8,0c0-42.8,0-85.2,0-128.3c8.7,0,17.2-0.2,25.6,0.2c1.7,0.1,3.5,2.2,4.8,3.8c30.8,38.1,61.5,76.3,92.2,114.5
		c2,2.5,4.1,5,7.3,7.1c0-41.7,0-83.4,0-125.3c37.3,0,73.9,0,111.3,0c0,6,0.2,11.9-0.2,17.9c-0.1,0.9-2.5,2.3-3.8,2.3L-423.3-1226.6z
		"/>
	<path d="M-181.1-1118.4c-10,0-18.4,0.3-26.9-0.2c-2.1-0.1-4.4-2.6-5.9-4.6c-24.6-30.5-49.1-61-73.7-91.5
		c-7.4-9.2-14.8-18.4-22.2-27.7c-1-1.2-1.9-2.6-3.5-4.8c9.7,0,18.4-0.2,27.2,0.2c1.5,0.1,3.2,2.1,4.4,3.6
		c10.3,12.7,20.5,25.4,30.8,38.1c1,1.3,2.1,2.5,4,4.7c0.9-1.4,1.5-2.5,2.3-3.5c10.5-13.1,21.2-26.2,31.6-39.4
		c2.1-2.6,4.1-3.8,7.5-3.7c7.6,0.2,15.3,0.1,24.4,0.1c-17.6,22-34.5,43-51.6,64.3C-215.7-1161.5-198.8-1140.5-181.1-1118.4z"/>
	<path d="M-90-1118.8c-7.7,0-14.5,0-21.9,0c0-35.8,0-71.3,0-107.7c-15.3,0-30,0-45,0c0-7.2,0-13.6,0-20.4c36.9,0,73.6,0,110.6,0
		c0,6.6,0,13,0,20.1c-14.4,0-28.8,0-43.7,0C-90-1190.4-90-1154.8-90-1118.8z"/>
	<path d="M-313.7-1118.3c15.3-18.9,29.6-36.8,44.2-55c4.6,5.7,8.8,10.7,12.8,16.1c0.7,0.9,0.5,3.3-0.2,4.2
		c-8.6,11-17.4,21.9-26.2,32.7c-0.8,1-2.4,1.9-3.7,1.9C-295.3-1118.2-303.7-1118.3-313.7-1118.3z"/>
	<circle cx="-42.9" cy="-1122.2" r="4"/>
	<text transform="matrix(1.1279 0 0 1 -33.5195 -1118.4585)" style="font-family:'QanelasSoft-Bold'; font-size:51.1056px;">JS</text>
</g>
<g>
	<path d="M319.9-1041c-57.4,0-114.8,0-172.2,0c-15.3,0-25.5-10.2-25.5-25.5c0-57.9,0-115.9,0-173.8c0-15.3,10.2-25.5,25.5-25.5
		c114.9,0,229.8,0,344.7,0c15.1,0,25.4,10.2,25.4,25.3c0,58,0,116,0,174.1c0,15.1-10.3,25.3-25.4,25.3
		C434.9-1041,377.4-1041,319.9-1041z M220.1-1131.4c0,5.4,0.1,10.4-0.1,15.4c0,0.6-0.8,1.5-1.4,1.8c-7.2,2.6-14.6,3.4-22.3,2
		c-10.3-1.8-17.9-7.2-22.5-16.6c-5.7-11.5-6-23.5-2.3-35.6c1.7-5.6,4.7-10.6,9.4-14.3c9.9-8,21.2-8.6,32.9-5.8
		c4.3,1,8.5,3.2,12.4,5.4c5.9,3.2,9.6,2.6,13.4-3c1.8-2.7,3.5-5.6,5.5-8.2c1.7-2.3,1.1-3.7-0.8-5.3c-9.7-8.2-21.1-12.5-33.5-13.7
		c-10-1-20-0.4-29.8,2.8c-23.5,7.6-36.7,24-40.1,48.1c-1.4,9.8-0.5,19.7,2.8,29.3c8.1,23.2,29,38.1,52,39.2c7.3,0.4,14.6-0.1,21.8-1
		c9.7-1.2,18.8-4.6,26.8-10.5c1-0.8,1.9-2.4,2-3.7c0.1-14.7,0.1-29.5,0.1-44.2c0-2.1-0.9-2.9-2.9-2.9c-12.5,0-25,0-37.5,0
		c-2,0-2.9,0.8-2.9,2.9c0.1,3.7,0,7.5,0,11.2c0,4.4,2.1,6.6,6.5,6.6C213.1-1131.4,216.4-1131.4,220.1-1131.4z M472.7-1208.9
		c-6.3-1.3-12.7-1.3-19-0.2c-2.5,0.4-5,0.9-7.5,1.5c-13.4,3.3-27.4,16.3-26.1,35.7c0.7,10.4,4.5,19,13.5,24.4c5.1,3.1,11,4.9,16.6,7
		c4.8,1.8,9.9,3,14.6,5c4.8,2,7.6,5.7,7.2,11.3c-0.4,5.1-2.6,8.9-7.6,10.5c-5.4,1.7-11,1.9-16.2-0.3c-5.1-2.1-9.8-5.1-14.7-7.5
		c-3.9-1.9-7.6-0.8-9.9,2.8c-1.7,2.6-3.3,5.3-5,7.9c-3.5,5.7-3.4,5.7,2.2,9.6c6.7,4.7,14.1,7.9,22.1,9.8c12.8,3,25.4,2.6,37-4.2
		c13.4-7.8,19.2-20,18.8-35.3c-0.3-10.8-5.3-19.3-14.7-24.5c-5.9-3.2-12.4-5.2-18.7-7.7c-4.7-1.9-9.5-3.5-14-5.7
		c-3.3-1.5-5.1-4.5-4.9-8.2c0.3-4.5,2.4-8.1,6.8-9.7c3.9-1.4,8-2.2,12.1-0.9c5,1.7,9.9,3.8,14.6,6c3.9,1.8,8.4,0.3,10.6-3.4
		c1.7-2.9,3.3-5.9,4.9-8.9c1.9-3.4,1.8-3.6-1.3-5.8C487.4-1204.4,480.3-1207.3,472.7-1208.9z M283.5-1092.1c7.1,2.5,14.8,3,22.3,1.9
		c2.8-0.4,5.6-0.9,8.3-1.8c13.5-4.2,22.2-13.3,26.2-26.9c2.4-8.1,2.7-16.2,1.1-24.5c-1.4-7.2-4.2-13.8-9-19.4
		c-8.2-9.7-19.3-13.3-31.5-14c-6.3-0.4-12.4,0.8-18.3,2.9c-14.1,5.1-22.3,15.3-25.5,29.8c-1.6,7.1-1.5,14.3,0,21.5
		c1.8,8.8,5.7,16.4,12.5,22.4C273.8-1096.4,278.5-1093.8,283.5-1092.1z M377.1-1166.2C377.1-1166.2,377.2-1166.2,377.1-1166.2
		c0,12.1,0.1,24.3,0,36.4c0,2.6-0.3,5.4-1,7.9c-1.1,4-3.2,7.8-7.6,8.5c-4.1,0.7-8.5,0.5-12.7,0.2c-3.8-0.3-7.2,1.5-7.8,5.4
		c-0.6,3.9-0.7,7.8-1.3,11.7c-0.6,4-0.4,4.7,3.5,5.1c5.7,0.6,11.3,1.2,17,1.2c10.9,0,20.5-3.5,27.9-11.7c7-7.7,10-17.1,10.2-27.2
		c0.4-25.7,0.1-51.4,0.2-77.1c0-2.2-0.7-2.9-2.9-2.9c-7.2,0.1-14.4,0-21.7,0c-3.7,0-3.9,0.2-3.9,3.9
		C377.1-1191.9,377.1-1179.1,377.1-1166.2z"/>
	<path d="M313.9-1145.4c1.9,8.9,1.7,18.1-0.9,26.7c-0.1,0.4-0.3,0.9-0.4,1.3c-1.7,5.1-5.8,7.8-11.2,7.9c-2.6,0.1-5.2,0.1-7.7-0.6
		c-6.5-1.7-8.8-7.1-10-12.9c-1.6-7.9-1.4-15.7,0.7-23.5c1.9-6.9,7.2-10.8,15-10.7c7.4,0,12.7,4,14.3,10.8
		C313.8-1146.1,313.9-1145.7,313.9-1145.4z"/>
</g>
<g>
	<g>
		<path d="M-164.8-879.8c-8,29-23,51.4-52.8,60.8c-12.5,3.9-25.4,4.9-38.5,4.1c-14.2-0.9-27.6-4.4-40-11.3
			c-10.5-5.8-19-14-27.5-22.4c-5.7-5.6-11.3-11.4-17.6-16.4c-18.2-14.4-42.6-14.2-60.6,0.5c-5.2,4.2-9.7,9.1-14.8,13.9
			c1.6-4.6,3-9.3,4.8-13.9c5.6-14.4,14-26.8,26.6-36c10.7-7.8,22.7-12.1,35.7-13.8c13.1-1.8,26.1-1.6,39.1,1
			c15.8,3.2,29.5,10.3,41.4,21.1c8.2,7.5,16,15.5,24.1,23.2c9.7,9.2,21.1,14.3,34.6,14.4c13.3,0,24.6-5,34.3-13.9
			C-172.1-872-168.7-875.9-164.8-879.8z"/>
		<path d="M-249.3-778.5c-6,21.7-15.8,40.3-35,52.7c-9.5,6.1-20,9.6-31.2,11.2c-13.9,2-27.8,1.7-41.7-1.2
			c-19-4.1-34.1-14.7-47.6-28.1c-7.7-7.6-15.5-15-23.8-21.8c-8.2-6.6-18.2-8.6-28.6-8.3c-16.4,0.5-28.7,8.8-39.3,20.5
			c-1.2,1.3-2.3,2.7-3.5,4c0,0.1-0.2,0-0.4,0.1c0-0.4-0.1-0.9,0-1.2c4.3-14.7,10.5-28.4,21.1-39.7c11.4-12.3,25.8-19.2,42.1-22
			c17.8-3.1,35.5-2.4,52.8,3.2c13.9,4.5,25.4,12.6,35.8,22.6c6.6,6.4,13.1,12.9,19.7,19.2c9.9,9.4,21.7,14.4,35.5,14
			c12.6-0.4,23.5-5.2,32.8-13.6C-256.7-770.5-253.3-774.5-249.3-778.5z"/>
	</g>
	<g>
		<path d="M-197-663.7c-3.6-0.9-6.8-1.8-10-2.4c-0.9-0.2-2.1,0.2-3,0.7c-2.5,1.2-2.9,4.4-0.5,5.9c2.3,1.5,5,2.5,7.4,3.9
			c2.6,1.5,5.2,3,7.5,4.8c6.7,5.3,3.8,16.7-2,19.9c-7.4,4.1-15,3.8-22.6,0.7c-1.9-0.8-3.6-1.9-5.2-2.8c-0.4,0.5-0.7,1.3-1.3,1.6
			c-14.7,8.1-33.6,1.6-38.2-14.8c-2.7-9.6,1.8-20,10.7-25.6c8.3-5.1,16.9-5.1,25.7-1.5c1,0.4,1.9,1.1,3,1.7c-1.5,3-2.9,5.9-4.4,8.9
			c-3.5-2-7.1-2.9-11-2.6c-6.1,0.5-10.9,4-12.6,9.7c-1.6,5.2,0.1,11.1,4.7,14.3c5.6,4,11.6,3.8,17.6,0.9c0.4-0.2,0.7-0.4,1.2-0.7
			c1.2,2.3,2.3,4.5,3.5,6.9c1.8-3,3.5-5.8,5.1-8.4c2.5,1.4,4.8,2.7,7.2,3.8c2.3,1.1,4.8,1.3,7.3,0.7c1.7-0.4,3-1.4,3.4-3.2
			c0.4-1.9-0.4-3.3-2-4.2c-2.7-1.5-5.6-2.9-8.3-4.3c-3.8-2-7.1-4.6-8.3-9c-2-7,2.9-14.6,10.6-16.4c6.5-1.5,12.5,0.3,18.4,3.7
			C-194.5-668.7-195.9-666-197-663.7z"/>
		<path d="M-415.6-628.9c-3.4,0-6.6,0-9.8,0c0-15.9,0-31.8,0-47.9c3.2,0,6.3,0,9.7,0c0,6.4,0,12.7,0,19.3c3.2,0,6,0.1,8.9,0
			c1.6-0.1,2.3,0.5,2.9,1.9c1.6,3.8,3.3,7.5,5,11.3c0.3,0.6,0.6,1.2,1.1,2.1c2.1-4.7,4.1-9,5.9-13.4c0.6-1.5,1.5-1.7,2.9-1.9
			c3.8-0.6,5.6,1,6.8,4.5c1.2,3.7,3.1,7.1,4.8,11c2.1-4.7,4.2-9.1,6.1-13.5c0.6-1.4,1.3-2,2.9-2c6.1,0.1,12.2,0,18.5,0
			c0,9.6,0,19,0,28.5c-3.1,0-6.3,0-9.7,0c0-8.8,0-17.6,0-26.4c-0.1,0-0.3-0.1-0.4-0.1c-0.4,0.6-0.8,1.2-1.1,1.9
			c-4.1,7.7-8.3,15.5-12.4,23.3c-0.6,1.2-1.4,1.4-2.7,1.6c-3.8,0.6-5.8-0.8-6.9-4.5c-1-3.3-2.8-6.4-4.2-9.6
			c-0.1-0.1-0.2-0.2-0.5-0.4c-1.9,4.3-3.8,8.5-5.6,12.7c-0.5,1.3-1.3,1.6-2.6,1.7c-3.7,0.5-5.6-0.9-7.3-4.3
			c-3.7-7.6-7.9-14.9-12.3-22.3C-415.6-646.6-415.6-637.8-415.6-628.9z"/>
		<path d="M-290-676.9c3.2,0,6,0,8.8,0c0.3,0,0.7,0.1,1.1,0.1c0,16,0,31.8,0,47.8c-3.2,0-6.3,0-9.6,0c-0.1-0.8-0.2-1.7-0.3-2.6
			c-8.2,5-14.9,4.6-19.9-1.2c-4.9-5.8-4.9-14.8-0.1-20.7c4-4.9,12.6-7,19.9-1.6C-290-662.4-290-669.6-290-676.9z M-302.9-643.2
			c0,4,2.7,6.8,6.6,6.8s6.7-2.9,6.7-6.8c0-3.8-2.8-6.6-6.6-6.6C-300.1-649.9-302.9-647.1-302.9-643.2z"/>
		<path d="M-158.4-671.3c-1.4,2.7-2.7,5.4-4,8c-2.5-0.9-4.8-2-7.2-2.5c-1.6-0.4-3.5-0.3-5.1,0.3c-1.1,0.4-2.2,1.8-2.4,2.9
			c-0.2,1,0.7,2.6,1.6,3.2c2,1.4,4.3,2.2,6.4,3.4c2.7,1.5,5.5,3,8,4.9c7,5.3,4.3,17.1-2.3,20.5c-7.2,3.7-14.5,3.4-21.8,0.4
			c-2.2-0.9-4.2-2.3-6.6-3.6c1.9-3.2,3.6-6,5.2-8.8c2.5,1.3,4.8,2.9,7.3,3.8c2.2,0.7,4.6,0.8,6.9,0.8c1.9,0,3.4-1.2,3.8-3.3
			c0.4-2-0.6-3.4-2.2-4.3c-2.6-1.4-5.3-2.7-8-4.1c-4-2-7.3-4.7-8.5-9.3c-1.8-6.9,3-14.2,10.5-16.2
			C-171.4-676.7-163.1-675-158.4-671.3z"/>
		<path d="M-453.7-655.2c0.1-0.8,0.2-1.4,0.2-2.1c3.2,0,6.3,0,9.6,0c0,9.4,0,18.8,0,28.4c-3.1,0-6.2,0-9.5,0
			c-0.1-0.8-0.2-1.7-0.3-2.9c-3.7,3.5-7.8,4.5-12.5,3.6c-3.3-0.7-5.9-2.4-7.9-5c-4.6-5.8-4.2-14.6,0.5-20.3
			C-469.9-657.9-461.8-660.8-453.7-655.2z M-459.9-649.8c-3.9,0-6.8,2.8-6.8,6.6c0,3.9,2.8,6.8,6.6,6.8c3.8,0,6.6-2.8,6.7-6.5
			C-453.2-646.9-456-649.8-459.9-649.8z"/>
		<path d="M-486.9-665.7c0,12.4,0,24.5,0,36.7c-3.6,0-7,0-10.6,0c0-12.1,0-24.3,0-36.6c-3.7,0-7.2,0-10.8,0c0-3.1,0-6.1,0-9.1
			c10.7,0,21.4,0,32.2,0c0,3,0,5.9,0,9C-479.7-665.7-483.2-665.7-486.9-665.7z"/>
		<path d="M-335.6-629c-3.4,0-6.6,0-9.9,0c0-9.5,0-18.9,0-28.4c3.3,0,6.4,0,9.7,0c0.1,0.8,0.1,1.6,0.2,2.7c3.1-2.8,6.3-4.1,10.3-3.6
			c6.9,0.8,10.5,4.8,10.5,11.7c0,5.8,0,11.6,0,17.5c-3.3,0-6.5,0-10,0c0-0.6,0-1.2,0-1.9c0-4.6,0-9.2,0-13.8c0-3.5-2.2-5.9-5.2-5.9
			c-3.1,0-5.7,2.8-5.8,6C-335.7-639.5-335.6-634.3-335.6-629z"/>
		<path d="M-430-628.9c-3.3,0-6.4,0-9.7,0c0-9.5,0-18.9,0-28.5c3.3,0,6.4,0,9.7,0C-430-647.9-430-638.5-430-628.9z"/>
		<path d="M-360.3-669.4c0-3.2,2.7-5.8,5.8-5.9c3.1,0,5.9,2.7,5.9,5.8c0,3.3-2.7,5.9-6,5.9C-357.8-663.5-360.4-666.1-360.3-669.4z"
			/>
		<path d="M-428.9-669.3c0,3.3-2.6,5.8-5.8,5.8c-3.2,0-5.9-2.6-5.9-5.8s2.8-6,6-6C-431.5-675.2-428.9-672.5-428.9-669.3z"/>
	</g>
</g>
<g>
	<path class="st0" d="M36.3,144.6c-1.6,0-3,0-4.7,0c-0.4-4.1-1.2-8.2-1.2-12.3c0-3.1-1.2-5.1-3.4-7c-13.8-12.2-23.1-27-26-45.4
		c-2.7-16.8,1-32.6,9.5-47C16,23.6,22.9,15.1,29.3,6.3c1.5-2.1,3-4,4.7-6.3c11.2,14.6,23.6,28.2,29.7,45.9
		C72.1,71.1,67.4,94,51,114.6c-3.5,4.4-7.9,8.1-11.7,12.3c-0.7,0.8-1.4,1.8-1.5,2.8C37.2,134.5,36.8,139.3,36.3,144.6z M32.9,126.7
		c3.7-2,4.5-4.1,4.3-7c-0.9-17.9-1.7-35.8-2.4-53.7c-0.2-4.7,0-9.4,0-14.1c-0.3,0-0.7,0-1,0c-0.4,7.9-0.9,15.9-1.3,23.8
		c-0.7,14.9-1.4,29.8-1.8,44.7C30.6,122.5,32.1,124.4,32.9,126.7z"/>
	<path class="st0" d="M190.6,123.5c0,1.3,0,2.4,0,3.7c-7.4,0-14.7,0-22.1,0c0-1.2,0-2.3,0-3.5c5.4-1.5,5.3-1.5,5.2-7.7
		c-0.1-16-0.1-32-0.1-48c0-1.1,0-2.2-0.6-3.3c-4.2,10.1-8.4,20.2-12.7,30.3c-4.3,10.4-8.6,20.7-13,31c-0.5,1.2-2,1.9-3,2.9
		c-1-1-2.3-1.9-2.8-3.1c-8.7-20.6-17.2-41.2-25.8-61.8c-0.1-0.3-0.3-0.5-0.9-1.4c0,2.1,0,3.5,0,5c0,16.5,0,32.9,0,49.4
		c0,5.2,0.3,5.5,5.2,6.7c0,1.1,0,2.2,0,3.5c-6.1,0-12.2,0-18.6,0c0-1.1,0-2.3,0-3.7c0.8-0.1,1.6-0.2,2.4-0.2
		c2.9-0.1,4.1-1.7,4.1-4.5c0.1-19.9,0.3-39.9,0.4-59.8c0-3.7-0.6-4.1-6.3-4.4c0-1.2,0-2.5,0-4.2c6.2,0,12.4-0.1,18.5,0.1
		c0.7,0,1.6,1.7,2,2.8c7.6,18.5,15.2,37,22.8,55.5c0.3,0.7,0.7,1.4,1.3,2.6c5.4-13.1,10.5-25.6,15.7-38.2c2.8-6.7,5.6-13.5,8.2-20.3
		c0.8-2.1,1.9-2.7,4.1-2.7c5.3,0.2,10.6,0.1,16,0.1c0,1.6,0,2.9,0,4.2c-0.7,0.1-1.2,0.3-1.8,0.3c-4.3,0.3-4.9,0.9-4.9,5.3
		c0,7.1,0,14.1,0,21.2c0,11.7,0.1,23.4,0.2,35.1C184.2,122.7,184.2,122.7,190.6,123.5z"/>
	<path class="st0" d="M346.4,120.6c8.6,0,16.5-0.4,24.3,0.2c4.5,0.3,9.3,1.4,13,3.8c7.9,5,8.3,15.8,1.7,23c-5.5,6-12.7,8.4-20.5,9
		c-4.2,0.3-8.6,0-12.8-0.6c-7.1-1-12.8-4.5-15-11.7c-2-6.7,1-11.9,6.1-16.3c-0.3-0.2-0.5-0.4-0.8-0.5c-5.3-0.6-6.7-3.8-3.6-8.1
		c2.3-3.2,4.7-6.3,7.1-9.6c-0.3-0.4-0.5-0.8-0.8-1.1c-6.5-5.3-9.2-12.1-7.2-20.3c2-8.3,7.6-13.7,15.6-15.6
		c4.9-1.1,10.2-0.4,15.4-0.3c5.8,0.1,11.5,0.4,17.3,0.5c1.4,0,2.7,0,4.2,0c0,2,0,3.6,0,5.6c-3.8-0.4-7.5-0.7-11.2-1.1
		c7.6,10.3,8.5,18.6,3.1,26.7c-6.1,8.9-17,12.1-30.3,8.7C350.3,115.2,348.6,117.6,346.4,120.6z M375.6,92.8c0.2-4.7-1.3-9-5.1-12.1
		c-6-5-15.4-3.9-20,2.4c-5,6.7-3.4,18.3,3.2,22.7c4.6,3.1,9.5,3.5,14.4,0.9C373.5,103.8,375.7,99,375.6,92.8z M362.3,127.4
		L362.3,127.4c-1.9,0-3.7,0-5.6,0c-5,0-8.8,2.9-10.3,8c-1.5,5,0.3,10.2,4.4,12.8c6.9,4.4,18.6,3.6,24.8-1.7c3.5-3,5-8.8,3.5-13
		c-1.5-4.1-4.7-6-10.3-6.1C366.7,127.4,364.5,127.4,362.3,127.4z"/>
	<path class="st0" d="M537.1,127.2c0-1.2,0-2.4,0-3.5c6.6-1.6,6.7-1.7,6.7-8.8c0-17.6,0-35.2,0-52.9c0-6.1-0.5-6.8-6.4-7.7
		c0-1.2,0-2.4,0-4.1c2.2,0,4.2,0,6.3,0c9.7,0.2,19.5,0.1,29.2,0.7c10.1,0.6,17.2,7.1,18.9,16.4c1.1,5.9-0.9,11-5.3,15
		c-1.6,1.5-3.5,2.6-5.4,4c2.4,1,4.8,1.7,7,2.8c6.3,3.1,9.2,8.6,9.5,15.4c0.4,7.8-2.5,14.4-9.5,18c-4.6,2.4-9.9,4.3-15,4.6
		c-11.4,0.7-22.9,0.2-34.4,0.2C538.1,127.4,537.7,127.3,537.1,127.2z M554,90.6c0,9-0.1,17.8,0.1,26.6c0,2.6,1.7,4.3,4.5,4.3
		c4.9-0.1,9.8,0.1,14.6-0.4c7.9-0.8,13.4-7.4,13.5-15.5c0.1-7.9-4.9-14-13.1-14.8C567.2,90.1,560.8,90.6,554,90.6z M554,84.3
		c5.6,0,10.8,0.3,15.9-0.1c6.3-0.5,10.4-5,10.9-11.1c0.7-8.5-2.4-14.4-9-15.9c-4.1-0.9-8.5-0.6-12.7-0.9c-3.4-0.2-5,1.7-5,4.8
		C553.9,68.8,554,76.4,554,84.3z"/>
	<path class="st0" d="M464.7,127.3c0-1.4,0-2.6,0-3.8c5.8-0.7,6.4-1.4,6.4-7.3c0-18.3,0-36.6,0-55c0-5.5-0.6-6.2-6.3-6.6
		c0-1.3,0-2.6,0-4.4c5.1,0,10.3-0.1,15.4,0c6.5,0.2,13.1-0.2,19.4,1.1c19.3,3.9,30.4,18.7,29.9,38.9c-0.5,20.1-13.1,34.7-33.1,36.9
		C486,128.2,475.3,127.3,464.7,127.3z M481.4,88.9c0,8.8,0,17.6,0,26.4c0,0.1,0,0.2,0,0.3c0.1,2.5,0.5,4.9,3.4,5.7
		c9.3,2.4,21.8-2.3,27.4-10.4c7.4-10.6,7.4-22.4,4.5-34.3c-1.1-4.3-3.6-8.6-6.5-12c-4.8-5.8-11.6-8.2-19.1-8.3
		c-9.6,0-9.8,0.1-9.8,9.6C481.4,73.6,481.4,81.2,481.4,88.9z"/>
	<path class="st0" d="M326.5,123.6c0,1.1,0.1,2.2,0.2,3.6c-6.9,0-13.7,0-20.6,0c0-1.2,0-2.3,0-3.4c5.4-1.5,5.4-1.5,5.4-7.4
		c0-8.3,0-16.7,0-25c0-1,0.1-2.1-0.1-3.1c-0.9-4.5-2.3-8.8-7.3-10c-6-1.4-11.6-0.3-15.8,4.6c-3.2,3.7-4.9,8.1-4.8,13.1
		c0,7.1,0,14.1,0,21.2c0,5.6,0.1,5.7,5.5,6.4c0.1,1.1,0.1,2.2,0.2,3.6c-6.9,0-13.7,0-20.6,0c0-1.1,0-2.2,0-3.4
		c5.4-1.6,5.4-1.6,5.4-7.4c0-9.9,0-19.7,0-29.6c0-5.2-0.2-5.4-5.2-6.2c-0.5-3.5,6.2-7.9,11.9-7.6c0.7,2.5,1.4,5.1,2.3,8.2
		c3.8-4.6,7.8-8.2,13.3-9.2c7.6-1.4,14.8-1.1,20.5,5.1c3.4,3.6,4.2,8.2,4.3,12.9c0.1,8.9,0,17.9,0,26.8
		C321,122.6,321,122.6,326.5,123.6z"/>
	<path class="st0" d="M428.7,71.4c16.4,0.9,28.2,13.8,27.2,29.8c-1,17.2-13.5,28.6-30.4,27.7c-15.7-0.9-27.1-12.3-26.8-29.1
		C399,82.2,411.9,70.5,428.7,71.4z M446.1,101c-0.4-3.3-0.6-5.8-1-8.3c-1.6-8.4-7.8-14.2-15.9-15.1c-8.2-0.9-14.9,3.2-18.3,11.4
		c-2.9,6.9-2.7,14-0.6,21.1c2.5,8.1,8.9,12.9,17,12.9s14.5-4.6,17-12.8C445.3,107,445.6,103.6,446.1,101z"/>
	<path class="st0" d="M200.5,101.4c-0.7-17,10.7-29.4,27.6-30c16-0.5,28.9,11.2,29.4,26.8c0.6,17.5-10.6,30.1-27.3,30.7
		C213.4,129.5,201.1,118.1,200.5,101.4z M247.5,99.5c-0.2-1.8-0.4-4.3-0.9-6.8c-2-9.4-8.6-15.1-17.5-15.3c-8.3-0.2-15.4,5-17.5,13.9
		c-1.1,4.5-1.3,9.4-0.8,14.1c1.5,15,17.1,22.6,28.8,14C245.9,114.7,247.1,107.6,247.5,99.5z"/>
</g>
<g>
	<path d="M802.2-635.2c-2.9-0.5-5.9-0.8-8.8-1.5c-13.9-3.1-22.8-11.6-27.1-25c-2.7-8.5-3.3-17.3-3.1-26.2c0.2-8.1,1.2-16.2,3.9-23.9
		c2.7-7.4,6.8-13.7,13.3-18.3c4.5-3.1,9.5-5,14.9-5.8c10.7-1.6,21.3-1.1,31.7,1.7c1.7,0.5,3.3,1.3,4.9,1.9c1,0.4,1.3,1.1,1,2.1
		c-1.1,4.7-2.2,9.4-3.4,14.1c-0.4,1.5-0.9,1.9-2.3,1.4c-6.8-2.4-13.9-2.8-21-2.5c-5.3,0.2-10.2,1.6-14.2,5.4
		c-3.5,3.3-5.5,7.5-6.5,12.1c-2.3,10.6-2.4,21.3,1,31.7c2.2,6.8,6.6,11.6,14,13c4.9,0.9,9.8,0.6,14.7-0.2c0.4-0.1,0.9-0.7,1-1.1
		c0.1-6,0-12,0-17.9c0-0.1-0.1-0.3-0.2-0.6c-3.6,0-7.2,0-10.8,0c-2.6,0-2.8-0.3-2.8-2.9c0-4.4,0-8.7,0-13.1c0-2,0.3-2.3,2.3-2.3
		c10,0,20,0,30,0c1.9,0,2.1,0.2,2.1,2.1c0,15.6,0,31.3,0,46.9c0,1.1-0.4,1.8-1.4,2.3c-6.3,3.6-13.2,5.6-20.4,6.4
		c-0.3,0-0.6,0.2-1,0.3C810.2-635.2,806.2-635.2,802.2-635.2z"/>
	<path d="M1110.6-635.2c-1.9-0.4-3.7-0.6-5.6-1.1c-4.4-1-8.4-2.9-12.1-5.8c-0.2,1.2-0.4,2.1-0.5,3.1c-0.1,1.4-0.9,2-2.3,2
		c-3.6-0.1-7.2,0-10.7,0c-1.8,0-2.2-0.4-2.2-2.2c0-13.1,0-26.2,0-39.4c0-17.3,0-34.7,0-52c0-2.3,0.2-2.5,2.5-2.5
		c5.2,0,10.4,0,15.6,0c2.4,0,2.5,0.1,2.5,2.5c0,9.5,0,19.1,0,28.6c0,0.5,0,1.1,0,1.9c1.4-0.6,2.6-1.2,3.8-1.7
		c7.8-3.1,15.7-3.8,23.7-0.7c6.2,2.4,9.8,7.3,11.8,13.4c1,3.3,1.5,6.7,2.2,10.1c0.1,0.3,0.2,0.6,0.3,1c0,4.5,0,9,0,13.5
		c-0.1,0.4-0.2,0.8-0.3,1.3c-0.8,4.3-1.2,8.6-2.4,12.8c-2.1,7.1-6.4,12.3-13.9,14.3c-1.7,0.4-3.4,0.7-5.1,1.1
		C1115.3-635.2,1113-635.2,1110.6-635.2z M1097.4-669.9c0,4.5,0.1,8.9,0,13.4c0,1.3,0.5,1.9,1.6,2.4c3.4,1.5,6.8,2.2,10.5,2.1
		c4.7-0.1,7.3-2,8.5-6.5c1.4-5.4,1.5-11,0.9-16.5c-0.3-2.7-1-5.4-2-7.9c-1.1-2.7-3.4-4.3-6.3-4.7c-4.2-0.5-8.3,0.3-12.1,2.2
		c-0.9,0.4-1.2,1-1.2,1.9C1097.4-678.9,1097.4-674.4,1097.4-669.9z"/>
	<path d="M1026.5-635.2c-1.7-0.4-3.3-0.7-5-1.1c-8-2-12.3-7.4-13.5-15.3c-0.4-2.6-0.6-5.4-0.6-8c-0.1-13.4,0-26.7,0-40.1
		c0-2.4,0.3-2.7,2.7-2.7c5.2,0,10.5,0,15.7,0c2,0,2.4,0.4,2.4,2.4c0,13.5,0,26.9,0,40.4c0,5.4,2.5,7.6,7.9,7.7
		c3.5,0,6.7-0.9,9.8-2.5c1-0.5,1.4-1.1,1.4-2.3c0-14.4,0-28.8,0-43.2c0-2.4,0.2-2.6,2.6-2.6c5.1,0,10.3,0,15.4,0
		c2,0,2.3,0.3,2.3,2.3c0,20.3,0,40.7,0,61c0,2-0.3,2.2-2.2,2.2c-3.2,0-6.5,0-9.7,0c-1.4,0-2.2-0.4-2.3-1.9c0-0.8-0.3-1.6-0.5-2.6
		c-1.3,0.7-2.5,1.3-3.7,1.9c-4.1,2.1-8.4,3.5-12.9,4.1c-0.2,0-0.3,0.2-0.5,0.2C1032.8-635.2,1029.7-635.2,1026.5-635.2z"/>
	<path d="M906.9-635.2c-2.3-0.4-4.6-0.6-6.9-1.1c-7.9-1.9-12.8-7.2-14-15.2c-0.4-2.4-0.5-4.9-0.6-7.3c-0.1-8.3-0.1-16.7,0-25
		c0-1.3-0.4-1.7-1.7-1.6c-2.4,0.1-4.9,0-7.3,0c-1.3,0-1.8-0.6-1.8-1.8c0-3.5,0-7.1,0-10.6c0-1.2,0.6-1.8,1.7-2
		c2.6-0.6,5.1-1.3,7.7-1.8c1.1-0.2,1.5-0.7,1.5-1.9c-0.1-5.3,0-10.6,0-15.9c0-1.7,0.2-1.9,1.9-1.9c5.5,0,11,0,16.5,0
		c1.3,0,1.9,0.4,1.9,1.8c-0.1,5,0,10,0,15c0,1.9,0,1.9,1.9,1.9c3.7,0,7.3,0,11,0c1.4,0,2,0.6,1.9,1.9c0,4.5,0,8.9,0,13.4
		c0,1.3-0.5,1.9-1.9,1.8c-3.7-0.1-7.4,0.1-11.2-0.1c-1.6-0.1-1.9,0.5-1.8,1.9c0.1,7.8,0.1,15.7,0,23.5c-0.1,5.9,3.2,7.8,7.9,8.1
		c1.7,0.1,3.5-0.1,5.3-0.3c1.4-0.1,2,0.4,2,1.8c0,3.9,0,7.8,0,11.8c0,1.1-0.4,1.6-1.4,1.8c-2.3,0.4-4.7,0.9-7,1.3
		c-0.4,0.1-0.8,0.2-1.3,0.3C909.6-635.2,908.2-635.2,906.9-635.2z"/>
	<path d="M922.3-812.2c-4,4-5.8,8.8-6.8,14c-0.1,0.4-0.4,0.9-0.8,1.1c-6.7,2.7-13.4,3.7-20.4,1c-4.8-1.9-8.3-5.3-11-9.6
		c-2.9-4.7-6.4-8.7-11.5-11.2c-3.2-1.5-6.5-2-10-1c-2.1,0.6-2.5,1.8-1.1,3.4c1.1,1.2,2.3,2.4,3.7,3.2c3.9,2.2,6.4,5.7,8.6,9.4
		c1.6,2.7,3,5.5,4.3,8.3c3.1,6.9,8.6,10.7,15.7,12.4c5.7,1.3,11.5,1.2,17.3,0.4c1.4-0.2,2.8-0.4,4.4-0.6c0,0.5,0,1,0,1.6
		c0,6.1-0.1,12.2,0.2,18.2c0.2,5.5-3.7,7.5-8.4,6c-11.5-3.8-22-9.5-31.7-16.8c-14.8-11.2-26.1-25.2-34-41.9
		c-4.6-9.8-7.7-20.1-9.3-30.8c-1.3-8.3-1.7-16.6-1.1-24.9c0.9-13.4,4.1-26.3,9.6-38.5c6.3-14,15.1-26.3,26.5-36.7
		c13.4-12.3,28.9-20.9,46.4-25.8c6.7-1.9,13.6-3.2,20.6-3.6c5.7-0.3,11.5-0.6,17.2-0.2c13.3,0.8,26.1,4,38.3,9.4
		c14.2,6.3,26.5,15.2,37,26.6c13.2,14.3,22.1,31,26.7,49.9c2.2,9.2,3.3,18.5,3.1,27.9c-0.3,17.5-4.3,34.2-12.3,49.9
		c-6.3,12.3-14.5,23.1-24.7,32.4c-11.3,10.3-24.3,18-38.8,23c-1.2,0.4-2.5,0.7-3.7,0.6c-3.5-0.4-5.1-2.4-5.1-6.1
		c0.1-9.9,0.2-19.8,0.2-29.7c0-2.3-0.2-4.6-0.5-6.9c-0.7-5.5-2.7-10.4-6.9-14.5c2.1-0.3,4-0.5,5.9-0.9c9.6-1.6,18.8-4.3,26.8-10.2
		c8.1-5.9,13.2-13.9,15.9-23.5c2.6-9.1,3.4-18.4,2.3-27.7c-1-8.6-4.5-16.3-10.2-22.9c-0.7-0.8-0.8-1.4-0.5-2.5
		c3.1-9.5,2.1-18.8-1.4-27.9c-0.2-0.4-1-0.9-1.6-0.9c-5.1-0.4-9.9,1-14.4,3.2c-4.9,2.4-9.6,5.2-14.4,7.8c-0.6,0.3-1.5,0.5-2.1,0.4
		c-9.6-2.6-19.4-3.7-29.3-3.5c-8.3,0.2-16.5,1.2-24.5,3.4c-1.1,0.3-1.9,0.2-2.8-0.4c-6.3-4.1-12.7-7.9-20-9.8
		c-2.7-0.7-5.7-0.8-8.5-1.1c-0.9-0.1-1.4,0.3-1.7,1.2c-3.5,9.2-4.3,18.6-1.1,28.1c0.3,1-0.2,1.5-0.7,2c-4,4.6-6.8,9.8-8.7,15.6
		c-2.1,6.7-2.2,13.6-1.7,20.5c0.4,5.4,1.2,10.7,2.8,15.8c4.5,14.3,14.1,23.8,28.2,28.8c6.1,2.2,12.5,3.5,18.9,4.2
		C921.7-812.4,921.8-812.3,922.3-812.2z"/>
	<path d="M950.1-678.4c0,0.8,0,1.4,0,1.9c0,12.3,0,24.7,0,37c0,2.1-0.3,2.5-2.4,2.5c-5.3,0-10.6,0-15.9,0c-1.9,0-2.2-0.3-2.2-2.2
		c0-30.6,0-61.2,0-91.8c0-1.8,0.3-2.1,2-2.1c5.5,0,11,0,16.5,0c1.8,0,2.1,0.3,2.1,2.2c0,10.6,0,21.2,0,31.7c0,0.6,0,1.2,0,1.9
		c0.6,0,1.1,0.1,1.5,0.1c8.3,0,16.6,0,24.8,0c1.4,0,1.6-0.5,1.6-1.7c0-10.6,0-21.3,0-31.9c0-2.1,0.2-2.3,2.4-2.3
		c5.4,0,10.8,0,16.2,0c1.7,0,2,0.4,2,2.1c0,30.6,0,61.2,0,91.8c0,1.8-0.4,2.2-2.3,2.2c-5.4,0-10.8,0-16.2,0c-1.8,0-2.1-0.4-2.1-2.1
		c0-12.5,0-25.1,0-37.6c0-1.4-0.4-1.7-1.7-1.7c-8.2,0.1-16.4,0-24.5,0C951.3-678.4,950.8-678.4,950.1-678.4z"/>
	<path d="M867.8-669.9c0,10,0,20,0,30c0,2.6-0.4,2.9-3,2.9c-4.8,0-9.7,0-14.5,0c-2.4,0-3.1-0.7-3.1-3.1c0-20,0-40.1,0-60.1
		c0-1.9,0.5-2.4,2.4-2.4c5.3,0,10.6,0,15.9,0c2.1,0,2.3,0.1,2.3,2.2C867.8-690.2,867.8-680.1,867.8-669.9z"/>
	<path d="M857.6-708c-6.4-0.2-11.4-5.3-11.2-11.7c0.1-6.4,5.5-11.5,11.8-11.3c6.1,0.2,11.2,5.6,11,11.7
		C869-712.9,863.8-707.9,857.6-708z"/>
</g>
</svg>
