<?xml version="1.0" encoding="utf-8"?>
<!-- Generator: Adobe Illustrator 23.1.0, SVG Export Plug-In . SVG Version: 6.00 Build 0)  -->
<svg version="1.1" id="Layer_1" xmlns="http://www.w3.org/2000/svg" xmlns:xlink="http://www.w3.org/1999/xlink" x="0px" y="0px"
	 viewBox="0 0 610.5 142.2" style="enable-background:new 0 0 610.5 142.2;" xml:space="preserve">
<style type="text/css">
	.st0{fill:#CECCCC;}
</style>
<g>
	<g>
		<path d="M964.3-1011.6c0,13.5,0,26.3,0,39.4c-4.5,0-8.3,0-12.4,0c0-33.1,0-66,0-99c0.2-0.1,0.4-0.6,0.7-0.6
			c14.3,0,28.7-0.9,42.9,0.2c16.1,1.1,26.6,12.2,27.4,26.7c0.9,17.8-7,28.3-25.2,32.7c8.7,13.2,17.3,26.3,26.5,40.2
			c-5.3,0-9.4,0.4-13.4-0.2c-1.5-0.2-3.1-2.2-4.1-3.8c-7-10.7-13.8-21.6-20.9-32.2c-1.1-1.7-3.7-3.1-5.8-3.3
			C975-1011.9,970-1011.6,964.3-1011.6z M964.4-1023.1c10.5,0,20.1,0.6,29.7-0.2c9.5-0.7,15.7-8.9,15.5-18.8
			c-0.1-9.7-6.4-17.1-16-17.8c-8.6-0.6-17.3-0.4-25.9-0.3c-1.1,0-3.1,1.7-3.2,2.6C964.3-1046.2,964.4-1034.9,964.4-1023.1z"/>
		<path d="M1045.5-1004.4c0.6,10.3,5,17.1,13,21.5c9.9,5.5,21.6,3.5,34.9-5.8c1.7,2.3,3.4,4.6,5.4,7.3c-11.9,11-25.6,13.6-40.5,9.4
			c-14.2-4-22.2-14.2-24.7-28.6c-2.2-12.6,0.3-24.3,9-34c10-11.2,22.8-14.2,36.9-10c13.9,4.1,20.7,14.9,23.2,28.6
			c0.6,3.5,0.6,7.2,1,11.5C1084.1-1004.4,1065.2-1004.4,1045.5-1004.4z M1091.3-1013.3c0.8-13-10.1-23.7-23.3-23.3
			c-12.7,0.4-23.2,11.5-21.9,23.3C1061.2-1013.3,1076.3-1013.3,1091.3-1013.3z"/>
		<path d="M1166.2-1009.4c-0.3-6.2,0-11.2-0.8-16c-0.9-5.6-7-9.8-13.8-10.4c-8.5-0.9-16.2,1.2-22.6,7c-0.9,0.8-1.8,1.5-2.6,2.1
			c-0.3-0.1-0.5-0.2-0.6-0.3c-6-6.6-6-7.9,1.4-12.7c11.4-7.5,23.7-8.5,36.3-4.1c9.1,3.2,14,10.4,14.2,19.8
			c0.4,16.1,0.1,32.3,0.2,48.5c0,2.4-0.6,3.8-3.4,3.6c-2.5-0.1-5,0-7.8,0c-0.4-2.3-0.7-4.3-1.1-7.1c-6.2,5.4-13,8.1-20.7,8.8
			c-10.7,0.9-21.4-4.8-25.7-13.8c-4.1-8.6-2.1-20.5,4.4-26.9c8.8-8.7,25.8-9.7,37.2-2.3C1162.1-1012.3,1163.5-1011.3,1166.2-1009.4z
			 M1166-994.9c1.5-6.1-2.3-9.9-7.9-12.3c-5.6-2.4-11.4-3.3-17.5-1.6c-7.1,2-11.7,7.8-11.7,14.9c0.1,6.8,4.5,13.2,11.6,14.2
			c5.4,0.8,11.3,0.4,16.5-1.2C1164.8-983.2,1166-985.9,1166-994.9z"/>
		<path d="M1257.9-1033.2c-2.5,2.3-4.8,4.4-7.3,6.8c-6.8-8.2-15.1-11-25.1-8.4c-5.6,1.4-9.9,4.5-13.1,9.3c-7,10.4-6.3,26.8,1.3,36.6
			c6.7,8.7,24.7,13.3,36.8-0.8c2.4,2.2,4.8,4.3,7.2,6.4c-6.5,10.9-21,15.7-35.4,12.1c-15.3-3.9-26-17.2-26.8-33.4
			c-0.9-19,7.7-33.8,22.9-39.3C1233.3-1049.4,1249.1-1045.2,1257.9-1033.2z"/>
		<path d="M1275.5-1033.5c-13-1.2-13-1.2-11.2-10.7c3.5,0,7,0,11.2,0c0-6.8,0-13,0-19.5c4,0,7.4,0,11.5,0c0,5.1,0.2,10.1-0.1,15
			c-0.2,3.6,1.2,4.8,4.6,4.5c3.1-0.2,6.3,0,9.8,0c0,3.4,0,6.5,0,10.3c-4.6,0-9.2,0-14.3,0c0,6.3,0,11.9,0,17.5
			c0,8.2-0.1,16.3,0,24.5c0.1,11,4.4,13.8,14.4,9.4c5.3,7,4.1,10.1-4.5,12c-13.4,2.9-21.5-3.5-21.5-17.2c0-13.3,0-26.6,0-40
			C1275.5-1029.7,1275.5-1031.5,1275.5-1033.5z"/>
	</g>
	<g>
		<path d="M721-1058.8c-0.8-11.3-1.8-22.1-2.3-32.9c-0.2-3.3,0.5-6.7,1.3-10c4.1-16.8,15.1-23,31.7-18.1c12.8,3.8,23.2,11.5,33,20.1
			c0.9,0.8,1.8,1.6,3,2.6c1.5-1.2,2.8-2.4,4.2-3.6c8.6-7.7,17.9-14.4,28.8-18.4c18.8-6.9,31.5,0.5,35,20.3
			c2.1,11.8,0.9,23.5-1.4,35.1c-0.3,1.5-0.5,3-0.7,4.2c7.9,3.4,15.7,6.1,22.9,10c6.1,3.4,12,7.5,16.8,12.5c9.8,10,9.5,21.5-0.1,31.8
			c-9.2,10-21.1,15.4-33.6,19.9c-1.8,0.7-3.7,1.3-5.4,1.9c1,7.6,2.2,14.8,2.7,22.1c0.7,9.2,0,18.4-3.9,27c-5,11.1-13.8,15.6-25.8,13
			c-13.6-2.9-24.5-10.8-34.7-19.6c-1.5-1.3-2.9-2.6-4-3.6c-7.5,5.4-14.5,10.9-21.9,15.6c-7.3,4.6-15.2,7.9-24.1,8
			c-10,0.2-16.8-4.4-20.6-13.7c-5.1-12.6-4-25.5-2-38.4c0.5-3.2,1.2-6.3,1.6-8.5c-10.2-5.1-20.3-9.5-29.6-15.1
			c-5-3-9.3-7.6-12.8-12.2c-6.3-8.3-5.9-17.1,0.3-25.4c6.9-9.3,16.7-14.6,27-19.1C711.5-1055.5,716.6-1057.1,721-1058.8z
			 M787.6-985.3C787.6-985.4,787.6-985.4,787.6-985.3c5.7-0.1,11.3,0.1,17-0.2c1.8-0.1,4.3-1.2,5.2-2.7
			c6.1-10.1,11.9-20.3,17.5-30.6c0.7-1.3,0.6-3.7-0.1-5c-5.7-10.1-11.5-20.2-17.5-30.1c-0.8-1.4-3.1-2.6-4.8-2.6
			c-11.3-0.2-22.6-0.3-33.9,0c-1.9,0-4.4,1.6-5.4,3.2c-5.8,9.5-11.5,19.1-16.7,28.9c-1,1.9-0.9,5.2,0.1,7.1
			c4.7,8.9,10.1,17.4,14.9,26.3c2.4,4.5,5.5,6.3,10.6,5.8C778.7-985.6,783.1-985.3,787.6-985.3z M724.5-1049
			c-12.7,3.7-24.9,8.3-34.4,17.9c-6.7,6.8-6.9,12.5-0.3,19.6c9.5,10.1,21.9,15,34.7,18.9c3.6-9,7.1-17.7,10.4-26.3
			c0.4-1.1,0.7-2.5,0.3-3.5C731.7-1031.2,728.1-1039.9,724.5-1049z M731.8-979.8c-3.1,12.8-5,25.5-1.6,38.4c2.3,8.8,7.4,12,16.5,10
			c13.7-3.1,24.3-11.5,34.1-20.6c-6-7.6-11.7-14.8-17.4-21.9c-0.8-1-2.1-1.9-3.2-2.1C750.9-977.3,741.7-978.5,731.8-979.8z
			 M795.5-952c9.3,8.6,19.1,16.7,31.8,20.3c9.6,2.7,14.7,0.1,17.7-9.2c4.2-13.3,2.2-26.4-0.9-39.4c-9.8,1.4-19.2,2.7-28.5,4.2
			c-1.1,0.2-2.3,0.9-2.9,1.7C807-967.1,801.4-959.7,795.5-952z M843.7-1061.7c2.9-13,4.6-25.8,1.4-38.7c-2.4-9.7-8.2-12.8-17.9-10
			c-12.7,3.7-22.5,11.8-32,20.5c6,7.7,11.7,15.2,17.6,22.5c0.6,0.7,1.7,1.3,2.7,1.4C824.7-1064.5,833.9-1063.2,843.7-1061.7z
			 M780.4-1089.8c-1.4-1.3-2.5-2.5-3.8-3.6c-8.8-7.5-18-14.2-29.4-17.1c-9.3-2.4-14.8,0.8-17.1,10.1c-0.9,3.5-1.3,7.2-1.4,10.9
			c-0.3,9.4,0.7,18.8,3.5,27.6c9.3-1.4,18-2.6,26.8-4c1.5-0.2,3.3-1.1,4.2-2.2C768.9-1075.1,774.5-1082.3,780.4-1089.8z
			 M851.1-1048.9c-3.7,9.1-7.2,17.5-10.6,26c-0.3,0.8-0.5,1.9-0.2,2.6c3.6,9,7.4,18,11.2,27.2c2.6-0.9,5.1-1.6,7.5-2.5
			c9.2-3.5,18-7.7,25.3-14.5c8.1-7.6,8.2-13.9,0.4-21.5C875.3-1040.7,863.5-1045.1,851.1-1048.9z M788.1-959.3
			c4.3-5.3,8.2-10.2,12.6-15.5c-9,0-16.8,0-25.6,0C779.7-969.3,783.7-964.5,788.1-959.3z M841.5-990.3c-2.5-6.5-4.7-12.5-7.3-19.2
			c-4.4,7.8-8.4,14.8-12.9,22.8C828.5-988,834.6-989.1,841.5-990.3z M734.4-989.9c6.6,1.1,12.6,2.1,19.8,3.2
			c-4.6-8-8.5-14.8-12.9-22.5C738.9-1002.2,736.8-996.4,734.4-989.9z M841.1-1051.7c-7-1.2-13.1-2.3-19.9-3.5
			c4.4,7.6,8.5,14.6,12.9,22.3C836.5-1039.5,838.7-1045.2,841.1-1051.7z M800.7-1067.2c-4.7-5.6-8.6-10.2-12.9-15.3
			c-4.5,5.4-8.3,10.1-12.7,15.3C783.9-1067.2,791.6-1067.2,800.7-1067.2z M754.2-1055.2c-6.8,1.2-12.8,2.2-19.7,3.4
			c2.3,6.4,4.4,12.2,6.8,18.8C745.9-1040.7,749.8-1047.5,754.2-1055.2z"/>
		<path d="M788.1-1041.5c11.2,0.2,20.1,9.4,19.9,20.8c-0.2,10.9-9.5,20-20.4,19.9c-11.1-0.1-20.4-9.6-20.2-20.7
			C767.5-1032.8,776.8-1041.7,788.1-1041.5z"/>
	</g>
</g>
<g>
	<path class="st0" d="M159.3,26.6c-1.8,0-3.6,0-5.8,0c0,11.1,0,21.7,0,33c23.7,0,47.2,0,71.1,0c0,7.1,0,13.5,0,20.5
		c-23.7,0-47.1,0-71,0c0,11.6,0,22.6,0,34.1c29.5,0,58.8,0,88.7,0c0,6.3,0.1,12-0.1,17.8c0,0.9-2,2.5-3.1,2.6
		c-3.8,0.3-7.7,0.1-11.5,0.1c-39.2,0-78.3-0.1-117.5,0.1c-4.2,0-7-1.1-9.7-4.5c-24.5-30.8-49.2-61.4-73.9-92c-0.8-1-1.8-1.9-3.7-4.1
		c0,34.3,0,67,0,100.2c-7.5,0-14.6,0-21.8,0C1,91.5,1,49.1,1,6.1c8.7,0,17.2-0.2,25.6,0.2c1.7,0.1,3.5,2.2,4.8,3.8
		c30.8,38.1,61.5,76.3,92.2,114.5c2,2.5,4.1,5,7.3,7.1c0-41.7,0-83.4,0-125.3c37.3,0,73.9,0,111.3,0c0,6,0.2,11.9-0.2,17.9
		c-0.1,0.9-2.5,2.3-3.8,2.3L159.3,26.6z"/>
	<path class="st0" d="M401.5,134.8c-10,0-18.4,0.3-26.9-0.2c-2.1-0.1-4.4-2.6-5.9-4.6c-24.6-30.5-49.1-61-73.7-91.5
		c-7.4-9.2-14.8-18.4-22.2-27.7c-1-1.2-1.9-2.6-3.5-4.8c9.7,0,18.4-0.2,27.2,0.2c1.5,0.1,3.2,2.1,4.4,3.6
		c10.3,12.7,20.5,25.4,30.8,38.1c1,1.3,2.1,2.5,4,4.7c0.9-1.4,1.5-2.5,2.3-3.5C348.4,36,359.1,23,369.5,9.8c2.1-2.6,4.1-3.8,7.5-3.7
		c7.6,0.2,15.3,0.1,24.4,0.1c-17.6,22-34.5,43-51.6,64.3C366.8,91.7,383.7,112.7,401.5,134.8z"/>
	<path class="st0" d="M492.6,134.4c-7.7,0-14.5,0-21.9,0c0-35.8,0-71.3,0-107.7c-15.3,0-30,0-45,0c0-7.2,0-13.6,0-20.4
		c36.9,0,73.6,0,110.6,0c0,6.6,0,13,0,20.1c-14.4,0-28.8,0-43.7,0C492.6,62.8,492.6,98.4,492.6,134.4z"/>
	<path class="st0" d="M268.8,134.9c15.3-18.9,29.6-36.8,44.2-55c4.6,5.7,8.8,10.7,12.8,16.1c0.7,0.9,0.5,3.3-0.2,4.2
		c-8.6,11-17.4,21.9-26.2,32.7c-0.8,1-2.4,1.9-3.7,1.9C287.3,135,278.8,134.9,268.8,134.9z"/>
	<circle class="st0" cx="539.7" cy="131" r="4"/>
	<path class="st0" d="M549.8,124.5c-0.1-0.8,0.4-1.3,1.3-1.3h5.2c0.8,0,1.3,0.4,1.4,1.2c0.4,3,2.4,4.1,5.5,4.1
		c3.5,0,5.6-1.5,5.6-4.4v-24c0-0.8,0.5-1.2,1.4-1.2h5.2c0.9,0,1.4,0.4,1.4,1.2v24c0,7.7-6.6,11.3-13.5,11.3
		C556.6,135.4,550.4,132.2,549.8,124.5z"/>
	<path class="st0" d="M581.5,125c-0.1-0.8,0.5-1.3,1.4-1.3h5.2c0.8,0,1.3,0.4,1.4,1.2c0.5,2.4,2.8,3.7,6.7,3.7c4,0,6-1.5,6-3.6
		c0-2.5-3.2-3.7-7.1-4.9c-5.8-1.8-12.9-3.8-12.9-11.4c0-6.8,6.4-10.4,13.1-10.4c6.7,0,12.9,3.2,13.6,10.3c0.1,0.8-0.5,1.3-1.4,1.3
		h-5.2c-0.8,0-1.3-0.4-1.4-1.2c-0.5-2.4-2.5-3.5-5.6-3.5c-3.3,0-5.2,1.5-5.2,3.5c0,2.6,2.8,3.8,6.5,5c5.9,1.9,13.5,3.7,13.5,11.3
		c0,6.9-6.4,10.5-13.9,10.5C588.7,135.4,582.2,132.1,581.5,125z"/>
</g>
<g>
	<path d="M413.4-882.8c-57.4,0-114.8,0-172.2,0c-15.3,0-25.5-10.2-25.5-25.5c0-57.9,0-115.9,0-173.8c0-15.3,10.2-25.5,25.5-25.5
		c114.9,0,229.8,0,344.7,0c15.1,0,25.4,10.2,25.4,25.3c0,58,0,116,0,174.1c0,15.1-10.3,25.3-25.4,25.3
		C528.4-882.8,470.9-882.8,413.4-882.8z M313.7-973.2c0,5.4,0.1,10.4-0.1,15.4c0,0.6-0.8,1.5-1.4,1.8c-7.2,2.6-14.6,3.4-22.3,2
		c-10.3-1.8-17.9-7.2-22.5-16.6c-5.7-11.5-6-23.5-2.3-35.6c1.7-5.6,4.7-10.6,9.4-14.3c9.9-8,21.2-8.6,32.9-5.8
		c4.3,1,8.5,3.2,12.4,5.4c5.9,3.2,9.6,2.6,13.4-3c1.8-2.7,3.5-5.6,5.5-8.2c1.7-2.3,1.1-3.7-0.8-5.3c-9.7-8.2-21.1-12.5-33.5-13.7
		c-10-1-20-0.4-29.8,2.8c-23.5,7.6-36.7,24-40.1,48.1c-1.4,9.8-0.5,19.7,2.8,29.3c8.1,23.2,29,38.1,52,39.2c7.3,0.4,14.6-0.1,21.8-1
		c9.7-1.2,18.8-4.6,26.8-10.5c1-0.8,1.9-2.4,2-3.7c0.1-14.7,0.1-29.5,0.1-44.2c0-2.1-0.9-2.9-2.9-2.9c-12.5,0-25,0-37.5,0
		c-2,0-2.9,0.8-2.9,2.9c0.1,3.7,0,7.5,0,11.2c0,4.4,2.1,6.6,6.5,6.6C306.7-973.2,310-973.2,313.7-973.2z M566.2-1050.7
		c-6.3-1.3-12.7-1.3-19-0.2c-2.5,0.4-5,0.9-7.5,1.5c-13.4,3.3-27.4,16.3-26.1,35.7c0.7,10.4,4.5,19,13.5,24.4c5.1,3.1,11,4.9,16.6,7
		c4.8,1.8,9.9,3,14.6,5c4.8,2,7.6,5.7,7.2,11.3c-0.4,5.1-2.6,8.9-7.6,10.5c-5.4,1.7-11,1.9-16.2-0.3c-5.1-2.1-9.8-5.1-14.7-7.5
		c-3.9-1.9-7.6-0.8-9.9,2.8c-1.7,2.6-3.3,5.3-5,7.9c-3.5,5.7-3.4,5.7,2.2,9.6c6.7,4.7,14.1,7.9,22.1,9.8c12.8,3,25.4,2.6,37-4.2
		c13.4-7.8,19.2-20,18.8-35.3c-0.3-10.8-5.3-19.3-14.7-24.5c-5.9-3.2-12.4-5.2-18.7-7.7c-4.7-1.9-9.5-3.5-14-5.7
		c-3.3-1.5-5.1-4.5-4.9-8.2c0.3-4.5,2.4-8.1,6.8-9.7c3.9-1.4,8-2.2,12.1-0.9c5,1.7,9.8,3.8,14.6,6c3.9,1.8,8.4,0.3,10.6-3.4
		c1.7-2.9,3.3-5.9,4.9-8.9c1.9-3.4,1.8-3.6-1.3-5.8C581-1046.2,573.8-1049.1,566.2-1050.7z M377-933.9c7.1,2.5,14.8,3,22.3,1.9
		c2.8-0.4,5.6-0.9,8.3-1.8c13.5-4.2,22.2-13.3,26.2-26.9c2.4-8.1,2.7-16.2,1.1-24.5c-1.4-7.2-4.2-13.8-9-19.4
		c-8.2-9.7-19.3-13.3-31.5-14c-6.3-0.4-12.4,0.8-18.3,2.9c-14.1,5.1-22.3,15.3-25.5,29.8c-1.6,7.1-1.5,14.3,0,21.5
		c1.8,8.8,5.7,16.4,12.5,22.4C367.3-938.3,372-935.6,377-933.9z M470.7-1008L470.7-1008c0,12.1,0.1,24.3,0,36.4c0,2.6-0.3,5.4-1,7.9
		c-1.1,4-3.2,7.8-7.6,8.5c-4.1,0.7-8.5,0.5-12.7,0.2c-3.8-0.3-7.2,1.5-7.8,5.4c-0.6,3.9-0.7,7.8-1.3,11.7c-0.6,4-0.4,4.7,3.5,5.1
		c5.7,0.6,11.3,1.2,17,1.2c10.9,0,20.5-3.5,27.9-11.7c7-7.7,10-17.1,10.2-27.2c0.4-25.7,0.1-51.4,0.2-77.1c0-2.2-0.7-2.9-2.9-2.9
		c-7.2,0.1-14.4,0-21.7,0c-3.7,0-3.9,0.2-3.9,3.9C470.7-1033.7,470.7-1020.9,470.7-1008z"/>
	<path d="M407.5-987.2c1.9,8.9,1.7,18.1-0.9,26.7c-0.1,0.4-0.3,0.9-0.4,1.3c-1.7,5.1-5.8,7.8-11.2,7.9c-2.6,0.1-5.2,0.1-7.7-0.6
		c-6.5-1.7-8.8-7.1-10-12.9c-1.6-7.9-1.4-15.7,0.7-23.5c1.9-6.9,7.2-10.8,15-10.7c7.4,0,12.7,4,14.3,10.8
		C407.3-987.9,407.4-987.5,407.5-987.2z"/>
</g>
<g>
	<g>
		<path d="M-103.3-822.6c-8,29-23,51.4-52.8,60.8c-12.5,3.9-25.4,4.9-38.5,4.1c-14.2-0.9-27.6-4.4-40-11.3
			c-10.5-5.8-19-14-27.5-22.4c-5.7-5.6-11.3-11.4-17.6-16.4c-18.2-14.4-42.6-14.2-60.6,0.5c-5.2,4.2-9.7,9.1-14.8,13.9
			c1.6-4.6,3-9.3,4.8-13.9c5.6-14.4,14-26.8,26.6-36c10.7-7.8,22.7-12.1,35.7-13.8c13.1-1.8,26.1-1.6,39.1,1
			c15.8,3.2,29.5,10.3,41.4,21.1c8.2,7.5,16,15.5,24.1,23.2c9.7,9.2,21.1,14.3,34.6,14.4c13.3,0,24.6-5,34.3-13.9
			C-110.6-814.8-107.2-818.7-103.3-822.6z"/>
		<path d="M-187.7-721.3c-6,21.7-15.8,40.3-35,52.7c-9.5,6.1-20,9.6-31.2,11.2c-13.9,2-27.8,1.7-41.7-1.2
			c-19-4.1-34.1-14.7-47.6-28.1c-7.7-7.6-15.5-15-23.8-21.8c-8.2-6.6-18.2-8.6-28.6-8.3c-16.4,0.5-28.7,8.8-39.3,20.5
			c-1.2,1.3-2.3,2.7-3.5,4c0,0.1-0.2,0-0.4,0.1c0-0.4-0.1-0.9,0-1.2c4.3-14.7,10.5-28.4,21.1-39.7c11.4-12.3,25.8-19.2,42.1-22
			c17.8-3.1,35.5-2.4,52.8,3.2c13.9,4.5,25.4,12.6,35.8,22.6c6.6,6.4,13.1,12.9,19.7,19.2c9.9,9.4,21.7,14.4,35.5,14
			c12.6-0.4,23.5-5.2,32.8-13.6C-195.2-713.3-191.7-717.3-187.7-721.3z"/>
	</g>
	<g>
		<path d="M-135.5-606.5c-3.6-0.9-6.8-1.8-10-2.4c-0.9-0.2-2.1,0.2-3,0.7c-2.5,1.2-2.9,4.4-0.5,5.9c2.3,1.5,5,2.5,7.4,3.9
			c2.6,1.5,5.2,3,7.5,4.8c6.7,5.3,3.8,16.7-2,19.9c-7.4,4.1-15,3.8-22.6,0.7c-1.9-0.8-3.6-1.9-5.2-2.8c-0.4,0.5-0.7,1.3-1.3,1.6
			c-14.7,8.1-33.6,1.6-38.2-14.8c-2.7-9.6,1.8-20,10.7-25.6c8.3-5.1,16.9-5.1,25.7-1.5c1,0.4,1.9,1.1,3,1.7c-1.5,3-2.9,5.9-4.4,8.9
			c-3.5-2-7.1-2.9-11-2.6c-6.1,0.5-10.9,4-12.6,9.7c-1.6,5.2,0.1,11.1,4.7,14.3c5.6,4,11.6,3.8,17.6,0.9c0.4-0.2,0.7-0.4,1.2-0.7
			c1.2,2.3,2.3,4.5,3.5,6.9c1.8-3,3.5-5.8,5.1-8.4c2.5,1.4,4.8,2.7,7.2,3.8c2.3,1.1,4.8,1.3,7.3,0.7c1.7-0.4,3-1.4,3.4-3.2
			c0.4-1.9-0.4-3.3-2-4.2c-2.7-1.5-5.6-2.9-8.3-4.3c-3.8-2-7.1-4.6-8.3-9c-2-7,2.9-14.6,10.6-16.4c6.5-1.5,12.5,0.3,18.4,3.7
			C-133-611.5-134.3-608.8-135.5-606.5z"/>
		<path d="M-354.1-571.8c-3.4,0-6.6,0-9.8,0c0-15.9,0-31.8,0-47.9c3.2,0,6.3,0,9.7,0c0,6.4,0,12.7,0,19.3c3.2,0,6,0.1,8.9,0
			c1.6-0.1,2.3,0.5,2.9,1.9c1.6,3.8,3.3,7.5,5,11.3c0.3,0.6,0.6,1.2,1.1,2.1c2.1-4.7,4.1-9,5.9-13.4c0.6-1.5,1.5-1.7,2.9-1.9
			c3.8-0.6,5.6,1,6.8,4.5c1.2,3.7,3.1,7.1,4.8,11c2.1-4.7,4.2-9.1,6.1-13.5c0.6-1.4,1.3-2,2.9-2c6.1,0.1,12.2,0,18.5,0
			c0,9.6,0,19,0,28.5c-3.1,0-6.3,0-9.7,0c0-8.8,0-17.6,0-26.4c-0.1,0-0.3-0.1-0.4-0.1c-0.4,0.6-0.8,1.2-1.1,1.9
			c-4.1,7.7-8.3,15.5-12.4,23.3c-0.6,1.2-1.4,1.4-2.7,1.6c-3.8,0.6-5.8-0.8-6.9-4.5c-1-3.3-2.8-6.4-4.2-9.6
			c-0.1-0.1-0.2-0.2-0.5-0.4c-1.9,4.3-3.8,8.5-5.6,12.7c-0.5,1.3-1.3,1.6-2.6,1.7c-3.7,0.5-5.6-0.9-7.3-4.3
			c-3.7-7.6-7.9-14.9-12.3-22.3C-354.1-589.4-354.1-580.6-354.1-571.8z"/>
		<path d="M-228.4-619.7c3.2,0,6,0,8.8,0c0.3,0,0.7,0.1,1.1,0.1c0,16,0,31.8,0,47.8c-3.2,0-6.3,0-9.6,0c-0.1-0.8-0.2-1.7-0.3-2.6
			c-8.2,5-14.9,4.6-19.9-1.2c-4.9-5.8-4.9-14.8-0.1-20.7c4-4.9,12.6-7,19.9-1.6C-228.4-605.3-228.4-612.4-228.4-619.7z M-241.4-586
			c0,4,2.7,6.8,6.6,6.8c3.9,0,6.7-2.9,6.7-6.8c0-3.8-2.8-6.6-6.6-6.6C-238.6-592.7-241.4-589.9-241.4-586z"/>
		<path d="M-96.9-614.1c-1.4,2.7-2.7,5.4-4,8c-2.5-0.9-4.8-2-7.2-2.5c-1.6-0.4-3.5-0.3-5.1,0.3c-1.1,0.4-2.2,1.8-2.4,2.9
			c-0.2,1,0.7,2.6,1.6,3.2c2,1.4,4.3,2.2,6.4,3.4c2.7,1.5,5.5,3,8,4.9c7,5.3,4.3,17.1-2.3,20.5c-7.2,3.7-14.5,3.4-21.8,0.4
			c-2.2-0.9-4.2-2.3-6.6-3.6c1.9-3.2,3.6-6,5.2-8.8c2.5,1.3,4.8,2.9,7.3,3.8c2.2,0.7,4.6,0.8,6.9,0.8c1.9,0,3.4-1.2,3.8-3.3
			c0.4-2-0.6-3.4-2.2-4.3c-2.6-1.4-5.3-2.7-8-4.1c-4-2-7.3-4.7-8.5-9.3c-1.8-6.9,3-14.2,10.5-16.2
			C-109.9-619.5-101.6-617.8-96.9-614.1z"/>
		<path d="M-392.2-598c0.1-0.8,0.2-1.4,0.2-2.1c3.2,0,6.3,0,9.6,0c0,9.4,0,18.8,0,28.4c-3.1,0-6.2,0-9.5,0c-0.1-0.8-0.2-1.7-0.3-2.9
			c-3.7,3.5-7.8,4.5-12.5,3.6c-3.3-0.7-5.9-2.4-7.9-5c-4.6-5.8-4.2-14.6,0.5-20.3C-408.3-600.7-400.3-603.6-392.2-598z
			 M-398.3-592.6c-3.9,0-6.8,2.8-6.8,6.6c0,3.9,2.8,6.8,6.6,6.8c3.8,0,6.6-2.8,6.7-6.5C-391.7-589.7-394.5-592.6-398.3-592.6z"/>
		<path d="M-425.4-608.6c0,12.4,0,24.5,0,36.7c-3.6,0-7,0-10.6,0c0-12.1,0-24.3,0-36.6c-3.7,0-7.2,0-10.8,0c0-3.1,0-6.1,0-9.1
			c10.7,0,21.4,0,32.2,0c0,3,0,5.9,0,9C-418.2-608.6-421.7-608.6-425.4-608.6z"/>
		<path d="M-274.1-571.8c-3.4,0-6.6,0-9.9,0c0-9.5,0-18.9,0-28.4c3.3,0,6.4,0,9.7,0c0.1,0.8,0.1,1.6,0.2,2.7
			c3.1-2.8,6.3-4.1,10.3-3.6c6.9,0.8,10.5,4.8,10.5,11.7c0,5.8,0,11.6,0,17.5c-3.3,0-6.5,0-10,0c0-0.6,0-1.2,0-1.9
			c0-4.6,0-9.2,0-13.8c0-3.5-2.2-5.9-5.2-5.9c-3.1,0-5.7,2.8-5.8,6C-274.1-582.3-274.1-577.1-274.1-571.8z"/>
		<path d="M-368.5-571.7c-3.3,0-6.4,0-9.7,0c0-9.5,0-18.9,0-28.5c3.3,0,6.4,0,9.7,0C-368.5-590.7-368.5-581.3-368.5-571.7z"/>
		<path d="M-298.8-612.2c0-3.2,2.7-5.8,5.8-5.9c3.1,0,5.9,2.7,5.9,5.8c0,3.3-2.7,5.9-6,5.9C-296.3-606.3-298.8-609-298.8-612.2z"/>
		<path d="M-367.3-612.1c0,3.3-2.6,5.8-5.8,5.8c-3.2,0-5.9-2.6-5.9-5.8s2.8-6,6-6C-370-618-367.3-615.3-367.3-612.1z"/>
	</g>
</g>
<g>
	<path d="M99.8-616.2c-1.6,0-3,0-4.7,0c-0.4-4.1-1.2-8.2-1.2-12.3c0-3.1-1.2-5.1-3.4-7c-13.8-12.2-23.1-27-26-45.4
		c-2.7-16.8,1-32.6,9.5-47c5.5-9.3,12.4-17.8,18.8-26.6c1.5-2.1,3-4,4.7-6.3c11.2,14.6,23.6,28.2,29.7,45.9
		c8.6,25.2,3.9,48.1-12.5,68.7c-3.5,4.4-7.9,8.1-11.7,12.3c-0.7,0.8-1.4,1.8-1.5,2.8C100.7-626.3,100.3-621.5,99.8-616.2z
		 M96.4-634.1c3.7-2,4.5-4.1,4.3-7c-0.9-17.9-1.7-35.8-2.4-53.7c-0.2-4.7,0-9.4,0-14.1c-0.3,0-0.7,0-1,0c-0.4,7.9-0.9,15.9-1.3,23.8
		c-0.7,14.9-1.4,29.8-1.8,44.7C94.1-638.4,95.6-636.4,96.4-634.1z"/>
	<path d="M254.2-637.3c0,1.3,0,2.4,0,3.7c-7.4,0-14.7,0-22.1,0c0-1.2,0-2.3,0-3.5c5.4-1.5,5.3-1.5,5.2-7.7c-0.1-16-0.1-32-0.1-48
		c0-1.1,0-2.2-0.6-3.3c-4.2,10.1-8.4,20.2-12.7,30.3c-4.3,10.4-8.6,20.7-13,31c-0.5,1.2-2,1.9-3,2.9c-1-1-2.3-1.9-2.8-3.1
		c-8.7-20.6-17.2-41.2-25.8-61.8c-0.1-0.3-0.3-0.5-0.9-1.4c0,2.1,0,3.5,0,5c0,16.5,0,32.9,0,49.4c0,5.2,0.3,5.5,5.2,6.7
		c0,1.1,0,2.2,0,3.5c-6.1,0-12.2,0-18.6,0c0-1.1,0-2.3,0-3.7c0.8-0.1,1.6-0.2,2.4-0.2c2.9-0.1,4.1-1.7,4.1-4.5
		c0.1-19.9,0.3-39.9,0.4-59.8c0-3.7-0.6-4.1-6.3-4.4c0-1.2,0-2.5,0-4.2c6.2,0,12.4-0.1,18.5,0.1c0.7,0,1.6,1.7,2,2.8
		c7.6,18.5,15.2,37,22.8,55.5c0.3,0.7,0.7,1.4,1.3,2.6c5.4-13.1,10.5-25.6,15.7-38.2c2.8-6.7,5.6-13.5,8.2-20.3
		c0.8-2.1,1.9-2.7,4.1-2.7c5.3,0.2,10.6,0.1,16,0.1c0,1.6,0,2.9,0,4.2c-0.7,0.1-1.2,0.3-1.8,0.3c-4.3,0.3-4.9,0.9-4.9,5.3
		c0,7.1,0,14.1,0,21.2c0,11.7,0.1,23.4,0.2,35.1C247.8-638.1,247.7-638.1,254.2-637.3z"/>
	<path d="M409.9-640.3c8.6,0,16.5-0.4,24.3,0.2c4.5,0.3,9.3,1.4,13,3.8c7.9,5,8.3,15.8,1.7,23c-5.5,6-12.7,8.4-20.5,9
		c-4.2,0.3-8.6,0-12.8-0.6c-7.1-1-12.8-4.5-15-11.7c-2-6.7,1-11.9,6.1-16.3c-0.3-0.2-0.5-0.4-0.8-0.5c-5.3-0.6-6.7-3.8-3.6-8.1
		c2.3-3.2,4.7-6.3,7.1-9.6c-0.3-0.4-0.5-0.8-0.8-1.1c-6.5-5.3-9.2-12.1-7.2-20.3c2-8.3,7.6-13.7,15.6-15.6
		c4.9-1.1,10.2-0.4,15.4-0.3c5.8,0.1,11.5,0.4,17.3,0.5c1.4,0,2.7,0,4.2,0c0,2,0,3.6,0,5.6c-3.8-0.4-7.5-0.7-11.2-1.1
		c7.6,10.3,8.5,18.6,3.1,26.7c-6.1,8.9-17,12.1-30.3,8.7C413.9-645.6,412.1-643.2,409.9-640.3z M439.1-668c0.2-4.7-1.3-9-5.1-12.1
		c-6-5-15.4-3.9-20,2.4c-5,6.7-3.4,18.3,3.2,22.7c4.6,3.1,9.5,3.5,14.4,0.9C437-657,439.3-661.8,439.1-668z M425.8-633.4
		L425.8-633.4c-1.9,0-3.7,0-5.6,0c-5,0-8.8,2.9-10.3,8c-1.5,5,0.3,10.2,4.4,12.8c6.9,4.4,18.6,3.6,24.8-1.7c3.5-3,5-8.8,3.5-13
		c-1.5-4.1-4.7-6-10.3-6.1C430.2-633.4,428-633.4,425.8-633.4z"/>
	<path d="M600.6-633.6c0-1.2,0-2.4,0-3.5c6.6-1.6,6.7-1.7,6.7-8.8c0-17.6,0-35.2,0-52.9c0-6.1-0.5-6.8-6.4-7.7c0-1.2,0-2.4,0-4.1
		c2.2,0,4.2,0,6.3,0c9.7,0.2,19.5,0.1,29.2,0.7c10.1,0.6,17.2,7.1,18.9,16.4c1.1,5.9-0.9,11-5.3,15c-1.6,1.5-3.5,2.6-5.4,4
		c2.4,1,4.8,1.7,7,2.8c6.3,3.1,9.2,8.6,9.5,15.4c0.4,7.8-2.5,14.4-9.5,18c-4.6,2.4-9.9,4.3-15,4.6c-11.4,0.7-22.9,0.2-34.4,0.2
		C601.6-633.4,601.2-633.6,600.6-633.6z M617.5-670.2c0,9-0.1,17.8,0.1,26.6c0,2.6,1.7,4.3,4.5,4.3c4.9-0.1,9.8,0.1,14.6-0.4
		c7.9-0.8,13.4-7.4,13.5-15.5c0.1-7.9-4.9-14-13.1-14.8C630.8-670.7,624.4-670.2,617.5-670.2z M617.5-676.6c5.6,0,10.8,0.3,15.9-0.1
		c6.3-0.5,10.4-5,10.9-11.1c0.7-8.5-2.4-14.4-9-15.9c-4.1-0.9-8.5-0.6-12.7-0.9c-3.4-0.2-5,1.7-5,4.8
		C617.4-692,617.5-684.4,617.5-676.6z"/>
	<path d="M528.2-633.5c0-1.4,0-2.6,0-3.8c5.8-0.7,6.4-1.4,6.4-7.3c0-18.3,0-36.6,0-55c0-5.5-0.6-6.2-6.3-6.6c0-1.3,0-2.6,0-4.4
		c5.1,0,10.3-0.1,15.4,0c6.5,0.2,13.1-0.2,19.4,1.1c19.3,3.9,30.4,18.7,29.9,38.9c-0.5,20.1-13.1,34.7-33.1,36.9
		C549.5-632.6,538.9-633.5,528.2-633.5z M544.9-671.9c0,8.8,0,17.6,0,26.4c0,0.1,0,0.2,0,0.3c0.1,2.5,0.5,4.9,3.4,5.7
		c9.3,2.4,21.8-2.3,27.4-10.4c7.4-10.6,7.4-22.4,4.5-34.3c-1.1-4.3-3.6-8.6-6.5-12c-4.8-5.8-11.6-8.2-19.1-8.3
		c-9.6,0-9.8,0.1-9.8,9.6C544.9-687.2,544.9-679.6,544.9-671.9z"/>
	<path d="M390-637.2c0,1.1,0.1,2.2,0.2,3.6c-6.9,0-13.7,0-20.6,0c0-1.2,0-2.3,0-3.4c5.4-1.5,5.4-1.5,5.4-7.4c0-8.3,0-16.7,0-25
		c0-1,0.1-2.1-0.1-3.1c-0.9-4.5-2.3-8.8-7.3-10c-6-1.4-11.6-0.3-15.8,4.6c-3.2,3.7-4.9,8.1-4.8,13.1c0,7.1,0,14.1,0,21.2
		c0,5.6,0.1,5.7,5.5,6.4c0.1,1.1,0.1,2.2,0.2,3.6c-6.9,0-13.7,0-20.6,0c0-1.1,0-2.2,0-3.4c5.4-1.6,5.4-1.6,5.4-7.4
		c0-9.9,0-19.7,0-29.6c0-5.2-0.2-5.4-5.2-6.2c-0.5-3.5,6.2-7.9,11.9-7.6c0.7,2.5,1.4,5.1,2.3,8.2c3.8-4.6,7.8-8.2,13.3-9.2
		c7.6-1.4,14.8-1.1,20.5,5.1c3.4,3.6,4.2,8.2,4.3,12.9c0.1,8.9,0,17.9,0,26.8C384.5-638.2,384.5-638.2,390-637.2z"/>
	<path d="M492.2-689.4c16.4,0.9,28.2,13.8,27.2,29.8c-1,17.2-13.5,28.6-30.4,27.7c-15.7-0.9-27.1-12.3-26.8-29.1
		C462.6-678.6,475.5-690.3,492.2-689.4z M509.6-659.8c-0.4-3.3-0.6-5.8-1-8.3c-1.6-8.4-7.8-14.2-15.9-15.1
		c-8.2-0.9-14.9,3.2-18.3,11.4c-2.9,6.9-2.7,14-0.6,21.1c2.5,8.1,8.9,12.9,17,12.9s14.5-4.6,17-12.8
		C508.8-653.8,509.1-657.2,509.6-659.8z"/>
	<path d="M264-659.4c-0.7-17,10.7-29.4,27.6-30c16-0.5,28.9,11.2,29.4,26.8c0.6,17.5-10.6,30.1-27.3,30.7
		C276.9-631.3,264.6-642.7,264-659.4z M311.1-661.3c-0.2-1.8-0.4-4.3-0.9-6.8c-2-9.4-8.6-15.1-17.5-15.3c-8.3-0.2-15.4,5-17.5,13.9
		c-1.1,4.5-1.3,9.4-0.8,14.1c1.5,15,17.1,22.6,28.8,14C309.4-646.1,310.6-653.2,311.1-661.3z"/>
</g>
<g>
	<path d="M870.7-506c-2.9-0.5-5.9-0.8-8.8-1.5c-13.9-3.1-22.8-11.6-27.1-25c-2.7-8.5-3.3-17.3-3.1-26.2c0.2-8.1,1.2-16.2,3.9-23.9
		c2.7-7.4,6.8-13.7,13.3-18.3c4.5-3.1,9.5-5,14.9-5.8c10.7-1.6,21.3-1.1,31.7,1.7c1.7,0.5,3.3,1.3,4.9,1.9c1,0.4,1.3,1.1,1,2.1
		c-1.1,4.7-2.2,9.4-3.4,14.1c-0.4,1.5-0.9,1.9-2.3,1.4c-6.8-2.4-13.9-2.8-21-2.5c-5.3,0.2-10.2,1.6-14.2,5.4
		c-3.5,3.3-5.5,7.5-6.5,12.1c-2.3,10.6-2.4,21.3,1,31.7c2.2,6.8,6.6,11.6,14,13c4.9,0.9,9.8,0.6,14.7-0.2c0.4-0.1,0.9-0.7,1-1.1
		c0.1-6,0-12,0-17.9c0-0.1-0.1-0.3-0.2-0.6c-3.6,0-7.2,0-10.8,0c-2.6,0-2.8-0.3-2.8-2.9c0-4.4,0-8.7,0-13.1c0-2,0.3-2.3,2.3-2.3
		c10,0,20,0,30,0c1.9,0,2.1,0.2,2.1,2.1c0,15.6,0,31.3,0,46.9c0,1.1-0.4,1.8-1.4,2.3c-6.3,3.6-13.2,5.6-20.4,6.4
		c-0.3,0-0.6,0.2-1,0.3C878.8-506,874.7-506,870.7-506z"/>
	<path d="M1179.2-506c-1.9-0.4-3.7-0.6-5.6-1.1c-4.4-1-8.4-2.9-12.1-5.8c-0.2,1.2-0.4,2.1-0.5,3.1c-0.1,1.4-0.9,2-2.3,2
		c-3.6-0.1-7.2,0-10.7,0c-1.8,0-2.2-0.4-2.2-2.2c0-13.1,0-26.2,0-39.4c0-17.3,0-34.7,0-52c0-2.3,0.2-2.5,2.5-2.5
		c5.2,0,10.4,0,15.6,0c2.4,0,2.5,0.1,2.5,2.5c0,9.5,0,19.1,0,28.6c0,0.5,0,1.1,0,1.9c1.4-0.6,2.6-1.2,3.8-1.7
		c7.8-3.1,15.7-3.8,23.7-0.7c6.2,2.4,9.8,7.3,11.8,13.4c1,3.3,1.5,6.7,2.2,10.1c0.1,0.3,0.2,0.6,0.3,1c0,4.5,0,9,0,13.5
		c-0.1,0.4-0.2,0.8-0.3,1.3c-0.8,4.3-1.2,8.6-2.4,12.8c-2.1,7.1-6.4,12.3-13.9,14.3c-1.7,0.4-3.4,0.7-5.1,1.1
		C1183.9-506,1181.5-506,1179.2-506z M1165.9-540.7c0,4.5,0.1,8.9,0,13.4c0,1.3,0.5,1.9,1.6,2.4c3.4,1.5,6.8,2.2,10.5,2.1
		c4.7-0.1,7.3-2,8.5-6.5c1.4-5.4,1.5-11,0.9-16.5c-0.3-2.7-1-5.4-2-7.9c-1.1-2.7-3.4-4.3-6.3-4.7c-4.2-0.5-8.3,0.3-12.1,2.2
		c-0.9,0.4-1.2,1-1.2,1.9C1166-549.7,1165.9-545.2,1165.9-540.7z"/>
	<path d="M1095.1-506c-1.7-0.4-3.3-0.7-5-1.1c-8-2-12.3-7.4-13.5-15.3c-0.4-2.6-0.6-5.4-0.6-8c-0.1-13.4,0-26.7,0-40.1
		c0-2.4,0.3-2.7,2.7-2.7c5.2,0,10.5,0,15.7,0c2,0,2.4,0.4,2.4,2.4c0,13.5,0,26.9,0,40.4c0,5.4,2.5,7.6,7.9,7.7
		c3.5,0,6.7-0.9,9.8-2.5c1-0.5,1.4-1.1,1.4-2.3c0-14.4,0-28.8,0-43.2c0-2.4,0.2-2.6,2.6-2.6c5.1,0,10.3,0,15.4,0
		c2,0,2.3,0.3,2.3,2.3c0,20.3,0,40.7,0,61c0,2-0.3,2.2-2.2,2.2c-3.2,0-6.5,0-9.7,0c-1.4,0-2.2-0.4-2.3-1.9c0-0.8-0.3-1.6-0.5-2.6
		c-1.3,0.7-2.5,1.3-3.7,1.9c-4.1,2.1-8.4,3.5-12.9,4.1c-0.2,0-0.3,0.2-0.5,0.2C1101.3-506,1098.2-506,1095.1-506z"/>
	<path d="M975.4-506c-2.3-0.4-4.6-0.6-6.9-1.1c-7.9-1.9-12.8-7.2-14-15.2c-0.4-2.4-0.5-4.9-0.6-7.3c-0.1-8.3-0.1-16.7,0-25
		c0-1.3-0.4-1.7-1.7-1.6c-2.4,0.1-4.9,0-7.3,0c-1.3,0-1.8-0.6-1.8-1.8c0-3.5,0-7.1,0-10.6c0-1.2,0.6-1.8,1.7-2
		c2.6-0.6,5.1-1.3,7.7-1.8c1.1-0.2,1.5-0.7,1.5-1.9c-0.1-5.3,0-10.6,0-15.9c0-1.7,0.2-1.9,1.9-1.9c5.5,0,11,0,16.5,0
		c1.3,0,1.9,0.4,1.9,1.8c-0.1,5,0,10,0,15c0,1.9,0,1.9,1.9,1.9c3.7,0,7.3,0,11,0c1.4,0,2,0.6,1.9,1.9c0,4.5,0,8.9,0,13.4
		c0,1.3-0.5,1.9-1.9,1.8c-3.7-0.1-7.4,0.1-11.2-0.1c-1.6-0.1-1.9,0.5-1.8,1.9c0.1,7.8,0.1,15.7,0,23.5c-0.1,5.9,3.2,7.8,7.9,8.1
		c1.7,0.1,3.5-0.1,5.3-0.3c1.4-0.1,2,0.4,2,1.8c0,3.9,0,7.8,0,11.8c0,1.1-0.4,1.6-1.4,1.8c-2.3,0.4-4.7,0.9-7,1.3
		c-0.4,0.1-0.8,0.2-1.3,0.3C978.1-506,976.8-506,975.4-506z"/>
	<path d="M990.8-683c-4,4-5.8,8.8-6.8,14c-0.1,0.4-0.4,0.9-0.8,1.1c-6.7,2.7-13.4,3.7-20.4,1c-4.8-1.9-8.3-5.3-11-9.6
		c-2.9-4.7-6.4-8.7-11.5-11.2c-3.2-1.5-6.5-2-10-1c-2.1,0.6-2.5,1.8-1.1,3.4c1.1,1.2,2.3,2.4,3.7,3.2c3.9,2.2,6.4,5.7,8.6,9.4
		c1.6,2.7,3,5.5,4.3,8.3c3.1,6.9,8.6,10.7,15.7,12.4c5.7,1.3,11.5,1.2,17.3,0.4c1.4-0.2,2.8-0.4,4.4-0.6c0,0.5,0,1,0,1.6
		c0,6.1-0.1,12.2,0.2,18.2c0.2,5.5-3.7,7.5-8.4,6c-11.5-3.8-22-9.5-31.7-16.8c-14.8-11.2-26.1-25.2-34-41.9
		c-4.6-9.8-7.7-20.1-9.3-30.8c-1.3-8.3-1.7-16.6-1.1-24.9c0.9-13.4,4.1-26.3,9.6-38.5c6.3-14,15.1-26.3,26.5-36.7
		c13.4-12.3,28.9-20.9,46.4-25.8c6.7-1.9,13.6-3.2,20.6-3.6c5.7-0.3,11.5-0.6,17.2-0.2c13.3,0.8,26.1,4,38.3,9.4
		c14.2,6.3,26.5,15.2,37,26.6c13.2,14.3,22.1,31,26.7,49.9c2.2,9.2,3.3,18.5,3.1,27.9c-0.3,17.5-4.3,34.2-12.3,49.9
		c-6.3,12.3-14.5,23.1-24.7,32.4c-11.3,10.3-24.3,18-38.8,23c-1.2,0.4-2.5,0.7-3.7,0.6c-3.5-0.4-5.1-2.4-5.1-6.1
		c0.1-9.9,0.2-19.8,0.2-29.7c0-2.3-0.2-4.6-0.5-6.9c-0.7-5.5-2.7-10.4-6.9-14.5c2.1-0.3,4-0.5,5.9-0.9c9.6-1.6,18.8-4.3,26.8-10.2
		c8.1-5.9,13.2-13.9,15.9-23.5c2.6-9.1,3.4-18.4,2.3-27.7c-1-8.6-4.5-16.3-10.2-22.9c-0.7-0.8-0.8-1.4-0.5-2.5
		c3.1-9.5,2.1-18.8-1.4-27.9c-0.2-0.4-1-0.9-1.6-0.9c-5.1-0.4-9.9,1-14.4,3.2c-4.9,2.4-9.6,5.2-14.4,7.8c-0.6,0.3-1.5,0.5-2.1,0.4
		c-9.6-2.6-19.4-3.7-29.3-3.5c-8.3,0.2-16.5,1.2-24.5,3.4c-1.1,0.3-1.9,0.2-2.8-0.4c-6.3-4.1-12.7-7.9-20-9.8
		c-2.7-0.7-5.7-0.8-8.5-1.1c-0.9-0.1-1.4,0.3-1.7,1.2c-3.5,9.2-4.3,18.6-1.1,28.1c0.3,1-0.2,1.5-0.7,2c-4,4.6-6.8,9.8-8.7,15.6
		c-2.1,6.7-2.2,13.6-1.7,20.5c0.4,5.4,1.2,10.7,2.8,15.8c4.5,14.3,14.1,23.8,28.2,28.8c6.1,2.2,12.5,3.5,18.9,4.2
		C990.2-683.2,990.4-683.1,990.8-683z"/>
	<path d="M1018.6-549.3c0,0.8,0,1.4,0,1.9c0,12.3,0,24.7,0,37c0,2.1-0.3,2.5-2.4,2.5c-5.3,0-10.6,0-15.9,0c-1.9,0-2.2-0.3-2.2-2.2
		c0-30.6,0-61.2,0-91.8c0-1.8,0.3-2.1,2-2.1c5.5,0,11,0,16.5,0c1.8,0,2.1,0.3,2.1,2.2c0,10.6,0,21.2,0,31.7c0,0.6,0,1.2,0,1.9
		c0.6,0,1.1,0.1,1.5,0.1c8.3,0,16.6,0,24.8,0c1.4,0,1.6-0.5,1.6-1.7c0-10.6,0-21.3,0-31.9c0-2.1,0.2-2.3,2.4-2.3
		c5.4,0,10.8,0,16.2,0c1.7,0,2,0.4,2,2.1c0,30.6,0,61.2,0,91.8c0,1.8-0.4,2.2-2.3,2.2c-5.4,0-10.8,0-16.2,0c-1.8,0-2.1-0.4-2.1-2.1
		c0-12.5,0-25.1,0-37.6c0-1.4-0.4-1.7-1.7-1.7c-8.2,0.1-16.4,0-24.5,0C1019.8-549.3,1019.4-549.3,1018.6-549.3z"/>
	<path d="M936.3-540.7c0,10,0,20,0,30c0,2.6-0.4,2.9-3,2.9c-4.8,0-9.7,0-14.5,0c-2.4,0-3.1-0.7-3.1-3.1c0-20,0-40.1,0-60.1
		c0-1.9,0.5-2.4,2.4-2.4c5.3,0,10.6,0,15.9,0c2.1,0,2.3,0.1,2.3,2.2C936.3-561,936.3-550.9,936.3-540.7z"/>
	<path d="M926.1-578.8c-6.4-0.2-11.4-5.3-11.2-11.7c0.1-6.4,5.5-11.5,11.8-11.3c6.1,0.2,11.2,5.6,11,11.7
		C937.5-583.7,932.3-578.7,926.1-578.8z"/>
</g>
</svg>
