<?xml version="1.0" encoding="utf-8"?>
<!-- Generator: Adobe Illustrator 23.1.0, SVG Export Plug-In . SVG Version: 6.00 Build 0)  -->
<svg version="1.1" xmlns="http://www.w3.org/2000/svg" xmlns:xlink="http://www.w3.org/1999/xlink" x="0px" y="0px"
	 viewBox="0 0 532.9 122.8" style="enable-background:new 0 0 532.9 122.8;" xml:space="preserve">
<style type="text/css">
	.st0{display:none;}
	.st1{display:inline;}
	.st2{fill:#CECCCC;}
</style>
<g id="Layer_1" class="st0">
	<g class="st1">
		<g>
			<path d="M1242.4-1125.7c0,13.5,0,26.3,0,39.4c-4.5,0-8.3,0-12.4,0c0-33.1,0-66,0-99c0.2-0.1,0.4-0.6,0.7-0.6
				c14.3,0,28.7-0.9,42.9,0.2c16.1,1.1,26.6,12.2,27.4,26.7c0.9,17.8-7,28.3-25.2,32.7c8.7,13.2,17.3,26.3,26.5,40.2
				c-5.3,0-9.4,0.4-13.4-0.2c-1.5-0.2-3.1-2.2-4.1-3.8c-7-10.7-13.8-21.6-20.9-32.2c-1.1-1.7-3.7-3.1-5.8-3.3
				C1253.1-1126,1248.1-1125.7,1242.4-1125.7z M1242.5-1137.1c10.5,0,20.1,0.6,29.7-0.2c9.5-0.7,15.7-8.9,15.5-18.8
				c-0.1-9.7-6.4-17.1-16-17.8c-8.6-0.6-17.3-0.4-25.9-0.3c-1.1,0-3.1,1.7-3.2,2.6C1242.4-1160.3,1242.5-1149,1242.5-1137.1z"/>
			<path d="M1323.6-1118.4c0.6,10.3,5,17.1,13,21.5c9.9,5.5,21.6,3.5,34.9-5.8c1.7,2.3,3.4,4.6,5.4,7.3c-11.9,11-25.6,13.6-40.5,9.4
				c-14.2-4-22.2-14.2-24.7-28.6c-2.2-12.6,0.3-24.3,9-34c10-11.2,22.8-14.2,36.9-10c13.9,4.1,20.7,14.9,23.2,28.6
				c0.6,3.5,0.6,7.2,1,11.5C1362.2-1118.4,1343.3-1118.4,1323.6-1118.4z M1369.5-1127.3c0.8-13-10.1-23.7-23.3-23.3
				c-12.7,0.4-23.2,11.5-21.9,23.3C1339.3-1127.3,1354.4-1127.3,1369.5-1127.3z"/>
			<path d="M1444.3-1123.4c-0.3-6.2,0-11.2-0.8-16c-0.9-5.6-7-9.8-13.8-10.4c-8.5-0.9-16.2,1.2-22.6,7c-0.9,0.8-1.8,1.5-2.6,2.1
				c-0.3-0.1-0.5-0.2-0.6-0.3c-6-6.6-6-7.9,1.4-12.7c11.4-7.5,23.7-8.5,36.3-4.1c9.1,3.2,14,10.4,14.2,19.8
				c0.4,16.1,0.1,32.3,0.2,48.5c0,2.4-0.6,3.8-3.4,3.6c-2.5-0.1-5,0-7.8,0c-0.4-2.3-0.7-4.3-1.1-7.1c-6.2,5.4-13,8.1-20.7,8.8
				c-10.7,0.9-21.4-4.8-25.7-13.8c-4.1-8.6-2.1-20.5,4.4-26.9c8.8-8.7,25.8-9.7,37.2-2.3C1440.3-1126.4,1441.6-1125.4,1444.3-1123.4
				z M1444.1-1109c1.5-6.1-2.3-9.9-7.9-12.3s-11.4-3.3-17.5-1.6c-7.1,2-11.7,7.8-11.7,14.9c0.1,6.8,4.5,13.2,11.6,14.2
				c5.4,0.8,11.3,0.4,16.5-1.2C1442.9-1097.2,1444.1-1100,1444.1-1109z"/>
			<path d="M1536.1-1147.3c-2.5,2.3-4.8,4.4-7.3,6.8c-6.8-8.2-15.1-11-25.1-8.4c-5.6,1.4-9.9,4.5-13.1,9.3
				c-7,10.4-6.3,26.8,1.3,36.6c6.7,8.7,24.7,13.3,36.8-0.8c2.4,2.2,4.8,4.3,7.2,6.4c-6.5,10.9-21,15.7-35.4,12.1
				c-15.3-3.9-26-17.2-26.8-33.4c-0.9-19,7.7-33.8,22.9-39.3C1511.4-1163.4,1527.2-1159.3,1536.1-1147.3z"/>
			<path d="M1553.7-1147.6c-13-1.2-13-1.2-11.2-10.7c3.5,0,7,0,11.2,0c0-6.8,0-13,0-19.5c4,0,7.4,0,11.5,0c0,5.1,0.2,10.1-0.1,15
				c-0.2,3.6,1.2,4.8,4.6,4.5c3.1-0.2,6.3,0,9.8,0c0,3.4,0,6.5,0,10.3c-4.6,0-9.2,0-14.3,0c0,6.3,0,11.9,0,17.5
				c0,8.2-0.1,16.3,0,24.5c0.1,11,4.4,13.8,14.4,9.4c5.3,7,4.1,10.1-4.5,12c-13.4,2.9-21.5-3.5-21.5-17.2c0-13.3,0-26.6,0-40
				C1553.7-1143.7,1553.7-1145.5,1553.7-1147.6z"/>
		</g>
		<g>
			<path d="M999.1-1172.8c-0.8-11.3-1.8-22.1-2.3-32.9c-0.2-3.3,0.5-6.7,1.3-10c4.1-16.8,15.1-23,31.7-18.1
				c12.8,3.8,23.2,11.5,33,20.1c0.9,0.8,1.8,1.6,3,2.6c1.5-1.2,2.8-2.4,4.2-3.6c8.6-7.7,17.9-14.4,28.8-18.4
				c18.8-6.9,31.5,0.5,35,20.3c2.1,11.8,0.9,23.5-1.4,35.1c-0.3,1.5-0.5,3-0.7,4.2c7.9,3.4,15.7,6.1,22.9,10
				c6.1,3.4,12,7.5,16.8,12.5c9.8,10,9.5,21.5-0.1,31.8c-9.2,10-21.1,15.4-33.6,19.9c-1.8,0.7-3.7,1.3-5.4,1.9
				c1,7.6,2.2,14.8,2.7,22.1c0.7,9.2,0,18.4-3.9,27c-5,11.1-13.8,15.6-25.8,13c-13.6-2.9-24.5-10.8-34.7-19.6
				c-1.5-1.3-2.9-2.6-4-3.6c-7.5,5.4-14.5,10.9-21.9,15.6c-7.3,4.6-15.2,7.9-24.1,8c-10,0.2-16.8-4.4-20.6-13.7
				c-5.1-12.6-4-25.5-2-38.4c0.5-3.2,1.2-6.3,1.6-8.5c-10.2-5.1-20.3-9.5-29.6-15.1c-5-3-9.3-7.6-12.8-12.2
				c-6.3-8.3-5.9-17.1,0.3-25.4c6.9-9.3,16.7-14.6,27-19.1C989.6-1169.6,994.7-1171.2,999.1-1172.8z M1065.7-1099.4
				C1065.7-1099.4,1065.7-1099.5,1065.7-1099.4c5.7-0.1,11.3,0.1,17-0.2c1.8-0.1,4.3-1.2,5.2-2.7c6.1-10.1,11.9-20.3,17.5-30.6
				c0.7-1.3,0.6-3.7-0.1-5c-5.7-10.1-11.5-20.2-17.5-30.1c-0.8-1.4-3.1-2.6-4.8-2.6c-11.3-0.2-22.6-0.3-33.9,0
				c-1.9,0-4.4,1.6-5.4,3.2c-5.8,9.5-11.5,19.1-16.7,28.9c-1,1.9-0.9,5.2,0.1,7.1c4.7,8.9,10.1,17.4,14.9,26.3
				c2.4,4.5,5.5,6.3,10.6,5.8C1056.8-1099.7,1061.3-1099.4,1065.7-1099.4z M1002.6-1163.1c-12.7,3.7-24.9,8.3-34.4,17.9
				c-6.7,6.8-6.9,12.5-0.3,19.6c9.5,10.1,21.9,15,34.7,18.9c3.6-9,7.1-17.7,10.4-26.3c0.4-1.1,0.7-2.5,0.3-3.5
				C1009.8-1145.3,1006.2-1154,1002.6-1163.1z M1009.9-1093.9c-3.1,12.8-5,25.5-1.6,38.4c2.3,8.8,7.4,12,16.5,10
				c13.7-3.1,24.3-11.5,34.1-20.6c-6-7.6-11.7-14.8-17.4-21.9c-0.8-1-2.1-1.9-3.2-2.1C1029.1-1091.4,1019.8-1092.6,1009.9-1093.9z
				 M1073.6-1066c9.3,8.6,19.1,16.7,31.8,20.3c9.6,2.7,14.7,0.1,17.7-9.2c4.2-13.3,2.2-26.4-0.9-39.4c-9.8,1.4-19.2,2.7-28.5,4.2
				c-1.1,0.2-2.3,0.9-2.9,1.7C1085.1-1081.1,1079.5-1073.7,1073.6-1066z M1121.8-1175.8c2.9-13,4.6-25.8,1.4-38.7
				c-2.4-9.7-8.2-12.8-17.9-10c-12.7,3.7-22.5,11.8-32,20.5c6,7.7,11.7,15.2,17.6,22.5c0.6,0.7,1.7,1.3,2.7,1.4
				C1102.8-1178.6,1112-1177.3,1121.8-1175.8z M1058.5-1203.9c-1.4-1.3-2.5-2.5-3.8-3.6c-8.8-7.5-18-14.2-29.4-17.1
				c-9.3-2.4-14.8,0.8-17.1,10.1c-0.9,3.5-1.3,7.2-1.4,10.9c-0.3,9.4,0.7,18.8,3.5,27.6c9.3-1.4,18-2.6,26.8-4
				c1.5-0.2,3.3-1.1,4.2-2.2C1047-1189.2,1052.6-1196.4,1058.5-1203.9z M1129.2-1163c-3.7,9.1-7.2,17.5-10.6,26
				c-0.3,0.8-0.5,1.9-0.2,2.6c3.6,9,7.4,18,11.2,27.2c2.6-0.9,5.1-1.6,7.5-2.5c9.2-3.5,18-7.7,25.3-14.5c8.1-7.6,8.2-13.9,0.4-21.5
				C1153.4-1154.7,1141.6-1159.2,1129.2-1163z M1066.2-1073.3c4.3-5.3,8.2-10.2,12.6-15.5c-9,0-16.8,0-25.6,0
				C1057.8-1083.4,1061.9-1078.6,1066.2-1073.3z M1119.6-1104.4c-2.5-6.5-4.7-12.5-7.3-19.2c-4.4,7.8-8.4,14.8-12.9,22.8
				C1106.6-1102.1,1112.7-1103.2,1119.6-1104.4z M1012.5-1104c6.6,1.1,12.6,2.1,19.8,3.2c-4.6-8-8.5-14.8-12.9-22.5
				C1017-1116.3,1014.9-1110.5,1012.5-1104z M1119.2-1165.8c-7-1.2-13.1-2.3-19.9-3.5c4.4,7.6,8.5,14.6,12.9,22.3
				C1114.6-1153.5,1116.8-1159.3,1119.2-1165.8z M1078.8-1181.3c-4.7-5.6-8.6-10.2-12.9-15.3c-4.5,5.4-8.3,10.1-12.7,15.3
				C1062-1181.3,1069.8-1181.3,1078.8-1181.3z M1032.4-1169.3c-6.8,1.2-12.8,2.2-19.7,3.4c2.3,6.4,4.4,12.2,6.8,18.8
				C1024-1154.8,1027.9-1161.6,1032.4-1169.3z"/>
			<path d="M1066.2-1155.6c11.2,0.2,20.1,9.4,19.9,20.8c-0.2,10.9-9.5,20-20.4,19.9c-11.1-0.1-20.4-9.6-20.2-20.7
				C1045.6-1146.9,1054.9-1155.8,1066.2-1155.6z"/>
		</g>
	</g>
	<g class="st1">
		<path d="M-53.6-1204.5c-1.8,0-3.6,0-5.8,0c0,11.1,0,21.7,0,33c23.7,0,47.2,0,71.1,0c0,7.1,0,13.5,0,20.5c-23.7,0-47.1,0-71,0
			c0,11.6,0,22.6,0,34.1c29.5,0,58.8,0,88.7,0c0,6.3,0.1,12-0.1,17.8c0,0.9-2,2.5-3.1,2.6c-3.8,0.3-7.7,0.1-11.5,0.1
			c-39.2,0-78.3-0.1-117.5,0.1c-4.2,0-7-1.1-9.7-4.5c-24.5-30.8-49.2-61.4-73.9-92c-0.8-1-1.8-1.9-3.7-4.1c0,34.3,0,67,0,100.2
			c-7.5,0-14.6,0-21.8,0c0-42.8,0-85.2,0-128.3c8.7,0,17.2-0.2,25.6,0.2c1.7,0.1,3.5,2.2,4.8,3.8c30.8,38.1,61.5,76.3,92.2,114.5
			c2,2.5,4.1,5,7.3,7.1c0-41.7,0-83.4,0-125.3c37.3,0,73.9,0,111.3,0c0,6,0.2,11.9-0.2,17.9c-0.1,0.9-2.5,2.3-3.8,2.3L-53.6-1204.5z
			"/>
		<path d="M188.6-1096.3c-10,0-18.4,0.3-26.9-0.2c-2.1-0.1-4.4-2.6-5.9-4.6c-24.6-30.5-49.1-61-73.7-91.5
			c-7.4-9.2-14.8-18.4-22.2-27.7c-1-1.2-1.9-2.6-3.5-4.8c9.7,0,18.4-0.2,27.2,0.2c1.5,0.1,3.2,2.1,4.4,3.6
			c10.3,12.7,20.5,25.4,30.8,38.1c1,1.3,2.1,2.5,4,4.7c0.9-1.4,1.5-2.5,2.3-3.5c10.5-13.1,21.2-26.2,31.6-39.4
			c2.1-2.6,4.1-3.8,7.5-3.7c7.6,0.2,15.3,0.1,24.4,0.1c-17.6,22-34.5,43-51.6,64.3C154-1139.4,170.8-1118.4,188.6-1096.3z"/>
		<path d="M279.7-1096.7c-7.7,0-14.5,0-21.9,0c0-35.8,0-71.3,0-107.7c-15.3,0-30,0-45,0c0-7.2,0-13.6,0-20.4c36.9,0,73.6,0,110.6,0
			c0,6.6,0,13,0,20.1c-14.4,0-28.8,0-43.7,0C279.7-1168.3,279.7-1132.7,279.7-1096.7z"/>
		<path d="M56-1096.2c15.3-18.9,29.6-36.8,44.2-55c4.6,5.7,8.8,10.7,12.8,16.1c0.7,0.9,0.5,3.3-0.2,4.2c-8.6,11-17.4,21.9-26.2,32.7
			c-0.8,1-2.4,1.9-3.7,1.9C74.4-1096.1,65.9-1096.2,56-1096.2z"/>
		<circle cx="326.8" cy="-1100.1" r="4"/>
		<text transform="matrix(1.1279 0 0 1 336.1319 -1096.3792)" style="font-family:'QanelasSoft-Bold'; font-size:51.1056px;">JS</text>
	</g>
	<g class="st1">
		<path d="M689.5-1018.9c-57.4,0-114.8,0-172.2,0c-15.3,0-25.5-10.2-25.5-25.5c0-57.9,0-115.9,0-173.8c0-15.3,10.2-25.5,25.5-25.5
			c114.9,0,229.8,0,344.7,0c15.1,0,25.4,10.2,25.4,25.3c0,58,0,116,0,174.1c0,15.1-10.3,25.3-25.4,25.3
			C804.5-1018.9,747-1018.9,689.5-1018.9z M589.8-1109.3c0,5.4,0.1,10.4-0.1,15.4c0,0.6-0.8,1.5-1.4,1.8c-7.2,2.6-14.6,3.4-22.3,2
			c-10.3-1.8-17.9-7.2-22.5-16.6c-5.7-11.5-6-23.5-2.3-35.6c1.7-5.6,4.7-10.6,9.4-14.3c9.9-8,21.2-8.6,32.9-5.8
			c4.3,1,8.5,3.2,12.4,5.4c5.9,3.2,9.6,2.6,13.4-3c1.8-2.7,3.5-5.6,5.5-8.2c1.7-2.3,1.1-3.7-0.8-5.3c-9.7-8.2-21.1-12.5-33.5-13.7
			c-10-1-20-0.4-29.8,2.8c-23.5,7.6-36.7,24-40.1,48.1c-1.4,9.8-0.5,19.7,2.8,29.3c8.1,23.2,29,38.1,52,39.2
			c7.3,0.4,14.6-0.1,21.8-1c9.7-1.2,18.8-4.6,26.8-10.5c1-0.8,1.9-2.4,2-3.7c0.1-14.7,0.1-29.5,0.1-44.2c0-2.1-0.9-2.9-2.9-2.9
			c-12.5,0-25,0-37.5,0c-2,0-2.9,0.8-2.9,2.9c0.1,3.7,0,7.5,0,11.2c0,4.4,2.1,6.6,6.5,6.6C582.8-1109.2,586.1-1109.3,589.8-1109.3z
			 M842.3-1186.8c-6.3-1.3-12.7-1.3-19-0.2c-2.5,0.4-5,0.9-7.5,1.5c-13.4,3.3-27.4,16.3-26.1,35.7c0.7,10.4,4.5,19,13.5,24.4
			c5.1,3.1,11,4.9,16.6,7c4.8,1.8,9.9,3,14.6,5c4.8,2,7.6,5.7,7.2,11.3c-0.4,5.1-2.6,8.9-7.6,10.5c-5.4,1.7-11,1.9-16.2-0.3
			c-5.1-2.1-9.8-5.1-14.7-7.5c-3.9-1.9-7.6-0.8-9.9,2.8c-1.7,2.6-3.3,5.3-5,7.9c-3.5,5.7-3.4,5.7,2.2,9.6c6.7,4.7,14.1,7.9,22.1,9.8
			c12.8,3,25.4,2.6,37-4.2c13.4-7.8,19.2-20,18.8-35.3c-0.3-10.8-5.3-19.3-14.7-24.5c-5.9-3.2-12.4-5.2-18.7-7.7
			c-4.7-1.9-9.5-3.5-14-5.7c-3.3-1.5-5.1-4.5-4.9-8.2c0.3-4.5,2.4-8.1,6.8-9.7c3.9-1.4,8-2.2,12.1-0.9c5,1.7,9.9,3.8,14.6,6
			c3.9,1.8,8.4,0.3,10.6-3.4c1.7-2.9,3.3-5.9,4.9-8.9c1.9-3.4,1.8-3.6-1.3-5.8C857.1-1182.3,850-1185.2,842.3-1186.8z M653.1-1069.9
			c7.1,2.5,14.8,3,22.3,1.9c2.8-0.4,5.6-0.9,8.3-1.8c13.5-4.2,22.2-13.3,26.2-26.9c2.4-8.1,2.7-16.2,1.1-24.5
			c-1.4-7.2-4.2-13.8-9-19.4c-8.2-9.7-19.3-13.3-31.5-14c-6.3-0.4-12.4,0.8-18.3,2.9c-14.1,5.1-22.3,15.3-25.5,29.8
			c-1.6,7.1-1.5,14.3,0,21.5c1.8,8.8,5.7,16.4,12.5,22.4C643.5-1074.3,648.1-1071.7,653.1-1069.9z M746.8-1144.1L746.8-1144.1
			c0,12.1,0.1,24.3,0,36.4c0,2.6-0.3,5.4-1,7.9c-1.1,4-3.2,7.8-7.6,8.5c-4.1,0.7-8.5,0.5-12.7,0.2c-3.8-0.3-7.2,1.5-7.8,5.4
			s-0.7,7.8-1.3,11.7c-0.6,4-0.4,4.7,3.5,5.1c5.7,0.6,11.3,1.2,17,1.2c10.9,0,20.5-3.5,27.9-11.7c7-7.7,10-17.1,10.2-27.2
			c0.4-25.7,0.1-51.4,0.2-77.1c0-2.2-0.7-2.9-2.9-2.9c-7.2,0.1-14.4,0-21.7,0c-3.7,0-3.9,0.2-3.9,3.9
			C746.8-1169.8,746.8-1157,746.8-1144.1z"/>
		<path d="M683.6-1123.3c1.9,8.9,1.7,18.1-0.9,26.7c-0.1,0.4-0.3,0.9-0.4,1.3c-1.7,5.1-5.8,7.8-11.2,7.9c-2.6,0.1-5.2,0.1-7.7-0.6
			c-6.5-1.7-8.8-7.1-10-12.9c-1.6-7.9-1.4-15.7,0.7-23.5c1.9-6.9,7.2-10.8,15-10.7c7.4,0,12.7,4,14.3,10.8
			C683.4-1123.9,683.5-1123.6,683.6-1123.3z"/>
	</g>
	<g class="st1">
		<g>
			<path d="M145.3,19.1c-5.2,18.9-15,33.5-34.4,39.6c-8.1,2.5-16.5,3.2-25.1,2.7c-9.2-0.6-18-2.9-26-7.4
				c-6.8-3.8-12.4-9.1-17.9-14.6c-3.7-3.6-7.4-7.4-11.5-10.7C18.6,19.3,2.7,19.5-9.1,29c-3.4,2.7-6.3,5.9-9.6,9c1-3,2-6.1,3.1-9
				C-12,19.6-6.5,11.6,1.7,5.6c7-5.1,14.8-7.9,23.2-9c8.6-1.2,17.1-1,25.5,0.7C60.7-0.6,69.6,4,77.4,11c5.3,4.9,10.4,10.1,15.7,15.1
				c6.3,6,13.7,9.3,22.5,9.4c8.7,0,16-3.3,22.3-9C140.5,24.2,142.7,21.7,145.3,19.1z"/>
			<path d="M90.3,85.1c-3.9,14.1-10.3,26.2-22.8,34.3c-6.2,4-13,6.3-20.3,7.3c-9,1.3-18.1,1.1-27.1-0.8c-12.4-2.7-22.2-9.6-31-18.3
				c-5-4.9-10.1-9.8-15.5-14.2c-5.3-4.3-11.8-5.6-18.6-5.4c-10.7,0.3-18.7,5.7-25.6,13.3c-0.8,0.8-1.5,1.8-2.3,2.6
				c0,0.1-0.1,0-0.3,0.1c0-0.3-0.1-0.6,0-0.8c2.8-9.6,6.8-18.5,13.7-25.8c7.4-8,16.8-12.5,27.4-14.3c11.6-2,23.1-1.6,34.4,2.1
				c9,2.9,16.5,8.2,23.3,14.7c4.3,4.2,8.5,8.4,12.8,12.5c6.4,6.1,14.1,9.4,23.1,9.1c8.2-0.3,15.3-3.4,21.4-8.9
				C85.4,90.3,87.7,87.8,90.3,85.1z"/>
		</g>
		<g>
			<path d="M527.1,58.7c-4.1-1-7.8-2.1-11.4-2.7c-1-0.2-2.4,0.2-3.4,0.8c-2.9,1.4-3.3,5-0.6,6.8c2.6,1.7,5.7,2.9,8.5,4.5
				c3,1.7,6,3.4,8.6,5.5c7.7,6.1,4.3,19.1-2.3,22.8c-8.5,4.7-17.2,4.3-25.9,0.8c-2.2-0.9-4.1-2.2-6-3.2c-0.5,0.6-0.8,1.5-1.5,1.8
				c-16.8,9.3-38.5,1.8-43.7-16.9c-3.1-11,2.1-22.9,12.2-29.3c9.5-5.8,19.3-5.8,29.4-1.7c1.1,0.5,2.2,1.3,3.4,1.9
				c-1.7,3.4-3.3,6.8-5,10.2c-4-2.3-8.1-3.3-12.6-3c-7,0.6-12.5,4.6-14.4,11.1c-1.8,6,0.1,12.7,5.4,16.4c6.4,4.6,13.3,4.3,20.1,1
				c0.5-0.2,0.8-0.5,1.4-0.8c1.4,2.6,2.6,5.2,4,7.9c2.1-3.4,4-6.6,5.8-9.6c2.9,1.6,5.5,3.1,8.2,4.3c2.6,1.3,5.5,1.5,8.4,0.8
				c1.9-0.5,3.4-1.6,3.9-3.7c0.5-2.2-0.5-3.8-2.3-4.8c-3.1-1.7-6.4-3.3-9.5-4.9c-4.3-2.3-8.1-5.3-9.5-10.3
				c-2.3-8,3.3-16.7,12.1-18.8c7.4-1.7,14.3,0.3,21.1,4.2C530,53.1,528.5,56.2,527.1,58.7z"/>
			<path d="M276.9,98.6c-3.9,0-7.6,0-11.2,0c0-18.2,0-36.4,0-54.8c3.7,0,7.2,0,11.1,0c0,7.3,0,14.5,0,22.1c3.7,0,6.9,0.1,10.2,0
				c1.8-0.1,2.6,0.6,3.3,2.2c1.8,4.3,3.8,8.6,5.7,12.9c0.3,0.7,0.7,1.4,1.3,2.4c2.4-5.4,4.7-10.3,6.8-15.3c0.7-1.7,1.7-1.9,3.3-2.2
				c4.3-0.7,6.4,1.1,7.8,5.2c1.4,4.2,3.5,8.1,5.5,12.6c2.4-5.4,4.8-10.4,7-15.5c0.7-1.6,1.5-2.3,3.3-2.3c7,0.1,14,0,21.2,0
				c0,11,0,21.7,0,32.6c-3.5,0-7.2,0-11.1,0c0-10.1,0-20.1,0-30.2c-0.1,0-0.3-0.1-0.5-0.1c-0.5,0.7-0.9,1.4-1.3,2.2
				c-4.7,8.8-9.5,17.7-14.2,26.7c-0.7,1.4-1.6,1.6-3.1,1.8c-4.3,0.7-6.6-0.9-7.9-5.2c-1.1-3.8-3.2-7.3-4.8-11
				c-0.1-0.1-0.2-0.2-0.6-0.5c-2.2,4.9-4.3,9.7-6.4,14.5c-0.6,1.5-1.5,1.8-3,1.9c-4.2,0.6-6.4-1-8.4-4.9c-4.2-8.7-9-17.1-14.1-25.5
				C276.9,78.3,276.9,88.4,276.9,98.6z"/>
			<path d="M420.8,43.6c3.7,0,6.9,0,10.1,0c0.3,0,0.8,0.1,1.3,0.1c0,18.3,0,36.4,0,54.7c-3.7,0-7.2,0-11,0c-0.1-0.9-0.2-1.9-0.3-3
				c-9.4,5.7-17.1,5.3-22.8-1.4c-5.6-6.6-5.6-16.9-0.1-23.7c4.6-5.6,14.4-8,22.8-1.8C420.8,60.2,420.8,52.1,420.8,43.6z M405.9,82.2
				c0,4.6,3.1,7.8,7.6,7.8s7.7-3.3,7.7-7.8c0-4.3-3.2-7.6-7.6-7.6C409.1,74.5,405.9,77.7,405.9,82.2z"/>
			<path d="M571.4,50.1c-1.6,3.1-3.1,6.2-4.6,9.2c-2.9-1-5.5-2.3-8.2-2.9c-1.8-0.5-4-0.3-5.8,0.3c-1.3,0.5-2.5,2.1-2.7,3.3
				c-0.2,1.1,0.8,3,1.8,3.7c2.3,1.6,4.9,2.5,7.3,3.9c3.1,1.7,6.3,3.4,9.2,5.6c8,6.1,4.9,19.6-2.6,23.5c-8.2,4.2-16.6,3.9-24.9,0.5
				c-2.5-1-4.8-2.6-7.6-4.1c2.2-3.7,4.1-6.9,6-10.1c2.9,1.5,5.5,3.3,8.4,4.3c2.5,0.8,5.3,0.9,7.9,0.9c2.2,0,3.9-1.4,4.3-3.8
				c0.5-2.3-0.7-3.9-2.5-4.9c-3-1.6-6.1-3.1-9.2-4.7c-4.6-2.3-8.4-5.4-9.7-10.6c-2.1-7.9,3.4-16.3,12-18.5
				C556.4,43.9,566,45.9,571.4,50.1z"/>
			<path d="M233.5,68.5c0.1-0.9,0.2-1.6,0.2-2.4c3.7,0,7.2,0,11,0c0,10.8,0,21.5,0,32.5c-3.5,0-7.1,0-10.9,0
				c-0.1-0.9-0.2-1.9-0.3-3.3c-4.2,4-8.9,5.2-14.3,4.1c-3.8-0.8-6.8-2.7-9-5.7c-5.3-6.6-4.8-16.7,0.6-23.2
				C214.9,65.4,224.1,62.1,233.5,68.5z M226.4,74.7c-4.5,0-7.8,3.2-7.8,7.6c0,4.5,3.2,7.8,7.6,7.8c4.3,0,7.6-3.2,7.7-7.4
				C233.9,78.1,230.7,74.7,226.4,74.7z"/>
			<path d="M195.3,56.5c0,14.2,0,28,0,42c-4.1,0-8,0-12.1,0c0-13.8,0-27.8,0-41.9c-4.2,0-8.2,0-12.4,0c0-3.5,0-7,0-10.4
				c12.2,0,24.5,0,36.9,0c0,3.4,0,6.8,0,10.3C203.6,56.5,199.6,56.5,195.3,56.5z"/>
			<path d="M368.5,98.6c-3.9,0-7.6,0-11.3,0c0-10.9,0-21.6,0-32.5c3.8,0,7.3,0,11.1,0c0.1,0.9,0.1,1.8,0.2,3.1
				c3.5-3.2,7.2-4.7,11.8-4.1c7.9,0.9,12,5.5,12,13.4c0,6.6,0,13.3,0,20c-3.8,0-7.4,0-11.4,0c0-0.7,0-1.4,0-2.2c0-5.3,0-10.5,0-15.8
				c0-4-2.5-6.8-6-6.8s-6.5,3.2-6.6,6.9C368.5,86.4,368.5,92.4,368.5,98.6z"/>
			<path d="M260.6,98.6c-3.8,0-7.3,0-11.1,0c0-10.9,0-21.6,0-32.6c3.8,0,7.3,0,11.1,0C260.6,76.8,260.6,87.6,260.6,98.6z"/>
			<path d="M340.2,52.2c0-3.7,3.1-6.6,6.6-6.8c3.5,0,6.8,3.1,6.8,6.6c0,3.8-3.1,6.8-6.9,6.8C343.1,59,340.2,56,340.2,52.2z"/>
			<path d="M261.8,52.3c0,3.8-3,6.6-6.6,6.6c-3.7,0-6.8-3-6.8-6.6s3.2-6.9,6.9-6.9C258.9,45.6,261.8,48.7,261.8,52.3z"/>
		</g>
	</g>
	<g class="st1">
		<path d="M389.9-704.3c-1.6,0-3,0-4.7,0c-0.4-4.1-1.2-8.2-1.2-12.3c0-3.1-1.2-5.1-3.4-7c-13.8-12.2-23.1-27-26-45.4
			c-2.7-16.8,1-32.6,9.5-47c5.5-9.3,12.4-17.8,18.8-26.6c1.5-2.1,3-4,4.7-6.3c11.2,14.6,23.6,28.2,29.7,45.9
			c8.6,25.2,3.9,48.1-12.5,68.7c-3.5,4.4-7.9,8.1-11.7,12.3c-0.7,0.8-1.4,1.8-1.5,2.8C390.8-714.4,390.4-709.5,389.9-704.3z
			 M386.5-722.2c3.7-2,4.5-4.1,4.3-7c-0.9-17.9-1.7-35.8-2.4-53.7c-0.2-4.7,0-9.4,0-14.1c-0.3,0-0.7,0-1,0
			c-0.4,7.9-0.9,15.9-1.3,23.8c-0.7,14.9-1.4,29.8-1.8,44.7C384.3-726.4,385.7-724.4,386.5-722.2z"/>
		<path d="M544.3-725.3c0,1.3,0,2.4,0,3.7c-7.4,0-14.7,0-22.1,0c0-1.2,0-2.3,0-3.5c5.4-1.5,5.3-1.5,5.2-7.7c-0.1-16-0.1-32-0.1-48
			c0-1.1,0-2.2-0.6-3.3c-4.2,10.1-8.4,20.2-12.7,30.3c-4.3,10.4-8.6,20.7-13,31c-0.5,1.2-2,1.9-3,2.9c-1-1-2.3-1.9-2.8-3.1
			c-8.7-20.6-17.2-41.2-25.8-61.8c-0.1-0.3-0.3-0.5-0.9-1.4c0,2.1,0,3.5,0,5c0,16.5,0,32.9,0,49.4c0,5.2,0.3,5.5,5.2,6.7
			c0,1.1,0,2.2,0,3.5c-6.1,0-12.2,0-18.6,0c0-1.1,0-2.3,0-3.7c0.8-0.1,1.6-0.2,2.4-0.2c2.9-0.1,4.1-1.7,4.1-4.5
			c0.1-19.9,0.3-39.9,0.4-59.8c0-3.7-0.6-4.1-6.3-4.4c0-1.2,0-2.5,0-4.2c6.2,0,12.4-0.1,18.5,0.1c0.7,0,1.6,1.7,2,2.8
			c7.6,18.5,15.2,37,22.8,55.5c0.3,0.7,0.7,1.4,1.3,2.6c5.4-13.1,10.5-25.6,15.7-38.2c2.8-6.7,5.6-13.5,8.2-20.3
			c0.8-2.1,1.9-2.7,4.1-2.7c5.3,0.2,10.6,0.1,16,0.1c0,1.6,0,2.9,0,4.2c-0.7,0.1-1.2,0.3-1.8,0.3c-4.3,0.3-4.9,0.9-4.9,5.3
			c0,7.1,0,14.1,0,21.2c0,11.7,0.1,23.4,0.2,35.1C537.9-726.2,537.9-726.1,544.3-725.3z"/>
		<path d="M700-728.3c8.6,0,16.5-0.4,24.3,0.2c4.5,0.3,9.3,1.4,13,3.8c7.9,5,8.3,15.8,1.7,23c-5.5,6-12.7,8.4-20.5,9
			c-4.2,0.3-8.6,0-12.8-0.6c-7.1-1-12.8-4.5-15-11.7c-2-6.7,1-11.9,6.1-16.3c-0.3-0.2-0.5-0.4-0.8-0.5c-5.3-0.6-6.7-3.8-3.6-8.1
			c2.3-3.2,4.7-6.3,7.1-9.6c-0.3-0.4-0.5-0.8-0.8-1.1c-6.5-5.3-9.2-12.1-7.2-20.3c2-8.3,7.6-13.7,15.6-15.6
			c4.9-1.1,10.2-0.4,15.4-0.3c5.8,0.1,11.5,0.4,17.3,0.5c1.4,0,2.7,0,4.2,0c0,2,0,3.6,0,5.6c-3.8-0.4-7.5-0.7-11.2-1.1
			c7.6,10.3,8.5,18.6,3.1,26.7c-6.1,8.9-17,12.1-30.3,8.7C704-733.7,702.2-731.3,700-728.3z M729.2-756.1c0.2-4.7-1.3-9-5.1-12.1
			c-6-5-15.4-3.9-20,2.4c-5,6.7-3.4,18.3,3.2,22.7c4.6,3.1,9.5,3.5,14.4,0.9C727.1-745.1,729.4-749.9,729.2-756.1z M716-721.5
			L716-721.5c-1.9,0-3.7,0-5.6,0c-5,0-8.8,2.9-10.3,8c-1.5,5,0.3,10.2,4.4,12.8c6.9,4.4,18.6,3.6,24.8-1.7c3.5-3,5-8.8,3.5-13
			c-1.5-4.1-4.7-6-10.3-6.1C720.4-721.5,718.2-721.5,716-721.5z"/>
		<path d="M890.7-721.7c0-1.2,0-2.4,0-3.5c6.6-1.6,6.7-1.7,6.7-8.8c0-17.6,0-35.2,0-52.9c0-6.1-0.5-6.8-6.4-7.7c0-1.2,0-2.4,0-4.1
			c2.2,0,4.2,0,6.3,0c9.7,0.2,19.5,0.1,29.2,0.7c10.1,0.6,17.2,7.1,18.9,16.4c1.1,5.9-0.9,11-5.3,15c-1.6,1.5-3.5,2.6-5.4,4
			c2.4,1,4.8,1.7,7,2.8c6.3,3.1,9.2,8.6,9.5,15.4c0.4,7.8-2.5,14.4-9.5,18c-4.6,2.4-9.9,4.3-15,4.6c-11.4,0.7-22.9,0.2-34.4,0.2
			C891.7-721.5,891.3-721.6,890.7-721.7z M907.7-758.3c0,9-0.1,17.8,0.1,26.6c0,2.6,1.7,4.3,4.5,4.3c4.9-0.1,9.8,0.1,14.6-0.4
			c7.9-0.8,13.4-7.4,13.5-15.5c0.1-7.9-4.9-14-13.1-14.8C920.9-758.8,914.5-758.3,907.7-758.3z M907.6-764.6
			c5.6,0,10.8,0.3,15.9-0.1c6.3-0.5,10.4-5,10.9-11.1c0.7-8.5-2.4-14.4-9-15.9c-4.1-0.9-8.5-0.6-12.7-0.9c-3.4-0.2-5,1.7-5,4.8
			C907.5-780.1,907.6-772.5,907.6-764.6z"/>
		<path d="M818.3-721.6c0-1.4,0-2.6,0-3.8c5.8-0.7,6.4-1.4,6.4-7.3c0-18.3,0-36.6,0-55c0-5.5-0.6-6.2-6.3-6.6c0-1.3,0-2.6,0-4.4
			c5.1,0,10.3-0.1,15.4,0c6.5,0.2,13.1-0.2,19.4,1.1c19.3,3.9,30.4,18.7,29.9,38.9c-0.5,20.1-13.1,34.7-33.1,36.9
			C839.6-720.7,829-721.6,818.3-721.6z M835.1-760c0,8.8,0,17.6,0,26.4c0,0.1,0,0.2,0,0.3c0.1,2.5,0.5,4.9,3.4,5.7
			c9.3,2.4,21.8-2.3,27.4-10.4c7.4-10.6,7.4-22.4,4.5-34.3c-1.1-4.3-3.6-8.6-6.5-12c-4.8-5.8-11.6-8.2-19.1-8.3
			c-9.6,0-9.8,0.1-9.8,9.6C835.1-775.3,835.1-767.7,835.1-760z"/>
		<path d="M680.1-725.3c0,1.1,0.1,2.2,0.2,3.6c-6.9,0-13.7,0-20.6,0c0-1.2,0-2.3,0-3.4c5.4-1.5,5.4-1.5,5.4-7.4c0-8.3,0-16.7,0-25
			c0-1,0.1-2.1-0.1-3.1c-0.9-4.5-2.3-8.8-7.3-10c-6-1.4-11.6-0.3-15.8,4.6c-3.2,3.7-4.9,8.1-4.8,13.1c0,7.1,0,14.1,0,21.2
			c0,5.6,0.1,5.7,5.5,6.4c0.1,1.1,0.1,2.2,0.2,3.6c-6.9,0-13.7,0-20.6,0c0-1.1,0-2.2,0-3.4c5.4-1.6,5.4-1.6,5.4-7.4
			c0-9.9,0-19.7,0-29.6c0-5.2-0.2-5.4-5.2-6.2c-0.5-3.5,6.2-7.9,11.9-7.6c0.7,2.5,1.4,5.1,2.3,8.2c3.8-4.6,7.8-8.2,13.3-9.2
			c7.6-1.4,14.8-1.1,20.5,5.1c3.4,3.6,4.2,8.2,4.3,12.9c0.1,8.9,0,17.9,0,26.8C674.6-726.3,674.6-726.3,680.1-725.3z"/>
		<path d="M782.4-777.5c16.4,0.9,28.2,13.8,27.2,29.8c-1,17.2-13.5,28.6-30.4,27.7c-15.7-0.9-27.1-12.3-26.8-29.1
			C752.7-766.7,765.6-778.4,782.4-777.5z M799.7-747.9c-0.4-3.3-0.6-5.8-1-8.3c-1.6-8.4-7.8-14.2-15.9-15.1
			c-8.2-0.9-14.9,3.2-18.3,11.4c-2.9,6.9-2.7,14-0.6,21.1c2.5,8.1,8.9,12.9,17,12.9s14.5-4.6,17-12.8
			C798.9-741.9,799.2-745.3,799.7-747.9z"/>
		<path d="M554.1-747.5c-0.7-17,10.7-29.4,27.6-30c16-0.5,28.9,11.2,29.4,26.8c0.6,17.5-10.6,30.1-27.3,30.7
			C567-719.4,554.7-730.8,554.1-747.5z M601.2-749.4c-0.2-1.8-0.4-4.3-0.9-6.8c-2-9.4-8.6-15.1-17.5-15.3c-8.3-0.2-15.4,5-17.5,13.9
			c-1.1,4.5-1.3,9.4-0.8,14.1c1.5,15,17.1,22.6,28.8,14C599.6-734.2,600.8-741.3,601.2-749.4z"/>
	</g>
	<g class="st1">
		<path d="M1171.8-613.1c-2.9-0.5-5.9-0.8-8.8-1.5c-13.9-3.1-22.8-11.6-27.1-25c-2.7-8.5-3.3-17.3-3.1-26.2
			c0.2-8.1,1.2-16.2,3.9-23.9c2.7-7.4,6.8-13.7,13.3-18.3c4.5-3.1,9.5-5,14.9-5.8c10.7-1.6,21.3-1.1,31.7,1.7
			c1.7,0.5,3.3,1.3,4.9,1.9c1,0.4,1.3,1.1,1,2.1c-1.1,4.7-2.2,9.4-3.4,14.1c-0.4,1.5-0.9,1.9-2.3,1.4c-6.8-2.4-13.9-2.8-21-2.5
			c-5.3,0.2-10.2,1.6-14.2,5.4c-3.5,3.3-5.5,7.5-6.5,12.1c-2.3,10.6-2.4,21.3,1,31.7c2.2,6.8,6.6,11.6,14,13
			c4.9,0.9,9.8,0.6,14.7-0.2c0.4-0.1,0.9-0.7,1-1.1c0.1-6,0-12,0-17.9c0-0.1-0.1-0.3-0.2-0.6c-3.6,0-7.2,0-10.8,0
			c-2.6,0-2.8-0.3-2.8-2.9c0-4.4,0-8.7,0-13.1c0-2,0.3-2.3,2.3-2.3c10,0,20,0,30,0c1.9,0,2.1,0.2,2.1,2.1c0,15.6,0,31.3,0,46.9
			c0,1.1-0.4,1.8-1.4,2.3c-6.3,3.6-13.2,5.6-20.4,6.4c-0.3,0-0.6,0.2-1,0.3C1179.9-613.1,1175.9-613.1,1171.8-613.1z"/>
		<path d="M1480.3-613.1c-1.9-0.4-3.7-0.6-5.6-1.1c-4.4-1-8.4-2.9-12.1-5.8c-0.2,1.2-0.4,2.1-0.5,3.1c-0.1,1.4-0.9,2-2.3,2
			c-3.6-0.1-7.2,0-10.7,0c-1.8,0-2.2-0.4-2.2-2.2c0-13.1,0-26.2,0-39.4c0-17.3,0-34.7,0-52c0-2.3,0.2-2.5,2.5-2.5
			c5.2,0,10.4,0,15.6,0c2.4,0,2.5,0.1,2.5,2.5c0,9.5,0,19.1,0,28.6c0,0.5,0,1.1,0,1.9c1.4-0.6,2.6-1.2,3.8-1.7
			c7.8-3.1,15.7-3.8,23.7-0.7c6.2,2.4,9.8,7.3,11.8,13.4c1,3.3,1.5,6.7,2.2,10.1c0.1,0.3,0.2,0.6,0.3,1c0,4.5,0,9,0,13.5
			c-0.1,0.4-0.2,0.8-0.3,1.3c-0.8,4.3-1.2,8.6-2.4,12.8c-2.1,7.1-6.4,12.3-13.9,14.3c-1.7,0.4-3.4,0.7-5.1,1.1
			C1485-613.1,1482.6-613.1,1480.3-613.1z M1467.1-647.8c0,4.5,0.1,8.9,0,13.4c0,1.3,0.5,1.9,1.6,2.4c3.4,1.5,6.8,2.2,10.5,2.1
			c4.7-0.1,7.3-2,8.5-6.5c1.4-5.4,1.5-11,0.9-16.5c-0.3-2.7-1-5.4-2-7.9c-1.1-2.7-3.4-4.3-6.3-4.7c-4.2-0.5-8.3,0.3-12.1,2.2
			c-0.9,0.4-1.2,1-1.2,1.9C1467.1-656.8,1467.1-652.3,1467.1-647.8z"/>
		<path d="M1396.2-613.1c-1.7-0.4-3.3-0.7-5-1.1c-8-2-12.3-7.4-13.5-15.3c-0.4-2.6-0.6-5.4-0.6-8c-0.1-13.4,0-26.7,0-40.1
			c0-2.4,0.3-2.7,2.7-2.7c5.2,0,10.5,0,15.7,0c2,0,2.4,0.4,2.4,2.4c0,13.5,0,26.9,0,40.4c0,5.4,2.5,7.6,7.9,7.7
			c3.5,0,6.7-0.9,9.8-2.5c1-0.5,1.4-1.1,1.4-2.3c0-14.4,0-28.8,0-43.2c0-2.4,0.2-2.6,2.6-2.6c5.1,0,10.3,0,15.4,0
			c2,0,2.3,0.3,2.3,2.3c0,20.3,0,40.7,0,61c0,2-0.3,2.2-2.2,2.2c-3.2,0-6.5,0-9.7,0c-1.4,0-2.2-0.4-2.3-1.9c0-0.8-0.3-1.6-0.5-2.6
			c-1.3,0.7-2.5,1.3-3.7,1.9c-4.1,2.1-8.4,3.5-12.9,4.1c-0.2,0-0.3,0.2-0.5,0.2C1402.5-613.1,1399.3-613.1,1396.2-613.1z"/>
		<path d="M1276.5-613.1c-2.3-0.4-4.6-0.6-6.9-1.1c-7.9-1.9-12.8-7.2-14-15.2c-0.4-2.4-0.5-4.9-0.6-7.3c-0.1-8.3-0.1-16.7,0-25
			c0-1.3-0.4-1.7-1.7-1.6c-2.4,0.1-4.9,0-7.3,0c-1.3,0-1.8-0.6-1.8-1.8c0-3.5,0-7.1,0-10.6c0-1.2,0.6-1.8,1.7-2
			c2.6-0.6,5.1-1.3,7.7-1.8c1.1-0.2,1.5-0.7,1.5-1.9c-0.1-5.3,0-10.6,0-15.9c0-1.7,0.2-1.9,1.9-1.9c5.5,0,11,0,16.5,0
			c1.3,0,1.9,0.4,1.9,1.8c-0.1,5,0,10,0,15c0,1.9,0,1.9,1.9,1.9c3.7,0,7.3,0,11,0c1.4,0,2,0.6,1.9,1.9c0,4.5,0,8.9,0,13.4
			c0,1.3-0.5,1.9-1.9,1.8c-3.7-0.1-7.4,0.1-11.2-0.1c-1.6-0.1-1.9,0.5-1.8,1.9c0.1,7.8,0.1,15.7,0,23.5c-0.1,5.9,3.2,7.8,7.9,8.1
			c1.7,0.1,3.5-0.1,5.3-0.3c1.4-0.1,2,0.4,2,1.8c0,3.9,0,7.8,0,11.8c0,1.1-0.4,1.6-1.4,1.8c-2.3,0.4-4.7,0.9-7,1.3
			c-0.4,0.1-0.8,0.2-1.3,0.3C1279.3-613.1,1277.9-613.1,1276.5-613.1z"/>
		<path d="M1291.9-790.1c-4,4-5.8,8.8-6.8,14c-0.1,0.4-0.4,0.9-0.8,1.1c-6.7,2.7-13.4,3.7-20.4,1c-4.8-1.9-8.3-5.3-11-9.6
			c-2.9-4.7-6.4-8.7-11.5-11.2c-3.2-1.5-6.5-2-10-1c-2.1,0.6-2.5,1.8-1.1,3.4c1.1,1.2,2.3,2.4,3.7,3.2c3.9,2.2,6.4,5.7,8.6,9.4
			c1.6,2.7,3,5.5,4.3,8.3c3.1,6.9,8.6,10.7,15.7,12.4c5.7,1.3,11.5,1.2,17.3,0.4c1.4-0.2,2.8-0.4,4.4-0.6c0,0.5,0,1,0,1.6
			c0,6.1-0.1,12.2,0.2,18.2c0.2,5.5-3.7,7.5-8.4,6c-11.5-3.8-22-9.5-31.7-16.8c-14.8-11.2-26.1-25.2-34-41.9
			c-4.6-9.8-7.7-20.1-9.3-30.8c-1.3-8.3-1.7-16.6-1.1-24.9c0.9-13.4,4.1-26.3,9.6-38.5c6.3-14,15.1-26.3,26.5-36.7
			c13.4-12.3,28.9-20.9,46.4-25.8c6.7-1.9,13.6-3.2,20.6-3.6c5.7-0.3,11.5-0.6,17.2-0.2c13.3,0.8,26.1,4,38.3,9.4
			c14.2,6.3,26.5,15.2,37,26.6c13.2,14.3,22.1,31,26.7,49.9c2.2,9.2,3.3,18.5,3.1,27.9c-0.3,17.5-4.3,34.2-12.3,49.9
			c-6.3,12.3-14.5,23.1-24.7,32.4c-11.3,10.3-24.3,18-38.8,23c-1.2,0.4-2.5,0.7-3.7,0.6c-3.5-0.4-5.1-2.4-5.1-6.1
			c0.1-9.9,0.2-19.8,0.2-29.7c0-2.3-0.2-4.6-0.5-6.9c-0.7-5.5-2.7-10.4-6.9-14.5c2.1-0.3,4-0.5,5.9-0.9c9.6-1.6,18.8-4.3,26.8-10.2
			c8.1-5.9,13.2-13.9,15.9-23.5c2.6-9.1,3.4-18.4,2.3-27.7c-1-8.6-4.5-16.3-10.2-22.9c-0.7-0.8-0.8-1.4-0.5-2.5
			c3.1-9.5,2.1-18.8-1.4-27.9c-0.2-0.4-1-0.9-1.6-0.9c-5.1-0.4-9.9,1-14.4,3.2c-4.9,2.4-9.6,5.2-14.4,7.8c-0.6,0.3-1.5,0.5-2.1,0.4
			c-9.6-2.6-19.4-3.7-29.3-3.5c-8.3,0.2-16.5,1.2-24.5,3.4c-1.1,0.3-1.9,0.2-2.8-0.4c-6.3-4.1-12.7-7.9-20-9.8
			c-2.7-0.7-5.7-0.8-8.5-1.1c-0.9-0.1-1.4,0.3-1.7,1.2c-3.5,9.2-4.3,18.6-1.1,28.1c0.3,1-0.2,1.5-0.7,2c-4,4.6-6.8,9.8-8.7,15.6
			c-2.1,6.7-2.2,13.6-1.7,20.5c0.4,5.4,1.2,10.7,2.8,15.8c4.5,14.3,14.1,23.8,28.2,28.8c6.1,2.2,12.5,3.5,18.9,4.2
			C1291.3-790.3,1291.5-790.2,1291.9-790.1z"/>
		<path d="M1319.7-656.3c0,0.8,0,1.4,0,1.9c0,12.3,0,24.7,0,37c0,2.1-0.3,2.5-2.4,2.5c-5.3,0-10.6,0-15.9,0c-1.9,0-2.2-0.3-2.2-2.2
			c0-30.6,0-61.2,0-91.8c0-1.8,0.3-2.1,2-2.1c5.5,0,11,0,16.5,0c1.8,0,2.1,0.3,2.1,2.2c0,10.6,0,21.2,0,31.7c0,0.6,0,1.2,0,1.9
			c0.6,0,1.1,0.1,1.5,0.1c8.3,0,16.6,0,24.8,0c1.4,0,1.6-0.5,1.6-1.7c0-10.6,0-21.3,0-31.9c0-2.1,0.2-2.3,2.4-2.3
			c5.4,0,10.8,0,16.2,0c1.7,0,2,0.4,2.1,2.1c0,30.6,0,61.2,0,91.8c0,1.8-0.4,2.2-2.3,2.2c-5.4,0-10.8,0-16.2,0
			c-1.8,0-2.1-0.4-2.1-2.1c0-12.5,0-25.1,0-37.6c0-1.4-0.4-1.7-1.7-1.7c-8.2,0.1-16.4,0-24.5,0
			C1321-656.3,1320.5-656.3,1319.7-656.3z"/>
		<path d="M1237.5-647.8c0,10,0,20,0,30c0,2.6-0.4,2.9-3,2.9c-4.8,0-9.7,0-14.5,0c-2.4,0-3.1-0.7-3.1-3.1c0-20,0-40.1,0-60.1
			c0-1.9,0.5-2.4,2.4-2.4c5.3,0,10.6,0,15.9,0c2.1,0,2.3,0.1,2.3,2.2C1237.5-668.1,1237.5-657.9,1237.5-647.8z"/>
		<path d="M1227.2-685.9c-6.4-0.2-11.4-5.3-11.2-11.7c0.1-6.4,5.5-11.5,11.8-11.3c6.1,0.2,11.2,5.6,11,11.7
			C1238.6-690.8,1233.5-685.8,1227.2-685.9z"/>
	</g>
</g>
<g id="Layer_2">
	<g>
		<g>
			<path class="st2" d="M121.6,6.8c0,0.1,0,0.2-0.1,0.4c-1.4,1.9-2.4,3.7-3.6,5.1l-0.7,0.7C83.5,47,49.8,81.2,16.1,115.2
				c-1,1-1.9,2-2.9,3c-0.2,0.2-0.4,0.4-0.5,0.5c-3.1,3-6.5,6.2-10.7,2.1c-1.7-1.7-2.2-3.3-1.9-4.8c0-0.1,0-0.2,0.1-0.4
				c1.4-1.9,2.4-3.7,3.7-5.2c0.2-0.2,0.5-0.5,0.7-0.7C38.2,75.8,71.9,41.7,105.6,7.6c1-1,1.9-2,2.9-3l0.1-0.1
				c0.2-0.2,0.4-0.4,0.6-0.6c3-2.9,6.4-6,10.5-1.9C121.5,3.7,121.9,5.3,121.6,6.8z"/>
			<path class="st2" d="M138.8,54c-18.3,18.4-36.5,36.9-54.9,55.2c-0.2,0.2-0.4,0.4-0.6,0.5c-1,1-2.1,2.1-3.1,3.1
				c-3,3-6.3,4.4-9.5,1.1c-3.3-3.4-1.6-6.7,1.3-9.6c18.3-18.4,36.5-36.9,54.9-55.2c0.2-0.2,0.4-0.4,0.7-0.6c0,0,0,0,0,0
				c1-1,2-2,3-3.1c3-3,6.3-4.4,9.5-1.1C143.3,47.7,141.7,51.1,138.8,54z"/>
		</g>
		<g>
			<path class="st2" d="M336.5,29.1c1-0.3,1.4-0.5,1.8-0.5c9.4-0.7,9.4-0.7,9.4,8.6c0.1,17.8,0.2,35.5,0.2,53.3
				c0,0.6-0.1,1.3-0.2,2.2c-3,0-5.8,0-9.1,0c-0.3-1.5-0.6-3.1-0.9-4.4c-2.9,1.7-5.5,3.9-8.5,4.9c-8.3,2.6-16.2-1.8-19.6-10.4
				c-2.7-6.7-2.7-13.7-1-20.7c2.7-11.1,14.9-20,28-10.5C336.5,43.8,336.5,36.5,336.5,29.1z M336.7,70.6c-0.1,0-0.1,0-0.2,0
				c0-2.2,0.2-4.4,0-6.5c-0.4-3.9-3.1-7-6.4-7.7c-3.9-0.8-7.3,0.7-9.3,4.5c-3.2,6.3-3.2,12.8-0.2,19.2c1.7,3.6,4.8,5.2,8.8,4.7
				c3.4-0.5,6.3-3.4,6.9-7.3C336.7,75.3,336.6,72.9,336.7,70.6z"/>
			<path class="st2" d="M255.3,92.7c-3.3,0-6.7,0-10.4,0c0-7.8,0-15.3,0-22.8c0-1.9,0-3.8-0.2-5.7c-0.7-5.2-3.3-7.7-7.4-7.6
				c-4.2,0.1-7.7,3.7-7.7,8.4c-0.2,7.8-0.1,15.6-0.1,23.4c0,1.4,0,2.7,0,4.4c-3.8,0-7.1,0-10.8,0c-0.1-1.4-0.2-2.6-0.2-3.8
				c0-18.7,0.1-37.3-0.1-56c0-3.6,1.1-4.8,4.6-4.4c2,0.2,4,0,6.5,0c0,8.3,0,16.1,0,24.8c4.4-4.2,8.6-6.6,13.9-5.9
				c6.5,0.9,11.3,5,11.8,12.6C255.9,70.8,255.3,81.7,255.3,92.7z"/>
			<path class="st2" d="M473.7,48.5c3.4,0,6.6,0,10.5,0c0,2.6,0,5.1,0,7.6c0,5.6,0,11.3,0,16.9c0,1.3,0,2.6,0.2,3.8
				c0.6,5.2,3.1,8,7.2,7.9c4.3-0.1,7.6-3.5,7.8-8.4c0.2-7.5,0.1-15.1,0.1-22.6c0-1.6,0-3.3,0-5.1c3.8,0,7.2,0,10.9,0
				c0,14.8,0,29.3,0,44.1c-2.8,0-5.7,0-8.8,0c-0.3-1.5-0.6-3.1-1.1-5.3c-3.6,4.3-7.9,6.5-13.2,6.4c-6-0.1-10.2-3-12.3-8.6
				c-0.5-1.4-1.1-3-1.1-4.4C473.7,70.1,473.7,59.6,473.7,48.5z"/>
			<path class="st2" d="M406.9,92.7c-3.8,0-7.1,0-10.9,0c0-14.7,0-29.2,0-44.1c2.8,0,5.8,0,8.9,0c0.3,1.6,0.6,3,0.8,4.1
				c3.3-1.7,6.4-3.9,9.8-4.8c7.8-2.1,14.3,1.8,16.8,9.5c0.2,0.6,0.5,1.2,0.5,1.8c0,11.1,0,22.2,0,33.4c-3.2,0-6.6,0-10.4,0
				c0-8.4,0-16.6,0-24.7c0-2-0.2-4.1-0.6-6.1c-0.7-3-2.6-5-5.7-5.4c-3.2-0.4-6,0.9-7.4,3.8c-1.1,2.2-1.6,4.9-1.7,7.3
				C406.8,75.9,406.9,84.2,406.9,92.7z"/>
			<path class="st2" d="M269.2,57.9c-3.2-6.7-2.8-7.6,3.9-9.3c1.7-0.5,3.5-0.8,5.3-1c12.7-1.7,20,4.1,20.5,16.9
				c0.4,9.3,0.1,18.6,0.1,28c-6.6,1.5-8.8,0.9-9.9-2.9c-3.3,1.3-6.5,3.2-10,3.9c-6,1.2-11.5-1.7-13.9-6.5
				c-2.7-5.4-1.6-12.6,2.5-16.8c3.8-3.9,8.7-5.3,13.8-6c2-0.3,4-0.4,6-0.6C288.8,55.4,281.9,53.3,269.2,57.9z M288.2,70.2
				c-4,1.3-7.7,1.8-10.7,3.5c-3.4,1.9-3.9,7.3-1.6,10.1c2.2,2.7,6.7,2.8,9.6,0c1.3-1.2,2.3-3.1,2.6-4.9
				C288.6,76.5,288.2,73.9,288.2,70.2z"/>
			<path class="st2" d="M182.6,83.5c3.7,0.8,7,1.7,10.4,2.1c2.8,0.3,5.6-0.5,6.3-3.7c0.8-3.1-1.1-5-3.7-6.4
				c-2.8-1.5-5.8-2.7-8.5-4.5c-7.7-5.2-7.5-15.9,0.4-20.9c6-3.8,12.4-3.4,18.8-1.1c0.8,0.3,1.5,1.9,1.4,2.9
				c-0.1,1.7-0.9,3.4-1.5,5.3c-2.4-0.6-4.7-1.4-7-1.7c-2.9-0.4-5.9-0.1-7,3.2c-1,3.3,1.5,4.8,3.9,6.1c2.7,1.4,5.6,2.6,8.1,4.3
				c4.7,3,6.3,7.6,5.4,13c-0.8,5.4-4.1,8.7-9.1,10.4c-5.5,1.8-11.1,1.4-16.6-0.1c-3-0.8-3.9-2.4-2.6-5.3
				C182,85.9,182.3,84.6,182.6,83.5z"/>
			<path class="st2" d="M386.9,57.3c-6.7-1.5-12.7-2.2-17,4c-3.4,4.9-3.5,13.4-0.3,18.3c3.4,5.1,7.6,6.2,17.7,4.3
				c0.4,2.1,0.9,4.1,1,6.2c0,0.8-1,2.1-1.7,2.3c-12.8,3.7-28.5,0.2-30.2-18.4c-1.6-17.3,10.4-28.8,27.3-26.1
				c5.4,0.8,5.4,0.8,4.1,6.3C387.6,55.1,387.3,56.1,386.9,57.3z"/>
			<path class="st2" d="M439.1,96.2c4.3-13.2,8.5-26,12.7-38.9c2.3-7,4.7-14.1,6.9-21.1c2.1-6.5,2.1-6.5,9.5-5.5
				c-1.9,5.9-3.8,11.7-5.7,17.5c-4.6,14.1-9.3,28.2-13.9,42.3C446.5,96.9,446.6,97,439.1,96.2z"/>
			<path class="st2" d="M532.1,92.7c-3.5,0-6.9,0-10.5,0c0-14.8,0-29.3,0-44.1c3.5,0,6.8,0,10.5,0C532.1,63.3,532.1,77.9,532.1,92.7
				z"/>
			<path class="st2" d="M532.9,36.8c-0.2,3.4-3,5.6-6.5,5.4c-3.5-0.2-5.7-2.9-5.4-6.5c0.3-3.5,2.9-5.7,6.5-5.4
				C531,30.5,533.1,33.1,532.9,36.8z"/>
		</g>
	</g>
</g>
</svg>
