<?xml version="1.0" encoding="utf-8"?>
<!-- Generator: Adobe Illustrator 23.1.0, SVG Export Plug-In . SVG Version: 6.00 Build 0)  -->
<svg version="1.1" id="Layer_1" xmlns="http://www.w3.org/2000/svg" xmlns:xlink="http://www.w3.org/1999/xlink" x="0px" y="0px"
	 viewBox="0 0 2198.7 1330" style="enable-background:new 0 0 2198.7 1330;" xml:space="preserve">
<style type="text/css">
	.st0{fill:none;}
	.st1{fill:#FFFFFF;}
	.st2{fill:#333333;}
	.st3{opacity:8.000000e-02;fill:url(#SVGID_1_);}
	.st4{fill:#6547EB;}
</style>
<pattern  x="629.3" y="-275" width="1120.2" height="1121.4" patternUnits="userSpaceOnUse" id="New_Pattern" viewBox="189.4 -1310.8 1120.2 1121.4" style="overflow:visible;">
	<g>
		<rect x="189.4" y="-1310.8" class="st0" width="1120.2" height="1121.4"/>
		<g>
			<path class="st1" d="M1499-167.5v-24.4h-58.8v0.6h-40v0h-68.7v-0.7h-24.4v58.8h0.6v40h0v68.7h-0.7V0h58.8v-0.6h40v0h68.7V0h24.4
				v-58.8h-0.6v-40h0v-68.7H1499z M1495.3-21.9h-1.3v17h-56.2v0.6h-37.6v0h-54.4v0.6h-16.7V-5h-17v-56.2h-0.6v-37.6h0v-54.4h-0.6
				V-170h1.3v-17h56.2v-0.6h37.6v0h54.4v-0.6h16.7v1.3h17v56.2h0.6v37.6h0v54.4h0.6V-21.9z"/>
		</g>
		<g>
			<path class="st1" d="M378.8-167.5v-24.4H320v0.6h-40v0h-68.7v-0.7h-24.4v58.8h0.6v40h0v68.7h-0.7V0h58.8v-0.6h40v0h68.7V0h24.4
				v-58.8h-0.6v-40h0v-68.7H378.8z M375.1-21.9h-1.3v17h-56.2v0.6H280v0h-54.4v0.6h-16.7V-5h-17v-56.2h-0.6v-37.6h0v-54.4h-0.6V-170
				h1.3v-17h56.2v-0.6h37.6v0h54.4v-0.6h16.7v1.3h17v56.2h0.6v37.6h0v54.4h0.6V-21.9z"/>
			<path class="st1" d="M565.5-167.5v-24.4h-58.8v0.6h-40v0h-68.7v-0.7h-24.4v58.8h0.6v40h0v68.7h-0.7V0h58.8v-0.6h40v0h68.7V0h24.4
				v-58.8h-0.6v-40h0v-68.7H565.5z M561.7-21.9h-1.3v17h-56.2v0.6h-37.6v0h-54.4v0.6h-16.7V-5h-17v-56.2H378v-37.6h0v-54.4h-0.6
				V-170h1.3v-17h56.2v-0.6h37.6v0h54.4v-0.6h16.7v1.3h17v56.2h0.6v37.6h0v54.4h0.6V-21.9z"/>
			<path class="st1" d="M752.1-167.5v-24.4h-58.8v0.6h-40v0h-68.7v-0.7h-24.4v58.8h0.6v40h0v68.7h-0.7V0H619v-0.6h40v0h68.7V0h24.4
				v-58.8h-0.6v-40h0v-68.7H752.1z M748.4-21.9h-1.3v17h-56.2v0.6h-37.6v0h-54.4v0.6h-16.7V-5h-17v-56.2h-0.6v-37.6h0v-54.4H564
				V-170h1.3v-17h56.2v-0.6H659v0h54.4v-0.6h16.7v1.3h17v56.2h0.6v37.6h0v54.4h0.6V-21.9z"/>
			<path class="st1" d="M938.8-167.5v-24.4H880v0.6h-40v0h-68.7v-0.7h-24.4v58.8h0.6v40h0v68.7h-0.7V0h58.8v-0.6h40v0h68.7V0h24.4
				v-58.8h-0.6v-40h0v-68.7H938.8z M935.1-21.9h-1.3v17h-56.2v0.6H840v0h-54.4v0.6h-16.7V-5h-17v-56.2h-0.6v-37.6h0v-54.4h-0.6V-170
				h1.3v-17h56.2v-0.6h37.6v0h54.4v-0.6h16.7v1.3h17v56.2h0.6v37.6h0v54.4h0.6V-21.9z"/>
			<path class="st1" d="M1125.5-167.5v-24.4h-58.8v0.6h-40v0h-68.7v-0.7h-24.4v58.8h0.6v40h0v68.7h-0.7V0h58.8v-0.6h40v0h68.7V0
				h24.4v-58.8h-0.6v-40h0v-68.7H1125.5z M1121.7-21.9h-1.3v17h-56.2v0.6h-37.6v0h-54.4v0.6h-16.7V-5h-17v-56.2H938v-37.6h0v-54.4
				h-0.6V-170h1.3v-17h56.2v-0.6h37.6v0h54.4v-0.6h16.7v1.3h17v56.2h0.6v37.6h0v54.4h0.6V-21.9z"/>
			<path class="st1" d="M1312.1-167.5v-24.4h-58.8v0.6h-40v0h-68.7v-0.7h-24.4v58.8h0.6v40h0v68.7h-0.7V0h58.8v-0.6h40v0h68.7V0
				h24.4v-58.8h-0.6v-40h0v-68.7H1312.1z M1308.4-21.9h-1.3v17h-56.2v0.6h-37.6v0h-54.4v0.6h-16.7V-5h-17v-56.2h-0.6v-37.6h0v-54.4
				h-0.6V-170h1.3v-17h56.2v-0.6h37.6v0h54.4v-0.6h16.7v1.3h17v56.2h0.6v37.6h0v54.4h0.6V-21.9z"/>
		</g>
		<g>
			<path class="st1" d="M191.9-167.5v-24.4h-58.8v0.6h-40v0H24.4v-0.7H0v58.8h0.6v40h0v68.7H0V0h58.8v-0.6h40v0h68.7V0h24.4v-58.8
				h-0.6v-40h0v-68.7H191.9z M188.2-21.9h-1.3v17h-56.2v0.6H93.1v0H38.7v0.6H21.9V-5H5v-56.2H4.4v-37.6h0v-54.4H3.7V-170H5v-17h56.2
				v-0.6h37.6v0h54.4v-0.6H170v1.3h17v56.2h0.6v37.6h0v54.4h0.6V-21.9z"/>
		</g>
		<g>
			<path class="st1" d="M1499-1288.9v-24.4h-58.8v0.6h-40v0h-68.7v-0.7h-24.4v58.8h0.6v40h0v68.7h-0.7v24.4h58.8v-0.6h40v0h68.7v0.7
				h24.4v-58.8h-0.6v-40h0v-68.7H1499z M1495.3-1143.3h-1.3v17h-56.2v0.6h-37.6v0h-54.4v0.6h-16.7v-1.3h-17v-56.2h-0.6v-37.6h0
				v-54.4h-0.6v-16.7h1.3v-17h56.2v-0.6h37.6v0h54.4v-0.6h16.7v1.3h17v56.2h0.6v37.6h0v54.4h0.6V-1143.3z"/>
			<path class="st1" d="M1499-1102v-24.4h-58.8v0.6h-40v0h-68.7v-0.7h-24.4v58.8h0.6v40h0v68.7h-0.7v24.4h58.8v-0.6h40v0h68.7v0.7
				h24.4v-58.8h-0.6v-40h0v-68.7H1499z M1495.3-956.4h-1.3v17h-56.2v0.6h-37.6v0h-54.4v0.6h-16.7v-1.3h-17v-56.2h-0.6v-37.6h0v-54.4
				h-0.6v-16.7h1.3v-17h56.2v-0.6h37.6v0h54.4v-0.6h16.7v1.3h17v56.2h0.6v37.6h0v54.4h0.6V-956.4z"/>
			<path class="st1" d="M1499-915.1v-24.4h-58.8v0.6h-40v0h-68.7v-0.7h-24.4v58.8h0.6v40h0v68.7h-0.7v24.4h58.8v-0.6h40v0h68.7v0.7
				h24.4v-58.8h-0.6v-40h0v-68.7H1499z M1495.3-769.5h-1.3v17h-56.2v0.6h-37.6v0h-54.4v0.6h-16.7v-1.3h-17v-56.2h-0.6v-37.6h0v-54.4
				h-0.6v-16.7h1.3v-17h56.2v-0.6h37.6v0h54.4v-0.6h16.7v1.3h17v56.2h0.6v37.6h0v54.4h0.6V-769.5z"/>
			<path class="st1" d="M1499-728.2v-24.4h-58.8v0.6h-40v0h-68.7v-0.7h-24.4v58.8h0.6v40h0v68.7h-0.7v24.4h58.8v-0.6h40v0h68.7v0.7
				h24.4v-58.8h-0.6v-40h0v-68.7H1499z M1495.3-582.6h-1.3v17h-56.2v0.6h-37.6v0h-54.4v0.6h-16.7v-1.3h-17v-56.2h-0.6v-37.6h0v-54.4
				h-0.6v-16.7h1.3v-17h56.2v-0.6h37.6v0h54.4v-0.6h16.7v1.3h17v56.2h0.6v37.6h0v54.4h0.6V-582.6z"/>
			<path class="st1" d="M1499-541.3v-24.4h-58.8v0.6h-40v0h-68.7v-0.7h-24.4v58.8h0.6v40h0v68.7h-0.7v24.4h58.8v-0.6h40v0h68.7v0.7
				h24.4v-58.8h-0.6v-40h0v-68.7H1499z M1495.3-395.7h-1.3v17h-56.2v0.6h-37.6v0h-54.4v0.6h-16.7v-1.3h-17V-435h-0.6v-37.6h0V-527
				h-0.6v-16.7h1.3v-17h56.2v-0.6h37.6v0h54.4v-0.6h16.7v1.3h17v56.2h0.6v37.6h0v54.4h0.6V-395.7z"/>
			<path class="st1" d="M1499-354.4v-24.4h-58.8v0.6h-40v0h-68.7v-0.7h-24.4v58.8h0.6v40h0v68.7h-0.7v24.4h58.8v-0.6h40v0h68.7v0.7
				h24.4v-58.8h-0.6v-40h0v-68.7H1499z M1495.3-208.9h-1.3v17h-56.2v0.6h-37.6v0h-54.4v0.6h-16.7v-1.3h-17v-56.2h-0.6v-37.6h0v-54.4
				h-0.6v-16.7h1.3v-17h56.2v-0.6h37.6v0h54.4v-0.6h16.7v1.3h17v56.2h0.6v37.6h0v54.4h0.6V-208.9z"/>
		</g>
		<g>
			<path class="st1" d="M378.8-1288.9v-24.4H320v0.6h-40v0h-68.7v-0.7h-24.4v58.8h0.6v40h0v68.7h-0.7v24.4h58.8v-0.6h40v0h68.7v0.7
				h24.4v-58.8h-0.6v-40h0v-68.7H378.8z M375.1-1143.3h-1.3v17h-56.2v0.6H280v0h-54.4v0.6h-16.7v-1.3h-17v-56.2h-0.6v-37.6h0v-54.4
				h-0.6v-16.7h1.3v-17h56.2v-0.6h37.6v0h54.4v-0.6h16.7v1.3h17v56.2h0.6v37.6h0v54.4h0.6V-1143.3z"/>
			<path class="st1" d="M565.5-1288.9v-24.4h-58.8v0.6h-40v0h-68.7v-0.7h-24.4v58.8h0.6v40h0v68.7h-0.7v24.4h58.8v-0.6h40v0h68.7
				v0.7h24.4v-58.8h-0.6v-40h0v-68.7H565.5z M561.7-1143.3h-1.3v17h-56.2v0.6h-37.6v0h-54.4v0.6h-16.7v-1.3h-17v-56.2H378v-37.6h0
				v-54.4h-0.6v-16.7h1.3v-17h56.2v-0.6h37.6v0h54.4v-0.6h16.7v1.3h17v56.2h0.6v37.6h0v54.4h0.6V-1143.3z"/>
			<path class="st1" d="M752.1-1288.9v-24.4h-58.8v0.6h-40v0h-68.7v-0.7h-24.4v58.8h0.6v40h0v68.7h-0.7v24.4H619v-0.6h40v0h68.7v0.7
				h24.4v-58.8h-0.6v-40h0v-68.7H752.1z M748.4-1143.3h-1.3v17h-56.2v0.6h-37.6v0h-54.4v0.6h-16.7v-1.3h-17v-56.2h-0.6v-37.6h0
				v-54.4H564v-16.7h1.3v-17h56.2v-0.6H659v0h54.4v-0.6h16.7v1.3h17v56.2h0.6v37.6h0v54.4h0.6V-1143.3z"/>
			<path class="st1" d="M938.8-1288.9v-24.4H880v0.6h-40v0h-68.7v-0.7h-24.4v58.8h0.6v40h0v68.7h-0.7v24.4h58.8v-0.6h40v0h68.7v0.7
				h24.4v-58.8h-0.6v-40h0v-68.7H938.8z M935.1-1143.3h-1.3v17h-56.2v0.6H840v0h-54.4v0.6h-16.7v-1.3h-17v-56.2h-0.6v-37.6h0v-54.4
				h-0.6v-16.7h1.3v-17h56.2v-0.6h37.6v0h54.4v-0.6h16.7v1.3h17v56.2h0.6v37.6h0v54.4h0.6V-1143.3z"/>
			<path class="st1" d="M1125.5-1288.9v-24.4h-58.8v0.6h-40v0h-68.7v-0.7h-24.4v58.8h0.6v40h0v68.7h-0.7v24.4h58.8v-0.6h40v0h68.7
				v0.7h24.4v-58.8h-0.6v-40h0v-68.7H1125.5z M1121.7-1143.3h-1.3v17h-56.2v0.6h-37.6v0h-54.4v0.6h-16.7v-1.3h-17v-56.2H938v-37.6h0
				v-54.4h-0.6v-16.7h1.3v-17h56.2v-0.6h37.6v0h54.4v-0.6h16.7v1.3h17v56.2h0.6v37.6h0v54.4h0.6V-1143.3z"/>
			<path class="st1" d="M1312.1-1288.9v-24.4h-58.8v0.6h-40v0h-68.7v-0.7h-24.4v58.8h0.6v40h0v68.7h-0.7v24.4h58.8v-0.6h40v0h68.7
				v0.7h24.4v-58.8h-0.6v-40h0v-68.7H1312.1z M1308.4-1143.3h-1.3v17h-56.2v0.6h-37.6v0h-54.4v0.6h-16.7v-1.3h-17v-56.2h-0.6v-37.6
				h0v-54.4h-0.6v-16.7h1.3v-17h56.2v-0.6h37.6v0h54.4v-0.6h16.7v1.3h17v56.2h0.6v37.6h0v54.4h0.6V-1143.3z"/>
			<path class="st1" d="M378.8-1102v-24.4H320v0.6h-40v0h-68.7v-0.7h-24.4v58.8h0.6v40h0v68.7h-0.7v24.4h58.8v-0.6h40v0h68.7v0.7
				h24.4v-58.8h-0.6v-40h0v-68.7H378.8z M375.1-956.4h-1.3v17h-56.2v0.6H280v0h-54.4v0.6h-16.7v-1.3h-17v-56.2h-0.6v-37.6h0v-54.4
				h-0.6v-16.7h1.3v-17h56.2v-0.6h37.6v0h54.4v-0.6h16.7v1.3h17v56.2h0.6v37.6h0v54.4h0.6V-956.4z"/>
			<path class="st1" d="M565.5-1102v-24.4h-58.8v0.6h-40v0h-68.7v-0.7h-24.4v58.8h0.6v40h0v68.7h-0.7v24.4h58.8v-0.6h40v0h68.7v0.7
				h24.4v-58.8h-0.6v-40h0v-68.7H565.5z M561.7-956.4h-1.3v17h-56.2v0.6h-37.6v0h-54.4v0.6h-16.7v-1.3h-17v-56.2H378v-37.6h0v-54.4
				h-0.6v-16.7h1.3v-17h56.2v-0.6h37.6v0h54.4v-0.6h16.7v1.3h17v56.2h0.6v37.6h0v54.4h0.6V-956.4z"/>
			<path class="st1" d="M752.1-1102v-24.4h-58.8v0.6h-40v0h-68.7v-0.7h-24.4v58.8h0.6v40h0v68.7h-0.7v24.4H619v-0.6h40v0h68.7v0.7
				h24.4v-58.8h-0.6v-40h0v-68.7H752.1z M748.4-956.4h-1.3v17h-56.2v0.6h-37.6v0h-54.4v0.6h-16.7v-1.3h-17v-56.2h-0.6v-37.6h0v-54.4
				H564v-16.7h1.3v-17h56.2v-0.6H659v0h54.4v-0.6h16.7v1.3h17v56.2h0.6v37.6h0v54.4h0.6V-956.4z"/>
			<path class="st1" d="M938.8-1102v-24.4H880v0.6h-40v0h-68.7v-0.7h-24.4v58.8h0.6v40h0v68.7h-0.7v24.4h58.8v-0.6h40v0h68.7v0.7
				h24.4v-58.8h-0.6v-40h0v-68.7H938.8z M935.1-956.4h-1.3v17h-56.2v0.6H840v0h-54.4v0.6h-16.7v-1.3h-17v-56.2h-0.6v-37.6h0v-54.4
				h-0.6v-16.7h1.3v-17h56.2v-0.6h37.6v0h54.4v-0.6h16.7v1.3h17v56.2h0.6v37.6h0v54.4h0.6V-956.4z"/>
			<path class="st1" d="M1125.5-1102v-24.4h-58.8v0.6h-40v0h-68.7v-0.7h-24.4v58.8h0.6v40h0v68.7h-0.7v24.4h58.8v-0.6h40v0h68.7v0.7
				h24.4v-58.8h-0.6v-40h0v-68.7H1125.5z M1121.7-956.4h-1.3v17h-56.2v0.6h-37.6v0h-54.4v0.6h-16.7v-1.3h-17v-56.2H938v-37.6h0
				v-54.4h-0.6v-16.7h1.3v-17h56.2v-0.6h37.6v0h54.4v-0.6h16.7v1.3h17v56.2h0.6v37.6h0v54.4h0.6V-956.4z"/>
			<path class="st1" d="M1312.1-1102v-24.4h-58.8v0.6h-40v0h-68.7v-0.7h-24.4v58.8h0.6v40h0v68.7h-0.7v24.4h58.8v-0.6h40v0h68.7v0.7
				h24.4v-58.8h-0.6v-40h0v-68.7H1312.1z M1308.4-956.4h-1.3v17h-56.2v0.6h-37.6v0h-54.4v0.6h-16.7v-1.3h-17v-56.2h-0.6v-37.6h0
				v-54.4h-0.6v-16.7h1.3v-17h56.2v-0.6h37.6v0h54.4v-0.6h16.7v1.3h17v56.2h0.6v37.6h0v54.4h0.6V-956.4z"/>
			<path class="st1" d="M378.8-915.1v-24.4H320v0.6h-40v0h-68.7v-0.7h-24.4v58.8h0.6v40h0v68.7h-0.7v24.4h58.8v-0.6h40v0h68.7v0.7
				h24.4v-58.8h-0.6v-40h0v-68.7H378.8z M375.1-769.5h-1.3v17h-56.2v0.6H280v0h-54.4v0.6h-16.7v-1.3h-17v-56.2h-0.6v-37.6h0v-54.4
				h-0.6v-16.7h1.3v-17h56.2v-0.6h37.6v0h54.4v-0.6h16.7v1.3h17v56.2h0.6v37.6h0v54.4h0.6V-769.5z"/>
			<path class="st1" d="M565.5-915.1v-24.4h-58.8v0.6h-40v0h-68.7v-0.7h-24.4v58.8h0.6v40h0v68.7h-0.7v24.4h58.8v-0.6h40v0h68.7v0.7
				h24.4v-58.8h-0.6v-40h0v-68.7H565.5z M561.7-769.5h-1.3v17h-56.2v0.6h-37.6v0h-54.4v0.6h-16.7v-1.3h-17v-56.2H378v-37.6h0v-54.4
				h-0.6v-16.7h1.3v-17h56.2v-0.6h37.6v0h54.4v-0.6h16.7v1.3h17v56.2h0.6v37.6h0v54.4h0.6V-769.5z"/>
			<path class="st1" d="M752.1-915.1v-24.4h-58.8v0.6h-40v0h-68.7v-0.7h-24.4v58.8h0.6v40h0v68.7h-0.7v24.4H619v-0.6h40v0h68.7v0.7
				h24.4v-58.8h-0.6v-40h0v-68.7H752.1z M748.4-769.5h-1.3v17h-56.2v0.6h-37.6v0h-54.4v0.6h-16.7v-1.3h-17v-56.2h-0.6v-37.6h0v-54.4
				H564v-16.7h1.3v-17h56.2v-0.6H659v0h54.4v-0.6h16.7v1.3h17v56.2h0.6v37.6h0v54.4h0.6V-769.5z"/>
			<path class="st1" d="M938.8-915.1v-24.4H880v0.6h-40v0h-68.7v-0.7h-24.4v58.8h0.6v40h0v68.7h-0.7v24.4h58.8v-0.6h40v0h68.7v0.7
				h24.4v-58.8h-0.6v-40h0v-68.7H938.8z M935.1-769.5h-1.3v17h-56.2v0.6H840v0h-54.4v0.6h-16.7v-1.3h-17v-56.2h-0.6v-37.6h0v-54.4
				h-0.6v-16.7h1.3v-17h56.2v-0.6h37.6v0h54.4v-0.6h16.7v1.3h17v56.2h0.6v37.6h0v54.4h0.6V-769.5z"/>
			<path class="st1" d="M1125.5-915.1v-24.4h-58.8v0.6h-40v0h-68.7v-0.7h-24.4v58.8h0.6v40h0v68.7h-0.7v24.4h58.8v-0.6h40v0h68.7
				v0.7h24.4v-58.8h-0.6v-40h0v-68.7H1125.5z M1121.7-769.5h-1.3v17h-56.2v0.6h-37.6v0h-54.4v0.6h-16.7v-1.3h-17v-56.2H938v-37.6h0
				v-54.4h-0.6v-16.7h1.3v-17h56.2v-0.6h37.6v0h54.4v-0.6h16.7v1.3h17v56.2h0.6v37.6h0v54.4h0.6V-769.5z"/>
			<path class="st1" d="M1312.1-915.1v-24.4h-58.8v0.6h-40v0h-68.7v-0.7h-24.4v58.8h0.6v40h0v68.7h-0.7v24.4h58.8v-0.6h40v0h68.7
				v0.7h24.4v-58.8h-0.6v-40h0v-68.7H1312.1z M1308.4-769.5h-1.3v17h-56.2v0.6h-37.6v0h-54.4v0.6h-16.7v-1.3h-17v-56.2h-0.6v-37.6h0
				v-54.4h-0.6v-16.7h1.3v-17h56.2v-0.6h37.6v0h54.4v-0.6h16.7v1.3h17v56.2h0.6v37.6h0v54.4h0.6V-769.5z"/>
			<path class="st1" d="M378.8-728.2v-24.4H320v0.6h-40v0h-68.7v-0.7h-24.4v58.8h0.6v40h0v68.7h-0.7v24.4h58.8v-0.6h40v0h68.7v0.7
				h24.4v-58.8h-0.6v-40h0v-68.7H378.8z M375.1-582.6h-1.3v17h-56.2v0.6H280v0h-54.4v0.6h-16.7v-1.3h-17v-56.2h-0.6v-37.6h0v-54.4
				h-0.6v-16.7h1.3v-17h56.2v-0.6h37.6v0h54.4v-0.6h16.7v1.3h17v56.2h0.6v37.6h0v54.4h0.6V-582.6z"/>
			<path class="st1" d="M565.5-728.2v-24.4h-58.8v0.6h-40v0h-68.7v-0.7h-24.4v58.8h0.6v40h0v68.7h-0.7v24.4h58.8v-0.6h40v0h68.7v0.7
				h24.4v-58.8h-0.6v-40h0v-68.7H565.5z M561.7-582.6h-1.3v17h-56.2v0.6h-37.6v0h-54.4v0.6h-16.7v-1.3h-17v-56.2H378v-37.6h0v-54.4
				h-0.6v-16.7h1.3v-17h56.2v-0.6h37.6v0h54.4v-0.6h16.7v1.3h17v56.2h0.6v37.6h0v54.4h0.6V-582.6z"/>
			<path class="st1" d="M752.1-728.2v-24.4h-58.8v0.6h-40v0h-68.7v-0.7h-24.4v58.8h0.6v40h0v68.7h-0.7v24.4H619v-0.6h40v0h68.7v0.7
				h24.4v-58.8h-0.6v-40h0v-68.7H752.1z M748.4-582.6h-1.3v17h-56.2v0.6h-37.6v0h-54.4v0.6h-16.7v-1.3h-17v-56.2h-0.6v-37.6h0v-54.4
				H564v-16.7h1.3v-17h56.2v-0.6H659v0h54.4v-0.6h16.7v1.3h17v56.2h0.6v37.6h0v54.4h0.6V-582.6z"/>
			<path class="st1" d="M938.8-728.2v-24.4H880v0.6h-40v0h-68.7v-0.7h-24.4v58.8h0.6v40h0v68.7h-0.7v24.4h58.8v-0.6h40v0h68.7v0.7
				h24.4v-58.8h-0.6v-40h0v-68.7H938.8z M935.1-582.6h-1.3v17h-56.2v0.6H840v0h-54.4v0.6h-16.7v-1.3h-17v-56.2h-0.6v-37.6h0v-54.4
				h-0.6v-16.7h1.3v-17h56.2v-0.6h37.6v0h54.4v-0.6h16.7v1.3h17v56.2h0.6v37.6h0v54.4h0.6V-582.6z"/>
			<path class="st1" d="M1125.5-728.2v-24.4h-58.8v0.6h-40v0h-68.7v-0.7h-24.4v58.8h0.6v40h0v68.7h-0.7v24.4h58.8v-0.6h40v0h68.7
				v0.7h24.4v-58.8h-0.6v-40h0v-68.7H1125.5z M1121.7-582.6h-1.3v17h-56.2v0.6h-37.6v0h-54.4v0.6h-16.7v-1.3h-17v-56.2H938v-37.6h0
				v-54.4h-0.6v-16.7h1.3v-17h56.2v-0.6h37.6v0h54.4v-0.6h16.7v1.3h17v56.2h0.6v37.6h0v54.4h0.6V-582.6z"/>
			<path class="st1" d="M1312.1-728.2v-24.4h-58.8v0.6h-40v0h-68.7v-0.7h-24.4v58.8h0.6v40h0v68.7h-0.7v24.4h58.8v-0.6h40v0h68.7
				v0.7h24.4v-58.8h-0.6v-40h0v-68.7H1312.1z M1308.4-582.6h-1.3v17h-56.2v0.6h-37.6v0h-54.4v0.6h-16.7v-1.3h-17v-56.2h-0.6v-37.6h0
				v-54.4h-0.6v-16.7h1.3v-17h56.2v-0.6h37.6v0h54.4v-0.6h16.7v1.3h17v56.2h0.6v37.6h0v54.4h0.6V-582.6z"/>
			<path class="st1" d="M378.8-541.3v-24.4H320v0.6h-40v0h-68.7v-0.7h-24.4v58.8h0.6v40h0v68.7h-0.7v24.4h58.8v-0.6h40v0h68.7v0.7
				h24.4v-58.8h-0.6v-40h0v-68.7H378.8z M375.1-395.7h-1.3v17h-56.2v0.6H280v0h-54.4v0.6h-16.7v-1.3h-17V-435h-0.6v-37.6h0V-527
				h-0.6v-16.7h1.3v-17h56.2v-0.6h37.6v0h54.4v-0.6h16.7v1.3h17v56.2h0.6v37.6h0v54.4h0.6V-395.7z"/>
			<path class="st1" d="M565.5-541.3v-24.4h-58.8v0.6h-40v0h-68.7v-0.7h-24.4v58.8h0.6v40h0v68.7h-0.7v24.4h58.8v-0.6h40v0h68.7v0.7
				h24.4v-58.8h-0.6v-40h0v-68.7H565.5z M561.7-395.7h-1.3v17h-56.2v0.6h-37.6v0h-54.4v0.6h-16.7v-1.3h-17V-435H378v-37.6h0V-527
				h-0.6v-16.7h1.3v-17h56.2v-0.6h37.6v0h54.4v-0.6h16.7v1.3h17v56.2h0.6v37.6h0v54.4h0.6V-395.7z"/>
			<path class="st1" d="M752.1-541.3v-24.4h-58.8v0.6h-40v0h-68.7v-0.7h-24.4v58.8h0.6v40h0v68.7h-0.7v24.4H619v-0.6h40v0h68.7v0.7
				h24.4v-58.8h-0.6v-40h0v-68.7H752.1z M748.4-395.7h-1.3v17h-56.2v0.6h-37.6v0h-54.4v0.6h-16.7v-1.3h-17V-435h-0.6v-37.6h0V-527
				H564v-16.7h1.3v-17h56.2v-0.6H659v0h54.4v-0.6h16.7v1.3h17v56.2h0.6v37.6h0v54.4h0.6V-395.7z"/>
			<path class="st1" d="M938.8-541.3v-24.4H880v0.6h-40v0h-68.7v-0.7h-24.4v58.8h0.6v40h0v68.7h-0.7v24.4h58.8v-0.6h40v0h68.7v0.7
				h24.4v-58.8h-0.6v-40h0v-68.7H938.8z M935.1-395.7h-1.3v17h-56.2v0.6H840v0h-54.4v0.6h-16.7v-1.3h-17V-435h-0.6v-37.6h0V-527
				h-0.6v-16.7h1.3v-17h56.2v-0.6h37.6v0h54.4v-0.6h16.7v1.3h17v56.2h0.6v37.6h0v54.4h0.6V-395.7z"/>
			<path class="st1" d="M1125.5-541.3v-24.4h-58.8v0.6h-40v0h-68.7v-0.7h-24.4v58.8h0.6v40h0v68.7h-0.7v24.4h58.8v-0.6h40v0h68.7
				v0.7h24.4v-58.8h-0.6v-40h0v-68.7H1125.5z M1121.7-395.7h-1.3v17h-56.2v0.6h-37.6v0h-54.4v0.6h-16.7v-1.3h-17V-435H938v-37.6h0
				V-527h-0.6v-16.7h1.3v-17h56.2v-0.6h37.6v0h54.4v-0.6h16.7v1.3h17v56.2h0.6v37.6h0v54.4h0.6V-395.7z"/>
			<path class="st1" d="M1312.1-541.3v-24.4h-58.8v0.6h-40v0h-68.7v-0.7h-24.4v58.8h0.6v40h0v68.7h-0.7v24.4h58.8v-0.6h40v0h68.7
				v0.7h24.4v-58.8h-0.6v-40h0v-68.7H1312.1z M1308.4-395.7h-1.3v17h-56.2v0.6h-37.6v0h-54.4v0.6h-16.7v-1.3h-17V-435h-0.6v-37.6h0
				V-527h-0.6v-16.7h1.3v-17h56.2v-0.6h37.6v0h54.4v-0.6h16.7v1.3h17v56.2h0.6v37.6h0v54.4h0.6V-395.7z"/>
			<path class="st1" d="M378.8-354.4v-24.4H320v0.6h-40v0h-68.7v-0.7h-24.4v58.8h0.6v40h0v68.7h-0.7v24.4h58.8v-0.6h40v0h68.7v0.7
				h24.4v-58.8h-0.6v-40h0v-68.7H378.8z M375.1-208.9h-1.3v17h-56.2v0.6H280v0h-54.4v0.6h-16.7v-1.3h-17v-56.2h-0.6v-37.6h0v-54.4
				h-0.6v-16.7h1.3v-17h56.2v-0.6h37.6v0h54.4v-0.6h16.7v1.3h17v56.2h0.6v37.6h0v54.4h0.6V-208.9z"/>
			<path class="st1" d="M565.5-354.4v-24.4h-58.8v0.6h-40v0h-68.7v-0.7h-24.4v58.8h0.6v40h0v68.7h-0.7v24.4h58.8v-0.6h40v0h68.7v0.7
				h24.4v-58.8h-0.6v-40h0v-68.7H565.5z M561.7-208.9h-1.3v17h-56.2v0.6h-37.6v0h-54.4v0.6h-16.7v-1.3h-17v-56.2H378v-37.6h0v-54.4
				h-0.6v-16.7h1.3v-17h56.2v-0.6h37.6v0h54.4v-0.6h16.7v1.3h17v56.2h0.6v37.6h0v54.4h0.6V-208.9z"/>
			<path class="st1" d="M752.1-354.4v-24.4h-58.8v0.6h-40v0h-68.7v-0.7h-24.4v58.8h0.6v40h0v68.7h-0.7v24.4H619v-0.6h40v0h68.7v0.7
				h24.4v-58.8h-0.6v-40h0v-68.7H752.1z M748.4-208.9h-1.3v17h-56.2v0.6h-37.6v0h-54.4v0.6h-16.7v-1.3h-17v-56.2h-0.6v-37.6h0v-54.4
				H564v-16.7h1.3v-17h56.2v-0.6H659v0h54.4v-0.6h16.7v1.3h17v56.2h0.6v37.6h0v54.4h0.6V-208.9z"/>
			<path class="st1" d="M938.8-354.4v-24.4H880v0.6h-40v0h-68.7v-0.7h-24.4v58.8h0.6v40h0v68.7h-0.7v24.4h58.8v-0.6h40v0h68.7v0.7
				h24.4v-58.8h-0.6v-40h0v-68.7H938.8z M935.1-208.9h-1.3v17h-56.2v0.6H840v0h-54.4v0.6h-16.7v-1.3h-17v-56.2h-0.6v-37.6h0v-54.4
				h-0.6v-16.7h1.3v-17h56.2v-0.6h37.6v0h54.4v-0.6h16.7v1.3h17v56.2h0.6v37.6h0v54.4h0.6V-208.9z"/>
			<path class="st1" d="M1125.5-354.4v-24.4h-58.8v0.6h-40v0h-68.7v-0.7h-24.4v58.8h0.6v40h0v68.7h-0.7v24.4h58.8v-0.6h40v0h68.7
				v0.7h24.4v-58.8h-0.6v-40h0v-68.7H1125.5z M1121.7-208.9h-1.3v17h-56.2v0.6h-37.6v0h-54.4v0.6h-16.7v-1.3h-17v-56.2H938v-37.6h0
				v-54.4h-0.6v-16.7h1.3v-17h56.2v-0.6h37.6v0h54.4v-0.6h16.7v1.3h17v56.2h0.6v37.6h0v54.4h0.6V-208.9z"/>
			<path class="st1" d="M1312.1-354.4v-24.4h-58.8v0.6h-40v0h-68.7v-0.7h-24.4v58.8h0.6v40h0v68.7h-0.7v24.4h58.8v-0.6h40v0h68.7
				v0.7h24.4v-58.8h-0.6v-40h0v-68.7H1312.1z M1308.4-208.9h-1.3v17h-56.2v0.6h-37.6v0h-54.4v0.6h-16.7v-1.3h-17v-56.2h-0.6v-37.6h0
				v-54.4h-0.6v-16.7h1.3v-17h56.2v-0.6h37.6v0h54.4v-0.6h16.7v1.3h17v56.2h0.6v37.6h0v54.4h0.6V-208.9z"/>
			<g>
				<polygon class="st1" points="1151.2,-787.4 1151,-786.9 1151,-786.9 1150.8,-786.5 1150.7,-786.5 1150.5,-786 1150.3,-785.6 
					1150.2,-785.7 1150,-785.2 1150.2,-785.1 1149.9,-784.7 1149.8,-784.7 1149.6,-784.3 1149.3,-783.9 1149.3,-783.9 1149,-783.5 
					1149.1,-783.4 1148.9,-783 1148.7,-783.1 1148.5,-782.6 1148.6,-782.5 1148.4,-782.1 1148.5,-782.1 1148.2,-781.6 
					1148.2,-781.7 1147.9,-781.2 1147.7,-780.8 1147.5,-780.4 1147.4,-780.4 1147.2,-780 1147.2,-779.9 1147,-779.5 1147.1,-779.4 
					1146.8,-779 1146.8,-779 1146.5,-778.6 1146.3,-778.2 1146.2,-778.2 1146,-777.8 1146.2,-777.7 1146,-777.2 1145.8,-777.3 
					1145.6,-776.8 1145.4,-776.4 1145.3,-776.5 1145.1,-776 1145.1,-776 1144.9,-775.5 1144.8,-775.6 1144.5,-775.2 1144.7,-775.1 
					1144.4,-774.7 1144.5,-774.6 1144.3,-774.2 1144.2,-774.2 1144,-773.8 1143.7,-773.3 1143.5,-772.9 1143.4,-772.9 
					1143.2,-772.5 1143.3,-772.5 1143.2,-772.3 1143.7,-772.2 1143.7,-772 1144.5,-771.7 1145.4,-771.4 1146.2,-771 1146.2,-770.9 
					1147.1,-770.6 1147.1,-770.7 1148,-770.4 1148.1,-770.7 1149,-770.4 1148.8,-770.1 1149.7,-769.8 1149.8,-769.9 1150.6,-769.6 
					1150.6,-769.5 1151.4,-769.1 1152.3,-768.8 1152.2,-768.5 1153.1,-768.2 1153.2,-768.7 1154.1,-768.3 1154,-768.2 
					1154.9,-767.9 1155.8,-767.5 1155.7,-767.4 1156.6,-767.1 1156.6,-767.2 1157.5,-766.9 1157.6,-767.1 1158.4,-766.8 
					1158.4,-766.6 1159.2,-766.3 1160.1,-766 1161,-765.6 1160.9,-765.5 1161.8,-765.2 1161.8,-765.3 1162.7,-765 1162.8,-765.3 
					1163.7,-765 1163.6,-764.7 1164.4,-764.4 1164.5,-764.5 1165.4,-764.2 1165.3,-764.1 1166.2,-763.7 1167,-763.4 1166.9,-763.1 
					1167.8,-762.8 1167.9,-763.3 1168.8,-763 1168.8,-762.8 1169.6,-762.5 1170.5,-762.2 1170.4,-762 1171.3,-761.7 1171.3,-761.8 
					1172.2,-761.5 1172.3,-761.7 1173.1,-761.4 1173.1,-761.2 1173.9,-760.9 1174.8,-760.6 1175.7,-760.2 1175.7,-760.1 
					1176.6,-759.8 1176.6,-759.9 1177.5,-759.6 1177.7,-759.9 1178.6,-759.5 1178.5,-759.2 1179.4,-758.9 1179.4,-759.1 
					1179.6,-759 1179.1,-759.5 1179.3,-759.7 1178.7,-760.4 1178.5,-760.3 1177.9,-761 1178,-761.1 1177.3,-761.8 1176.6,-762.5 
					1176.9,-762.7 1176.2,-763.4 1175.8,-763.1 1175.1,-763.8 1175.3,-763.9 1174.6,-764.6 1173.9,-765.3 1174,-765.4 
					1173.3,-766.1 1173.2,-766 1172.6,-766.7 1172.4,-766.6 1171.8,-767.3 1171.9,-767.4 1171.2,-768.1 1170.5,-768.8 
					1169.8,-769.5 1169.9,-769.6 1169.3,-770.3 1169.2,-770.2 1168.5,-770.9 1168.2,-770.7 1167.6,-771.3 1167.8,-771.6 
					1167.1,-772.3 1167,-772.2 1166.3,-772.9 1166.4,-773 1165.8,-773.7 1165.1,-774.4 1165.3,-774.6 1164.6,-775.3 1164.3,-775 
					1163.6,-775.6 1163.7,-775.8 1163,-776.5 1162.4,-777.2 1162.5,-777.3 1161.8,-778 1161.7,-777.9 1161,-778.6 1160.9,-778.4 
					1160.2,-779.1 1160.3,-779.3 1159.6,-780 1159,-780.6 1158.3,-781.3 1158.4,-781.4 1157.7,-782.1 1157.6,-782 1156.9,-782.7 
					1156.7,-782.5 1156,-783.2 1156.2,-783.4 1155.6,-784.1 1155.4,-784 1154.8,-784.7 1154.9,-784.8 1154.2,-785.5 1153.5,-786.2 
					1153.8,-786.4 1153.1,-787.1 1152.7,-786.8 1152,-787.5 1152.2,-787.6 1151.6,-788.2 1151.4,-787.8 1151.4,-787.8 
					1151.1,-787.4 				"/>
				<polygon class="st1" points="1094.5,-809 1094.7,-808.9 1094.2,-809.1 1094.3,-809 1094.5,-808.8 1094.8,-808.5 1094.7,-808.4 
					1095.3,-807.8 1095.4,-807.9 1096.1,-807.2 1096.2,-807.3 1096.9,-806.6 1096.8,-806.5 1097.5,-805.8 1098.1,-805.1 
					1098.9,-804.3 1098.8,-804.2 1099.5,-803.5 1099.6,-803.6 1100.3,-802.8 1100.6,-803.1 1101.3,-802.3 1101.1,-802.1 
					1101.8,-801.3 1101.9,-801.4 1102.7,-800.7 1102.5,-800.6 1103.3,-799.8 1104,-799.1 1103.8,-798.8 1104.5,-798.1 
					1104.9,-798.4 1105.6,-797.7 1105.5,-797.6 1106.2,-796.8 1106.9,-796.1 1106.8,-796 1107.6,-795.2 1107.7,-795.3 
					1108.4,-794.5 1108.5,-794.7 1109.3,-793.9 1109.1,-793.8 1109.9,-793 1110.6,-792.3 1111.3,-791.5 1111.2,-791.4 1112,-790.7 
					1112.1,-790.8 1112.8,-790 1113.1,-790.3 1113.8,-789.5 1113.5,-789.3 1114.3,-788.5 1114.4,-788.6 1115.1,-787.9 1115,-787.8 
					1115.7,-787 1116.5,-786.3 1116.3,-786 1117,-785.3 1117.3,-785.6 1118.1,-784.9 1117.9,-784.8 1118.7,-784 1119.4,-783.3 
					1119.3,-783.2 1120,-782.4 1120.2,-782.5 1120.9,-781.7 1121,-781.9 1121.7,-781.1 1121.6,-781 1122.4,-780.2 1123.1,-779.5 
					1122.9,-779.3 1123.2,-779.2 1123.3,-779.7 1124.3,-779.3 1124.3,-779.1 1125.2,-778.8 1126.1,-778.4 1126.1,-778.3 1127,-778 
					1127,-778.1 1127.9,-777.8 1128,-777.9 1128.9,-777.6 1128.8,-777.4 1129.8,-777.1 1130.7,-776.8 1131.5,-776.4 1131.5,-776.3 
					1132.3,-776 1132.4,-776.1 1133.3,-775.8 1133.4,-776.1 1134.2,-775.8 1134.1,-775.5 1135,-775.2 1135.1,-775.3 1135.9,-775 
					1135.9,-774.9 1136.7,-774.5 1137.6,-774.2 1137.5,-773.9 1138.4,-773.6 1138.5,-774.1 1139.4,-773.7 1139.3,-773.6 
					1140.2,-773.3 1141.1,-772.9 1141,-772.8 1141.9,-772.5 1141.9,-772.6 1142.7,-772.4 1142.8,-772.7 1142.8,-772.7 1143,-773.2 
					1143.1,-773.1 1143.3,-773.6 1143.5,-774 1143.8,-774.4 1143.8,-774.4 1144.1,-774.9 1144,-774.9 1144.2,-775.3 1144.1,-775.4 
					1144.3,-775.8 1144.5,-775.8 1144.7,-776.2 1144.6,-776.2 1144.9,-776.7 1144.9,-776.6 1145.2,-777.1 1145.4,-777.5 
					1145.6,-777.4 1145.8,-777.9 1145.6,-778 1145.8,-778.4 1145.9,-778.4 1146.1,-778.8 1146.3,-779.3 1146.4,-779.2 
					1146.6,-779.7 1146.6,-779.7 1146.8,-780.1 1146.7,-780.2 1147,-780.6 1147,-780.6 1147.3,-781 1147.5,-781.5 1147.7,-781.9 
					1147.8,-781.9 1148,-782.3 1148,-782.3 1148.2,-782.8 1148.1,-782.9 1148.3,-783.3 1148.4,-783.2 1148.7,-783.6 1148.6,-783.7 
					1148.8,-784.1 1148.9,-784.1 1149.1,-784.5 1149.4,-785 1149.5,-784.9 1149.7,-785.3 1149.5,-785.4 1149.8,-785.9 
					1149.8,-785.8 1150.1,-786.3 1150.3,-786.7 1150.4,-786.7 1150.6,-787.1 1150.5,-787.2 1150.8,-787.6 1150.7,-787.6 
					1150.9,-788.1 1151,-788 1151.2,-788.5 1150.8,-788.6 1150.9,-788.8 1149.9,-789.1 1149.9,-789 1149,-789.3 1148.9,-789.1 
					1148,-789.5 1148.1,-789.6 1147.1,-790 1146.2,-790.3 1145.3,-790.6 1145.4,-790.8 1144.5,-791.1 1144.4,-791 1143.5,-791.3 
					1143.4,-791 1142.5,-791.3 1142.6,-791.6 1141.7,-792 1141.6,-791.8 1140.7,-792.1 1140.7,-792.3 1139.8,-792.6 1138.9,-793 
					1139,-793.3 1138.1,-793.6 1137.9,-793.1 1137,-793.5 1137.1,-793.6 1136.2,-794 1135.3,-794.3 1135.3,-794.5 1134.4,-794.8 
					1134.4,-794.7 1133.4,-795 1133.4,-794.8 1132.5,-795.2 1132.5,-795.3 1131.6,-795.7 1130.7,-796 1129.8,-796.3 1129.8,-796.5 
					1128.9,-796.8 1128.9,-796.7 1128,-797 1127.8,-796.7 1126.9,-797 1127,-797.3 1126.1,-797.7 1126.1,-797.5 1125.2,-797.8 
					1125.2,-798 1124.3,-798.3 1123.4,-798.7 1123.5,-799 1122.6,-799.3 1122.4,-798.8 1121.5,-799.2 1121.6,-799.3 1120.6,-799.7 
					1119.7,-800 1119.8,-800.2 1118.9,-800.5 1118.8,-800.3 1117.9,-800.7 1117.8,-800.5 1116.9,-800.9 1117,-801 1116.1,-801.4 
					1115.2,-801.7 1114.2,-802 1114.3,-802.2 1113.4,-802.5 1113.3,-802.4 1112.4,-802.7 1112.3,-802.4 1111.4,-802.7 1111.5,-803 
					1110.6,-803.4 1110.5,-803.2 1109.6,-803.5 1109.7,-803.7 1108.8,-804 1107.8,-804.4 1108,-804.7 1107,-805 1106.9,-804.5 
					1106,-804.9 1106,-805 1105.1,-805.4 1104.2,-805.7 1104.2,-805.8 1103.3,-806.2 1103.3,-806 1102.4,-806.4 1102.3,-806.2 
					1101.4,-806.6 1101.4,-806.7 1100.5,-807.1 1099.6,-807.4 1098.7,-807.7 1098.8,-807.9 1097.8,-808.2 1097.8,-808.1 
					1096.9,-808.4 1096.8,-808.1 1095.9,-808.4 1096,-808.7 1095.2,-809 1095.1,-808.9 1094.9,-808.9 1094.8,-809.2 1094.5,-809.3 
					1094.4,-809.3 1094,-809.4 1093,-810.2 1092.6,-810.3 1092.9,-810 				"/>
				<polygon class="st1" points="1141.9,-770.9 1142.1,-771.4 1142.2,-771.5 1141.6,-771.7 1141.5,-771.6 1140.7,-771.9 
					1140.7,-772 1139.9,-772.4 1139,-772.7 1139,-772.8 1138.2,-773.2 1138,-772.7 1137.2,-773 1137.3,-773.3 1136.4,-773.6 
					1135.5,-773.9 1135.6,-774.1 1134.7,-774.4 1134.7,-774.3 1133.8,-774.6 1133.9,-774.9 1133,-775.2 1132.9,-774.9 
					1132.1,-775.2 1132,-775.1 1131.1,-775.4 1131.2,-775.5 1130.3,-775.8 1129.4,-776.2 1128.5,-776.5 1128.6,-776.7 1127.7,-777 
					1127.6,-776.8 1126.7,-777.2 1126.6,-777 1125.7,-777.4 1125.8,-777.5 1124.9,-777.9 1123.9,-778.2 1124,-778.4 1123.2,-778.7 
					1123.1,-778.2 1122.9,-778.4 1122.5,-777.6 1122.1,-776.8 1121.9,-776.9 1121.4,-776 1121.6,-775.9 1121.1,-775.1 
					1120.8,-775.2 1120.4,-774.4 1120.7,-774.2 1120.2,-773.3 1120.4,-773.3 1119.9,-772.4 1119.8,-772.5 1119.3,-771.6 
					1118.8,-770.7 1118.3,-769.7 1118.1,-769.8 1117.6,-768.9 1117.8,-768.8 1117.3,-767.8 1117.4,-767.7 1116.9,-766.8 
					1116.8,-766.9 1116.3,-765.9 1115.8,-765 1115.6,-765 1115.1,-764.1 1115.5,-763.9 1115,-762.9 1114.7,-763 1114.2,-762.1 
					1113.7,-761.1 1113.6,-761.2 1113.1,-760.3 1113.2,-760.2 1112.7,-759.2 1112.4,-759.4 1111.9,-758.4 1112.2,-758.3 
					1111.7,-757.3 1111.8,-757.3 1111.3,-756.3 1111.2,-756.4 1110.7,-755.4 1110.2,-754.5 1109.7,-753.5 1109.5,-753.6 
					1109,-752.6 1109.2,-752.6 1108.7,-751.6 1108.8,-751.5 1108.3,-750.6 1108.1,-750.6 1107.6,-749.7 1107.1,-748.7 1107,-748.8 
					1106.5,-747.9 1106.9,-747.6 1106.4,-746.7 1106.1,-746.8 1105.6,-745.9 1105.1,-744.9 1104.9,-745 1104.4,-744.1 1104.6,-744 
					1104.1,-743 1103.8,-743.2 1103.3,-742.2 1103.6,-742.1 1103.1,-741.1 1103.2,-741 1102.7,-740.1 1102.6,-740.2 1102.1,-739.2 
					1101.5,-738.3 1101,-737.3 1100.9,-737.4 1100.4,-736.4 1100.5,-736.3 1100,-735.4 1100.2,-735.3 1099.6,-734.4 1099.5,-734.4 
					1099,-733.5 1098.7,-732.9 1098.8,-732.9 1098.8,-732.8 1099.2,-732.6 1099.3,-732.9 1099.8,-732.7 1099.7,-732.6 
					1100.1,-732.4 1100.6,-732.2 1100.5,-732.2 1101,-732 1101,-732.1 1101.5,-731.9 1101.4,-731.8 1101.8,-731.6 1101.9,-731.8 
					1102.3,-731.6 1102.4,-731.7 1102.8,-731.5 1102.8,-731.4 1103.2,-731.3 1103.6,-731.1 1104.1,-731 1104.1,-730.9 
					1104.5,-730.7 1104.5,-730.8 1105,-730.6 1105,-730.7 1105.4,-730.5 1105.4,-730.5 1105.8,-730.3 1106.3,-730.1 1106.2,-730.1 
					1106.7,-729.9 1106.8,-730.1 1107.2,-730 1107.2,-729.8 1107.6,-729.7 1108,-729.5 1108,-729.4 1108.4,-729.3 1108.5,-729.3 
					1108.9,-729.2 1108.9,-729 1109.3,-728.9 1109.3,-729 1109.8,-728.9 1109.8,-728.9 1110.3,-728.8 1110.2,-728.7 1110.7,-728.5 
					1111.1,-728.4 1111.5,-728.2 1111.5,-728.1 1111.9,-728 1112,-728.1 1112.4,-727.9 1112.4,-728 1112.9,-727.8 1112.9,-727.7 
					1113.3,-727.6 1113.7,-727.4 1113.7,-727.3 1114.1,-727.2 1114.2,-727.4 1114.7,-727.2 1114.6,-727.1 1115.1,-726.9 
					1115.5,-726.8 1115.5,-726.7 1115.9,-726.5 1115.9,-726.6 1116.4,-726.4 1116.3,-726.3 1116.7,-726.1 1116.8,-726.3 
					1117.2,-726.1 1117.3,-726.2 1117.7,-726 1117.7,-726 1117.8,-725.9 1118.1,-726.4 1118.2,-726.3 1118.4,-726.8 1118.6,-727.2 
					1118.7,-727.1 1118.9,-727.6 1118.9,-727.6 1119.1,-728 1119,-728.1 1119.2,-728.5 1119.3,-728.5 1119.5,-728.9 1119.8,-729.3 
					1120,-729.8 1120.1,-729.7 1120.3,-730.2 1120.2,-730.2 1120.5,-730.6 1120.3,-730.7 1120.5,-731.2 1120.7,-731.1 
					1120.9,-731.5 1120.9,-731.6 1121.1,-732 1121.2,-732 1121.4,-732.4 1121.6,-732.8 1121.8,-732.8 1122,-733.2 1121.8,-733.3 
					1122,-733.7 1122.1,-733.7 1122.3,-734.1 1122.6,-734.6 1122.6,-734.5 1122.9,-735 1122.8,-735 1123,-735.5 1123,-735.5 
					1123.2,-735.9 1123.3,-735.9 1123.5,-736.3 1123.7,-736.8 1124,-737.2 1124,-737.2 1124.3,-737.6 1124.2,-737.7 1124.4,-738.1 
					1124.3,-738.2 1124.5,-738.6 1124.7,-738.5 1124.9,-739 1124.8,-739 1125.1,-739.4 1125.1,-739.4 1125.4,-739.8 1125.6,-740.3 
					1125.7,-740.2 1126,-740.6 1125.8,-740.8 1126,-741.2 1126.1,-741.2 1126.3,-741.6 1126.5,-742 1126.6,-742 1126.8,-742.4 
					1126.8,-742.5 1127,-742.9 1126.9,-742.9 1127.2,-743.4 1127.2,-743.3 1127.5,-743.8 1127.7,-744.2 1127.9,-744.7 1128,-744.6 
					1128.2,-745.1 1128.2,-745.1 1128.4,-745.5 1128.2,-745.6 1128.5,-746.1 1128.6,-746 1128.9,-746.4 1128.8,-746.5 1129,-746.9 
					1129.1,-746.9 1129.3,-747.3 1129.6,-747.7 1129.7,-747.7 1129.9,-748.1 1129.7,-748.2 1129.9,-748.6 1130,-748.6 1130.3,-749 
					1130.5,-749.5 1130.6,-749.4 1130.8,-749.9 1130.7,-749.9 1131,-750.4 1130.9,-750.4 1131.1,-750.8 1131.2,-750.8 
					1131.4,-751.2 1131.7,-751.7 1131.9,-752.1 1132,-752.1 1132.2,-752.5 1132.1,-752.5 1132.4,-753 1132.2,-753.1 1132.4,-753.5 
					1132.6,-753.4 1132.8,-753.9 1132.7,-753.9 1133,-754.3 1133.1,-754.3 1133.3,-754.7 1133.5,-755.2 1133.7,-755.1 
					1133.9,-755.5 1133.7,-755.7 1133.9,-756.1 1134,-756.1 1134.2,-756.5 1134.5,-756.9 1134.5,-756.9 1134.8,-757.3 
					1134.7,-757.4 1134.9,-757.8 1134.8,-757.8 1135.1,-758.3 1135.2,-758.2 1135.4,-758.7 1135.6,-759.1 1135.9,-759.6 
					1135.9,-759.5 1136.2,-760 1136.1,-760 1136.3,-760.4 1136.2,-760.5 1136.4,-760.9 1136.6,-760.9 1136.8,-761.3 1136.7,-761.3 
					1136.9,-761.8 1137,-761.7 1137.3,-762.2 1137.5,-762.6 1137.6,-762.5 1137.9,-763 1137.6,-763.1 1137.9,-763.5 1138,-763.5 
					1138.2,-763.9 1138.4,-764.4 1138.5,-764.3 1138.7,-764.8 1138.7,-764.8 1138.9,-765.2 1138.8,-765.3 1139,-765.7 
					1139.1,-765.7 1139.4,-766.1 1139.6,-766.6 1139.8,-767 1139.9,-767 1140.1,-767.4 1140.1,-767.4 1140.3,-767.9 1140.1,-768 
					1140.4,-768.4 1140.5,-768.3 1140.7,-768.8 1140.7,-768.8 1140.9,-769.2 1141,-769.2 1141.2,-769.6 1141.4,-770.1 1141.6,-770 
					1141.8,-770.4 1141.6,-770.5 1141.8,-771 				"/>
				<polygon class="st1" points="1060.2,-747.1 1060.7,-746.9 1060.7,-746.9 1061.1,-746.7 1061.5,-746.6 1061.5,-746.5 
					1061.9,-746.3 1062,-746.5 1062.5,-746.4 1062.4,-746.2 1062.9,-746.1 1063.3,-745.9 1063.3,-745.8 1063.7,-745.7 
					1063.7,-745.8 1064.2,-745.6 1064.1,-745.4 1064.5,-745.3 1064.6,-745.4 1065,-745.3 1065.1,-745.3 1065.5,-745.2 
					1065.5,-745.1 1065.9,-745 1066.4,-744.8 1066.8,-744.6 1066.8,-744.5 1067.2,-744.4 1067.2,-744.5 1067.7,-744.3 
					1067.7,-744.4 1068.1,-744.2 1068.1,-744.1 1068.6,-744 1069,-743.8 1069,-743.7 1069.4,-743.6 1069.5,-743.8 1069.9,-743.6 
					1069.9,-743.5 1070.3,-743.3 1070.7,-743.2 1070.7,-743.1 1071.2,-742.9 1071.2,-743 1071.6,-742.9 1071.6,-742.7 1072,-742.5 
					1072.1,-742.7 1072.5,-742.5 1072.5,-742.6 1073,-742.4 1072.9,-742.4 1073.4,-742.2 1073.8,-742.1 1074.3,-741.9 
					1074.2,-741.8 1074.7,-741.7 1074.7,-741.7 1075.1,-741.6 1075.2,-741.6 1075.6,-741.5 1075.6,-741.4 1076,-741.3 
					1076.5,-741.1 1076.4,-741 1076.9,-740.8 1076.9,-741.1 1077.4,-740.9 1077.3,-740.8 1077.8,-740.6 1078.2,-740.4 
					1078.2,-740.4 1078.6,-740.2 1078.6,-740.3 1079.1,-740.1 1079,-740 1079.5,-739.8 1079.5,-740 1080,-739.8 1080,-739.9 
					1080.4,-739.7 1080.4,-739.6 1080.8,-739.5 1081.3,-739.3 1081.7,-739.2 1081.7,-739.1 1082.1,-738.9 1082.2,-739 
					1082.6,-738.8 1082.6,-738.9 1083.1,-738.7 1083,-738.7 1083.5,-738.5 1083.9,-738.4 1083.9,-738.3 1084.3,-738.1 
					1084.4,-738.3 1084.8,-738.2 1084.8,-738 1085.2,-737.9 1085.7,-737.7 1085.6,-737.6 1086.1,-737.5 1086.1,-737.6 
					1086.5,-737.4 1086.5,-737.2 1086.9,-737.1 1087,-737.2 1087.4,-737.1 1087.4,-737.1 1087.9,-737 1087.9,-736.9 1088.3,-736.7 
					1088.7,-736.6 1089.2,-736.4 1089.1,-736.3 1089.6,-736.2 1089.6,-736.3 1090,-736.1 1090.1,-736.2 1090.5,-736 1090.5,-735.9 
					1090.9,-735.8 1091.4,-735.6 1091.3,-735.5 1091.8,-735.4 1091.9,-735.6 1092.3,-735.4 1092.2,-735.3 1092.7,-735.1 
					1093.1,-735 1093.1,-734.9 1093.5,-734.7 1093.6,-734.8 1094,-734.7 1093.9,-734.5 1094.4,-734.3 1094.4,-734.5 1094.9,-734.3 
					1094.9,-734.4 1095.3,-734.2 1095.3,-734.2 1095.8,-734 1096.2,-733.8 1096.6,-733.7 1096.6,-733.6 1097,-733.4 1097.1,-733.5 
					1097.5,-733.4 1097.5,-733.4 1097.8,-733.3 1098.2,-733.9 1098.7,-734.9 1098.8,-734.8 1099.3,-735.8 1099.2,-735.8 
					1099.7,-736.8 1099.5,-736.9 1100,-737.8 1100.2,-737.8 1100.7,-738.7 1101.2,-739.7 1101.7,-740.6 1101.8,-740.5 
					1102.3,-741.5 1102.2,-741.6 1102.7,-742.5 1102.4,-742.7 1102.9,-743.6 1103.2,-743.5 1103.7,-744.4 1103.6,-744.5 
					1104.1,-745.5 1104.2,-745.4 1104.7,-746.3 1105.3,-747.3 1105.5,-747.1 1106,-748.1 1105.6,-748.3 1106.1,-749.3 
					1106.3,-749.2 1106.8,-750.2 1107.3,-751.1 1107.4,-751 1107.9,-752 1107.8,-752.1 1108.3,-753 1108.1,-753.1 1108.7,-754 
					1108.8,-754 1109.3,-754.9 1109.8,-755.9 1110.3,-756.8 1110.5,-756.8 1111,-757.7 1110.8,-757.8 1111.3,-758.7 1111,-758.9 
					1111.6,-759.8 1111.9,-759.7 1112.4,-760.6 1112.2,-760.7 1112.7,-761.7 1112.9,-761.6 1113.4,-762.6 1113.9,-763.5 
					1114.2,-763.4 1114.7,-764.3 1114.2,-764.5 1114.7,-765.5 1114.9,-765.4 1115.4,-766.4 1115.9,-767.3 1116,-767.3 
					1116.6,-768.2 1116.4,-768.3 1116.9,-769.2 1116.8,-769.3 1117.3,-770.3 1117.4,-770.2 1117.9,-771.1 1118.5,-772.1 
					1118.9,-772.9 1119,-772.9 1119.5,-773.7 1119.4,-773.8 1119.8,-774.7 1119.5,-774.8 1120,-775.7 1120.3,-775.5 1120.7,-776.4 
					1120.6,-776.5 1121,-777.3 1121.2,-777.2 1121.6,-778.1 1122.2,-779 1121.7,-779.6 1120.9,-780.3 1121,-780.4 1120.3,-781.2 
					1120.2,-781.1 1119.5,-781.8 1119.4,-781.7 1118.6,-782.5 1118.7,-782.6 1118,-783.3 1117.3,-784.1 1117.4,-784.2 1116.6,-785 
					1116.3,-784.6 1115.6,-785.4 1115.8,-785.6 1115.1,-786.3 1114.3,-787.1 1114.4,-787.2 1113.7,-788 1113.6,-787.8 
					1112.8,-788.6 1113.1,-788.8 1112.4,-789.6 1112.1,-789.4 1111.4,-790.1 1111.3,-790 1110.5,-790.8 1110.6,-790.9 
					1109.9,-791.6 1109.2,-792.4 1108.4,-793.1 1108.6,-793.2 1107.8,-794 1107.7,-793.9 1107,-794.6 1106.9,-794.5 1106.1,-795.3 
					1106.2,-795.4 1105.5,-796.1 1104.8,-796.9 1104.9,-797 1104.2,-797.8 1103.8,-797.4 1103.1,-798.2 1103.3,-798.4 
					1102.6,-799.1 1101.8,-799.9 1102,-800 1101.2,-800.8 1101.1,-800.6 1100.4,-801.4 1100.6,-801.6 1099.9,-802.4 1099.6,-802.2 
					1098.9,-802.9 1098.8,-802.8 1098.1,-803.6 1098.2,-803.7 1097.4,-804.4 1096.8,-805.1 1096.1,-805.8 1096.2,-805.9 
					1095.5,-806.6 1095.4,-806.5 1094.7,-807.2 1094.6,-807.1 1093.8,-807.9 1094,-808 1092.9,-809.1 1092.1,-809.8 1092.1,-809.9 
					1092,-809.6 1091.9,-809.7 1091.4,-808.9 1091.6,-808.8 1091.1,-808 1091.4,-807.8 1091,-807 1090.7,-807.2 1090.3,-806.3 
					1090.4,-806.3 1090,-805.4 1089.8,-805.5 1089.4,-804.7 1088.9,-803.9 1088.7,-804 1088.2,-803.2 1088.7,-803 1088.2,-802.1 
					1088.1,-802.2 1087.6,-801.4 1087.2,-800.6 1087.1,-800.7 1086.6,-799.8 1086.8,-799.8 1086.3,-798.9 1086.5,-798.9 1086,-798 
					1085.9,-798.1 1085.4,-797.3 1085,-796.5 1084.6,-795.6 1084.4,-795.7 1084,-794.9 1084.1,-794.8 1083.7,-794 1084,-793.8 
					1083.6,-793 1083.3,-793.2 1082.8,-792.4 1083,-792.3 1082.5,-791.5 1082.4,-791.5 1081.9,-790.7 1081.5,-789.9 1081.2,-790 
					1080.8,-789.2 1081.2,-789 1080.8,-788.2 1080.6,-788.2 1080.2,-787.4 1079.7,-786.6 1079.6,-786.7 1079.2,-785.8 
					1079.3,-785.8 1078.9,-785 1079,-784.9 1078.6,-784.1 1078.4,-784.1 1078,-783.3 1077.6,-782.5 1077.1,-781.7 1077,-781.7 
					1076.6,-780.9 1076.7,-780.8 1076.2,-780 1076.5,-779.9 1076.1,-779 1075.8,-779.2 1075.4,-778.4 1075.5,-778.3 1075.1,-777.5 
					1074.9,-777.6 1074.5,-776.7 1074.1,-775.9 1073.8,-776.1 1073.3,-775.2 1073.8,-775 1073.3,-774.2 1073.2,-774.3 
					1072.7,-773.4 1072.3,-772.6 1072.2,-772.7 1071.7,-771.9 1071.9,-771.8 1071.4,-771 1071.6,-770.9 1071.1,-770.1 1071,-770.2 
					1070.6,-769.3 1070.1,-768.5 1069.7,-767.7 1069.6,-767.8 1069.1,-766.9 1069.2,-766.9 1068.8,-766 1069.1,-765.9 
					1068.7,-765.1 1068.4,-765.2 1067.9,-764.4 1068.1,-764.3 1067.6,-763.5 1067.5,-763.6 1067.1,-762.7 1066.6,-761.9 
					1066.3,-762.1 1065.9,-761.2 1066.3,-761 1065.9,-760.2 1065.7,-760.3 1065.3,-759.5 1064.9,-758.6 1064.7,-758.7 
					1064.3,-757.9 1064.4,-757.8 1064,-757 1064.1,-756.9 1063.7,-756.1 1063.6,-756.2 1063.1,-755.3 1062.7,-754.5 1062.2,-753.7 
					1062.1,-753.7 1061.6,-752.9 1061.8,-752.8 1061.3,-751.9 1061.6,-751.8 1061.2,-750.9 1060.9,-751.1 1060.4,-750.2 
					1060.5,-750.2 1060.1,-749.3 1059.9,-749.4 1059.5,-748.5 1059.1,-747.7 1058.8,-747.8 1058.6,-747.6 1058.9,-747.5 
					1059.2,-747.4 1059.2,-747.5 1059.5,-747.2 1059.8,-747.1 1059.8,-747.2 1060.2,-747 				"/>
				<polygon class="st1" points="1181.2,-756.8 1181.5,-757.1 1180.9,-757.3 1180,-757.6 1180,-757.8 1179.1,-758.1 1179,-758 
					1178.1,-758.3 1178.2,-758.6 1177.3,-759 1177.2,-758.6 1176.3,-759 1176.3,-758.8 1175.3,-759.2 1175.4,-759.3 1174.5,-759.7 
					1173.6,-760 1172.7,-760.3 1172.8,-760.5 1171.9,-760.8 1171.9,-760.6 1171,-760.9 1171,-760.8 1170.1,-761.1 1170.1,-761.2 
					1169.3,-761.6 1168.4,-761.9 1168.5,-762 1167.6,-762.4 1167.4,-761.9 1166.6,-762.2 1166.7,-762.5 1165.8,-762.8 1165,-763.1 
					1165,-763.3 1164.2,-763.6 1164.1,-763.5 1163.2,-763.8 1163.3,-764.1 1162.5,-764.4 1162.4,-764.1 1161.5,-764.4 
					1161.4,-764.3 1160.6,-764.6 1160.6,-764.7 1159.8,-765 1158.9,-765.4 1158,-765.7 1158.1,-765.8 1157.2,-766.2 1157.2,-766 
					1156.3,-766.3 1156.3,-766.2 1155.4,-766.5 1155.4,-766.6 1154.6,-767 1153.7,-767.3 1153.8,-767.4 1152.9,-767.8 
					1152.7,-767.3 1151.9,-767.6 1152,-767.9 1151.1,-768.2 1150.2,-768.5 1150.3,-768.7 1149.4,-769 1149.4,-768.9 1148.5,-769.2 
					1148.6,-769.5 1147.8,-769.8 1147.6,-769.5 1146.8,-769.8 1146.7,-769.7 1145.9,-770 1145.9,-770.1 1145,-770.4 1144.2,-770.8 
					1143.3,-771.1 1143.4,-771.2 1142.7,-771.5 1142.6,-771.2 1142.3,-770.7 1142.3,-770.8 1142,-770.3 1142.2,-770.2 1142,-769.8 
					1141.9,-769.8 1141.6,-769.4 1141.4,-769 1141.3,-769 1141.1,-768.6 1141.2,-768.5 1140.9,-768.1 1140.8,-768.2 1140.6,-767.7 
					1140.7,-767.7 1140.5,-767.2 1140.5,-767.2 1140.3,-766.7 1140.2,-766.8 1140,-766.3 1139.8,-765.9 1139.5,-765.5 
					1139.5,-765.5 1139.2,-765.1 1139.3,-765 1139.1,-764.6 1139.1,-764.5 1138.9,-764.1 1138.8,-764.1 1138.6,-763.7 
					1138.4,-763.3 1138.3,-763.3 1138.1,-762.9 1138.3,-762.8 1138.1,-762.3 1137.9,-762.4 1137.7,-762 1137.4,-761.5 
					1137.4,-761.6 1137.1,-761.1 1137.2,-761.1 1137,-760.6 1136.8,-760.7 1136.6,-760.3 1136.7,-760.2 1136.5,-759.8 
					1136.6,-759.7 1136.3,-759.3 1136.3,-759.3 1136,-758.9 1135.8,-758.5 1135.6,-758 1135.5,-758.1 1135.3,-757.6 1135.3,-757.6 
					1135.1,-757.1 1135.2,-757.1 1134.9,-756.7 1134.9,-756.7 1134.7,-756.3 1134.4,-755.8 1134.3,-755.9 1134.1,-755.4 
					1134.3,-755.3 1134.1,-754.9 1134,-754.9 1133.7,-754.5 1133.5,-754.1 1133.4,-754.1 1133.2,-753.7 1133.3,-753.6 1133,-753.2 
					1132.9,-753.3 1132.6,-752.8 1132.8,-752.8 1132.6,-752.3 1132.6,-752.3 1132.4,-751.8 1132.3,-751.9 1132.1,-751.4 
					1131.9,-751 1131.6,-750.6 1131.5,-750.6 1131.3,-750.2 1131.4,-750.1 1131.2,-749.7 1131.2,-749.7 1131,-749.2 1130.9,-749.3 
					1130.7,-748.8 1130.5,-748.4 1130.4,-748.4 1130.1,-748 1130.4,-747.9 1130.1,-747.4 1130,-747.5 1129.8,-747.1 1129.5,-746.6 
					1129.4,-746.7 1129.2,-746.2 1129.3,-746.2 1129.1,-745.7 1128.9,-745.8 1128.7,-745.4 1128.8,-745.3 1128.6,-744.9 
					1128.7,-744.8 1128.4,-744.4 1128.4,-744.4 1128.1,-744 1127.9,-743.6 1127.7,-743.1 1127.6,-743.2 1127.3,-742.7 
					1127.4,-742.7 1127.2,-742.2 1127.3,-742.2 1127,-741.8 1127,-741.8 1126.7,-741.4 1126.5,-740.9 1126.4,-741 1126.2,-740.5 
					1126.4,-740.4 1126.2,-740 1126,-740.1 1125.8,-739.6 1125.6,-739.2 1125.5,-739.2 1125.2,-738.8 1125.3,-738.7 1125.1,-738.3 
					1124.9,-738.4 1124.7,-737.9 1124.9,-737.9 1124.6,-737.4 1124.7,-737.4 1124.5,-737 1124.4,-737 1124.2,-736.5 1123.9,-736.1 
					1123.7,-735.7 1123.6,-735.7 1123.4,-735.3 1123.5,-735.2 1123.2,-734.8 1123.3,-734.8 1123.1,-734.3 1123,-734.4 
					1122.8,-733.9 1122.5,-733.5 1122.5,-733.5 1122.2,-733.1 1122.4,-733 1122.2,-732.5 1122.1,-732.6 1121.8,-732.2 
					1121.6,-731.7 1121.5,-731.8 1121.3,-731.3 1121.4,-731.3 1121.1,-730.9 1121,-730.9 1120.7,-730.5 1120.9,-730.4 1120.7,-730 
					1120.7,-729.9 1120.5,-729.5 1120.4,-729.5 1120.2,-729.1 1120,-728.7 1119.7,-728.2 1119.7,-728.3 1119.4,-727.9 
					1119.5,-727.8 1119.3,-727.4 1119.3,-727.3 1119.1,-726.9 1119.1,-727 1118.8,-726.5 1118.6,-726.1 1118.5,-726.1 
					1118.3,-725.7 1118.5,-725.6 1118.4,-725.5 1118.7,-725.2 1119.1,-724.9 1119,-724.8 1119.3,-724.5 1119.4,-724.5 
					1119.7,-724.2 1119.6,-724.1 1120,-723.7 1120.1,-723.8 1120.4,-723.5 1120.5,-723.5 1120.8,-723.2 1120.8,-723.1 
					1121.1,-722.8 1121.4,-722.5 1121.8,-722.1 1121.7,-722.1 1122,-721.7 1122.1,-721.8 1122.4,-721.4 1122.5,-721.5 
					1122.8,-721.2 1122.7,-721.1 1123.1,-720.8 1123.4,-720.4 1123.3,-720.4 1123.7,-720 1123.8,-720.2 1124.2,-719.9 1124,-719.8 
					1124.4,-719.4 1124.7,-719.1 1124.6,-719 1125,-718.7 1125,-718.8 1125.4,-718.4 1125.2,-718.3 1125.6,-718 1125.7,-718.1 
					1126,-717.7 1126.1,-717.8 1126.4,-717.5 1126.3,-717.4 1126.7,-717.1 1127,-716.7 1127.3,-716.4 1127.3,-716.3 1127.6,-716 
					1127.6,-716.1 1128,-715.7 1128,-715.8 1128.4,-715.4 1128.3,-715.4 1128.6,-715.1 1129,-714.7 1128.9,-714.7 1129.2,-714.3 
					1129.4,-714.5 1129.7,-714.2 1129.6,-714.1 1129.9,-713.7 1130.3,-713.4 1130.2,-713.3 1130.5,-713 1130.6,-713 1130.9,-712.7 
					1130.8,-712.6 1131.1,-712.3 1131.3,-712.4 1131.6,-712 1131.6,-712.1 1132,-711.7 1131.9,-711.7 1132.2,-711.4 1132.6,-711 
					1132.9,-710.7 1132.8,-710.6 1133.2,-710.3 1133.2,-710.4 1133.5,-710 1133.6,-710.1 1133.9,-709.7 1133.9,-709.7 
					1134.2,-709.3 1134.5,-709 1134.5,-709 1134.8,-708.6 1135,-708.8 1135.3,-708.4 1135.2,-708.3 1135.5,-708 1135.8,-707.7 
					1135.8,-707.6 1136.1,-707.3 1136.2,-707.3 1136.5,-707 1136.4,-706.9 1136.7,-706.5 1136.8,-706.7 1137.1,-706.3 
					1137.2,-706.4 1137.5,-706 1137.5,-706 1137.8,-705.7 1138.1,-705.3 1138.5,-705 1138.4,-704.9 1138.7,-704.6 1138.8,-704.6 
					1139.1,-704.3 1139.2,-704.4 1139.5,-704 1139.4,-704 1139.8,-703.6 1140.1,-703.3 1140,-703.2 1140.4,-702.9 1140.5,-703.1 
					1140.9,-702.7 1140.7,-702.6 1141.1,-702.3 1141.4,-702 1141.3,-701.9 1141.7,-701.6 1141.7,-701.6 1142.1,-701.3 
					1141.9,-701.2 1142.3,-700.8 1142.4,-700.9 1142.7,-700.6 1142.8,-700.7 1143.1,-700.3 1143,-700.3 1143.4,-699.9 
					1143.7,-699.6 1144,-699.3 1144,-699.2 1144.3,-698.9 1144.4,-698.9 1144.7,-698.6 1144.7,-698.6 1145.1,-698.3 1145,-698.3 
					1145.3,-697.9 1145.7,-697.6 1145.6,-697.5 1145.9,-697.2 1146.1,-697.4 1146.4,-697 1146.3,-696.9 1146.6,-696.6 1147,-696.2 
					1146.9,-696.2 1147.2,-695.8 1147.3,-695.9 1147.6,-695.6 1147.5,-695.5 1147.8,-695.1 1148,-695.2 1148.3,-694.9 
					1148.3,-694.9 1148.4,-694.9 1148.4,-695.1 1148.6,-694.8 1149,-695.6 1149.5,-696.4 1149.6,-696.4 1150.1,-697.2 
					1149.9,-697.3 1150.4,-698.1 1150.7,-698 1151.1,-698.8 1150.8,-699 1151.3,-699.9 1151.2,-699.9 1151.6,-700.8 1151.7,-700.7 
					1152.2,-701.6 1152.7,-702.5 1153.2,-703.5 1153.4,-703.4 1153.9,-704.4 1153.7,-704.4 1154.2,-705.4 1154.1,-705.5 
					1154.6,-706.4 1154.7,-706.3 1155.2,-707.3 1155.7,-708.3 1155.9,-708.2 1156.4,-709.1 1156,-709.4 1156.5,-710.3 
					1156.8,-710.2 1157.3,-711.1 1157.8,-712.1 1157.9,-712 1158.4,-712.9 1158.3,-713 1158.8,-714 1159.1,-713.8 1159.6,-714.8 
					1159.3,-714.9 1159.8,-715.9 1159.7,-716 1160.2,-716.9 1160.3,-716.8 1160.8,-717.8 1161.3,-718.7 1161.8,-719.7 1162,-719.6 
					1162.5,-720.6 1162.3,-720.7 1162.9,-721.6 1162.7,-721.7 1163.2,-722.6 1163.4,-722.6 1163.9,-723.5 1164.4,-724.5 
					1164.5,-724.4 1165,-725.3 1164.6,-725.6 1165.1,-726.5 1165.4,-726.4 1165.9,-727.3 1166.4,-728.3 1166.6,-728.2 
					1167.1,-729.2 1166.9,-729.2 1167.4,-730.2 1167.7,-730 1168.2,-731 1167.9,-731.1 1168.4,-732.1 1168.3,-732.2 1168.8,-733.1 
					1168.9,-733.1 1169.5,-734 1170,-735 1170.5,-735.9 1170.6,-735.8 1171.1,-736.8 1171,-736.9 1171.5,-737.8 1171.4,-737.9 
					1171.9,-738.8 1172,-738.8 1172.5,-739.7 1173,-740.7 1173.2,-740.6 1173.7,-741.6 1173.2,-741.8 1173.7,-742.7 1174,-742.6 
					1174.5,-743.5 1175,-744.5 1175.2,-744.4 1175.7,-745.4 1175.5,-745.5 1176.1,-746.4 1176.4,-746.2 1176.9,-747.2 
					1176.6,-747.4 1177.1,-748.3 1176.9,-748.4 1177.4,-749.3 1177.6,-749.3 1178.1,-750.2 1178.5,-751.1 1179,-751.9 
					1179.1,-751.9 1179.6,-752.7 1179.5,-752.8 1179.9,-753.7 1179.8,-753.7 1180.2,-754.6 1180.4,-754.5 1180.8,-755.4 
					1181.3,-756.2 1181.4,-756.1 1181.8,-756.8 				"/>
				<polygon class="st1" points="1090.3,-719.2 1090.4,-719.1 1090.9,-719.9 1090.7,-720 1091.2,-720.9 1091,-721 1091.5,-721.8 
					1091.7,-721.7 1092.1,-722.6 1092.6,-723.4 1093.1,-724.4 1093.2,-724.3 1093.7,-725.3 1093.6,-725.4 1094.1,-726.3 
					1093.8,-726.5 1094.3,-727.4 1094.6,-727.3 1095.1,-728.2 1095,-728.3 1095.5,-729.3 1095.6,-729.2 1096.1,-730.1 
					1096.6,-731.1 1096.9,-730.9 1097.4,-731.9 1097,-732.1 1097.4,-733 1097.4,-733 1097.3,-732.9 1096.9,-733.1 1096.9,-733 
					1096.4,-733.2 1096.5,-733.2 1096,-733.4 1095.6,-733.6 1095.1,-733.7 1095.2,-733.8 1094.7,-733.9 1094.7,-733.9 1094.3,-734 
					1094.2,-733.9 1093.8,-734 1093.8,-734.2 1093.4,-734.4 1093.4,-734.3 1092.9,-734.4 1093,-734.5 1092.5,-734.7 1092.1,-734.8 
					1092.1,-735 1091.7,-735.1 1091.6,-734.9 1091.2,-735.1 1091.2,-735.2 1090.8,-735.3 1090.3,-735.5 1090.3,-735.6 
					1089.9,-735.7 1089.9,-735.6 1089.4,-735.8 1089.4,-735.7 1089,-735.9 1089,-736 1088.6,-736.1 1088.1,-736.3 1087.7,-736.5 
					1087.7,-736.5 1087.3,-736.7 1087.2,-736.6 1086.8,-736.8 1086.8,-736.6 1086.3,-736.8 1086.4,-736.9 1085.9,-737.1 
					1085.9,-737 1085.5,-737.2 1085.5,-737.3 1085.1,-737.4 1084.6,-737.6 1084.7,-737.7 1084.2,-737.9 1084.1,-737.7 
					1083.7,-737.8 1083.7,-737.9 1083.3,-738.1 1082.9,-738.2 1082.9,-738.3 1082.4,-738.4 1082.4,-738.4 1082,-738.5 1082,-738.5 
					1081.5,-738.6 1081.5,-738.7 1081.1,-738.9 1080.7,-739 1080.2,-739.2 1080.3,-739.3 1079.8,-739.4 1079.8,-739.3 
					1079.4,-739.5 1079.3,-739.3 1078.9,-739.5 1078.9,-739.7 1078.5,-739.8 1078.4,-739.7 1078,-739.9 1078,-740 1077.6,-740.2 
					1077.2,-740.3 1077.2,-740.5 1076.8,-740.6 1076.7,-740.4 1076.3,-740.6 1076.3,-740.6 1075.8,-740.8 1075.4,-741 1075.4,-741 
					1075,-741.2 1075,-741.1 1074.5,-741.3 1074.5,-741.2 1074.1,-741.4 1074.1,-741.4 1073.7,-741.6 1073.2,-741.8 1072.8,-741.9 
					1072.8,-742 1072.4,-742.1 1072.3,-742.1 1071.9,-742.2 1071.8,-742.1 1071.4,-742.2 1071.5,-742.4 1071,-742.6 1071,-742.5 
					1070.6,-742.6 1070.6,-742.7 1070.1,-742.9 1069.7,-743 1069.8,-743.2 1069.3,-743.4 1069.2,-743.1 1068.8,-743.3 
					1068.8,-743.4 1068.4,-743.5 1067.9,-743.7 1068,-743.8 1067.5,-743.9 1067.5,-743.9 1067.1,-744 1067,-743.9 1066.6,-744.1 
					1066.6,-744.2 1066.2,-744.3 1065.8,-744.5 1065.3,-744.7 1065.3,-744.7 1064.9,-744.9 1064.9,-744.8 1064.4,-745 
					1064.4,-744.8 1063.9,-745 1064,-745.1 1063.6,-745.3 1063.5,-745.2 1063.1,-745.4 1063.1,-745.5 1062.7,-745.6 1062.2,-745.8 
					1062.3,-745.9 1061.9,-746.1 1061.8,-745.9 1061.3,-746 1061.4,-746.1 1060.9,-746.3 1060.5,-746.4 1060.5,-746.5 
					1060.1,-746.7 1060.1,-746.6 1059.8,-746.7 1060.4,-746 1061.1,-745.3 1061,-745.2 1061.7,-744.5 1061.8,-744.6 1062.4,-744 
					1062.6,-744.1 1063.3,-743.4 1063.1,-743.3 1063.8,-742.6 1064.5,-741.9 1065.2,-741.1 1065.1,-741 1065.8,-740.3 1066,-740.4 
					1066.7,-739.6 1066.9,-739.8 1067.7,-739.1 1067.4,-738.9 1068.2,-738.1 1068.3,-738.2 1069,-737.5 1068.9,-737.3 
					1069.6,-736.6 1070.4,-735.8 1070.1,-735.6 1070.9,-734.9 1071.2,-735.2 1071.9,-734.5 1071.8,-734.3 1072.6,-733.6 
					1073.3,-732.8 1073.2,-732.7 1073.9,-732 1074,-732.1 1074.8,-731.3 1074.9,-731.4 1075.6,-730.7 1075.5,-730.6 1076.2,-729.8 
					1077,-729.1 1077.7,-728.3 1077.6,-728.2 1078.3,-727.5 1078.4,-727.6 1079.2,-726.8 1079.4,-727 1080.1,-726.3 1079.9,-726.1 
					1080.6,-725.3 1080.8,-725.4 1081.5,-724.7 1081.4,-724.5 1082.1,-723.8 1082.8,-723 1082.6,-722.8 1083.3,-722.1 
					1083.7,-722.4 1084.4,-721.7 1084.3,-721.5 1085,-720.8 1085.8,-720 1085.7,-719.9 1086.4,-719.2 1086.5,-719.3 1087.2,-718.5 
					1087.4,-718.6 1088.1,-717.9 1088,-717.8 1088.7,-717 1088.9,-716.9 1089.2,-717.5 1089.4,-717.4 1089.8,-718.3 				"/>
				<polygon class="st1" points="1146.9,-695.5 1146.6,-695.8 1146.6,-695.9 1146.3,-696.2 1146,-696.6 1146.1,-696.7 1145.8,-697 
					1145.6,-696.9 1145.3,-697.2 1145.3,-697.2 1145,-697.6 1144.7,-697.9 1144.7,-698 1144.4,-698.3 1144.3,-698.3 1144,-698.6 
					1143.9,-698.5 1143.6,-698.9 1143.7,-698.9 1143.3,-699.3 1143,-699.6 1142.7,-699.9 1142.7,-700 1142.4,-700.3 1142.4,-700.3 
					1142,-700.6 1141.9,-700.5 1141.6,-700.8 1141.7,-700.9 1141.4,-701.3 1141.3,-701.2 1141,-701.6 1141.1,-701.6 1140.7,-702 
					1140.4,-702.3 1140.5,-702.4 1140.2,-702.7 1140,-702.6 1139.7,-702.9 1139.7,-703 1139.4,-703.3 1139.1,-703.6 1139.1,-703.7 
					1138.8,-704 1138.8,-704 1138.4,-704.3 1138.4,-704.2 1138,-704.6 1138.1,-704.6 1137.8,-705 1137.5,-705.3 1137.1,-705.6 
					1137.2,-705.7 1136.8,-706 1136.8,-706 1136.5,-706.3 1136.3,-706.2 1136,-706.5 1136.1,-706.7 1135.8,-707 1135.8,-706.9 
					1135.4,-707.3 1135.5,-707.3 1135.2,-707.7 1134.8,-708 1134.9,-708.1 1134.6,-708.4 1134.4,-708.3 1134.1,-708.6 
					1134.2,-708.7 1133.8,-709 1133.5,-709.3 1133.6,-709.4 1133.2,-709.7 1133.2,-709.7 1132.9,-710 1132.8,-710 1132.5,-710.3 
					1132.5,-710.4 1132.2,-710.7 1131.9,-711 1131.6,-711.4 1131.6,-711.4 1131.3,-711.7 1131.2,-711.7 1130.9,-712 1130.8,-711.9 
					1130.5,-712.2 1130.6,-712.4 1130.2,-712.7 1130.2,-712.6 1129.9,-713 1129.9,-713 1129.6,-713.4 1129.3,-713.7 1129.4,-713.8 
					1129,-714.2 1128.9,-714 1128.5,-714.3 1128.6,-714.4 1128.3,-714.7 1128,-715.1 1128,-715.1 1127.7,-715.4 1127.6,-715.4 
					1127.3,-715.7 1127.2,-715.7 1126.9,-716 1127,-716.1 1126.6,-716.4 1126.3,-716.7 1126,-717.1 1126,-717.1 1125.7,-717.5 
					1125.7,-717.4 1125.3,-717.7 1125.2,-717.6 1124.9,-718 1125,-718.1 1124.7,-718.4 1124.6,-718.4 1124.3,-718.7 1124.4,-718.8 
					1124,-719.1 1123.7,-719.4 1123.8,-719.5 1123.5,-719.9 1123.3,-719.7 1123,-720 1123,-720.1 1122.7,-720.4 1122.4,-720.8 
					1122.4,-720.8 1122.1,-721.2 1122.1,-721.1 1121.7,-721.4 1121.7,-721.4 1121.3,-721.7 1121.4,-721.8 1121.1,-722.1 
					1120.7,-722.4 1120.4,-722.8 1120.5,-722.8 1120.1,-723.2 1120.1,-723.1 1119.7,-723.5 1119.6,-723.4 1119.3,-723.7 
					1119.4,-723.8 1119.1,-724.2 1119,-724.1 1118.7,-724.5 1118.7,-724.5 1118.4,-724.9 1118,-725.3 1118.1,-725.3 1118,-725.5 
					1118,-725.3 1117.5,-725.5 1117.5,-725.6 1117.1,-725.7 1117.1,-725.7 1116.6,-725.8 1116.6,-725.7 1116.1,-725.8 1116.2,-726 
					1115.8,-726.2 1115.7,-726.1 1115.3,-726.2 1115.3,-726.3 1114.9,-726.5 1114.4,-726.6 1114.5,-726.8 1114.1,-726.9 
					1114,-726.7 1113.5,-726.9 1113.6,-727 1113.1,-727.1 1112.7,-727.3 1112.7,-727.3 1112.3,-727.5 1112.3,-727.4 1111.8,-727.6 
					1111.8,-727.5 1111.3,-727.7 1111.4,-727.8 1110.9,-727.9 1110.5,-728.1 1110.1,-728.2 1110.1,-728.3 1109.6,-728.5 
					1109.6,-728.4 1109.2,-728.6 1109.1,-728.4 1108.7,-728.6 1108.7,-728.7 1108.3,-728.9 1108.3,-728.8 1107.8,-729 1107.9,-729 
					1107.4,-729.2 1107,-729.4 1107,-729.5 1106.6,-729.7 1106.5,-729.5 1106.1,-729.6 1106.1,-729.7 1105.7,-729.9 1105.2,-730 
					1105.3,-730.1 1104.8,-730.2 1104.8,-730.2 1104.4,-730.3 1104.3,-730.3 1103.9,-730.4 1103.9,-730.5 1103.5,-730.7 
					1103,-730.8 1102.6,-731 1102.6,-731 1102.2,-731.2 1102.2,-731.1 1101.7,-731.3 1101.7,-731.1 1101.2,-731.3 1101.3,-731.5 
					1100.8,-731.6 1100.8,-731.5 1100.4,-731.7 1100.4,-731.8 1100,-731.9 1099.5,-732.1 1099.6,-732.3 1099.1,-732.4 
					1099.1,-732.2 1098.6,-732.3 1098.7,-732.4 1098.3,-732.6 1097.8,-731.7 1098.3,-731.4 1097.8,-730.5 1097.5,-730.6 
					1097,-729.7 1096.5,-728.7 1096.3,-728.8 1095.8,-727.8 1096,-727.8 1095.5,-726.8 1095.2,-727 1094.6,-726 1094.9,-725.9 
					1094.4,-724.9 1094.6,-724.8 1094.1,-723.9 1093.9,-723.9 1093.4,-723 1093,-722.1 1092.5,-721.3 1092.4,-721.4 1091.9,-720.5 
					1092.1,-720.4 1091.6,-719.6 1091.7,-719.5 1091.3,-718.6 1091.1,-718.7 1090.7,-717.8 1090.2,-717 1090.1,-717.1 
					1089.7,-716.4 1090.3,-716.4 1090,-716.1 1090.6,-715.9 1091.6,-715.6 1091.5,-715.4 1092.4,-715.1 1092.5,-715.2 
					1093.4,-714.9 1093.3,-714.6 1094.2,-714.2 1094.3,-714.6 1095.2,-714.2 1095.3,-714.4 1096.2,-714 1096.1,-713.9 1097,-713.6 
					1097.9,-713.2 1098.8,-712.9 1098.7,-712.8 1099.6,-712.4 1099.6,-712.6 1100.5,-712.3 1100.5,-712.4 1101.4,-712.1 
					1101.4,-712 1102.2,-711.7 1103.1,-711.3 1103,-711.2 1103.9,-710.9 1104.1,-711.3 1104.9,-711 1104.8,-710.7 1105.7,-710.4 
					1106.6,-710.1 1106.5,-709.9 1107.4,-709.6 1107.4,-709.7 1108.3,-709.4 1108.2,-709.1 1109,-708.8 1109.1,-709.1 1110,-708.8 
					1110.1,-708.9 1110.9,-708.6 1110.9,-708.5 1111.7,-708.2 1112.6,-707.8 1113.5,-707.5 1113.4,-707.4 1114.3,-707 
					1114.3,-707.2 1115.2,-706.9 1115.3,-707 1116.1,-706.7 1116.1,-706.6 1116.9,-706.3 1117.8,-705.9 1117.7,-705.8 
					1118.6,-705.5 1118.8,-705.9 1119.6,-705.6 1119.5,-705.3 1120.4,-705 1121.3,-704.7 1121.2,-704.5 1122.1,-704.2 
					1122.1,-704.4 1123,-704 1122.9,-703.7 1123.7,-703.4 1123.9,-703.7 1124.7,-703.4 1124.8,-703.5 1125.6,-703.2 1125.6,-703.1 
					1126.5,-702.8 1127.3,-702.4 1128.2,-702.1 1128.1,-702 1129,-701.6 1129.1,-701.8 1129.9,-701.5 1130,-701.6 1130.8,-701.3 
					1130.8,-701.2 1131.7,-700.9 1132.5,-700.5 1132.5,-700.4 1133.3,-700.1 1133.5,-700.5 1134.4,-700.2 1134.2,-699.9 
					1135.1,-699.6 1136,-699.3 1135.9,-699.1 1136.8,-698.8 1136.8,-699 1137.7,-698.6 1137.6,-698.3 1138.5,-698 1138.6,-698.3 
					1139.4,-698 1139.5,-698.1 1140.4,-697.8 1140.3,-697.7 1141.2,-697.4 1142.1,-697 1143,-696.7 1142.9,-696.5 1143.9,-696.2 
					1143.9,-696.4 1144.8,-696 1144.9,-696.2 1145.8,-695.8 1145.7,-695.7 1146.6,-695.4 1147.2,-695.2 1147.3,-695.2 1147,-695.6 
									"/>
			</g>
			<polygon class="st1" points="449.7,-300 448.5,-301.2 448.7,-301.4 447.8,-302.3 447,-303.2 447.1,-303.3 446.3,-304.2 
				446.1,-304.1 445.3,-305 445.1,-304.8 444.3,-305.7 444.5,-305.9 443.6,-306.8 442.8,-307.7 442.6,-307.5 441.8,-308.4 
				442,-308.5 441,-309.6 440.8,-309.5 439.8,-310.6 439.6,-310.3 438.5,-311.4 438.8,-311.7 437.8,-312.8 437.6,-312.6 
				436.6,-313.7 436.8,-313.8 435.8,-314.9 434.8,-316 435,-316.3 434,-317.4 433.6,-317 432.6,-318.1 432.7,-318.2 431.7,-319.3 
				430.7,-320.4 430.8,-320.5 429.8,-321.6 429.7,-321.5 428.7,-322.6 428.5,-322.4 427.5,-323.5 427.7,-323.7 426.7,-324.8 
				425.7,-325.9 424.6,-327 424.8,-327.1 423.8,-328.2 423.6,-328.1 422.6,-329.2 422.3,-328.9 421.3,-330 421.6,-330.2 
				420.6,-331.3 420.4,-331.2 419.4,-332.3 419.6,-332.4 418.6,-333.5 417.6,-334.6 417.9,-334.9 416.8,-336 416.4,-335.6 
				415.4,-336.7 415.5,-336.8 414.5,-337.9 413.5,-339 413.7,-339.1 412.6,-340.2 412.5,-340.1 411.5,-341.2 411.3,-341 
				410.3,-342.1 410.5,-342.3 409.5,-343.4 408.5,-344.5 408.5,-344.5 407.6,-345.4 407.8,-345.5 406.9,-346.4 406.8,-346.3 
				406,-347.2 405.6,-346.9 404.8,-347.8 405.1,-348.1 404.3,-349 404.1,-348.9 403.3,-349.8 403.4,-349.9 402.6,-350.8 
				401.3,-352.3 400.7,-352.6 400.4,-351.7 399.9,-350.1 399.7,-350.2 399.3,-349 399,-347.8 398.8,-347.9 398.4,-346.7 
				398.6,-346.6 398.2,-345.4 398.5,-345.4 398.1,-344.2 397.9,-344.3 397.5,-343.1 397.1,-341.9 397.1,-341.9 397.1,-341.9 
				396.7,-340.5 396.5,-340.5 396.1,-339.1 396.3,-339.1 395.8,-337.6 396.2,-337.5 395.8,-336.1 395.4,-336.2 394.9,-334.8 
				395.1,-334.7 394.7,-333.3 394.5,-333.4 394.1,-331.9 393.6,-330.5 393.2,-330.6 392.8,-329.2 393.4,-329 392.9,-327.6 
				392.7,-327.7 392.3,-326.3 391.8,-324.8 391.7,-324.9 391.2,-323.5 391.4,-323.4 391,-322 391.2,-321.9 390.7,-320.5 
				390.5,-320.6 390.1,-319.1 389.6,-317.7 389.2,-316.3 389,-316.4 388.6,-314.9 388.8,-314.9 388.3,-313.5 388.7,-313.3 
				388.3,-311.9 387.9,-312 387.4,-310.6 387.6,-310.5 387.2,-309.1 387,-309.2 386.5,-307.8 386.1,-306.3 385.7,-306.5 385.3,-305 
				385.9,-304.9 385.4,-303.4 385.2,-303.5 384.8,-302.1 384.3,-300.7 384.2,-300.7 383.7,-299.3 383.9,-299.2 383.5,-297.8 
				383.7,-297.7 383.2,-296.3 383,-296.4 382.6,-295 382.1,-293.5 382.9,-293.3 382.9,-293.3 382.1,-293.5 381.8,-292.4 
				381.6,-292.4 381.2,-291.2 381.4,-291.2 381,-290 381.5,-289.9 381.1,-288.7 380.7,-288.8 380.3,-287.6 380.5,-287.6 
				380.1,-286.4 379.9,-286.5 379.6,-285.3 379,-283.4 378.8,-282.9 379,-282.9 379.9,-282.9 381.5,-283.3 381.6,-283.1 
				382.8,-283.4 384,-283.7 384,-283.5 385.2,-283.7 385.2,-283.9 386.4,-284.2 386.4,-284.4 387.6,-284.7 387.6,-284.5 
				388.8,-284.7 390,-285 390,-285 391.5,-285.3 391.5,-285.2 393,-285.5 392.9,-285.7 394.4,-286 394.3,-286.4 395.7,-286.8 
				395.8,-286.3 397.3,-286.7 397.2,-286.9 398.7,-287.2 398.7,-287 400.2,-287.3 401.6,-287.6 401.7,-287.3 403.2,-287.6 
				403,-288.2 404.5,-288.5 404.5,-288.3 406,-288.6 407.4,-289 407.5,-288.8 408.9,-289.1 408.9,-289.3 410.4,-289.6 410.3,-289.8 
				411.8,-290.2 411.8,-290 413.3,-290.3 414.7,-290.6 416.2,-290.9 416.2,-290.8 417.7,-291.1 417.6,-291.3 419.1,-291.6 419,-292 
				420.4,-292.3 420.5,-291.9 422,-292.3 421.9,-292.5 423.4,-292.8 423.4,-292.6 424.9,-292.9 426.3,-293.2 426.4,-292.9 
				427.9,-293.2 427.7,-293.8 429.2,-294.1 429.2,-293.9 430.7,-294.2 432.1,-294.6 432.2,-294.4 433.6,-294.7 433.6,-294.9 
				435,-295.2 435,-295.4 436.4,-295.8 436.5,-295.5 437.9,-295.9 439.4,-296.2 439.2,-297 439.2,-297 439.3,-296.6 440.5,-296.9 
				440.6,-296.7 441.8,-297 441.8,-297.2 443,-297.4 442.9,-297.8 444.1,-298.1 444.2,-297.7 445.4,-298 445.3,-298.2 446.5,-298.5 
				446.6,-298.3 447.8,-298.5 449.7,-299 450.2,-299.1 			"/>
			<path class="st1" d="M295.9-371.4l-0.8-4.2l0.7-0.1l-1-5l0.4-0.1l-0.2-0.8l-0.4,0.1l-0.8-4.2l0.7-0.1l-0.2-0.8l-0.7,0.1l-0.5-2.5
				l-0.3,0.1l-0.8-4.2l0.3-0.1l-1.5-7.5l0.4-0.1l-0.2-0.8l-0.4,0.1l-0.5-2.5l-0.3,0.1l-0.8-4.2l0.3-0.1l-1-5l0.4-0.1l-0.2-0.8
				l-1,0.2l-0.8-4.2l0.7-0.1l-1-5l0.4-0.1l-0.2-0.8l-0.4,0.1l-0.8-4.2l0.7-0.1l-0.2-0.8l-0.7,0.1l-0.5-2.5l-0.3,0.1l-0.8-4.2
				l0.3-0.1l-1.3-6.6l0.4-0.1l-0.1-0.4l-0.4,0.1l-0.4-2.1l-0.3,0.1l-0.8-3.8l0.3-0.1l-0.8-4.1l0.4-0.1l-0.4-2.1l-0.1-1.6l0.1-1.5
				l2,0.7l6,2l-0.1,0.4l0.3,0.1l0.1-0.4l3.6,1.2l-0.2,0.7l0.3,0.1l0.2-0.7l2,0.7l0.1-0.3l3.6,1.2l-0.1,0.3l6.8,2.3l-0.1,0.4l0.8,0.3
				l0.1-0.4l2.4,0.8l0.1-0.3l4.1,1.4l-0.1,0.3l4.8,1.6l-0.1,0.4l0.8,0.3l0.3-1l4.1,1.4l-0.2,0.6l4.8,1.6l-0.1,0.4l0.8,0.3l0.1-0.4
				l4.1,1.4l-0.2,0.7l0.8,0.3l0.2-0.7l2.4,0.8l0.1-0.3l4.1,1.4l-0.1,0.3l7.2,2.4l-0.1,0.4l0.8,0.3l0.1-0.4l2.4,0.8l0.1-0.3l4.1,1.4
				l-0.1,0.3l4.8,1.6l-0.1,0.4l0.8,0.3l0.3-1l4.1,1.4l-0.2,0.6l4.8,1.6l-0.1,0.4l0.8,0.3l0.1-0.4l4.1,1.4l-0.2,0.7l0.8,0.3l0.2-0.7
				l2.4,0.8l0.1-0.3l4.1,1.4l-0.1,0.3l6.4,2.2l-0.1,0.4l0.3,0.1l0.1-0.4l2,0.7l0.1-0.3l3.6,1.2L392-420l4,1.3l-0.1,0.4l4.3,1.5
				l-1.1,2l-4.9,4.3l-0.2-0.3l-0.3,0.2l0.2,0.3l-2.9,2.5l-0.5-0.6l-0.3,0.2l0.5,0.6l-1.6,1.4l0.2,0.2l-2.9,2.5l-0.2-0.2l-5.4,4.8
				l-0.2-0.3l-0.6,0.5l0.2,0.3l-1.9,1.7l0.2,0.2l-3.2,2.8l-0.2-0.2l-3.8,3.4l-0.2-0.3l-0.6,0.5l0.7,0.8l-3.2,2.8l-0.4-0.5l-3.8,3.4
				l-0.2-0.3l-0.6,0.5l0.2,0.3l-3.2,2.8l-0.5-0.6l-0.6,0.5l0.5,0.6l-1.9,1.7l0.2,0.2l-3.2,2.8l-0.2-0.2l-5.7,5l-0.2-0.3l-0.6,0.5
				l0.2,0.3l-1.9,1.7l0.2,0.2l-3.2,2.8l-0.2-0.2l-3.8,3.4l-0.2-0.3l-0.6,0.5l0.7,0.8l-3.2,2.8l-0.4-0.5l-3.8,3.4l-0.2-0.3l-0.6,0.5
				l0.2,0.3l-3.2,2.8l-0.4-0.4l-0.6,0.5l0.4,0.4l-1.9,1.7l0.2,0.2l-3.2,2.8l-0.2-0.2l-0.1,0.1l0.3,0.3l-4.5,3.9l-0.2-0.3l-0.3,0.2
				l0.2,0.3l-1.6,1.4l0.2,0.2l-2.9,2.5l-0.2-0.2l-3.2,2.8l-0.2-0.3l-1.6,1.4l-2.5,1.6l-0.5-2.1l-1.3-6.2l0.4-0.1l-0.1-0.4l-0.4,0.1
				l-0.8-3.8l0.7-0.1l-0.1-0.4l-0.7,0.1l-0.4-2.1l-0.3,0.1l-0.8-3.8l0.3-0.1l-0.1-0.4l-0.7,0.1l-1.3-6.7l0.4-0.1l-0.2-0.8l-0.4,0.1
				l-0.5-2.5l-0.3,0.1l-0.8-4.2l0.3-0.1l-1-5l0.4-0.1l-0.2-0.8L295.9-371.4z M297.1-374.2l0.2,0.8l1-0.2l0.8,4.2l-0.4,0.1l1,5
				l-0.3,0.1l0.2,0.8l0.3-0.1l0.5,2.5l0.4-0.1l0.8,4.2l-0.4,0.1l0.7,3.3l1.4-0.3l0.4,1.8l-0.7,0.1l0.4,2.1l-0.3,0.1l0.1,0.4l0.3-0.1
				l0.4,2.1l0.7-0.1l0.8,3.8l-0.7,0.1l0.1,0.4l0.4-0.1l0.8,3.8l-0.4,0.1l0.8,4.2l0.4-0.2l2.8-2.5l0.2,0.3l3.2-2.8l0.2,0.2l0.3-0.2
				l-0.2-0.2l1.6-1.4l-0.2-0.3l2.9-2.5l0.2,0.3l1.9-1.6l-0.3-0.3l2.8-2.4l0.2,0.2l0.6-0.5l-0.2-0.2l1.9-1.7l-0.4-0.4l3.2-2.8
				l0.4,0.4l0.6-0.5l-0.2-0.3l3.2-2.8l0.2,0.3l3.8-3.4l0.4,0.5l0.6-0.5l-0.7-0.8l3.2-2.8l0.2,0.3l3.8-3.4l0.2,0.2l0.6-0.5l-0.2-0.2
				l1.9-1.7l-0.2-0.3l3.2-2.8l0.2,0.3l5.7-5l0.2,0.2l0.6-0.5l-0.2-0.2l1.9-1.7l-0.5-0.6l3.2-2.8l0.5,0.6l0.6-0.5l-0.2-0.3l3.2-2.8
				l0.2,0.3l3.8-3.4l0.4,0.5l0.6-0.5l-0.7-0.8l3.2-2.8l0.2,0.3l3.8-3.4l0.2,0.2l0.6-0.5l-0.2-0.2l1.9-1.7l-0.2-0.3l3.2-2.8l0.2,0.3
				l5.4-4.8l0.2,0.2l0.3-0.2l-0.2-0.2l1.6-1.4l-0.5-0.6l2.9-2.5l0.5,0.6l0.3-0.2l-0.2-0.3l2.9-2.5l0.2,0.3l3.3-2.9l-4-1.3l0.1-0.4
				l-4-1.3l0.1-0.3l-0.3-0.1l-0.1,0.3l-2-0.7l-0.1,0.4l-3.6-1.2l0.1-0.4l-6.4-2.2l0.1-0.3l-0.8-0.3l-0.1,0.3l-2.4-0.8l-0.2,0.7
				l-4.1-1.4l0.2-0.7l-0.8-0.3l-0.1,0.4l-4.1-1.4l0.1-0.4l-4.8-1.6l0.2-0.6l-0.8-0.3l-0.3,1l-4.1-1.4l0.1-0.4l-4.8-1.6l0.1-0.3
				l-0.8-0.3l-0.1,0.3l-2.4-0.8l-0.1,0.4l-4.1-1.4l0.1-0.4l-7.2-2.4l0.1-0.3l-0.8-0.3l-0.1,0.3l-2.4-0.8l-0.2,0.7l-4.1-1.4l0.2-0.7
				l-0.8-0.3l-0.1,0.4l-4.1-1.4l0.1-0.4l-4.8-1.6l0.2-0.6l-0.8-0.3l-0.3,1l-4.1-1.4l0.1-0.4l-4.8-1.6l0.1-0.3l-0.8-0.3l-0.1,0.3
				l-2.4-0.8l-0.1,0.4l-4.1-1.4l0.1-0.4l-3.2-1.1l-0.2,0.5l-1.6-0.6l0,0l0,0l0.2-0.5l-2-0.7l0.1-0.3l-0.3-0.1l-0.1,0.3l-2-0.7
				l-0.2,0.7l-3.6-1.2l0.2-0.7l-0.3-0.1l-0.1,0.4l-3.6-1.2l0.1-0.4l-4.1-1.4l0,0.4l0.7,3.7l-0.4,0.1l0.8,4.1l-0.3,0.1l0.1,0.4
				l0.3-0.1l0.4,2.1l0.4-0.1l0.8,3.8l-0.4,0.1l1.3,6.6l-0.3,0.1l0.2,0.8l0.3-0.1l0.5,2.5l0.7-0.1l0.8,4.2l-0.7,0.1l0.2,0.8l0.4-0.1
				l0.8,4.2l-0.4,0.1l1,5l-0.7,0.1l0.2,0.8l1-0.2l0.8,4.2l-0.4,0.1l1,5l-0.3,0.1l0.2,0.8l0.3-0.1l0.5,2.5l0.4-0.1l0.8,4.2l-0.4,0.1
				l1.5,7.5l-0.3,0.1l0.2,0.8l0.3-0.1l0.5,2.5l0.7-0.1l0.8,4.2l-0.7,0.1l0.2,0.8l0.4-0.1l0.8,4.2l-0.4,0.1l1,5L297.1-374.2z"/>
			<g>
				<path class="st1" d="M971.2-1151.4l-0.2,0.2c0.4,0.5,0.7,0.9,1,1.4l0.2-0.1l0.5,0.7c0.2,0.2,0.3,0.5,0.5,0.7l0.5-0.3
					c0.3,0.5,0.7,1,0.9,1.5l-0.5,0.3c0.3,0.5,0.6,1,0.9,1.5l0.3-0.1l0.8,1.6l-0.3,0.1c0.3,0.5,0.5,1.1,0.7,1.6
					c0.3,0.5,0.4,1.1,0.7,1.6l-0.5,0.2c0.1,0.3,0.2,0.5,0.3,0.8l0.3,0.8l0.8-0.3c0.2,0.6,0.4,1.1,0.5,1.7l-0.3,0.1
					c0.2,0.6,0.3,1.1,0.5,1.7l0.4,1.7l-0.2,0.1c0.1,0.6,0.2,1.1,0.3,1.7l0.2,0c0.1,0.6,0.2,1.2,0.2,1.7l0.3,0l0.1,0.9l0.1,0.9
					l-0.3,0l0.1,0.9l0,0.4l0,0.4l0,1.8h-1.7l0-1.7l0-0.4l0-0.4l-0.1-0.8l0.3,0l-0.1-0.8l-0.1-0.8l-0.3,0c-0.1-0.6-0.1-1.1-0.2-1.7
					l-0.2,0c-0.1-0.6-0.2-1.1-0.3-1.7l0.2-0.1l-0.4-1.6c-0.1-0.5-0.3-1.1-0.4-1.6l0.3-0.1c-0.1-0.5-0.3-1.1-0.5-1.6l-0.8,0.3
					l-0.3-0.8c-0.1-0.3-0.2-0.5-0.3-0.8l0.5-0.2c-0.2-0.5-0.4-1.1-0.6-1.6c-0.2-0.5-0.5-1-0.7-1.5l0.3-0.1l-0.8-1.5l-0.3,0.1
					c-0.3-0.5-0.6-1-0.8-1.5l0.5-0.3c-0.3-0.5-0.6-1-0.9-1.5l-0.5,0.3c-0.2-0.2-0.3-0.5-0.5-0.7l-0.5-0.7l-0.2,0.1
					c-0.3-0.5-0.6-0.9-1-1.4l0.2-0.2c-0.4-0.4-0.7-0.9-1.1-1.3l1.3-1.1C970.5-1152.3,970.8-1151.9,971.2-1151.4z"/>
				<path class="st1" d="M946.5-1167.1l-0.1,0.2c0.6,0.1,1.1,0.3,1.7,0.4l0.1-0.2l1.7,0.5l0.2-0.6c0.6,0.2,1.1,0.4,1.7,0.6l-0.2,0.6
					c0.6,0.2,1.1,0.4,1.6,0.6l0.1-0.3l0.8,0.3l0.8,0.4l-0.1,0.3c0.5,0.2,1.1,0.5,1.6,0.8c0.5,0.3,1.1,0.5,1.6,0.8l-0.3,0.5l1.5,0.9
					l0.4-0.7l1.5,1l-0.2,0.2c0.5,0.3,1,0.7,1.4,1c0.5,0.3,0.9,0.7,1.4,1.1l-0.2,0.2l0.7,0.5c0.2,0.2,0.4,0.4,0.7,0.6l0.2-0.2
					c0.4,0.4,0.9,0.8,1.3,1.2l0.2-0.2c0.4,0.4,0.9,0.8,1.3,1.2l-0.2,0.2l1.2,1.3l1.2,1.3l-1.3,1.1l-1.1-1.3l-1.2-1.2l0.2-0.2
					c-0.4-0.4-0.8-0.8-1.2-1.2l-0.2,0.2c-0.4-0.4-0.8-0.8-1.3-1.1l-0.2,0.2c-0.2-0.2-0.4-0.4-0.6-0.5l-0.7-0.5l0.2-0.2
					c-0.4-0.3-0.9-0.7-1.3-1c-0.5-0.3-0.9-0.7-1.4-1l0.2-0.2l-1.4-0.9l-0.4,0.7l-1.4-0.8l0.3-0.5c-0.5-0.3-1-0.5-1.5-0.8
					c-0.5-0.3-1-0.5-1.5-0.7l0.1-0.3l-0.8-0.4l-0.8-0.3l-0.1,0.3c-0.5-0.2-1-0.4-1.6-0.6l0.2-0.6c-0.5-0.2-1.1-0.4-1.6-0.5l-0.2,0.6
					l-1.6-0.5l-0.1,0.2c-0.5-0.1-1.1-0.3-1.6-0.4l0.1-0.2c-0.5-0.1-1.1-0.2-1.7-0.3l0.3-1.6C945.3-1167.3,945.9-1167.2,946.5-1167.1
					z"/>
				<path class="st1" d="M917.4-1163.2l0.1,0.2c0.5-0.3,1-0.5,1.6-0.8l-0.1-0.2l1.6-0.7l-0.2-0.5l1.7-0.7l0.2,0.6
					c0.5-0.2,1.1-0.4,1.7-0.6l-0.1-0.3c0.6-0.2,1.1-0.4,1.7-0.5l0.1,0.3c0.6-0.2,1.1-0.3,1.7-0.4c0.6-0.1,1.1-0.3,1.7-0.4l0.1,0.5
					l1.7-0.3l-0.1-0.8l1.8-0.2l0,0.3l0.4-0.1l0.4,0l0.9-0.1l0.9-0.1l0.9,0l0,0.2l0.9,0l0.4,0l0.4,0l0-0.2l1.8,0l0-0.3l1.8,0.1l0,0.3
					l0.4,0l0.4,0.1l0.9,0.1l0.9,0.1l0.9,0.2l-0.3,1.6l-0.8-0.1l-0.8-0.1l-0.8-0.1l-0.4-0.1l-0.4,0l0-0.3l-1.7-0.1l0,0.3l-1.7,0
					l0,0.2l-0.4,0l-0.4,0l-0.8,0l0-0.2l-0.8,0l-0.8,0.1l-0.8,0.1l-0.4,0l-0.4,0.1l0-0.3l-1.7,0.2l0.1,0.8l-1.6,0.3l-0.1-0.5
					c-0.6,0.1-1.1,0.2-1.7,0.4c-0.6,0.1-1.1,0.3-1.6,0.4l-0.1-0.3c-0.5,0.2-1.1,0.3-1.6,0.5l0.1,0.3c-0.5,0.2-1.1,0.3-1.6,0.6
					l-0.2-0.6l-1.6,0.6l0.2,0.5l-1.5,0.7l0.1,0.2c-0.5,0.2-1,0.5-1.5,0.8l-0.1-0.2c-0.5,0.2-1,0.5-1.5,0.8l-0.8-1.4
					C916.4-1162.6,916.9-1162.9,917.4-1163.2z"/>
				<path class="st1" d="M897.7-1141.5l0.2,0.1c0.1-0.3,0.2-0.5,0.3-0.8l0.4-0.8l-0.2-0.1c0.1-0.3,0.2-0.5,0.4-0.8l0.4-0.8l-0.5-0.3
					c0.3-0.5,0.5-1.1,0.8-1.6l0.5,0.3l0.4-0.8c0.1-0.3,0.3-0.5,0.5-0.8l-0.3-0.2c0.3-0.5,0.6-1,1-1.5l0.2,0.2l1-1.4
					c0.3-0.5,0.7-0.9,1.1-1.4l0.4,0.3c0.3-0.5,0.7-0.9,1.1-1.3l-0.6-0.6c0.2-0.2,0.4-0.4,0.6-0.7l0.6-0.6l0.2,0.2
					c0.4-0.4,0.8-0.9,1.2-1.3c0.4-0.4,0.8-0.8,1.3-1.2l0.2,0.2l1.3-1.1l-0.2-0.2l1.4-1.1l-0.2-0.2c0.5-0.4,1-0.7,1.4-1l0.2,0.2
					c0.5-0.4,1-0.7,1.5-1l0.7-0.5l0.8-0.4l0.8,1.4l-0.7,0.4l-0.7,0.5c-0.5,0.3-1,0.6-1.4,0.9l-0.2-0.2c-0.5,0.3-0.9,0.6-1.4,1
					l0.2,0.2l-1.3,1l0.2,0.2l-1.3,1.1l-0.2-0.2c-0.4,0.4-0.8,0.8-1.2,1.2c-0.4,0.4-0.8,0.8-1.2,1.2l-0.2-0.2l-0.6,0.6
					c-0.2,0.2-0.4,0.4-0.6,0.6l0.6,0.6c-0.4,0.4-0.7,0.8-1.1,1.3l-0.4-0.3c-0.3,0.4-0.7,0.9-1,1.3l-1,1.4l-0.2-0.2
					c-0.3,0.5-0.6,1-0.9,1.4l0.3,0.2c-0.2,0.2-0.3,0.5-0.4,0.7l-0.4,0.7l-0.5-0.3c-0.3,0.5-0.6,1-0.8,1.5l0.5,0.3l-0.4,0.8
					c-0.1,0.3-0.2,0.5-0.4,0.8l0.2,0.1l-0.3,0.8c-0.1,0.3-0.2,0.5-0.3,0.8l-0.2-0.1l-0.6,1.6l-1.6-0.6L897.7-1141.5z"/>
				<path class="st1" d="M896.5-1112.3l0.2-0.1c-0.2-0.6-0.3-1.1-0.5-1.7l-0.2,0.1c-0.2-0.6-0.3-1.1-0.4-1.7l-0.6,0.1l-0.2-0.9
					c-0.1-0.3-0.1-0.6-0.2-0.9l0.6-0.1l-0.2-0.9c-0.1-0.3-0.1-0.6-0.1-0.9l-0.3,0l-0.2-1.8l0.3,0l-0.1-1.8l0-0.4l0-0.4l0-0.9l0.5,0
					l0-0.9l0-0.9l-0.8,0l0-0.9l0-0.4l0-0.4l0.3,0l0.1-1.8l0.2-1.7l0.2,0c0-0.3,0.1-0.6,0.1-0.9l0.2-0.9l-0.2,0
					c0.1-0.3,0.1-0.6,0.2-0.9l0.2-0.9l-0.3-0.1c0.1-0.6,0.3-1.2,0.4-1.7l0.3,0.1c0.2-0.6,0.3-1.1,0.5-1.7l0.6-1.7l1.6,0.6l-0.5,1.6
					c-0.2,0.5-0.3,1.1-0.5,1.6l-0.3-0.1c-0.2,0.5-0.3,1.1-0.4,1.7l0.3,0.1l-0.2,0.8c-0.1,0.3-0.1,0.6-0.2,0.8l0.2,0l-0.1,0.8
					c-0.1,0.3-0.1,0.6-0.1,0.8l-0.2,0l-0.2,1.7l-0.1,1.7l-0.3,0l0,0.4l0,0.4l0,0.9l0.8,0l0,0.8l0,0.8l-0.5,0l0,0.8l0,0.4l0,0.4
					l0.1,1.7l-0.3,0l0.2,1.7l0.3,0c0,0.3,0.1,0.6,0.1,0.8l0.1,0.8l-0.6,0.1c0.1,0.3,0.1,0.6,0.2,0.8l0.2,0.8l0.6-0.1
					c0.1,0.5,0.2,1.1,0.4,1.6l0.2-0.1c0.2,0.5,0.3,1.1,0.5,1.6l-0.2,0.1l0.5,1.6l-1.6,0.6L896.5-1112.3z"/>
				<path class="st1" d="M914.4-1089.1l0.1-0.2c-0.5-0.3-1-0.6-1.5-1l-0.1,0.2c-0.5-0.3-1-0.7-1.4-1l-0.4,0.5l-1.4-1.1l0.4-0.5
					l-1.3-1.1l-0.2,0.2c-0.5-0.4-0.9-0.8-1.3-1.2l0.2-0.2c-0.4-0.4-0.8-0.8-1.2-1.3l-0.6-0.6c-0.2-0.2-0.4-0.4-0.6-0.7l0.4-0.4
					c-0.4-0.4-0.8-0.9-1.1-1.3l-0.7,0.5c-0.4-0.5-0.7-0.9-1.1-1.4l0.2-0.2l-1-1.4c-0.3-0.5-0.6-1-1-1.5l0.2-0.1
					c-0.2-0.2-0.3-0.5-0.5-0.7l-0.4-0.8l-0.2,0.1c-0.3-0.5-0.6-1-0.8-1.5l-0.3,0.1l-0.4-0.8c-0.1-0.3-0.2-0.5-0.4-0.8l0.3-0.1
					l-0.4-0.8c-0.1-0.3-0.2-0.5-0.3-0.8l-0.6-1.6l1.6-0.6l0.6,1.6c0.1,0.3,0.2,0.5,0.3,0.8l0.3,0.8l-0.3,0.1
					c0.1,0.3,0.2,0.5,0.4,0.8l0.4,0.8l0.3-0.1c0.3,0.5,0.5,1,0.8,1.5l0.2-0.1l0.4,0.7c0.1,0.2,0.3,0.5,0.4,0.7l-0.2,0.1
					c0.3,0.5,0.6,1,0.9,1.4l1,1.4l-0.2,0.2c0.3,0.5,0.7,0.9,1,1.3l0.7-0.5c0.3,0.4,0.7,0.9,1.1,1.3l-0.4,0.4
					c0.2,0.2,0.4,0.4,0.6,0.6l0.6,0.6c0.4,0.4,0.8,0.8,1.2,1.2l-0.2,0.2c0.4,0.4,0.8,0.8,1.2,1.2l0.2-0.2l1.3,1.1l-0.4,0.5l1.3,1.1
					l0.4-0.5c0.4,0.3,0.9,0.7,1.4,1l0.1-0.2c0.4,0.3,0.9,0.6,1.4,0.9l-0.1,0.2l0.7,0.5l0.7,0.4l-0.8,1.4l-0.8-0.4L914.4-1089.1z"/>
				<path class="st1" d="M943-1082.8l0-0.2l-0.9,0.1l-0.4,0.1l-0.4,0l0,0.2l-1.8,0.1l0,0.6l-1.8,0l0-0.6l-0.4,0l-0.4,0l-0.9,0l0,0.3
					l-0.9,0l-0.9-0.1l0-0.3l-0.9-0.1l-0.4,0l-0.4-0.1l-1.7-0.2l0.1-0.5l-1.7-0.3l-0.2,0.8c-0.6-0.1-1.2-0.3-1.7-0.4l0.1-0.3
					c-0.6-0.1-1.1-0.3-1.7-0.4c-0.6-0.2-1.1-0.3-1.7-0.5l0.1-0.2c-0.5-0.2-1.1-0.4-1.7-0.6l-0.1,0.2l-1.6-0.6l-0.1,0.3l-1.6-0.7
					l0.1-0.3c-0.5-0.2-1-0.5-1.6-0.8c-0.5-0.3-1-0.6-1.5-0.9l0.8-1.4c0.5,0.3,1,0.6,1.5,0.8c0.5,0.3,1,0.5,1.5,0.8l-0.1,0.3l1.6,0.7
					l0.1-0.3l1.6,0.6l0.1-0.2c0.5,0.2,1.1,0.4,1.6,0.6l-0.1,0.2c0.5,0.2,1.1,0.3,1.6,0.5c0.5,0.2,1.1,0.3,1.6,0.4l-0.1,0.3
					c0.6,0.1,1.1,0.3,1.7,0.4l0.2-0.8l1.6,0.3l-0.1,0.5l1.7,0.2l0.4,0.1l0.4,0l0.8,0.1l0,0.3l0.8,0.1l0.9,0l0-0.3l0.8,0l0.4,0l0.4,0
					l0,0.6l1.7,0l0-0.6l1.7-0.1l0-0.2l0.4,0l0.4-0.1l0.8-0.1l0,0.2l0.8-0.1l0.8-0.1l0.3,1.6l-0.9,0.2L943-1082.8z"/>
				<path class="st1" d="M969-1096.4l-0.2-0.2l-1.2,1.3l0.2,0.2c-0.4,0.4-0.8,0.8-1.3,1.2l0.4,0.4c-0.4,0.4-0.9,0.8-1.3,1.2
					l-0.4-0.4c-0.2,0.2-0.4,0.4-0.7,0.6l-0.7,0.5l0.2,0.2c-0.5,0.4-0.9,0.7-1.4,1.1l-0.2-0.2c-0.5,0.3-0.9,0.7-1.4,1l-1.5,0.9
					l-0.3-0.5l-1.5,0.9l0.4,0.7c-0.5,0.3-1,0.5-1.6,0.8l-0.1-0.3c-0.5,0.3-1.1,0.5-1.6,0.8l-0.8,0.4l-0.8,0.3l-0.1-0.2
					c-0.5,0.2-1.1,0.4-1.6,0.6l0.1,0.2c-0.6,0.2-1.1,0.4-1.7,0.6l0.1,0.3l-1.7,0.5l-0.1-0.3c-0.6,0.1-1.1,0.3-1.7,0.4
					c-0.6,0.1-1.2,0.2-1.7,0.3l-0.3-1.6c0.6-0.1,1.1-0.2,1.7-0.3c0.5-0.1,1.1-0.2,1.6-0.4l0.1,0.3l1.6-0.5l-0.1-0.3
					c0.5-0.2,1.1-0.4,1.6-0.5l-0.1-0.2c0.5-0.2,1-0.4,1.6-0.6l0.1,0.2l0.8-0.3l0.8-0.3c0.5-0.2,1-0.5,1.5-0.7l0.1,0.3
					c0.5-0.3,1-0.5,1.5-0.8l-0.4-0.7l1.4-0.8l0.3,0.5l1.4-0.9c0.5-0.3,0.9-0.6,1.4-1l0.2,0.2c0.5-0.3,0.9-0.7,1.4-1l-0.2-0.2
					l0.7-0.5c0.2-0.2,0.4-0.4,0.6-0.6l0.4,0.4c0.4-0.4,0.9-0.7,1.3-1.1l-0.4-0.4c0.4-0.4,0.8-0.8,1.2-1.2l-0.2-0.2l1.2-1.2l0.2,0.2
					l1.1-1.3l1.3,1.1L969-1096.4z"/>
				<path class="st1" d="M980.1-1123.5l-0.2,0l0,0.4l0,0.4l-0.1,0.9l0.2,0l-0.1,0.9l-0.1,0.9l0.6,0.1c-0.1,0.6-0.1,1.2-0.2,1.8
					l-0.6-0.1c-0.1,0.6-0.2,1.2-0.3,1.7l0.3,0.1l-0.4,1.7l-0.3-0.1c-0.1,0.6-0.3,1.1-0.5,1.7c-0.1,0.6-0.3,1.1-0.5,1.7l-0.5-0.2
					l-0.3,0.8c-0.1,0.3-0.2,0.5-0.3,0.8l0.8,0.3c-0.2,0.5-0.4,1.1-0.7,1.6l-0.3-0.1c-0.2,0.5-0.5,1.1-0.7,1.6l-0.8,1.6l-0.2-0.1
					c-0.3,0.5-0.6,1-0.9,1.5l0.2,0.1c-0.3,0.5-0.6,1-0.9,1.5l0.3,0.2c-0.2,0.2-0.3,0.5-0.5,0.7l-0.5,0.7l-0.2-0.2
					c-0.3,0.5-0.7,1-1,1.4c-0.4,0.5-0.7,0.9-1.1,1.4l-1.3-1.1c0.4-0.4,0.7-0.9,1.1-1.3c0.4-0.4,0.7-0.9,1-1.4l0.2,0.2l0.5-0.7
					c0.2-0.2,0.3-0.5,0.5-0.7l-0.3-0.2c0.3-0.5,0.6-0.9,0.9-1.4l-0.2-0.1c0.3-0.5,0.6-1,0.8-1.5l0.2,0.1l0.8-1.5
					c0.2-0.5,0.5-1,0.7-1.5l0.3,0.1c0.2-0.5,0.4-1.1,0.6-1.6l-0.8-0.3c0.1-0.3,0.2-0.5,0.3-0.8l0.3-0.8l0.5,0.2
					c0.2-0.5,0.4-1.1,0.5-1.6c0.1-0.5,0.3-1.1,0.4-1.6l0.3,0.1l0.4-1.7l-0.3-0.1c0.1-0.6,0.2-1.1,0.3-1.7l0.6,0.1
					c0.1-0.6,0.2-1.1,0.2-1.7l-0.6-0.1l0.1-0.8l0.1-0.8l-0.2,0l0.1-0.8l0-0.4l0-0.4l0.2,0l0-1.7h1.7L980.1-1123.5z"/>
			</g>
			<path class="st1" d="M571-1001.7l0-0.4l0,0l0-0.5h0l0-0.3l0-0.3h0l0-0.4l0.1,0l-0.1-1.2l-0.1,0c0-0.1,0-0.1,0-0.2l0-0.2l0,0
				l-0.2-0.8c0-0.1,0-0.1-0.1-0.2l0.1,0l-0.1-0.3c0-0.1-0.1-0.3-0.1-0.4l-0.1-0.4l-0.1,0l-0.1-0.4c0-0.1-0.1-0.2-0.1-0.3l-0.1-0.2
				c0,0,0,0,0,0l0.1,0l-0.5-0.9l0.1,0l-0.1-0.3c-0.1-0.1-0.1-0.2-0.2-0.3l-0.3-0.4l-0.2,0.1l-0.2-0.3l0,0l-0.3-0.4c0,0,0,0,0,0l0,0
				l-0.2-0.2c0,0,0,0,0-0.1l-0.2-0.2l0,0l-0.3-0.3l0.1-0.1l-0.2-0.2c-0.1-0.1-0.2-0.2-0.2-0.2l-0.4-0.4l-0.1,0.1c0,0,0,0,0,0
				l-0.4-0.3l0,0l-0.2-0.2c-0.1-0.1-0.2-0.2-0.4-0.3l-0.1-0.1c0,0,0,0,0,0l0.1-0.1l-1-0.6l-0.1,0.1l-0.2-0.1
				c-0.1-0.1-0.2-0.1-0.3-0.2l-0.2-0.1c-0.1,0-0.1-0.1-0.2-0.1l0-0.1l-1-0.4l0-0.1l-0.5-0.2c-0.1,0-0.2-0.1-0.3-0.1l-0.3-0.1
				l-0.1,0.2l-0.5-0.1l0,0l-0.2,0c-0.1,0-0.1,0-0.2,0l0,0l-0.1,0c0,0-0.1,0-0.1,0l-0.5-0.1l0,0l-0.4-0.1l0-0.1l-1.2-0.1l0,0.1
				l-0.5,0l-0.9,0.1l0-0.1l-1.2,0.1l0,0.1l-0.2,0c-0.1,0-0.2,0-0.3,0.1l-0.2,0c-0.1,0-0.1,0-0.2,0.1l0-0.1l-0.3,0.1
				c-0.2,0-0.3,0.1-0.5,0.2l-0.2,0.1l0-0.1l-1.1,0.4l0.1,0.2l-0.5,0.2l0,0l-0.2,0.1c-0.1,0-0.1,0.1-0.2,0.1l0,0l-0.1,0.1
				c0,0-0.1,0-0.1,0l-0.4,0.2l0,0l-0.3,0.2c0,0,0,0,0,0l-0.1-0.1l-0.4,0.3c-0.1,0.1-0.2,0.1-0.3,0.2l-0.3,0.2l0.1,0.1l-0.4,0.3l0,0
				l-0.2,0.1c-0.1,0.1-0.2,0.2-0.3,0.2l-0.1,0.1c-0.1,0-0.1,0.1-0.2,0.2l-0.1-0.1l-0.8,0.9l0.1,0.1l-0.2,0.3
				c-0.1,0.1-0.1,0.2-0.2,0.3l-0.1,0.2l-0.1-0.1l-0.6,0.9l-0.1,0l-0.2,0.3c-0.1,0.2-0.2,0.3-0.3,0.5l-0.1,0.3l0.2,0.1
				c0,0,0,0.1-0.1,0.1l-0.1,0.3l0,0l-0.2,0.5l0,0l-0.1,0.3l-0.1,0.3l0,0l-0.1,0.2c0,0.1,0,0.1-0.1,0.2l-0.1,0l-0.1,0.3
				c0,0.1-0.1,0.3-0.1,0.4l-0.1,0.4l0.1,0c0,0,0,0.1,0,0.1l-0.1,0.3l0,0l-0.1,1l-0.1,0l-0.1,1.2l0.1,0l0,0.9l-0.1,0l0.1,1.1l-0.1,0
				l0.2,1.1l0.2,0c0,0.1,0,0.1,0.1,0.2l0.1,0.2l0,0l0.2,0.5l0,0l0.1,0.3l0.1,0.3l0,0l0.1,0.2c0,0.1,0.1,0.1,0.1,0.2l-0.1,0l0.2,0.4
				c0,0.1,0.1,0.1,0.1,0.2l0.3,0.5l0.1,0c0,0.1,0.1,0.1,0.1,0.2l0.1,0.2l0,0l0.3,0.4c0.1,0.1,0.1,0.2,0.2,0.3l0.1,0.2l-0.1,0.1
				l0.2,0.3c0.1,0.1,0.1,0.2,0.2,0.3l0.3,0.4l0.1-0.1l0.5,0.6c0,0,0.1,0.1,0.1,0.1l-0.1,0.1l0.4,0.3c0.1,0.1,0.2,0.2,0.3,0.2
				l0.2,0.1l-0.1,0.1l0.9,0.7l0.1-0.1c0,0,0,0,0,0l0.4,0.3l0,0l0.4,0.2l0,0l0.4,0.2c0,0,0.1,0,0.1,0l0.1,0.1l0,0
				c0.1,0,0.1,0.1,0.2,0.1l0.2,0.1c0,0,0,0,0,0l0,0.1l1.1,0.5l0-0.1l0.5,0.2l0,0l0.2,0.1c0.2,0.1,0.3,0.1,0.5,0.2
				c0.1,0,0.1,0,0.2,0.1l0,0.1l0.5,0.1c0.1,0,0.2,0.1,0.4,0.1l0.3,0.1l0-0.1l0.9,0.1l0,0.1l1.1,0.1l0,0.1l1.2,0l0-0.2l0.5,0l0,0
				l0.4-0.1l0,0l0.5-0.1c0,0,0.1,0,0.1,0l0.1,0l0,0c0.1,0,0.1,0,0.2,0l0.2,0c0,0,0,0,0,0l0,0.1l1.1-0.3l0-0.1c0,0,0,0,0,0l0.5-0.2
				l0,0l0.8-0.3c0,0,0,0,0.1,0l0,0.1l0.4-0.2c0.1-0.1,0.2-0.1,0.3-0.2l0.3-0.2l0-0.1l0.6-0.4c0.1,0,0.1-0.1,0.2-0.1l0,0.1l0.3-0.2
				c0.1-0.1,0.2-0.2,0.4-0.3l0.2-0.2l0.1,0.1l0.4-0.3c0.1-0.1,0.2-0.2,0.3-0.3l0.2-0.2l-0.1-0.1c0,0,0.1-0.1,0.1-0.1l0.1-0.1l0,0
				l0.5-0.6l0,0c0,0,0,0,0,0l0.2-0.2l0,0c0,0,0,0,0,0l0.1-0.1c0-0.1,0.1-0.1,0.1-0.2l0.1,0.1l0.7-1l-0.1,0c0-0.1,0.1-0.1,0.1-0.2
				l0.1-0.2l0,0l0.4-0.8c0-0.1,0.1-0.1,0.1-0.2l0.1,0l0.1-0.3c0.1-0.1,0.1-0.2,0.1-0.3l0.2-0.5l-0.1,0l0.1-0.3
				c0-0.1,0.1-0.3,0.1-0.4l0-0.2c0,0,0,0,0,0l0.1,0l0.2-1l0.1,0l0.1-0.3c0-0.1,0-0.2,0.1-0.4l0.1-0.5L571-1001.7z"/>
			<path class="st1" d="M808.6-394.6l0-0.3l0,0l0-0.3h0l0-0.2l0-0.2h0l0-0.3l0.1,0l-0.1-0.7l-0.1,0c0,0,0-0.1,0-0.1l0-0.1l0,0
				l-0.1-0.5c0,0,0-0.1,0-0.1l0,0l0-0.2c0-0.1,0-0.2-0.1-0.2l-0.1-0.3l-0.1,0l-0.1-0.2c0-0.1-0.1-0.1-0.1-0.2l0-0.1c0,0,0,0,0,0
				l0.1,0l-0.3-0.6l0,0l-0.1-0.2c0-0.1-0.1-0.1-0.1-0.2l-0.2-0.3l-0.1,0.1l-0.1-0.2l0,0l-0.2-0.2c0,0,0,0,0,0l0,0l-0.1-0.1
				c0,0,0,0,0,0l-0.1-0.1l0,0l-0.2-0.2l0,0l-0.1-0.1c0,0-0.1-0.1-0.2-0.1l-0.2-0.2l0,0c0,0,0,0,0,0l-0.2-0.2l0,0l-0.1-0.1
				c-0.1-0.1-0.1-0.1-0.2-0.2l-0.1-0.1c0,0,0,0,0,0l0-0.1l-0.6-0.4l0,0.1l-0.1-0.1c-0.1,0-0.1-0.1-0.2-0.1l-0.1,0c0,0-0.1,0-0.1-0.1
				l0,0l-0.6-0.3l0-0.1l-0.3-0.1c-0.1,0-0.1,0-0.2-0.1l-0.2-0.1l0,0.1l-0.3-0.1l0,0l-0.1,0c0,0-0.1,0-0.1,0l0,0l-0.1,0c0,0,0,0,0,0
				l-0.3-0.1l0,0l-0.2,0l0-0.1l-0.7-0.1l0,0.1l-0.3,0l-0.6,0l0-0.1l-0.7,0.1l0,0.1l-0.1,0c-0.1,0-0.1,0-0.2,0l-0.1,0
				c0,0-0.1,0-0.1,0l0-0.1l-0.2,0.1c-0.1,0-0.2,0.1-0.3,0.1l-0.1,0l0-0.1l-0.7,0.3l0,0.1l-0.3,0.1l0,0l-0.1,0.1c0,0-0.1,0-0.1,0.1
				l0,0l-0.1,0c0,0,0,0,0,0l-0.2,0.1l0,0l-0.2,0.1c0,0,0,0,0,0l0,0l-0.3,0.2c-0.1,0-0.1,0.1-0.2,0.1l-0.2,0.1l0,0l-0.3,0.2l0,0
				l-0.1,0.1c-0.1,0-0.1,0.1-0.2,0.1l-0.1,0.1c0,0-0.1,0.1-0.1,0.1l0,0l-0.5,0.5l0,0l-0.1,0.2c0,0.1-0.1,0.1-0.1,0.2l-0.1,0.1l0,0
				l-0.4,0.5l0,0l-0.1,0.2c-0.1,0.1-0.1,0.2-0.2,0.3l-0.1,0.2l0.1,0c0,0,0,0,0,0.1l-0.1,0.2l0,0l-0.1,0.3l0,0l-0.1,0.2l-0.1,0.2l0,0
				l0,0.1c0,0,0,0.1,0,0.1l0,0l-0.1,0.2c0,0.1,0,0.2-0.1,0.3l-0.1,0.3l0.1,0c0,0,0,0,0,0.1l0,0.2l0,0l-0.1,0.6l-0.1,0l0,0.7l0.1,0
				l0,0.6l-0.1,0l0.1,0.6l-0.1,0l0.1,0.7l0.1,0c0,0,0,0.1,0,0.1l0,0.1l0,0l0.1,0.3l0,0l0.1,0.2l0.1,0.2l0,0l0,0.1c0,0,0,0.1,0.1,0.1
				l-0.1,0l0.1,0.2c0,0,0,0.1,0,0.1l0.2,0.3l0,0c0,0,0,0.1,0.1,0.1l0.1,0.1l0,0l0.2,0.2c0,0.1,0.1,0.1,0.1,0.2l0.1,0.1l0,0l0.1,0.2
				c0,0.1,0.1,0.1,0.1,0.2l0.2,0.2l0,0l0.3,0.4c0,0,0,0,0.1,0.1l0,0l0.2,0.2c0.1,0.1,0.1,0.1,0.2,0.1l0.1,0.1l0,0l0.6,0.4l0.1-0.1
				c0,0,0,0,0,0l0.3,0.2l0,0l0.2,0.1l0,0l0.2,0.1c0,0,0,0,0,0l0.1,0l0,0c0,0,0.1,0,0.1,0.1l0.1,0c0,0,0,0,0,0l0,0.1l0.7,0.3l0-0.1
				l0.3,0.1l0,0l0.1,0c0.1,0,0.2,0.1,0.3,0.1c0,0,0.1,0,0.1,0l0,0.1l0.3,0.1c0.1,0,0.1,0,0.2,0l0.2,0l0,0l0.6,0.1l0,0.1l0.6,0l0,0.1
				l0.7,0l0-0.1l0.3,0l0,0l0.3,0l0,0l0.3-0.1c0,0,0,0,0,0l0.1,0l0,0c0,0,0.1,0,0.1,0l0.1,0c0,0,0,0,0,0l0,0.1l0.7-0.2l0-0.1
				c0,0,0,0,0,0l0.3-0.1l0,0l0.5-0.2c0,0,0,0,0,0l0,0.1l0.3-0.1c0.1,0,0.1-0.1,0.2-0.1l0.2-0.1l0,0l0.4-0.2c0,0,0.1,0,0.1-0.1l0,0
				l0.2-0.1c0.1-0.1,0.2-0.1,0.2-0.2l0.1-0.1l0,0l0.2-0.2c0.1-0.1,0.1-0.1,0.2-0.2l0.1-0.1l-0.1-0.1c0,0,0.1-0.1,0.1-0.1l0.1-0.1
				l0,0l0.3-0.4l0,0c0,0,0,0,0,0l0.1-0.1l0,0c0,0,0,0,0,0l0.1-0.1c0,0,0.1-0.1,0.1-0.1l0,0l0.4-0.6l0,0c0,0,0-0.1,0.1-0.1l0.1-0.1
				l0,0l0.2-0.5c0,0,0-0.1,0.1-0.1l0,0l0.1-0.2c0-0.1,0.1-0.1,0.1-0.2l0.1-0.3l-0.1,0l0.1-0.2c0-0.1,0.1-0.2,0.1-0.2l0-0.1
				c0,0,0,0,0,0l0.1,0l0.1-0.6l0,0l0-0.2c0-0.1,0-0.2,0-0.2l0-0.3L808.6-394.6z"/>
		</g>
		<g>
			<path class="st1" d="M191.9-1288.9v-24.4h-58.8v0.6h-40v0H24.4v-0.7H0v58.8h0.6v40h0v68.7H0v24.4h58.8v-0.6h40v0h68.7v0.7h24.4
				v-58.8h-0.6v-40h0v-68.7H191.9z M188.2-1143.3h-1.3v17h-56.2v0.6H93.1v0H38.7v0.6H21.9v-1.3H5v-56.2H4.4v-37.6h0v-54.4H3.7v-16.7
				H5v-17h56.2v-0.6h37.6v0h54.4v-0.6H170v1.3h17v56.2h0.6v37.6h0v54.4h0.6V-1143.3z"/>
			<path class="st1" d="M191.9-1102v-24.4h-58.8v0.6h-40v0H24.4v-0.7H0v58.8h0.6v40h0v68.7H0v24.4h58.8v-0.6h40v0h68.7v0.7h24.4
				v-58.8h-0.6v-40h0v-68.7H191.9z M188.2-956.4h-1.3v17h-56.2v0.6H93.1v0H38.7v0.6H21.9v-1.3H5v-56.2H4.4v-37.6h0v-54.4H3.7v-16.7
				H5v-17h56.2v-0.6h37.6v0h54.4v-0.6H170v1.3h17v56.2h0.6v37.6h0v54.4h0.6V-956.4z"/>
			<path class="st1" d="M191.9-915.1v-24.4h-58.8v0.6h-40v0H24.4v-0.7H0v58.8h0.6v40h0v68.7H0v24.4h58.8v-0.6h40v0h68.7v0.7h24.4
				v-58.8h-0.6v-40h0v-68.7H191.9z M188.2-769.5h-1.3v17h-56.2v0.6H93.1v0H38.7v0.6H21.9v-1.3H5v-56.2H4.4v-37.6h0v-54.4H3.7v-16.7
				H5v-17h56.2v-0.6h37.6v0h54.4v-0.6H170v1.3h17v56.2h0.6v37.6h0v54.4h0.6V-769.5z"/>
			<path class="st1" d="M191.9-728.2v-24.4h-58.8v0.6h-40v0H24.4v-0.7H0v58.8h0.6v40h0v68.7H0v24.4h58.8v-0.6h40v0h68.7v0.7h24.4
				v-58.8h-0.6v-40h0v-68.7H191.9z M188.2-582.6h-1.3v17h-56.2v0.6H93.1v0H38.7v0.6H21.9v-1.3H5v-56.2H4.4v-37.6h0v-54.4H3.7v-16.7
				H5v-17h56.2v-0.6h37.6v0h54.4v-0.6H170v1.3h17v56.2h0.6v37.6h0v54.4h0.6V-582.6z"/>
			<path class="st1" d="M191.9-541.3v-24.4h-58.8v0.6h-40v0H24.4v-0.7H0v58.8h0.6v40h0v68.7H0v24.4h58.8v-0.6h40v0h68.7v0.7h24.4
				v-58.8h-0.6v-40h0v-68.7H191.9z M188.2-395.7h-1.3v17h-56.2v0.6H93.1v0H38.7v0.6H21.9v-1.3H5V-435H4.4v-37.6h0V-527H3.7v-16.7H5
				v-17h56.2v-0.6h37.6v0h54.4v-0.6H170v1.3h17v56.2h0.6v37.6h0v54.4h0.6V-395.7z"/>
			<path class="st1" d="M191.9-354.4v-24.4h-58.8v0.6h-40v0H24.4v-0.7H0v58.8h0.6v40h0v68.7H0v24.4h58.8v-0.6h40v0h68.7v0.7h24.4
				v-58.8h-0.6v-40h0v-68.7H191.9z M188.2-208.9h-1.3v17h-56.2v0.6H93.1v0H38.7v0.6H21.9v-1.3H5v-56.2H4.4v-37.6h0v-54.4H3.7v-16.7
				H5v-17h56.2v-0.6h37.6v0h54.4v-0.6H170v1.3h17v56.2h0.6v37.6h0v54.4h0.6V-208.9z"/>
		</g>
		<g>
			<path class="st1" d="M1499-1475.8v-24.4h-58.8v0.6h-40v0h-68.7v-0.7h-24.4v58.8h0.6v40h0v68.7h-0.7v24.4h58.8v-0.6h40v0h68.7v0.7
				h24.4v-58.8h-0.6v-40h0v-68.7H1499z M1495.3-1330.2h-1.3v17h-56.2v0.6h-37.6v0h-54.4v0.6h-16.7v-1.3h-17v-56.2h-0.6v-37.6h0
				v-54.4h-0.6v-16.7h1.3v-17h56.2v-0.6h37.6v0h54.4v-0.6h16.7v1.3h17v56.2h0.6v37.6h0v54.4h0.6V-1330.2z"/>
		</g>
		<g>
			<path class="st1" d="M378.8-1475.8v-24.4H320v0.6h-40v0h-68.7v-0.7h-24.4v58.8h0.6v40h0v68.7h-0.7v24.4h58.8v-0.6h40v0h68.7v0.7
				h24.4v-58.8h-0.6v-40h0v-68.7H378.8z M375.1-1330.2h-1.3v17h-56.2v0.6H280v0h-54.4v0.6h-16.7v-1.3h-17v-56.2h-0.6v-37.6h0v-54.4
				h-0.6v-16.7h1.3v-17h56.2v-0.6h37.6v0h54.4v-0.6h16.7v1.3h17v56.2h0.6v37.6h0v54.4h0.6V-1330.2z"/>
			<path class="st1" d="M565.5-1475.8v-24.4h-58.8v0.6h-40v0h-68.7v-0.7h-24.4v58.8h0.6v40h0v68.7h-0.7v24.4h58.8v-0.6h40v0h68.7
				v0.7h24.4v-58.8h-0.6v-40h0v-68.7H565.5z M561.7-1330.2h-1.3v17h-56.2v0.6h-37.6v0h-54.4v0.6h-16.7v-1.3h-17v-56.2H378v-37.6h0
				v-54.4h-0.6v-16.7h1.3v-17h56.2v-0.6h37.6v0h54.4v-0.6h16.7v1.3h17v56.2h0.6v37.6h0v54.4h0.6V-1330.2z"/>
			<path class="st1" d="M752.1-1475.8v-24.4h-58.8v0.6h-40v0h-68.7v-0.7h-24.4v58.8h0.6v40h0v68.7h-0.7v24.4H619v-0.6h40v0h68.7v0.7
				h24.4v-58.8h-0.6v-40h0v-68.7H752.1z M748.4-1330.2h-1.3v17h-56.2v0.6h-37.6v0h-54.4v0.6h-16.7v-1.3h-17v-56.2h-0.6v-37.6h0
				v-54.4H564v-16.7h1.3v-17h56.2v-0.6H659v0h54.4v-0.6h16.7v1.3h17v56.2h0.6v37.6h0v54.4h0.6V-1330.2z"/>
			<path class="st1" d="M938.8-1475.8v-24.4H880v0.6h-40v0h-68.7v-0.7h-24.4v58.8h0.6v40h0v68.7h-0.7v24.4h58.8v-0.6h40v0h68.7v0.7
				h24.4v-58.8h-0.6v-40h0v-68.7H938.8z M935.1-1330.2h-1.3v17h-56.2v0.6H840v0h-54.4v0.6h-16.7v-1.3h-17v-56.2h-0.6v-37.6h0v-54.4
				h-0.6v-16.7h1.3v-17h56.2v-0.6h37.6v0h54.4v-0.6h16.7v1.3h17v56.2h0.6v37.6h0v54.4h0.6V-1330.2z"/>
			<path class="st1" d="M1125.5-1475.8v-24.4h-58.8v0.6h-40v0h-68.7v-0.7h-24.4v58.8h0.6v40h0v68.7h-0.7v24.4h58.8v-0.6h40v0h68.7
				v0.7h24.4v-58.8h-0.6v-40h0v-68.7H1125.5z M1121.7-1330.2h-1.3v17h-56.2v0.6h-37.6v0h-54.4v0.6h-16.7v-1.3h-17v-56.2H938v-37.6h0
				v-54.4h-0.6v-16.7h1.3v-17h56.2v-0.6h37.6v0h54.4v-0.6h16.7v1.3h17v56.2h0.6v37.6h0v54.4h0.6V-1330.2z"/>
			<path class="st1" d="M1312.1-1475.8v-24.4h-58.8v0.6h-40v0h-68.7v-0.7h-24.4v58.8h0.6v40h0v68.7h-0.7v24.4h58.8v-0.6h40v0h68.7
				v0.7h24.4v-58.8h-0.6v-40h0v-68.7H1312.1z M1308.4-1330.2h-1.3v17h-56.2v0.6h-37.6v0h-54.4v0.6h-16.7v-1.3h-17v-56.2h-0.6v-37.6
				h0v-54.4h-0.6v-16.7h1.3v-17h56.2v-0.6h37.6v0h54.4v-0.6h16.7v1.3h17v56.2h0.6v37.6h0v54.4h0.6V-1330.2z"/>
		</g>
		<g>
			<path class="st1" d="M191.9-1475.8v-24.4h-58.8v0.6h-40v0H24.4v-0.7H0v58.8h0.6v40h0v68.7H0v24.4h58.8v-0.6h40v0h68.7v0.7h24.4
				v-58.8h-0.6v-40h0v-68.7H191.9z M188.2-1330.2h-1.3v17h-56.2v0.6H93.1v0H38.7v0.6H21.9v-1.3H5v-56.2H4.4v-37.6h0v-54.4H3.7v-16.7
				H5v-17h56.2v-0.6h37.6v0h54.4v-0.6H170v1.3h17v56.2h0.6v37.6h0v54.4h0.6V-1330.2z"/>
		</g>
	</g>
</pattern>
<rect class="st2" width="2198.7" height="1330"/>
<pattern  id="SVGID_1_" xlink:href="#New_Pattern" patternTransform="matrix(1 0 0 1 683.5655 -102)">
</pattern>
<rect x="18.3" y="10" class="st3" width="2175" height="1277"/>
<g>
	<g>
		<path class="st4" d="M1060.2,648.6l-0.8,0.9c-0.9,1-1.9,1.9-2.9,2.7c0,0,0,0,0,0c-11.7,8.5-28.6,17.7-39.1,26.2
			c-0.2,0.2-0.5,0.1-0.6-0.2c-6.5-28.4-12.9-56.4-19.2-84.3c0,0,0,0,0-0.1c-1.1-4.9-3-13.2-4.5-19.5c0.4,0.3,0.7,0.7,1.1,1l0,0
			l0.4,0.4l0.1,0.1c0.6,0.7,1.1,1.5,1.8,2.2c0.1,0.1,0.1,0.2,0.2,0.2c14,17.8,31.4,35,47.8,52.7
			C1049.8,636.7,1055.1,642.6,1060.2,648.6z"/>
		<path class="st4" d="M1004.7,639.7c-21.7-25.6-67.2-36.6-86.9-60.7c14.6,2.4,42.9-6.2,61.3-8.4l0,0c0.7-0.1,1.5-0.2,2.2-0.2
			c0.2,0,0.4,0,0.6,0c0.2,0,0.3,0,0.5,0c1.2,0,2.3,0.2,3.4,0.5c1.1,0.3,2.1,0.6,3.1,1.1c0.6,0.3,1.1,0.8,1.2,1.5
			c1.8,7.5,3.5,15.1,5.3,22.8c3.4,14.4,6.7,29,10.1,43.2C1005.6,639.8,1005,640,1004.7,639.7z"/>
		<path d="M1013.5,678.9"/>
		<path class="st4" d="M1067.8,575.9c-0.5,4.5-0.9,8.9-1.3,13.2c-1.4,17.5-1.9,34.5-3.9,53l0,0c-0.1,0.9-0.3,1.8-0.6,2.7l-0.4,1.5
			c-4.8-5.7-9.9-11.1-15-16.5c-6.2-6.5-12.4-13-18.5-20.2c22.1-17.6,22.9-20.9,34.2-31.3l0,0c0.5-0.5,1-0.9,1.5-1.3
			C1065,576.2,1066.3,575.8,1067.8,575.9L1067.8,575.9z"/>
		<path class="st4" d="M1100.2,604.7c-11.2,0.4-21.5,0.8-32.6,1.3c0.5-5.7,0.8-11.2,1.2-16.8c0.3-4.3,0.6-8.6,0.9-13.1
			c0.9,0.2,1.7,0.6,2.4,1.2c0.4,0.4,0.8,0.8,1.2,1.2C1082.5,587.3,1091.3,595.9,1100.2,604.7z"/>
		<path class="st4" d="M1007.6,649.3c-1-5-4.2-8-8-11.4c-0.2-0.2-0.5-0.1-0.6,0.1c-10.3,26.9-20.5,53.4-30.9,80.4
			c-0.1,0.3,0.2,0.6,0.5,0.5c0.4-0.1,0.5-0.2,0.6-0.3c7-5.8,14-11.6,21-17.4c0.2-0.2,0.6,0,0.6,0.3c0.2,4.9,0.4,9.9,0.6,14.8
			c0,0.3,0.4,0.5,0.6,0.2c0,0,0,0,0,0c3.7-7.3,7.5-14.6,11.2-21.8c0.1-0.2,0.5-0.3,0.6,0c3.5,6.1,7,12.2,10.5,18.4
			c0.2,0.3,0.6,0.2,0.7-0.1v0c-0.1-11.3-0.1-22.2-0.3-33.5"/>
	</g>
	<path class="st1" d="M851.8,640.5c0.2-86.6,71.1-157.1,157.7-156.8c86.8,0.3,157.2,71.1,156.8,157.6c-0.5,87-71,157.2-157.6,156.7
		C921.7,797.7,851.5,727.2,851.8,640.5z M872.8,640.5c-0.1,75.2,60.7,136.4,135.6,136.7c75.4,0.2,136.9-60.7,137-135.9
		c0.1-75.1-60.7-136.4-135.6-136.6C934.2,504.5,872.9,565.3,872.8,640.5z"/>
	<path class="st1" d="M1357.2,693c-46.6-80.7-92.5-160.2-138.9-240.6c-18.8,32.5-37.2,64.3-56,96.9c-4.3-6-8.3-11.5-12.1-17.2
		c-0.6-0.8-0.4-2.7,0.2-3.7c22.4-39,44.9-77.9,67.9-117.7c58.4,101.1,116.4,201.6,174.8,302.8c-74.2,0-147.3,0-221,0
		c2.3-6.4,4.2-12.4,6.7-18c0.6-1.3,3.3-2.3,5.1-2.3c11.3-0.2,22.5-0.1,33.8-0.1c43.7,0,87.3,0,131,0
		C1351.1,693,1353.5,693,1357.2,693z"/>
	<path class="st1" d="M915,489.3c0-57.9,0-115,0-172.6c97.5,0,194.8,0,292.8,0c0,2.2,0,4.3,0,6.4c0,19.4,0.1,38.7-0.1,58.1
		c-0.1,3.5-1.2,7.4-2.9,10.5c-5.3,9.9-11.1,19.5-17.8,29.1c0-27.6,0-55.2,0-83.1c-84.1,0-167.4,0-251.4,0c0,2.4,0,4.7,0,7
		c0,42.9-0.1,85.7,0.1,128.6c0,3.9-0.9,6.1-4.6,7.7C925.9,483.2,921,486.1,915,489.3z"/>
</g>
</svg>
